<?xml version="1.0" encoding="utf-8"?>
<svg width="256" height="256" viewBox="0 0 256 256" fill="none" xmlns="http://www.w3.org/2000/svg">
  <path d="M 118.709 39.431 C 121.384 39.431 123.553 37.262 123.553 34.587 C 123.553 31.911 121.384 29.742 118.709 29.742 C 116.033 29.742 113.865 31.911 113.865 34.587 C 113.865 37.262 116.033 39.431 118.709 39.431 Z" fill="black"/>
  <path d="M 236.333 121.964 C 237.914 122.848 239.195 124.349 239.195 126.365 C 239.195 128.19 238.308 129.357 237.109 130.033 C 235.953 130.684 234.533 130.872 233.383 130.872 C 229.097 130.872 222.733 130.137 217.438 128.995 C 214.792 128.425 212.382 127.745 210.621 126.992 C 209.744 126.616 208.993 126.209 208.452 125.764 C 207.926 125.332 207.488 124.772 207.488 124.088 C 207.488 123.438 207.988 123.083 208.422 122.902 C 208.87 122.715 209.471 122.607 210.15 122.538 C 211.461 122.403 213.282 122.39 215.374 122.376 C 219.83 122.346 225.836 122.282 231.136 121.11 C 232.777 120.747 234.757 121.084 236.333 121.964 Z" fill="black"/>
  <path d="M 31.304 118.672 C 31.467 118.33 31.4 117.985 31.224 117.69 C 31.055 117.408 30.774 117.148 30.446 116.912 C 29.783 116.436 28.819 115.983 27.785 115.594 C 26.746 115.203 25.613 114.868 24.599 114.636 C 23.594 114.406 22.676 114.27 22.077 114.294 C 20.852 114.343 19.641 115.091 18.91 115.999 C 18.541 116.456 18.274 116.979 18.199 117.506 C 18.123 118.045 18.25 118.585 18.663 119.024 C 18.891 119.267 19.263 119.443 19.675 119.578 C 20.101 119.718 20.622 119.831 21.198 119.918 C 22.353 120.094 23.765 120.175 25.155 120.159 C 26.545 120.143 27.927 120.03 29.021 119.812 C 29.567 119.703 30.054 119.565 30.438 119.392 C 30.808 119.227 31.149 119 31.304 118.672 Z" fill="black"/>
  <path d="M 32.924 103.549 C 31.221 103.549 29.841 104.929 29.841 106.632 L 29.841 109.714 L 45.959 109.714 C 47.661 109.714 49.041 108.334 49.041 106.632 C 49.041 104.929 47.661 103.549 45.959 103.549 L 32.924 103.549 Z" fill="black"/>
  <path d="M 47.703 156.985 C 48.251 158.338 47.6 159.878 46.248 160.427 C 35.931 164.614 30.607 168.263 21.114 175.971 C 19.981 176.891 18.317 176.719 17.397 175.586 C 16.477 174.453 16.65 172.789 17.783 171.869 C 27.509 163.971 33.289 159.983 44.261 155.53 C 45.613 154.982 47.154 155.633 47.703 156.985 Z" fill="black"/>
  <path d="M 224.916 151.675 C 225.309 152.11 225.531 152.585 225.453 153.078 C 225.307 154.002 224.597 154.623 223.645 155.025 C 222.692 155.427 221.46 155.626 220.191 155.691 C 218.919 155.757 217.596 155.69 216.452 155.55 C 215.312 155.412 214.336 155.2 213.764 154.972 C 212.624 154.518 211.103 153.237 210.024 151.848 C 209.483 151.151 209.044 150.414 208.819 149.726 C 208.596 149.04 208.576 148.371 208.927 147.843 C 209.031 147.687 209.199 147.575 209.397 147.494 C 209.598 147.411 209.843 147.354 210.122 147.317 C 210.681 147.243 211.399 147.246 212.214 147.312 C 213.846 147.443 215.894 147.828 217.884 148.375 C 219.872 148.922 221.814 149.634 223.229 150.424 C 223.936 150.819 224.522 151.238 224.916 151.675 Z" fill="black"/>
  <path d="M 105.355 22.732 C 110.664 21.976 128.004 20.858 148.469 20.936 C 149.83 20.941 150.939 19.841 150.944 18.479 C 150.949 17.117 149.849 16.009 148.487 16.004 C 127.029 15.922 108.653 17.145 103.844 17.977 C 101.346 18.409 99.361 19.084 97.982 19.663 L 95.723 20.789 C 94.572 21.518 94.23 23.042 94.959 24.192 C 95.685 25.339 97.202 25.683 98.351 24.962 L 99.89 24.211 C 100.399 23.997 101.026 23.762 101.762 23.534 C 101.554 26.84 103.871 34.566 106.609 39.967 C 107.069 41.13 107.527 42.287 108.254 43.184 L 108.255 43.184 L 108.257 43.187 C 108.378 43.335 108.498 43.483 108.617 43.631 C 109.882 45.198 111.031 46.706 111.709 48.474 C 112.912 51.604 113.462 54.879 113.553 57.755 C 113.644 60.646 113.271 63.07 112.684 64.513 C 112.621 64.667 112.472 64.872 112.183 65.123 C 111.899 65.37 103.862 69.192 103.862 69.192 C 102.706 69.755 101.632 70.37 100.948 71.054 C 100.537 71.464 100.196 72.145 99.908 72.909 C 99.609 73.7 99.332 74.676 99.092 75.76 C 98.61 77.929 98.261 80.584 98.177 83.164 C 98.093 85.733 98.27 88.288 98.879 90.227 C 99.476 92.129 100.605 93.743 102.591 93.743 C 103.256 93.743 103.799 93.483 104.194 93.013 C 104.562 92.576 104.768 91.999 104.898 91.402 C 105.135 90.315 105.172 88.872 105.21 87.376 C 105.254 85.698 105.332 83.519 105.652 81.867 C 105.972 80.215 106.534 78.751 107.518 77.657 C 110.453 74.397 114.266 74.015 121.175 74.015 C 124.2 74.015 128.606 75.513 133.633 77.788 C 138.628 80.049 144.122 83.019 149.286 85.86 C 153.666 88.276 159.756 91.633 162.912 93.119 C 164.724 93.972 166.292 94.603 167.475 94.867 C 168.06 94.998 168.625 95.056 169.106 94.959 C 169.629 94.852 170.096 94.543 170.286 93.963 C 170.474 93.388 170.267 92.804 169.994 92.328 C 169.708 91.831 169.26 91.299 168.709 90.746 C 167.602 89.635 165.96 88.33 163.983 86.914 C 160.023 84.077 154.616 80.72 149.18 77.473 C 145.66 75.371 142.115 73.306 138.937 71.455 L 138.934 71.453 C 137.207 70.448 135.589 69.505 134.142 68.654 C 132.081 67.441 130.37 66.416 129.177 65.651 C 128.646 65.311 128.228 65.029 127.932 64.81 C 128.152 64.724 128.438 64.633 128.792 64.538 C 129.476 64.354 130.31 64.177 131.22 63.984 C 131.654 63.892 132.105 63.796 132.565 63.694 C 133.962 63.385 135.428 63.022 136.59 62.545 C 137.171 62.306 137.711 62.025 138.136 61.684 C 138.561 61.343 138.925 60.897 139.04 60.324 C 139.095 60.049 139.028 59.785 138.962 59.598 C 138.89 59.394 138.781 59.178 138.652 58.959 C 138.394 58.519 138.012 57.996 137.538 57.418 C 136.587 56.257 135.213 54.812 133.57 53.275 C 130.287 50.204 125.873 46.712 121.51 44.346 C 120.267 43.671 119.202 43.216 118.269 42.846 C 117.969 42.727 117.688 42.619 117.423 42.516 L 117.422 42.516 L 117.421 42.516 C 116.846 42.294 116.34 42.1 115.853 41.877 C 114.509 41.262 113.401 40.472 112.078 38.435 C 111.839 38.068 111.567 37.68 111.281 37.273 C 110.415 36.038 109.425 34.627 108.886 33.094 C 108.382 31.657 107.929 30.184 107.494 28.764 L 107.493 28.761 C 107.31 28.167 107.13 27.582 106.951 27.012 C 106.44 25.392 105.926 23.881 105.355 22.732 Z" fill="black"/>
  <path d="M 204.204 108.95 C 204.204 107.62 205.282 106.542 206.612 106.542 L 221.274 106.542 C 222.604 106.542 223.682 107.62 223.682 108.95 C 223.682 110.28 222.604 111.358 221.274 111.358 L 206.612 111.358 C 205.282 111.358 204.204 110.28 204.204 108.95 Z" fill="black"/>
  <path fill-rule="evenodd" clip-rule="evenodd" d="M 61.055 152.616 Z" fill="black"/>
  <path fill-rule="evenodd" clip-rule="evenodd" d="M 100.829 101.259 C 100.829 100.259 100.03 99.471 98.898 98.851 C 97.743 98.219 96.117 97.69 94.198 97.248 C 90.355 96.364 85.245 95.812 80.151 95.537 C 75.054 95.261 69.954 95.26 66.124 95.484 C 64.211 95.596 62.603 95.764 61.468 95.984 C 60.903 96.094 60.435 96.22 60.101 96.369 C 59.935 96.442 59.781 96.53 59.663 96.639 C 59.545 96.75 59.434 96.911 59.434 97.12 C 59.434 97.395 59.567 97.626 59.744 97.809 C 59.919 97.99 60.158 98.148 60.432 98.289 C 60.979 98.57 61.742 98.822 62.629 99.054 C 64.406 99.519 66.767 99.923 69.109 100.309 C 71.167 100.646 74.002 101.11 75.538 101.454 C 76.413 101.65 77.121 101.848 77.605 102.05 C 77.848 102.151 78.089 102.324 78.188 102.405 C 78.105 102.466 77.909 102.58 77.682 102.65 C 77.233 102.788 76.57 102.895 75.745 102.979 C 74.236 103.131 72.262 103.199 70.234 103.269 C 70.05 103.275 69.866 103.282 69.683 103.288 C 67.474 103.365 65.244 103.453 63.565 103.668 C 62.729 103.774 62.004 103.915 61.48 104.112 C 61.219 104.21 60.984 104.331 60.808 104.487 C 60.627 104.648 60.491 104.866 60.491 105.137 C 60.491 105.955 61.18 106.402 61.9 106.677 C 62.582 106.937 63.464 107.11 64.319 107.277 L 64.32 107.277 C 65.27 107.464 66.398 107.7 67.051 107.998 C 67.706 108.296 67.992 108.64 67.977 109.089 C 67.94 110.233 67.202 110.888 66.234 111.462 C 66.234 111.462 65.905 111.476 65.776 111.476 L 39.001 111.476 C 37.78 111.476 36.783 112.431 36.715 113.634 C 35.969 113.973 35.39 114.469 35.223 115.186 C 35.084 115.781 35.381 116.367 35.833 116.888 C 36.294 117.419 36.983 117.962 37.805 118.498 C 39.453 119.575 41.712 120.677 43.979 121.667 C 46.25 122.658 50.532 123.988 50.779 124.362 C 51.025 124.736 51.238 128.267 51.025 128.781 C 50.973 128.907 50.767 129.142 50.256 129.462 C 49.774 129.764 49.122 130.081 48.343 130.417 C 47.39 130.827 46.301 131.242 45.159 131.678 C 44.418 131.961 43.654 132.252 42.89 132.557 C 40.987 133.315 39.103 134.145 37.79 135.069 C 37.135 135.53 36.572 136.048 36.234 136.635 C 35.88 137.248 35.773 137.937 36.047 138.652 C 36.388 139.542 37.338 139.852 38.29 139.929 C 39.287 140.01 40.575 139.865 42.034 139.572 C 44.964 138.983 48.761 137.756 52.693 136.278 C 53.842 135.846 54.997 135.393 56.136 134.945 L 56.137 134.945 C 58.742 133.921 61.27 132.927 63.492 132.289 C 65.085 131.83 66.457 131.575 67.537 131.61 C 68.611 131.644 69.286 131.958 69.668 132.523 C 70.494 133.745 70.144 135.489 68.693 137.618 C 67.274 139.7 64.953 141.908 62.408 143.842 C 61.044 144.878 59.075 146.107 57.732 146.931 L 57.732 146.932 L 57.731 146.932 C 56.601 147.623 55.531 148.277 54.651 148.919 C 53.641 149.657 52.782 150.446 52.37 151.362 C 51.928 152.346 52.042 153.379 52.756 154.451 C 53.222 155.15 53.951 155.37 54.716 155.327 C 55.451 155.286 56.293 155.004 57.171 154.622 C 58.314 154.123 59.65 153.389 61.052 152.618 L 61.053 152.618 L 61.053 152.617 L 61.055 152.617 L 61.055 152.616 C 61.795 152.21 62.552 151.793 63.31 151.396 C 65.55 150.221 67.836 149.184 69.915 148.847 C 71.966 148.513 73.735 148.868 75.093 150.381 C 75.688 151.045 76.051 152.027 76.152 153.311 C 76.252 154.594 76.085 156.13 75.67 157.838 C 74.838 161.251 73.033 165.256 70.543 169.098 C 68.315 172.535 65.665 175.413 63.42 177.85 L 63.42 177.851 C 62.771 178.556 62.155 179.224 61.594 179.859 C 60.367 181.245 59.354 182.517 58.896 183.65 C 58.662 184.229 58.55 184.824 58.67 185.407 C 58.793 186.003 59.14 186.506 59.672 186.919 C 60.233 187.355 60.843 187.525 61.475 187.45 C 62.082 187.377 62.654 187.085 63.181 186.705 C 64.208 185.966 65.264 184.743 66.313 183.528 C 67.406 182.262 68.567 180.922 69.739 179.978 C 70.913 179.032 72.056 178.5 73.213 178.592 C 74.461 178.691 75.131 179.112 75.557 179.654 C 76.013 180.235 76.249 181.026 76.47 182.004 C 76.849 183.781 77.433 186.506 79.666 187.691 C 81.586 188.709 83.178 189.098 84.553 189.154 C 85.923 189.21 87.04 188.933 87.974 188.685 L 88.095 188.653 C 88.998 188.413 89.65 188.24 90.291 188.311 C 90.905 188.379 91.583 188.688 92.438 189.666 C 94.665 192.21 94.973 196.362 94.167 201.42 C 93.368 206.44 90.98 213.698 89.128 219.162 C 87.472 224.028 85.903 228.639 85.261 232.22 C 84.907 234.193 84.816 235.945 85.206 237.287 C 85.404 237.97 85.734 238.568 86.235 239.028 C 86.738 239.489 87.378 239.776 88.139 239.895 C 89.551 240.117 90.766 239.987 91.804 239.508 C 92.842 239.03 93.645 238.229 94.276 237.207 C 95.52 235.194 96.158 232.223 96.638 228.797 C 96.875 227.107 97.076 225.291 97.285 223.39 C 97.938 217.484 98.681 210.759 100.883 204.426 C 102.281 200.405 103.985 198.652 105.61 197.423 C 106.026 197.108 106.439 196.826 106.857 196.542 L 106.884 196.523 C 107.288 196.248 107.698 195.968 108.093 195.668 C 108.91 195.048 109.686 194.325 110.337 193.275 C 111.996 190.598 112.561 187.869 113.016 185.668 L 113.016 185.667 C 113.147 185.036 113.268 184.448 113.404 183.918 C 113.718 182.693 114.09 181.811 114.716 181.231 C 115.319 180.67 116.255 180.307 117.898 180.355 C 118.963 180.386 119.897 180.889 120.738 181.825 C 121.588 182.771 122.317 184.137 122.937 185.811 C 124.177 189.158 124.922 193.573 125.406 197.863 C 125.587 199.467 125.697 201.119 125.789 202.5 L 125.789 202.501 C 125.884 203.911 125.972 205.201 126.135 206.285 C 126.297 207.357 126.542 208.314 126.998 209.014 C 127.487 209.764 128.205 210.2 129.182 210.212 C 129.759 210.22 130.27 210.039 130.694 209.69 C 131.107 209.352 131.409 208.879 131.634 208.341 C 132.08 207.275 132.282 205.807 132.343 204.132 C 132.466 200.766 132.025 196.292 131.542 191.859 C 131.113 187.979 130.517 182.564 130.45 179.646 C 130.411 177.973 130.49 176.631 130.721 175.714 C 130.966 174.748 131.289 174.556 131.52 174.541 C 133.891 174.385 135.655 176.052 137.336 177.769 C 138.887 179.36 140.639 181.157 143.281 181.157 C 143.696 181.157 144.076 181.053 144.405 180.839 C 144.731 180.629 144.974 180.334 145.157 180.001 C 145.514 179.352 145.681 178.486 145.764 177.552 C 145.878 176.269 145.806 172.443 145.769 170.801 C 145.758 168.364 145.89 166.038 146.556 164.334 C 146.884 163.494 147.328 162.84 147.918 162.396 C 148.501 161.956 149.274 161.683 150.328 161.683 C 152.216 161.683 153.608 162.079 154.751 162.721 C 155.904 163.369 156.843 164.289 157.8 165.402 C 159.388 167.367 162.415 171.083 165.402 173.041 C 167.363 174.327 170.025 175.532 172.66 176.725 C 175.649 178.085 179.472 179.889 181.292 181.371 C 188.429 187.18 198.761 197.76 203.945 204.044 C 206.578 207.342 208.923 210.278 211.056 212.284 C 212.571 213.708 214.061 214.747 215.557 215.089 C 217.113 215.445 218.588 215.028 219.972 213.748 C 220.596 213.171 221.003 212.517 221.192 211.791 C 221.379 211.068 221.338 210.318 221.134 209.562 C 220.732 208.072 219.673 206.485 218.279 204.857 C 216.148 202.368 213.085 199.621 209.939 196.799 C 208.147 195.161 203.216 190.824 201.463 189.344 L 201.462 189.343 L 201.461 189.342 C 199.761 187.907 198.175 186.567 196.845 185.338 C 195.468 184.065 194.407 182.947 193.785 181.996 C 193.145 181.016 193.102 180.422 193.317 180.042 C 193.577 179.581 194.059 179.293 194.904 179.247 C 195.767 179.2 196.921 179.417 198.34 179.897 C 201.168 180.853 204.842 182.78 208.927 185.285 C 211.282 186.728 213.884 186.812 215.995 186.035 C 218.09 185.263 219.765 183.611 220.16 181.527 C 221.042 176.871 217.256 169.962 207.576 169.962 C 203.961 169.962 200.372 169.845 197.547 169.116 C 194.719 168.387 192.846 167.098 192.322 164.888 C 189.253 151.933 179.808 147.296 171.91 144.547 C 170.667 144.115 166.392 142.739 166.392 142.739 C 164.719 142.184 163.293 141.658 162.191 141.062 C 161.085 140.463 160.393 139.838 160.077 139.13 C 159.773 138.448 159.766 137.564 160.316 136.31 C 160.695 135.446 161.478 134.721 162.609 134.17 C 163.739 133.619 165.176 133.263 166.777 133.122 C 169.982 132.838 173.73 133.421 176.749 134.858 C 179.079 135.967 180.353 137.376 181.56 138.732 C 182.741 140.061 183.994 141.47 186.06 142.185 C 186.672 142.396 187.613 142.515 188.722 142.581 C 189.85 142.648 191.215 142.664 192.708 142.644 C 195.697 142.604 200.243 142.362 203.513 142.157 C 204.509 142.099 205.449 142.044 206.301 141.954 C 207.435 141.834 208.475 141.645 209.355 141.273 C 210.251 140.893 210.989 140.319 211.495 139.44 C 211.993 138.574 212.234 137.465 212.244 136.067 C 212.254 134.76 211.673 133.479 210.736 132.311 C 209.796 131.139 208.466 130.04 206.89 129.079 C 203.738 127.156 199.518 125.732 195.205 125.398 C 192.45 125.185 189.643 125.063 186.926 124.946 L 186.925 124.946 C 186.263 124.917 185.607 124.888 184.958 124.859 C 181.634 124.708 178.506 124.53 175.799 124.158 C 173.082 123.784 170.856 123.223 169.304 122.343 C 167.785 121.481 166.955 120.345 166.885 118.764 C 166.825 117.407 167.198 116.384 167.868 115.583 C 168.551 114.768 169.58 114.14 170.902 113.664 C 173.559 112.708 177.196 112.437 180.939 112.337 C 182.043 112.307 183.157 112.293 184.253 112.279 L 184.255 112.279 C 186.822 112.246 189.287 112.214 191.269 111.993 C 192.683 111.836 193.937 111.575 194.844 111.104 C 195.305 110.866 195.706 110.557 195.987 110.152 C 196.274 109.738 196.412 109.255 196.39 108.721 C 196.365 108.093 196.159 107.551 195.78 107.104 C 195.41 106.667 194.903 106.356 194.326 106.125 C 193.189 105.669 191.622 105.469 189.823 105.342 C 188.787 105.27 187.661 105.221 186.46 105.168 L 186.459 105.168 C 183.409 105.035 179.879 104.88 176.145 104.268 C 173.506 103.835 172.03 102.845 170.491 101.812 L 170.49 101.812 C 170.296 101.682 170.1 101.55 169.9 101.419 C 168.081 100.224 166.071 99.145 162.217 99.145 C 158.481 99.145 152.848 99.61 148.137 100.554 C 145.785 101.024 143.627 101.622 142.042 102.359 C 141.251 102.727 140.568 103.145 140.074 103.626 C 139.577 104.111 139.23 104.704 139.23 105.399 C 139.23 106.282 139.954 106.779 140.664 107.058 C 141.409 107.351 142.428 107.53 143.582 107.65 C 145.379 107.837 147.646 107.894 150.002 107.953 C 153.095 108.046 158.218 108.263 160.563 108.762 C 161.737 109.013 162.683 109.339 163.351 109.752 C 164.01 110.16 164.344 110.617 164.427 111.134 C 164.527 111.753 164.425 112.258 164.185 112.694 C 163.938 113.14 163.524 113.549 162.947 113.925 C 161.781 114.685 160.081 115.225 158.211 115.669 C 157.284 115.889 156.088 116.132 155.162 116.317 C 154.326 116.484 153.512 116.647 152.772 116.818 C 151.962 117.005 151.214 117.208 150.605 117.447 C 150.018 117.677 149.456 117.98 149.127 118.424 C 148.777 118.896 148.721 119.464 148.79 120.005 C 148.858 120.544 149.059 121.128 149.316 121.719 C 149.676 122.547 150.19 123.484 150.711 124.433 C 150.925 124.823 151.14 125.215 151.346 125.602 C 152.072 126.968 152.698 128.296 152.932 129.471 C 153.161 130.626 152.995 131.517 152.286 132.176 C 151.951 132.487 151.614 132.584 151.245 132.55 C 150.846 132.514 150.367 132.319 149.807 131.951 C 148.68 131.21 147.132 129.591 145.843 128.211 C 144.681 126.965 143.486 125.683 142.377 124.842 C 141.772 124.383 141.138 124.012 140.501 123.868 C 139.831 123.717 139.16 123.821 138.576 124.298 C 137.941 124.815 137.894 125.598 138.025 126.302 C 138.156 127.014 138.5 127.84 138.916 128.701 C 139.111 129.105 139.343 129.528 139.583 129.965 C 139.727 130.227 139.874 130.494 140.017 130.764 C 140.535 131.755 141.405 133.526 141.832 134.54 C 142.92 137.126 143.742 139.783 143.991 141.926 C 144.115 142.999 144.091 143.903 143.911 144.59 C 143.734 145.267 143.423 145.682 143.001 145.897 C 142.68 146.061 142.326 146.051 141.828 145.764 C 141.306 145.462 140.709 144.895 140.017 144.082 C 139.332 143.276 138.225 141.773 137.407 140.65 L 137.407 140.649 C 136.695 139.67 135.929 138.615 135.105 137.548 C 131.258 132.566 125.986 127.07 118.356 127.07 C 112.902 127.07 109.17 129.529 106.985 131.247 C 105.296 132.626 103.999 133.685 101.71 133.685 C 101.299 133.685 101.001 133.594 100.773 133.458 C 100.542 133.32 100.345 133.113 100.172 132.825 C 99.811 132.226 99.523 130.966 99.316 129.938 C 99.143 129.056 98.954 128.092 98.633 127.24 C 98.258 126.241 97.668 125.298 96.619 124.76 C 96.127 124.507 95.524 124.397 94.888 124.362 C 94.244 124.326 93.519 124.366 92.751 124.45 C 91.362 124.602 89.769 124.904 88.185 125.206 L 88.184 125.206 C 86.425 125.539 84.213 125.944 82.731 126.054 C 81.212 126.168 80.107 126.052 79.484 125.672 C 76.707 123.977 72.329 122.634 67.912 121.76 C 67.873 120.245 67.901 118.614 68.063 117.064 C 68.184 115.909 68.691 115.241 69.384 114.83 C 70.101 114.403 71.047 114.234 72.064 114.165 C 72.568 114.131 73.078 114.122 73.574 114.114 C 73.574 114.114 74.566 114.098 74.984 114.068 C 75.416 114.038 75.826 113.982 76.167 113.867 C 76.509 113.752 76.825 113.562 77.006 113.234 C 77.572 112.204 77.117 111.209 76.763 110.432 L 76.731 110.363 C 76.54 109.942 76.381 109.583 76.326 109.242 C 76.276 108.924 76.319 108.637 76.537 108.345 C 76.537 108.345 76.726 108.242 76.83 108.207 C 77.037 108.137 77.324 108.07 77.687 108.006 C 78.413 107.877 79.395 107.767 80.557 107.657 C 81.217 107.595 81.934 107.532 82.69 107.466 L 82.691 107.466 C 84.584 107.301 86.723 107.114 88.84 106.851 C 91.8 106.482 94.755 105.96 96.978 105.122 C 98.089 104.704 99.042 104.197 99.722 103.571 C 100.409 102.939 100.829 102.173 100.829 101.259 Z M 50.501 116.76 L 62.806 116.76 C 62.77 116.886 62.729 117.011 62.683 117.134 C 62.435 117.788 62.027 118.387 61.291 118.83 C 60.547 119.277 59.439 119.582 57.761 119.582 C 54.797 119.582 53.049 119.339 52.016 118.971 C 51.504 118.789 51.185 118.582 50.979 118.373 C 50.778 118.168 50.669 117.945 50.606 117.7 C 50.54 117.445 50.518 117.075 50.501 116.76 Z" fill="black"/>
</svg>
