<?xml version="1.0" encoding="utf-8"?>
<svg width="256" height="256" viewBox="0 0 256 256" fill="none" xmlns="http://www.w3.org/2000/svg">
  <path d="M 240 35.812 C 240 42.656 234.45 48.205 227.607 48.205 C 220.762 48.205 215.214 42.656 215.214 35.812 C 215.214 28.967 220.762 23.419 227.607 23.419 C 234.45 23.419 240 28.967 240 35.812 Z" fill="black"/>
  <path d="M 168.153 63.861 C 169.144 65.154 168.899 67.007 167.606 67.998 C 116.132 107.45 76.928 129.329 19.729 144.967 C 18.157 145.397 16.534 144.471 16.105 142.899 C 15.675 141.327 16.601 139.704 18.173 139.275 C 74.449 123.889 112.974 102.435 164.016 63.314 C 165.309 62.323 167.161 62.568 168.153 63.861 Z" fill="black"/>
  <path d="M 182.623 161.97 C 183.762 160.74 183.687 158.82 182.456 157.681 C 181.226 156.543 179.306 156.618 178.168 157.848 C 150.55 187.701 134.849 203.818 102.74 227.088 C 101.382 228.071 101.08 229.969 102.063 231.326 C 103.047 232.683 104.945 232.986 106.302 232.003 C 138.888 208.387 154.904 191.934 182.623 161.97 Z" fill="black"/>
  <path d="M 140.887 41.244 C 141.379 42.798 140.518 44.456 138.964 44.947 C 136.275 45.798 133.649 46.637 131.076 47.467 C 135.344 47.412 148.821 47.193 153.139 47.025 C 160.146 46.752 166.127 46.245 170.12 45.891 C 173.636 45.577 176.38 45.332 179.046 45.332 L 211.588 45.332 C 211.71 45.332 211.829 45.365 211.934 45.427 C 216.579 48.2 219.475 51.213 220.901 54.415 C 222.335 57.633 222.247 60.959 221.087 64.266 C 218.788 70.816 212.243 77.4 204.693 83.379 C 197.466 89.103 188.244 94.968 181.6 99.193 C 178.194 101.361 175.284 103.228 173.225 104.728 C 172.194 105.479 171.4 106.121 170.87 106.649 C 170.605 106.914 170.194 107.303 170.194 107.555 C 170.194 108.134 170.393 108.951 170.801 109.984 C 171.203 111.005 171.785 112.182 172.5 113.464 C 173.929 116.026 175.859 118.956 177.853 121.801 C 179.845 124.643 181.893 127.389 183.553 129.582 C 184.127 130.339 184.657 131.035 185.123 131.646 L 185.124 131.647 C 185.997 132.792 186.645 133.643 186.934 134.057 C 190.297 138.878 191.356 142.72 190.432 145.87 C 189.51 149.013 186.687 151.21 182.945 152.929 C 179.186 154.655 174.332 155.974 169.09 157.267 C 167.896 157.562 166.682 157.855 165.454 158.152 L 165.451 158.152 C 161.263 159.164 156.916 160.213 152.684 161.482 C 138.757 165.656 123.675 169.453 115.642 171.439 C 113.848 171.883 112.3 171.727 111.081 171.141 C 109.862 170.556 109.016 169.562 108.6 168.417 C 107.766 166.118 108.685 163.278 111.566 161.908 C 119.203 158.277 132.838 152.686 144.547 148.008 C 150.405 145.668 160.331 141.784 163.956 139.676 L 144.564 119.873 C 135.597 125.587 73.666 163.693 61.259 171.364 C 56.097 174.3 46.846 178.922 43.231 180.71 C 41.944 181.226 40.875 181.567 40.104 181.656 C 37.562 181.949 35.698 180.446 35.062 178.4 C 34.431 176.368 35.009 173.84 37.136 171.965 C 49.639 160.941 86.149 133.121 119.502 108.08 C 136.185 95.555 152.088 83.717 163.82 75.01 C 169.687 70.657 172.655 67.464 176.012 64.981 C 177.69 63.74 179.921 62.093 179.921 62.093 C 179.921 62.093 175.101 61.535 172.139 61.286 C 166.212 60.789 159.797 60.287 150.13 60.429 C 133.024 60.681 123.11 59.999 117.539 59.056 C 114.763 58.586 112.946 57.952 111.818 57.092 C 111.241 56.653 110.338 55.118 110.282 54.411 C 83.282 63.785 60.346 73.349 28.571 88.55 C 27.101 89.254 25.339 88.632 24.635 87.162 C 23.932 85.692 24.554 83.93 26.024 83.227 C 68.601 62.857 95.498 52.512 137.184 39.321 C 138.738 38.829 140.396 39.69 140.887 41.244 Z" fill="black"/>
</svg>
