<?xml version="1.0" encoding="utf-8"?>
<svg width="256" height="256" viewBox="0 0 256 256" fill="none" xmlns="http://www.w3.org/2000/svg">
  <path d="M 140.766 28.81 L 140.766 41.62 L 115.146 41.62 L 115.146 28.81 C 115.146 21.736 120.881 16 127.956 16 C 135.031 16 140.766 21.736 140.766 28.81 Z" fill="black"/>
  <path fill-rule="evenodd" clip-rule="evenodd" d="M 115.146 44.043 L 115.146 160.89 L 140.766 160.89 L 140.766 44.043 L 115.146 44.043 Z M 139.381 52.872 C 139.381 56.41 134.344 59.277 128.129 59.277 C 121.915 59.277 116.877 56.41 116.877 52.872 C 116.877 49.334 121.915 46.467 128.129 46.467 C 134.344 46.467 139.381 49.334 139.381 52.872 Z M 139.381 69.375 C 139.381 72.911 134.344 75.78 128.129 75.78 C 121.915 75.78 116.877 72.911 116.877 69.375 C 116.877 65.837 121.915 62.97 128.129 62.97 C 134.344 62.97 139.381 65.837 139.381 69.375 Z M 128.129 92.282 C 134.344 92.282 139.381 89.415 139.381 85.877 C 139.381 82.341 134.344 79.472 128.129 79.472 C 121.915 79.472 116.877 82.341 116.877 85.877 C 116.877 89.415 121.915 92.282 128.129 92.282 Z M 139.381 102.38 C 139.381 105.918 134.344 108.785 128.129 108.785 C 121.915 108.785 116.877 105.918 116.877 102.38 C 116.877 98.842 121.915 95.975 128.129 95.975 C 134.344 95.975 139.381 98.842 139.381 102.38 Z M 128.129 125.288 C 134.344 125.288 139.381 122.42 139.381 118.883 C 139.381 115.346 134.344 112.479 128.129 112.479 C 121.915 112.479 116.877 115.346 116.877 118.883 C 116.877 122.42 121.915 125.288 128.129 125.288 Z M 139.381 135.385 C 139.381 138.923 134.344 141.79 128.129 141.79 C 121.915 141.79 116.877 138.923 116.877 135.385 C 116.877 131.849 121.915 128.98 128.129 128.98 C 134.344 128.98 139.381 131.849 139.381 135.385 Z M 128.129 158.294 C 134.344 158.294 139.381 155.427 139.381 151.889 C 139.381 148.351 134.344 145.484 128.129 145.484 C 121.915 145.484 116.877 148.351 116.877 151.889 C 116.877 155.427 121.915 158.294 128.129 158.294 Z" fill="black"/>
  <path d="M 176.599 177.162 L 176.599 164.525 L 79.66 164.525 L 79.66 177.162 L 176.599 177.162 Z" fill="black"/>
  <path d="M 133.149 181.144 L 122.936 181.144 L 122.936 240 L 133.149 240 L 133.149 181.144 Z" fill="black"/>
  <path d="M 150.653 135.697 C 150.284 135.75 149.193 135.924 148.145 136.7 C 146.362 138.022 145.859 139.903 145.757 141.154 C 145.66 142.351 145.869 143.484 146.072 144.318 C 146.484 146.002 147.267 147.947 147.944 149.611 C 148.6 151.219 149.442 153.286 149.93 154.756 C 150.489 156.438 150.72 157.617 150.72 158.354 L 160.241 158.354 C 160.241 156.319 157.985 149.655 157.023 146.812 C 156.9 146.451 156.799 146.152 156.726 145.932 C 157.571 146.114 158.498 146.328 159.503 146.574 C 164.75 147.856 171.778 149.921 179.286 152.595 C 186.798 155.271 194.702 158.526 201.736 162.171 C 206.526 164.653 210.777 167.246 214.196 169.873 C 202.316 177.69 192.467 182.692 182.411 186.118 C 174.339 188.869 166.016 190.645 156.229 191.994 C 156.652 191.478 157.057 190.963 157.432 190.455 C 158.08 189.575 158.717 188.615 159.21 187.641 C 159.65 186.773 160.241 185.391 160.241 183.801 L 150.72 183.801 C 149.767 185.093 140.281 194.699 140.281 194.699 C 138.744 196.069 138.263 198.273 139.088 200.159 C 139.913 202.046 141.858 203.188 143.908 202.99 C 160.136 201.419 172.972 199.393 185.482 195.13 C 198.019 190.858 209.993 184.424 224.658 174.3 C 225.808 173.506 226.551 172.246 226.69 170.855 C 226.829 169.464 226.349 168.082 225.379 167.077 C 220.546 162.068 213.573 157.581 206.116 153.717 C 198.592 149.819 190.268 146.4 182.481 143.627 C 174.691 140.851 167.351 138.69 161.763 137.325 C 158.981 136.645 156.555 136.144 154.687 135.869 C 153.769 135.733 152.863 135.634 152.065 135.619 C 151.672 135.611 151.175 135.62 150.653 135.697 Z" fill="black"/>
  <path d="M 105.346 135.726 C 105.715 135.78 106.806 135.953 107.854 136.73 C 109.638 138.051 110.141 139.933 110.242 141.184 C 110.339 142.381 110.131 143.514 109.927 144.348 C 109.516 146.032 108.732 147.977 108.055 149.64 C 107.983 149.818 107.911 149.994 107.84 150.169 L 107.834 150.183 C 107.178 151.791 106.557 153.315 106.069 154.786 C 105.51 156.468 105.279 157.647 105.279 158.384 L 95.759 158.384 C 95.759 156.349 98.311 148.805 99.273 145.961 C 98.429 146.144 97.501 146.358 96.496 146.603 C 91.249 147.886 84.221 149.95 76.713 152.625 C 69.201 155.301 61.297 158.556 54.263 162.2 C 49.473 164.682 45.222 167.276 41.803 169.903 C 53.683 177.719 63.532 182.721 73.588 186.148 C 81.66 188.898 89.983 190.674 99.77 192.024 C 99.347 191.508 98.942 190.993 98.568 190.485 C 97.919 189.605 97.282 188.645 96.789 187.671 C 96.349 186.802 95.759 185.421 95.759 183.831 L 105.279 183.831 C 106.232 185.123 115.718 194.728 115.718 194.728 C 117.255 196.099 117.736 198.302 116.911 200.189 C 116.086 202.076 114.141 203.218 112.091 203.02 C 95.863 201.449 83.027 199.423 70.517 195.16 C 57.98 190.888 46.006 184.454 31.341 174.329 C 30.191 173.535 29.448 172.276 29.309 170.885 C 29.17 169.494 29.65 168.112 30.62 167.106 C 35.453 162.098 42.426 157.611 49.883 153.747 C 57.407 149.849 65.732 146.43 73.518 143.656 C 81.308 140.881 88.648 138.72 94.236 137.355 C 97.019 136.675 99.444 136.173 101.312 135.898 C 102.231 135.763 103.136 135.664 103.935 135.649 C 104.327 135.641 104.824 135.65 105.346 135.726 Z" fill="black"/>
</svg>
