<?xml version="1.0" encoding="utf-8"?>
<svg width="256" height="256" viewBox="0 0 256 256" fill="none" xmlns="http://www.w3.org/2000/svg">
  <path d="M 95.399 40.088 C 93.312 40.088 91.621 41.78 91.621 43.868 C 91.621 45.956 93.312 47.648 95.399 47.648 L 114.116 47.648 L 114.116 99.956 C 114.116 102.724 116.359 104.967 119.125 104.967 C 121.891 104.967 124.134 102.724 124.134 99.956 L 124.134 73.231 C 124.134 71.823 125.275 70.681 126.682 70.681 C 128.09 70.681 129.23 71.823 129.23 73.231 L 129.23 100.132 C 129.23 102.802 131.394 104.967 134.064 104.967 C 136.733 104.967 138.897 102.802 138.897 100.132 L 138.897 47.648 L 160.25 47.648 C 162.337 47.648 164.028 45.956 164.028 43.868 C 164.028 41.78 162.337 40.088 160.25 40.088 L 95.399 40.088 Z" fill="black"/>
  <path d="M 90.654 63.033 C 90.654 63.033 69.389 86.681 46.453 103.824 C 67.982 99.604 74.777 97.535 89.248 89.143 C 88.532 97.959 88.369 99.428 83.8 107.78 C 94.207 95.088 97.152 92.143 105.153 87.912 L 105.162 88.094 C 105.476 94.465 105.616 97.298 103.923 104.527 C 106.853 99.358 111.656 94.945 111.656 94.945 L 111.656 55.297 C 103.245 51.563 94.575 52.587 79.757 55.297 C 85.924 57.125 90.654 63.033 90.654 63.033 Z" fill="black"/>
  <path d="M 162.535 63.091 C 162.535 63.091 183.8 86.739 206.735 103.882 C 185.206 99.662 178.412 97.593 163.94 89.201 C 164.657 98.017 164.819 99.486 169.389 107.838 C 158.982 95.146 156.036 92.201 148.035 87.97 L 148.026 88.152 C 147.712 94.523 147.572 97.356 149.266 104.585 C 146.335 99.416 141.533 95.003 141.533 95.003 L 141.533 55.355 C 149.943 51.621 158.613 52.645 173.431 55.355 C 167.265 57.183 162.535 63.091 162.535 63.091 Z" fill="black"/>
  <path d="M 124.222 135.209 C 124.222 135.209 122.113 115.253 119.389 115.253 C 118.125 115.253 117.022 117.701 115.909 120.173 L 115.908 120.175 C 114.622 123.03 113.322 125.917 111.744 125.099 L 111.744 105.143 C 114.513 108.491 117.06 111.091 121.689 109.982 C 121.678 109.865 121.673 109.746 121.673 109.626 C 121.673 107.15 123.916 105.143 126.682 105.143 C 129.448 105.143 131.702 107 131.691 109.626 C 131.69 109.764 131.676 109.979 131.676 109.979 C 131.676 109.979 138.936 108.494 141.708 105.143 L 141.708 125.099 C 140.13 125.917 138.83 123.03 137.544 120.175 L 137.543 120.173 C 136.43 117.701 135.327 115.253 134.064 115.253 C 131.339 115.253 129.23 135.209 129.23 135.209 L 129.23 217.143 C 129.23 217.143 129.23 226.813 136.612 226.198 C 140.39 226.198 146.712 215.997 151.199 208.528 C 151.674 213.953 152.331 216.436 154.187 219.868 C 172.783 207.199 192.148 188.132 192.148 188.132 C 187.089 208.892 189.248 219.868 192.148 219.868 C 193.103 219.868 195.144 219.167 197.904 218.219 C 203.524 216.289 212.126 213.335 220.619 213.187 C 204.45 219.868 185.316 234.93 181.603 240 L 74.397 240 C 70.685 234.93 51.55 219.868 35.381 213.187 C 43.875 213.335 52.477 216.289 58.097 218.219 C 60.857 219.167 62.897 219.868 63.852 219.868 C 66.752 219.868 68.912 208.892 63.852 188.132 C 63.852 188.132 83.217 207.199 101.814 219.868 C 103.669 216.436 104.327 213.953 104.802 208.528 C 109.288 215.997 115.61 226.198 119.389 226.198 C 122.464 226.198 124.222 220.484 124.222 217.143 L 124.222 135.209 Z" fill="black"/>
  <path d="M 124.868 18.742 L 124.868 24.029 L 128.848 24.029 L 128.848 18.741 C 128.848 17.227 130.074 16 131.587 16 C 133.1 16 134.327 17.227 134.327 18.741 L 134.327 30.391 C 134.327 34.484 130.983 37.802 126.858 37.802 C 122.733 37.802 119.389 34.484 119.389 30.391 L 119.389 18.742 C 119.389 17.227 120.615 16 122.128 16 C 123.642 16 124.868 17.227 124.868 18.742 Z" fill="black"/>
</svg>
