<?xml version="1.0" encoding="utf-8"?>
<svg width="256" height="256" viewBox="0 0 256 256" fill="none" xmlns="http://www.w3.org/2000/svg">
  <path d="M 176.998 27.225 C 178.477 26.523 180.246 27.153 180.948 28.633 C 188.379 44.293 192.222 53.477 197.325 71.242 C 197.777 72.816 196.868 74.459 195.294 74.911 C 193.719 75.363 192.076 74.454 191.624 72.879 C 186.632 55.503 182.921 46.627 175.59 31.176 C 174.887 29.696 175.518 27.927 176.998 27.225 Z" fill="black"/>
  <path d="M 25.414 34.906 C 26.337 33.553 28.183 33.205 29.535 34.128 L 73.598 64.209 C 74.951 65.133 75.299 66.978 74.375 68.331 C 73.452 69.684 71.606 70.032 70.254 69.108 L 26.191 39.027 C 24.838 38.104 24.49 36.258 25.414 34.906 Z" fill="black"/>
  <path d="M 107.507 90.276 C 106.16 89.344 104.313 89.681 103.381 91.028 C 102.449 92.375 102.786 94.222 104.133 95.154 L 129.554 112.737 C 130.901 113.669 132.748 113.332 133.68 111.985 C 134.612 110.638 134.275 108.79 132.928 107.859 L 107.507 90.276 Z" fill="black"/>
  <path d="M 16.44 61.927 C 17.298 60.532 19.124 60.096 20.519 60.954 L 117.33 120.481 C 118.725 121.339 119.161 123.166 118.303 124.561 C 117.445 125.956 115.618 126.392 114.223 125.534 L 17.413 66.007 C 16.017 65.149 15.582 63.323 16.44 61.927 Z" fill="black"/>
  <path d="M 133.765 28.259 C 132.739 26.982 130.872 26.779 129.595 27.804 C 128.318 28.83 128.115 30.697 129.14 31.974 C 141.099 46.86 148.709 57.715 161.85 79.624 C 162.693 81.028 164.514 81.484 165.919 80.641 C 167.324 79.799 167.779 77.977 166.937 76.573 C 153.678 54.468 145.917 43.386 133.765 28.259 Z" fill="black"/>
  <path d="M 133.993 69.467 C 133.745 69.295 133.45 69.202 133.147 69.202 C 133.147 69.202 128.026 69.133 125.786 69.134 C 121.507 69.278 115.792 69.564 110.068 70.138 C 104.363 70.71 98.569 71.575 94.169 72.898 C 91.979 73.557 90.029 74.359 88.597 75.363 C 87.175 76.361 86.013 77.748 86.013 79.584 C 86.013 81.417 87.141 82.762 88.556 83.692 C 89.96 84.616 91.858 85.287 93.968 85.794 C 98.211 86.814 103.789 87.274 109.269 87.446 C 114.77 87.62 120.262 87.506 124.373 87.35 C 126.429 87.272 128.144 87.183 129.345 87.114 C 129.852 87.084 130.267 87.058 130.579 87.038 L 144.934 100.881 C 145.477 101.404 146.326 101.437 146.908 100.957 L 160.253 89.941 C 160.611 89.646 160.81 89.2 160.791 88.736 C 160.772 88.272 160.537 87.844 160.156 87.58 L 133.993 69.467 Z" fill="black"/>
  <path d="M 211.104 92.397 C 211.104 100.528 204.512 107.12 196.381 107.12 C 188.25 107.12 181.658 100.528 181.658 92.397 C 181.658 84.266 188.25 77.674 196.381 77.674 C 204.512 77.674 211.104 84.266 211.104 92.397 Z" fill="black"/>
  <path d="M 211.858 39.638 C 213.853 39.178 215.844 40.421 216.305 42.416 C 217.052 45.651 217.783 48.799 218.497 51.875 L 218.501 51.893 L 218.506 51.916 L 218.51 51.93 C 224.108 76.049 228.662 95.669 231.975 117.297 C 232.151 118.021 232.331 118.967 232.531 120.012 L 232.531 120.013 C 232.8 121.414 233.101 122.99 233.467 124.446 C 234.857 129.989 236.586 137.514 237.913 145.409 C 239.237 153.276 240.185 161.636 239.969 168.808 C 239.86 172.393 239.458 175.792 238.609 178.731 C 237.766 181.65 236.414 184.348 234.241 186.25 C 230.308 189.692 224.753 190.937 219.183 191.161 C 213.54 191.387 207.39 190.583 201.781 189.455 C 196.15 188.322 190.945 186.837 187.156 185.64 C 185.259 185.04 183.708 184.51 182.628 184.128 C 182.088 183.937 181.665 183.783 181.375 183.676 C 181.229 183.623 181.117 183.58 181.04 183.552 C 181.012 183.541 180.988 183.532 180.969 183.525 L 180.926 183.508 L 180.924 183.508 C 180.918 183.505 180.911 183.503 180.905 183.5 C 180.251 183.247 179.738 182.787 179.411 182.224 C 179.075 181.644 178.937 180.954 179.047 180.268 C 179.116 179.831 179.281 179.425 179.519 179.073 C 179.655 178.871 179.815 178.689 179.991 178.53 C 180.501 178.071 181.171 177.785 181.911 177.769 L 198.61 177.4 L 152.539 151.002 C 151.118 150.187 150.626 148.375 151.44 146.954 C 152.255 145.532 154.067 145.041 155.488 145.855 L 194.9 168.437 L 169.031 144.018 C 167.84 142.894 167.786 141.017 168.91 139.826 C 170.034 138.635 171.911 138.58 173.102 139.705 L 202.789 167.728 C 208.879 173.225 213.07 176.39 219.605 180.057 C 207.732 163.592 198.205 153.671 185.78 140.732 L 185.778 140.731 C 182.48 137.296 178.977 133.649 175.172 129.61 C 159.035 140.352 148.147 146.038 130.139 154.851 C 139.166 159.775 149.347 165.779 157.535 171.352 C 162.014 174.4 165.938 177.346 168.758 179.936 C 170.166 181.229 171.338 182.47 172.171 183.622 C 172.97 184.729 173.609 185.96 173.609 187.195 C 173.609 188.051 173.162 188.859 172.73 189.485 C 172.257 190.17 171.598 190.916 170.816 191.7 C 169.246 193.272 167.036 195.132 164.423 197.139 C 159.188 201.161 152.198 205.877 145.125 210.225 C 138.055 214.57 130.855 218.576 125.198 221.163 C 122.381 222.452 119.878 223.42 117.936 223.887 C 116.975 224.118 116.05 224.252 115.249 224.191 C 114.473 224.132 113.47 223.852 112.909 222.9 C 112.47 222.154 112.448 221.323 112.568 220.606 C 112.689 219.885 112.977 219.13 113.349 218.382 C 114.093 216.882 115.308 215.138 116.785 213.285 C 119.752 209.563 123.982 205.153 128.27 200.951 C 132.567 196.741 136.959 192.704 140.275 189.722 C 141.832 188.321 143.153 187.152 144.117 186.306 L 113.19 171.905 L 80.343 202.057 C 80.28 202.114 80.213 202.167 80.141 202.213 L 79.34 200.965 C 80.141 202.213 80.141 202.213 80.14 202.213 L 80.103 202.237 C 80.078 202.253 80.041 202.277 79.993 202.308 L 79.564 202.581 C 79.189 202.819 78.639 203.167 77.939 203.608 C 76.538 204.489 74.534 205.739 72.119 207.217 C 67.291 210.173 60.814 214.044 54.229 217.699 C 47.656 221.347 40.925 224.808 35.605 226.92 C 32.96 227.969 30.567 228.726 28.676 228.973 C 27.736 229.096 26.805 229.111 25.988 228.895 C 25.131 228.671 24.313 228.163 23.873 227.228 C 23.466 226.362 23.518 225.446 23.755 224.634 C 23.99 223.83 24.436 223.02 24.986 222.231 C 26.088 220.65 27.802 218.885 29.859 217.048 C 33.991 213.356 39.772 209.135 45.605 205.167 C 51.449 201.191 57.391 197.438 61.869 194.681 C 64.109 193.301 65.984 192.17 67.3 191.383 C 67.958 190.99 68.477 190.683 68.831 190.473 C 68.885 190.441 68.935 190.412 68.981 190.385 C 69.039 190.35 69.091 190.32 69.136 190.293 C 84.613 170.79 92.274 159.383 104.65 138.459 C 104.748 138.293 104.876 138.149 105.029 138.033 L 105.926 139.213 C 105.029 138.033 105.029 138.033 105.03 138.032 L 105.19 137.91 C 105.269 137.851 105.375 137.77 105.508 137.669 L 105.66 137.554 C 106.072 137.242 106.676 136.784 107.446 136.201 C 108.986 135.036 111.189 133.372 113.844 131.375 C 119.154 127.382 126.271 122.056 133.499 116.73 C 140.724 111.405 148.069 106.073 153.831 102.069 C 156.71 100.069 159.209 98.389 161.107 97.205 C 162.053 96.615 162.873 96.134 163.527 95.795 C 163.852 95.627 164.161 95.48 164.44 95.373 C 164.672 95.283 165.051 95.151 165.453 95.151 C 166.556 95.151 167.709 95.59 168.816 96.202 C 169.951 96.829 171.186 97.721 172.49 98.808 C 175.101 100.984 178.128 104.057 181.382 107.693 C 187.896 114.973 195.452 124.655 202.616 134.305 C 209.786 143.961 216.585 153.614 221.59 160.851 C 224.092 164.47 226.148 167.487 227.579 169.599 L 227.678 169.745 L 227.737 169.663 L 227.793 161.415 L 206.041 109.754 C 205.405 108.244 206.113 106.505 207.623 105.869 C 209.132 105.234 210.872 105.942 211.507 107.452 L 227.896 146.375 L 227.908 144.587 C 227.886 144.47 227.868 144.351 227.856 144.23 C 224.68 111.317 219.037 87.002 211.273 53.545 C 210.56 50.473 209.829 47.324 209.081 44.085 C 208.62 42.09 209.864 40.099 211.858 39.638 Z" fill="black"/>
</svg>
