<?xml version="1.0" encoding="utf-8"?>
<svg width="256" height="256" viewBox="0 0 256 256" fill="none" xmlns="http://www.w3.org/2000/svg">
  <defs>
    <path id="bullet" d="M216.8064 75.847C216.8064 75.847 203.9922 87.2698 203.9922 113.3977 203.9922 144.6484 203.9922 158.4409 203.9922 155.6734L229.6197 155.6734C229.6197 158.4409 229.6197 144.6484 229.6197 113.3977 229.6197 87.2698 216.8064 75.847 216.8064 75.847ZM229.6197 166.2601 203.9922 166.2601 203.9922 178.3048 229.6197 178.3048 229.6197 166.2601Z"/>
    <mask id="bullet-cutout">
      <rect width="268.439" height="268.44" fill="white" x="-0.777" y="-2.09"/>
      <path d="M 56.692 77.443 C 56.692 77.443 43.255 89.421 43.255 116.819 C 43.255 149.588 43.255 164.051 43.255 161.149 L 70.128 161.149 C 70.128 164.051 70.128 149.588 70.128 116.819 C 70.128 89.421 56.692 77.443 56.692 77.443 Z M 70.128 172.25 L 43.255 172.25 L 43.255 184.88 L 70.128 184.88 L 70.128 172.25 Z" fill="black"/>
      <path d="M 100.733 77.443 C 100.733 77.443 87.296 89.421 87.296 116.819 C 87.296 149.588 87.296 164.051 87.296 161.149 L 114.169 161.149 C 114.169 164.051 114.169 149.588 114.169 116.819 C 114.169 89.421 100.733 77.443 100.733 77.443 Z M 114.169 172.25 L 87.296 172.25 L 87.296 184.88 L 114.169 184.88 L 114.169 172.25 Z" fill="black"/>
      <path d="M 144.774 77.443 C 144.774 77.443 131.337 89.421 131.337 116.819 C 131.337 149.588 131.337 164.051 131.337 161.149 L 158.21 161.149 C 158.21 164.051 158.21 149.588 158.21 116.819 C 158.21 89.421 144.774 77.443 144.774 77.443 Z M 158.21 172.25 L 131.337 172.25 L 131.337 184.88 L 158.21 184.88 L 158.21 172.25 Z" fill="black"/>
    </mask>
  </defs>
  <path d="M 226.564 77.443 C 226.564 77.443 213.127 89.421 213.127 116.818 C 213.127 149.588 213.127 164.05 213.127 161.148 L 240 161.148 C 240 164.05 240 149.588 240 116.818 C 240 89.421 226.564 77.443 226.564 77.443 Z M 240 172.25 L 213.127 172.25 L 213.127 184.88 L 240 184.88 L 240 172.25 Z" fill="black"/>
  <path d="M 16 74.458 C 16 57.084 30.084 43 47.458 43 L 174.337 43 C 191.711 43 205.795 57.084 205.795 74.458 L 184.823 74.458 L 184.823 189.803 L 205.795 189.803 C 205.795 207.177 191.711 221.261 174.337 221.261 L 47.458 221.261 C 30.084 221.261 16 207.177 16 189.803 L 16 74.458 Z" fill="black" mask="url(#bullet-cutout)"/>
</svg>