<?xml version="1.0" encoding="utf-8"?>
<svg width="256" height="256" xmlns="http://www.w3.org/2000/svg" viewBox="0 0 256 256">
  <path d="M 128 128 L 64 64 L 64 34 L 54 34 C 47.072 34 42.742 26.5 46.206 20.5 C 47.813 17.715 50.785 16 54 16 L 202 16 C 208.928 16 213.258 23.5 209.794 29.5 C 208.187 32.285 205.215 34 202 34 L 192 34 L 192 64" fill="black"/>
  <path d="M 128 240 L 64 176 L 64 146 L 54 146 C 47.072 146 42.742 138.5 46.206 132.5 C 47.813 129.715 50.785 128 54 128 L 202 128 C 208.928 128 213.258 135.5 209.794 141.5 C 208.187 144.285 205.215 146 202 146 L 192 146 L 192 176" fill="black" style="transform-box: fill-box; transform-origin: 50% 50%;" transform="matrix(-1, 0, 0, -1, 0.000031, 0)"/>
</svg>
