<?xml version="1.0" encoding="utf-8"?>
<svg xmlns="http://www.w3.org/2000/svg" viewBox="42.4 28.8 256 256" width="256px" height="256px">
  <path d="M 241.907 101.415 C 241.907 101.415 226.978 85.496 203.57 85.605 C 165.237 85.782 135.07 85.605 135.07 85.605 L 135.07 117.226 C 135.07 117.226 165.235 117.226 203.57 117.226 C 227.502 117.226 241.907 101.415 241.907 101.415 Z" fill="black" style=""/>
  <line style="fill: rgb(216, 216, 216); stroke: rgb(0, 0, 0); stroke-linecap: round; stroke-width: 9px;" x1="58.4" y1="100.674" x2="120.214" y2="100.79"/>
  <path d="M 241.919 212.186 C 241.919 212.186 226.988 196.268 203.582 196.376 C 165.247 196.553 135.082 196.376 135.082 196.376 L 135.082 227.995 C 135.082 227.995 165.247 227.995 203.582 227.995 C 227.513 227.995 241.919 212.186 241.919 212.186 Z" fill="black" style=""/>
  <line style="fill: rgb(216, 216, 216); stroke: rgb(0, 0, 0); stroke-linecap: round; stroke-width: 9px;" x1="58.411" y1="211.445" x2="120.225" y2="211.56"/>
  <path d="M 282.4 156.247 C 282.4 156.247 267.47 140.328 244.062 140.436 C 205.728 140.614 175.563 140.436 175.563 140.436 L 175.563 172.056 C 175.563 172.056 205.727 172.056 244.062 172.056 C 267.992 172.056 282.4 156.247 282.4 156.247 Z" fill="black" style=""/>
  <line style="fill: rgb(216, 216, 216); stroke: rgb(0, 0, 0); stroke-linecap: round; stroke-width: 9px;" x1="58.504" y1="155.505" x2="162.765" y2="155.692"/>
</svg>