<?xml version="1.0" encoding="utf-8"?>
<svg width="256" height="256" viewBox="0 0 256 256" fill="none" xmlns="http://www.w3.org/2000/svg">
  <path fill-rule="evenodd" clip-rule="evenodd" d="M 186.996 82.497 L 216.417 58.231 L 208.924 49.158 L 175.384 76.867 C 171.689 75.305 167.907 73.932 164.025 72.792 C 160.174 71.66 156.282 70.642 152.378 69.699 C 146.512 68.281 140.51 67.761 134.503 67.326 C 129.039 66.932 123.587 67.166 118.123 67.595 C 112.444 68.041 106.834 68.91 101.305 70.162 C 97.414 71.043 93.557 72.152 89.8 73.473 C 85.242 75.074 80.742 76.869 76.336 78.83 C 70.452 81.443 64.888 84.651 59.501 88.138 C 53.09 92.289 47.025 96.881 41.333 101.923 C 35.642 106.966 30.248 112.307 25.328 118.076 L 24.708 118.801 C 22.329 121.584 19.949 124.368 17.772 127.293 C 15.312 130.598 15.446 134.285 17.971 137.521 C 20.46 140.706 23.072 143.805 25.713 146.875 C 32.159 154.36 39.276 161.192 47.007 167.396 C 50.221 169.976 53.526 172.423 56.928 174.728 L 34.99 192.852 L 42.365 201.782 L 67.362 181.166 L 91.481 161.274 L 108.132 147.54 L 146.797 115.651 L 163.397 101.96 L 186.996 82.497 Z M 154.389 94.213 C 147.315 89.532 138.859 86.658 129.723 86.337 C 102.942 85.394 82.045 106.257 80.97 129.86 C 80.615 137.664 82.17 144.954 85.182 151.387 L 103.092 136.59 C 102.882 135.437 102.754 134.257 102.714 133.056 C 102.247 119.048 114.331 107.213 128.66 107.544 L 128.66 107.538 C 131.414 107.602 134.062 108.099 136.536 108.961 L 154.389 94.213 Z M 42.403 201.828 L 46.932 206.521 L 46.544 206.842 L 42.403 201.828 Z M 152.943 127.761 L 119.334 155.481 C 122.03 156.451 124.951 156.998 128.017 157.036 C 141.772 156.922 153.833 145.675 153.331 131.295 C 153.289 130.094 153.157 128.914 152.943 127.761 Z M 126.228 178.242 C 117.163 177.89 108.626 175.007 101.459 170.224 L 80.419 187.576 C 84.905 189.485 89.493 191.14 94.194 192.508 C 101.066 194.503 108.032 196.076 115.202 196.647 L 115.387 196.662 C 119.585 196.994 123.786 197.327 128.139 197.671 C 129.576 197.552 131.024 197.442 132.48 197.33 L 132.488 197.33 C 136.023 197.06 139.605 196.787 143.175 196.39 C 146.456 196.023 149.708 195.376 152.948 194.732 L 152.949 194.732 L 152.949 194.731 L 153.062 194.709 C 159.373 193.462 165.491 191.524 171.481 189.243 C 177.979 186.767 184.203 183.731 190.215 180.278 C 196.801 176.493 203.036 172.204 208.933 167.47 C 216.365 161.507 223.255 154.983 229.496 147.836 C 232.505 144.388 235.462 140.889 238.25 137.27 C 240.709 134.079 240.529 130.128 238.01 126.978 L 238.004 126.989 C 235.532 123.908 233.025 120.854 230.442 117.859 C 224.85 111.363 218.726 105.371 212.17 99.802 C 207.954 96.223 203.564 92.876 198.99 89.783 L 170.802 113.032 C 173.589 118.908 175.111 125.424 175.04 132.227 C 175.355 158.162 152.594 179.266 126.228 178.242 Z" fill="black"/>
</svg>
