<?xml version="1.0" encoding="utf-8"?>
<svg width="256" height="256" viewBox="0 0 256 256" fill="none" xmlns="http://www.w3.org/2000/svg">
  <line x1="22.724" y1="129.847" x2="51.01" y2="129.847" stroke="black" stroke-linecap="round" style="stroke-width: 16px;"/>
  <line x1="33.052" y1="80.183" x2="89.373" y2="80.183" stroke="black" stroke-linecap="round" style="stroke-width: 16px;"/>
  <line x1="42.923" y1="30.967" x2="125.115" y2="30.967" stroke="black" stroke-linecap="round" style="stroke-width: 16px;"/>
  <path fill-rule="evenodd" clip-rule="evenodd" d="M 235.998 65.266 C 243.416 70.19 241.343 70.092 237.558 75.796 L 182.908 139.116 C 181.058 141.256 180.678 144.306 181.938 146.836 L 207.358 198.016 C 207.908 199.106 208.718 200.036 209.728 200.716 L 236.898 218.926 C 242.763 223.101 241.987 223.105 238.948 228.456 L 234.708 235.306 C 233.488 237.286 231.348 238.526 229.028 238.606 L 186.808 239.996 C 186.258 240.016 185.708 239.966 185.168 239.856 L 142.418 230.966 C 140.708 230.616 139.198 229.626 138.178 228.206 L 115.248 196.226 C 109.147 187.481 110.545 188.459 104.92 193.513 L 99.368 199.436 C 96.255 202.991 96.279 203.498 91.398 199.836 L 57.558 178.526 C 51.102 174.216 50.393 174.815 55.818 168.216 L 91.218 123.706 L 111.838 95.226 L 131.648 69.486 C 132.098 68.906 132.448 68.256 132.698 67.556 L 149.388 20.646 C 152.16 11.897 151.935 12.782 159.648 17.076 L 235.998 65.266 Z" fill="black"/>
</svg>
