<?xml version="1.0" encoding="utf-8"?>
<svg width="256" height="256" viewBox="0 0 256 256" fill="none" xmlns="http://www.w3.org/2000/svg">
  <path fill-rule="evenodd" clip-rule="evenodd" d="M 171.91 47.679 L 159.278 127.975 L 205.062 155.919 L 239.961 156.939 L 240 172.566 L 207.133 194.617 L 169.68 208.482 L 131.169 192.792 L 125.449 208.366 L 80.919 208.33 L 84.657 171.025 L 98.16 157.523 C 109.27 146.412 103.318 128.212 89.304 124.649 L 92.124 96.503 L 81.392 47.519 L 171.91 47.679 Z M 86.717 150.47 L 88.912 148.275 C 92.035 145.151 91.113 140.347 87.945 138.206 L 86.717 150.47 Z" fill="black"/>
  <path fill-rule="evenodd" clip-rule="evenodd" d="M 40.927 82.554 C 37.316 82.554 34.388 85.482 34.388 89.094 L 34.388 137.111 L 22.552 137.111 C 16.726 137.111 13.809 144.154 17.928 148.274 L 48.796 179.142 C 51.35 181.695 55.49 181.695 58.044 179.142 L 88.912 148.274 C 93.031 144.154 90.114 137.111 84.288 137.111 L 71.184 137.111 L 71.184 89.094 C 71.184 85.482 68.257 82.554 64.645 82.554 L 40.927 82.554 Z" fill="black"/>
</svg>
