<?xml version="1.0" encoding="utf-8"?>
<svg width="256" height="256" xmlns="http://www.w3.org/2000/svg" viewBox="0 0 256 256">
  <path d="M 16 128.001 L 68.913 75.087 C 74.344 69.656 83.618 72.141 85.606 79.56 C 86.529 83.003 85.544 86.677 83.024 89.198 L 52.157 119.182 L 203.843 119.182 L 172.976 89.198 C 167.545 83.767 170.03 74.493 177.449 72.505 C 180.892 71.583 184.566 72.567 187.087 75.087 L 240 128.001 L 187.087 180.914 C 181.656 186.345 172.382 183.86 170.394 176.441 C 169.471 172.998 170.456 169.325 172.976 166.804 L 203.843 136.82 L 52.157 136.82 L 83.024 166.804 C 88.455 172.235 85.97 181.509 78.551 183.497 C 75.108 184.419 71.434 183.435 68.913 180.914 L 16 128.001" fill="black"/>
</svg>
