<?xml version="1.0" encoding="utf-8"?>
<svg width="256" height="256" viewBox="0 0 256 256" fill="none" xmlns="http://www.w3.org/2000/svg">
  <path d="M 33.971 128 C 33.971 75.66 76.069 33.23 128 33.23 L 128 16 C 66.627 16 16.875 66.144 16.875 128 C 16.875 189.856 66.627 240 128 240 C 189.373 240 239.126 189.856 239.126 128 C 239.126 94.92 224.884 63.635 202.262 42.046 C 199.219 39.141 196.717 36.818 194.663 34.976 L 203.224 17.718 L 145.097 17.718 L 179.29 65.964 L 186.721 50.984 C 187.855 52.04 189.113 53.226 190.507 54.557 C 209.857 73.024 222.029 99.841 222.029 128 C 222.029 180.34 179.931 222.77 128 222.77 C 76.069 222.77 33.971 180.34 33.971 128 Z" fill="black"/>
  <path d="M 88.486 75.923 C 88.486 75.923 75.018 81.187 75.018 108.034 C 75.018 140.146 75.018 165.414 75.018 165.414 L 101.954 165.414 C 101.954 165.414 101.954 140.146 101.954 108.034 C 101.954 81.187 88.486 75.923 88.486 75.923 Z M 101.954 170.675 L 75.018 170.675 L 75.018 181.203 L 101.954 181.203 L 101.954 170.675 Z M 128.879 75.923 C 128.879 75.923 115.411 81.187 115.411 108.034 C 115.411 140.146 115.411 165.414 115.411 165.414 L 142.347 165.414 C 142.347 165.414 142.347 140.146 142.347 108.034 C 142.347 81.187 128.879 75.923 128.879 75.923 Z M 142.347 170.675 L 115.411 170.675 L 115.411 181.203 L 142.347 181.203 L 142.347 170.675 Z M 169.298 75.923 C 169.298 75.923 155.83 81.187 155.83 108.034 C 155.83 140.146 155.83 165.414 155.83 165.414 L 182.766 165.414 C 182.766 165.414 182.766 140.146 182.766 108.034 C 182.766 81.187 169.298 75.923 169.298 75.923 Z M 182.766 170.675 L 155.83 170.675 L 155.83 181.203 L 182.766 181.203 L 182.766 170.675 Z" fill="black"/>
</svg>
