<?xml version="1.0" encoding="utf-8"?>
<svg width="256" height="256" viewBox="0 0 256 256" fill="none" xmlns="http://www.w3.org/2000/svg">
  <path fill-rule="evenodd" clip-rule="evenodd" d="M 96.727 43.369 C 103.379 33.811 119.733 20.744 132.986 16 C 132.634 16.777 132.279 17.552 131.925 18.326 C 131.566 19.11 131.207 19.893 130.854 20.674 C 129.843 22.903 128.792 25.119 127.74 27.334 C 125.342 32.387 122.944 37.439 121.033 42.656 C 118.488 49.6 120.782 55.062 127.013 60.199 C 137.907 69.187 148.476 78.744 157.903 89.152 C 169.316 101.745 169.337 116.08 160.974 130.603 C 160.822 130.866 160.67 131.129 160.518 131.392 C 157.005 137.47 153.467 143.592 154.354 151.022 C 154.374 151.195 154.355 151.374 154.336 151.552 C 154.315 151.751 154.293 151.951 154.327 152.14 C 155.282 157.426 157.039 162.937 162.481 164.732 C 168.163 166.609 171.615 161.737 174.267 157.712 C 176.328 154.589 178.065 151.268 179.805 147.945 C 180.76 146.12 181.715 144.294 182.725 142.5 C 183.331 141.423 184.086 140.423 184.841 139.425 C 185.174 138.985 185.506 138.546 185.825 138.1 C 186.309 138.478 186.838 138.829 187.366 139.18 C 188.529 139.954 189.694 140.729 190.387 141.784 C 202.528 160.388 202.214 179.576 191.789 198.508 C 183.267 213.969 172.131 227.314 154.899 234.877 C 129.996 245.807 94.192 238.724 74.265 218.616 C 55.464 199.642 50.97 169.729 63.51 146.081 C 71.052 131.829 83.843 123.149 98.205 116.244 C 100.575 115.105 102.989 114.044 105.403 112.982 C 106.853 112.344 108.303 111.707 109.743 111.053 C 119.256 106.729 122.319 97.276 116.129 88.869 C 110.927 81.813 104.883 75.298 98.856 68.859 C 90.716 60.161 89.956 53.101 96.727 43.369 Z M 134.049 143.018 C 138.834 136.989 137.24 130.908 129.247 125.006 C 130.715 135.269 124.449 140.358 118.143 145.479 C 116.7 146.65 115.256 147.824 113.901 149.062 C 105.242 156.93 100.001 166.627 97.786 178.03 C 94.013 197.407 110.021 205.983 124.834 204.115 C 139.6 202.251 145.498 190.375 138.269 177.75 C 137.622 176.623 136.912 175.526 136.202 174.428 C 135.486 173.321 134.769 172.213 134.114 171.071 C 128.735 161.754 126.414 152.618 134.049 143.018 Z" fill="black"/>
  <path d="M 146.303 49.497 C 146.155 49.176 146.012 48.862 145.867 48.562 C 143.286 41.773 144.435 36.855 148.825 35.557 C 153.683 34.093 156.429 36.615 158.061 40.74 C 160.191 46.129 158.348 53.131 153.959 54.369 C 149.156 55.724 147.603 52.336 146.303 49.497 Z" fill="black"/>
</svg>
