<?xml version="1.0" encoding="utf-8"?>
<svg width="256" height="256" viewBox="0 0 256 256" fill="none" xmlns="http://www.w3.org/2000/svg">
  <path d="M 151.57 117.861 L 123.457 157.848 C 122.404 159.332 121.594 159.002 121.594 157.272 L 121.594 128.167 L 105.715 128.167 C 103.932 128.167 103.365 127.013 104.418 125.529 L 132.531 85.542 C 133.585 84.057 134.395 84.387 134.395 86.119 L 134.395 115.223 L 150.274 115.223 C 151.975 115.305 152.542 116.459 151.57 117.861 Z" fill="black"/>
  <path fill-rule="evenodd" clip-rule="evenodd" d="M 128 16 C 105.038 16 94.86 24.679 80.859 36.618 C 69.712 46.124 56.141 57.696 31.767 68.6 C 31.767 197.999 128 240 128 240 C 128 240 224.232 197.999 224.232 68.6 C 199.858 57.696 186.287 46.124 175.14 36.618 C 161.139 24.679 150.961 16 128 16 Z M 106.105 69.753 C 110.136 69.753 113.403 66.425 113.403 62.321 C 113.403 58.216 110.136 54.889 106.105 54.889 C 102.075 54.889 98.807 58.216 98.807 62.321 C 98.807 66.425 102.075 69.753 106.105 69.753 Z M 174.336 110.111 L 139.418 74.576 C 133.098 68.145 122.809 68.145 116.49 74.576 L 81.653 110.111 C 75.333 116.542 75.333 127.013 81.653 133.444 L 116.571 168.979 C 122.89 175.409 133.179 175.409 139.499 168.979 L 174.418 133.444 C 180.656 127.013 180.656 116.459 174.336 110.111 Z M 91.509 77.185 C 91.509 81.29 88.242 84.617 84.211 84.617 C 80.181 84.617 76.913 81.29 76.913 77.185 C 76.913 73.08 80.181 69.753 84.211 69.753 C 88.242 69.753 91.509 73.08 91.509 77.185 Z M 76.913 99.481 C 76.913 103.586 73.646 106.913 69.615 106.913 C 65.585 106.913 62.317 103.586 62.317 99.481 C 62.317 95.376 65.585 92.049 69.615 92.049 C 73.646 92.049 76.913 95.376 76.913 99.481 Z M 69.615 151.505 C 73.646 151.505 76.913 148.178 76.913 144.073 C 76.913 139.969 73.646 136.641 69.615 136.641 C 65.585 136.641 62.317 139.969 62.317 144.073 C 62.317 148.178 65.585 151.505 69.615 151.505 Z M 91.509 166.37 C 91.509 170.474 88.242 173.802 84.211 173.802 C 80.181 173.802 76.913 170.474 76.913 166.37 C 76.913 162.265 80.181 158.937 84.211 158.937 C 88.242 158.937 91.509 162.265 91.509 166.37 Z M 106.105 188.666 C 110.136 188.666 113.403 185.338 113.403 181.234 C 113.403 177.129 110.136 173.802 106.105 173.802 C 102.075 173.802 98.807 177.129 98.807 181.234 C 98.807 185.338 102.075 188.666 106.105 188.666 Z M 157.192 181.234 C 157.192 185.338 153.924 188.666 149.894 188.666 C 145.863 188.666 142.596 185.338 142.596 181.234 C 142.596 177.129 145.863 173.802 149.894 173.802 C 153.924 173.802 157.192 177.129 157.192 181.234 Z M 171.788 173.802 C 175.818 173.802 179.086 170.474 179.086 166.37 C 179.086 162.265 175.818 158.937 171.788 158.937 C 167.757 158.937 164.49 162.265 164.49 166.37 C 164.49 170.474 167.757 173.802 171.788 173.802 Z M 193.682 144.073 C 193.682 148.178 190.415 151.505 186.384 151.505 C 182.353 151.505 179.086 148.178 179.086 144.073 C 179.086 139.969 182.353 136.641 186.384 136.641 C 190.415 136.641 193.682 139.969 193.682 144.073 Z M 186.384 106.913 C 190.415 106.913 193.682 103.586 193.682 99.481 C 193.682 95.376 190.415 92.049 186.384 92.049 C 182.353 92.049 179.086 95.376 179.086 99.481 C 179.086 103.586 182.353 106.913 186.384 106.913 Z M 179.086 77.185 C 179.086 81.29 175.818 84.617 171.788 84.617 C 167.757 84.617 164.49 81.29 164.49 77.185 C 164.49 73.08 167.757 69.753 171.788 69.753 C 175.818 69.753 179.086 73.08 179.086 77.185 Z M 149.894 69.753 C 153.924 69.753 157.192 66.425 157.192 62.321 C 157.192 58.216 153.924 54.889 149.894 54.889 C 145.863 54.889 142.596 58.216 142.596 62.321 C 142.596 66.425 145.863 69.753 149.894 69.753 Z" fill="black"/>
</svg>
