<?xml version="1.0" encoding="utf-8"?>
<svg width="256" height="256" viewBox="0 0 256 256" fill="none" xmlns="http://www.w3.org/2000/svg">
  <path fill-rule="evenodd" clip-rule="evenodd" d="M 216.142 50.816 C 219.527 53.238 219.981 58.147 217.099 61.164 L 179.555 100.475 C 177.656 102.463 177.125 105.412 178.209 107.95 L 193.053 142.73 C 193.521 143.825 194.263 144.777 195.205 145.493 L 211.285 157.687 C 214.205 159.901 214.862 164.064 212.77 167.091 L 211.272 169.259 C 209.979 171.13 207.85 172.224 205.596 172.176 L 177.755 171.586 C 177.222 171.575 176.691 171.499 176.175 171.361 L 148.043 163.85 C 146.405 163.413 144.989 162.368 144.075 160.922 L 131.01 140.251 C 128.946 136.984 124.616 136.107 121.469 138.318 L 119.982 139.364 C 117.65 141.002 114.557 140.99 112.237 139.334 L 92.662 125.352 C 89.362 122.995 88.826 118.251 91.515 115.2 L 116.12 87.285 L 131.392 68.287 L 145.802 51.403 C 146.266 50.859 146.643 50.244 146.918 49.581 L 159.126 20.192 C 160.801 16.161 165.726 14.733 169.252 17.256 L 216.142 50.816 Z" fill="black"/>
  <path d="M 140.699 238.946 C 139.016 237.422 138.871 234.804 140.376 233.099 L 187.94 179.201 C 189.444 177.496 192.028 177.349 193.711 178.873 C 195.394 180.397 195.539 183.015 194.035 184.72 L 146.47 238.619 C 144.966 240.324 142.382 240.469 140.699 238.946 Z" fill="black"/>
  <path d="M 80.738 149.283 C 81.398 146.919 83.824 145.544 86.158 146.212 L 136.883 160.74 C 139.217 161.408 140.574 163.866 139.915 166.231 C 139.255 168.595 136.828 169.97 134.494 169.301 L 83.769 154.774 C 81.435 154.106 80.078 151.647 80.738 149.283 Z" fill="black"/>
  <path d="M 82.041 147.826 C 83.716 146.048 86.495 145.983 88.25 147.679 L 130.823 188.84 C 132.577 190.536 132.642 193.352 130.968 195.13 C 129.293 196.907 126.513 196.973 124.759 195.276 L 82.186 154.115 C 80.431 152.419 80.366 149.603 82.041 147.826 Z" fill="black"/>
  <path d="M 67.172 176.385 C 67.777 174.006 70.172 172.575 72.521 173.188 L 128.314 187.764 C 130.662 188.377 132.075 190.803 131.469 193.182 C 130.864 195.561 128.469 196.993 126.12 196.379 L 70.327 181.804 C 67.979 181.19 66.566 178.764 67.172 176.385 Z" fill="black"/>
  <path d="M 68.317 174.754 C 70.054 173.04 72.834 173.076 74.527 174.836 L 115.442 217.368 C 117.135 219.127 117.099 221.945 115.362 223.658 C 113.625 225.374 110.845 225.337 109.152 223.577 L 68.236 181.045 C 66.544 179.286 66.579 176.469 68.317 174.754 Z" fill="black"/>
  <path d="M 53.123 206.747 C 53.673 204.354 56.034 202.866 58.396 203.423 L 113.125 216.335 C 115.487 216.892 116.956 219.284 116.406 221.677 C 115.856 224.069 113.495 225.558 111.133 225 L 56.404 212.089 C 54.042 211.531 52.573 209.14 53.123 206.747 Z" fill="black"/>
  <path d="M 54.126 204.97 C 55.717 203.115 58.491 202.919 60.321 204.531 L 81.129 222.856 C 82.96 224.467 83.153 227.277 81.562 229.131 C 79.971 230.986 77.197 231.182 75.367 229.57 L 54.559 211.246 C 52.729 209.634 52.535 206.824 54.126 204.97 Z" fill="black"/>
  <path d="M 38.325 136.707 C 36.661 135.161 36.549 132.541 38.075 130.855 L 128.718 30.731 C 130.245 29.045 132.831 28.932 134.495 30.478 C 136.159 32.024 136.271 34.644 134.745 36.33 L 44.102 136.454 C 42.576 138.139 39.99 138.253 38.325 136.707 Z" fill="black"/>
  <path d="M 39.514 89.82 C 37.85 88.275 37.738 85.655 39.264 83.97 L 84.225 34.306 C 85.751 32.621 88.336 32.508 90 34.053 C 91.664 35.599 91.776 38.218 90.25 39.904 L 45.289 89.567 C 43.763 91.253 41.177 91.366 39.514 89.82 Z" fill="black"/>
</svg>
