<?xml version="1.0" encoding="utf-8"?>
<svg width="256" height="256" viewBox="0 0 256 256" fill="none" xmlns="http://www.w3.org/2000/svg">
  <path d="M 100.559 209.017 C 100.474 212.356 98.183 213.489 94.557 211.673 C 87.034 207.91 79.502 204.147 72.157 200.067 C 68.843 198.227 66.206 198.102 62.817 200.033 C 55.759 204.055 48.464 207.677 41.152 211.232 C 39.572 211.998 36.977 212.556 35.793 211.79 C 34.737 211.107 34.475 208.393 34.72 206.703 C 35.937 198.343 37.315 190 38.904 181.708 C 39.436 178.91 38.828 176.953 36.782 175.038 C 30.561 169.202 24.39 163.315 18.38 157.287 C 17.146 156.055 15.591 153.424 16.098 152.6 C 16.986 151.176 19.293 150.16 21.153 149.852 C 29.614 148.428 38.16 147.504 46.587 145.956 C 48.548 145.589 50.864 143.832 51.837 142.076 C 55.801 134.898 59.199 127.421 63.053 120.186 C 64.009 118.396 65.885 117.089 67.339 115.557 C 68.894 117.147 70.923 118.496 71.929 120.369 C 75.665 127.355 79.164 134.465 82.545 141.626 C 83.873 144.448 85.732 145.806 88.894 146.197 C 97.27 147.229 105.622 148.461 113.939 149.852 C 115.68 150.143 118.132 151.117 118.639 152.4 C 119.112 153.582 117.819 155.989 116.619 157.196 C 111.006 162.849 105.326 168.444 99.341 173.706 C 96.07 176.587 95.36 179.51 96.256 183.639 C 97.87 191.083 98.91 198.643 100.187 206.153 C 100.347 207.111 100.44 208.077 100.567 209.042 L 100.559 209.017 Z" fill="black"/>
  <path d="M 124.979 43.466 C 145.113 43.624 163.996 48.287 181.325 58.553 C 186.861 61.833 187.352 68.003 182.365 70.959 C 179.279 72.791 176.473 71.791 173.65 70.16 C 158.587 61.467 142.231 57.321 124.86 57.471 C 101.328 57.679 80.28 64.589 63.096 81.084 C 55.784 88.102 50.695 96.462 47.856 106.137 C 47.002 109.051 45.759 111.624 42.361 112.348 C 36.546 113.597 32.522 109.043 34.179 102.848 C 36.909 92.615 41.922 83.515 48.979 75.58 C 66.426 55.955 88.936 46.48 114.861 43.974 C 118.216 43.649 121.606 43.624 124.987 43.466 L 124.979 43.466 Z" fill="black"/>
  <path d="M 192.364 125.297 C 193.082 121.308 193.767 117.062 194.638 112.865 C 195.255 109.885 194.655 107.612 192.144 105.547 C 189.017 102.991 186.193 100.06 183.353 97.179 C 181.062 94.856 181.553 93.299 184.824 92.725 C 189.245 91.95 193.767 91.676 198.129 90.677 C 199.87 90.277 201.831 88.853 202.753 87.346 C 205.06 83.566 206.784 79.444 208.838 75.506 C 210.284 72.734 211.915 72.909 213.302 75.573 C 215.406 79.636 217.249 83.849 219.565 87.796 C 220.334 89.103 222.101 90.319 223.614 90.635 C 228.001 91.559 232.498 91.925 236.918 92.7 C 238.051 92.9 239.632 93.574 239.953 94.415 C 240.232 95.147 239.201 96.596 238.423 97.437 C 236.429 99.577 234.459 101.842 232.092 103.515 C 227.485 106.779 226.293 110.792 227.899 116.038 C 228.745 118.802 229.125 121.724 229.505 124.597 C 229.987 128.236 228.905 129.027 225.6 127.42 C 221.822 125.588 218.255 123.273 214.35 121.758 C 212.423 121.017 209.709 120.983 207.799 121.733 C 203.775 123.306 200.081 125.688 196.168 127.561 C 193.446 128.86 192.338 128.177 192.364 125.297 Z" fill="black"/>
  <path d="M 139.458 200.122 C 135.392 199.756 132.434 197.374 131.961 193.777 C 131.462 190.005 133.803 187.025 137.996 186.126 C 144.995 184.627 152.154 183.661 158.958 181.546 C 178.248 175.543 193.387 164.303 202.744 146.194 C 205.001 141.814 209.075 140.448 212.854 142.497 C 216.378 144.412 217.342 148.358 215.161 152.613 C 203.124 176.06 183.091 189.481 158.037 196.383 C 151.968 198.057 145.663 198.89 139.466 200.114 L 139.458 200.122 Z" fill="black"/>
</svg>
