<?xml version="1.0" encoding="utf-8"?>
<svg width="256" height="256" viewBox="0 0 256 256" fill="none" xmlns="http://www.w3.org/2000/svg">
  <path d="M 239.832 125.419 C 239.887 154.606 239.953 183.793 240 212.98 C 240.012 223.577 237.035 226.455 226.174 226.469 C 166.399 226.563 106.622 226.648 46.845 226.731 C 46.246 226.731 45.655 226.731 45.056 226.74 C 42.425 226.78 39.786 226.749 39.255 223.389 C 38.732 220.089 41.224 219.157 43.661 218.27 C 49.373 216.181 55.102 214.137 60.814 212.048 C 74.612 207.008 88.427 202.03 102.182 196.884 C 109.576 194.116 108.496 199.931 103.661 193.68 C 101.492 190.876 99.171 188.2 96.976 185.421 C 95.255 183.24 94.234 180.945 95.69 178.132 C 97.182 175.25 99.709 174.962 102.507 175.118 C 121.849 176.182 141.183 177.235 160.525 178.299 C 161.715 178.361 133.525 216.561 137.55 186.028 C 145.972 186.365 90.967 94.618 90.475 86.302 C 89.49 69.617 177.211 121.254 176.199 104.569 C 175.969 100.763 175.901 96.951 175.734 93.137 C 175.627 90.75 176.354 88.781 178.599 87.617 C 180.925 86.42 183.257 86.595 185.336 88.123 C 188.566 90.486 191.641 93.04 194.862 95.412 C 201.03 99.949 206.633 98.51 209.296 91.482 C 216.309 72.989 223.125 54.413 230.129 35.911 C 231.237 32.97 231.43 28.423 236.318 29.385 C 240.796 30.27 239.616 34.389 239.633 37.426 C 239.759 66.764 239.786 96.082 239.832 125.419 Z" fill="black"/>
  <path d="M 30.337 134.722 C 35.299 139.36 40.532 142.125 46.756 143.101 C 58.243 144.908 69.719 146.728 81.193 148.67 C 86.298 149.536 90.198 148.158 92.137 143.213 C 94.017 138.383 91.436 135.313 87.518 132.865 C 68.626 121.049 49.775 109.163 30.831 97.407 C 27.39 95.278 23.545 93.996 19.667 96.6 C 15.367 99.473 15.493 103.682 16.807 107.871 C 19.896 117.741 21.458 128.427 30.349 134.732 L 30.337 134.722 Z" fill="black"/>
</svg>
