<?xml version="1.0" encoding="utf-8"?>
<svg width="256" height="256" viewBox="0 0 256 256" fill="none" xmlns="http://www.w3.org/2000/svg">
  <path fill-rule="evenodd" clip-rule="evenodd" d="M 65.432 16 C 67.683 16 69.507 17.874 69.507 20.187 L 69.507 48.697 L 69.6 48.701 L 69.6 102.709 L 58.358 102.709 C 58.444 107.717 58.447 113.482 58.233 119.081 C 76.584 106.224 88.23 99.328 106.531 93.769 C 105.144 79.207 104.76 64.243 107.576 55.741 C 110.618 40.901 122.28 34.774 128.51 34.713 C 128.525 34.713 128.541 34.713 128.556 34.713 C 128.571 34.713 128.587 34.713 128.602 34.713 C 134.834 34.774 146.68 40.901 149.721 55.741 C 152.487 64.093 152.165 78.68 150.839 92.996 C 161.828 96.45 170.461 99.831 178.173 104.059 C 185.157 107.888 191.305 112.366 197.733 118.112 C 197.554 112.82 197.561 107.429 197.642 102.709 L 186.401 102.709 L 186.401 48.701 L 186.493 48.697 L 186.493 20.187 C 186.493 17.874 188.318 16 190.569 16 L 203.166 16 C 205.417 16 207.241 17.874 207.241 20.187 L 207.241 47.775 C 207.241 47.775 215.115 51.851 215.115 65.469 C 215.115 76.627 206.844 83.742 203.856 85.949 C 204 86.115 204.129 86.298 204.239 86.496 L 237.121 145.599 C 237.95 147.089 237.483 148.966 236.053 149.895 L 225.118 156.996 L 225.118 183.49 C 225.118 184.38 224.752 185.231 224.106 185.843 C 223.46 186.455 222.591 186.775 221.702 186.727 L 192.432 185.152 C 191.73 185.115 191.059 184.849 190.521 184.397 L 175.484 171.759 L 175.004 183.362 C 174.923 185.153 173.441 186.56 171.648 186.546 L 167.797 186.517 L 168.606 198.87 L 180.044 235.674 C 180.591 237.433 179.608 239.302 177.85 239.848 C 176.091 240.396 174.223 239.413 173.676 237.654 L 162.456 201.554 L 137.997 201.554 C 132.521 204.79 124.575 204.026 119.582 201.554 L 116.96 201.554 C 116.701 202.036 116.39 202.607 116.035 203.246 C 114.906 205.283 113.319 208.039 111.501 210.898 C 109.691 213.743 107.61 216.756 105.485 219.275 C 103.464 221.672 101.033 224.081 98.462 225.13 C 94.9 226.583 92.278 227.533 89.514 228.142 C 87.515 228.583 85.508 228.831 83.098 229.002 L 82.368 236.968 C 82.2 238.802 80.578 240.152 78.743 239.985 C 76.91 239.817 75.559 238.194 75.727 236.36 L 76.658 226.192 C 76.651 226.127 76.646 226.062 76.643 225.996 C 76.625 225.611 76.673 225.238 76.777 224.888 L 79.247 197.915 C 79.404 196.198 80.844 194.884 82.567 194.884 L 88.773 194.884 L 88.773 185.915 L 86.525 185.898 C 84.811 185.885 83.386 184.575 83.23 182.868 L 82.089 170.437 L 65.48 184.397 C 64.941 184.849 64.271 185.115 63.568 185.152 L 34.299 186.727 C 33.41 186.775 32.541 186.455 31.894 185.843 C 31.248 185.231 30.883 184.38 30.883 183.49 L 30.883 156.996 L 19.947 149.895 C 18.517 148.966 18.051 147.089 18.88 145.599 L 51.762 86.496 C 51.872 86.298 52.001 86.115 52.145 85.949 C 49.157 83.742 40.886 76.627 40.886 65.469 C 40.886 51.851 48.759 47.775 48.759 47.775 L 48.759 20.187 C 48.759 17.874 50.584 16 52.835 16 L 65.432 16 Z M 166.754 105.894 C 159.601 111.796 153.112 117.176 146.994 122.291 C 147.984 116.193 149.183 108.217 150.139 99.771 C 156.47 101.794 161.893 103.771 166.754 105.894 Z M 72.099 137.574 L 57.823 126.164 C 57.157 134.412 55.508 143.626 54.041 150.726 C 53.852 151.644 53.665 152.528 53.483 153.372 L 72.099 137.574 Z M 198.319 127.784 C 197.788 127.267 197.261 126.761 196.738 126.265 L 185.523 138.95 L 202.517 153.372 C 202.336 152.528 202.149 151.644 201.959 150.726 C 200.588 144.088 199.057 135.601 198.319 127.784 Z M 174.967 109.908 C 180.897 113.159 186.222 116.934 191.803 121.777 L 179.471 135.726 L 171.623 138.998 C 170.419 139.504 169.636 140.682 169.636 141.988 L 169.636 155.749 L 168.487 179.852 L 91.594 179.266 C 122.261 151.672 140.907 135.847 173.392 109.064 C 173.923 109.342 174.447 109.623 174.967 109.908 Z M 79.669 144.054 L 79.882 146.376 L 79.882 163.822 L 62.138 178.735 L 37.366 180.068 L 37.366 160.466 L 46.669 165.087 C 47.829 165.663 49.221 165.493 50.208 164.655 L 76.201 142.598 L 79.669 144.054 Z M 176.119 156.383 L 176.119 163.822 L 193.863 178.735 L 218.634 180.068 L 218.634 160.466 L 209.332 165.087 C 208.172 165.663 206.78 165.493 205.792 164.655 L 179.8 142.598 L 176.119 144.143 L 176.119 156.383 Z M 51.811 99.745 L 26.018 146.105 L 35.733 152.414 L 45.918 157.473 C 46.403 155.398 47.031 152.615 47.692 149.414 C 49.141 142.397 50.731 133.471 51.363 125.609 C 51.998 117.715 51.811 99.745 51.811 99.745 Z M 56.911 79.09 C 60.245 79.09 60.06 57.594 56.911 57.594 C 53.762 57.594 48.759 60.285 48.759 67.048 C 48.76 73.81 53.576 79.09 56.911 79.09 Z M 204.19 99.745 L 229.983 146.105 L 220.267 152.414 L 210.083 157.473 C 209.598 155.398 208.97 152.615 208.309 149.414 C 206.86 142.397 205.27 133.471 204.637 125.609 C 204.002 117.715 204.19 99.745 204.19 99.745 Z M 199.09 79.09 C 195.755 79.09 195.941 57.594 199.09 57.594 C 202.239 57.594 207.242 60.285 207.241 67.048 C 207.241 73.81 202.425 79.09 199.09 79.09 Z M 95.442 194.884 L 115.989 194.884 C 114.27 192.382 113.297 189.364 112.807 186.098 L 95.442 185.966 L 95.442 194.884 Z M 161.664 194.919 L 141.87 195.131 C 143.423 192.609 144.277 189.56 144.743 186.341 L 161.11 186.466 L 161.664 194.919 Z M 119.582 186.15 L 137.997 186.29 C 137.494 189.144 136.678 191.164 135.587 192.481 C 134.382 193.935 132.482 194.954 128.827 194.706 C 125.382 194.473 123.329 193.343 121.993 191.772 C 120.901 190.487 120.075 188.654 119.582 186.15 Z M 85.611 201.554 L 109.336 201.554 C 108.365 203.259 107.179 205.266 105.874 207.317 C 104.141 210.042 102.24 212.778 100.387 214.975 C 98.431 217.294 96.891 218.567 95.943 218.954 C 92.465 220.373 90.27 221.145 88.078 221.628 C 86.763 221.918 85.403 222.114 83.715 222.262 L 85.611 201.554 Z M 141.755 68.526 L 141.755 57.872 C 138.206 49.973 135.27 47.413 128.695 45.181 C 122.119 47.413 119.091 49.973 115.542 57.872 L 115.82 68.526 C 115.82 68.526 120.47 61.295 122.699 59.355 C 123.483 58.684 124.108 57.493 124.613 56.58 C 125.588 54.817 126.471 53.234 128.417 53.234 C 129.954 53.234 130.927 55.226 131.575 56.58 C 132.189 57.73 132.812 58.648 133.656 59.355 C 135.364 60.784 139.706 66.042 141.755 68.526 Z M 64.42 122.898 C 80.662 111.628 91.335 105.497 107.244 100.528 C 108.264 109.376 109.538 117.658 110.54 123.738 L 118.321 126.424 L 118.321 89.74 C 117.848 89.204 117.332 88.749 116.819 88.296 C 115.09 86.771 113.384 85.266 113.412 80.754 L 113.44 79.201 C 114.704 77.146 117.941 71.888 119.448 69.878 C 121.104 67.67 122.891 65.587 124.613 64.088 C 126.462 62.478 127.858 62.226 128.417 62.226 C 128.992 62.226 130.1 62.513 132.103 64.188 C 133.96 65.741 135.913 67.89 137.733 70.153 C 139.537 72.396 141.133 74.654 142.283 76.359 C 142.842 77.188 143.291 77.881 143.603 78.37 L 143.886 80.754 C 143.913 85.266 142.207 86.771 140.478 88.296 C 139.965 88.749 139.449 89.204 138.977 89.74 L 138.977 126.424 L 144.217 124.615 C 125.57 140.247 110.07 153.698 88.988 172.64 L 86.365 141.988 C 86.365 140.903 85.825 139.906 84.952 139.31 C 84.944 139.304 84.935 139.297 84.927 139.29 L 64.42 122.898 Z" fill="black"/>
</svg>
