<?xml version="1.0" encoding="utf-8"?>
<svg width="256" height="256" viewBox="0 0 256 256" fill="none" xmlns="http://www.w3.org/2000/svg">
  <path d="M 192.006 56.578 C 199.415 56.578 205.421 50.571 205.421 43.162 C 205.421 35.753 199.415 29.747 192.006 29.747 C 184.597 29.747 178.591 35.753 178.591 43.162 C 178.591 50.571 184.597 56.578 192.006 56.578 Z" fill="black"/>
  <path d="M 76.961 95.613 C 69.936 92.368 61.487 93.003 54.528 95.972 C 53.328 96.484 51.941 95.927 51.428 94.727 C 50.917 93.527 51.474 92.14 52.674 91.628 C 60.547 88.268 70.426 87.391 78.942 91.325 C 87.283 95.178 93.866 103.433 96.055 117.315 C 103.69 119.436 111.071 123.988 119.733 130.898 L 127.484 120.625 C 127.869 120.115 128.445 119.782 129.08 119.704 C 129.714 119.625 130.353 119.808 130.851 120.209 L 143.983 130.79 C 144.485 131.194 144.799 131.785 144.855 132.426 C 144.91 133.067 144.701 133.703 144.276 134.187 L 133.17 146.839 L 133.17 172.796 C 138.719 175.141 143.627 178.299 147.224 182.913 C 151.171 187.974 153.366 194.561 153.366 203.201 C 153.366 204.505 152.308 205.563 151.004 205.563 C 149.7 205.563 148.642 204.505 148.642 203.201 C 148.642 195.403 146.68 189.897 143.499 185.818 C 140.292 181.704 135.668 178.815 129.951 176.587 C 129.044 176.234 128.446 175.36 128.446 174.386 L 128.446 152.207 L 105.634 178.12 C 104.772 179.099 103.28 179.194 102.301 178.332 C 101.322 177.47 101.227 175.978 102.089 174.999 L 129.036 144.389 L 139.101 132.922 L 129.786 125.417 L 103.668 160.032 C 102.883 161.073 101.402 161.28 100.36 160.495 C 99.319 159.709 99.112 158.228 99.897 157.187 L 116.887 134.671 C 107.773 127.389 100.619 123.191 93.406 121.513 C 83.963 119.317 74.321 119.545 61.127 125.076 C 60.011 125.543 58.723 125.092 58.142 124.032 C 51.732 112.32 46.678 105.288 40.864 100.965 C 35.14 96.707 28.423 94.893 18.217 94.267 C 16.915 94.187 15.924 93.066 16.004 91.764 C 16.084 90.462 17.205 89.472 18.507 89.552 C 29.129 90.204 36.905 92.133 43.683 97.174 C 50.018 101.886 55.249 109.151 61.268 119.922 C 72.886 115.378 82.174 114.705 91.067 116.223 C 88.824 104.756 83.268 98.527 76.961 95.613 Z" fill="black"/>
  <path d="M 100.07 186.147 C 100.982 185.215 100.966 183.72 100.034 182.807 C 99.102 181.895 97.606 181.911 96.694 182.843 L 83.562 196.258 C 82.649 197.191 82.666 198.686 83.598 199.598 C 84.53 200.511 86.025 200.495 86.938 199.563 L 100.07 186.147 Z" fill="black"/>
  <path d="M 97.095 165.439 C 98.123 166.241 98.307 167.725 97.504 168.754 L 90.135 178.201 C 89.333 179.23 87.849 179.413 86.82 178.611 C 85.792 177.809 85.608 176.324 86.411 175.296 L 93.78 165.848 C 94.582 164.82 96.066 164.636 97.095 165.439 Z" fill="black"/>
  <path d="M 196.548 83.543 C 197.947 85.299 199.557 87.32 201.737 87.942 C 203.432 88.427 205.574 81.518 208.04 73.569 C 211.348 62.905 215.236 50.368 219.404 51.287 C 226.679 52.893 214.586 95.879 211.94 98.524 C 209.295 101.169 186.243 95.973 185.676 94.083 C 185.11 92.194 190.967 80.291 193.329 80.668 C 194.393 80.838 195.4 82.102 196.548 83.543 Z" fill="black"/>
  <path d="M 189.039 69.73 L 176.11 92.055 C 175.366 93.222 172.587 97.711 171.621 99.359 C 170.649 101.018 169.722 102.705 169.074 104.104 C 168.749 104.805 168.52 105.38 168.387 105.812 C 168.556 105.968 168.772 106.157 169.042 106.381 C 169.94 107.126 171.236 108.095 172.836 109.245 L 181.674 115.442 C 182.602 116.091 183.544 116.752 184.493 117.423 C 188.712 120.407 192.98 123.527 196.187 126.253 C 197.784 127.611 199.19 128.931 200.207 130.133 C 200.715 130.734 201.178 131.365 201.517 132.007 C 201.84 132.619 202.165 133.453 202.115 134.392 C 202.079 135.054 201.886 135.746 201.678 136.351 C 201.456 136.994 201.157 137.711 200.805 138.474 C 200.102 140.002 199.132 141.837 198.005 143.841 C 195.746 147.855 192.776 152.679 189.834 157.31 C 186.888 161.945 183.953 166.411 181.755 169.717 C 181.312 170.384 180.899 171.003 180.521 171.568 C 180.113 172.179 179.746 172.726 179.429 173.197 C 184.538 176.625 188.679 179.851 191.811 183.048 C 195.333 186.644 197.685 190.314 198.627 194.315 C 200.278 201.328 197.414 208.484 191.33 216.805 L 240 216.805 L 240 226.253 L 18.456 226.253 L 18.456 216.805 L 56.357 216.805 C 52.498 210.682 50.22 205.478 49.342 198.536 C 42.388 198.336 37.127 197.56 32.46 195.326 C 27.433 192.918 23.299 188.919 18.454 182.666 C 17.847 181.882 17.99 180.754 18.774 180.147 C 19.558 179.54 20.685 179.683 21.292 180.467 C 26.013 186.56 29.732 190.039 34.01 192.088 C 38.302 194.142 43.36 194.857 50.985 194.982 C 51.901 194.997 52.658 195.699 52.743 196.611 C 53.456 204.315 55.838 209.552 60.632 216.805 L 185.391 216.805 C 192.878 207.343 195.331 200.93 194.029 195.397 C 193.35 192.511 191.59 189.575 188.436 186.354 C 185.624 183.482 181.789 180.471 176.839 177.148 C 176.172 178.124 175.256 179.365 174.187 180.543 C 173.065 181.779 171.642 183.095 170.038 183.894 C 168.381 184.719 166.238 185.111 164.161 183.881 C 162.769 183.058 162.194 181.694 162.034 180.452 C 161.88 179.264 162.064 177.988 162.359 176.802 C 162.954 174.408 164.193 171.64 165.497 169.111 C 166.817 166.549 168.279 164.091 169.403 162.282 C 169.967 161.374 170.449 160.625 170.792 160.101 C 170.963 159.839 171.334 159.283 171.334 159.283 C 172.066 158.204 173.547 157.906 174.626 158.638 C 175.705 159.37 175.987 160.839 175.254 161.918 C 175.167 162.049 174.909 162.437 174.746 162.686 C 174.42 163.185 173.957 163.903 173.415 164.775 C 172.328 166.524 170.937 168.866 169.695 171.275 C 168.436 173.718 167.402 176.093 166.943 177.941 C 166.711 178.877 166.679 179.543 166.725 179.892 C 166.961 179.976 167.308 179.976 167.932 179.665 C 168.764 179.251 169.721 178.435 170.689 177.368 C 171.606 176.357 174.425 172.171 175.129 171.125 L 175.182 171.047 C 175.818 170.103 176.728 168.746 177.821 167.102 C 180.008 163.813 182.924 159.375 185.847 154.776 C 188.774 150.17 191.691 145.429 193.888 141.525 C 194.988 139.57 195.888 137.859 196.515 136.498 C 196.829 135.817 197.059 135.255 197.211 134.814 C 197.299 134.558 197.346 134.383 197.371 134.276 C 197.249 134.044 196.986 133.64 196.6 133.184 C 195.83 132.273 194.651 131.148 193.128 129.853 C 190.094 127.274 185.977 124.259 181.765 121.279 C 179.973 120.012 178.15 118.742 176.397 117.521 L 176.298 117.452 L 176.262 117.426 L 176.254 117.421 C 173.998 115.849 171.866 114.364 170.08 113.081 C 168.465 111.921 167.058 110.873 166.027 110.018 C 165.517 109.595 165.048 109.177 164.68 108.789 C 164.497 108.596 164.3 108.369 164.127 108.118 C 163.982 107.906 163.716 107.484 163.612 106.921 C 163.441 105.998 163.68 105.052 163.869 104.433 C 164.091 103.711 164.418 102.917 164.788 102.119 C 165.53 100.516 166.545 98.678 167.546 96.971 C 168.006 96.186 168.468 95.42 168.907 94.704 C 167.413 94.305 166.008 93.368 164.986 91.816 C 164.322 90.664 163.38 88.793 162.908 85.676 C 162.708 84.358 162.755 82.832 162.801 81.372 C 162.892 78.432 162.975 75.756 161.018 75.567 C 158.615 75.334 152.916 85.964 149.077 93.123 L 149.077 93.124 L 149.075 93.127 C 148.237 94.69 147.488 96.088 146.881 97.17 C 144.944 100.626 143.315 103.759 142.178 106.294 C 141.609 107.563 141.179 108.646 140.895 109.524 C 140.622 110.367 140.533 110.877 140.519 111.121 C 140.52 111.122 140.521 111.124 140.523 111.128 C 140.525 111.133 140.528 111.14 140.531 111.149 C 140.568 111.239 140.688 111.539 141.082 112.089 C 141.615 112.835 142.455 113.772 143.606 114.863 C 145.898 117.035 149.217 119.62 153.202 122.249 C 161.186 127.518 171.571 132.787 181.252 135.253 C 181.863 135.408 182.386 135.801 182.705 136.344 C 183.024 136.887 183.113 137.536 182.953 138.145 L 178.985 153.166 C 178.652 154.427 177.359 155.18 176.098 154.846 C 174.837 154.513 174.084 153.221 174.418 151.96 L 177.788 139.2 C 168.148 136.376 158.256 131.244 150.601 126.192 C 146.461 123.46 142.907 120.707 140.357 118.292 C 139.087 117.088 138.014 115.919 137.24 114.837 C 136.54 113.859 135.794 112.562 135.794 111.183 C 135.794 110.215 136.06 109.123 136.4 108.07 C 136.756 106.971 137.259 105.717 137.868 104.36 C 139.087 101.644 140.791 98.374 142.76 94.86 C 146.626 87.964 151.592 79.992 156.136 73.154 C 152.629 66.719 148.563 61.26 144.58 61.584 C 141.25 61.856 134.896 66.199 128.039 70.887 C 117.378 78.175 105.5 86.295 101.877 81.235 C 96.697 73.999 132.208 51.73 141.179 46.374 C 142.517 45.575 148.894 45.895 150.343 46.468 L 186.502 62.43 C 189.4 63.577 190.602 67.033 189.039 69.73 Z" fill="black"/>
</svg>
