<?xml version="1.0" encoding="utf-8"?>
<svg width="256" height="256" viewBox="0 0 256 256" fill="none" xmlns="http://www.w3.org/2000/svg">
  <path d="M 16 39.203 C 16 40.138 19.719 44.605 23.226 48.817 C 24.639 50.515 26.018 52.171 27.106 53.538 C 27.644 54.471 28.759 54.965 29.849 54.674 L 67.877 44.508 C 69.179 44.16 69.952 42.822 69.604 41.521 C 69.256 40.219 67.918 39.446 66.616 39.794 L 28.588 49.96 C 28.531 49.975 28.474 49.992 28.418 50.012 C 35.147 34.163 39.271 33.205 62.163 33.205 C 62.163 33.205 42.64 16.127 40.708 16.127 C 38.776 16.127 16 37.882 16 39.203 Z" fill="black"/>
  <path d="M 82.311 52.389 C 82.665 53.689 81.897 55.029 80.596 55.383 L 39.416 66.565 C 38.115 66.918 36.775 66.15 36.421 64.85 C 36.068 63.55 36.836 62.209 38.137 61.856 L 79.317 50.674 C 80.617 50.321 81.958 51.088 82.311 52.389 Z" fill="black"/>
  <path d="M 93.289 66.976 C 94.592 66.633 95.37 65.298 95.026 63.995 C 94.682 62.692 93.348 61.914 92.044 62.258 L 49.237 73.542 C 47.934 73.885 47.156 75.22 47.5 76.523 C 47.843 77.826 49.178 78.604 50.481 78.26 L 93.289 66.976 Z" fill="black"/>
  <path d="M 105.276 75.208 C 105.659 76.5 104.921 77.858 103.629 78.24 L 61.737 90.642 C 60.445 91.025 59.087 90.288 58.704 88.996 C 58.322 87.704 59.059 86.346 60.351 85.964 L 102.243 73.562 C 103.535 73.179 104.893 73.916 105.276 75.208 Z" fill="black"/>
  <path fill-rule="evenodd" clip-rule="evenodd" d="M 116.665 86.716 C 116.704 86.843 116.731 86.97 116.747 87.097 C 122.621 94.596 127.685 98.225 139.846 99.282 C 201.422 161.86 225.396 195.557 240 239.874 C 194.128 224.195 160.663 199.318 99.682 138.42 C 98.894 123.855 95.204 116.146 82.397 108.025 C 82.397 108.025 90.226 106.602 96.937 102.535 C 98.444 101.622 100.203 100.247 102.024 98.664 C 102.935 97.699 104.366 95.994 104.156 95.013 C 103.872 93.685 100.933 93.773 100.539 93.791 L 74.074 101.423 C 72.81 101.787 71.482 101.085 71.108 99.853 C 70.733 98.622 71.455 97.329 72.719 96.964 L 113.699 85.147 C 114.963 84.782 116.291 85.485 116.665 86.716 Z M 109.669 108.338 C 111.686 106.385 114.904 106.437 116.858 108.453 L 182.441 176.157 C 184.394 178.173 184.343 181.391 182.326 183.344 C 180.309 185.297 177.09 185.245 175.137 183.229 L 109.554 115.525 C 107.6 113.509 107.652 110.291 109.669 108.338 Z" fill="black"/>
</svg>
