<?xml version="1.0" encoding="utf-8"?>
<svg width="256" height="256" viewBox="0 0 256 256" fill="none" xmlns="http://www.w3.org/2000/svg">
  <path d="M 96.98 24.477 C 96.98 24.016 96.711 23.6 96.293 23.409 C 95.874 23.22 95.383 23.292 95.037 23.593 L 58.086 55.827 C 49.035 52.391 39.704 49.343 30.086 46.68 C 24.47 45.127 18.657 48.421 17.104 54.037 C 15.552 59.652 18.844 65.465 24.459 67.019 C 104.582 89.181 163.404 140.061 201.111 221.784 C 203.553 227.075 209.821 229.385 215.112 226.944 C 220.403 224.503 222.714 218.234 220.272 212.943 C 218.297 208.665 216.267 204.464 214.18 200.338 L 239.832 157.639 C 240.059 157.263 240.055 156.793 239.824 156.419 C 239.593 156.045 239.172 155.833 238.735 155.867 L 190.104 159.716 C 183.287 149.868 176.044 140.594 168.378 131.896 L 168.48 131.733 C 169.769 129.668 171.581 126.761 173.776 123.215 C 178.165 116.127 184.081 106.486 190.388 95.922 C 202.986 74.82 217.189 49.956 223.853 34.406 C 224.057 33.933 223.926 33.38 223.53 33.049 C 223.135 32.717 222.569 32.68 222.136 32.963 L 127.937 94.26 C 118.117 86.82 107.797 80.057 96.98 73.975 L 96.98 24.477 Z" fill="black"/>
  <path d="M 30.913 80.158 C 25.607 77.75 19.353 80.097 16.945 85.404 C 14.537 90.71 16.886 96.964 22.193 99.371 C 58.096 115.67 81.918 129.354 102.672 147.851 C 123.494 166.41 141.767 190.295 165.829 227.836 C 168.973 232.74 175.5 234.17 180.405 231.026 C 185.311 227.882 186.739 221.357 183.594 216.45 C 159.227 178.431 139.714 152.601 116.712 132.098 C 93.639 111.534 67.596 96.809 30.913 80.158 Z" fill="black"/>
</svg>
