<?xml version="1.0" encoding="utf-8"?>
<svg width="256" height="256" viewBox="0 0 256 256" fill="none" xmlns="http://www.w3.org/2000/svg">
  <path d="M 114.981 37.558 C 117.46 37.558 119.468 35.549 119.468 33.071 C 119.468 30.593 117.46 28.584 114.981 28.584 C 112.503 28.584 110.494 30.593 110.494 33.071 C 110.494 35.549 112.503 37.558 114.981 37.558 Z" fill="black"/>
  <path d="M 105.871 38.35 C 100.081 38.232 96.762 38.203 90.714 38.708 C 90.203 38.751 89.729 38.995 89.398 39.387 C 87.652 41.45 86.874 42.838 85.938 44.957 C 85.506 45.935 85.948 47.078 86.926 47.51 C 87.904 47.942 89.047 47.5 89.479 46.522 C 90.192 44.907 90.736 43.894 91.848 42.5 C 96.098 42.166 98.949 42.116 102.685 42.165 C 101.226 44.885 99.881 46.954 97.461 49.906 C 96.939 50.295 96.668 50.898 96.682 51.505 C 96.671 52.06 96.897 52.615 97.347 53.006 C 99.483 56 100.567 58.103 101.635 61.048 L 85.773 61.048 C 84.704 61.048 83.837 61.915 83.837 62.984 C 83.837 64.053 84.704 64.919 85.773 64.919 L 92.223 64.919 C 90.659 70.268 89.244 73.531 86.22 78.624 C 85.674 79.543 85.977 80.73 86.896 81.276 C 87.815 81.822 89.003 81.519 89.548 80.6 C 92.957 74.859 94.477 71.199 96.251 64.919 L 104.285 64.919 C 104.419 64.923 104.555 64.912 104.69 64.887 C 104.878 64.852 105.057 64.79 105.222 64.705 C 105.506 64.559 105.743 64.348 105.919 64.098 C 106.075 63.877 106.185 63.622 106.237 63.347 C 106.277 63.139 106.284 62.922 106.252 62.705 C 106.234 62.58 106.204 62.459 106.163 62.343 C 104.75 57.969 103.629 55.301 101.079 51.588 C 104.048 47.869 105.471 45.314 107.561 41.154 C 107.86 40.56 107.832 39.855 107.489 39.286 C 107.146 38.717 106.535 38.363 105.871 38.35 Z" fill="black"/>
  <path d="M 112.833 44.269 C 111.923 43.464 110.533 43.548 109.728 44.457 C 108.923 45.367 109.007 46.757 109.916 47.562 C 111.55 49.01 112.999 50.049 114.694 50.814 C 116.369 51.57 118.167 52.003 120.411 52.394 C 121.608 52.602 122.747 51.801 122.955 50.604 C 123.163 49.407 122.362 48.268 121.165 48.06 C 119.042 47.69 117.673 47.332 116.503 46.804 C 115.353 46.285 114.278 45.549 112.833 44.269 Z" fill="black"/>
  <path fill-rule="evenodd" clip-rule="evenodd" d="M 237.441 65.32 C 237.39 64.846 237.046 64.454 236.585 64.338 C 236.121 64.222 235.634 64.405 235.364 64.798 C 227.623 76.04 219.863 81.417 210.215 86.961 C 208.518 87.936 206.761 88.917 204.936 89.936 L 204.932 89.938 L 204.924 89.943 L 204.916 89.947 C 196.336 94.738 186.244 100.373 173.749 110.209 C 165.361 116.812 159.934 123.482 156.25 131.492 C 152.896 138.783 151.014 147.13 149.604 157.43 C 146.6 152.836 144.914 149.053 144.039 145.282 C 143.009 140.847 143.079 136.337 143.572 130.382 C 143.609 129.936 143.382 129.509 142.992 129.29 C 142.602 129.071 142.12 129.1 141.759 129.363 C 132.848 135.859 126.057 141.405 119.925 148.432 C 114.046 155.167 108.806 163.222 102.862 174.709 C 100.5 171.885 99.018 169.463 98.009 166.935 C 96.847 164.022 96.285 160.901 95.796 156.724 C 95.749 156.321 95.491 155.973 95.12 155.81 C 94.748 155.646 94.318 155.692 93.989 155.93 C 87.929 160.316 84.262 162.432 77.421 164.898 C 76.826 163.9 76.594 162.898 76.629 161.845 C 76.674 160.514 77.149 159.027 78.019 157.3 C 79.261 154.835 81.175 152.117 83.432 148.914 L 83.432 148.913 C 84.387 147.558 85.403 146.115 86.456 144.567 C 86.701 144.207 86.72 143.738 86.504 143.359 C 86.289 142.979 85.876 142.756 85.44 142.782 C 77.825 143.246 72.03 143.924 66.75 145.375 C 61.894 146.71 57.514 148.687 52.567 151.7 L 50.025 140.762 C 49.934 140.368 49.641 140.052 49.256 139.93 C 48.871 139.808 48.45 139.899 48.149 140.168 L 41.596 146.027 L 27.799 127.777 C 28.309 124.846 28.98 122.575 29.852 120.664 C 31.274 117.55 33.571 114.933 36.711 112.211 C 36.711 112.211 37.775 111.067 38.194 110.701 C 39.032 109.97 40.171 109.06 41.572 108.002 C 44.37 105.89 48.126 103.253 52.412 100.392 C 60.986 94.67 71.596 88.108 80.749 83.123 C 81.816 82.542 82.209 81.206 81.628 80.139 C 81.048 79.072 79.712 78.679 78.645 79.26 C 75.289 81.087 71.747 83.12 68.184 85.242 C 62.958 80.428 59.151 77.549 52.248 73.036 C 51.705 72.681 51.01 72.654 50.441 72.965 C 49.872 73.276 49.52 73.876 49.526 74.525 C 49.582 80.817 49.386 84.441 48.165 90.294 C 47.361 89.969 46.628 89.678 46.02 89.443 C 45.544 89.259 45.133 89.105 44.817 88.996 C 44.661 88.942 44.514 88.894 44.387 88.857 L 44.377 88.854 C 44.304 88.833 44.062 88.762 43.814 88.761 C 43.199 88.758 42.78 89.093 42.582 89.288 C 42.367 89.5 42.208 89.747 42.091 89.955 C 41.853 90.38 41.642 90.925 41.452 91.506 C 41.066 92.686 40.688 94.275 40.358 95.997 C 39.857 98.609 39.444 101.649 39.292 104.213 C 39.167 104.306 39.043 104.399 38.921 104.492 C 38.286 104.971 37.505 105.64 36.805 106.239 C 35.917 107 35.161 107.647 35.007 107.647 C 34.913 107.647 33.921 106.833 32.462 105.635 L 32.461 105.635 L 32.461 105.634 L 32.46 105.634 C 29.654 103.332 25.12 99.611 21.908 97.525 L 21.908 97.524 C 21.106 97.003 20.275 96.464 19.409 95.894 C 18.711 95.434 17.812 95.41 17.091 95.832 C 16.369 96.254 15.948 97.048 16.006 97.882 C 16.71 108.145 18.88 117.854 21.123 127.885 L 21.123 127.887 L 21.123 127.889 C 21.594 129.992 22.067 132.11 22.531 134.249 C 23.16 142.025 27.744 150.247 34.518 158.328 C 44.018 169.662 58.126 181.091 72.984 191.276 C 87.855 201.469 103.537 210.457 116.234 216.899 C 122.582 220.12 128.196 222.711 132.598 224.5 C 134.799 225.394 136.71 226.093 138.267 226.57 C 139.788 227.037 141.08 227.328 141.991 227.328 C 147.797 227.328 172.013 227.35 194.778 227.372 C 206.16 227.383 217.181 227.394 225.355 227.402 L 238.851 227.416 L 238.855 227.416 C 238.855 227.416 238.855 227.416 238.855 227.412 C 238.855 227.409 238.855 227.403 238.855 227.394 L 238.855 227.359 L 238.855 227.108 L 238.855 227.416 C 239.159 227.416 239.45 227.295 239.664 227.081 C 239.879 226.866 240 226.575 240 226.272 L 240 160.552 C 240 160.077 239.708 159.652 239.263 159.483 C 238.819 159.314 238.318 159.437 238.002 159.791 L 229.971 168.809 L 229.971 147.707 C 229.971 147.075 229.458 146.563 228.828 146.563 L 222.984 146.563 C 230.268 133.896 234.902 123.089 237.231 110.964 C 239.662 98.306 239.563 84.289 237.441 65.32 Z M 53.045 77.787 C 57.852 81.026 61.062 83.521 65.04 87.135 C 61.716 89.157 58.415 91.228 55.272 93.256 C 54.082 92.748 52.768 92.194 51.474 91.655 C 52.634 86.259 52.99 82.648 53.045 77.787 Z M 42.303 102.013 C 44.569 100.392 47.166 98.605 49.97 96.733 C 50.772 96.198 51.592 95.655 52.426 95.107 C 51.134 94.562 49.782 93.998 48.527 93.482 C 47.17 92.925 45.933 92.427 45.006 92.069 C 44.753 91.972 44.527 91.886 44.33 91.813 C 44.268 91.971 44.2 92.16 44.128 92.381 C 43.794 93.401 43.442 94.86 43.122 96.527 C 42.786 98.281 42.497 100.205 42.303 102.013 Z M 20.409 101.4 C 24.617 104.148 28.196 106.994 31.859 110.718 C 29.309 113.134 27.322 115.612 25.85 118.838 C 25.316 120.009 24.857 121.262 24.461 122.628 C 22.927 115.662 21.17 108.304 20.409 101.4 Z" fill="black"/>
  <path d="M 200.28 57.131 C 200.237 56.787 200.159 56.228 200.132 56.038 L 200.132 56.035 C 200.065 55.604 199.76 55.249 199.344 55.118 C 198.928 54.987 198.473 55.105 198.173 55.42 C 198.082 55.516 197.809 55.799 197.632 55.981 C 197.28 56.344 196.764 56.871 196.115 57.524 C 194.817 58.83 192.987 60.639 190.859 62.647 C 186.59 66.674 181.17 71.458 176.458 74.614 C 171.209 78.13 169.561 84.536 169.147 89.76 C 168.937 92.407 169.036 94.84 169.187 96.607 C 169.262 97.482 169.471 98.983 169.544 99.505 L 169.547 99.524 C 169.618 99.915 169.887 100.24 170.256 100.384 C 170.626 100.529 171.044 100.471 171.361 100.232 C 172.716 99.253 176.773 96.322 178.977 94.834 C 183.398 91.85 188.965 88.353 193.671 86.194 C 196.48 84.905 198.191 82.198 199.23 79.144 C 200.275 76.075 200.708 72.469 200.837 69.075 C 200.966 65.67 200.789 62.414 200.582 60.015 C 200.478 58.814 200.366 57.823 200.28 57.131 Z" fill="black"/>
</svg>
