<?xml version="1.0" encoding="utf-8"?>
<svg width="256" height="256" viewBox="0 0 256 256" fill="none" xmlns="http://www.w3.org/2000/svg">
  <path d="M 190.076 77.386 L 66.214 77.386 L 128.581 141.211 L 190.076 77.386 Z" fill="black"/>
  <path fill-rule="evenodd" clip-rule="evenodd" d="M 128.034 38.17 C 113.314 21.384 92.608 14.591 74.119 16.24 C 52.547 18.164 32.377 32.042 30.406 56.355 C 28.579 78.893 37.538 95.48 53.388 113.326 C 61.222 122.147 70.954 131.518 82.14 142.183 C 83.115 143.113 84.101 144.053 85.1 145.005 C 87.503 147.294 90.412 150.024 93.527 152.947 L 93.528 152.948 L 93.535 152.955 L 93.537 152.957 L 93.538 152.957 L 93.538 152.958 L 93.539 152.959 C 104.068 162.841 113.161 171.142 116.835 175.902 C 118.703 178.321 123.794 184.234 124.828 185.919 C 126.432 188.531 127.385 190.083 128.775 190.024 C 131.06 189.928 150.45 161.956 170.899 145.083 C 170.921 145.065 170.952 145.034 170.952 145.034 C 171.932 144.099 172.902 143.175 173.86 142.262 C 185.046 131.597 194.778 122.226 202.612 113.405 C 218.462 95.559 227.421 78.972 225.593 56.434 C 223.622 32.121 203.453 18.243 181.881 16.319 C 163.42 14.672 142.75 21.441 128.034 38.17 Z M 127.935 65.086 L 122.585 55.549 C 111.173 36.81 91.984 29.427 75.426 30.903 C 58.721 32.393 46.303 42.438 45.078 57.545 C 43.709 74.426 49.858 87.184 64.393 103.55 C 71.752 111.835 81.031 120.786 92.297 131.528 C 93.237 132.424 94.189 133.331 95.154 134.251 L 95.264 134.356 L 95.265 134.356 L 95.266 134.357 C 104.967 143.599 115.95 154.063 128.039 166.25 C 140.098 154.096 151.055 143.657 160.735 134.434 C 161.738 133.479 162.727 132.537 163.702 131.607 C 174.969 120.865 184.248 111.914 191.606 103.629 C 206.141 87.263 212.29 74.505 210.921 57.623 C 209.697 42.516 197.279 32.472 180.573 30.982 C 164.016 29.505 144.826 36.889 133.414 55.627 L 127.935 65.086 Z" fill="black"/>
  <path d="M 128.273 192.446 C 128.835 192.44 129.366 192.707 129.697 193.161 C 134.677 199.98 138.47 206.213 141.031 211.746 C 143.583 217.258 144.96 222.18 144.988 226.347 C 145.016 230.569 143.648 234.1 140.662 236.525 C 137.742 238.897 133.531 240 128.29 240 C 123.02 240 118.889 238.78 116.112 236.218 C 113.296 233.622 112.17 229.93 112.332 225.665 C 112.649 217.281 117.95 205.908 126.862 193.189 C 127.185 192.728 127.71 192.451 128.273 192.446 Z" fill="black"/>
</svg>
