<?xml version="1.0" encoding="utf-8"?>
<svg width="256" height="256" viewBox="0 0 256 256" fill="none" xmlns="http://www.w3.org/2000/svg">
  <path fill-rule="evenodd" clip-rule="evenodd" d="M 58.004 154.037 C 64.838 163.886 85.73 173.309 105.783 176.38 C 105.783 176.38 115.265 207.294 114.171 217.508 C 112.257 218.146 52.54 197.628 36.674 189.785 C 20.809 181.942 15.323 148.009 16.065 131.837 C 16.803 115.758 19.834 98.846 27.55 84.821 C 35.25 70.825 46.392 56.644 58.734 47.979 C 70.911 39.429 89.178 35.319 106.01 41.32 C 106.01 41.32 183.451 69.897 184.38 71.963 C 184.907 73.134 180.536 83.346 176.651 91.969 C 175.677 94.665 174.995 97.383 175.446 100.222 C 181.397 102.204 186.345 106.381 189.331 111.792 C 193.844 107.573 199.335 103.195 205.899 98.5 L 229.332 108.075 C 219.485 131.573 200.793 179.754 200.793 179.754 L 177.633 169.631 C 174.682 161.593 172.842 154.562 172.379 148.106 C 170.833 148.408 169.236 148.566 167.603 148.566 C 154.579 148.566 143.899 138.524 142.881 125.76 C 142.881 93.849 117.929 80.485 102.573 79.762 C 86.452 79.002 73.591 81.447 62.199 102.969 C 50.806 124.49 51.171 144.188 58.004 154.037 Z M 167.603 139.264 C 176.164 139.264 183.104 132.323 183.104 123.761 C 183.104 115.199 176.164 108.258 167.603 108.258 C 159.042 108.258 152.102 115.199 152.102 123.761 C 152.102 132.323 159.042 139.264 167.603 139.264 Z" fill="black"/>
  <path d="M 203.894 180.757 C 206.241 177.276 225.877 129.45 232.34 109.079 L 240 109.079 L 240 193.798 L 203.894 180.757 Z" fill="black"/>
</svg>
