<?xml version="1.0" encoding="utf-8"?>
<svg width="256" height="256" viewBox="0 0 256 256" fill="none" xmlns="http://www.w3.org/2000/svg">
  <path d="M 194.773 22.481 C 194.773 26.061 197.128 28.963 200.033 28.963 C 202.938 28.963 205.293 26.061 205.293 22.481 C 205.293 18.902 202.938 16 200.033 16 C 197.128 16 194.773 18.902 194.773 22.481 Z" fill="black"/>
  <path d="M 210.554 45.213 C 210.554 48.689 207.231 51.507 203.133 51.507 C 199.035 51.507 195.712 48.689 195.712 45.213 C 195.712 41.738 199.035 38.92 203.133 38.92 C 207.231 38.92 210.554 41.738 210.554 45.213 Z" fill="black"/>
  <path d="M 199.483 142.655 C 201.144 142.111 203.543 141.495 204.824 141.495 C 207.273 141.495 209.808 142.436 212.151 143.823 C 214.131 144.995 216.258 147.324 217.768 148.982 C 219.754 151.118 221.48 153.511 222.693 155.881 C 223.891 158.222 224.662 160.682 224.55 162.912 C 224.443 165.027 223.665 167.538 222.549 170.041 C 221.421 172.571 219.893 175.211 218.176 177.61 L 217.865 178.045 C 216.342 180.176 215.404 181.489 213.56 183.013 C 211.648 184.593 209.696 186.203 207.52 186.203 C 204 186.222 196.163 186.152 189.508 184.892 C 182.815 183.677 174.111 182.092 171.008 175.781 C 169.137 171.976 170.494 166.176 172.748 162.507 C 175.008 158.826 178.652 155.248 182.647 152.136 C 186.659 149.012 191.12 146.285 195.113 144.332 C 196.776 143.52 198.109 143.094 199.483 142.655 Z" fill="black"/>
  <path d="M 238.905 197.827 C 240.567 196.161 240.07 192.969 237.793 190.697 C 235.516 188.425 232.323 187.933 230.66 189.6 C 228.997 191.265 229.495 194.458 231.772 196.73 C 234.049 199.002 237.242 199.493 238.905 197.827 Z" fill="black"/>
  <path d="M 228.364 44.089 C 226.621 42.625 226.67 39.697 228.474 37.549 C 230.277 35.401 233.153 34.847 234.896 36.311 C 236.639 37.775 236.59 40.703 234.787 42.851 C 232.982 44.999 230.107 45.553 228.364 44.089 Z" fill="black"/>
  <path d="M 135.109 34.947 C 136.708 37.86 139.826 39.221 142.073 37.988 C 144.32 36.754 144.845 33.392 143.246 30.48 C 141.647 27.567 138.529 26.206 136.282 27.439 C 134.035 28.673 133.51 32.034 135.109 34.947 Z" fill="black"/>
  <path d="M 178.696 85.792 C 184.415 92.691 184.076 102.408 177.939 107.495 C 171.802 112.583 162.19 111.115 156.471 104.215 C 150.752 97.316 151.091 87.599 157.228 82.511 C 163.365 77.424 172.977 78.893 178.696 85.792 Z" fill="black"/>
  <path d="M 216.49 109.085 C 221.52 104.915 221.892 97.064 217.321 91.55 C 212.75 86.036 204.966 84.946 199.936 89.116 C 194.906 93.286 194.533 101.137 199.104 106.651 C 203.676 112.165 211.459 113.255 216.49 109.085 Z" fill="black"/>
  <path d="M 156.572 58.961 C 158.11 60.43 158.166 62.868 156.697 64.406 L 70.654 154.488 C 69.185 156.026 66.747 156.082 65.209 154.613 C 63.671 153.143 63.615 150.706 65.084 149.167 L 151.127 59.085 C 152.596 57.547 155.034 57.491 156.572 58.961 Z" fill="black"/>
  <path d="M 94.668 209.044 C 96.697 208.406 97.825 206.244 97.187 204.215 C 96.549 202.186 94.387 201.058 92.358 201.696 L 28.108 221.891 C 26.079 222.529 24.951 224.691 25.588 226.72 C 26.226 228.749 28.388 229.877 30.417 229.239 L 94.668 209.044 Z" fill="black"/>
  <path d="M 140.583 189.647 C 141.173 191.365 140.259 193.235 138.542 193.825 L 114.495 202.091 C 112.778 202.681 110.908 201.768 110.318 200.051 C 109.727 198.334 110.641 196.463 112.358 195.873 L 136.405 187.607 C 138.122 187.017 139.992 187.93 140.583 189.647 Z" fill="black"/>
  <path d="M 131.18 208.188 C 129.364 208.188 127.892 209.66 127.892 211.475 C 127.892 213.291 129.364 214.763 131.18 214.763 L 144.425 214.763 C 146.24 214.763 147.712 213.291 147.712 211.475 C 147.712 209.66 146.24 208.188 144.425 208.188 L 131.18 208.188 Z" fill="black"/>
  <path d="M 123.478 142.904 C 122.632 139.992 125.92 129.847 129.207 129.847 C 132.495 129.847 141.888 135.295 141.888 139.146 C 141.888 142.998 138.037 148.54 132.965 148.54 C 127.892 148.54 124.323 145.816 123.478 142.904 Z" fill="black"/>
  <path d="M 148.599 154.778 C 150.229 153.977 150.9 152.007 150.099 150.377 C 149.298 148.748 147.328 148.076 145.699 148.877 L 73.84 184.196 C 72.21 184.997 71.538 186.967 72.339 188.596 C 73.14 190.226 75.11 190.898 76.74 190.097 L 148.599 154.778 Z" fill="black"/>
  <path d="M 48.039 124.149 C 49.836 125.078 50.542 127.287 49.614 129.085 L 28.573 169.852 C 27.645 171.65 25.435 172.356 23.637 171.427 C 21.839 170.5 21.134 168.289 22.062 166.491 L 43.103 125.724 C 44.031 123.927 46.241 123.222 48.039 124.149 Z" fill="black"/>
  <path d="M 90.31 153.507 C 91.562 155.161 91.235 157.518 89.58 158.77 L 60.273 180.938 C 58.618 182.19 56.261 181.863 55.01 180.208 C 53.758 178.553 54.084 176.197 55.74 174.945 L 85.047 152.776 C 86.702 151.524 89.058 151.851 90.31 153.507 Z" fill="black"/>
  <path d="M 56.221 121.581 C 60.735 121.581 64.394 117.165 64.394 111.718 C 64.394 106.271 60.735 101.855 56.221 101.855 C 51.708 101.855 48.049 106.271 48.049 111.718 C 48.049 117.165 51.708 121.581 56.221 121.581 Z" fill="black"/>
  <path d="M 38.468 111.718 C 38.468 114.675 36.533 117.072 34.147 117.072 C 31.761 117.072 29.826 114.675 29.826 111.718 C 29.826 108.761 31.761 106.364 34.147 106.364 C 36.533 106.364 38.468 108.761 38.468 111.718 Z" fill="black"/>
  <path d="M 22.124 37.793 C 25.444 37.793 28.135 34.848 28.135 31.217 C 28.135 27.586 25.444 24.642 22.124 24.642 C 18.803 24.642 16.112 27.586 16.112 31.217 C 16.112 34.848 18.803 37.793 22.124 37.793 Z" fill="black"/>
  <path d="M 90.225 143.374 C 90.225 140.65 98.21 129.095 99.525 129.846 C 100.065 130.155 100.161 131.732 100.276 133.614 C 100.441 136.312 100.644 139.637 102.249 140.743 C 103.471 141.586 108.479 143.302 113.696 145.089 L 113.71 145.094 C 120.111 147.286 126.821 149.586 127.235 150.512 C 127.986 152.195 120.378 156.992 118.406 156.992 C 116.433 156.992 90.225 146.097 90.225 143.374 Z" fill="black"/>
  <path d="M 41.809 48.394 C 42.57 46.689 44.57 45.924 46.275 46.686 L 122.561 80.758 L 106.305 97.776 L 37.235 66.927 C 35.529 66.165 34.765 64.166 35.526 62.46 L 41.809 48.394 Z" fill="black"/>
  <path d="M 103.301 100.922 L 41.138 73.158 C 39.433 72.396 37.433 73.161 36.672 74.866 L 34.355 80.052 C 33.594 81.758 34.358 83.758 36.064 84.519 L 94.176 110.475 L 103.301 100.922 Z" fill="black"/>
  <path d="M 112.933 118.852 L 122.058 109.299 L 184.901 137.364 C 186.282 137.98 187.047 139.41 186.883 140.837 L 174.577 152.015 L 156.26 144.783 C 153.809 142.183 151.085 141.619 147.712 143.279 L 144.8 145.628 L 144.8 132.522 L 112.933 118.852 Z" fill="black"/>
  <path d="M 158.26 149.158 C 158.394 150.193 158.33 151.232 158.086 152.223 L 167.43 156.272 C 168.018 155.502 168.64 154.748 169.289 154.012 L 158.26 149.158 Z" fill="black"/>
  <path d="M 144.8 185.86 C 144.798 185.86 144.795 182.131 144.791 177.721 L 144.783 163.528 L 144.8 163.515 L 144.8 160.657 L 148.693 160.657 L 150.68 159.198 L 162.961 164.521 C 162.871 164.8 162.787 165.082 162.708 165.366 C 162.632 165.64 162.561 165.917 162.496 166.196 C 162.425 166.505 162.36 166.817 162.303 167.132 L 150.436 161.989 L 150.436 165.675 L 162.017 170.694 C 162.039 171.638 162.142 172.598 162.34 173.567 L 150.436 168.408 L 150.436 172.093 L 163.899 177.928 C 164.711 179.51 165.67 180.93 166.739 182.205 L 150.436 175.14 L 150.436 178.826 L 184.534 193.604 L 184.534 196.493 L 150.436 181.715 L 150.436 185.401 L 184.534 200.179 L 184.534 203.257 L 150.436 188.478 L 150.436 192.164 L 184.534 206.942 L 184.534 227.82 C 184.534 228.183 184.24 228.477 183.877 228.477 L 171.51 228.477 C 171.642 231.902 171.272 234.587 170.274 236.511 C 169.178 238.624 167.361 239.75 164.876 239.963 C 162.447 240.17 159.375 239.508 155.653 238.124 C 151.917 236.737 147.46 234.596 142.234 231.78 C 142.15 231.735 142.078 231.672 142.022 231.598 C 141.937 231.486 141.889 231.347 141.889 231.201 L 141.889 218.52 L 144.783 218.52 C 148.88 218.52 152.691 215.373 152.691 210.912 C 152.691 206.45 148.88 203.303 144.783 203.303 L 144.783 194.647 L 144.8 194.632 L 144.803 189.235 C 144.803 187.426 144.803 185.86 144.8 185.86 Z" fill="black"/>
  <path d="M 154.581 157.204 C 155.386 156.672 156.074 156.018 156.633 155.279 L 165.478 159.112 C 165.368 159.294 165.244 159.5 165.136 159.687 C 165.043 159.848 164.951 160.01 164.86 160.174 C 164.643 160.566 164.432 160.971 164.23 161.386 L 154.581 157.204 Z" fill="black"/>
  <path d="M 125.062 106.154 L 141.317 89.136 L 147.142 91.737 C 147.029 97.101 148.919 102.612 152.551 106.993 C 159.902 115.86 173.127 118.577 182.219 111.039 C 183.157 110.262 183.996 109.421 184.738 108.529 L 194.21 112.759 C 195.915 113.521 196.68 115.521 195.919 117.226 L 189.636 131.292 C 188.875 132.997 186.875 133.762 185.169 133.001 L 125.062 106.154 Z" fill="black"/>
  <path d="M 185.447 63.97 C 185.325 64.795 184.622 65.408 183.789 65.416 L 163.311 65.602 C 162.583 65.609 161.932 65.148 161.696 64.458 C 157.848 53.198 157.064 44.843 158.31 39.146 C 158.937 36.279 160.095 34.01 161.717 32.422 C 163.356 30.817 165.384 29.992 167.553 29.909 C 171.745 29.751 175.657 32.059 178.654 35.192 C 181.674 38.349 183.986 42.559 184.95 46.716 C 185.89 50.769 186.006 55.09 185.898 58.354 C 185.844 59.994 185.732 61.39 185.634 62.377 C 185.585 62.867 185.483 63.685 185.448 63.964 L 185.447 63.97 Z" fill="black"/>
  <path d="M 109.744 27.383 C 110.238 27.042 110.877 26.989 111.42 27.244 C 120.928 31.701 125.74 34.904 132.268 42.413 C 132.497 42.676 132.639 43.004 132.674 43.351 C 133.641 52.811 133.767 58.334 130.733 68.432 C 130.554 69.028 130.062 69.477 129.451 69.602 C 121.153 71.294 116.428 70.968 108.265 69.613 C 107.885 69.55 107.537 69.359 107.281 69.071 C 99.916 60.815 96.137 55.519 91.201 46.844 C 91.148 46.657 91.131 46.484 91.129 46.346 C 91.125 46.05 91.188 45.801 91.238 45.64 C 91.341 45.317 91.506 45.012 91.654 44.766 C 91.965 44.25 92.429 43.63 92.974 42.962 C 94.079 41.608 95.679 39.864 97.514 38.009 C 101.175 34.308 105.91 30.023 109.744 27.383 Z" fill="black"/>
</svg>
