<?xml version="1.0" encoding="utf-8"?>
<svg width="256" height="256" viewBox="0 0 256 256" fill="none" xmlns="http://www.w3.org/2000/svg">
  <path d="M 21.968 18.591 C 22.325 16.84 24.034 15.709 25.786 16.066 C 70.464 25.167 104.998 34.389 137.026 49.099 C 169.084 63.823 198.481 83.977 233.015 114.78 C 234.275 115.903 234.459 117.806 233.439 119.151 C 232.419 120.496 230.536 120.831 229.115 119.921 C 204.872 104.391 189.626 96.288 168.555 87.126 C 173.615 93.988 176.765 99.391 182.356 110.717 C 182.871 111.759 182.787 112.997 182.137 113.96 C 181.487 114.924 180.37 115.465 179.211 115.377 C 126.174 111.383 95.14 110.568 46.042 109.279 L 46.033 109.279 L 46.007 109.278 C 39.384 109.104 32.431 108.921 25.052 108.721 C 23.265 108.673 21.856 107.185 21.904 105.398 C 21.953 103.611 23.441 102.202 25.228 102.25 C 32.614 102.451 39.576 102.634 46.21 102.808 C 93.536 104.05 124.213 104.856 174.001 108.499 C 168.123 97.023 164.911 92.729 155.878 81.315 C 154.962 80.159 154.944 78.53 155.834 77.354 C 156.724 76.178 158.297 75.752 159.659 76.318 C 174.423 82.46 185.968 87.643 197.845 93.906 C 176.15 77.245 155.815 64.852 134.324 54.982 C 102.974 40.582 69.014 31.478 24.494 22.409 C 22.742 22.052 21.611 20.343 21.968 18.591 Z" fill="black"/>
  <path d="M 188.454 103.56 L 230.385 127.667 L 188.542 151.927 L 188.506 132.075 C 164.16 139.941 22.189 139.376 22.189 139.376 L 22.346 129.094 L 22.284 129.095 L 22.284 116.529 C 22.284 116.529 142.223 115.014 188.49 123.313 L 188.454 103.56 Z" fill="black"/>
  <path d="M 25.787 239.934 C 24.035 240.291 22.326 239.16 21.969 237.409 C 21.612 235.657 22.743 233.948 24.494 233.591 C 69.015 224.522 102.974 215.418 134.325 201.018 C 155.816 191.148 176.151 178.755 197.846 162.094 C 185.969 168.357 174.424 173.54 159.659 179.682 C 158.298 180.248 156.725 179.822 155.835 178.646 C 154.945 177.47 154.963 175.841 155.878 174.685 C 164.912 163.271 168.124 158.977 174.002 147.501 C 124.214 151.144 93.537 151.95 46.21 153.192 C 39.576 153.366 32.615 153.549 25.228 153.75 C 23.441 153.798 21.953 152.389 21.905 150.602 C 21.856 148.815 23.266 147.327 25.053 147.279 C 32.428 147.079 39.377 146.896 45.997 146.722 L 46.042 146.721 L 46.043 146.721 C 95.141 145.432 126.174 144.617 179.212 140.623 C 180.371 140.535 181.488 141.076 182.138 142.04 C 182.788 143.003 182.871 144.241 182.357 145.283 C 176.765 156.609 173.616 162.012 168.555 168.874 C 189.626 159.712 204.872 151.609 229.115 136.079 C 230.537 135.169 232.419 135.504 233.44 136.849 C 234.46 138.194 234.275 140.097 233.016 141.22 C 198.482 172.023 169.085 192.177 137.027 206.901 C 104.999 221.611 70.465 230.833 25.787 239.934 Z" fill="black"/>
</svg>
