<?xml version="1.0" encoding="utf-8"?>
<svg width="256" height="256" viewBox="0 0 256 256" fill="none" xmlns="http://www.w3.org/2000/svg">
  <path d="M 188.075 24.349 C 180.636 27.859 175.191 34.193 173.408 43.295 C 173.136 44.684 171.789 45.589 170.401 45.317 C 169.012 45.045 168.107 43.698 168.379 42.31 C 170.49 31.53 177.049 23.886 185.888 19.715 C 194.661 15.575 205.561 14.899 216.516 17.669 C 217.887 18.016 218.719 19.409 218.372 20.781 C 218.025 22.153 216.631 22.984 215.259 22.637 C 205.228 20.101 195.578 20.808 188.075 24.349 Z" fill="black"/>
  <path d="M 192.727 33.088 C 188.87 35.313 186.267 39.995 183.702 48.656 C 183.3 50.013 181.874 50.787 180.517 50.385 C 179.16 49.983 178.386 48.557 178.788 47.201 C 181.367 38.496 184.414 31.967 190.167 28.649 C 195.914 25.334 203.594 25.657 214.158 28.328 C 215.53 28.675 216.361 30.068 216.014 31.44 C 215.667 32.812 214.274 33.643 212.902 33.296 C 202.48 30.661 196.59 30.859 192.727 33.088 Z" fill="black"/>
  <path d="M 226.639 37.765 C 227.611 39.684 226.843 42.027 224.924 42.999 L 184.439 63.497 C 182.52 64.469 180.177 63.701 179.205 61.782 C 178.233 59.863 179.002 57.52 180.921 56.548 L 221.405 36.05 C 223.324 35.078 225.667 35.846 226.639 37.765 Z" fill="black"/>
  <path d="M 222.142 52.12 C 219.574 60.789 216.997 65.438 213.172 67.635 C 209.338 69.839 203.477 70.016 193.045 67.378 C 191.673 67.031 190.279 67.862 189.933 69.234 C 189.586 70.606 190.416 71.999 191.788 72.346 C 202.342 75.015 210.001 75.368 215.725 72.079 C 221.459 68.784 224.48 62.273 227.056 53.576 C 227.458 52.219 226.684 50.793 225.327 50.391 C 223.97 49.989 222.544 50.763 222.142 52.12 Z" fill="black"/>
  <path d="M 230.899 57.379 C 229.086 66.633 224.294 72.809 217.704 76.152 C 211.037 79.534 202.202 80.176 192.122 77.627 C 190.75 77.28 189.357 78.111 189.01 79.483 C 188.663 80.855 189.494 82.249 190.866 82.596 C 201.772 85.353 211.95 84.817 220.022 80.722 C 228.172 76.588 233.846 68.991 235.928 58.364 C 236.2 56.975 235.295 55.629 233.906 55.357 C 232.517 55.085 231.171 55.99 230.899 57.379 Z" fill="black"/>
  <path d="M 167.567 119.789 C 169.65 129.809 171.236 137.434 170.688 137.712 L 146.192 117.726 L 146.192 74.679 C 154.392 69.35 173.456 58.383 175.403 62.688 C 176.366 64.817 172.631 67.324 168.651 69.995 C 164.583 72.726 160.26 75.628 160.439 78.472 C 161.076 88.578 164.77 106.341 167.567 119.789 Z" fill="black"/>
  <path d="M 66.863 61.765 L 89.412 138.122 L 129.794 171.228 L 170.893 148.884 L 66.863 61.765 Z" fill="black"/>
  <path d="M 33.963 240 L 20.024 84.211 L 57.434 63.2 L 110.833 240 L 33.963 240 Z" fill="black"/>
</svg>
