<?xml version="1.0" encoding="utf-8"?>
<svg width="256" height="256" viewBox="0 0 256 256" fill="none" xmlns="http://www.w3.org/2000/svg">
  <path d="M 96.271 72.573 C 105.749 72.573 113.433 64.89 113.433 55.412 C 113.433 45.934 105.749 38.25 96.271 38.25 C 86.793 38.25 79.11 45.934 79.11 55.412 C 79.11 64.89 86.793 72.573 96.271 72.573 Z" fill="black"/>
  <path d="M 62.326 123.518 C 61.147 121.656 58.681 121.103 56.819 122.283 C 54.957 123.462 54.404 125.928 55.583 127.79 L 67.656 146.848 C 68.836 148.709 71.301 149.263 73.164 148.083 C 75.025 146.904 75.579 144.438 74.399 142.576 L 62.326 123.518 Z" fill="black"/>
  <path d="M 86.669 163.125 C 85.486 161.265 83.02 160.715 81.159 161.897 C 79.299 163.079 78.749 165.546 79.932 167.406 L 113.157 219.689 C 114.34 221.549 116.806 222.099 118.666 220.917 C 120.527 219.735 121.076 217.268 119.894 215.408 L 86.669 163.125 Z" fill="black"/>
  <path d="M 195.403 174.265 C 194.201 172.417 191.729 171.893 189.881 173.094 C 188.033 174.296 187.509 176.768 188.711 178.616 L 210.961 212.839 C 212.162 214.687 214.634 215.212 216.482 214.01 C 218.33 212.809 218.854 210.336 217.653 208.488 L 195.403 174.265 Z" fill="black"/>
  <path d="M 184.595 204.506 C 183.453 202.62 180.999 202.018 179.113 203.159 C 177.228 204.301 176.625 206.755 177.767 208.641 C 180.248 212.737 184.006 218.908 187.216 224.11 C 188.82 226.708 190.294 229.077 191.407 230.827 C 191.961 231.699 192.44 232.439 192.805 232.984 C 192.984 233.252 193.158 233.505 193.311 233.713 C 193.384 233.815 193.481 233.944 193.588 234.073 C 193.595 234.082 193.925 234.507 194.426 234.865 C 196.22 236.146 198.713 235.73 199.994 233.937 C 201.102 232.386 200.941 230.311 199.717 228.95 C 199.655 228.863 199.563 228.729 199.436 228.54 C 199.125 228.076 198.687 227.401 198.143 226.545 C 197.059 224.84 195.607 222.507 194.009 219.918 C 190.815 214.742 187.069 208.591 184.595 204.506 Z" fill="black"/>
  <path fill-rule="evenodd" clip-rule="evenodd" d="M 173.415 17.429 C 175.491 15.454 178.775 15.536 180.75 17.613 C 219.336 58.181 214.636 123.568 174.296 160.767 L 174.296 182.028 C 174.296 185.72 171.303 188.713 167.611 188.713 C 163.919 188.713 160.926 185.72 160.926 182.028 L 160.926 134.139 L 111.637 136.323 L 168.436 229.843 C 170.353 232.999 169.348 237.111 166.193 239.027 C 163.037 240.945 158.925 239.939 157.009 236.784 L 94.877 134.484 C 94.22 134.02 93.667 133.402 93.277 132.661 C 92.921 132.007 91.866 130.063 91.218 128.915 C 89.92 126.615 88.118 123.522 86.091 120.327 C 84.053 117.115 81.844 113.89 79.734 111.284 C 77.469 108.486 75.832 107.062 75.018 106.66 C 71.339 104.845 63.286 101.366 55.996 98.279 C 54.805 97.775 53.494 97.27 52.093 96.731 C 49.249 95.637 46.034 94.4 42.691 92.728 C 39.693 91.229 37.702 88.927 37.702 85.744 C 37.702 81.721 40.963 78.46 44.986 78.46 L 112.37 78.46 L 171.878 22.079 C 171.593 20.428 172.11 18.67 173.415 17.429 Z M 144.793 121.471 L 127.191 93.028 L 189.562 93.028 C 193.585 93.028 196.846 89.767 196.846 85.744 C 196.846 81.721 193.585 78.46 189.562 78.46 L 121.945 78.46 L 175.727 27.504 C 205.114 61.211 203.196 112.556 174.296 145.886 L 174.296 127.151 C 174.296 125.327 173.551 123.582 172.233 122.321 C 170.914 121.06 169.138 120.392 167.315 120.473 L 144.793 121.471 Z" fill="black"/>
</svg>
