<?xml version="1.0" encoding="utf-8"?>
<svg width="256" height="256" viewBox="0 0 256 256" fill="none" xmlns="http://www.w3.org/2000/svg">
  <path d="M 26.14 51.49 C 28.641 53.383 32.655 55.482 38.516 57.695 C 40.369 58.395 41.304 60.465 40.604 62.317 C 39.904 64.171 37.835 65.106 35.982 64.406 C 29.837 62.086 25.099 59.698 21.811 57.21 C 18.613 54.79 16.145 51.775 16.006 48.103 C 15.863 44.333 18.214 41.378 21.048 39.225 C 23.935 37.031 27.984 35.133 32.823 33.473 C 52.136 26.847 88.07 22.694 130.999 22.694 C 173.88 22.694 204.47 26.586 220.911 33.162 C 225.058 34.821 228.502 36.726 231.051 38.931 C 233.612 41.148 235.461 43.848 235.912 47.046 C 236.369 50.272 235.311 53.357 233.353 56.132 C 231.417 58.874 228.49 61.494 224.769 64.018 C 223.13 65.131 220.9 64.703 219.788 63.064 C 218.675 61.425 219.103 59.195 220.742 58.083 C 224.07 55.825 226.238 53.772 227.491 51.996 C 228.719 50.256 228.94 48.98 228.81 48.049 C 228.675 47.091 228.071 45.839 226.356 44.355 C 224.629 42.86 221.978 41.315 218.247 39.823 C 203.181 33.796 173.796 29.867 130.999 29.867 C 88.249 29.867 53.297 34.032 35.15 40.258 C 30.624 41.811 27.396 43.41 25.388 44.936 C 23.326 46.503 23.161 47.493 23.174 47.832 C 23.19 48.27 23.549 49.53 26.14 51.49 Z" fill="black"/>
  <path d="M 52.79 188.474 L 52.79 199.433 C 41.233 206.606 28.68 217.565 18.219 233.206 L 57.771 233.206 L 57.771 217.565 L 107.286 217.565 C 106.109 225.618 105.038 228.886 100.213 233.206 L 158.006 233.306 C 153.181 228.986 152.11 225.717 150.933 217.664 L 200.448 217.664 L 200.448 233.306 L 240 233.306 C 229.539 217.664 216.986 206.705 205.429 199.532 L 205.429 188.573 L 52.79 188.474 Z" fill="black"/>
  <path fill-rule="evenodd" clip-rule="evenodd" d="M 34.922 94.417 C 52.853 90.256 87.029 88.362 128.607 88.248 C 128.607 88.248 170.37 88.306 197.051 90.341 C 206.152 91.391 213.488 92.717 219.006 94.159 C 222.854 95.165 225.634 96.204 227.46 97.199 C 228.665 97.854 229.193 98.348 229.41 98.598 C 229.311 98.728 229.145 98.914 228.871 99.161 C 227.812 100.116 225.799 101.321 222.502 102.659 C 220.666 103.404 219.782 105.495 220.527 107.331 C 221.272 109.166 223.364 110.05 225.199 109.305 C 228.776 107.854 231.697 106.272 233.677 104.487 C 235.651 102.705 237.34 100.053 236.466 96.856 C 235.703 94.077 233.281 92.201 230.893 90.9 C 228.338 89.509 224.929 88.293 220.82 87.219 C 215.141 85.735 207.775 84.435 198.789 83.368 C 199.813 80.789 200.853 78.134 201.932 75.378 L 201.938 75.363 L 201.939 75.361 L 201.94 75.358 L 201.941 75.356 C 203.589 71.148 205.329 66.707 207.241 61.947 C 179.386 45.17 163.179 41.654 132.122 39.531 C 132.122 39.531 131.103 59.748 129.177 80.181 C 87.148 80.263 52.157 83.054 33.301 87.429 C 28.521 88.538 24.546 89.8 21.705 91.259 C 20.292 91.986 18.954 92.864 17.943 93.963 C 16.902 95.096 16.027 96.681 16.136 98.631 C 16.242 100.524 17.238 102.018 18.326 103.098 C 19.415 104.181 20.85 105.111 22.468 105.939 C 25.715 107.601 30.392 109.196 36.485 110.752 C 38.404 111.242 40.358 110.084 40.848 108.165 C 41.338 106.246 40.179 104.292 38.26 103.802 C 32.351 102.293 28.277 100.854 25.736 99.554 C 24.821 99.085 24.198 98.69 23.783 98.365 C 24.069 98.163 24.456 97.911 24.984 97.639 C 27.039 96.583 30.338 95.48 34.922 94.417 Z" fill="black"/>
  <path d="M 116.281 169.445 C 116.281 169.445 38.14 141.398 39.867 135.273 C 42.04 130.001 64.132 128.498 84.866 127.087 C 102.145 125.91 118.481 124.798 121.561 121.624 C 123.877 119.237 125.843 108.897 127.428 96.318 L 193.452 96.318 C 188.357 108.054 182.698 118.961 173.766 131.885 C 175.759 154.401 168.785 176.219 161.014 184.19 L 136.506 177.714 C 142.384 159.582 132.122 161.275 116.281 169.445 Z" fill="black"/>
</svg>
