<?xml version="1.0" encoding="utf-8"?>
<svg width="256" height="256" viewBox="0 0 256 256" fill="none" xmlns="http://www.w3.org/2000/svg">
  <path d="M 127.411 27.765 C 77.328 27.765 36.727 68.366 36.727 118.45 C 36.727 126.972 37.989 136.244 40.181 144.05 C 41.059 147.178 39.235 150.426 36.107 151.304 C 32.979 152.182 29.731 150.358 28.853 147.23 C 26.374 138.399 24.961 128.057 24.961 118.45 C 24.961 61.868 70.83 16 127.411 16 C 183.993 16 229.861 61.868 229.861 118.45 C 229.861 126.948 228.532 137.529 226.576 145.437 C 225.796 148.591 222.607 150.516 219.453 149.736 C 216.299 148.956 214.375 145.767 215.155 142.613 C 216.884 135.622 218.096 125.989 218.096 118.45 C 218.096 68.366 177.495 27.765 127.411 27.765 Z" fill="black"/>
  <path d="M 173.018 202.664 C 174.492 205.559 173.34 209.101 170.445 210.575 C 156.515 217.668 144.124 220.9 127.411 220.9 C 111.66 220.9 100.869 219.228 87.096 212.523 C 84.175 211.1 82.96 207.58 84.382 204.658 C 85.804 201.737 89.325 200.522 92.246 201.944 C 103.98 207.657 112.886 209.134 127.411 209.134 C 142.198 209.134 152.766 206.374 165.107 200.091 C 168.002 198.617 171.544 199.768 173.018 202.664 Z" fill="black"/>
  <path fill-rule="evenodd" clip-rule="evenodd" d="M 180.635 125.891 C 181.102 120.7 181.302 116.538 181.178 113.346 C 181.058 110.254 180.63 107.582 179.426 105.837 C 178.753 104.861 177.797 104.115 176.553 103.841 C 175.714 103.655 174.887 103.717 174.116 103.907 C 174.175 103.743 174.231 103.581 174.286 103.419 C 175.139 100.901 175.641 98.222 175.051 95.992 C 174.736 94.804 174.094 93.685 172.999 92.875 C 171.922 92.078 170.617 91.736 169.242 91.702 C 168.54 91.685 167.784 91.747 166.973 91.886 C 167.4 91.036 167.723 90.198 167.944 89.376 C 168.754 86.358 168.165 83.545 166.284 81.527 C 164.121 79.207 160.797 78.385 157.23 78.935 C 157.327 78.486 157.386 78.035 157.404 77.583 C 157.522 74.707 155.998 72.391 153.833 70.963 C 150.793 68.957 146.372 68.529 142.078 70.125 C 142.263 67.924 142.232 65.45 142.069 62.653 C 142.015 61.733 141.429 60.928 140.569 60.595 C 138.939 59.965 136.559 59.591 133.968 59.421 C 131.319 59.247 128.246 59.274 125.122 59.551 C 122.002 59.826 118.781 60.355 115.851 61.204 C 113.123 61.994 110.512 63.102 108.475 64.65 C 108.314 64.727 108.16 64.824 108.016 64.939 C 97.238 73.617 90.161 81.619 84.894 90.958 C 79.651 100.255 76.273 110.757 72.734 124.28 C 72.453 125.351 72.958 126.473 73.946 126.974 C 73.983 126.993 74.02 127.012 74.058 127.031 L 74.078 127.042 L 74.163 127.084 C 74.183 127.094 74.202 127.104 74.222 127.114 L 20.51 168.919 C 19.607 169.622 19.079 170.702 19.079 171.847 L 19.079 238.19 C 19.079 239.19 19.889 240 20.889 240 L 48.311 240 C 48.863 240 49.375 239.75 49.714 239.335 C 50.119 239.263 50.498 239.053 50.777 238.723 C 79.37 205.031 96.955 185.213 125.867 155.987 C 157.987 180.595 175.186 201.112 204.944 237.872 C 205.614 238.7 206.623 239.181 207.688 239.181 L 233.391 239.181 C 235.34 239.181 236.92 237.601 236.92 235.651 L 236.92 171.575 C 236.92 170.483 236.414 169.452 235.55 168.783 L 185.662 130.192 L 180.635 125.891 Z M 226.998 232.122 L 229.861 232.122 L 229.861 173.307 C 229.861 173.307 187.053 137.247 183.244 137.247 C 179.436 137.247 163.81 147.626 163.81 149.736 C 163.81 151.845 188.198 176.149 188.198 176.149 C 189.436 177.49 189.448 179.552 188.227 180.907 L 184.563 184.971 L 226.998 232.122 Z M 127.9 82.157 L 128.9 82.842 C 128.718 83.395 128.487 84.075 128.207 84.859 C 128.019 85.387 127.808 85.961 127.575 86.576 C 126.81 88.596 125.808 91.037 124.57 93.651 L 100.144 78.404 C 102.896 75.538 106.026 72.665 109.625 69.698 C 111.538 70.988 113.789 72.516 116.088 74.082 C 118.084 75.441 120.117 76.829 121.999 78.116 C 124.312 79.697 126.395 81.125 127.9 82.157 Z M 96.931 81.946 L 122.432 97.864 C 122.3 98.106 122.166 98.348 122.031 98.591 C 120.292 101.704 118.27 104.804 115.973 107.553 L 90.732 90.351 C 92.544 87.469 94.583 84.694 96.931 81.946 Z M 88.355 94.426 L 112.705 111.021 C 109.506 113.998 105.967 116.102 102.08 116.837 L 83.688 104.687 C 85.097 101.019 86.622 97.633 88.355 94.426 Z M 113.931 66.891 L 131.661 78.979 C 134.2 77.6 135.575 76.172 136.388 74.281 C 136.409 74.233 136.429 74.185 136.449 74.137 C 136.491 73.976 136.55 73.819 136.627 73.669 C 137.35 71.614 137.612 68.802 137.451 64.591 C 136.475 64.388 135.194 64.217 133.66 64.117 C 131.264 63.959 128.432 63.982 125.537 64.238 C 122.638 64.495 119.728 64.98 117.161 65.724 C 115.973 66.068 114.89 66.459 113.931 66.891 Z M 176.221 122.116 C 176.476 118.59 176.562 115.753 176.476 113.529 C 176.332 110.448 175.861 108.964 175.497 108.436 C 174.416 108.846 172.183 110.112 169.881 112.156 C 169.01 112.929 167.705 112.949 166.812 112.203 C 165.918 111.458 165.703 110.17 166.307 109.175 C 167.852 106.629 169.085 104.105 169.829 101.908 C 170.605 99.618 170.725 98.044 170.501 97.196 C 170.408 96.846 170.285 96.721 170.2 96.658 C 170.098 96.583 169.81 96.424 169.126 96.407 C 167.66 96.371 165.094 97.002 161.04 99.018 C 159.99 99.54 158.717 99.21 158.053 98.243 C 157.389 97.277 157.538 95.969 158.402 95.177 C 161.492 92.343 162.922 89.931 163.399 88.155 C 163.855 86.456 163.45 85.389 162.842 84.736 C 161.501 83.298 157.47 82.467 152.538 85.824 C 151.508 86.525 150.111 86.302 149.35 85.316 C 148.59 84.33 148.729 82.922 149.668 82.104 C 152.021 80.055 152.66 78.405 152.702 77.39 C 152.74 76.464 152.3 75.59 151.241 74.891 C 149.094 73.475 144.736 73.187 140.691 76.188 C 139.305 79.377 136.953 81.493 133.715 83.218 C 133.436 84.06 132.518 86.812 131.976 88.244 C 130.687 91.644 128.746 96.219 126.14 100.886 C 123.54 105.54 120.231 110.37 116.179 114.215 C 112.445 117.759 107.982 120.553 102.789 121.492 C 101.089 125.202 99.359 127.96 97.093 129.873 C 94.51 132.053 91.501 132.917 87.821 133.281 C 87.744 133.288 87.667 133.292 87.59 133.292 C 87.231 133.292 86.937 133.205 86.891 133.192 C 86.731 133.117 86.245 132.906 85.699 132.668 L 85.697 132.667 C 84.946 132.34 84.083 131.964 83.806 131.832 C 83.191 131.539 82.508 131.211 81.788 130.861 C 81.744 130.84 81.7 130.819 81.655 130.797 L 81.627 130.783 L 81.624 130.782 L 81.621 130.78 L 81.532 130.737 C 81.375 130.919 81.197 131.089 81 131.243 L 26.5 173.661 L 26.5 205.152 L 28.649 205.152 C 34.131 199.615 40.001 193.692 49.795 190.834 C 50.603 190.599 51.466 190.951 51.879 191.683 C 53.457 194.483 53.683 196.961 53.09 199.588 C 52.694 201.341 51.91 203.214 51.022 205.257 C 57.927 199.486 64.663 193.694 71.171 188.099 C 80.042 180.471 88.485 173.211 96.346 166.873 C 105.763 159.281 114.534 152.849 122.456 148.556 C 122.589 148.411 122.734 148.277 122.89 148.155 C 123.049 148.032 123.219 147.921 123.4 147.825 L 172.362 121.76 C 173.607 121.097 175.124 121.241 176.221 122.116 Z M 82.043 109.24 C 80.563 113.591 79.182 118.341 77.772 123.632 C 79.689 124.593 81.912 125.691 83.843 126.628 C 84.468 126.931 85.907 127.606 86.934 128.088 C 87.349 128.282 87.696 128.445 87.895 128.539 C 90.779 128.201 92.584 127.521 94.057 126.277 C 95.482 125.074 96.798 123.179 98.302 119.981 L 82.043 109.24 Z" fill="black"/>
</svg>
