<?xml version="1.0" encoding="utf-8"?>
<svg width="256" height="256" viewBox="0 0 256 256" fill="none" xmlns="http://www.w3.org/2000/svg">
  <path d="M 142.368 37.828 C 158.455 26.237 167.974 23.909 174.716 25.877 C 178.123 26.872 181.379 29.108 184.791 32.881 C 188.228 36.681 191.625 41.821 195.354 48.285 C 196.146 49.66 197.589 50.532 199.174 50.595 C 209.398 51 216.248 54.312 220.462 58.514 C 224.692 62.733 226.575 68.146 226.391 73.398 C 226.206 78.674 223.939 83.718 219.911 87.204 C 216.29 90.338 210.985 92.434 203.881 92.025 L 203.881 88.559 C 203.881 86.006 201.812 83.937 199.259 83.937 C 196.706 83.937 194.637 86.006 194.637 88.559 L 194.637 104.061 C 193.926 105.767 193.059 107.24 192.042 108.54 C 189.66 111.588 186.146 114.078 180.881 116.244 C 179.549 116.792 178.549 117.93 178.176 119.321 C 174.443 133.237 170.107 138.725 165.207 141.015 C 159.883 143.503 152.515 143.019 140.414 141.033 C 137.895 140.619 135.518 142.326 135.105 144.845 C 134.692 147.364 136.398 149.741 138.917 150.154 C 139.266 150.212 139.614 150.269 139.961 150.324 L 139.961 157.789 C 139.961 160.342 142.03 162.411 144.583 162.411 C 147.135 162.411 149.205 160.342 149.205 157.789 L 149.205 151.587 C 156.633 152.326 163.348 152.087 169.121 149.389 C 177.437 145.502 182.648 137.197 186.502 123.877 C 191.759 121.454 196.077 118.387 199.325 114.235 C 202.198 110.559 204.046 106.272 205.105 101.315 C 213.598 101.428 220.701 98.746 225.96 94.194 C 232.052 88.922 235.359 81.403 235.629 73.723 C 235.9 66.019 233.118 58.082 226.989 51.969 C 221.285 46.28 212.946 42.424 202.104 41.515 C 198.702 35.775 195.3 30.721 191.647 26.681 C 187.519 22.115 182.879 18.631 177.307 17.004 C 166.569 13.869 154.408 18.148 139.047 28.851 C 126.414 24.06 114.542 23.906 104.346 29.244 C 98.492 32.31 93.486 37.034 89.327 43.228 C 77.654 34.066 65.752 30.588 55.017 31.275 C 43.141 32.035 33.082 37.881 26.908 45.977 C 20.74 54.065 18.29 64.686 22.335 74.624 C 26.227 84.185 35.675 92.029 50.98 96.36 C 60.199 113.387 70.964 123.627 83.269 127.963 C 90.994 130.685 98.966 130.953 107.017 129.459 L 107.017 134.895 C 104.357 135.908 101.824 137.135 99.599 138.804 C 95.149 142.144 92.3 146.912 90.883 153.923 C 90.377 156.425 91.996 158.863 94.497 159.369 C 97 159.875 99.438 158.257 99.944 155.755 C 101.011 150.476 102.874 147.904 105.148 146.198 C 105.721 145.768 106.341 145.375 107.017 145.007 L 107.017 145.398 C 107.017 147.951 109.087 150.02 111.639 150.02 C 114.192 150.02 116.261 147.951 116.261 145.398 L 116.261 141.598 L 116.397 141.558 C 116.494 141.529 116.591 141.5 116.688 141.471 C 119.136 140.746 120.533 138.175 119.808 135.727 C 119.302 134.019 117.896 132.823 116.261 132.502 L 116.261 127.015 C 118.378 126.298 120.496 125.478 122.611 124.568 C 124.956 123.559 126.039 120.84 125.03 118.495 C 124.022 116.151 121.303 115.068 118.958 116.076 C 106.869 121.278 96.042 122.663 86.341 119.245 C 76.637 115.826 67.089 107.257 58.306 90.45 C 58.062 89.984 57.75 89.576 57.388 89.233 C 56.807 88.611 56.046 88.141 55.16 87.914 C 40.502 84.157 33.48 77.485 30.897 71.139 C 28.311 64.784 29.684 57.581 34.259 51.582 C 38.828 45.591 46.433 41.087 55.608 40.5 C 64.068 39.959 74.204 42.739 84.726 51.388 C 83.834 53.271 82.997 55.246 82.216 57.309 C 71.769 54.761 59.716 57.216 53.511 66.522 C 52.095 68.646 52.669 71.515 54.792 72.932 C 56.916 74.348 59.786 73.774 61.202 71.65 C 65.066 65.854 74.542 63.744 83.328 67.362 C 84.52 67.852 85.862 67.823 87.031 67.282 C 88.2 66.74 89.09 65.735 89.486 64.509 C 94.116 50.182 100.841 41.514 108.634 37.433 C 116.319 33.41 126.031 33.335 137.867 38.335 C 139.353 38.963 141.059 38.77 142.368 37.828 Z" fill="black"/>
  <path d="M 151.102 78.592 L 129.516 108.698 C 128.707 109.815 128.085 109.567 128.085 108.264 L 128.085 86.351 L 115.892 86.351 C 114.523 86.351 114.088 85.482 114.897 84.365 L 136.483 54.259 C 137.292 53.141 137.914 53.389 137.914 54.693 L 137.914 76.605 L 150.107 76.605 C 151.413 76.667 151.849 77.537 151.102 78.592 Z" fill="black"/>
  <path d="M 87.448 162.804 C 86.232 162.804 85.252 163.367 84.534 164.258 C 83.837 165.122 83.381 166.293 83.104 167.592 C 82.549 170.197 82.656 173.593 83.31 176.938 C 83.964 180.287 85.185 183.678 86.937 186.257 C 88.682 188.825 91.061 190.732 94.037 190.732 L 120.49 190.831 L 166.217 190.831 C 169.193 190.831 171.573 188.924 173.317 186.356 C 175.069 183.776 176.29 180.385 176.944 177.037 C 177.598 173.692 177.705 170.295 177.15 167.69 C 176.873 166.391 176.418 165.22 175.721 164.356 C 175.002 163.465 174.023 162.903 172.806 162.903 L 140.17 162.903 L 87.448 162.804 Z" fill="black"/>
  <path d="M 177.428 240 C 184.703 240 190.373 237.702 194.149 233.966 C 197.925 230.23 199.698 225.161 199.355 219.851 C 198.666 209.207 189.574 197.856 171.662 193.428 L 86.653 193.428 C 68.741 197.856 59.562 209.207 58.873 219.851 C 58.53 225.161 60.303 230.23 64.079 233.966 C 67.855 237.702 73.525 240 80.8 240 L 177.428 240 Z" fill="black"/>
</svg>
