<?xml version="1.0" encoding="utf-8"?>
<svg width="256" height="256" viewBox="0 0 256 256" fill="none" xmlns="http://www.w3.org/2000/svg">
  <path fill-rule="evenodd" clip-rule="evenodd" d="M 163.306 49.311 C 163.275 48.761 163.232 48.166 163.171 47.533 C 162.853 44.214 162.049 39.677 160.046 35.056 C 158.029 30.405 154.745 25.558 149.445 21.895 C 144.118 18.213 137.148 16 128.24 16 C 119.337 16 112.414 18.212 107.176 21.939 C 101.962 25.648 98.845 30.553 97.007 35.238 C 95.183 39.887 94.566 44.442 94.385 47.761 C 94.361 48.212 94.344 48.643 94.333 49.053 C 75.419 55.933 54.32 69.249 50.933 71.901 C 47.545 74.552 45.341 77.534 44.368 83.211 C 43.394 88.888 43.111 114.483 48.083 139.934 C 48.207 140.565 48.438 141.169 48.767 141.721 C 57.793 156.858 64.996 165.043 77.218 177.184 C 84.089 200.342 87.524 212.2 99.171 233.884 C 99.91 235.072 101.068 235.939 102.416 236.314 C 121.078 241.503 134.807 241.254 155.692 235.308 C 157.026 234.929 158.171 234.066 158.903 232.889 C 165.6 222.128 167.983 213.892 171.229 205.125 C 174.312 196.797 177.411 186.79 179.049 176.906 C 191.634 165.172 198.397 156.613 207.689 142.418 C 208.068 141.839 208.336 141.195 208.479 140.518 C 213.487 116.871 212.532 106.995 210.876 83.211 C 210.378 76.071 206.996 73.591 202.918 70.612 C 198.84 67.633 180.994 57.101 163.306 49.311 Z M 105.391 52.349 C 105.68 54.952 104.118 57.406 101.635 58.248 C 82.61 64.698 59.512 79.092 57.092 83.211 C 54.672 87.329 52.202 127.614 57.092 137.178 C 61.982 146.742 73.721 158.207 86.021 170.366 C 86.761 171.098 87.281 172.021 87.524 173.033 C 94.333 195.758 103.835 224.675 107.323 226.121 C 110.812 227.567 144.846 229.46 150.565 226.121 C 156.283 222.782 167.783 186.001 168.394 174.233 C 168.47 172.773 169.116 171.401 170.193 170.412 C 182.816 158.828 196.913 142.178 199.259 137.178 C 201.606 132.178 202.215 89.805 199.259 83.67 C 196.304 77.536 174.015 66.244 155.332 58.076 C 153.169 57.131 151.836 54.929 151.999 52.576 C 152 51.87 151.994 49.859 151.873 48.591 C 151.627 46.024 151.016 42.714 149.617 39.488 C 148.232 36.292 146.126 33.291 142.911 31.069 C 139.723 28.866 135.052 27.155 128.058 27.155 C 121.059 27.155 116.503 28.867 113.469 31.025 C 110.411 33.201 108.462 36.143 107.221 39.306 C 105.966 42.504 105.493 45.796 105.353 48.363 C 105.284 49.629 105.361 51.641 105.391 52.349 Z" fill="black"/>
  <path fill-rule="evenodd" clip-rule="evenodd" d="M 132.718 38.48 C 132.718 38.48 133.121 49.341 128.791 49.341 C 124.462 49.341 124.543 38.48 124.543 38.48 C 124.543 38.48 110.448 42.612 110.448 52.576 L 110.448 60.304 C 110.448 60.304 116.799 60.899 117.593 63.278 C 118.387 65.657 117.494 70.612 113.128 70.612 C 108.761 70.612 107.571 62.981 107.571 62.981 C 107.571 62.981 88.102 70.561 87.604 72.455 C 87.296 73.621 96.39 77.97 97.515 78.61 C 98.64 79.251 105.334 84.732 105.334 87.915 C 107.571 88.412 109.569 91.131 109.909 92.689 C 110.249 94.247 109.388 102.428 102.708 102.428 C 96.028 102.428 94.492 96.97 94.492 94.778 C 94.492 92.586 96.051 88.511 96.488 88.511 C 96.926 88.511 98.098 90.135 98.28 91.661 C 98.582 94.187 98.979 97.309 102.708 97.165 C 106.955 97.002 105.334 90.401 105.334 87.915 C 101.554 88.213 95.801 83.211 95.801 83.211 C 95.801 83.211 85.16 77.242 81.87 77.143 C 78.58 77.043 74.99 78.637 74.891 80.531 C 74.846 81.385 76.932 83.415 79.784 86.192 C 83.254 89.57 87.859 94.053 91.142 98.866 C 97.124 107.635 101.113 117.2 101.113 128.76 C 101.113 129.459 101.113 130.138 101.114 130.797 C 101.125 141.032 101.131 146.397 98.321 146.397 C 96.123 146.397 96.025 140.209 95.929 134.199 C 95.895 132.031 95.861 129.885 95.729 128.062 C 95.23 121.186 93.834 113.414 90.544 106.837 C 87.254 100.26 73.993 84.018 68.909 84.018 C 63.824 84.018 62.129 90.097 62.129 101.257 C 62.129 112.417 65.12 114.709 70.005 114.709 C 74.891 114.709 77.583 111.321 77.882 108.332 C 78.181 105.343 76.387 99.463 77.882 98.866 C 79.378 98.268 81.471 104.745 81.471 109.029 C 81.471 113.314 76.885 119.094 71.302 119.094 C 69.198 119.094 67.519 118.938 66.173 118.813 C 63.949 118.607 62.637 118.486 61.83 119.293 C 60.534 120.589 62.827 137.23 67.014 140.618 C 71.202 144.005 89.846 164.333 93.036 172.006 C 94.448 175.401 95.001 178.971 95.498 182.182 C 96.125 186.228 96.663 189.704 98.72 191.537 C 100.56 193.178 102.326 193.876 103.993 194.535 C 105.667 195.196 107.241 195.819 108.69 197.316 C 111.581 200.306 113.376 209.673 113.376 211.367 C 113.388 212.933 111.881 214.61 110.086 213.958 C 108.291 213.305 108.898 211.557 108.092 208.377 C 107.548 206.232 106.823 203.796 105.899 202.1 C 104.378 199.309 101.013 197.616 99.916 198.114 C 98.819 198.612 106.496 219.936 108.69 221.132 C 110.883 222.328 121.851 222.727 122.449 222.128 C 122.602 221.975 122.755 221.601 122.948 221.127 C 123.51 219.751 124.411 217.545 126.636 217.545 C 128.733 217.545 129.752 219.552 130.448 220.924 C 130.745 221.509 130.984 221.98 131.223 222.128 C 132.021 222.627 145.58 224.321 149.668 218.641 C 153.755 212.961 164.723 177.985 163.227 176.49 C 161.732 174.996 148.372 177.686 142.09 182.668 C 135.809 187.651 135.311 189.544 133.516 189.544 C 131.721 189.544 130.325 189.444 130.325 187.352 C 130.325 185.259 132.769 182.956 136.308 180.476 C 139.695 178.102 142.589 175.01 142.589 173.401 C 142.589 171.701 137.705 163.945 132.22 159.55 C 129.634 157.479 127.301 156.76 125.44 156.262 C 123.616 155.774 121.851 155.764 121.851 153.97 C 121.851 152.176 122.549 150.881 126.238 150.881 C 129.927 150.881 134.405 152.459 139 157.657 C 141.632 160.636 147.574 171.109 150.565 171.109 C 153.556 171.109 161.532 169.914 164.424 167.921 C 167.315 165.928 191.942 137.13 192.639 135.635 C 193.337 134.14 194.633 124.674 193.537 123.976 C 192.995 123.632 192.038 123.847 190.679 124.153 C 189.29 124.466 187.479 124.873 185.261 124.873 C 180.875 124.873 174.195 120.19 174.195 113.613 C 174.195 109.627 177.983 102.195 179.578 102.552 C 181.174 102.91 179.58 108.249 179.533 110.571 C 179.517 111.382 179.501 112.193 179.578 112.916 C 179.878 115.706 182.27 119.692 186.657 119.692 C 191.044 119.692 195.032 116.204 195.032 112.617 C 195.032 109.029 192.673 108.332 190.679 108.332 C 188.685 108.332 186.657 105.542 186.657 101.257 C 186.657 98.749 188.38 96.766 190.581 95.788 C 192.14 95.096 193.69 94.407 194.434 93.186 C 196.229 90.239 191.642 84.317 189.15 84.317 C 186.657 84.317 179.279 90.993 173.497 98.567 C 167.714 106.14 163.227 124.076 163.227 129.457 L 163.227 143.707 C 163.227 145.899 162.33 148.091 159.538 147.991 C 156.746 147.892 155.749 145.5 155.749 143.906 C 155.749 142.312 156.159 124.674 157.046 119.692 C 157.932 114.709 163.128 101.257 165.62 97.371 C 166.856 95.443 170.067 91.378 173.793 87.877 C 177.579 84.319 181.074 81.035 181.074 80.232 C 181.074 78.637 180.675 77.441 177.784 77.441 C 175.654 77.441 171.307 80.144 168.248 82.046 C 167.154 82.727 166.224 83.305 165.62 83.62 C 165.148 83.865 164.462 84.17 163.636 84.537 C 160.448 85.953 155.19 88.287 152.26 91.691 C 150.075 94.229 148.555 99.248 147.368 103.168 C 146.55 105.866 145.99 109.14 145.381 109.627 C 144.131 110.626 133.317 109.328 129.827 110.225 C 126.337 111.122 126.679 111.625 123.945 113.398 C 122.095 114.599 120.543 115.606 119.657 115.606 C 117.464 115.606 116.068 114.709 116.068 112.617 C 116.068 110.524 118.7 107.797 123.546 105.442 C 126.115 104.193 131.981 104.586 134.812 104.545 C 136.751 104.518 138.465 104.493 139.559 104.088 C 141 103.555 141.527 98.115 143.41 94.208 C 145.043 90.817 146.75 87.272 148.372 85.513 C 150.024 83.667 153.518 79.77 157.046 78.239 C 159.53 77.16 162.198 76.558 164.355 76.071 C 166.885 75.5 168.711 75.088 168.711 74.253 C 168.711 71.562 159.638 67.846 154.852 67.846 C 152.199 67.846 148.963 68.872 146.378 71.861 C 145.074 73.369 144.782 75.175 144.782 78.61 C 144.782 82.046 141.122 85.513 137.006 85.513 C 132.888 85.513 129.681 82 128.63 80.531 C 127.833 79.434 127.235 75.21 128.032 74.552 C 128.83 73.893 132.991 79.733 136.108 79.733 C 139.225 79.733 140.994 76.868 140.994 74.552 C 140.994 72.235 138.302 71.562 138.302 68.872 C 138.302 66.181 146.577 63.69 146.577 53.626 C 146.577 43.562 132.718 38.48 132.718 38.48 Z M 94.732 166.625 C 94.732 161.942 98.174 158.753 99.869 159.55 C 100.491 159.843 99.964 160.738 99.869 162.463 C 99.706 165.439 99.489 169.403 102.708 170.412 C 105.852 171.398 108.195 168.269 110.092 165.737 C 111.263 164.174 111.565 162.463 112.479 162.463 C 114.872 162.463 110.884 175.793 105.001 175.793 C 99.119 175.793 94.732 171.309 94.732 166.625 Z" fill="black"/>
</svg>
