<?xml version="1.0" encoding="utf-8"?>
<svg width="256" height="256" viewBox="0 0 256 256" fill="none" xmlns="http://www.w3.org/2000/svg">
  <path fill-rule="evenodd" clip-rule="evenodd" d="M 177.807 130.29 C 177.807 122.062 171.052 115.264 162.781 115.264 C 154.596 115.264 147.798 122.062 147.798 130.29 C 147.798 138.518 154.596 145.273 162.781 145.273 C 171.052 145.273 177.807 138.518 177.807 130.29 Z M 155.982 130.29 C 155.982 126.479 159.013 123.492 162.781 123.492 C 166.635 123.492 169.623 126.479 169.623 130.29 C 169.623 134.101 166.635 137.132 162.781 137.132 C 159.013 137.132 155.982 134.101 155.982 130.29 Z" fill="black"/>
  <path d="M 117.356 119.378 C 116.403 115.74 105.058 113.965 93.886 113.965 C 82.8 113.965 71.888 115.74 71.888 119.378 C 71.888 141.202 82.627 160.515 110.081 148.477 C 119.261 144.407 121.08 133.408 117.356 119.378 Z" fill="black"/>
  <path fill-rule="evenodd" clip-rule="evenodd" d="M 236.882 16 L 19.118 16 L 19.118 240 L 236.882 240 L 236.882 16 Z M 134.201 187.926 L 134.201 29.057 C 153.211 30.364 170.489 40.709 183.436 57.177 C 197.25 74.819 205.954 99.415 205.954 126.653 C 205.954 153.89 197.25 178.486 183.436 196.111 C 170.489 212.566 153.211 222.872 134.201 224.214 L 134.201 196.111 C 143.901 195.721 152.734 193.772 160.009 190.178 C 168.367 186.194 174.732 179.872 177.59 171.601 L 169.839 168.96 C 167.761 174.892 163.257 179.482 156.415 182.817 C 150.526 185.674 142.905 187.45 134.201 187.926 Z M 50.081 133.927 C 50.081 112.536 57.083 32.512 125.973 29.468 L 125.973 140.38 L 108.262 168.483 L 125.973 164.023 L 125.973 177.577 L 118.742 177.577 L 118.742 188.013 L 112.333 188.013 L 112.333 177.577 L 104.149 177.577 L 104.149 188.013 L 97.826 188.013 L 97.826 177.577 L 89.642 177.577 L 89.642 188.013 L 81.934 188.013 L 81.934 196.197 L 89.642 196.197 L 89.642 206.633 L 97.826 206.633 L 97.826 196.197 L 104.149 196.197 L 104.149 206.633 L 112.333 206.633 L 112.333 196.197 L 118.742 196.197 L 118.742 206.633 L 125.973 206.633 L 125.973 224.127 C 110.86 224.734 79.163 223.261 79.163 216.636 L 71.888 155.752 C 71.232 149.024 66.01 147.134 60.842 145.263 C 55.432 143.305 50.081 141.368 50.081 133.927 Z" fill="black"/>
</svg>
