<?xml version="1.0" encoding="utf-8"?>
<svg width="256" height="256" viewBox="0 0 256 256" fill="none" xmlns="http://www.w3.org/2000/svg">
  <path d="M 127.211 19.704 C 128.719 17.393 131.291 16 134.05 16 L 176.843 16 C 181.353 16 185.008 19.656 185.008 24.165 C 185.008 28.674 181.353 32.33 176.843 32.33 L 138.473 32.33 L 124.864 53.193 L 160.485 99.226 L 191.009 99.226 C 195.519 99.226 199.174 102.881 199.174 107.391 C 199.174 111.9 195.519 115.556 191.009 115.556 L 156.48 115.556 C 153.953 115.556 151.568 114.386 150.022 112.387 L 131.888 88.953 L 107.454 105.035 L 134.274 131.482 C 135.817 133.004 136.692 135.076 136.706 137.244 C 136.72 139.411 135.871 141.495 134.348 143.037 L 100.113 177.665 C 96.943 180.872 91.773 180.901 88.566 177.731 C 85.359 174.56 85.33 169.39 88.5 166.184 L 116.987 137.37 L 86.375 106.919 L 34.769 176.87 C 32.092 180.499 26.98 181.27 23.351 178.594 C 19.723 175.917 18.951 170.804 21.628 167.176 L 83.388 83.461 C 86.504 79.178 89.609 74.769 92.641 70.465 C 97.435 63.66 102.251 56.822 107.489 49.938 L 127.211 19.704 Z" fill="black"/>
  <path d="M 180.483 62.138 C 180.483 72.352 172.203 80.632 161.988 80.632 C 151.774 80.632 143.494 72.352 143.494 62.138 C 143.494 51.924 151.774 43.643 161.988 43.643 C 172.203 43.643 180.483 51.924 180.483 62.138 Z" fill="black"/>
  <path d="M 199.295 129.443 C 200.255 128.508 201.464 127.986 202.703 127.874 L 228.982 127.852 C 229.224 127.852 229.459 127.942 229.639 128.104 C 231.119 129.434 232.167 130.508 233.057 131.705 C 233.945 132.902 234.651 134.188 235.476 135.914 C 235.476 135.914 235.966 137.923 235.966 138.674 L 235.966 212.849 C 235.966 214.309 235.397 215.712 234.379 216.758 L 213.425 238.303 C 211.266 240.522 207.716 240.571 205.496 238.412 C 203.276 236.254 203.226 232.704 205.385 230.483 L 224.752 210.572 L 224.752 184.713 L 209.881 184.713 L 159.07 235.599 C 156.882 237.791 153.332 237.794 151.14 235.606 C 148.949 233.418 148.946 229.867 151.134 227.676 L 202.327 176.406 C 202.649 163.608 202.702 153.935 202.388 142.087 L 168.951 174.662 C 166.733 176.823 163.183 176.776 161.022 174.558 C 158.861 172.34 158.907 168.79 161.125 166.629 L 199.295 129.443 Z" fill="black"/>
  <path d="M 206.862 118.776 C 206.093 118.007 206.093 116.762 206.862 115.993 L 213.952 108.903 L 206.271 101.221 C 205.503 100.453 205.503 99.207 206.271 98.439 L 209.307 95.402 C 210.076 94.634 211.322 94.634 212.09 95.402 L 219.771 103.083 L 227.452 95.403 C 228.22 94.635 229.466 94.635 230.234 95.403 L 233.27 98.44 C 234.039 99.207 234.039 100.453 233.27 101.222 L 225.59 108.903 L 232.68 115.993 C 233.448 116.761 233.448 118.006 232.68 118.775 L 229.644 121.811 C 228.876 122.58 227.63 122.58 226.861 121.811 L 219.771 114.721 L 212.68 121.812 C 211.912 122.581 210.666 122.581 209.898 121.812 L 206.862 118.776 Z" fill="black"/>
</svg>
