<?xml version="1.0" encoding="utf-8"?>
<svg width="256" height="256" viewBox="0 0 256 256" fill="none" xmlns="http://www.w3.org/2000/svg">
  <path d="M 196.813 81.552 C 197.122 80.997 197.187 80.369 197.129 79.762 C 197.071 79.153 196.884 78.502 196.615 77.835 C 196.077 76.502 195.151 74.961 193.972 73.326 C 191.608 70.048 188.115 66.242 184.283 62.73 C 180.452 59.219 176.24 55.963 172.424 53.809 C 170.517 52.732 168.674 51.911 167.002 51.482 C 165.347 51.056 163.739 50.985 162.394 51.569 C 161.877 51.794 161.684 52.264 161.654 52.634 C 161.628 52.949 161.706 53.254 161.781 53.482 C 161.938 53.961 162.24 54.545 162.598 55.168 C 163.188 56.193 164.041 57.505 164.982 58.952 L 164.982 58.953 C 165.066 59.081 165.15 59.211 165.234 59.341 C 165.372 59.552 165.51 59.766 165.65 59.982 C 168.096 63.76 170.867 68.217 171.861 71.719 C 172.467 73.854 174.202 75.833 176.323 77.501 C 178.469 79.187 181.132 80.651 183.798 81.72 C 186.457 82.787 189.182 83.487 191.457 83.599 C 192.593 83.655 193.669 83.567 194.584 83.267 C 195.509 82.965 196.327 82.425 196.813 81.552 Z" fill="black"/>
  <path d="M 69.427 163.091 C 73.136 162.454 78.264 163.885 79.453 165.075 C 82.568 168.19 84.002 173.438 84.913 177.386 C 85.463 179.768 85.31 186.061 83.389 187.553 C 83.092 187.784 82.727 187.842 82.374 187.816 C 82.023 187.789 81.638 187.677 81.24 187.511 C 81.067 187.44 80.887 187.371 80.701 187.3 C 80.7 187.3 80.699 187.3 80.698 187.299 C 80.698 187.299 80.697 187.299 80.697 187.299 C 80.697 187.299 80.696 187.299 80.696 187.299 C 80.019 187.041 79.253 186.749 78.444 186.163 C 77.318 185.345 76.034 183.415 74.719 181.439 L 74.719 181.438 C 73.613 179.776 72.485 178.082 71.412 176.989 C 70.269 175.825 69.183 175.338 68.188 174.892 C 67.136 174.42 66.184 173.993 65.373 172.86 C 64.586 171.76 63.951 170.737 63.55 169.865 C 63.349 169.43 63.201 169.018 63.124 168.643 C 63.048 168.273 63.033 167.898 63.148 167.564 C 63.505 166.526 64.53 165.561 65.842 164.792 C 66.194 164.587 66.48 164.393 66.745 164.214 C 66.745 164.214 66.745 164.214 66.745 164.214 L 66.745 164.213 C 67.484 163.714 68.059 163.325 69.427 163.091 Z" fill="black"/>
  <path d="M 42.648 33.082 C 41.789 40.522 37.442 46.132 32.939 45.612 C 28.435 45.092 25.48 38.64 26.339 31.2 C 27.198 23.76 31.544 18.15 36.048 18.67 C 40.552 19.189 43.506 25.642 42.648 33.082 Z" fill="black"/>
  <path d="M 239.792 193.114 C 239.14 201.179 235.289 207.447 231.189 207.115 C 227.09 206.784 224.296 199.978 224.947 191.915 C 225.599 183.851 229.451 177.582 233.55 177.914 C 237.649 178.245 240.444 185.051 239.792 193.114 Z" fill="black"/>
  <path d="M 146.007 47.686 C 146.265 46.028 145.197 44.67 143.443 43.668 C 141.678 42.66 139.079 41.92 135.896 41.496 C 129.519 40.648 120.643 41.053 110.989 43.307 C 91.682 47.813 69.142 59.745 57.216 84.022 C 48.576 101.61 47.858 121.133 49.988 135.894 C 51.053 143.275 52.834 149.489 54.71 153.696 C 55.645 155.794 56.618 157.425 57.56 158.45 C 58.031 158.962 58.518 159.351 59.017 159.557 C 59.531 159.768 60.066 159.787 60.564 159.535 C 61.759 158.932 62.422 157.865 62.719 156.631 C 63.014 155.409 62.959 153.997 62.713 152.613 C 62.466 151.223 62.02 149.831 61.503 148.632 C 60.989 147.44 60.39 146.407 59.821 145.757 C 58.182 143.884 57.581 141.185 57.81 138.824 C 57.924 137.648 58.242 136.586 58.714 135.775 C 59.187 134.964 59.791 134.44 60.472 134.253 C 61.063 134.091 61.634 134.289 62.409 135.047 C 63.194 135.816 64.067 137.043 65.235 138.686 C 67.551 141.946 70.902 146.656 76.684 151.911 C 76.686 151.913 76.687 151.914 76.689 151.916 C 76.692 151.918 76.694 151.92 76.697 151.922 C 78.948 153.83 82.783 156.319 86.708 158.721 C 89.506 160.433 92.369 162.112 94.765 163.517 L 94.768 163.519 C 95.738 164.088 96.632 164.612 97.413 165.075 C 98.152 165.512 98.865 165.938 99.556 166.349 L 99.565 166.354 C 103.024 168.416 105.911 170.136 108.559 171.396 C 111.751 172.913 114.634 173.78 117.818 173.78 C 128.147 173.78 136.698 169.22 143.039 163.63 C 149.374 158.047 153.544 151.403 155.113 147.149 C 159.632 134.899 157.08 126.484 152.836 121.646 C 150.725 119.24 148.204 117.73 145.961 117.086 C 144.84 116.765 143.771 116.655 142.848 116.771 C 141.927 116.887 141.114 117.235 140.572 117.865 C 139.48 119.133 139.87 120.681 140.609 122.254 C 140.97 123.023 141.443 123.856 141.943 124.738 L 142.013 124.86 C 142.543 125.795 143.106 126.794 143.63 127.873 C 144.676 130.029 145.552 132.482 145.655 135.28 C 145.758 138.072 145.092 141.244 143.001 144.842 C 140.901 148.455 138.587 150.747 136.232 152.167 C 133.879 153.588 131.458 154.154 129.122 154.274 C 126.78 154.396 124.527 154.069 122.508 153.705 C 122.103 153.631 121.704 153.556 121.315 153.482 L 121.314 153.482 C 119.797 153.195 118.415 152.933 117.322 152.933 C 115.189 152.933 113.87 153.994 112.728 154.916 C 111.569 155.852 110.623 156.61 109.116 156.512 C 108.56 156.476 107.778 156.255 106.801 155.842 C 105.833 155.433 104.708 154.851 103.475 154.124 C 101.01 152.67 98.141 150.651 95.281 148.321 C 89.543 143.645 83.924 137.782 81.64 132.777 C 78.427 125.735 81.324 118.55 83.887 112.195 L 83.964 112.004 C 85.235 108.851 86.421 105.869 86.563 103.306 C 86.636 102.007 86.444 100.786 85.843 99.689 C 85.241 98.59 84.253 97.66 82.808 96.905 C 81.024 95.973 79.365 96.225 77.842 97.001 C 76.415 97.729 75.064 98.94 73.788 100.085 L 73.622 100.235 C 72.265 101.45 70.995 102.561 69.709 103.119 C 69.078 103.394 68.462 103.526 67.846 103.477 C 67.234 103.429 66.586 103.2 65.893 102.7 C 65.27 102.25 64.886 101.551 64.737 100.606 C 64.587 99.653 64.68 98.477 64.996 97.141 C 65.627 94.47 67.118 91.277 69.073 88.203 C 71.027 85.131 73.424 82.21 75.842 80.076 C 78.284 77.921 80.655 76.65 82.566 76.696 C 83.523 76.719 84.236 76.996 84.788 77.441 C 85.348 77.893 85.779 78.546 86.116 79.373 C 86.776 80.987 87.034 83.125 87.305 85.369 L 87.335 85.617 C 87.611 87.904 87.918 90.291 88.759 92.1 C 89.185 93.016 89.76 93.813 90.561 94.379 C 91.368 94.949 92.368 95.26 93.597 95.26 C 95.26 95.26 96.637 94.847 97.781 94.081 C 98.92 93.317 99.796 92.224 100.493 90.909 C 101.878 88.298 102.609 84.717 103.274 80.838 C 103.393 80.144 103.509 79.439 103.628 78.726 L 103.629 78.722 L 103.63 78.716 L 103.63 78.713 L 103.63 78.712 L 103.63 78.71 C 104.177 75.416 104.751 71.962 105.668 68.637 C 106.783 64.592 108.396 60.788 111.045 57.765 C 113.059 55.467 116.121 54.049 119.67 53.145 C 123.214 52.242 127.182 51.866 130.95 51.605 C 131.783 51.548 132.609 51.496 133.418 51.445 C 136.243 51.267 138.87 51.102 140.955 50.753 C 142.296 50.528 143.463 50.221 144.335 49.758 C 145.216 49.291 145.86 48.629 146.007 47.686 Z" fill="black"/>
  <path fill-rule="evenodd" clip-rule="evenodd" d="M 146.007 47.686 C 146.265 46.028 145.197 44.67 143.443 43.668 C 141.678 42.66 139.079 41.92 135.896 41.496 C 129.519 40.648 120.643 41.053 110.989 43.307 C 91.682 47.813 69.142 59.745 57.216 84.022 C 48.576 101.61 47.858 121.133 49.988 135.894 C 51.053 143.275 52.834 149.489 54.71 153.696 C 55.645 155.794 56.618 157.425 57.56 158.45 C 58.031 158.962 58.518 159.351 59.017 159.557 C 59.531 159.768 60.066 159.787 60.564 159.535 C 61.759 158.932 62.422 157.865 62.719 156.631 C 63.014 155.409 62.959 153.997 62.713 152.613 C 62.466 151.223 62.02 149.831 61.503 148.632 C 60.989 147.44 60.39 146.407 59.821 145.757 C 58.182 143.884 57.581 141.185 57.81 138.824 C 57.924 137.648 58.242 136.586 58.714 135.775 C 59.187 134.964 59.791 134.44 60.472 134.253 C 61.063 134.091 61.634 134.289 62.409 135.047 C 63.194 135.816 64.067 137.043 65.235 138.686 C 67.551 141.946 70.902 146.656 76.684 151.911 C 76.686 151.913 76.687 151.914 76.689 151.916 C 76.692 151.918 76.694 151.92 76.697 151.922 C 78.948 153.83 82.783 156.319 86.708 158.721 C 89.506 160.433 92.369 162.112 94.765 163.517 L 94.768 163.519 C 95.738 164.088 96.632 164.612 97.413 165.075 C 98.152 165.512 98.865 165.938 99.556 166.349 L 99.565 166.354 C 103.024 168.416 105.911 170.136 108.559 171.396 C 111.751 172.913 114.634 173.78 117.818 173.78 C 128.147 173.78 136.698 169.22 143.039 163.63 C 149.374 158.047 153.544 151.403 155.113 147.149 C 159.632 134.899 157.08 126.484 152.836 121.646 C 150.725 119.24 148.204 117.73 145.961 117.086 C 144.84 116.765 143.771 116.655 142.848 116.771 C 141.927 116.887 141.114 117.235 140.572 117.865 C 139.48 119.133 139.87 120.681 140.609 122.254 C 140.97 123.023 141.443 123.856 141.943 124.738 L 142.013 124.86 C 142.543 125.795 143.106 126.794 143.63 127.873 C 144.676 130.029 145.552 132.482 145.655 135.28 C 145.758 138.072 145.092 141.244 143.001 144.842 C 140.901 148.455 138.587 150.747 136.232 152.167 C 133.879 153.588 131.458 154.154 129.122 154.274 C 126.78 154.396 124.527 154.069 122.508 153.705 C 122.103 153.631 121.704 153.556 121.315 153.482 L 121.314 153.482 C 119.797 153.195 118.415 152.933 117.322 152.933 C 115.189 152.933 113.87 153.994 112.728 154.916 C 111.569 155.852 110.623 156.61 109.116 156.512 C 108.56 156.476 107.778 156.255 106.801 155.842 C 105.833 155.433 104.708 154.851 103.475 154.124 C 101.01 152.67 98.141 150.651 95.281 148.321 C 89.543 143.645 83.924 137.782 81.64 132.777 C 78.427 125.735 81.324 118.55 83.887 112.195 L 83.964 112.004 C 85.235 108.851 86.421 105.869 86.563 103.306 C 86.636 102.007 86.444 100.786 85.843 99.689 C 85.241 98.59 84.253 97.66 82.808 96.905 C 81.024 95.973 79.365 96.225 77.842 97.001 C 76.415 97.729 75.064 98.94 73.788 100.085 L 73.622 100.235 C 72.265 101.45 70.995 102.561 69.709 103.119 C 69.078 103.394 68.462 103.526 67.846 103.477 C 67.234 103.429 66.586 103.2 65.893 102.7 C 65.27 102.25 64.886 101.551 64.737 100.606 C 64.587 99.653 64.68 98.477 64.996 97.141 C 65.627 94.47 67.118 91.277 69.073 88.203 C 71.027 85.131 73.424 82.21 75.842 80.076 C 78.284 77.921 80.655 76.65 82.566 76.696 C 83.523 76.719 84.236 76.996 84.788 77.441 C 85.348 77.893 85.779 78.546 86.116 79.373 C 86.776 80.987 87.034 83.125 87.305 85.369 L 87.335 85.617 C 87.611 87.904 87.918 90.291 88.759 92.1 C 89.185 93.016 89.76 93.813 90.561 94.379 C 91.368 94.949 92.368 95.26 93.597 95.26 C 95.26 95.26 96.637 94.847 97.781 94.081 C 98.92 93.317 99.796 92.224 100.493 90.909 C 101.878 88.298 102.609 84.717 103.274 80.838 C 103.393 80.144 103.509 79.439 103.628 78.726 L 103.629 78.722 L 103.63 78.716 L 103.63 78.713 L 103.63 78.712 L 103.63 78.71 C 104.177 75.416 104.751 71.962 105.668 68.637 C 106.783 64.592 108.396 60.788 111.045 57.765 C 113.059 55.467 116.121 54.049 119.67 53.145 C 123.214 52.242 127.182 51.866 130.95 51.605 C 131.783 51.548 132.609 51.496 133.418 51.445 C 136.243 51.267 138.87 51.102 140.955 50.753 C 142.296 50.528 143.463 50.221 144.335 49.758 C 145.216 49.291 145.86 48.629 146.007 47.686 Z M 197.129 79.762 C 197.187 80.369 197.122 80.997 196.813 81.552 C 196.327 82.425 195.509 82.965 194.584 83.267 C 193.669 83.567 192.593 83.655 191.457 83.599 C 189.182 83.487 186.457 82.787 183.798 81.72 C 181.132 80.651 178.469 79.187 176.323 77.501 C 174.202 75.833 172.467 73.854 171.861 71.719 C 170.867 68.217 168.096 63.76 165.65 59.982 C 165.51 59.766 165.372 59.552 165.234 59.341 C 165.15 59.211 165.066 59.081 164.982 58.953 L 164.982 58.952 C 164.041 57.505 163.188 56.193 162.598 55.168 C 162.24 54.545 161.938 53.961 161.781 53.482 C 161.706 53.254 161.628 52.949 161.654 52.634 C 161.684 52.264 161.877 51.794 162.394 51.569 C 163.739 50.985 165.347 51.056 167.002 51.482 C 168.674 51.911 170.517 52.732 172.424 53.809 C 176.24 55.963 180.452 59.219 184.283 62.73 C 188.115 66.242 191.608 70.048 193.972 73.326 C 195.151 74.961 196.077 76.502 196.615 77.835 C 196.884 78.502 197.071 79.153 197.129 79.762 Z M 79.453 165.075 C 78.264 163.885 73.136 162.454 69.427 163.091 C 68.059 163.325 67.484 163.714 66.745 164.213 L 66.745 164.214 C 66.48 164.393 66.194 164.587 65.842 164.792 C 64.53 165.561 63.505 166.526 63.148 167.564 C 63.033 167.898 63.048 168.273 63.124 168.643 C 63.201 169.018 63.349 169.43 63.55 169.865 C 63.951 170.737 64.586 171.76 65.373 172.86 C 66.184 173.993 67.136 174.42 68.188 174.892 C 69.183 175.338 70.269 175.825 71.412 176.989 C 72.485 178.082 73.613 179.776 74.719 181.438 L 74.719 181.439 C 76.034 183.415 77.318 185.345 78.444 186.163 C 79.253 186.749 80.019 187.041 80.696 187.299 L 80.697 187.299 C 80.697 187.299 80.698 187.299 80.698 187.299 C 80.699 187.3 80.7 187.3 80.701 187.3 C 80.887 187.371 81.067 187.44 81.24 187.511 C 81.638 187.677 82.023 187.789 82.374 187.816 C 82.727 187.842 83.092 187.784 83.389 187.553 C 85.31 186.061 85.463 179.768 84.913 177.386 C 84.002 173.438 82.568 168.19 79.453 165.075 Z" fill="black"/>
  <path d="M 108.402 125.554 C 110.634 129.85 115.125 132.785 120.301 132.785 C 127.703 132.785 133.703 126.785 133.703 119.383 C 133.703 111.982 127.703 105.982 120.301 105.982 C 117.465 105.982 114.834 106.863 112.667 108.367 C 111.688 108.12 110.935 107.642 110.516 106.843 C 110.319 106.467 110.209 105.801 110.263 104.853 C 110.317 103.922 110.524 102.781 110.895 101.503 C 111.637 98.949 113.022 95.894 115.077 92.954 C 119.185 87.075 125.925 81.715 135.494 81.667 C 139.188 81.648 141.615 82.484 143.321 83.742 C 145.033 85.004 147.261 89.588 148.112 91.462 C 148.497 92.412 148.899 93.355 149.378 94.226 C 150.34 95.978 151.634 97.474 153.794 98.212 C 161.314 100.783 168.582 108.743 173.986 118.154 C 179.383 127.552 182.842 138.262 182.842 146.187 C 182.842 149.301 182.188 151.555 181.185 153.271 C 180.181 154.988 178.806 156.203 177.305 157.205 C 176.343 157.847 172.7 159.864 172.7 159.864 C 171.233 160.73 169.879 161.702 169.018 163.101 C 167.799 165.081 166.804 169.509 166.804 169.509 C 166.382 171.547 165.797 174.369 164.908 176.532 C 162.937 181.324 158.688 186.518 147.104 191.595 C 137.449 195.827 127.318 195.126 119.507 194.477 C 115.924 194.177 112.131 193.86 109.885 194.194 C 108.684 194.373 107.656 194.731 106.926 195.407 C 106.178 196.099 105.808 197.064 105.808 198.31 C 105.808 199.077 106.321 199.737 107.041 200.279 C 107.776 200.831 108.823 201.338 110.118 201.785 C 112.713 202.681 116.405 203.377 120.851 203.691 C 129.749 204.318 141.75 203.422 154.204 199.472 C 166.592 195.543 186.972 183.595 198.042 167.514 C 208.005 153.042 211.315 133.791 210.728 118.366 C 210.435 110.651 209.165 103.855 207.239 99.063 C 206.278 96.669 205.139 94.743 203.849 93.456 C 202.553 92.163 201.067 91.484 199.455 91.697 C 197.821 91.913 196.807 92.841 196.234 94.172 C 195.678 95.464 195.531 97.137 195.547 98.917 C 195.561 100.409 195.692 102.029 195.821 103.628 C 195.97 105.542 196.158 108.33 196.047 109.918 C 195.877 112.335 194.794 113.832 193.393 114.742 C 191.969 115.668 190.179 116.008 188.6 116.008 C 187.933 116.008 187.395 115.862 186.937 115.6 C 186.476 115.337 186.071 114.941 185.695 114.403 C 184.929 113.31 184.334 111.716 183.629 109.686 C 182.265 105.734 180.228 99.836 176.088 94.461 C 170.441 87.13 165.394 80.753 156.791 77.919 C 154.519 77.171 153.43 75.822 152.736 74.178 C 152.382 73.34 151.31 69.462 151.062 68.494 C 150.389 66.495 149.326 64.544 147.028 63.111 C 144.749 61.69 141.317 60.816 135.987 60.813 C 130.672 60.811 125.053 63.78 119.954 68.413 C 114.843 73.056 110.194 79.423 106.813 86.341 C 103.434 93.258 101.307 100.757 101.274 107.67 C 101.241 114.588 103.308 120.952 108.354 125.516 C 108.359 125.52 108.364 125.525 108.37 125.53 C 108.377 125.535 108.383 125.54 108.39 125.546 C 108.394 125.549 108.398 125.551 108.402 125.554 Z" fill="black"/>
  <path fill-rule="evenodd" clip-rule="evenodd" d="M 76.831 16.383 C 74.151 15.091 70.042 17.338 67.698 19.08 C 65.362 20.816 63.184 23.224 61.155 25.977 C 60.734 26.547 60.31 27.109 59.882 27.666 C 59.26 28.477 58.632 29.277 58.003 30.078 L 57.97 30.12 C 54.871 34.069 51.756 38.038 49.269 43.273 C 48.026 45.886 46.842 48.459 45.707 50.924 C 43.742 55.19 41.91 59.169 40.21 62.42 C 38.87 64.984 37.684 66.953 36.651 68.225 C 36.133 68.862 35.667 69.495 35.306 69.495 C 34.845 69.421 34.569 69.263 34.371 69.088 C 34.245 68.977 33.657 67.959 33.657 67.959 C 33.166 66.727 32.956 64.858 32.741 62.761 C 32.552 60.908 32.32 58.644 31.56 56.85 C 31.427 56.535 31.272 56.22 31.09 55.912 C 30.703 55.259 30.195 54.638 29.516 54.134 C 28.492 53.374 27.263 53.014 25.905 53.014 C 22.476 53.014 20.04 54.901 18.534 57.687 C 17.101 60.338 16.428 63.897 16.203 67.817 C 15.751 75.709 17.071 86.083 19.085 96.329 C 21.108 106.613 23.863 116.938 26.368 124.801 C 27.619 128.728 28.819 132.079 29.847 134.519 C 30.358 135.731 31.593 137.883 32.048 138.674 C 32.261 138.935 32.724 139.464 33.441 139.734 C 33.689 139.827 34.222 139.863 34.478 139.868 C 42.573 184.859 81.924 218.995 129.246 218.995 C 138.91 218.995 148.242 217.571 157.042 214.921 L 157.042 219.367 C 155.351 220.36 151.452 222.724 149.438 224.38 C 147.481 225.989 145.457 228.03 144.49 230.324 C 143.987 231.517 143.729 232.876 144.014 234.297 C 144.301 235.731 145.095 236.994 146.282 238.063 C 148.28 239.86 150.799 240.246 153.3 239.868 C 155.75 239.497 158.384 238.377 161.028 236.884 C 166.331 233.89 172.303 229.032 177.963 224.023 C 179.697 222.489 181.43 220.917 183.124 219.359 C 184.588 218.011 186.022 216.675 187.401 215.391 C 189.31 213.613 191.881 211.219 193.485 209.764 C 195.671 207.783 197.521 206.184 198.959 205.114 C 199.682 204.576 200.431 204.129 200.825 203.928 L 201.014 203.928 L 201.071 204.126 C 201.08 204.354 201.068 204.828 200.984 205.257 C 200.675 206.829 199.815 208.83 198.786 211.225 L 198.186 212.627 C 197.007 215.405 195.69 218.701 195.609 221.582 C 195.567 223.09 195.852 224.692 196.846 226.08 C 197.853 227.482 199.378 228.377 201.255 228.85 C 202.507 229.167 203.744 228.919 204.815 228.463 C 205.89 228.003 206.948 227.275 207.968 226.384 C 210.01 224.602 212.178 221.931 214.326 218.577 C 218.638 211.847 221.228 201.537 223.455 189.324 C 227.667 166.223 231.637 136.074 223.455 101.854 C 212.47 55.912 175.684 26.805 129.643 26.805 C 118.615 26.805 103.752 27.872 94.104 31.867 C 84.276 35.937 78.185 33.863 77.824 31.073 C 77.516 28.701 77.594 28.48 78.088 27.07 L 78.104 27.023 C 78.925 24.556 79.778 21.99 79.214 19.957 C 78.891 18.796 78.342 17.112 76.831 16.383 Z M 129.842 210.656 C 177.869 210.656 216.804 171.722 216.804 123.694 C 216.804 75.666 177.869 36.732 129.842 36.732 C 81.814 36.732 42.88 75.666 42.88 123.694 C 42.88 171.722 81.814 210.656 129.842 210.656 Z" fill="black"/>
  <path fill-rule="evenodd" clip-rule="evenodd" d="M 146.007 47.686 C 146.265 46.028 145.197 44.67 143.443 43.668 C 141.678 42.66 139.079 41.92 135.896 41.496 C 129.519 40.648 120.643 41.053 110.989 43.307 C 91.682 47.813 69.142 59.745 57.216 84.022 C 48.576 101.61 47.858 121.133 49.988 135.894 C 51.053 143.275 52.834 149.489 54.71 153.696 C 55.645 155.794 56.618 157.425 57.56 158.45 C 58.031 158.962 58.518 159.351 59.017 159.557 C 59.531 159.768 60.066 159.787 60.564 159.535 C 61.759 158.932 62.422 157.865 62.719 156.631 C 63.014 155.409 62.959 153.997 62.713 152.613 C 62.466 151.223 62.02 149.831 61.503 148.632 C 60.989 147.44 60.39 146.407 59.821 145.757 C 58.182 143.884 57.581 141.185 57.81 138.824 C 57.924 137.648 58.242 136.586 58.714 135.775 C 59.187 134.964 59.791 134.44 60.472 134.253 C 61.063 134.091 61.634 134.289 62.409 135.047 C 63.194 135.816 64.067 137.043 65.235 138.686 C 67.551 141.946 70.902 146.656 76.684 151.911 C 76.686 151.913 76.687 151.914 76.689 151.916 C 76.692 151.918 76.694 151.92 76.697 151.922 C 78.948 153.83 82.783 156.319 86.708 158.721 C 89.506 160.433 92.369 162.112 94.765 163.517 L 94.768 163.519 C 95.738 164.088 96.632 164.612 97.413 165.075 C 98.152 165.512 98.865 165.938 99.556 166.349 L 99.565 166.354 C 103.024 168.416 105.911 170.136 108.559 171.396 C 111.751 172.913 114.634 173.78 117.818 173.78 C 128.147 173.78 136.698 169.22 143.039 163.63 C 149.374 158.047 153.544 151.403 155.113 147.149 C 159.632 134.899 157.08 126.484 152.836 121.646 C 150.725 119.24 148.204 117.73 145.961 117.086 C 144.84 116.765 143.771 116.655 142.848 116.771 C 141.927 116.887 141.114 117.235 140.572 117.865 C 139.48 119.133 139.87 120.681 140.609 122.254 C 140.97 123.023 141.443 123.856 141.943 124.738 L 142.013 124.86 C 142.543 125.795 143.106 126.794 143.63 127.873 C 144.676 130.029 145.552 132.482 145.655 135.28 C 145.758 138.072 145.092 141.244 143.001 144.842 C 140.901 148.455 138.587 150.747 136.232 152.167 C 133.879 153.588 131.458 154.154 129.122 154.274 C 126.78 154.396 124.527 154.069 122.508 153.705 C 122.103 153.631 121.704 153.556 121.315 153.482 L 121.314 153.482 C 119.797 153.195 118.415 152.933 117.322 152.933 C 115.189 152.933 113.87 153.994 112.728 154.916 C 111.569 155.852 110.623 156.61 109.116 156.512 C 108.56 156.476 107.778 156.255 106.801 155.842 C 105.833 155.433 104.708 154.851 103.475 154.124 C 101.01 152.67 98.141 150.651 95.281 148.321 C 89.543 143.645 83.924 137.782 81.64 132.777 C 78.427 125.735 81.324 118.55 83.887 112.195 L 83.964 112.004 C 85.235 108.851 86.421 105.869 86.563 103.306 C 86.636 102.007 86.444 100.786 85.843 99.689 C 85.241 98.59 84.253 97.66 82.808 96.905 C 81.024 95.973 79.365 96.225 77.842 97.001 C 76.415 97.729 75.064 98.94 73.788 100.085 L 73.622 100.235 C 72.265 101.45 70.995 102.561 69.709 103.119 C 69.078 103.394 68.462 103.526 67.846 103.477 C 67.234 103.429 66.586 103.2 65.893 102.7 C 65.27 102.25 64.886 101.551 64.737 100.606 C 64.587 99.653 64.68 98.477 64.996 97.141 C 65.627 94.47 67.118 91.277 69.073 88.203 C 71.027 85.131 73.424 82.21 75.842 80.076 C 78.284 77.921 80.655 76.65 82.566 76.696 C 83.523 76.719 84.236 76.996 84.788 77.441 C 85.348 77.893 85.779 78.546 86.116 79.373 C 86.776 80.987 87.034 83.125 87.305 85.369 L 87.335 85.617 C 87.611 87.904 87.918 90.291 88.759 92.1 C 89.185 93.016 89.76 93.813 90.561 94.379 C 91.368 94.949 92.368 95.26 93.597 95.26 C 95.26 95.26 96.637 94.847 97.781 94.081 C 98.92 93.317 99.796 92.224 100.493 90.909 C 101.878 88.298 102.609 84.717 103.274 80.838 C 103.393 80.144 103.509 79.439 103.628 78.726 L 103.629 78.722 L 103.63 78.716 L 103.63 78.713 L 103.63 78.712 L 103.63 78.71 C 104.177 75.416 104.751 71.962 105.668 68.637 C 106.783 64.592 108.396 60.788 111.045 57.765 C 113.059 55.467 116.121 54.049 119.67 53.145 C 123.214 52.242 127.182 51.866 130.95 51.605 C 131.783 51.548 132.609 51.496 133.418 51.445 C 136.243 51.267 138.87 51.102 140.955 50.753 C 142.296 50.528 143.463 50.221 144.335 49.758 C 145.216 49.291 145.86 48.629 146.007 47.686 Z M 197.129 79.762 C 197.187 80.369 197.122 80.997 196.813 81.552 C 196.327 82.425 195.509 82.965 194.584 83.267 C 193.669 83.567 192.593 83.655 191.457 83.599 C 189.182 83.487 186.457 82.787 183.798 81.72 C 181.132 80.651 178.469 79.187 176.323 77.501 C 174.202 75.833 172.467 73.854 171.861 71.719 C 170.867 68.217 168.096 63.76 165.65 59.982 C 165.51 59.766 165.372 59.552 165.234 59.341 C 165.15 59.211 165.066 59.081 164.982 58.953 L 164.982 58.952 C 164.041 57.505 163.188 56.193 162.598 55.168 C 162.24 54.545 161.938 53.961 161.781 53.482 C 161.706 53.254 161.628 52.949 161.654 52.634 C 161.684 52.264 161.877 51.794 162.394 51.569 C 163.739 50.985 165.347 51.056 167.002 51.482 C 168.674 51.911 170.517 52.732 172.424 53.809 C 176.24 55.963 180.452 59.219 184.283 62.73 C 188.115 66.242 191.608 70.048 193.972 73.326 C 195.151 74.961 196.077 76.502 196.615 77.835 C 196.884 78.502 197.071 79.153 197.129 79.762 Z M 108.402 125.554 C 110.634 129.85 115.125 132.785 120.301 132.785 C 127.703 132.785 133.703 126.785 133.703 119.383 C 133.703 111.982 127.703 105.982 120.301 105.982 C 117.465 105.982 114.834 106.863 112.667 108.367 C 111.688 108.12 110.935 107.642 110.516 106.843 C 110.319 106.467 110.209 105.801 110.263 104.853 C 110.317 103.922 110.524 102.781 110.895 101.503 C 111.637 98.949 113.022 95.894 115.077 92.954 C 119.185 87.075 125.925 81.715 135.494 81.667 C 139.188 81.648 141.615 82.484 143.321 83.742 C 145.033 85.004 147.261 89.588 148.112 91.462 C 148.497 92.412 148.899 93.355 149.378 94.226 C 150.34 95.978 151.634 97.474 153.794 98.212 C 161.314 100.783 168.582 108.743 173.986 118.154 C 179.383 127.552 182.842 138.262 182.842 146.187 C 182.842 149.301 182.188 151.555 181.185 153.271 C 180.181 154.988 178.806 156.203 177.305 157.205 C 176.343 157.847 172.7 159.864 172.7 159.864 C 171.233 160.73 169.879 161.702 169.018 163.101 C 167.799 165.081 166.804 169.509 166.804 169.509 C 166.382 171.547 165.797 174.369 164.908 176.532 C 162.937 181.324 158.688 186.518 147.104 191.595 C 137.449 195.827 127.318 195.126 119.507 194.477 C 115.924 194.177 112.131 193.86 109.885 194.194 C 108.684 194.373 107.656 194.731 106.926 195.407 C 106.178 196.099 105.808 197.064 105.808 198.31 C 105.808 199.077 106.321 199.737 107.041 200.279 C 107.776 200.831 108.823 201.338 110.118 201.785 C 112.713 202.681 116.405 203.377 120.851 203.691 C 129.749 204.318 141.75 203.422 154.204 199.472 C 166.592 195.543 186.972 183.595 198.042 167.514 C 208.005 153.042 211.315 133.791 210.728 118.366 C 210.435 110.651 209.165 103.855 207.239 99.063 C 206.278 96.669 205.139 94.743 203.849 93.456 C 202.553 92.163 201.067 91.484 199.455 91.697 C 197.821 91.913 196.807 92.841 196.234 94.172 C 195.678 95.464 195.531 97.137 195.547 98.917 C 195.561 100.409 195.692 102.029 195.821 103.628 C 195.97 105.542 196.158 108.33 196.047 109.918 C 195.877 112.335 194.794 113.832 193.393 114.742 C 191.969 115.668 190.179 116.008 188.6 116.008 C 187.933 116.008 187.395 115.862 186.937 115.6 C 186.476 115.337 186.071 114.941 185.695 114.403 C 184.929 113.31 184.334 111.716 183.629 109.686 C 182.265 105.734 180.228 99.836 176.088 94.461 C 170.441 87.13 165.394 80.753 156.791 77.919 C 154.519 77.171 153.43 75.822 152.736 74.178 C 152.382 73.34 151.31 69.462 151.062 68.494 C 150.389 66.495 149.326 64.544 147.028 63.111 C 144.749 61.69 141.317 60.816 135.987 60.813 C 130.672 60.811 125.053 63.78 119.954 68.413 C 114.843 73.056 110.194 79.423 106.813 86.341 C 103.434 93.258 101.307 100.757 101.274 107.67 C 101.241 114.588 103.308 120.952 108.354 125.516 C 108.359 125.52 108.364 125.525 108.37 125.53 C 108.377 125.535 108.383 125.54 108.39 125.546 C 108.394 125.549 108.398 125.551 108.402 125.554 Z M 79.453 165.075 C 78.264 163.885 73.136 162.454 69.427 163.091 C 68.059 163.325 67.484 163.714 66.745 164.213 L 66.745 164.214 C 66.48 164.393 66.194 164.587 65.842 164.792 C 64.53 165.561 63.505 166.526 63.148 167.564 C 63.033 167.898 63.048 168.273 63.124 168.643 C 63.201 169.018 63.349 169.43 63.55 169.865 C 63.951 170.737 64.586 171.76 65.373 172.86 C 66.184 173.993 67.136 174.42 68.188 174.892 C 69.183 175.338 70.269 175.825 71.412 176.989 C 72.485 178.082 73.613 179.776 74.719 181.438 L 74.719 181.439 C 76.034 183.415 77.318 185.345 78.444 186.163 C 79.253 186.749 80.019 187.041 80.696 187.299 L 80.697 187.299 L 80.698 187.299 L 80.701 187.3 C 80.887 187.371 81.067 187.44 81.24 187.511 C 81.638 187.677 82.023 187.789 82.374 187.816 C 82.727 187.842 83.092 187.784 83.389 187.553 C 85.31 186.061 85.463 179.768 84.913 177.386 C 84.002 173.438 82.568 168.19 79.453 165.075 Z" fill="black"/>
</svg>
