<?xml version="1.0" encoding="utf-8"?>
<svg width="256" height="256" viewBox="0 0 256 256" fill="none" xmlns="http://www.w3.org/2000/svg">
  <path d="M 155.364 42.88 C 156.706 39.332 192.799 18.841 199.62 17.262 C 206.441 15.683 212.006 15.707 215.359 16.664 C 218.712 17.62 221.596 20.195 224.255 23.479 C 229.126 29.493 227.524 39.52 225.42 41.76 C 223.316 44 175.551 73.836 173.156 74.24 C 170.039 74.765 154.022 46.428 155.364 42.88 Z" fill="black"/>
  <path d="M 150.496 130.999 C 142.723 137.163 149.8 149.244 159.631 144.254 L 159.631 144.252 C 159.631 144.252 211.988 116.456 220.971 113.44 C 222.306 112.992 226.531 112.32 227.642 112.32 C 227.642 112.32 227.642 142.56 227.642 143.68 C 227.642 144.8 161.968 172.578 161.968 172.578 L 150.735 177.854 C 142.626 181.453 148.277 192.605 154.192 190.72 C 160.107 188.834 197.62 173.92 218.746 163.84 C 220.412 163.035 223.194 163.84 223.194 163.84 L 223.194 171.68 C 221.337 177.063 204.847 211.254 167.594 220.961 C 130.342 230.667 105.134 239.052 86.418 240 C 80.858 238.881 79.746 235.519 76.41 229.92 C 73.327 224.745 31.369 152.262 29.527 147.614 C 27.307 142.013 26.191 138.655 29.529 135.294 C 32.867 131.933 54.17 119.04 55.282 117.92 C 56.394 116.8 56.394 58.56 56.394 58.56 C 56.394 52.96 113.048 23.84 113.048 23.84 C 115.272 22.72 121.944 21.6 124.168 23.84 C 126.392 26.08 156.488 73.147 156.416 79.84 C 156.343 86.533 145.234 92.159 138.624 92.16 C 132.013 92.16 101.928 73.12 101.928 73.12 C 97.48 70.88 92.142 68.64 88.584 73.12 C 85.025 77.6 87.113 82.148 88.463 83.774 C 89.813 85.4 100.017 91.186 109.712 95.52 L 109.77 154.88 C 109.77 165.137 125.338 164.96 125.338 154.88 C 125.338 145.479 124.836 106.106 125.338 105.6 C 125.841 105.094 128.674 105.092 129.786 105.6 C 132.959 107.048 137.089 110.654 139.615 110.654 C 144.063 110.654 146.464 108.924 146.464 108.924 C 146.464 108.924 199.664 73.69 221.904 64.727 C 225.24 63.608 227.464 63.614 228.576 64.708 L 228.577 92.711 C 227.617 93.697 167.152 122.95 150.496 130.999 Z" fill="black"/>
</svg>
