<?xml version="1.0" encoding="utf-8"?>
<svg width="256" height="256" viewBox="0 0 256 256" fill="none" xmlns="http://www.w3.org/2000/svg">
  <path fill-rule="evenodd" clip-rule="evenodd" d="M 106.45 37.445 C 114.061 33.333 122.356 29.125 134.428 29.337 C 134.442 29.337 134.455 29.337 134.469 29.338 C 153.859 30.205 164.584 40.365 174.167 51.756 C 175.685 53.56 177.17 55.388 178.655 57.214 C 186.595 66.984 194.5 76.711 207.034 82.435 C 207.448 82.624 207.737 82.975 207.86 83.379 L 237.65 100.972 C 238.015 101.189 238.242 101.58 238.248 102.005 L 238.286 104.613 L 237.93 104.613 C 237.824 104.35 237.628 104.128 237.368 103.991 L 237.029 103.813 C 236.807 103.697 236.484 103.527 236.071 103.312 C 235.247 102.881 234.066 102.268 232.651 101.537 C 229.822 100.076 226.041 98.144 222.248 96.263 C 218.457 94.385 214.638 92.551 211.734 91.288 C 210.288 90.659 209.035 90.157 208.113 89.865 C 207.665 89.722 207.223 89.606 206.851 89.569 C 206.677 89.551 206.402 89.538 206.116 89.618 C 205.794 89.709 205.282 89.987 205.136 90.628 C 205.023 91.126 205.225 91.537 205.291 91.667 C 205.388 91.861 205.518 92.046 205.642 92.205 C 205.895 92.531 206.25 92.912 206.666 93.325 C 207.506 94.159 208.707 95.237 210.132 96.46 C 211.518 97.648 213.348 98.467 215.303 99.341 C 217.381 100.27 219.599 101.262 221.575 102.829 C 225.415 105.871 229.265 108.861 232.154 111.089 C 232.971 111.72 233.421 113.004 233.81 114.116 C 234.106 114.967 234.368 115.718 234.735 115.998 C 235.158 116.321 235.489 116.574 235.714 116.747 C 236.093 117.036 236.375 117.143 236.954 117.26 L 238.465 117.26 L 240 225.434 C 240.006 225.761 239.878 226.076 239.649 226.309 C 239.418 226.541 239.105 226.672 238.777 226.67 L 107.73 226.137 C 107.321 226.135 106.94 225.928 106.716 225.586 C 98.716 213.395 95.184 203.446 94.339 194.836 C 93.493 186.215 95.354 179.051 97.943 172.471 C 99.039 169.684 100.274 166.984 101.485 164.336 C 101.697 163.872 101.908 163.409 102.118 162.948 C 103.532 159.841 104.879 156.787 105.948 153.64 C 108.075 147.376 109.092 140.767 107.233 132.853 C 107.089 132.238 107.438 131.614 108.039 131.417 C 108.639 131.219 109.291 131.513 109.54 132.094 C 114.744 144.222 126.768 158.886 137.727 166.686 C 140.456 168.628 143.083 170.119 145.488 171.041 C 147.903 171.966 150.015 172.288 151.753 172 C 153.444 171.721 154.867 170.854 155.963 169.197 C 157.087 167.5 157.899 164.922 158.176 161.208 C 158.211 160.741 158.51 160.336 158.945 160.164 C 159.38 159.993 159.876 160.086 160.219 160.403 C 162.593 162.597 164.532 164.218 166.136 165.336 C 167.757 166.465 168.942 167.011 169.818 167.172 C 170.612 167.318 171.142 167.15 171.617 166.745 C 172.166 166.276 172.713 165.425 173.284 164.043 C 174.089 162.094 174.804 159.461 175.7 156.157 L 175.701 156.156 C 176.086 154.736 176.506 153.192 176.98 151.525 C 178.408 146.508 180.3 140.534 183.215 133.894 C 179.274 137.509 176.694 142.71 174.429 147.275 C 174.341 147.453 174.253 147.63 174.166 147.806 C 173.454 149.24 172.761 150.609 172.068 151.778 C 171.383 152.933 170.636 154.001 169.779 154.767 C 168.899 155.555 167.784 156.125 166.449 155.993 C 165.172 155.868 164.021 155.13 162.962 154.071 C 160.472 151.581 158.64 150.312 157.304 149.778 C 156.054 149.278 155.341 149.452 154.818 149.779 C 154.171 150.185 153.556 150.989 152.89 152.23 C 152.568 152.831 152.26 153.481 151.936 154.172 L 151.847 154.363 C 151.556 154.986 151.25 155.64 150.928 156.266 C 150.234 157.615 149.356 159.066 148.092 160.022 C 146.717 161.064 145.015 161.425 143.001 160.825 C 141.099 160.259 138.949 158.849 136.415 156.5 C 133.859 154.131 130.804 150.703 127.102 145.937 C 127.095 145.927 127.087 145.917 127.08 145.907 C 127.076 145.902 127.073 145.897 127.069 145.893 C 127.065 145.887 127.061 145.881 127.057 145.875 C 112.578 125.149 104.775 119.471 98.84 117.403 C 96.733 116.668 94.9 116.384 92.913 116.075 C 91.997 115.933 91.048 115.786 90.025 115.587 C 86.85 114.97 83.433 113.901 79.21 110.979 C 71.71 105.789 64.861 106.428 57.521 108.406 C 55.769 108.879 53.706 109.516 51.894 110.075 C 49.986 110.664 48.027 111.265 46.028 111.789 C 42.027 112.838 37.801 113.601 33.298 113.381 C 32.587 113.346 31.995 112.824 31.872 112.123 C 31.748 111.423 32.126 110.73 32.782 110.454 C 33.995 109.945 35.175 109.451 36.325 108.969 L 36.331 108.967 C 55.699 100.858 66.582 96.302 83.04 81.058 C 72.332 71.997 60.883 62.311 51.888 57.789 C 41.929 52.783 31.64 51.294 17.949 55.265 C 17.243 55.47 16.492 55.142 16.163 54.485 C 15.833 53.828 16.019 53.03 16.605 52.587 C 32.57 40.504 45.402 38.694 56.232 40.009 C 61.233 40.616 65.778 41.888 69.888 43.037 C 70.176 43.117 70.461 43.197 70.745 43.276 C 75.137 44.5 78.948 45.493 82.515 45.493 C 91.589 45.493 98.209 41.908 105.439 37.992 C 105.774 37.81 106.111 37.627 106.45 37.445 Z M 127.392 71.393 C 134.461 71.393 140.192 65.663 140.192 58.593 C 140.192 51.524 134.461 45.793 127.392 45.793 C 120.322 45.793 114.591 51.524 114.591 58.593 C 114.591 65.663 120.322 71.393 127.392 71.393 Z M 197.508 117.786 C 197.976 117.951 198.297 118.381 198.321 118.876 C 198.643 125.367 197.109 130.264 195.531 135.306 L 195.53 135.307 L 195.53 135.308 C 195.214 136.317 194.897 137.331 194.592 138.365 C 192.766 144.556 190.706 150.86 186.883 154.544 C 186.548 154.765 186.126 154.807 185.754 154.657 C 185.382 154.507 185.108 154.184 185.021 153.792 C 184.338 147.719 186.261 142.257 188.351 136.317 C 188.45 136.036 188.549 135.753 188.649 135.47 C 189.106 134.167 189.538 132.839 189.968 131.515 C 191.612 126.458 193.238 121.455 196.192 118.127 C 196.521 117.757 197.041 117.622 197.508 117.786 Z" fill="black"/>
  <path d="M 206.586 91.993 C 206.586 91.993 206.589 91.993 206.598 91.994 C 206.594 91.994 206.592 91.993 206.59 91.993 C 206.587 91.993 206.586 91.993 206.586 91.993 Z" fill="black"/>
  <path d="M 88.246 181.544 C 88.749 181.798 89.012 182.364 88.883 182.912 C 85.819 195.876 87.542 206.172 90.009 213.21 C 91.243 216.733 92.666 219.444 93.774 221.267 C 94.327 222.178 95.306 223.524 95.638 223.979 C 95.943 224.342 96.011 224.848 95.812 225.279 C 95.612 225.709 95.18 225.984 94.706 225.984 L 66.287 225.984 C 65.903 225.984 65.541 225.803 65.311 225.496 C 65.08 225.188 65.009 224.79 65.117 224.421 C 70.537 205.98 74.414 196.372 86.768 181.842 C 87.132 181.413 87.744 181.29 88.246 181.544 Z" fill="black"/>
</svg>
