<?xml version="1.0" encoding="utf-8"?>
<svg width="256" height="256" viewBox="0 0 256 256" fill="none" xmlns="http://www.w3.org/2000/svg">
  <path d="M 229.588 103.079 L 153.034 27.17 C 139.179 13.434 116.622 13.434 102.768 27.17 L 26.391 103.079 C 12.537 116.817 12.537 139.183 26.391 152.921 L 102.945 228.83 C 116.799 242.566 139.358 242.566 153.211 228.83 L 229.765 152.921 C 243.441 139.183 243.441 116.641 229.588 103.079 Z M 179.677 119.634 L 118.043 205.052 C 115.733 208.223 113.957 207.518 113.957 203.82 L 113.957 141.649 L 79.144 141.649 C 75.237 141.649 73.992 139.183 76.303 136.013 L 137.936 50.595 C 140.245 47.426 142.021 48.128 142.021 51.829 L 142.021 113.998 L 176.835 113.998 C 180.565 114.175 181.808 116.641 179.677 119.634 Z" fill="black"/>
</svg>
