<?xml version="1.0" encoding="utf-8"?>
<svg width="256" height="256" viewBox="0 0 256 256" fill="none" xmlns="http://www.w3.org/2000/svg">
  <path fill-rule="evenodd" clip-rule="evenodd" d="M 128 163 C 147.33 163 163 147.332 163 128 C 163 108.668 147.33 93 128 93 C 108.669 93 93 108.668 93 128 C 93 147.332 108.669 163 128 163 Z M 128 149 C 139.597 149 149 139.6 149 128 C 149 116.399 139.597 107 128 107 C 116.403 107 107 116.399 107 128 C 107 139.6 116.403 149 128 149 Z" fill="black"/>
  <path fill-rule="evenodd" clip-rule="evenodd" d="M 128 198 C 166.66 198 198 166.657 198 128 C 198 89.342 166.66 58 128 58 C 89.339 58 58 89.342 58 128 C 58 166.657 89.339 198 128 198 Z M 128 184 C 158.927 184 184 158.925 184 128 C 184 97.074 158.927 72 128 72 C 97.072 72 72 97.074 72 128 C 72 158.925 97.072 184 128 184 Z" fill="black"/>
  <path fill-rule="evenodd" clip-rule="evenodd" d="M 128 239.999 C 189.857 239.999 240 189.858 240 128 C 240 66.141 189.857 16 128 16 C 66.143 16 16 66.141 16 128 C 16 189.858 66.143 239.999 128 239.999 Z M 128 219 C 178.258 219 219 178.257 219 128 C 219 77.742 178.258 37 128 37 C 77.742 37 37 77.742 37 128 C 37 178.257 77.742 219 128 219 Z" fill="black"/>
</svg>
