<?xml version="1.0" encoding="utf-8"?>
<svg width="256" height="256" viewBox="0 0 256 256" fill="none" xmlns="http://www.w3.org/2000/svg">
  <path fill-rule="evenodd" clip-rule="evenodd" d="M 128 16 C 104.617 16 94.252 24.679 79.994 36.618 C 68.642 46.124 54.822 57.696 30 68.6 C 30 198 128 240 128 240 C 128 240 226 198 226 68.6 C 201.178 57.696 187.358 46.124 176.006 36.618 C 161.748 24.679 151.383 16 128 16 Z M 183.106 142.499 L 183.004 142.908 L 183 142.921 C 180.539 152.763 178.077 162.604 175.611 172.444 C 174.266 177.803 172.418 178.885 167.014 177.532 C 137.29 170.099 107.568 162.662 77.846 155.225 L 77.81 155.216 L 77.774 155.207 C 77.476 155.132 77.183 155.058 76.883 154.987 C 75.57 154.678 74.261 154.332 74.425 152.566 C 74.586 150.833 75.944 150.674 77.27 150.531 C 78.824 150.36 80.378 150.196 81.932 150.032 L 81.933 150.032 C 83.487 149.868 85.042 149.704 86.596 149.533 C 88.574 149.317 90.553 149.103 92.532 148.89 C 98.059 148.293 103.586 147.696 109.107 147.048 C 110.031 146.94 110.676 147.004 111.102 147.121 C 110.854 146.812 110.559 146.333 110.252 145.614 C 109.854 144.683 109.429 143.765 109.003 142.848 C 108.657 142.102 108.311 141.355 107.98 140.602 C 107.402 139.283 107.187 137.995 108.269 136.756 C 109.379 135.486 110.673 135.657 112.045 136.086 C 116.778 137.563 121.511 139.038 126.243 140.514 L 126.272 140.523 L 128.516 141.222 C 127.641 134.856 124.79 123.162 122.188 112.492 C 119.485 101.408 117.052 91.429 117.386 89.681 C 118.205 85.401 127.88 92.537 137.552 99.671 C 147.221 106.802 156.887 113.931 157.699 109.651 C 157.93 108.438 158.191 107.232 158.453 106.025 L 158.453 106.024 C 158.613 105.288 158.773 104.552 158.926 103.814 C 159.177 102.594 159.79 101.689 161.055 101.382 C 162.364 101.068 163.502 101.449 164.342 102.481 C 165.011 103.301 165.654 104.142 166.297 104.983 C 166.907 105.781 167.518 106.579 168.151 107.359 C 170.64 110.425 173.611 110.399 175.832 107.18 C 178.836 102.828 181.817 98.458 184.798 94.088 C 187.619 89.953 190.44 85.818 193.281 81.697 C 193.448 81.454 193.607 81.182 193.768 80.904 L 193.769 80.904 C 194.504 79.639 195.3 78.272 197.193 79.173 C 198.944 80.008 198.482 81.479 198.056 82.833 C 197.968 83.113 197.881 83.389 197.816 83.653 C 194.698 96.236 191.547 108.804 188.394 121.376 L 188.393 121.381 L 186.693 128.16 C 185.497 132.939 184.302 137.719 183.106 142.499 Z M 81.299 106.632 C 83.175 109.596 85.425 111.648 88.395 112.92 C 93.878 115.272 99.355 117.629 104.815 120.048 C 107.244 121.125 109.36 120.917 110.955 118.659 C 112.506 116.453 111.614 114.578 109.977 112.85 C 107.322 110.045 104.671 107.236 102.02 104.427 C 96.79 98.886 91.559 93.344 86.3 87.827 C 84.86 86.319 83.111 85.19 80.85 86.021 C 78.344 86.935 77.87 89.078 77.99 91.36 C 78.037 92.275 78.059 93.197 78.082 94.117 C 78.19 98.603 78.298 103.064 81.299 106.632 Z" fill="black"/>
</svg>
