<?xml version="1.0" encoding="utf-8"?>
<svg width="256" height="256" viewBox="0 0 256 256" fill="none" xmlns="http://www.w3.org/2000/svg">
  <path d="M 151.434 73.447 L 215.804 73.447 L 92.182 203.029 C 112.632 223.204 129.356 237.642 129.356 237.642 C 129.356 237.642 221.458 155.787 235.628 109.521 C 249.798 63.256 228.543 16.99 186.035 16.99 C 185.941 16.99 185.847 16.99 185.753 16.991 L 151.434 73.447 Z" fill="black"/>
  <path d="M 79.896 190.641 L 114.802 113.772 L 60.476 113.772 L 110.513 30.533 L 110.513 30.474 C 101.058 23.224 87.756 16.99 69.964 16.99 C 27.456 16.99 6.202 63.256 20.371 109.521 C 27.43 132.569 54.502 164.449 79.896 190.641 Z" fill="black"/>
  <path d="M 81.643 186.945 L 57.999 239.011 L 95.407 199.801 L 81.643 186.945 Z" fill="black"/>
</svg>
