<?xml version="1.0" encoding="utf-8"?>
<svg width="256" height="256" viewBox="0 0 256 256" fill="none" xmlns="http://www.w3.org/2000/svg">
  <path d="M 33.23 128 C 33.23 76.066 75.66 33.965 128 33.965 L 128 16.868 C 66.144 16.868 16 66.623 16 128 C 16 189.376 66.144 239.132 128 239.132 C 189.856 239.132 240 189.376 240 128 C 240 95.177 225.647 64.134 202.847 42.712 C 199.779 39.83 197.258 37.525 195.188 35.697 L 203.817 18.573 L 145.232 18.573 L 179.693 66.445 L 187.184 51.581 C 188.326 52.629 189.594 53.806 191 55.127 C 210.501 73.45 222.77 100.059 222.77 128 C 222.77 179.934 180.34 222.036 128 222.036 C 75.66 222.036 33.23 179.934 33.23 128 Z" fill="black"/>
  <path d="M 194.69 123.808 C 185.829 152.488 128.236 203.228 128.236 203.228 C 128.236 203.228 68.948 152.488 60.087 123.808 C 51.227 95.129 64.517 66.45 91.099 66.45 C 117.68 66.45 128.237 88.511 128.237 88.511 C 128.237 88.511 137.097 66.45 163.679 66.45 C 190.26 66.45 203.55 95.129 194.69 123.808 Z" fill="black"/>
</svg>
