<?xml version="1.0" encoding="utf-8"?>
<svg width="256" height="256" viewBox="0 0 256 256" fill="none" xmlns="http://www.w3.org/2000/svg">
  <mask id="mask">
    <rect width="243.159" height="243.159" fill="white" x="15.877" y="16.722"/>
    <rect y="-24.316" width="405.265" height="48.632" fill="black" transform="matrix(0.707106, 0.707108, -0.707106, 0.707108, 15.877021, 16.721853)"/>
  </mask>
  <path d="M 229.587 103.079 L 153.033 27.171 C 139.179 13.433 116.622 13.433 102.767 27.171 L 26.391 103.079 C 12.537 116.816 12.537 139.184 26.391 152.921 L 102.945 228.83 C 116.799 242.566 139.357 242.566 153.211 228.83 L 229.766 152.921 C 243.441 139.184 243.441 116.64 229.587 103.079 Z M 179.676 119.634 L 118.043 205.052 C 115.733 208.223 113.957 207.518 113.957 203.821 L 113.957 141.649 L 79.144 141.649 C 75.236 141.649 73.993 139.184 76.302 136.014 L 137.936 50.595 C 140.245 47.425 142.021 48.129 142.021 51.828 L 142.021 113.998 L 176.834 113.998 C 180.565 114.175 181.808 116.64 179.676 119.634 Z" fill="black" mask="url(#mask)"/>
  <line x1="42.493" y1="43.88" x2="213.283" y2="212.881" stroke="black" stroke-linecap="round" style="stroke-width: 26px;"/>
</svg>
