<?xml version="1.0" encoding="utf-8"?>
<svg width="256" height="256" viewBox="0 0 256 256" fill="none" xmlns="http://www.w3.org/2000/svg">
  <path d="M 50.732 25.016 C 53.498 21.098 57.506 18.228 62.107 16.87 C 66.708 15.513 71.632 15.749 76.082 17.538 C 80.533 19.328 84.249 22.567 86.629 26.731 C 89.01 30.895 89.915 35.741 89.199 40.484 L 84.095 39.714 C 84.638 36.12 83.952 32.448 82.148 29.293 C 80.344 26.138 77.528 23.683 74.156 22.327 C 70.784 20.972 67.053 20.793 63.567 21.822 C 60.082 22.85 57.045 25.025 54.948 27.994 L 50.732 25.016 Z" fill="black"/>
  <path d="M 97.377 18.157 C 93.092 18.157 89.618 21.631 89.618 25.916 C 89.618 27.489 90.893 28.764 92.466 28.764 L 143.281 28.764 C 146.21 28.764 148.585 26.39 148.585 23.461 C 148.585 20.532 146.21 18.157 143.281 18.157 L 97.377 18.157 Z" fill="black"/>
  <path d="M 136.029 44.225 C 131.744 44.225 128.27 47.699 128.27 51.984 C 128.27 53.557 129.545 54.832 131.118 54.832 L 151.551 54.832 C 154.48 54.832 156.854 52.457 156.854 49.529 C 156.854 46.6 154.48 44.225 151.551 44.225 L 136.029 44.225 Z" fill="black"/>
  <path d="M 191.641 54.832 C 200.925 54.832 208.451 47.306 208.451 38.023 C 208.451 28.739 200.925 21.214 191.641 21.214 C 182.358 21.214 174.832 28.739 174.832 38.023 C 174.832 47.306 182.358 54.832 191.641 54.832 Z" fill="black"/>
  <path d="M 150.259 70.519 C 150.821 64.939 155.532 60.585 161.259 60.585 L 222.024 60.585 C 227.751 60.585 232.462 64.939 233.024 70.519 C 233.061 70.828 233.08 71.143 233.08 71.461 L 233.08 153.979 C 233.08 158.298 229.579 161.799 225.26 161.799 L 222.923 161.799 C 218.604 161.799 215.102 158.298 215.102 153.979 L 215.102 82.697 L 209.889 82.697 L 209.889 230.384 C 209.889 234.703 206.388 238.205 202.068 238.205 C 197.749 238.205 194.248 234.703 194.248 230.384 L 194.248 142.204 L 189.035 142.204 L 189.035 230.384 C 189.035 234.703 185.533 238.205 181.214 238.205 C 176.895 238.205 173.394 234.703 173.394 230.384 L 173.394 82.697 L 168.18 82.697 L 168.18 153.979 C 168.18 158.298 164.679 161.799 160.36 161.799 L 158.023 161.799 C 153.704 161.799 150.203 158.298 150.203 153.979 L 150.203 71.461 C 150.203 71.143 150.222 70.828 150.259 70.519 Z" fill="black"/>
  <path d="M 73.373 57.953 C 77.722 56.85 81.613 54.401 84.489 50.956 L 80.55 47.668 C 78.367 50.283 75.413 52.142 72.111 52.98 C 68.809 53.818 65.327 53.591 62.161 52.333 C 58.995 51.075 56.307 48.849 54.481 45.973 C 52.655 43.097 51.784 39.718 51.992 36.317 L 46.87 36.004 C 46.597 40.483 47.745 44.935 50.15 48.723 C 52.555 52.511 56.096 55.443 60.266 57.101 C 60.7 57.273 61.138 57.431 61.58 57.574 C 61.253 57.86 60.95 58.179 60.674 58.532 L 37.968 59.261 C 30.241 59.261 23.793 65.041 23.001 72.583 C 22.948 73.034 22.921 73.492 22.921 73.957 L 22.921 87.911 L 27.055 87.911 L 27.055 73.957 C 27.055 73.648 27.074 73.342 27.111 73.042 C 27.666 67.624 32.315 63.396 37.968 63.396 L 97.942 63.396 C 103.594 63.396 108.244 67.624 108.799 73.042 C 108.835 73.342 108.854 73.648 108.854 73.957 L 108.854 74.967 L 112.989 74.967 L 112.989 73.957 C 112.989 73.492 112.961 73.033 112.908 72.583 C 112.116 65.04 105.669 59.261 97.942 59.261 L 73.707 58.593 C 73.499 58.395 73.284 58.207 73.064 58.029 C 73.167 58.004 73.27 57.979 73.373 57.953 Z" fill="black"/>
  <path d="M 22.921 98.338 L 27.055 98.338 L 27.055 154.082 C 27.055 158.276 30.511 161.675 34.774 161.675 L 37.081 161.675 C 41.343 161.675 44.799 158.276 44.799 154.082 L 44.799 116.675 L 40.959 116.675 C 38.443 116.675 36.404 114.636 36.404 112.12 C 36.404 110.168 37.986 108.585 39.938 108.585 L 44.799 108.585 L 44.799 84.867 C 44.799 84.867 44.799 82.785 47.372 82.785 C 49.945 82.785 49.945 84.867 49.945 84.867 L 49.945 108.585 L 63.28 108.585 C 65.514 108.585 67.325 110.396 67.325 112.63 C 67.325 114.864 65.514 116.675 63.28 116.675 L 49.945 116.675 L 49.945 228.272 C 49.945 232.465 53.401 235.865 57.663 235.865 C 61.926 235.865 65.382 232.465 65.382 228.272 L 65.382 191.463 L 70.528 191.463 L 70.528 228.272 C 70.528 232.465 73.983 235.865 78.246 235.865 C 82.509 235.865 85.965 232.465 85.965 228.272 L 85.965 219.867 L 90.1 219.867 L 90.1 228.272 C 90.1 234.812 84.729 240 78.246 240 C 73.875 240 70.009 237.641 67.955 234.099 C 65.9 237.641 62.035 240 57.663 240 C 51.181 240 45.81 234.812 45.81 228.272 L 45.81 162.017 C 43.633 164.356 40.513 165.81 37.081 165.81 L 34.774 165.81 C 28.291 165.81 22.921 160.622 22.921 154.082 L 22.921 98.338 Z" fill="black"/>
  <path d="M 85.965 209.62 L 90.1 209.62 L 90.1 162.017 C 92.276 164.356 95.397 165.81 98.829 165.81 L 101.135 165.81 C 107.618 165.81 112.989 160.622 112.989 154.082 L 112.989 124.046 L 108.854 124.046 L 108.854 154.082 C 108.854 158.276 105.398 161.675 101.135 161.675 L 98.829 161.675 C 94.566 161.675 91.11 158.276 91.11 154.082 L 91.11 142.204 L 85.965 142.204 L 85.965 209.62 Z" fill="black"/>
  <path d="M 70.528 181.215 L 70.528 142.648 C 70.528 142.648 70.528 139.774 67.955 139.774 C 65.382 139.774 65.382 142.648 65.382 142.648 L 65.382 181.215 L 70.528 181.215 Z" fill="black"/>
  <path d="M 108.854 113.799 L 108.854 98.518 L 91.11 98.518 L 91.11 131.956 L 85.965 131.956 L 85.965 98.518 L 71.881 98.518 C 69.365 98.518 67.325 96.478 67.325 93.962 C 67.325 92.01 68.908 90.428 70.86 90.428 L 85.965 90.428 L 85.965 84.867 C 85.965 84.867 85.965 82.785 88.537 82.785 C 91.11 82.785 91.11 84.867 91.11 84.867 L 91.11 90.428 L 108.854 90.428 L 108.854 85.574 L 112.989 85.574 L 112.989 90.428 L 130.517 90.428 C 132.751 90.428 134.562 92.239 134.562 94.473 C 134.562 96.707 132.751 98.518 130.517 98.518 L 112.989 98.518 L 112.989 113.799 L 108.854 113.799 Z" fill="black"/>
  <path d="M 124.495 187.328 C 124.495 184.448 126.829 182.114 129.708 182.114 L 155.237 182.114 C 158.116 182.114 160.45 184.448 160.45 187.328 C 160.45 190.207 158.116 192.541 155.237 192.541 L 129.708 192.541 C 126.829 192.541 124.495 190.207 124.495 187.328 Z" fill="black"/>
  <path d="M 115.686 227.777 C 112.806 227.777 110.472 230.112 110.472 232.991 C 110.472 235.87 112.806 238.205 115.686 238.205 L 164.765 238.205 C 167.644 238.205 169.978 235.87 169.978 232.991 C 169.978 230.112 167.644 227.777 164.765 227.777 L 115.686 227.777 Z" fill="black"/>
</svg>
