<?xml version="1.0" encoding="utf-8"?>
<svg width="256" height="256" viewBox="0 0 256 256" fill="none" xmlns="http://www.w3.org/2000/svg">
  <path d="M 170.413 61.343 C 181.305 61.343 190.134 52.514 190.134 41.621 C 190.134 30.729 181.305 21.9 170.413 21.9 C 159.521 21.9 150.691 30.729 150.691 41.621 C 150.691 52.514 159.521 61.343 170.413 61.343 Z" fill="black"/>
  <path fill-rule="evenodd" clip-rule="evenodd" d="M 208.229 109.829 L 188.933 88.485 C 188.941 98.176 188.956 109.627 188.972 119.678 L 188.992 132.219 L 216.166 165.573 C 217.684 167.437 217.95 170.025 216.842 172.158 L 198.24 207.984 C 196.706 210.939 193.067 212.091 190.112 210.556 C 187.157 209.022 186.006 205.383 187.54 202.428 L 204.317 170.118 L 184.28 145.525 L 152.105 145.525 C 151.36 152.708 149.333 158.154 146.475 162.152 C 142.928 167.114 138.131 169.805 133.031 170.823 C 127.939 171.841 122.553 171.193 117.79 169.5 C 113.031 167.809 108.854 165.059 106.199 161.829 C 103.145 158.113 101.772 154.41 101.757 150.775 C 101.743 147.147 103.082 143.645 105.343 140.323 C 109.853 133.697 118.105 127.68 127.034 122.613 C 135.978 117.537 145.665 113.379 153.11 110.49 C 156.834 109.046 160.494 107.75 162.729 106.982 C 160.724 106.989 157.912 107.013 154.967 107.083 C 149.053 107.223 142.391 107.547 139.178 108.265 C 139.145 108.273 139.112 108.277 139.079 108.278 L 138.549 108.418 L 138.549 84.724 L 115.62 84.724 L 111.328 109.569 C 110.729 113.037 107.431 115.362 103.963 114.764 C 100.495 114.164 98.169 110.867 98.768 107.399 L 103.974 77.267 C 104.502 74.211 107.153 71.979 110.254 71.979 L 133.505 71.979 C 134.435 71.471 135.837 71.046 137.555 70.688 C 139.365 70.309 141.574 69.995 144.049 69.746 C 148.998 69.245 155.04 68.997 161.134 69.008 C 167.229 69.019 173.389 69.288 178.575 69.826 C 183.658 70.353 187.884 71.145 190.177 72.242 C 191.288 72.572 192.299 73.202 193.092 74.079 L 215.085 98.408 L 232.006 93.966 C 235.412 93.072 238.896 95.107 239.79 98.512 C 240.683 101.916 238.648 105.401 235.242 106.294 L 214.574 111.72 C 212.272 112.324 209.825 111.595 208.229 109.829 Z M 139.152 125.734 C 138.946 125.59 138.707 125.588 138.558 125.6 L 138.291 125.642 C 138.2 125.662 138.105 125.687 138.01 125.717 C 137.624 125.836 137.138 126.044 136.583 126.322 C 135.465 126.879 134 127.747 132.353 128.847 C 129.696 130.621 127.046 133.345 124.289 136.181 L 124.253 136.217 C 123.604 136.884 122.95 137.558 122.287 138.226 C 118.81 141.733 118.029 143.812 116.993 147.562 C 116.472 149.45 116.434 151.317 117.094 153.064 C 117.755 154.812 119.093 156.383 121.224 157.712 C 123.353 159.043 125.351 159.56 127.21 159.392 C 129.068 159.225 130.729 158.38 132.195 157.093 C 134.379 155.176 134.945 153.28 135.777 150.495 C 135.912 150.041 136.613 147.873 136.771 147.368 C 138.024 143.789 138.483 139.704 138.874 136.222 L 138.999 135.12 C 139.075 134.467 139.15 133.842 139.232 133.253 C 139.503 131.289 139.647 129.586 139.668 128.328 C 139.678 127.701 139.659 127.169 139.604 126.764 C 139.577 126.563 139.539 126.375 139.484 126.216 C 139.436 126.077 139.344 125.868 139.152 125.734 Z" fill="black"/>
  <path d="M 99.881 218.684 C 99.881 227.198 81.103 234.099 57.94 234.099 C 34.777 234.099 16 227.198 16 218.684 C 16 210.977 32.418 204.324 52.515 203.182 C 46.222 207.537 44.847 209.735 42.353 215.584 C 54.754 211.967 60.666 209.365 72.364 204.204 C 72.364 204.204 87.95 197.891 97.764 194.025 C 117.392 186.295 142.376 176.775 163.79 169.623 C 164.015 169.547 164.261 169.635 164.389 169.833 C 164.517 170.032 164.493 170.293 164.331 170.465 C 159.817 175.285 152.67 180.075 144.531 184.542 C 142.533 185.639 140.472 186.718 138.373 187.774 C 138.406 187.907 138.435 188.041 138.459 188.176 C 138.479 188.29 138.496 188.406 138.51 188.523 C 138.537 188.755 138.551 188.991 138.551 189.231 C 138.551 195.3 137.545 202.081 136.597 207.171 C 136.516 207.611 136.434 208.04 136.352 208.458 C 136.267 208.897 136.182 209.323 136.098 209.735 C 135.795 211.229 135.51 212.53 135.275 213.558 C 135.094 214.351 134.836 215.411 134.657 216.139 C 133.827 219.363 130.54 221.305 127.316 220.474 C 124.092 219.644 122.15 216.358 122.979 213.134 C 122.979 213.134 123.075 212.761 123.122 212.567 C 123.217 212.179 123.354 211.603 123.521 210.875 C 123.854 209.416 124.299 207.355 124.744 204.964 C 125.403 201.428 126.03 197.327 126.322 193.446 C 124.798 194.12 123.277 194.78 121.767 195.422 C 120.699 195.877 119.637 196.323 118.584 196.76 C 109.966 200.332 101.908 203.309 96.004 205.393 C 93.052 206.435 90.638 207.254 88.961 207.813 L 88.277 208.039 C 95.466 210.807 99.881 214.556 99.881 218.684 Z" fill="black"/>
</svg>
