<?xml version="1.0" encoding="utf-8"?>
<svg width="256" height="256" viewBox="0 0 256 256" fill="none" xmlns="http://www.w3.org/2000/svg">
  <path d="M 214.069 136.221 C 210.056 95.508 177.455 63.128 136.475 59.167 L 136.475 33.061 L 119.707 33.061 L 119.707 59.15 C 78.642 63.032 45.949 95.448 41.932 136.221 L 16 136.221 L 16 152.989 L 41.915 152.989 C 44.89 183.866 64.307 209.973 91.366 222.564 L 91.366 198.14 C 74.123 186.49 62.842 166.856 62.842 144.696 C 62.842 109.139 91.886 80.084 128 80.084 C 164.114 80.084 193.159 109.139 193.159 144.696 C 193.159 167.205 181.519 187.109 163.814 198.685 L 163.814 222.94 C 191.3 210.498 211.08 184.177 214.086 152.989 L 240 152.989 L 240 136.221 L 214.069 136.221 Z" fill="black"/>
  <path fill-rule="evenodd" clip-rule="evenodd" d="M 163.627 186.831 C 175.667 176.684 183.316 161.492 183.316 144.514 C 183.316 113.964 158.55 89.198 128 89.198 C 97.45 89.198 72.684 113.964 72.684 144.514 C 72.684 161.264 80.129 176.275 91.89 186.419 C 93.847 183.724 102.019 175.407 128.365 175.404 C 156.25 175.401 162.557 184.724 163.627 186.831 Z M 151.967 144.514 C 151.967 157.751 141.237 168.481 128 168.481 C 114.763 168.481 104.033 157.751 104.033 144.514 C 104.033 131.277 114.763 120.546 128 120.546 C 141.237 120.546 151.967 131.277 151.967 144.514 Z" fill="black"/>
</svg>
