<?xml version="1.0" encoding="utf-8"?>
<svg xmlns="http://www.w3.org/2000/svg" viewBox="0 0 256 256" width="256px" height="256px">
  <path d="M 237.472 208.5 C 244.667 222.5 235.644 240 221.293 240 L 34.691 240 C 20.34 240 11.356 222.456 18.512 208.5 L 111.813 26.5 C 119.008 12.5 136.976 12.5 144.171 26.5 L 237.472 208.5 Z M 127.992 170.875 C 118.114 170.875 110.102 179.888 110.102 191 C 110.102 202.112 118.114 211.125 127.992 211.125 C 137.87 211.125 145.882 202.112 145.882 191 C 145.882 179.888 137.87 170.875 127.992 170.875 Z M 110.996 98.556 L 113.874 158.056 C 113.991 160.856 116.052 163 118.541 163 L 137.404 163 C 139.893 163 141.915 160.813 142.071 158.056 L 144.949 98.556 C 145.104 95.538 142.965 93 140.282 93 L 115.625 93 C 112.941 93 110.802 95.538 110.958 98.556 L 110.996 98.556 Z"/>
</svg>