<?xml version="1.0" encoding="utf-8"?>
<svg xmlns="http://www.w3.org/2000/svg" viewBox="0 0 256 256" width="256" height="256">
  <path d="M 143 26.4 C 140.65 20.15 134.65 16 128 16 C 121.35 16 115.35 20.15 113 26.4 L 44.9 208 L 32 208 C 23.15 208 16 215.15 16 224 C 16 232.85 23.15 240 32 240 L 80 240 C 88.85 240 96 232.85 96 224 C 96 215.15 88.85 208 80 208 L 79.1 208 L 88.1 184 L 167.9 184 L 176.9 208 L 176 208 C 167.15 208 160 215.15 160 224 C 160 232.85 167.15 240 176 240 L 224 240 C 232.85 240 240 232.85 240 224 C 240 215.15 232.85 208 224 208 L 211.1 208 L 143 26.4 Z M 155.9 152 L 100.1 152 L 128 77.55 L 155.9 152 Z"/>
</svg>
