<?xml version="1.0" encoding="utf-8"?>
<svg xmlns="http://www.w3.org/2000/svg" viewBox="0 0 256 256" width="256" height="256">
  <path d="M 57.978 16 C 50.234 16 43.978 22.256 43.978 30 C 43.978 37.744 50.234 44 57.978 44 L 57.978 48.813 C 57.978 67.363 65.372 85.169 78.497 98.294 L 108.159 128 L 78.497 157.706 C 65.372 170.831 57.978 188.638 57.978 207.188 L 57.978 212 C 50.234 212 43.978 218.256 43.978 226 C 43.978 233.744 50.234 240 57.978 240 L 71.978 240 L 183.978 240 L 197.978 240 C 205.722 240 211.978 233.744 211.978 226 C 211.978 218.256 205.722 212 197.978 212 L 197.978 207.188 C 197.978 188.638 190.584 170.831 177.459 157.706 L 147.797 128 L 177.503 98.294 C 190.628 85.169 198.022 67.363 198.022 48.813 L 198.022 44 C 205.766 44 212.022 37.744 212.022 30 C 212.022 22.256 205.766 16 198.022 16 L 183.978 16 L 71.978 16 L 57.978 16 Z M 85.978 48.813 L 85.978 44 L 169.978 44 L 169.978 48.813 C 169.978 57.125 167.528 65.175 162.978 72 L 92.978 72 C 88.472 65.175 85.978 57.125 85.978 48.813 Z M 92.978 184 C 94.509 181.681 96.303 179.494 98.272 177.481 L 127.978 147.819 L 157.684 177.525 C 159.697 179.538 161.447 181.725 162.978 184.044 L 92.978 184 Z"/>
</svg>
