<?xml version="1.0" encoding="utf-8"?>
<svg width="256" height="256" viewBox="0 0 256 256" fill="none" xmlns="http://www.w3.org/2000/svg" style="">
  <path d="M 232.073 72.586 C 234.444 77.154 237.044 81.624 239.078 86.34 C 239.808 88.03 239.439 90.367 239.086 92.327 C 233.657 122.707 221.977 150.75 206.91 177.488 C 203.162 184.139 198.979 190.537 195.247 197.188 C 193.648 200.043 192.073 199.919 189.686 198.378 C 181.706 193.235 181.599 193.227 186.316 185.181 C 206.713 150.388 221.838 113.504 230.68 74.111 C 230.786 73.635 230.925 73.176 231.057 72.7 C 231.393 72.668 231.729 72.627 232.073 72.586 Z" fill="black"/>
  <path d="M 89.14 239.437 C 101.336 236.32 113.672 233.654 125.704 229.996 C 143.191 224.674 159.061 216.021 173.463 204.702 C 174.579 203.832 176.917 202.914 177.638 203.447 C 179.96 205.161 181.87 207.466 183.675 209.754 C 183.888 210.025 182.658 211.846 181.772 212.534 C 161.718 228.094 139.278 237.903 113.779 239.716 C 105.568 240.298 97.284 239.806 89.042 239.806 C 89.075 239.675 89.107 239.552 89.14 239.437 Z" fill="black"/>
  <path fill-rule="evenodd" d="M 135.271 17.384 C 135.864 18.42 136.459 19.461 136.885 20.568 C 146.054 44.354 163.967 57.682 188.335 62.505 C 194.607 63.748 201.056 64.065 207.509 64.382 C 210.464 64.528 213.421 64.673 216.361 64.908 C 217.494 64.999 218.627 65.084 220.224 65.203 L 220.227 65.204 L 221.093 65.269 C 220.468 67.989 219.881 70.673 219.301 73.327 L 219.301 73.328 C 218.079 78.923 216.886 84.385 215.417 89.776 C 206.092 123.92 191.632 155.809 173.276 186.041 C 168.757 193.48 162.409 198.549 155.314 202.986 C 131.586 217.839 105.529 225.894 77.987 230.101 C 71.54 231.086 67.423 229.06 63.092 225.082 C 46.041 209.416 31.868 191.528 20.689 171.253 C 17.925 166.242 16.588 160.992 16.522 155.227 C 16.046 112.446 23.633 70.903 35.468 30.001 C 36.641 25.932 38.241 25.088 41.644 26.679 C 71.179 40.45 99.377 36.578 126.649 20.314 C 127.657 19.714 128.659 19.105 129.662 18.495 L 129.663 18.494 C 130.757 17.829 131.852 17.163 132.956 16.509 C 133.168 16.376 133.415 16.308 133.78 16.208 C 133.979 16.154 134.214 16.09 134.498 16 C 134.745 16.464 135.007 16.924 135.271 17.384 Z M 89.131 70.204 L 107.683 95.758 L 87.27 182.02 C 75.497 155.004 51.727 100.643 50.827 99.325 C 49.928 98.009 75.988 79.363 89.131 70.204 Z M 117.053 97.972 L 145.091 83.444 C 152.735 97.521 167.674 125.869 166.28 126.644 C 164.886 127.418 119.272 165.36 96.64 184.235 L 117.053 97.972 Z" fill="black"/>
</svg>
