<?xml version="1.0" encoding="utf-8"?>
<svg width="256" height="256" viewBox="0 0 256 256" fill="none" xmlns="http://www.w3.org/2000/svg">
  <path d="M 145.696 68.407 C 148.257 69.048 150.901 69.813 153.671 70.695 C 156.8 71.69 159.164 74.272 159.88 77.476 L 169.322 119.681 L 240 124.739 L 240 21.927 L 145.573 67.489 L 145.696 68.407 Z" fill="black"/>
  <path d="M 91.939 95.874 L 16 82.733 L 16 179.448 L 76.467 162.482 L 76.467 158.081 C 76.467 157.404 76.561 156.731 76.747 156.08 L 83.164 133.622 L 91.939 95.874 Z" fill="black"/>
  <path fill-rule="evenodd" clip-rule="evenodd" d="M 111.528 83.834 L 144.218 83.834 L 144.218 90.101 L 141.882 90.101 L 145.9 113.929 C 150.514 118.568 153.364 124.962 153.364 132.022 C 153.364 136.012 152.454 139.789 150.829 143.157 L 154.635 165.728 L 139.475 165.728 L 137.613 155.699 C 134.564 156.976 131.216 157.683 127.704 157.683 C 113.532 157.683 102.043 146.194 102.043 132.022 C 102.043 117.85 113.532 106.361 127.704 106.361 C 127.954 106.361 128.204 106.365 128.453 106.372 L 125.431 90.101 L 111.528 90.101 L 111.528 83.834 Z M 129.341 111.156 L 131.526 122.919 C 130.385 122.508 129.155 122.283 127.873 122.283 C 121.933 122.283 117.118 127.098 117.118 133.038 C 117.118 138.978 121.933 143.794 127.873 143.794 C 130.566 143.794 133.028 142.804 134.915 141.168 L 136.724 150.914 C 133.993 152.22 130.934 152.952 127.704 152.952 C 116.144 152.952 106.773 143.582 106.773 132.022 C 106.773 120.462 116.144 111.092 127.704 111.092 C 128.255 111.092 128.801 111.113 129.341 111.156 Z" fill="black"/>
  <path fill-rule="evenodd" clip-rule="evenodd" d="M 103.328 78.991 L 90.217 135.388 L 83.75 158.021 L 83.75 175.637 L 171.996 175.637 L 171.996 158.021 L 164.264 130.369 L 152.773 79.006 C 152.622 78.33 152.123 77.786 151.463 77.575 C 142.335 74.67 135.111 73.24 127.878 73.274 C 120.648 73.308 113.538 74.804 104.646 77.572 C 103.986 77.777 103.484 78.317 103.328 78.991 Z M 106.868 80.963 L 93.744 137.423 L 93.744 170.725 L 162.002 170.725 L 162.002 138.106 L 149.216 80.953 C 140.817 78.346 134.302 77.14 127.896 77.17 C 121.492 77.2 115.076 78.466 106.868 80.963 Z" fill="black"/>
  <path d="M 185.207 197.147 L 185.207 182.242 L 70.539 182.242 L 70.539 197.147 L 185.207 197.147 Z" fill="black"/>
  <path d="M 185.207 216.287 L 185.207 201.382 L 70.539 201.382 L 70.539 216.287 L 185.207 216.287 Z" fill="black"/>
  <path d="M 61.901 234.072 L 61.901 222.046 L 193.845 222.046 L 193.845 234.072 L 61.901 234.072 Z" fill="black"/>
</svg>
