<?xml version="1.0" encoding="utf-8"?>
<svg width="256" height="256" viewBox="0 0 256 256" fill="none" xmlns="http://www.w3.org/2000/svg">
  <path d="M 127.583 60.548 C 138.923 60.548 148.115 51.356 148.115 40.016 C 148.115 28.676 138.923 19.483 127.583 19.483 C 116.243 19.483 107.05 28.676 107.05 40.016 C 107.05 51.356 116.243 60.548 127.583 60.548 Z" fill="black"/>
  <path fill-rule="evenodd" clip-rule="evenodd" d="M 16.001 76.343 C 16.001 71.879 19.619 68.26 24.083 68.26 L 231.918 68.26 C 236.383 68.26 240 71.879 240 76.343 C 240 80.806 236.383 84.425 231.918 84.425 L 169.503 84.425 L 166.671 98.954 C 168.226 99.363 170.632 99.931 173.378 100.579 L 173.407 100.586 C 180.602 102.285 190.123 104.534 192.832 105.919 C 196.773 107.934 200.137 110.236 202.259 112.656 C 204.38 115.075 205.366 117.753 204.175 120.387 C 203.021 122.94 199.912 125.207 194.538 127.118 C 187.287 129.695 175.612 131.726 158.059 132.783 L 155.652 146.32 C 157.767 146.719 160.742 147.202 163.955 147.723 L 163.968 147.725 C 171.61 148.964 180.6 150.424 182.601 151.495 C 185.9 153.263 188.716 155.282 190.492 157.405 C 192.268 159.526 193.093 161.876 192.097 164.186 C 191.131 166.425 188.527 168.414 184.028 170.09 C 177.293 172.599 165.996 174.518 148.478 175.332 L 146.743 191.393 C 148.845 191.78 151.696 192.26 154.78 192.779 L 154.803 192.783 C 163.041 194.168 172.935 195.834 174.67 196.765 C 177.517 198.294 179.947 200.039 181.48 201.875 C 183.012 203.71 183.725 205.741 182.864 207.739 C 182.031 209.675 179.785 211.395 175.902 212.844 C 169.286 215.313 157.57 217.122 138.639 217.613 L 138.639 225.46 C 138.639 231.566 133.689 236.516 127.583 236.516 C 121.477 236.516 116.527 231.566 116.527 225.46 L 116.527 217.605 C 97.83 217.107 86.177 215.34 79.553 212.919 C 75.637 211.488 73.358 209.786 72.503 207.859 C 71.618 205.867 72.328 203.834 73.879 201.988 C 75.431 200.142 77.905 198.374 80.83 196.803 C 82.587 195.86 91.934 194.251 99.895 192.881 L 99.896 192.881 L 100.377 192.798 C 102.006 192.517 103.568 192.248 104.985 191.997 C 106.704 191.693 108.208 191.416 109.359 191.182 L 106.946 175.286 C 90.039 174.458 79.02 172.601 72.372 170.176 C 67.835 168.522 65.193 166.553 64.202 164.326 C 63.177 162.022 64 159.67 65.797 157.536 C 67.596 155.401 70.462 153.354 73.852 151.539 C 77.251 149.72 79.668 148.772 84.474 147.794 C 89.394 146.794 95.284 146.864 100.151 147.05 L 96.571 132.722 C 79.671 131.665 68.309 129.702 61.169 127.216 C 55.749 125.33 52.593 123.086 51.41 120.546 C 50.186 117.919 51.168 115.238 53.315 112.805 C 55.464 110.371 58.887 108.039 62.937 105.969 C 66.996 103.894 71.73 102.06 76.542 100.639 C 79.605 99.735 83.285 99.789 86.691 99.839 C 88.039 99.858 89.344 99.877 90.551 99.836 L 86.328 84.425 L 24.083 84.425 C 19.619 84.425 16.001 80.806 16.001 76.343 Z M 99.586 150.081 C 99.447 150.086 99.308 150.091 99.168 150.096 L 99.162 150.096 C 94.826 150.257 90.309 150.424 89.026 151.046 C 87.397 151.836 86.114 153.282 85.02 154.514 L 85.018 154.517 L 85.016 154.519 C 84.481 155.122 83.991 155.674 83.528 156.073 C 82.821 156.682 82.325 157.259 82.051 157.789 C 81.783 158.307 81.739 158.749 81.876 159.152 C 82.019 159.575 82.396 160.059 83.176 160.566 C 83.952 161.07 85.08 161.565 86.636 162.031 C 92.879 163.902 105.549 165.168 128.286 165.168 C 151.02 165.168 165.898 163.647 172.352 161.879 C 173.961 161.439 175.15 160.969 175.99 160.487 C 176.837 160.003 177.28 159.534 177.474 159.124 C 177.655 158.742 177.652 158.347 177.454 157.891 C 177.246 157.412 176.825 156.88 176.189 156.309 C 175.465 155.66 168.48 153.621 162.171 151.779 L 162.112 151.762 L 161.861 151.689 C 159.307 150.943 156.884 150.235 155.057 149.669 L 153.492 158.473 L 103.006 158.473 L 100.896 150.031 C 100.465 150.048 100.027 150.064 99.586 150.081 Z M 91.107 101.867 C 90.408 102.01 89.734 102.185 89.119 102.405 C 87.487 102.991 86.266 103.901 85.027 104.825 C 83.988 105.6 82.936 106.385 81.617 106.996 C 78.718 108.339 76.179 109.752 74.493 111.138 C 73.649 111.832 73.057 112.49 72.729 113.095 C 72.409 113.685 72.357 114.189 72.52 114.648 C 72.692 115.13 73.142 115.682 74.073 116.26 C 75.001 116.835 76.348 117.4 78.206 117.931 C 85.664 120.063 100.797 121.506 127.955 121.506 C 155.111 121.506 170.415 120.145 178.125 118.13 C 180.047 117.628 181.467 117.092 182.471 116.543 C 183.482 115.99 184.011 115.456 184.243 114.988 C 184.459 114.554 184.456 114.103 184.219 113.583 C 183.97 113.037 183.468 112.431 182.708 111.78 C 176.888 106.801 168.529 105.108 165.562 104.644 L 163.817 113.599 L 94.322 113.599 L 91.107 101.867 Z M 111.135 202.883 L 109.815 194.182 C 108.314 194.662 106.226 195.286 103.949 195.961 L 102.405 196.419 L 102.4 196.421 L 102.394 196.423 L 102.39 196.424 C 96.449 198.181 89.87 200.126 89.179 200.724 C 88.986 200.89 88.812 201.053 88.656 201.214 C 88.511 201.363 88.381 201.51 88.268 201.654 C 88.118 201.844 87.996 202.029 87.904 202.208 C 87.673 202.655 87.635 203.038 87.753 203.386 C 87.877 203.752 88.203 204.17 88.875 204.608 C 89.545 205.045 90.519 205.473 91.861 205.876 C 97.249 207.493 108.182 208.587 127.801 208.587 C 147.419 208.587 158.476 207.555 164.045 206.027 C 165.434 205.646 166.46 205.24 167.185 204.823 C 167.915 204.404 168.297 203.999 168.465 203.644 C 168.621 203.314 168.619 202.972 168.448 202.578 C 168.268 202.164 167.905 201.704 167.356 201.211 C 166.73 200.648 159.711 198.558 153.434 196.69 L 153.415 196.684 L 153.354 196.666 L 153.079 196.584 C 150.552 195.831 148.169 195.121 146.401 194.568 L 145.503 202.883 L 111.135 202.883 Z" fill="black"/>
</svg>
