<?xml version="1.0" encoding="utf-8"?>
<svg width="256" height="256" viewBox="0 0 256 256" fill="none" xmlns="http://www.w3.org/2000/svg">
  <path d="M 141.59 124.281 C 141.59 132.594 134.851 139.333 126.539 139.333 C 118.226 139.333 111.487 132.594 111.487 124.281 C 111.487 115.969 118.226 109.23 126.539 109.23 C 134.851 109.23 141.59 115.969 141.59 124.281 Z" fill="black"/>
  <path d="M 148.054 109.584 C 146.017 109.584 108.388 36.098 16.221 16 L 155.048 16 L 173.198 49.733 L 192.145 29.104 C 211.07 48.949 214.368 73.549 210.472 95.684 C 206.577 117.818 177.714 138.713 156.819 139.244 C 182.76 120.032 176.828 89.398 172.047 89.398 C 169.302 89.398 152.038 109.584 148.054 109.584 Z" fill="black"/>
  <path d="M 16.221 58.814 L 16.575 23.754 C 48.492 34.32 60.294 40.515 81.739 53.679 C 50.93 49.989 36.874 51.428 16.221 58.814 Z" fill="black"/>
  <path d="M 34.106 84.174 L 16.575 101.616 L 16.575 84.174 L 34.106 84.174 Z" fill="black"/>
  <path d="M 239.69 149.426 C 233.687 159.688 229.593 165.98 222.071 169.436 L 239.69 169.436 L 239.69 149.426 Z" fill="black"/>
  <path d="M 174.703 201.752 C 218 204.731 231.985 202.235 239.778 194.757 L 239.601 230.349 C 205.69 223.708 192.932 216.68 174.703 201.752 Z" fill="black"/>
  <path d="M 106.706 144.468 C 106.706 144.468 154.34 221.23 239.69 240 L 98.826 240 L 82.713 205.028 L 63.5 227.073 C 48.094 210.163 42.488 194.049 41.72 174.925 C 40.823 152.613 62.614 121.82 98.826 114.631 C 84.926 125.698 70.229 161.644 82.712 164.566 C 85.988 164.989 106.706 144.468 106.706 144.468 Z" fill="black"/>
</svg>
