<?xml version="1.0" encoding="utf-8"?>
<svg width="256" height="256" viewBox="0 0 256 256" fill="none" xmlns="http://www.w3.org/2000/svg">
  <path d="M 203.825 27.664 C 203.825 27.664 184.405 17.533 162.109 40.372 C 135.442 67.69 114.458 89.186 114.458 89.186 L 144.555 118.404 C 144.555 118.404 165.539 96.908 192.206 69.59 C 214.502 46.751 203.825 27.664 203.825 27.664 Z" fill="black"/>
  <path d="M 113.042 96.916 C 110.983 94.857 107.644 94.857 105.584 96.916 L 100.567 101.934 C 98.508 103.993 98.508 107.332 100.567 109.392 L 104.271 113.095 L 105.24 112.173 C 107.318 110.195 110.86 110.542 113.151 112.95 L 118.733 118.814 C 121.024 121.221 121.196 124.776 119.118 126.754 L 118.509 127.334 L 123.516 132.34 C 125.575 134.399 128.914 134.399 130.974 132.34 L 135.991 127.323 C 138.05 125.263 138.05 121.925 135.991 119.865 L 113.042 96.916 Z" fill="black"/>
  <path d="M 115.432 122.454 L 16 221.961 L 16 211.074 L 109.827 116.872 L 115.432 122.454 Z" fill="black"/>
  <path d="M 113.752 132.419 C 113.764 132.128 113.595 131.859 113.327 131.744 C 113.059 131.629 112.748 131.691 112.545 131.9 L 82.281 163.029 C 82.035 163.282 82.015 163.678 82.233 163.955 C 82.452 164.232 82.841 164.304 83.144 164.124 L 104.696 151.315 L 111.639 156.831 C 111.846 156.995 112.128 157.03 112.369 156.919 C 112.61 156.809 112.768 156.573 112.779 156.309 L 113.752 132.419 Z" fill="black"/>
  <path d="M 99.182 118.935 C 99.473 118.927 99.739 119.1 99.85 119.369 C 99.962 119.638 99.896 119.948 99.684 120.148 L 68.135 149.975 C 67.879 150.217 67.483 150.232 67.209 150.01 C 66.935 149.787 66.868 149.397 67.052 149.096 L 80.161 127.725 L 74.743 120.706 C 74.581 120.497 74.551 120.214 74.664 119.975 C 74.778 119.736 75.016 119.581 75.281 119.574 L 99.182 118.935 Z" fill="black"/>
  <path d="M 238.212 124.434 C 238.212 124.434 246.111 139.274 228.7 156.518 C 207.872 177.144 191.483 193.374 191.483 193.374 L 168.854 170.458 C 168.854 170.458 185.243 154.227 206.07 133.602 C 223.483 116.357 238.212 124.434 238.212 124.434 Z" fill="black"/>
  <path d="M 185.552 194.507 C 187.147 196.075 187.167 198.637 185.597 200.23 L 181.773 204.109 C 180.203 205.702 177.637 205.722 176.043 204.154 L 173.175 201.335 L 173.878 200.586 C 175.385 198.98 175.097 196.264 173.233 194.52 L 168.694 190.273 C 166.831 188.53 164.099 188.419 162.592 190.025 L 162.15 190.496 L 158.273 186.685 C 156.679 185.117 156.659 182.555 158.228 180.962 L 162.053 177.083 C 163.623 175.49 166.188 175.47 167.783 177.038 L 185.552 194.507 Z" fill="black"/>
  <path d="M 165.917 192.827 L 129.599 230.553 L 137.964 230.487 L 170.24 197.094 L 165.917 192.827 Z" fill="black"/>
  <path d="M 158.272 194.177 C 158.495 194.166 158.703 194.294 158.793 194.499 C 158.883 194.703 158.837 194.942 158.678 195.1 L 134.944 218.508 C 134.751 218.698 134.447 218.716 134.233 218.55 C 134.019 218.385 133.961 218.086 134.098 217.852 L 143.809 201.239 L 139.529 195.945 C 139.401 195.787 139.373 195.571 139.457 195.386 C 139.54 195.2 139.72 195.077 139.923 195.068 L 158.272 194.177 Z" fill="black"/>
  <path d="M 168.719 205.275 C 168.724 205.051 168.589 204.848 168.382 204.764 C 168.174 204.68 167.936 204.733 167.784 204.897 L 145.058 229.284 C 144.874 229.482 144.865 229.786 145.037 229.994 C 145.21 230.203 145.51 230.252 145.74 230.109 L 162.08 219.922 L 167.505 224.037 C 167.667 224.16 167.884 224.181 168.067 224.093 C 168.25 224.004 168.368 223.82 168.372 223.617 L 168.719 205.275 Z" fill="black"/>
  <path d="M 136.485 174.778 C 148.847 162.535 143.238 151.999 143.238 151.999 C 143.238 151.999 132.781 146.265 120.419 158.508 C 105.633 173.151 98.217 180.795 98.217 180.795 L 114.283 197.065 C 114.283 197.065 121.698 189.421 136.485 174.778 Z" fill="black"/>
  <path d="M 110.104 201.931 C 111.219 200.801 111.204 198.982 110.072 197.869 L 97.457 185.466 C 96.325 184.353 94.504 184.368 93.389 185.498 L 90.674 188.253 C 89.559 189.383 89.574 191.202 90.706 192.315 L 93.458 195.021 L 93.771 194.687 C 94.841 193.546 96.781 193.625 98.104 194.863 L 101.326 197.878 C 102.649 199.116 102.854 201.044 101.784 202.185 L 101.285 202.716 L 103.321 204.718 C 104.453 205.831 106.274 205.816 107.389 204.686 L 110.104 201.931 Z" fill="black"/>
  <path d="M 62.727 230.575 L 96.132 196.676 L 99.201 199.705 L 68.666 230.529 L 62.727 230.575 Z" fill="black"/>
  <path d="M 91.074 197.863 C 91.01 197.717 90.863 197.627 90.704 197.634 L 77.678 198.267 C 77.534 198.274 77.406 198.361 77.347 198.492 C 77.288 198.624 77.307 198.777 77.398 198.89 L 80.436 202.648 L 73.542 214.443 C 73.445 214.608 73.486 214.82 73.638 214.938 C 73.79 215.056 74.006 215.043 74.143 214.908 L 90.992 198.289 C 91.106 198.178 91.138 198.008 91.074 197.863 Z" fill="black"/>
  <path d="M 97.882 205.151 C 98.029 205.21 98.125 205.354 98.122 205.513 L 97.875 218.535 C 97.872 218.68 97.789 218.81 97.659 218.873 C 97.529 218.936 97.375 218.921 97.26 218.833 L 93.408 215.912 L 81.807 223.144 C 81.644 223.246 81.431 223.211 81.309 223.063 C 81.186 222.915 81.193 222.699 81.324 222.558 L 97.457 205.245 C 97.566 205.129 97.735 205.091 97.882 205.151 Z" fill="black"/>
  <path d="M 135.188 35.012 C 135.188 35.012 121.111 27.663 104.951 44.23 C 85.621 64.046 68.172 81.878 68.172 81.878 L 89.988 103.072 C 89.988 103.072 107.437 85.24 126.766 65.424 C 142.926 48.857 135.188 35.012 135.188 35.012 Z" fill="black"/>
  <path d="M 67.146 87.485 C 65.654 85.991 63.233 85.991 61.74 87.485 L 58.104 91.125 C 56.611 92.618 56.611 95.041 58.104 96.535 L 60.789 99.221 L 61.491 98.552 C 62.997 97.117 65.565 97.369 67.225 99.116 L 71.271 103.369 C 72.932 105.115 73.057 107.694 71.55 109.129 L 71.109 109.549 L 74.738 113.181 C 76.231 114.675 78.651 114.675 80.143 113.181 L 83.78 109.542 C 85.273 108.048 85.273 105.626 83.78 104.132 L 67.146 87.485 Z" fill="black"/>
  <path d="M 68.878 106.01 L 16.232 160.787 L 16.232 152.89 L 64.816 101.961 L 68.878 106.01 Z" fill="black"/>
  <path d="M 67.661 113.238 C 67.669 113.027 67.547 112.832 67.353 112.749 C 67.159 112.665 66.933 112.71 66.786 112.862 L 44.85 135.442 C 44.672 135.626 44.657 135.913 44.815 136.114 C 44.973 136.314 45.256 136.367 45.476 136.236 L 61.097 126.945 L 66.129 130.946 C 66.279 131.066 66.484 131.09 66.658 131.01 C 66.833 130.931 66.948 130.759 66.955 130.567 L 67.661 113.238 Z" fill="black"/>
  <path d="M 57.1 103.457 C 57.311 103.451 57.504 103.577 57.585 103.772 C 57.665 103.967 57.617 104.192 57.464 104.338 L 34.596 125.973 C 34.411 126.149 34.123 126.159 33.925 125.998 C 33.727 125.837 33.678 125.554 33.812 125.335 L 43.313 109.833 L 39.386 104.742 C 39.269 104.59 39.247 104.385 39.329 104.212 C 39.411 104.038 39.584 103.926 39.776 103.921 L 57.1 103.457 Z" fill="black"/>
</svg>
