<?xml version="1.0" encoding="utf-8"?>
<svg width="256" height="256" viewBox="0 0 256 256" fill="none" xmlns="http://www.w3.org/2000/svg">
  <path d="M 140.359 16 L 91.497 16 L 91.497 37.844 L 140.359 37.844 L 140.359 16 Z" fill="black"/>
  <path d="M 40.344 66.587 C 37.79 66.587 35.719 68.658 35.719 71.212 L 35.719 79.791 L 27.14 79.791 C 24.585 79.791 22.515 81.862 22.515 84.416 L 22.515 86.589 C 22.515 89.144 24.585 91.214 27.14 91.214 L 35.719 91.214 L 35.719 99.71 C 35.719 102.264 37.79 104.335 40.344 104.335 L 42.517 104.335 C 45.071 104.335 47.142 102.264 47.142 99.71 L 47.142 91.214 L 55.638 91.214 C 58.192 91.214 60.263 89.144 60.263 86.589 L 60.263 84.416 C 60.263 81.862 58.192 79.791 55.638 79.791 L 47.142 79.791 L 47.142 71.212 C 47.142 68.658 45.071 66.587 42.517 66.587 L 40.344 66.587 Z" fill="black"/>
  <path d="M 178.491 107.401 C 178.491 101.898 182.951 97.437 188.455 97.437 L 193.437 97.437 C 198.94 97.437 203.401 101.898 203.401 107.401 L 203.401 127.713 L 223.521 127.713 C 229.024 127.713 233.485 132.174 233.485 137.677 L 233.485 142.659 C 233.485 148.162 229.024 152.623 223.521 152.623 L 203.401 152.623 L 203.401 172.742 C 203.401 178.245 198.94 182.707 193.437 182.707 L 188.455 182.707 C 182.951 182.707 178.491 178.245 178.491 172.742 L 178.491 152.623 L 158.179 152.623 C 152.676 152.623 148.215 148.162 148.215 142.659 L 148.215 137.677 C 148.215 132.174 152.676 127.713 158.179 127.713 L 178.491 127.713 L 178.491 107.401 Z" fill="black"/>
  <path d="M 44.875 186.039 C 44.875 181.976 48.168 178.683 52.231 178.683 L 55.785 178.683 C 59.848 178.683 63.141 181.976 63.141 186.039 L 63.141 200.277 L 77.242 200.277 C 81.305 200.277 84.598 203.57 84.598 207.633 L 84.598 211.186 C 84.598 215.249 81.305 218.543 77.242 218.543 L 63.141 218.543 L 63.141 232.644 C 63.141 236.707 59.848 240 55.785 240 L 52.231 240 C 48.168 240 44.875 236.707 44.875 232.644 L 44.875 218.543 L 30.637 218.543 C 26.574 218.543 23.281 215.249 23.281 211.186 L 23.281 207.633 C 23.281 203.57 26.574 200.277 30.637 200.277 L 44.875 200.277 L 44.875 186.039 Z" fill="black"/>
  <path fill-rule="evenodd" clip-rule="evenodd" d="M 159.329 45.892 L 72.526 45.892 L 72.526 64.671 L 83.15 64.671 C 75.106 71.797 70.036 82.204 70.036 93.796 L 70.036 195.395 L 79.908 195.395 C 86.477 195.395 91.688 200.756 91.688 207.227 L 91.688 210.828 C 91.688 217.299 86.477 222.66 79.908 222.66 L 79.631 222.66 C 86.761 230.82 97.245 235.976 108.934 235.976 L 122.922 235.976 C 144.405 235.976 161.82 218.561 161.82 197.078 L 161.82 155.689 L 155.876 155.689 C 148.521 155.689 142.275 149.838 142.275 142.276 L 142.275 137.293 C 142.275 129.731 148.521 123.88 155.876 123.88 L 161.82 123.88 L 161.82 93.796 C 161.82 82.204 156.749 71.797 148.705 64.671 L 159.329 64.671 L 159.329 45.892 Z M 137.525 64.671 L 94.33 64.671 C 83.672 70.025 76.359 81.057 76.359 93.796 L 76.359 105.102 L 155.496 105.102 L 155.496 93.796 C 155.496 81.057 148.183 70.025 137.525 64.671 Z" fill="black"/>
</svg>
