<?xml version="1.0" encoding="utf-8"?>
<svg width="256" height="256" viewBox="0 0 256 256" fill="none" xmlns="http://www.w3.org/2000/svg">
  <path d="M 165.097 98.278 L 165.766 97.879 C 167.369 96.897 171.514 94.346 174.21 92.609 C 179.599 89.137 186.672 84.378 193.391 79.241 C 200.098 74.113 206.5 68.57 210.511 63.528 C 212.511 61.013 213.97 58.557 214.536 56.291 C 215.112 53.98 214.763 51.82 213.095 50.082 C 211.606 48.529 209.348 46.721 206.073 45.834 C 202.789 44.945 198.567 45.002 193.188 47.039 C 186.314 49.641 177.867 52.732 168.949 55.995 L 167.359 56.576 C 157.86 60.052 147.908 63.699 138.826 67.138 C 129.746 70.577 121.522 73.813 115.482 76.468 C 112.465 77.793 109.973 78.982 108.188 79.985 C 107.297 80.485 106.559 80.951 106.014 81.376 C 105.741 81.589 105.5 81.804 105.308 82.02 C 105.123 82.229 104.942 82.485 104.853 82.785 C 104.481 84.041 104.48 85.631 104.698 87.252 C 104.918 88.889 105.371 90.632 105.97 92.229 C 106.567 93.821 107.323 95.308 108.167 96.414 C 108.973 97.469 110.024 98.391 111.246 98.391 L 164.684 98.391 C 164.829 98.391 164.972 98.352 165.097 98.278 Z" fill="black"/>
  <path d="M 132.734 129.703 C 143.021 135.404 155.716 140.765 165.496 140.765 C 171.152 140.765 177.873 140.182 183.418 139.13 C 186.189 138.604 188.695 137.956 190.637 137.192 C 191.608 136.81 192.462 136.39 193.145 135.927 C 193.818 135.47 194.385 134.93 194.696 134.286 C 196.381 130.798 194.556 127.168 191.446 123.925 C 188.291 120.636 183.548 117.438 178.606 114.64 C 173.651 111.835 168.442 109.402 164.314 107.655 C 162.249 106.781 160.45 106.077 159.084 105.581 C 158.401 105.334 157.821 105.137 157.367 104.997 C 156.94 104.866 156.555 104.762 156.303 104.737 C 156.276 104.735 156.25 104.733 156.224 104.733 L 115.8 104.733 C 114.645 104.733 113.834 105.343 113.346 106.222 C 112.887 107.048 112.701 108.117 112.656 109.193 C 112.565 111.363 113.034 113.937 113.556 115.701 C 113.67 116.085 113.946 116.476 114.245 116.831 C 114.563 117.21 114.985 117.637 115.491 118.102 C 116.504 119.032 117.899 120.155 119.588 121.392 C 122.969 123.87 127.57 126.842 132.734 129.703 Z" fill="black"/>
  <path d="M 84.336 85.23 C 87.426 83.485 91.345 84.575 93.091 87.665 C 97.341 95.193 102.911 109.468 107.448 124.353 C 111.654 138.149 115.231 153.305 115.933 164.861 C 116.907 165.851 118.248 167.211 119.84 168.825 C 123.23 172.261 127.757 176.84 132.306 181.418 C 136.859 185.999 141.421 190.565 144.887 193.98 C 146.625 195.691 148.06 197.087 149.071 198.043 C 149.529 198.476 149.861 198.782 150.078 198.975 C 151.775 200.132 152.89 202.08 152.89 204.289 C 152.89 207.837 150.013 210.714 146.464 210.714 C 145.137 210.714 144.158 210.295 143.913 210.19 L 143.909 210.189 C 143.523 210.023 143.23 209.853 143.077 209.76 C 142.762 209.57 142.516 209.387 142.397 209.295 C 142.131 209.093 141.879 208.877 141.69 208.712 C 141.288 208.36 140.789 207.898 140.242 207.381 C 139.132 206.332 137.621 204.861 135.868 203.134 C 132.352 199.671 127.751 195.066 123.191 190.477 C 118.627 185.884 114.088 181.293 110.692 177.851 C 108.994 176.129 107.58 174.695 106.591 173.691 C 106.097 173.188 105.302 172.38 105.037 172.111 C 103.89 170.945 103.232 169.385 103.195 167.75 C 102.971 157.77 99.615 142.727 95.156 128.1 C 94.337 125.414 93.491 122.774 92.634 120.216 L 78.094 134.527 C 75.565 137.016 71.497 136.984 69.007 134.455 C 66.518 131.926 66.55 127.857 69.08 125.368 L 87.803 106.939 C 85.634 101.469 83.579 96.957 81.9 93.984 C 80.155 90.894 81.246 86.975 84.336 85.23 Z" fill="black"/>
  <path d="M 94.874 150.867 C 96.456 147.69 95.162 143.833 91.985 142.252 C 88.808 140.671 84.951 141.964 83.37 145.141 L 74.585 162.791 C 73.652 164.666 73.691 166.878 74.69 168.719 C 77.712 174.288 80.738 178.866 84.731 183.052 C 88.712 187.225 93.43 190.776 99.588 194.555 C 102.612 196.412 106.569 195.465 108.425 192.44 C 110.282 189.416 109.335 185.459 106.31 183.603 C 100.708 180.164 96.984 177.278 94.03 174.182 C 91.689 171.728 89.691 168.993 87.609 165.465 L 94.874 150.867 Z" fill="black"/>
  <path d="M 76.734 105.381 C 79.068 103.014 79.041 99.203 76.675 96.869 C 74.308 94.535 70.497 94.562 68.163 96.928 L 50.757 114.578 C 48.423 116.945 48.449 120.756 50.816 123.09 C 53.183 125.424 56.994 125.398 59.328 123.031 L 76.734 105.381 Z" fill="black"/>
  <path d="M 57.948 134.125 C 59.535 133.284 60.141 131.315 59.3 129.727 C 58.459 128.139 56.49 127.534 54.902 128.374 L 17.732 148.058 C 16.144 148.899 15.538 150.868 16.379 152.455 C 17.22 154.043 19.189 154.649 20.777 153.808 L 57.948 134.125 Z" fill="black"/>
  <path d="M 223.896 61.707 C 223.896 60.224 225.097 59.022 226.579 59.022 L 237.153 59.022 C 238.636 59.022 239.838 60.224 239.838 61.707 C 239.838 63.189 238.636 64.391 237.153 64.391 L 226.579 64.391 C 225.097 64.391 223.896 63.189 223.896 61.707 Z" fill="black"/>
  <path d="M 181.194 92.533 C 179.712 92.533 178.51 93.734 178.51 95.217 C 178.51 96.699 179.712 97.901 181.194 97.901 L 232.923 97.901 C 234.406 97.901 235.608 96.699 235.608 95.217 C 235.608 93.734 234.406 92.533 232.923 92.533 L 181.194 92.533 Z" fill="black"/>
  <path d="M 201.855 116.446 C 200.371 116.446 199.17 117.647 199.17 119.13 C 199.17 120.612 200.371 121.814 201.855 121.814 L 237.315 121.814 C 238.799 121.814 240 120.612 240 119.13 C 240 117.647 238.799 116.446 237.315 116.446 L 201.855 116.446 Z" fill="black"/>
  <path d="M 159.64 196.236 C 159.64 194.754 160.842 193.552 162.324 193.552 L 212.103 193.552 C 213.585 193.552 214.786 194.754 214.786 196.236 C 214.786 197.719 213.585 198.92 212.103 198.92 L 162.324 198.92 C 160.842 198.92 159.64 197.719 159.64 196.236 Z" fill="black"/>
  <path d="M 87.577 71.223 C 87.577 78.051 82.042 83.586 75.214 83.586 C 68.386 83.586 62.851 78.051 62.851 71.223 C 62.851 64.395 68.386 58.86 75.214 58.86 C 82.042 58.86 87.577 64.395 87.577 71.223 Z" fill="black"/>
</svg>
