<?xml version="1.0" encoding="utf-8"?>
<svg width="256" height="256" viewBox="0 0 256 256" fill="none" xmlns="http://www.w3.org/2000/svg">
  <path d="M 125.159 22.541 C 125.349 22.431 125.583 22.43 125.774 22.539 C 143.371 32.582 164.496 49.759 180.755 64.875 C 186.792 70.488 192.163 75.825 196.664 80.297 L 196.665 80.298 C 199.27 82.857 205.676 89.121 207.378 90.555 C 208.229 91.273 208.947 91.817 209.529 92.178 C 210.139 92.557 210.503 92.672 210.678 92.672 C 211.002 92.672 211.363 92.5 211.78 92.021 C 212.197 91.54 212.606 90.82 213.013 89.898 C 213.707 88.327 214.339 86.305 215.007 84.173 C 215.798 81.667 217.011 77.971 218.075 76.024 C 219.117 74.12 220.492 72.561 222.41 72.561 C 223.467 72.561 224.412 73.28 225.227 74.247 C 226.062 75.238 226.874 76.625 227.652 78.244 C 229.212 81.489 230.694 85.793 231.977 90.069 C 231.977 90.069 237.812 105.866 238.854 110.039 C 241.115 119.096 240.461 129.336 232.946 139.812 C 230.515 143.199 226.523 146.971 221.756 150.839 C 216.944 154.744 211.167 158.886 205.015 163.003 C 192.708 171.238 178.76 179.464 167.723 185.608 C 166.009 186.562 164.43 187.424 162.96 188.227 L 162.959 188.228 C 160.961 189.319 159.163 190.301 157.497 191.256 C 154.638 192.895 152.458 194.296 150.792 195.718 C 149.162 197.11 148.087 198.473 147.391 200.021 C 146.69 201.58 146.286 203.523 146.286 206.197 C 146.286 207.308 145.689 208.333 144.723 208.882 C 143.757 209.43 142.571 209.418 141.617 208.849 C 137.133 206.175 133.585 205.2 130.167 205.583 C 126.686 205.973 122.81 207.828 117.814 211.934 C 116.497 213.017 114.552 212.827 113.469 211.51 C 112.386 210.193 112.576 208.247 113.893 207.164 C 119.306 202.715 124.295 200.027 129.48 199.447 C 133.272 199.022 136.893 199.754 140.546 201.347 C 140.815 199.982 141.214 198.701 141.759 197.489 C 142.912 194.923 144.632 192.859 146.783 191.022 C 148.899 189.215 151.487 187.584 154.426 185.899 C 156.121 184.927 158.032 183.883 160.095 182.756 L 160.098 182.754 C 161.569 181.951 163.116 181.105 164.719 180.213 C 175.666 174.119 189.459 165.983 201.581 157.871 C 207.643 153.815 213.252 149.788 217.865 146.045 C 222.523 142.265 225.992 138.911 227.929 136.212 C 234.253 127.397 233.371 118.628 231.49 111.094 C 230.736 108.074 227.652 103.346 227.652 103.346 C 227.652 103.346 225.842 100.137 224.703 99.579 C 223.162 98.822 223.006 98.787 221.616 98.787 C 220.359 98.787 219.327 99.473 218.373 100.665 C 217.411 101.868 217.146 104.633 216.33 106.337 C 216.33 106.337 214.645 109.864 213.766 111.094 C 212.814 112.425 210.799 113.11 209.179 113.137 C 207.558 113.164 157.014 69.561 157.014 69.561 L 157.014 105.686 C 157.014 105.874 156.929 106.051 156.783 106.168 C 156.636 106.285 156.445 106.33 156.262 106.289 C 122.7 97.836 107.033 91.525 78.541 79.794 L 134.971 159.974 C 135.104 160.162 135.12 160.409 135.014 160.613 C 134.907 160.818 134.696 160.946 134.466 160.946 L 94.242 160.946 C 94.242 160.946 97.68 167.523 98.677 170.071 C 99.672 172.614 100.594 175.225 101.1 177.3 C 101.352 178.333 101.51 179.27 101.51 180.015 C 101.51 180.387 101.471 180.746 101.362 181.058 C 101.25 181.376 101.05 181.684 100.708 181.867 C 100.236 182.118 99.747 181.916 99.437 181.732 C 99.091 181.527 98.72 181.199 98.338 180.803 C 97.566 180.003 88.705 166.421 88.705 166.421 C 86.32 162.39 79.497 150.124 79.497 150.124 C 79.394 149.933 79.399 149.702 79.511 149.515 C 79.622 149.328 79.823 149.214 80.041 149.214 L 110.881 149.214 C 110.456 148.672 109.865 147.918 109.123 146.972 C 107.486 144.884 105.115 141.86 102.181 138.118 C 96.311 130.635 88.185 120.279 79.158 108.788 C 61.105 85.806 39.451 58.286 25.044 40.131 C 24.873 39.915 24.865 39.613 25.025 39.389 C 25.184 39.165 25.472 39.073 25.731 39.164 L 131.552 76.1 C 131.473 64.638 129.212 51.795 127.58 43.31 C 126.141 35.966 124.851 29.377 124.851 23.075 C 124.851 22.855 124.968 22.652 125.159 22.541 Z" fill="black"/>
  <path d="M 223.893 130.636 C 226.494 128.745 227.069 125.104 225.178 122.504 C 223.287 119.903 219.646 119.328 217.046 121.219 C 167.772 157.044 138.172 174.779 85.165 198.579 L 79.967 192.472 C 78.541 190.849 75.93 191.399 73.778 193.23 C 71.626 195.062 70.691 197.376 72.176 199.105 L 76.549 204.243 C 59.117 212.105 46.457 215.915 26.145 222.028 L 26.144 222.028 C 24.002 222.672 21.775 223.343 19.449 224.046 C 16.884 224.821 15.434 227.528 16.209 230.093 C 16.984 232.658 19.692 234.108 22.256 233.334 C 24.559 232.638 26.769 231.973 28.9 231.332 L 28.981 231.307 L 28.99 231.305 L 29.001 231.301 C 50.264 224.904 63.697 220.863 83.088 211.925 L 88.318 218.07 C 89.744 219.605 92.532 218.702 94.684 216.87 C 96.835 215.039 98.035 213.363 96.11 211.437 L 93.022 207.809 C 144.929 184.329 175.002 166.184 223.893 130.636 Z" fill="black"/>
</svg>
