<?xml version="1.0" encoding="utf-8"?>
<svg width="256" height="256" viewBox="0 0 256 256" fill="none" xmlns="http://www.w3.org/2000/svg">
  <path d="M 61.228 35.983 C 58.536 35.983 56.354 38.165 56.354 40.857 C 56.354 40.879 56.355 40.901 56.355 40.923 L 50.02 171.662 L 59.322 181.098 L 65.881 45.731 L 99.829 45.731 L 99.829 176.027 L 107.994 189.495 C 108.966 188.604 109.576 187.324 109.576 185.901 L 109.576 45.731 L 144.083 45.731 L 144.083 184.536 C 144.083 185.857 144.608 187.056 145.462 187.933 L 153.83 175.028 L 153.83 45.731 L 187.963 45.731 L 194.529 181.232 L 203.857 172.353 L 197.496 41.05 C 197.498 40.986 197.499 40.921 197.499 40.857 C 197.499 38.165 195.317 35.983 192.625 35.983 L 61.228 35.983 Z" fill="black"/>
  <path d="M 200.607 182.712 L 195.127 187.929 C 195.131 187.94 195.135 187.95 195.14 187.961 L 187.74 195.064 L 169.605 195.064 L 169.329 164.446 C 169.325 163.973 169.011 163.559 168.556 163.427 C 168.102 163.294 167.615 163.476 167.357 163.873 L 153.826 184.733 C 153.827 184.724 153.827 184.716 153.827 184.708 L 151.099 188.915 C 151.106 188.911 151.113 188.908 151.121 188.904 L 147.125 195.064 L 142.971 195.064 L 135.593 179.781 C 135.414 179.41 135.037 179.174 134.625 179.175 C 134.213 179.176 133.837 179.413 133.66 179.786 L 126.372 195.064 L 115.425 195.064 L 115.425 203.446 L 223.028 203.446 C 223.492 203.451 223.911 203.154 224.059 202.706 L 234.585 170.344 C 234.74 169.869 234.547 169.35 234.118 169.093 C 233.689 168.836 233.141 168.908 232.795 169.268 L 212.529 190.27 L 207.862 177.824 C 207.735 177.486 207.446 177.235 207.094 177.155 C 206.743 177.075 206.375 177.177 206.115 177.427 L 200.607 182.712 Z" fill="black"/>
  <path d="M 99.839 186.215 L 87.682 166.334 C 87.438 165.935 86.965 165.74 86.512 165.852 C 86.058 165.963 85.729 166.355 85.697 166.821 L 83.784 195.064 L 65.905 195.064 L 55.553 184.773 L 49.65 179.302 C 49.455 179.265 49.253 179.262 49.052 179.297 C 48.522 179.39 48.07 179.733 47.839 180.219 L 43.417 189.538 L 43.034 189.136 C 41.759 187.795 39.978 185.929 37.957 183.826 C 33.918 179.625 28.909 174.469 25.057 170.683 C 24.55 170.184 23.781 170.065 23.147 170.386 C 22.513 170.707 22.154 171.397 22.255 172.101 C 23.822 182.968 25.316 191.598 31.414 202.593 C 31.66 203.036 32.089 203.334 32.571 203.421 L 32.571 203.446 L 32.844 203.446 L 32.855 203.446 L 32.863 203.446 C 32.869 203.446 32.875 203.446 32.881 203.446 L 109.966 203.446 L 109.966 195.064 L 105.249 195.064 L 101.187 188.42 L 99.837 186.194 C 99.838 186.201 99.838 186.208 99.839 186.215 Z" fill="black"/>
  <path d="M 240 208.905 L 16 208.905 L 16 220.017 L 240 220.017 L 240 208.905 Z" fill="black"/>
</svg>
