<?xml version="1.0" encoding="utf-8"?>
<svg xmlns="http://www.w3.org/2000/svg" viewBox="0 0 256 256" width="256" height="256">
  <path d="M 208.069 19.084 C 212.181 14.972 218.829 14.972 222.897 19.084 L 236.894 33.081 C 241.006 37.193 241.006 43.841 236.894 47.909 L 198.839 85.964 L 215.899 103.024 C 218.917 106.042 219.792 110.547 218.173 114.484 C 216.555 118.421 212.705 120.958 208.463 120.958 L 145.475 120.958 C 139.657 120.958 134.977 116.277 134.977 110.46 L 134.977 47.472 C 134.977 43.229 137.514 39.38 141.451 37.761 C 145.387 36.143 149.893 37.018 152.911 40.036 L 169.97 57.095 L 208.069 19.084 Z M 47.538 134.999 L 110.525 134.999 C 116.343 134.999 121.023 139.679 121.023 145.497 L 121.023 208.484 C 121.023 212.727 118.486 216.576 114.55 218.195 C 110.613 219.813 106.108 218.938 103.089 215.92 L 86.03 198.861 L 47.975 236.916 C 43.863 241.028 37.215 241.028 33.147 236.916 L 19.106 222.919 C 14.994 218.807 14.994 212.159 19.106 208.091 L 57.161 170.036 L 40.102 152.933 C 37.084 149.914 36.209 145.409 37.827 141.472 C 39.446 137.536 43.295 134.999 47.538 134.999 Z"/>
</svg>
