<?xml version="1.0" encoding="utf-8"?>
<svg xmlns="http://www.w3.org/2000/svg" viewBox="0 0 256 256" width="256" height="256">
  <path d="M 172.567 60.781 L 207.644 95.858 C 209.122 97.336 209.122 99.747 207.644 101.225 L 122.711 186.158 L 86.622 190.164 C 81.8 190.708 77.717 186.625 78.261 181.803 L 82.267 145.714 L 167.2 60.781 C 168.678 59.303 171.089 59.303 172.567 60.781 Z M 235.567 51.875 L 216.589 32.897 C 210.678 26.986 201.072 26.986 195.122 32.897 L 181.356 46.664 C 179.878 48.142 179.878 50.553 181.356 52.031 L 216.433 87.108 C 217.911 88.586 220.322 88.586 221.8 87.108 L 235.567 73.342 C 241.478 67.392 241.478 57.786 235.567 51.875 Z M 165.333 163.058 L 165.333 202.647 L 40.889 202.647 L 40.889 78.203 L 130.256 78.203 C 131.5 78.203 132.667 77.697 133.561 76.842 L 149.117 61.286 C 152.072 58.331 149.972 53.314 145.811 53.314 L 34.667 53.314 C 24.361 53.314 16 61.675 16 71.981 L 16 208.87 C 16 219.175 24.361 227.536 34.667 227.536 L 171.556 227.536 C 181.861 227.536 190.222 219.175 190.222 208.87 L 190.222 147.503 C 190.222 143.342 185.206 141.281 182.25 144.197 L 166.694 159.753 C 165.839 160.647 165.333 161.814 165.333 163.058 Z"/>
</svg>
