<?xml version="1.0" encoding="utf-8"?>
<svg xmlns="http://www.w3.org/2000/svg" viewBox="0 0 256 256" width="256" height="256">
  <path d="M 166.5 16 L 229.5 16 C 235.319 16 240 20.681 240 26.5 L 240 89.5 C 240 93.744 237.463 97.594 233.525 99.212 C 229.588 100.831 225.081 99.956 222.063 96.938 L 205 79.875 L 166.938 117.938 C 162.825 122.05 156.175 122.05 152.106 117.938 L 138.106 103.938 C 133.994 99.825 133.994 93.175 138.106 89.106 L 176.169 51.044 L 159.063 33.938 C 156.044 30.919 155.169 26.413 156.788 22.475 C 158.406 18.538 162.256 16 166.5 16 Z M 89.5 240 L 26.5 240 C 20.681 240 16 235.319 16 229.5 L 16 166.5 C 16 162.256 18.538 158.406 22.475 156.788 C 26.413 155.169 30.919 156.044 33.938 159.063 L 51 176.125 L 89.063 138.063 C 93.175 133.95 99.825 133.95 103.894 138.063 L 117.894 152.063 C 122.006 156.175 122.006 162.825 117.894 166.894 L 79.831 204.956 L 96.894 222.019 C 99.913 225.037 100.788 229.544 99.169 233.481 C 97.55 237.419 93.7 239.956 89.456 239.956 L 89.5 240 Z"/>
</svg>
