 <svg  version="1.0" xmlns="http://www.w3.org/2000/svg"  width="210.000000pt" height="228.000000pt" viewBox="0 0 210.000000 228.000000"  preserveAspectRatio="xMidYMid meet">  <g transform="translate(0.000000,228.000000) scale(0.100000,-0.100000)" fill="#bd96f2" stroke="none"> <path d="M1150 1809 c-19 -11 -41 -19 -49 -19 -8 0 -47 -34 -87 -75 -79 -82 -99 -123 -84 -177 9 -31 91 -134 139 -174 21 -18 26 -32 29 -85 l4 -65 -48 -37 c-26 -20 -64 -42 -85 -47 -20 -6 -43 -17 -50 -26 -7 -8 -31 -25 -53 -36 -54 -27 -100 -83 -148 -175 -38 -75 -38 -76 -38 -195 0 -116 6 -146 36 -176 8 -7 18 -30 24 -50 15 -57 123 -160 192 -184 18 -6 46 -21 61 -32 25 -19 46 -21 173 -24 l144 -4 74 37 c56 28 90 54 140 108 37 40 76 82 87 94 12 12 25 40 30 62 5 22 20 57 34 77 22 33 25 47 25 129 0 83 -3 96 -26 130 -14 21 -30 49 -35 62 -5 13 -17 23 -27 23 -19 0 -79 -66 -105 -116 -17 -32 -35 -44 -67 -44 -58 0 -61 163 -5 245 22 33 25 48 25 124 -1 48 -6 96 -13 108 -23 41 -121 148 -199 216 -111 98 -119 141 -55 289 22 49 6 63 -43 37z m66 -854 c3 -13 1 -39 -5 -56 -21 -60 -5 -153 38 -223 19 -30 24 -57 22 -103 -1 -23 -95 -83 -131 -83 -11 0 -47 13 -79 30 -45 22 -61 37 -70 61 -16 47 -13 120 7 156 9 17 27 49 39 70 23 40 148 173 163 173 5 0 12 -11 16 -25z"/> <path d="M1322 1697 c-12 -13 -22 -35 -22 -48 0 -26 46 -79 68 -79 17 0 32 34 32 75 0 72 -36 96 -78 52z"/> </g> </svg> 