 <svg  version="1.0" xmlns="http://www.w3.org/2000/svg"  width="366.000000pt" height="342.000000pt" viewBox="0 0 366.000000 342.000000"  preserveAspectRatio="xMidYMid meet">  <g transform="translate(0.000000,342.000000) scale(0.100000,-0.100000)" fill="#d49f50" stroke="none"> <path d="M3132 2458 c-11 -40 -26 -97 -33 -126 -10 -39 -24 -65 -51 -91 -38 -38 -71 -114 -81 -183 -7 -44 -50 -103 -89 -119 -28 -11 -57 -9 -163 12 -33 6 -82 12 -109 13 -54 1 -57 -2 -75 -71 -7 -24 -16 -43 -21 -43 -5 0 -20 -11 -34 -25 -31 -30 -70 -41 -102 -26 -14 6 -81 18 -151 26 -69 9 -140 22 -157 30 -33 14 -96 70 -96 85 0 22 -117 54 -232 65 -84 7 -103 -7 -95 -70 6 -42 52 -135 67 -135 15 0 57 -82 69 -135 13 -54 50 -135 62 -135 4 0 23 -16 42 -35 24 -24 39 -51 47 -88 15 -61 32 -98 55 -117 36 -30 55 -87 55 -163 0 -122 -41 -151 -240 -169 -142 -13 -145 -16 -155 -129 -13 -146 -35 -171 -165 -184 -36 -4 -80 -14 -97 -22 -28 -13 -33 -21 -33 -49 0 -50 -54 -73 -180 -76 -77 -2 -95 -6 -95 -18 0 -9 7 -14 20 -12 30 5 400 3 655 -4 405 -10 500 -10 946 -5 332 5 445 9 456 19 30 24 35 180 34 1092 -1 804 -3 908 -17 933 l-16 29 -21 -74z"/> <path d="M763 1854 c-14 -22 -17 -44 -15 -104 3 -94 14 -122 61 -153 20 -13 48 -40 61 -60 31 -46 57 -57 129 -57 33 0 101 -9 152 -19 101 -20 193 -24 221 -10 10 5 22 18 28 29 16 30 -2 55 -51 69 -24 7 -63 33 -93 60 -37 34 -80 60 -152 90 -61 26 -116 57 -137 77 -31 31 -113 74 -140 74 -6 0 -18 7 -28 16 -16 14 -19 14 -36 -12z"/> </g> </svg> 