<?xml version="1.0" encoding="utf-8"?>
<svg xmlns="http://www.w3.org/2000/svg" viewBox="0 0 256 256" width="256" height="256">
  <path d="M 16 58 C 16 42.556 28.556 30 44 30 L 212 30 C 227.444 30 240 42.556 240 58 L 240 198 C 240 213.444 227.444 226 212 226 L 44 226 C 28.556 226 16 213.444 16 198 L 16 58 Z M 157.663 104.594 C 155.694 101.706 152.456 100 149 100 C 145.544 100 142.263 101.706 140.337 104.594 L 102.275 160.419 L 90.681 145.938 C 88.669 143.444 85.65 142 82.5 142 C 79.35 142 76.288 143.444 74.319 145.938 L 46.319 180.938 C 43.781 184.088 43.3 188.419 45.05 192.05 C 46.8 195.681 50.475 198 54.5 198 L 96.5 198 L 110.5 198 L 201.5 198 C 205.394 198 208.981 195.856 210.775 192.4 C 212.569 188.944 212.35 184.788 210.163 181.594 L 157.663 104.594 Z M 65 100 C 81.166 100 91.269 82.5 83.187 68.5 C 79.435 62.003 72.503 58 65 58 C 48.834 58 38.731 75.5 46.813 89.5 C 50.565 95.997 57.497 100 65 100 Z"/>
</svg>
