<?xml version="1.0" encoding="utf-8"?>
<svg width="256" height="256" viewBox="0 0 256 256" fill="none" xmlns="http://www.w3.org/2000/svg">
  <path d="M 161.132 121.728 C 161.132 108.398 151.124 98.313 137.851 94.517 C 130.675 92.461 123.196 91.432 115.925 89.68 C 108.3 87.838 103.034 83.251 100.013 76.216 C 97.558 70.503 96.087 64.716 97.246 58.473 C 98.77 50.333 103.541 44.818 111.661 42.213 C 115.492 40.978 119.48 40.132 123.453 39.398 C 130.551 38.098 134.148 34.055 134.079 27.046 C 134.057 25.311 133.855 23.569 133.951 21.841 C 134.253 16.381 137.185 14.723 142.422 16.976 C 153.087 21.576 159.842 34.048 157.549 44.973 C 156.024 52.262 150.737 56.256 144.073 59 C 142.833 59.51 141.567 60.002 140.271 60.356 C 137.04 61.219 134.896 63.015 134.757 66.384 C 134.611 69.882 137.007 71.623 140.07 72.531 C 149.041 75.199 157.534 78.662 164.892 84.491 C 191.452 105.513 193.249 144.082 166.808 168.261 C 164.898 170.011 163.2 170.664 161.132 168.425 C 151.907 158.455 139.978 153.819 126.426 153.062 C 114.781 152.413 106.053 140.988 105.321 132.937 C 104.987 129.271 106.247 125.352 107.403 121.728 C 108.316 118.872 109.985 115.928 106.864 113.9 C 103.551 111.746 99.741 113.214 98.434 116.293 C 96.39 121.089 94.641 126.36 94.506 131.48 C 94.141 145.019 107.614 160.517 125.554 163.51 C 130.285 164.303 135.043 165.018 139.732 166.011 C 150.948 168.383 155.977 176.443 158.408 186.14 C 160.64 195.014 159.795 203.961 151.442 209.684 C 146.751 212.899 140.727 214.88 134.999 215.973 C 125.154 217.845 122.017 221.085 122.093 230.869 C 122.119 233.663 121.58 237.53 119.694 239.037 C 116.681 241.425 113.227 238.854 110.368 236.912 C 103.53 232.266 99.033 226.325 98.522 217.941 C 97.864 207.095 101.875 200.782 112.397 196.734 C 113.655 196.25 114.969 195.922 116.236 195.464 C 122.186 193.319 123.369 187.439 118.355 183.621 C 116.186 181.964 113.427 180.826 110.754 180.009 C 69.173 167.158 56.587 117.631 87.263 87.667 C 90.224 84.777 92.196 84.353 95.225 87.631 C 104.184 97.336 115.852 101.975 129.114 102.674 C 141.726 103.337 151.507 116.017 151.209 126.197 C 151.126 128.948 149.743 131.715 148.665 134.366 C 147.526 137.182 146.209 140.174 149.448 142.139 C 152.877 144.214 156.351 142.628 157.866 139.573 C 158.721 137.85 161.132 135.059 161.132 121.728 Z" fill="black"/>
</svg>
