<?xml version="1.0" encoding="utf-8"?>
<svg width="256" height="256" viewBox="0 0 256 256" fill="none" xmlns="http://www.w3.org/2000/svg">
  <path fill-rule="evenodd" clip-rule="evenodd" d="M 132.206 23.744 C 130.39 20.415 125.61 20.415 123.795 23.744 L 90.856 84.14 C 90.167 85.403 88.947 86.29 87.532 86.555 L 19.913 99.218 C 16.186 99.916 14.709 104.462 17.314 107.218 L 64.576 157.207 C 65.564 158.253 66.031 159.688 65.845 161.115 L 56.993 229.337 C 56.505 233.098 60.372 235.907 63.798 234.282 L 125.946 204.78 C 127.246 204.163 128.754 204.163 130.055 204.78 L 192.202 234.282 C 195.628 235.907 199.495 233.098 199.007 229.337 L 190.155 161.115 C 189.97 159.688 190.436 158.253 191.425 157.207 L 238.686 107.218 C 241.291 104.462 239.814 99.916 236.087 99.218 L 168.468 86.555 C 167.054 86.29 165.833 85.403 165.144 84.14 L 132.206 23.744 Z M 123.503 57.947 C 125.041 53.763 130.959 53.763 132.497 57.947 L 146.754 96.737 C 146.716 97.102 146.746 97.483 146.858 97.865 L 159.206 140.099 C 159.815 142.181 162.397 142.903 163.997 141.439 L 176.235 130.247 C 176.99 129.557 177.33 128.523 177.133 127.52 L 173.205 107.502 L 204.634 107.502 C 209.15 107.502 211.158 113.179 207.646 116.017 L 173.274 143.805 C 172.804 143.876 172.341 144.065 171.928 144.383 L 137.093 171.268 C 135.376 172.593 135.644 175.26 137.59 176.217 L 152.471 183.538 C 153.389 183.989 154.475 183.93 155.338 183.381 L 171.183 173.301 L 179.728 203.306 C 180.965 207.646 176.063 211.132 172.369 208.54 L 130.76 179.333 C 130.198 178.94 129.573 178.679 128.927 178.553 L 100.175 159.069 C 98.355 157.835 95.875 158.971 95.62 161.155 L 93.716 177.505 C 93.598 178.52 94.017 179.524 94.823 180.153 L 108.718 191.003 L 83.876 208.532 C 80.192 211.131 75.284 207.666 76.501 203.325 L 89.06 158.525 C 89.134 158.391 89.194 158.245 89.236 158.089 L 100.271 117.035 C 100.628 115.705 99.508 114.443 98.145 114.641 L 79.825 117.301 C 79.11 117.405 78.514 117.903 78.284 118.588 L 72.461 135.915 L 48.635 117.172 C 45.099 114.39 47 108.71 51.497 108.617 L 99.255 107.627 C 99.398 107.644 99.544 107.651 99.692 107.648 L 137.993 106.654 C 140.076 106.6 141.439 104.449 140.598 102.542 L 133.655 86.791 C 133.186 85.727 132.134 85.042 130.973 85.042 L 113.545 85.042 L 123.503 57.947 Z" fill="black"/>
</svg>
