<?xml version="1.0" encoding="utf-8"?>
<svg xmlns="http://www.w3.org/2000/svg" viewBox="0 0 256 256" width="256px" height="256px">
  <path d="M 192.628 17.228 C 197.877 14.729 203.87 16.128 207.894 20.677 L 235.888 52.667 C 238.513 55.666 240 59.715 240 63.964 C 240 68.213 238.513 72.261 235.888 75.261 L 207.894 107.251 C 203.87 111.85 197.877 113.199 192.628 110.7 C 187.379 108.201 183.967 102.402 183.967 95.904 L 183.967 79.909 L 169.97 79.909 C 165.552 79.909 161.397 82.258 158.772 86.307 L 140.226 114.649 L 122.729 88.007 L 136.377 67.213 C 144.294 55.117 156.76 48.019 169.97 48.019 L 183.967 48.019 L 183.967 32.023 C 183.967 25.575 187.379 19.727 192.628 17.228 Z M 87.736 141.341 L 105.233 167.983 L 91.585 188.777 C 83.668 200.873 71.202 207.971 57.992 207.971 L 29.997 207.971 C 22.255 207.971 16 200.823 16 191.976 C 16 183.128 22.255 175.981 29.997 175.981 L 57.992 175.981 C 62.41 175.981 66.565 173.631 69.19 169.582 L 87.736 141.341 Z M 207.85 235.313 C 203.826 239.911 197.833 241.261 192.584 238.762 C 187.335 236.263 183.923 230.464 183.923 223.966 L 183.923 207.971 L 169.926 207.971 C 156.716 207.971 144.25 200.873 136.333 188.777 L 69.19 86.407 C 66.565 82.358 62.41 80.009 57.992 80.009 L 29.997 80.009 C 22.255 80.009 16 72.861 16 64.014 C 16 55.167 22.255 48.019 29.997 48.019 L 57.992 48.019 C 71.202 48.019 83.668 55.117 91.585 67.213 L 158.772 169.582 C 161.397 173.631 165.552 175.981 169.97 175.981 L 183.967 175.981 L 183.967 159.985 C 183.967 153.537 187.379 147.689 192.628 145.19 C 197.877 142.69 203.87 144.09 207.894 148.639 L 235.888 180.629 C 238.513 183.628 240 187.677 240 191.926 C 240 196.175 238.513 200.223 235.888 203.222 L 207.894 235.213 L 207.85 235.313 Z"/>
</svg>