<?xml version="1.0" encoding="utf-8"?>
<svg xmlns="http://www.w3.org/2000/svg" viewBox="0 0 256 256" width="256" height="256">
  <path d="M 89.15 23.744 L 86 30 L 44 30 C 36.256 30 30 36.256 30 44 C 30 51.744 36.256 58 44 58 L 212 58 C 219.744 58 226 51.744 226 44 C 226 36.256 219.744 30 212 30 L 170 30 L 166.85 23.744 C 164.487 18.975 159.631 16 154.337 16 L 101.663 16 C 96.369 16 91.513 18.975 89.15 23.744 Z M 212 72 L 44 72 L 53.275 220.313 C 53.975 231.381 63.163 240 74.231 240 L 181.769 240 C 192.838 240 202.025 231.381 202.725 220.313 L 212 72 Z"/>
</svg>
