<?xml version="1.0" encoding="utf-8"?>
<svg width="256" height="256" viewBox="0 0 256 256" fill="none" xmlns="http://www.w3.org/2000/svg">
  <path d="M 93.907 49.502 L 87.872 28.392 C 87.754 27.901 87.527 27.441 87.208 27.048 C 86.888 26.655 86.485 26.337 86.026 26.118 C 85.567 25.899 85.065 25.785 84.556 25.783 C 84.047 25.781 83.545 25.892 83.085 26.108 C 60.679 35.845 42.099 52.6 30.185 73.813 C 18.271 95.026 13.677 119.53 17.107 143.58 C 17.167 144.081 17.338 144.562 17.608 144.989 C 17.878 145.416 18.24 145.778 18.667 146.051 C 19.095 146.323 19.577 146.497 20.081 146.562 C 20.584 146.627 21.096 146.58 21.579 146.425 L 42.853 140.426 C 43.902 140.081 44.804 139.395 45.412 138.478 C 46.02 137.562 46.3 136.468 46.204 135.374 C 44.688 118.992 48.193 102.538 56.26 88.171 C 64.328 73.804 76.58 62.195 91.41 54.868 C 92.364 54.373 93.127 53.578 93.578 52.608 C 94.031 51.637 94.146 50.545 93.907 49.502 Z" fill="black"/>
  <path d="M 206.941 94.128 L 228.213 88.128 C 228.706 88.005 229.164 87.775 229.555 87.458 C 229.946 87.139 230.264 86.739 230.483 86.285 C 230.704 85.832 230.819 85.335 230.825 84.832 C 230.829 84.329 230.724 83.831 230.513 83.373 C 220.692 61.165 203.832 42.755 182.5 30.945 C 161.169 19.135 136.536 14.574 112.353 17.955 C 111.847 18.012 111.361 18.18 110.929 18.447 C 110.497 18.714 110.13 19.073 109.856 19.499 C 109.582 19.924 109.406 20.405 109.343 20.907 C 109.279 21.408 109.329 21.917 109.489 22.397 L 115.524 43.507 C 115.865 44.553 116.554 45.453 117.479 46.058 C 118.403 46.664 119.508 46.938 120.61 46.836 C 137.104 45.33 153.67 48.811 168.136 56.824 C 182.601 64.837 194.289 77.006 201.667 91.734 C 202.174 92.64 202.96 93.36 203.908 93.791 C 204.857 94.221 205.92 94.339 206.941 94.128 Z" fill="black"/>
  <path d="M 168.137 227.51 L 162.096 206.38 C 161.856 205.352 161.961 204.273 162.394 203.31 C 162.828 202.346 163.567 201.55 164.499 201.042 C 179.328 193.715 191.58 182.105 199.648 167.738 C 207.715 153.37 211.22 136.916 209.704 120.535 C 209.605 119.44 209.882 118.345 210.491 117.427 C 211.1 116.51 212.004 115.825 213.056 115.483 L 234.424 109.457 C 234.908 109.305 235.419 109.261 235.921 109.328 C 236.424 109.394 236.904 109.569 237.33 109.841 C 237.757 110.112 238.118 110.473 238.389 110.898 C 238.661 111.324 238.833 111.803 238.898 112.302 C 242.32 136.351 237.723 160.853 225.81 182.064 C 213.897 203.276 195.321 220.033 172.92 229.773 C 172.461 229.988 171.96 230.099 171.453 230.099 C 170.946 230.097 170.445 229.984 169.988 229.767 C 169.53 229.55 169.126 229.236 168.806 228.845 C 168.487 228.454 168.258 227.998 168.137 227.51 Z" fill="black"/>
  <path d="M 48.996 161.769 L 27.723 167.769 C 27.23 167.89 26.77 168.117 26.375 168.434 C 25.981 168.752 25.663 169.153 25.443 169.608 C 25.223 170.062 25.108 170.559 25.104 171.064 C 25.101 171.568 25.209 172.066 25.423 172.524 C 35.231 194.775 52.104 213.225 73.464 225.054 C 94.825 236.883 119.497 241.441 143.712 238.028 C 144.215 237.974 144.7 237.805 145.131 237.54 C 145.562 237.274 145.928 236.918 146.203 236.494 C 146.478 236.071 146.654 235.593 146.719 235.092 C 146.785 234.594 146.738 234.085 146.582 233.607 L 140.541 212.478 C 140.2 211.431 139.511 210.531 138.586 209.926 C 137.662 209.321 136.557 209.047 135.455 209.148 C 118.961 210.655 102.395 207.173 87.929 199.161 C 73.463 191.148 61.775 178.979 54.398 164.25 C 53.895 163.306 53.094 162.553 52.118 162.105 C 51.142 161.657 50.045 161.539 48.996 161.769 Z" fill="black"/>
  <path fill-rule="evenodd" clip-rule="evenodd" d="M 75.864 99.052 C 83.571 85.327 96.452 75.204 111.673 70.912 C 126.894 66.619 143.209 68.508 157.028 76.163 C 170.848 83.817 181.039 96.611 185.361 111.729 C 189.683 126.846 187.782 143.051 180.075 156.776 C 172.368 170.501 159.487 180.623 144.266 184.916 C 129.044 189.209 112.73 187.32 98.911 179.666 C 85.091 172.011 74.9 159.217 70.577 144.099 C 66.255 128.982 68.157 112.778 75.864 99.052 Z M 113.44 153.79 C 120.349 157.617 128.507 158.561 136.117 156.415 L 136.128 156.453 C 139.9 155.39 143.423 153.598 146.497 151.181 C 149.571 148.764 152.135 145.768 154.043 142.366 C 155.95 138.964 157.163 135.221 157.613 131.353 C 158.063 127.484 157.742 123.566 156.665 119.821 C 154.504 112.262 149.409 105.866 142.499 102.038 C 135.589 98.211 127.432 97.267 119.821 99.413 C 112.211 101.559 105.77 106.621 101.917 113.483 C 98.063 120.346 97.112 128.448 99.274 136.007 C 101.434 143.566 106.53 149.962 113.44 153.79 Z" fill="black"/>
</svg>
