<?xml version="1.0" encoding="utf-8"?>
<svg width="256" height="256" viewBox="0 0 256 256" fill="none" xmlns="http://www.w3.org/2000/svg">
  <path d="M 191.757 16.238 C 192.764 15.864 193.722 15.89 194.517 16.613 C 194.517 16.613 197.862 19.884 199.197 21.288 C 201.866 24.092 205.424 28.082 208.975 32.817 C 215.966 42.143 223.374 54.943 223.122 67.495 C 222.87 80.031 216.945 88.157 210.203 92.895 C 206.87 95.238 203.351 96.747 200.234 97.587 C 197.204 98.403 194.262 98.663 192.144 98.199 C 190.44 97.827 189.253 96.684 188.466 95.576 C 187.671 94.456 187.08 93.095 186.623 91.718 C 185.705 88.953 185.134 85.533 184.768 82.32 C 184.425 79.312 184.248 76.355 184.155 74.057 C 179.382 76.069 174.561 77.034 168.15 75.811 C 167.166 75.624 166.351 74.937 166 73.999 C 165.583 72.884 165.173 71.811 164.775 70.768 C 161.524 62.251 159.059 55.795 159.714 46.045 C 159.772 45.19 160.208 44.406 160.905 43.906 C 161.601 43.406 162.485 43.244 163.313 43.464 C 168.27 44.778 175.315 47.254 179.902 48.867 C 182.584 49.809 184.425 50.457 184.518 50.404 C 184.771 50.26 186.012 43.886 186.629 40.218 C 187.866 32.868 189.222 24.268 189.908 18.584 C 190.037 17.518 190.75 16.612 191.757 16.238 Z" fill="black"/>
  <path fill-rule="evenodd" clip-rule="evenodd" d="M 126.238 87.744 C 127.21 86.775 128.526 86.231 129.898 86.231 L 160.819 86.231 C 163.682 86.231 166.003 88.552 166.003 91.415 L 166.003 102.246 L 176.649 102.246 C 179.512 102.246 181.833 104.567 181.833 107.431 L 181.833 136.534 L 194.084 146.003 C 197.476 143.854 201.498 142.609 205.811 142.609 C 217.928 142.609 227.751 152.433 227.751 164.55 C 227.751 176.668 217.928 186.491 205.811 186.491 C 193.693 186.491 183.87 176.668 183.87 164.55 C 183.87 160.593 184.918 156.88 186.751 153.674 L 176.552 145.791 L 84.134 238.476 C 82.175 240.441 79.018 240.515 76.969 238.646 L 68.851 231.242 L 63.823 235.723 C 61.779 237.545 58.672 237.463 56.726 235.537 L 32.62 211.242 C 30.693 209.193 30.751 205.981 32.752 204.004 L 37.271 199.536 L 29.597 191.087 C 27.734 189.037 27.812 185.886 29.773 183.93 L 126.238 87.744 Z M 171.465 112.615 L 160.078 112.615 C 157.215 112.615 155.634 110.294 155.634 107.431 L 155.634 96.599 L 132.041 96.599 L 72.272 156.196 L 112.083 195.761 L 171.465 136.208 L 171.465 112.615 Z M 103.062 204.808 L 63.225 165.217 L 57.438 170.987 L 97.292 210.595 L 103.062 204.808 Z M 40.599 187.779 L 48.392 180.008 L 88.272 219.641 L 80.292 227.644 L 72.384 220.431 C 70.421 218.641 67.424 218.624 65.441 220.392 L 60.56 224.742 L 45.92 210.249 L 43.637 207.822 L 48.095 203.416 C 50.071 201.463 50.156 198.299 48.288 196.243 L 40.599 187.779 Z M 215.716 164.55 C 215.716 170.021 211.282 174.456 205.811 174.456 C 200.34 174.456 195.905 170.021 195.905 164.55 C 195.905 159.079 200.34 154.644 205.811 154.644 C 211.282 154.644 215.716 159.079 215.716 164.55 Z" fill="black"/>
</svg>
