<?xml version="1.0" encoding="utf-8"?>
<svg width="256" height="256" viewBox="0 0 256 256" fill="none" xmlns="http://www.w3.org/2000/svg">
  <path d="M 105.702 61.644 C 107.734 61.644 109.382 59.714 109.382 57.332 C 109.382 54.951 107.734 53.021 105.702 53.021 C 103.669 53.021 102.021 54.951 102.021 57.332 C 102.021 59.714 103.669 61.644 105.702 61.644 Z" fill="black"/>
  <path d="M 68.687 77.624 C 66.38 78.212 64.102 77.092 63.6 75.122 C 63.098 73.152 64.561 71.079 66.869 70.491 C 69.176 69.903 71.454 71.023 71.956 72.992 C 72.458 74.962 70.995 77.036 68.687 77.624 Z" fill="black"/>
  <path d="M 94.239 88.25 C 94.239 90.631 92.591 92.561 90.559 92.561 C 88.526 92.561 86.878 90.631 86.878 88.25 C 86.878 85.868 88.526 83.938 90.559 83.938 C 92.591 83.938 94.239 85.868 94.239 88.25 Z" fill="black"/>
  <path d="M 155.375 57.046 C 155.832 59.383 154.585 61.594 152.59 61.984 C 150.595 62.375 148.607 60.797 148.15 58.46 C 147.693 56.123 148.939 53.912 150.934 53.522 C 152.929 53.131 154.917 54.709 155.375 57.046 Z" fill="black"/>
  <path d="M 165.012 91.299 C 167.045 91.299 168.693 89.369 168.693 86.988 C 168.693 84.606 167.045 82.676 165.012 82.676 C 162.98 82.676 161.332 84.606 161.332 86.988 C 161.332 89.369 162.98 91.299 165.012 91.299 Z" fill="black"/>
  <path d="M 190.668 70.898 C 191.999 72.872 191.712 75.394 190.026 76.53 C 188.341 77.666 185.895 76.987 184.564 75.013 C 183.233 73.038 183.52 70.517 185.205 69.38 C 186.891 68.244 189.336 68.923 190.668 70.898 Z" fill="black"/>
  <path d="M 203.907 116.281 C 205.593 115.144 205.88 112.623 204.549 110.648 C 203.218 108.674 200.772 107.995 199.087 109.131 C 197.401 110.267 197.114 112.789 198.445 114.764 C 199.777 116.738 202.222 117.417 203.907 116.281 Z" fill="black"/>
  <path d="M 186.459 137.945 C 186.459 140.326 184.811 142.256 182.778 142.256 C 180.746 142.256 179.098 140.326 179.098 137.945 C 179.098 135.563 180.746 133.633 182.778 133.633 C 184.811 133.633 186.459 135.563 186.459 137.945 Z" fill="black"/>
  <path d="M 46.601 157.13 C 48.634 157.13 50.282 155.2 50.282 152.818 C 50.282 150.437 48.634 148.507 46.601 148.507 C 44.569 148.507 42.921 150.437 42.921 152.818 C 42.921 155.2 44.569 157.13 46.601 157.13 Z" fill="black"/>
  <path d="M 57.117 112.752 C 54.736 112.752 52.806 111.104 52.806 109.071 C 52.806 107.039 54.736 105.391 57.117 105.391 C 59.499 105.391 61.429 107.039 61.429 109.071 C 61.429 111.104 59.499 112.752 57.117 112.752 Z" fill="black"/>
  <path d="M 64.794 137.255 C 64.794 139.287 66.724 140.935 69.106 140.935 C 71.487 140.935 73.417 139.287 73.417 137.255 C 73.417 135.222 71.487 133.574 69.106 133.574 C 66.724 133.574 64.794 135.222 64.794 137.255 Z" fill="black"/>
  <path d="M 202.66 156.499 C 200.279 156.499 198.349 154.851 198.349 152.818 C 198.349 150.786 200.279 149.138 202.66 149.138 C 205.041 149.138 206.972 150.786 206.972 152.818 C 206.972 154.851 205.041 156.499 202.66 156.499 Z" fill="black"/>
  <path d="M 140.931 79.206 C 140.931 86.582 134.951 92.561 127.575 92.561 C 120.199 92.561 114.22 86.582 114.22 79.206 C 114.22 71.83 120.199 65.85 127.575 65.85 C 134.951 65.85 140.931 71.83 140.931 79.206 Z" fill="black"/>
  <path fill-rule="evenodd" clip-rule="evenodd" d="M 111.442 97.749 C 111.58 97.658 111.741 97.609 111.907 97.609 L 141.667 97.609 C 141.839 97.609 142.006 97.661 142.147 97.759 L 173.169 119.317 C 173.381 119.464 173.513 119.7 173.529 119.957 C 173.545 120.213 173.442 120.463 173.25 120.635 L 147.171 143.981 C 146.979 144.152 146.72 144.226 146.467 144.183 L 142.192 143.224 C 142.677 146.276 143.293 150.158 143.987 154.543 C 145.677 165.211 147.834 178.86 149.699 190.777 C 150.165 193.761 148.125 196.559 145.141 197.026 C 142.157 197.492 139.36 195.452 138.893 192.468 C 137.03 180.56 134.875 166.92 133.185 156.255 C 132.34 150.922 131.612 146.334 131.095 143.08 C 131.026 142.643 130.96 142.23 130.899 141.842 L 130.721 140.725 L 125.404 140.725 L 124.219 140.992 C 124.188 141.176 124.155 141.366 124.122 141.561 L 124.051 141.973 C 123.476 145.343 122.669 150.084 121.746 155.57 C 119.9 166.546 117.591 180.481 115.731 192.363 C 115.265 195.347 112.467 197.387 109.484 196.92 C 106.5 196.454 104.459 193.656 104.926 190.672 C 106.795 178.728 109.113 164.744 110.961 153.756 C 111.604 149.937 112.19 146.479 112.681 143.59 L 110.049 144.183 C 109.795 144.226 109.536 144.151 109.345 143.978 C 104.818 139.89 98.273 133.861 92.87 128.79 C 90.168 126.255 87.749 123.956 86.008 122.258 C 85.139 121.41 84.434 120.706 83.946 120.195 C 83.703 119.941 83.504 119.725 83.364 119.557 C 83.295 119.476 83.226 119.389 83.171 119.305 C 83.144 119.266 83.105 119.204 83.071 119.13 L 83.07 119.127 C 83.051 119.086 82.954 118.876 82.998 118.608 C 83.033 118.4 83.138 118.256 83.16 118.226 L 83.162 118.223 C 83.201 118.168 83.242 118.122 83.272 118.089 C 83.335 118.022 83.411 117.95 83.488 117.88 C 83.647 117.738 83.867 117.553 84.135 117.337 C 84.673 116.901 85.443 116.304 86.387 115.589 C 88.277 114.156 90.885 112.229 93.79 110.121 C 99.597 105.905 106.607 100.949 111.442 97.749 Z M 114.851 112.226 C 114.851 111.721 114.572 111.257 114.126 111.019 C 113.679 110.782 113.139 110.81 112.719 111.093 L 98.838 120.452 C 98.47 120.7 98.246 121.111 98.236 121.555 C 98.226 121.998 98.431 122.419 98.787 122.683 L 112.669 132.989 C 113.084 133.297 113.636 133.345 114.098 133.113 C 114.56 132.881 114.851 132.408 114.851 131.891 L 114.851 112.226 Z M 139.879 112.226 C 139.879 111.721 140.158 111.257 140.604 111.019 C 141.05 110.782 141.591 110.81 142.01 111.093 L 155.892 120.452 C 156.259 120.7 156.484 121.111 156.494 121.555 C 156.504 121.998 156.298 122.419 155.942 122.683 L 142.061 132.989 C 141.646 133.297 141.093 133.345 140.632 133.113 C 140.17 132.881 139.879 132.408 139.879 131.891 L 139.879 112.226 Z" fill="black"/>
  <path fill-rule="evenodd" clip-rule="evenodd" d="M 237.294 194.993 C 237.282 195.075 237.269 195.154 237.257 195.231 C 237.257 195.29 237.259 195.349 237.259 195.408 C 237.259 215.736 187.728 232.214 126.629 232.214 C 65.53 232.214 16 215.736 16 195.408 C 16 193.194 16.587 191.026 17.713 188.92 C 17.678 188.651 17.637 188.328 17.591 187.953 C 17.442 186.732 17.243 184.96 17.037 182.717 C 16.625 178.231 16.184 171.847 16.059 164.194 C 15.812 148.924 16.822 128.43 21.942 107.831 C 27.056 87.253 36.362 66.205 52.978 50.271 C 69.716 34.218 93.426 23.786 126.418 23.786 C 161.578 23.786 186.538 34.627 203.907 51.364 C 221.158 67.987 230.433 89.951 235.235 111.424 C 240.044 132.915 240.46 154.294 239.7 170.218 C 239.32 178.2 238.641 184.858 238.055 189.535 C 237.763 191.874 237.492 193.721 237.294 194.993 Z M 98.656 159.789 C 67.423 162.496 41.563 169.63 27.49 179.056 C 27.174 175.061 26.88 169.94 26.784 164.02 C 26.546 149.299 27.533 129.806 32.352 110.418 C 37.175 91.008 45.746 72.068 60.402 58.012 C 74.937 44.074 95.893 34.512 126.418 34.512 C 159.193 34.512 181.359 44.532 196.464 59.088 C 211.688 73.757 220.239 93.516 224.768 113.765 C 229.295 133.997 229.718 154.34 228.986 169.707 C 228.791 173.808 228.513 177.541 228.213 180.808 C 214.833 170.518 187.741 162.661 154.602 159.789 L 154.602 186.683 C 165.454 188.907 172.479 192.458 172.479 196.46 C 172.479 203.197 152.563 208.659 127.996 208.659 C 103.429 208.659 83.513 203.197 83.513 196.46 C 83.513 192.805 89.373 189.526 98.656 187.291 L 98.656 159.789 Z" fill="black"/>
</svg>
