<?xml version="1.0" encoding="utf-8"?>
<svg width="256" height="256" viewBox="0 0 256 256" fill="none" xmlns="http://www.w3.org/2000/svg">
  <path d="M 207.005 97.345 C 207.005 96.757 206.8 96.216 206.588 95.792 C 206.477 95.568 206.343 95.341 206.195 95.111 C 206.109 94.978 206.017 94.844 205.92 94.709 C 205.851 94.612 205.779 94.515 205.704 94.418 C 204.996 93.486 203.989 92.407 202.755 91.22 C 200.276 88.84 196.734 85.894 192.42 82.63 C 183.783 76.094 171.937 68.195 159.044 60.865 C 146.157 53.539 132.174 46.75 119.269 42.465 C 106.443 38.207 96.544 37.728 87.645 40.574 C 87.141 40.735 86.749 41.134 86.596 41.64 C 86.443 42.146 86.549 42.695 86.879 43.108 C 89.602 46.511 91.228 48.139 95.602 51.065 C 99.718 53.819 104.429 56.525 109.338 59.345 L 110.273 59.883 C 119.97 65.457 130.406 71.554 139.221 79.617 C 122.615 82.784 110.173 87.791 100.728 96.765 C 90.858 106.143 84.457 119.666 79.784 139.337 C 60.409 144.867 46.023 150.012 35.759 155.864 C 25.292 161.832 18.975 168.616 16.081 177.411 C 15.904 177.947 16.022 178.536 16.391 178.963 C 16.759 179.391 17.325 179.593 17.881 179.497 C 43.532 175.061 57.946 169.91 78.855 162.438 L 82.268 161.219 C 83.644 160.728 85.05 160.228 86.49 159.717 C 86.618 159.672 86.74 159.61 86.853 159.534 C 93.037 155.357 99.604 150.03 105.448 145.289 L 105.458 145.28 L 105.461 145.278 L 105.7 145.083 C 106.673 144.295 107.624 143.523 108.55 142.776 C 111.846 140.119 114.803 137.788 117.24 136.098 C 118.459 135.252 119.515 134.59 120.394 134.131 C 121.309 133.655 121.889 133.476 122.194 133.45 C 122.523 133.421 123.127 133.491 124.039 133.761 C 124.918 134.022 125.965 134.433 127.128 134.973 C 129.452 136.051 132.134 137.594 134.698 139.312 C 137.265 141.032 139.666 142.896 141.445 144.603 C 142.05 145.183 142.569 145.732 142.993 146.238 C 143.069 146.33 143.143 146.42 143.213 146.508 C 143.327 146.652 143.432 146.792 143.53 146.928 C 143.838 147.358 144.023 147.698 144.128 147.949 C 144.193 148.104 144.227 148.225 144.241 148.314 C 144.239 148.333 144.228 148.431 144.152 148.634 C 144.048 148.908 143.862 149.271 143.573 149.735 C 142.992 150.669 142.126 151.808 141.051 153.186 L 140.494 153.898 C 138.466 156.489 135.949 159.705 133.89 163.3 C 131.636 167.236 129.847 171.764 129.858 176.62 C 129.869 181.533 131.723 186.599 136.422 191.553 C 137.029 192.192 138.037 192.224 138.682 191.624 C 148.469 182.527 154.565 175.047 160.346 167.448 C 161.437 166.013 162.515 164.577 163.604 163.128 L 163.671 163.037 L 163.715 162.979 C 168.355 156.797 173.193 150.35 180.032 142.655 C 180.449 142.187 180.555 141.518 180.303 140.944 C 177.766 135.149 170.941 128.258 166.032 123.302 C 162.716 119.955 160.274 117.49 160.62 116.842 C 161.188 115.777 169.271 113.601 177.023 111.515 C 180.97 110.453 184.832 109.413 187.572 108.555 L 187.904 108.451 L 187.959 108.434 C 188.617 108.228 189.267 108.024 189.907 107.822 C 194.47 106.383 198.588 105.022 201.568 103.537 C 203.058 102.793 204.371 101.969 205.33 101.007 C 206.307 100.028 207.005 98.81 207.005 97.345 Z" fill="black"/>
  <path d="M 16.964 209.292 C 16.964 204.914 20.513 201.365 24.892 201.365 L 45.353 201.365 C 49.731 201.365 53.28 204.914 53.28 209.292 C 53.28 213.67 49.731 217.219 45.353 217.219 L 24.892 217.219 C 20.513 217.219 16.964 213.67 16.964 209.292 Z" fill="black"/>
  <path d="M 203.684 209.292 C 203.684 204.914 207.233 201.365 211.612 201.365 L 232.072 201.365 C 236.451 201.365 240 204.914 240 209.292 C 240 213.67 236.451 217.219 232.072 217.219 L 211.612 217.219 C 207.233 217.219 203.684 213.67 203.684 209.292 Z" fill="black"/>
  <path d="M 75.562 201.365 C 71.184 201.365 67.635 204.914 67.635 209.292 C 67.635 213.67 71.184 217.219 75.562 217.219 L 190.829 217.219 C 195.208 217.219 198.758 213.67 198.758 209.292 C 198.758 204.914 195.208 201.365 190.829 201.365 L 75.562 201.365 Z" fill="black"/>
  <path d="M 217.718 90.168 C 229.255 90.168 238.608 80.815 238.608 69.278 C 238.608 57.742 229.255 48.389 217.718 48.389 C 206.181 48.389 196.829 57.742 196.829 69.278 C 196.829 80.815 206.181 90.168 217.718 90.168 Z" fill="black"/>
</svg>
