<?xml version="1.0" encoding="utf-8"?>
<svg width="256" height="256" viewBox="0 0 256 256" fill="none" xmlns="http://www.w3.org/2000/svg">
  <path d="M 128.155 18.21 C 124.09 18.191 119.952 18.379 115.746 18.779 C 115.079 18.795 114.41 18.808 113.744 18.835 C 103.959 19.237 94.257 20.903 84.934 23.955 C 60.073 32.091 38.007 50.266 24.971 79.971 C 2.004 132.308 26.038 184.093 64.186 209.936 C 83.26 222.858 105.988 229.474 128.321 226.438 C 150.653 223.403 172.39 210.544 188.908 185.6 C 201.413 166.715 199.775 146.368 187.205 135.633 C 174.634 124.897 152.802 124.946 128.505 141.769 C 116.192 150.294 105.849 151.589 97.361 149.268 C 88.873 146.947 81.944 140.71 77.487 132.954 C 73.03 125.198 71.219 116.024 72.551 108.7 C 73.751 102.103 76.987 97.074 83.553 94.454 C 102.667 93.484 109.342 109.781 103.358 121.353 L 103.359 121.353 C 121.35 110.726 113.392 94.537 99.348 90.34 C 117.559 88.883 125.661 101.928 126.402 111.23 C 133.167 99.25 127.531 84.988 108.549 82.129 C 117.179 78.414 135.004 82.705 141.944 91.978 C 141.468 67.11 102.521 68.245 78.748 86.93 C 70.372 90.996 65.361 98.695 63.83 107.114 C 62.033 116.998 64.391 127.954 69.802 137.37 C 75.213 146.784 83.849 154.761 95.023 157.817 C 106.196 160.872 119.612 158.706 133.551 149.055 C 155.866 133.604 172.762 134.953 181.449 142.371 C 190.135 149.79 192.283 164.449 181.518 180.705 C 166.184 203.862 146.952 214.96 127.127 217.655 C 107.303 220.35 86.686 214.472 69.157 202.597 C 34.1 178.847 11.893 131.829 33.089 83.531 C 45.191 55.952 65.032 39.792 87.691 32.376 C 104.594 26.844 123.124 26.282 140.973 29.924 C 190.262 42.125 218.966 78.629 221.697 112.599 C 223.641 111.903 225.705 111.495 227.827 111.423 C 229.176 111.378 230.549 111.468 231.928 111.704 C 234.297 112.11 236.5 112.918 238.483 114.043 C 235.077 66.269 190.282 18.504 128.155 18.21 Z M 228.67 120.274 C 228.477 120.27 228.284 120.271 228.093 120.277 C 222.721 120.436 218.097 124.314 217.151 129.839 C 216.729 132.304 217.108 134.702 218.101 136.776 C 219.473 136.422 220.878 136.254 222.29 136.262 C 224.278 136.272 226.277 136.622 228.203 137.254 C 230.653 138.058 233.023 139.419 235.071 141.247 C 237.506 139.554 239.282 136.914 239.829 133.724 C 240.91 127.409 236.744 121.523 230.431 120.442 C 229.839 120.34 229.251 120.285 228.67 120.274 Z M 222.263 145.151 C 221.258 145.146 220.343 145.299 219.618 145.578 C 218.206 146.121 217.425 146.822 216.987 148.555 C 214.57 177.091 196.524 200.953 174.309 223.052 C 173.799 225.079 174.069 226.666 174.943 228.348 C 175.935 230.259 177.86 232.215 180.296 233.814 C 184.348 236.473 189.852 237.675 192.61 237.791 C 200.319 225.88 209.396 209.558 216.997 194.295 C 224.921 178.385 231.235 163.321 232.586 157.232 C 233.43 150.549 229.725 147.081 225.44 145.674 C 224.359 145.319 223.265 145.155 222.262 145.15 L 222.263 145.151 Z" fill="black"/>
</svg>
