<?xml version="1.0" encoding="utf-8"?>
<svg width="256" height="256" viewBox="0 0 256 256" fill="none" xmlns="http://www.w3.org/2000/svg">
  <path d="M 84.583 17.172 C 77.05 15.464 67.525 15.282 58.294 18.952 C 48.939 22.672 40.266 30.204 34.432 43.206 C 28.115 57.283 26.931 70.425 29.913 81.939 C 32.891 93.44 39.922 102.917 49.344 109.844 C 68.094 123.629 96.453 127.496 123.24 117.854 C 125.68 116.975 126.946 114.285 126.068 111.844 C 125.19 109.404 122.499 108.138 120.059 109.016 C 95.827 117.739 70.82 113.975 54.907 102.276 C 46.998 96.461 41.374 88.734 39.005 79.585 C 36.64 70.449 37.417 59.497 43.001 47.052 C 47.892 36.153 54.803 30.448 61.764 27.68 C 68.851 24.863 76.378 24.943 82.507 26.332 C 92.244 28.54 101.07 35.948 108.223 45.437 C 115.327 54.86 120.313 65.726 122.572 73.724 C 123.785 78.016 124.963 83.417 126.318 89.621 L 126.318 89.622 L 126.318 89.624 C 126.704 91.39 127.103 93.22 127.521 95.109 C 129.386 103.524 131.59 112.894 134.497 122.048 C 139.361 137.365 146.498 153.125 158.286 162.526 L 143.202 181.264 C 140.873 184.157 141.33 188.39 144.223 190.719 C 147.116 193.047 151.349 192.59 153.677 189.697 L 170.862 168.35 C 172.96 165.744 172.796 162.049 170.627 159.64 C 170.367 159.325 170.062 159.041 169.716 158.798 C 169.206 158.407 168.658 158.1 168.087 157.875 C 156.541 151.243 148.934 136.478 143.449 119.206 C 140.675 110.469 138.544 101.435 136.691 93.076 C 136.297 91.298 135.914 89.54 135.538 87.818 L 135.537 87.815 L 135.537 87.814 L 135.537 87.813 L 135.537 87.812 L 135.537 87.81 C 134.171 81.55 132.908 75.763 131.611 71.171 C 129.042 62.077 123.542 50.155 115.723 39.783 C 107.954 29.476 97.42 20.082 84.583 17.172 Z" fill="black"/>
  <path d="M 19.942 122.525 C 20.341 122.327 20.818 122.371 21.173 122.64 C 21.345 122.769 21.859 123.158 22.191 123.409 C 22.855 123.911 23.829 124.647 25.07 125.584 C 27.551 127.457 31.097 130.134 35.358 133.346 C 43.879 139.769 55.259 148.334 66.691 156.898 C 78.125 165.463 89.608 174.026 98.34 180.447 C 102.706 183.658 106.379 186.33 109.012 188.198 C 110.33 189.133 111.379 189.86 112.12 190.351 C 112.463 190.578 112.728 190.747 112.918 190.86 C 113.06 190.806 113.244 190.725 113.471 190.615 C 113.997 190.362 114.683 189.99 115.488 189.53 C 117.095 188.61 119.103 187.379 121.128 186.136 L 121.333 186.011 C 123.281 184.814 125.233 183.616 126.808 182.707 C 127.621 182.238 128.353 181.835 128.942 181.546 C 129.236 181.402 129.513 181.277 129.759 181.185 C 129.964 181.109 130.287 180.999 130.615 180.999 C 130.935 180.999 131.199 181.116 131.32 181.172 C 131.475 181.245 131.63 181.338 131.774 181.432 C 132.065 181.622 132.408 181.883 132.783 182.189 C 133.539 182.804 134.509 183.67 135.608 184.698 C 137.81 186.757 140.583 189.514 143.294 192.325 C 146.005 195.136 148.667 198.016 150.643 200.321 C 151.629 201.471 152.46 202.496 153.044 203.306 C 153.333 203.709 153.581 204.084 153.758 204.411 C 153.846 204.574 153.93 204.75 153.992 204.93 C 154.045 205.086 154.125 205.361 154.089 205.678 C 154.049 206.042 153.869 206.412 153.741 206.658 C 153.585 206.957 153.375 207.307 153.129 207.692 C 152.634 208.465 151.947 209.442 151.133 210.542 C 149.504 212.746 147.33 215.493 145.084 218.176 C 142.839 220.857 140.504 223.492 138.553 225.466 C 137.58 226.45 136.68 227.291 135.922 227.895 C 135.544 228.195 135.176 228.457 134.832 228.65 C 134.527 228.821 134.085 229.03 133.603 229.03 C 133.406 229.03 133.215 228.985 133.119 228.961 C 132.992 228.929 132.846 228.887 132.691 228.838 C 132.378 228.739 131.973 228.597 131.488 228.419 C 130.517 228.063 129.181 227.543 127.54 226.887 C 124.255 225.573 119.714 223.698 114.347 221.451 C 103.61 216.956 89.548 210.964 75.571 204.973 C 61.594 198.982 47.701 192.991 37.302 188.498 C 32.103 186.251 27.777 184.379 24.751 183.069 C 23.238 182.413 22.05 181.899 21.24 181.547 C 20.9 181.4 20.402 181.184 20.128 181.065 L 19.998 181.009 C 19.537 180.808 19.291 180.4 19.291 179.932 L 19.291 123.576 C 19.291 123.131 19.543 122.724 19.942 122.525 Z" fill="black"/>
  <path d="M 116.883 239.36 C 120.153 240.923 122.848 239.448 124.104 236.82 C 125.361 234.191 124.704 231.404 121.433 229.841 C 118.163 228.277 115.648 229.388 114.391 232.017 C 113.135 234.645 113.612 237.797 116.883 239.36 Z" fill="black"/>
  <path d="M 47.92 113.981 C 48.069 113.838 48.298 113.822 48.465 113.942 C 66.596 126.983 86.325 127.762 101.856 126.511 C 105.738 126.198 109.355 125.759 112.62 125.354 L 113.281 125.271 L 113.282 125.271 C 116.276 124.899 118.967 124.564 121.267 124.4 C 123.726 124.224 125.789 124.239 127.32 124.636 C 128.091 124.836 128.751 125.138 129.263 125.582 C 129.78 126.032 130.125 126.611 130.284 127.324 C 130.622 128.836 129.698 130.211 128.102 131.363 C 126.49 132.525 124.071 133.56 121.084 134.407 C 115.1 136.104 106.72 137.084 97.633 136.769 C 79.486 136.141 58.331 130.338 47.86 114.524 C 47.746 114.353 47.772 114.124 47.92 113.981 Z" fill="black"/>
  <path d="M 66.156 91.296 C 66.005 91.204 65.813 91.215 65.673 91.323 C 65.533 91.432 65.474 91.615 65.525 91.784 C 67.233 97.459 72.096 101.275 78.233 103.65 C 84.374 106.027 91.86 106.992 98.959 106.924 C 106.057 106.857 112.811 105.759 117.493 103.978 C 119.829 103.09 121.693 102.015 122.816 100.776 C 123.381 100.153 123.77 99.474 123.924 98.745 C 124.078 98.011 123.987 97.256 123.638 96.499 C 122.97 95.049 122.017 94.159 120.786 93.722 C 119.577 93.293 118.148 93.317 116.551 93.582 C 114.951 93.847 113.13 94.363 111.119 94.963 C 110.772 95.066 110.42 95.172 110.062 95.28 L 110.056 95.282 L 110.055 95.282 C 108.327 95.801 106.461 96.362 104.452 96.878 C 94.768 99.369 81.822 100.823 66.156 91.296 Z" fill="black"/>
  <path d="M 180.012 51.751 C 179.87 51.722 179.723 51.767 179.622 51.87 C 179.52 51.974 179.478 52.121 179.509 52.262 L 182.523 65.772 L 141.035 80.907 C 140.838 80.979 140.723 81.183 140.762 81.389 C 141.406 84.732 141.996 87.767 142.588 90.62 L 185.006 71.348 C 186.616 70.617 188.514 71.329 189.245 72.939 C 189.977 74.549 189.265 76.447 187.655 77.179 L 144.002 97.011 C 144.919 100.867 145.935 104.545 147.222 108.436 C 147.263 108.415 147.306 108.395 147.349 108.376 L 191.644 88.63 C 193.259 87.91 195.152 88.635 195.872 90.251 C 196.592 91.866 195.867 93.759 194.251 94.479 L 149.957 114.225 C 149.76 114.313 149.559 114.379 149.356 114.425 C 150.227 116.713 151.205 119.122 152.316 121.715 C 152.362 121.822 152.45 121.906 152.559 121.946 C 152.668 121.987 152.789 121.982 152.894 121.932 L 199.655 99.503 L 204.825 112.737 C 204.883 112.886 205.021 112.991 205.181 113.006 C 205.341 113.022 205.496 112.946 205.583 112.81 L 236.642 63.926 C 236.717 63.807 236.73 63.659 236.675 63.53 C 236.62 63.401 236.505 63.307 236.367 63.279 L 180.012 51.751 Z" fill="black"/>
</svg>
