<?xml version="1.0" encoding="utf-8"?>
<svg width="256" height="256" viewBox="0 0 256 256" fill="none" xmlns="http://www.w3.org/2000/svg">
  <path fill-rule="evenodd" clip-rule="evenodd" d="M 74.4 17.233 C 70.732 16.825 66.631 16.365 64.519 16.136 C 64.519 16.136 63.452 16 63.144 16 C 62.663 16 60.555 16.077 59.888 16.632 C 59.222 17.186 58.808 17.988 58.742 18.853 C 56.652 46.321 53.148 61.573 46.457 89.797 C 41.655 108.593 34.327 119.447 21.224 137.614 C 20.532 138.573 20.424 139.836 20.944 140.898 C 21.463 141.961 22.526 142.651 23.708 142.694 L 80.176 144.752 C 73.722 151.205 68.263 156.109 62.38 160.369 C 55.101 165.639 47.07 169.998 35.551 175.032 C 34.302 175.579 33.534 176.855 33.638 178.214 C 33.741 179.574 34.693 180.719 36.01 181.07 C 61.189 187.772 79.008 195.317 91.728 204.491 C 93.495 205.764 95.165 207.071 96.744 208.414 L 99.116 210.52 C 107.499 218.296 113.099 227.251 116.92 237.877 C 117.519 239.544 119.356 240.41 121.022 239.81 C 122.689 239.211 123.554 237.374 122.955 235.707 C 118.898 224.424 112.934 214.793 104.145 206.444 C 106.287 203.106 108.223 200.518 110.461 198.197 C 112.297 196.294 114.384 194.522 117.033 192.661 C 117.2 193.544 117.369 194.425 117.538 195.304 C 119.366 204.796 121.307 213.833 123.543 220.732 C 124.657 224.172 125.894 227.236 127.309 229.603 C 128.653 231.852 130.526 234.098 133.184 234.841 C 134.41 235.184 135.639 234.993 136.678 234.39 C 137.612 233.848 138.254 233.058 138.694 232.365 C 139.563 230.996 140.177 229.146 140.656 227.178 C 141.636 223.148 142.332 217.383 142.83 210.604 C 143.583 200.353 143.91 187.403 143.98 173.779 L 181.66 174.114 C 182.517 174.048 183.343 173.64 183.918 172.923 C 183.931 172.907 189.825 164.948 194.01 159.295 L 194.273 158.94 L 194.283 158.927 C 196.451 155.998 198.097 153.775 198.104 153.767 C 198.513 153.215 198.734 152.546 198.734 151.859 L 198.734 133.559 C 198.858 133.27 199.02 132.891 199.208 132.445 C 199.65 131.398 200.241 129.972 200.827 128.471 C 201.41 126.978 202.006 125.368 202.45 123.963 C 202.671 123.264 202.869 122.568 203.008 121.937 C 203.127 121.393 203.277 120.586 203.212 119.8 C 203.144 118.982 202.792 118.049 202.56 117.456 C 202.268 116.707 201.877 115.812 201.436 114.852 C 200.552 112.925 199.403 110.593 198.274 108.358 C 197.729 107.278 197.185 106.215 196.673 105.223 L 231.534 105.223 C 233.66 105.223 235.383 103.5 235.383 101.375 C 235.383 99.25 233.66 97.527 231.534 97.527 L 194.2 97.527 C 194.038 75.969 186.249 59.591 177.012 48.092 C 167.337 36.047 155.955 29.211 149.908 27.387 C 146.96 26.497 139.902 25.355 131.344 24.153 C 122.653 22.933 112.08 21.611 101.856 20.39 C 91.628 19.169 81.735 18.048 74.4 17.233 Z M 88.864 145.069 C 80.449 153.732 73.674 160.109 66.141 165.563 C 60.252 169.827 53.962 173.484 46.144 177.242 C 67.383 183.473 83.41 190.584 95.48 199.289 C 96.79 200.233 98.052 201.196 99.268 202.177 C 101.362 198.981 103.421 196.258 105.845 193.745 C 108.584 190.905 111.713 188.411 115.754 185.789 C 114.743 180.28 113.178 171.759 112.131 166.52 C 111.748 164.604 111.374 162.52 111 160.434 L 111 160.433 C 109.782 153.646 108.56 146.839 107.019 145.73 C 105.003 144.281 88.864 145.069 88.864 145.069 Z M 172.012 52.108 C 180.449 62.611 187.624 77.601 187.786 97.527 L 181.174 97.527 C 178.392 94.327 173.59 92.213 168.131 92.213 C 159.529 92.213 152.555 97.464 152.555 103.94 C 152.555 110.417 159.529 115.668 168.131 115.668 C 176.158 115.668 182.766 111.097 183.615 105.223 L 189.446 105.223 L 189.496 105.319 C 190.327 106.908 191.436 109.047 192.55 111.25 C 193.666 113.46 194.773 115.709 195.607 117.526 C 196.025 118.439 196.359 119.207 196.587 119.791 C 196.69 120.054 196.752 120.232 196.788 120.341 C 196.706 120.712 196.525 121.426 196.334 122.032 C 195.953 123.239 195.415 124.698 194.853 126.137 C 194.294 127.568 193.728 128.936 193.299 129.951 L 192.591 131.603 C 192.412 132.009 192.32 132.449 192.32 132.893 C 192.32 132.893 192.686 149.199 192.32 150.801 C 191.953 152.403 179.812 167.694 179.812 167.694 L 143.995 167.366 C 143.994 164.98 143.986 162.583 143.972 160.186 C 143.863 141.761 143.397 123.245 142.958 109.34 C 142.739 102.386 142.526 96.582 142.368 92.516 C 142.368 92.516 142.123 86.357 142.11 86.074 C 141.929 84.323 140.531 82.976 138.762 83.054 C 136.992 83.132 135.621 84.63 135.7 86.399 C 135.7 86.399 135.881 90.738 135.96 92.765 C 136.117 96.818 136.329 102.606 136.548 109.542 C 136.986 123.417 137.45 141.874 137.558 160.224 C 137.666 178.594 137.415 196.776 136.433 210.134 L 136.415 210.385 L 136.375 210.933 L 136.374 210.953 C 135.896 217.494 135.344 225.059 133.498 225.059 C 131.675 225.059 130.793 222.321 129.81 219.269 C 129.755 219.098 129.699 218.927 129.644 218.755 C 127.543 212.271 123.35 191.178 121.522 181.689 C 120.496 176.102 119.467 170.499 118.42 165.264 C 116.583 156.068 114.61 147.556 112.309 141.471 C 111.852 140.263 110.716 139.447 109.426 139.4 L 29.915 136.503 C 41.026 120.902 48.026 109.586 52.678 91.357 C 52.681 91.347 52.683 91.338 52.685 91.328 C 52.687 91.32 52.689 91.312 52.691 91.304 C 59.133 64.128 62.713 48.612 64.875 22.638 L 64.898 22.641 C 67.006 22.87 70.03 23.2 73.691 23.607 C 81.016 24.421 90.891 25.54 101.095 26.758 C 111.303 27.977 121.826 29.294 130.452 30.505 C 139.211 31.734 145.69 32.813 148.056 33.527 C 152.637 34.91 162.987 40.872 172.012 52.108 Z" fill="black"/>
</svg>
