<?xml version="1.0" encoding="utf-8"?>
<svg width="256" height="256" viewBox="0 0 256 256" fill="none" xmlns="http://www.w3.org/2000/svg">
  <path d="M 179.297 21.302 C 180.385 19.819 180.065 17.734 178.581 16.645 C 177.097 15.557 175.012 15.878 173.923 17.362 L 168.285 25.051 C 167.197 26.535 167.518 28.62 169.001 29.708 C 170.485 30.796 172.57 30.475 173.659 28.991 L 179.297 21.302 Z" fill="black"/>
  <path d="M 109.479 23.243 C 105.538 25.999 100.35 30.745 94.802 36.409 C 93.911 37.319 92.45 37.334 91.54 36.443 C 90.63 35.551 90.615 34.091 91.506 33.181 C 97.1 27.471 102.53 22.473 106.835 19.462 C 108.941 17.989 111.016 16.818 112.835 16.414 C 113.764 16.208 114.869 16.146 115.929 16.589 C 117.076 17.068 117.82 17.99 118.207 19.057 C 118.557 20.02 118.736 21.433 118.85 22.742 C 118.971 24.137 119.04 25.722 119.078 27.196 C 119.107 28.283 119.119 29.324 119.123 30.206 C 120.157 30.07 121.31 30.089 122.347 30.553 C 123.687 31.153 124.483 32.337 124.652 33.754 C 124.779 34.825 124.463 35.93 124.107 36.843 C 123.725 37.826 123.16 38.922 122.473 40.09 C 121.098 42.43 119.102 45.279 116.703 48.445 C 114.011 51.997 110.761 56.012 107.207 60.255 C 110.18 59.282 113.555 58.638 116.779 59.079 C 117.51 59.179 118.312 59.466 118.962 60.111 C 119.619 60.764 119.905 61.57 119.988 62.304 C 120.138 63.627 119.671 65.051 119.126 66.285 C 117.977 68.882 115.707 72.271 112.826 76.013 C 112.049 77.023 110.601 77.211 109.591 76.434 C 108.582 75.657 108.394 74.209 109.171 73.199 C 112.015 69.504 113.995 66.48 114.907 64.419 C 115.052 64.09 115.161 63.806 115.24 63.566 C 112.049 63.405 108.405 64.546 105.271 65.956 C 103.598 66.709 100.837 68.314 99.818 68.914 C 99.342 69.464 98.863 70.015 98.383 70.567 C 97.546 71.528 96.089 71.629 95.128 70.793 C 94.167 69.957 94.066 68.5 94.903 67.539 C 95.416 66.949 95.927 66.36 96.435 65.774 C 96.469 65.729 96.505 65.686 96.543 65.643 L 96.575 65.608 C 96.589 65.592 96.604 65.577 96.619 65.561 C 102.883 58.324 108.708 51.356 113.026 45.659 C 115.385 42.546 117.255 39.864 118.496 37.752 C 119.118 36.694 119.55 35.833 119.808 35.17 C 119.871 35.008 119.918 34.87 119.954 34.755 C 119.84 34.764 119.706 34.78 119.547 34.806 C 118.1 35.042 115.839 35.938 113 37.565 C 111.895 38.199 110.485 37.816 109.852 36.711 C 109.218 35.606 109.601 34.196 110.706 33.563 C 112.017 32.811 113.296 32.155 114.511 31.623 C 114.512 30.627 114.504 28.742 114.467 27.316 C 114.429 25.885 114.364 24.405 114.254 23.141 C 114.161 22.07 114.047 21.319 113.946 20.896 C 113.06 21.092 111.495 21.833 109.479 23.243 Z" fill="black"/>
  <path d="M 85.804 46.03 C 86.655 45.082 86.576 43.624 85.628 42.773 C 84.864 42.087 83.767 42.006 82.925 42.497 L 66.913 23.266 C 65.736 21.852 63.635 21.66 62.221 22.837 C 60.807 24.015 60.615 26.116 61.792 27.529 L 78.389 47.462 C 75.758 50.493 73.233 53.503 70.918 56.359 L 26.791 23.411 C 25.317 22.31 23.229 22.613 22.128 24.088 C 21.027 25.562 21.33 27.65 22.805 28.751 L 66.817 61.614 C 66.332 62.58 66.583 63.786 67.471 64.471 C 68.479 65.25 69.928 65.064 70.706 64.056 C 74.867 58.669 80.214 52.261 85.804 46.03 Z" fill="black"/>
  <path d="M 102.783 40.503 C 103.593 41.486 103.454 42.94 102.471 43.751 C 90.736 53.43 76.015 70.532 64.438 90.357 L 64.438 105.448 C 68.718 98.081 75.832 86.551 83.907 76.415 C 84.7 75.419 86.152 75.255 87.148 76.048 C 88.144 76.842 88.309 78.293 87.515 79.29 C 75.658 94.174 65.854 112.24 64.438 114.877 L 64.438 132.615 C 64.438 134.643 62.793 136.288 60.765 136.288 C 58.736 136.288 57.091 134.643 57.091 132.615 L 57.091 112.972 C 46.62 113.527 39.636 114.35 27.894 116.254 C 26.078 116.549 24.367 115.315 24.072 113.499 C 23.777 111.682 25.011 109.971 26.827 109.676 C 38.917 107.716 46.159 106.869 57.091 106.299 L 57.091 74.606 C 57.091 72.577 58.736 70.933 60.765 70.933 C 62.793 70.933 64.438 72.577 64.438 74.606 L 64.438 81.497 C 75.526 64.056 88.66 49.162 99.535 40.192 C 100.518 39.381 101.972 39.521 102.783 40.503 Z" fill="black"/>
  <path d="M 60.765 146.027 C 62.793 146.027 64.438 147.672 64.438 149.701 L 64.438 175.245 C 64.438 177.274 62.793 178.919 60.765 178.919 C 58.736 178.919 57.091 177.274 57.091 175.245 L 57.091 164.399 L 26.165 186.36 L 26.165 231.928 C 39.702 226.79 50.094 222.461 59.067 216.357 C 68.856 209.697 77.519 200.869 86.053 186.18 L 86.053 128.514 C 86.053 128.514 86.064 125.055 86.053 122.974 C 86.045 121.7 87.072 120.661 88.346 120.654 C 89.414 120.648 90.316 121.368 90.584 122.352 C 91.187 135.417 102.479 143.99 109.065 148.989 C 111.824 151.084 113.758 152.552 113.732 153.46 C 113.678 155.409 106.257 166.339 99.856 175.766 L 99.855 175.768 L 99.854 175.77 L 99.843 175.785 C 96.148 181.227 92.796 186.164 91.401 188.579 C 91.369 188.693 91.33 188.806 91.284 188.917 C 91.261 188.973 91.237 189.027 91.211 189.082 C 91.175 189.157 91.135 189.232 91.092 189.306 C 82.187 204.634 73.349 214.287 62.623 221.584 C 52.019 228.798 39.703 233.605 24.188 239.431 C 23.993 239.51 23.788 239.57 23.575 239.609 L 23.523 239.618 L 23.512 239.62 L 23.485 239.624 C 23.355 239.644 23.225 239.656 23.095 239.66 C 22.906 239.665 22.719 239.654 22.535 239.626 C 22.021 239.55 21.547 239.349 21.145 239.056 C 20.809 238.813 20.519 238.502 20.297 238.134 C 20.098 237.805 19.958 237.437 19.89 237.044 C 19.853 236.838 19.838 236.632 19.843 236.428 L 19.843 184.776 C 19.841 184.676 19.845 184.576 19.853 184.476 C 19.885 184.069 19.994 183.684 20.165 183.336 C 20.372 182.912 20.677 182.529 21.074 182.224 C 21.115 182.192 21.157 182.161 21.201 182.131 L 57.091 156.645 L 57.091 149.701 C 57.091 147.672 58.736 146.027 60.765 146.027 Z" fill="black"/>
  <path d="M 104.975 79.979 C 106.018 80.71 106.271 82.149 105.54 83.192 C 102.077 88.134 98.614 94.124 95.839 100.248 C 95.313 101.409 93.946 101.923 92.786 101.397 C 91.626 100.871 91.111 99.504 91.637 98.344 C 94.532 91.956 98.137 85.717 101.762 80.544 C 102.494 79.501 103.932 79.248 104.975 79.979 Z" fill="black"/>
  <path d="M 91.612 106.374 C 92.751 106.944 93.213 108.33 92.643 109.469 C 92.191 110.374 91.855 111.638 91.557 113.088 C 91.3 114.336 90.081 115.139 88.833 114.883 C 87.585 114.626 86.782 113.407 87.038 112.159 C 87.344 110.672 87.774 108.893 88.517 107.406 C 89.087 106.266 90.472 105.805 91.612 106.374 Z" fill="black"/>
  <path fill-rule="evenodd" clip-rule="evenodd" d="M 146.195 26.081 C 145.212 25.491 144.255 24.732 143.447 24.091 C 143.447 24.091 141.216 22.322 140.985 22.322 C 140.669 22.322 140.631 22.859 140.599 23.311 C 140.599 23.311 140.476 29.202 140.496 30.019 C 140.968 30.21 141.447 30.421 141.929 30.649 C 146.298 32.715 151.896 36.621 158.017 41.962 C 168.742 51.321 181.376 65.353 192.234 82.492 C 192.578 80.814 194.067 79.555 195.845 79.561 C 197.874 79.568 199.513 81.219 199.506 83.248 L 199.359 124.432 L 210.454 130.263 C 212.082 131.119 212.709 133.134 211.853 134.763 C 210.997 136.391 208.982 137.018 207.353 136.162 L 199.332 131.946 L 199.243 157.031 L 235.068 182.471 C 235.109 182.499 235.15 182.529 235.189 182.559 C 235.588 182.865 235.895 183.249 236.103 183.674 C 236.275 184.023 236.384 184.409 236.415 184.816 L 236.418 184.849 L 236.419 184.861 L 236.42 184.878 L 236.421 184.896 L 236.421 184.908 C 236.423 184.948 236.425 184.988 236.425 185.028 C 236.426 185.057 236.426 185.086 236.425 185.115 L 236.425 236.767 C 236.43 236.979 236.413 237.194 236.374 237.409 C 236.216 238.276 235.704 239.019 234.994 239.485 C 234.663 239.701 234.289 239.857 233.888 239.938 C 233.476 240.02 233.044 240.023 232.615 239.932 C 232.551 239.919 232.489 239.904 232.427 239.887 C 232.389 239.877 232.353 239.866 232.316 239.855 L 232.281 239.843 C 232.261 239.837 232.241 239.83 232.222 239.823 C 232.179 239.808 232.136 239.792 232.093 239.775 C 216.572 233.947 204.253 229.139 193.645 221.923 C 182.919 214.626 174.081 204.973 165.176 189.645 C 164.794 188.988 164.676 188.251 164.788 187.555 C 161.189 180.74 152.351 169.049 146.38 161.15 L 146.376 161.145 C 143.36 157.155 141.078 154.135 140.571 153.201 C 139.981 152.113 142.493 150.205 146.123 147.448 C 150.268 144.3 157.867 138.432 163.407 134.144 L 163.368 129.309 C 163.354 127.469 164.833 125.966 166.673 125.951 C 168.434 125.937 170.117 127.232 170.117 129.026 L 170.124 185.801 C 170.321 185.995 170.496 186.218 170.642 186.469 C 179.176 201.158 187.412 210.036 197.201 216.696 C 206.174 222.8 216.566 227.129 230.103 232.268 L 230.103 186.699 L 199.216 164.765 L 199.177 175.597 C 199.17 177.626 197.519 179.264 195.491 179.257 C 193.462 179.25 191.823 177.599 191.83 175.571 L 192.052 113.332 C 188.77 108.075 178.251 92.086 168.221 79.367 C 168.079 79.188 167.943 79.012 167.808 78.84 C 166.537 77.21 165.501 75.882 163.408 74.863 C 162.619 74.478 162.057 74.298 161.351 74.071 L 161.342 74.069 C 161.124 73.998 160.635 73.838 160.378 73.752 C 160.325 73.73 159.771 73.362 159.125 72.933 C 158.856 72.755 158.571 72.566 158.3 72.387 L 158.031 72.21 C 157.848 72.09 157.678 71.979 157.529 71.883 C 155.644 70.668 153.113 69.101 150.493 67.669 C 147.846 66.223 145.221 64.976 143.124 64.337 C 142.875 64.261 142.641 64.197 142.424 64.142 C 142.159 64.076 141.917 64.025 141.698 63.988 C 141.651 63.98 141.605 63.972 141.56 63.965 C 141.486 63.954 141.416 63.945 141.348 63.937 C 141.389 64.002 141.432 64.071 141.479 64.143 C 142.305 65.415 143.695 67.11 145.57 69.39 C 149.246 73.86 154.406 80.136 159.048 88.239 C 159.681 89.345 159.298 90.754 158.193 91.388 C 157.087 92.021 155.678 91.638 155.045 90.533 C 150.615 82.799 145.679 76.786 142.007 72.32 L 141.894 72.183 L 141.892 72.18 C 140.14 70.05 138.59 68.166 137.61 66.656 C 137.114 65.892 136.646 65.052 136.413 64.204 C 136.173 63.328 136.092 62.058 136.971 60.952 C 137.981 59.681 139.455 59.326 140.667 59.295 C 141.883 59.264 143.201 59.538 144.469 59.924 C 147.024 60.703 149.98 62.132 152.705 63.621 L 152.954 63.757 C 153.094 63.835 153.235 63.913 153.375 63.991 C 152.386 63.074 151.396 62.163 150.411 61.256 C 147.931 58.973 145.486 56.721 143.184 54.5 C 139.182 50.635 135.593 46.828 133.288 43.196 C 131.008 39.604 129.658 35.658 131.146 31.825 C 131.525 30.847 132.199 30.05 133.13 29.539 C 134.001 29.061 134.958 28.908 135.861 28.918 C 135.853 28.344 135.849 27.72 135.852 27.075 C 135.858 25.766 135.893 24.344 135.991 23.065 C 136.083 21.86 136.244 20.536 136.595 19.57 C 136.603 19.549 136.611 19.528 136.619 19.507 C 137.017 18.504 137.799 17.723 138.888 17.414 C 139.829 17.147 140.733 17.312 141.381 17.508 C 142.682 17.901 144.036 18.765 145.124 19.557 C 146.266 20.388 147.345 21.311 148.125 22.014 C 148.519 22.368 149.956 23.518 149.956 23.518 C 150.86 24.415 150.354 25.607 149.456 26.511 C 148.56 27.415 146.794 26.441 146.195 26.081 Z M 192.13 91.214 C 180.76 71.616 166.653 55.621 154.984 45.438 C 149.014 40.229 143.781 36.628 139.956 34.819 C 138.011 33.899 136.645 33.547 135.829 33.531 C 135.707 33.529 135.612 33.535 135.539 33.543 C 135.489 33.549 135.45 33.556 135.421 33.562 L 135.43 33.539 C 135.435 33.524 135.441 33.509 135.447 33.494 L 135.447 33.493 C 135.447 33.492 135.447 33.492 135.445 33.494 L 135.443 33.497 L 135.442 33.498 L 135.441 33.499 C 135.428 33.516 135.396 33.558 135.35 33.583 L 135.347 33.584 C 135.347 33.584 135.355 33.581 135.373 33.575 C 135.385 33.571 135.401 33.567 135.421 33.562 C 134.773 35.316 135.195 37.591 137.183 40.724 C 139.172 43.858 142.414 47.343 146.389 51.181 C 148.513 53.232 150.844 55.378 153.256 57.598 L 153.264 57.607 C 159.681 63.514 166.666 69.944 171.843 76.51 C 179.395 86.087 187.197 97.456 192.082 104.868 L 192.13 91.214 Z" fill="black"/>
  <path fill-rule="evenodd" clip-rule="evenodd" d="M 158.224 32.825 C 157.283 31.965 157.217 30.506 158.077 29.566 C 158.936 28.625 160.395 28.559 161.335 29.418 C 168.775 36.214 176.77 45.174 182.864 52.788 C 183.696 53.829 184.495 54.847 185.254 55.833 L 221.559 23.672 C 222.937 22.452 225.042 22.58 226.263 23.957 C 227.483 25.335 227.355 27.44 225.978 28.66 L 189.222 61.221 C 189.622 61.795 189.997 62.345 190.344 62.869 C 191.256 64.245 192.005 65.479 192.526 66.496 C 192.785 67.002 193.012 67.502 193.173 67.969 C 193.309 68.367 193.5 69.018 193.428 69.719 C 193.296 70.986 192.163 71.907 190.896 71.776 C 189.721 71.654 188.827 70.622 188.81 69.469 C 188.747 69.286 188.626 69 188.42 68.599 C 188.011 67.8 187.367 66.728 186.498 65.417 C 184.768 62.807 182.258 59.415 179.262 55.67 C 173.265 48.177 165.434 39.41 158.224 32.825 Z" fill="black"/>
  <path d="M 144.536 178.166 C 144.262 176.346 142.565 175.094 140.745 175.367 C 138.926 175.641 137.673 177.338 137.947 179.158 L 141.535 202.993 C 141.809 204.813 143.506 206.066 145.325 205.792 C 147.145 205.518 148.398 203.821 148.124 202.002 L 144.536 178.166 Z" fill="black"/>
  <path d="M 16.767 94.17 C 16.767 92.33 18.259 90.838 20.099 90.838 L 33.939 90.838 C 35.779 90.838 37.271 92.33 37.271 94.17 C 37.271 96.01 35.779 97.502 33.939 97.502 L 20.099 97.502 C 18.259 97.502 16.767 96.01 16.767 94.17 Z" fill="black"/>
  <path d="M 205.657 88.019 C 203.817 88.019 202.325 89.511 202.325 91.351 C 202.325 93.191 203.817 94.683 205.657 94.683 L 235.9 94.683 C 237.74 94.683 239.232 93.191 239.232 91.351 C 239.232 89.511 237.74 88.019 235.9 88.019 L 205.657 88.019 Z" fill="black"/>
  <path d="M 222.735 52.785 C 224.224 51.704 224.556 49.621 223.476 48.132 C 222.395 46.642 220.312 46.31 218.822 47.39 L 203.274 58.667 C 201.784 59.748 201.453 61.831 202.533 63.321 C 203.613 64.81 205.696 65.142 207.186 64.062 L 222.735 52.785 Z" fill="black"/>
  <path d="M 162.557 98.976 C 163.75 98.528 165.08 99.13 165.529 100.323 C 166.542 103.017 167.613 107.453 168.398 111.163 C 168.796 113.042 169.131 114.785 169.359 116.097 C 169.359 116.097 169.691 118.563 169.699 118.661 C 169.699 118.718 169.702 119.05 169.588 119.419 C 169.209 120.636 167.916 121.315 166.7 120.937 C 165.678 120.619 165.001 119.375 165.046 118.354 C 165 118.009 164.922 117.511 164.813 116.884 C 164.597 115.637 164.273 113.951 163.885 112.118 C 163.099 108.403 162.088 104.278 161.211 101.948 C 160.762 100.755 161.365 99.425 162.557 98.976 Z" fill="black"/>
  <path fill-rule="evenodd" clip-rule="evenodd" d="M 155.423 115.528 C 155.423 130.485 143.298 142.61 128.341 142.61 C 113.384 142.61 101.259 130.485 101.259 115.528 C 101.259 100.571 113.384 88.446 128.341 88.446 C 143.298 88.446 155.423 100.571 155.423 115.528 Z M 134.407 94.597 L 122.276 94.597 L 122.276 109.462 L 107.41 109.462 L 107.41 121.594 L 122.276 121.594 L 122.276 136.63 L 134.407 136.63 L 134.407 121.594 L 149.443 121.594 L 149.443 109.462 L 134.407 109.462 L 134.407 94.597 Z" fill="black"/>
</svg>
