<?xml version="1.0" encoding="utf-8"?>
<svg width="256" height="256" viewBox="0 0 256 256" fill="none" xmlns="http://www.w3.org/2000/svg">
  <path d="M 73.419 17.961 C 72.856 16.415 71.147 15.618 69.601 16.18 C 68.056 16.743 67.259 18.452 67.821 19.998 L 96.292 98.227 C 96.855 99.773 98.564 100.57 100.11 100.007 C 101.655 99.445 102.452 97.735 101.89 96.19 L 73.419 17.961 Z" fill="black"/>
  <path d="M 162.221 37.783 C 163.834 38.104 164.881 39.673 164.56 41.286 L 150.807 110.404 C 150.486 112.018 148.918 113.065 147.304 112.744 C 145.691 112.423 144.643 110.855 144.964 109.242 L 158.718 40.123 C 159.039 38.51 160.607 37.462 162.221 37.783 Z" fill="black"/>
  <path d="M 214.191 109.424 C 215.132 108.075 214.801 106.218 213.451 105.277 C 212.102 104.336 210.245 104.668 209.304 106.017 L 185.302 140.445 C 184.361 141.794 184.692 143.651 186.041 144.592 C 187.391 145.532 189.247 145.201 190.188 143.852 L 214.191 109.424 Z" fill="black"/>
  <path d="M 227.558 138.562 C 228.378 139.988 227.886 141.808 226.46 142.628 C 220.893 145.828 212.487 150.63 205.365 154.633 C 201.805 156.634 198.555 158.441 196.136 159.751 C 194.93 160.405 193.911 160.945 193.156 161.327 C 192.784 161.515 191.98 161.871 191.701 161.995 C 191.62 162.025 191.499 162.066 191.358 162.103 C 191.263 162.128 190.949 162.209 190.548 162.209 C 188.903 162.209 187.57 160.876 187.57 159.231 C 187.57 157.863 188.491 156.711 189.747 156.361 C 189.896 156.295 190.133 156.181 190.469 156.011 C 191.147 155.668 192.107 155.159 193.299 154.514 C 195.676 153.226 198.894 151.436 202.446 149.44 C 209.546 145.449 217.933 140.658 223.492 137.464 C 224.918 136.644 226.738 137.135 227.558 138.562 Z" fill="black"/>
  <path d="M 169.552 191.816 C 169.89 189.736 170.066 187.6 170.066 185.424 C 170.066 163.556 152.329 145.828 130.451 145.828 C 108.572 145.828 90.835 163.556 90.835 185.424 C 90.835 187.6 91.011 189.736 91.349 191.816 L 98.208 191.816 C 97.8 189.749 97.586 187.611 97.586 185.424 C 97.586 167.282 112.3 152.575 130.451 152.575 C 148.601 152.575 163.315 167.282 163.315 185.424 C 163.315 187.611 163.101 189.749 162.693 191.816 L 169.552 191.816 Z" fill="black"/>
  <path fill-rule="evenodd" clip-rule="evenodd" d="M 194.149 194.078 C 186.6 195.036 177.908 195.763 168.562 196.267 L 161.362 196.605 C 159.16 196.694 156.93 196.772 154.678 196.838 L 106.266 196.552 C 103.957 196.459 101.669 196.354 99.408 196.237 L 92.216 195.824 C 92.216 195.824 74.84 194.491 67.422 193.553 C 58.612 192.44 51.313 191.088 46.145 189.538 C 43.549 188.76 41.633 187.973 40.365 187.221 C 39.902 186.946 39.587 186.714 39.374 186.532 C 40.246 185.908 41.785 185.179 43.999 184.418 C 48.36 182.92 54.472 181.573 60.799 180.441 C 67.091 179.316 73.456 178.427 78.259 177.819 C 80.658 177.515 82.661 177.282 84.063 177.125 C 84.763 177.047 86.254 176.889 86.254 176.889 C 87.914 176.721 89.123 175.24 88.955 173.582 C 88.787 171.923 87.343 170.7 85.684 170.868 C 85.684 170.868 84.103 171.046 83.39 171.126 C 81.964 171.285 79.932 171.522 77.5 171.83 C 72.641 172.445 66.165 173.349 59.735 174.499 C 53.341 175.642 46.853 177.053 42.035 178.709 C 39.659 179.526 37.459 180.477 35.864 181.619 C 34.435 182.641 32.375 184.673 33.102 187.579 C 33.666 189.838 35.525 191.371 37.284 192.414 C 39.157 193.524 41.602 194.479 44.41 195.321 C 50.05 197.012 57.732 198.413 66.664 199.543 C 74.945 200.59 84.4 201.415 94.468 202.011 C 100.746 215.595 114.497 225.02 130.451 225.02 C 146.239 225.02 159.87 215.789 166.236 202.431 C 176.711 201.92 186.484 201.136 194.91 200.067 C 203.583 198.966 210.984 197.545 216.283 195.747 C 218.916 194.853 221.228 193.802 222.94 192.518 C 224.627 191.252 226.202 189.382 226.202 186.847 C 226.202 184.272 224.805 182.266 223.129 180.819 C 221.471 179.388 219.272 178.255 216.917 177.33 C 212.183 175.473 206.027 174.159 200.07 173.223 C 194.07 172.28 188.091 171.692 183.625 171.341 C 181.389 171.165 179.524 171.047 178.215 170.973 C 177.561 170.936 176.138 170.869 176.138 170.869 C 174.471 170.803 173.067 172.1 173.001 173.766 C 172.935 175.432 174.261 176.835 175.928 176.901 C 175.977 176.903 176.073 176.908 176.178 176.913 L 176.274 176.918 C 176.319 176.92 176.364 176.922 176.405 176.924 C 176.742 176.94 177.24 176.965 177.875 177.001 C 179.146 177.072 180.966 177.187 183.151 177.359 C 187.528 177.704 193.34 178.276 199.131 179.187 C 204.964 180.103 210.599 181.337 214.709 182.95 C 216.775 183.761 218.261 184.594 219.182 185.389 C 220.038 186.128 220.152 186.597 220.162 186.814 C 220.127 186.904 219.965 187.201 219.313 187.69 C 218.343 188.418 216.72 189.223 214.342 190.03 C 209.62 191.632 202.694 192.993 194.149 194.078 Z M 158.371 202.759 C 155.814 202.849 153.226 202.923 150.617 202.983 C 145.717 208.547 138.539 212.058 130.539 212.058 C 122.426 212.058 115.156 208.446 110.253 202.742 C 107.586 202.651 104.94 202.545 102.324 202.424 C 108.083 211.924 118.525 218.273 130.451 218.273 C 142.235 218.273 152.571 212.074 158.371 202.759 Z M 220.168 186.794 C 220.17 186.788 220.17 186.785 220.17 186.785 L 220.169 186.785 C 220.169 186.785 220.169 186.786 220.168 186.787 C 220.167 186.79 220.166 186.796 220.165 186.805 C 220.166 186.801 220.167 186.797 220.168 186.794 Z" fill="black"/>
  <path d="M 157.275 185.335 C 157.275 187.57 157.001 189.741 156.483 191.816 L 104.595 191.816 C 104.078 189.741 103.804 187.57 103.804 185.335 C 103.804 170.577 115.774 158.612 130.539 158.612 C 145.305 158.612 157.275 170.577 157.275 185.335 Z" fill="black"/>
  <path d="M 226.588 38.095 C 227.983 38.864 228.527 40.593 227.822 42.022 L 171.056 157.131 C 170.383 158.496 168.789 159.134 167.36 158.611 C 165.931 158.088 165.126 156.571 165.494 155.094 L 169.561 138.761 L 167.547 139.628 C 166.355 140.141 164.969 139.823 164.119 138.843 C 163.27 137.863 163.152 136.446 163.828 135.339 L 222.609 39.151 C 223.44 37.792 225.193 37.327 226.588 38.095 Z" fill="black"/>
  <path d="M 128.082 47.623 C 127.984 45.981 126.573 44.729 124.931 44.827 C 123.289 44.926 122.037 46.336 122.136 47.978 L 127.479 137.42 C 127.577 139.063 128.988 140.314 130.63 140.216 C 132.272 140.118 133.524 138.707 133.426 137.065 L 128.082 47.623 Z" fill="black"/>
  <path d="M 114.389 115.307 C 116.005 114.999 117.565 116.059 117.873 117.675 L 120.763 132.83 C 121.072 134.446 120.012 136.006 118.396 136.314 C 116.78 136.622 115.22 135.562 114.912 133.946 L 112.021 118.791 C 111.713 117.175 112.773 115.615 114.389 115.307 Z" fill="black"/>
  <path d="M 44.253 132.606 C 45.315 131.349 47.194 131.19 48.451 132.251 L 75.432 155.028 C 76.689 156.089 76.848 157.968 75.787 159.225 C 74.726 160.482 72.847 160.641 71.59 159.58 L 44.608 136.803 C 43.351 135.742 43.192 133.863 44.253 132.606 Z" fill="black"/>
  <path d="M 63.985 46.093 C 63.263 44.681 61.561 44.083 60.115 44.733 C 58.668 45.382 57.984 47.05 58.558 48.528 L 85.119 116.911 L 33.243 46.817 C 32.298 45.54 30.517 45.23 29.195 46.111 C 27.874 46.993 27.477 48.756 28.293 50.119 L 81.643 139.211 C 81.909 139.655 82.277 140.01 82.703 140.257 L 89.661 154.739 C 90.373 156.222 92.153 156.846 93.635 156.134 C 95.118 155.422 95.742 153.642 95.03 152.159 L 89.547 140.747 L 95.499 140.747 C 96.731 140.747 97.835 139.989 98.278 138.84 L 103.447 125.437 C 103.591 125.062 103.655 124.675 103.646 124.297 C 103.649 123.83 103.543 123.357 103.319 122.92 L 63.985 46.093 Z" fill="black"/>
  <path d="M 50.869 208.737 C 52.278 207.889 52.733 206.059 51.884 204.65 C 51.036 203.24 49.206 202.785 47.797 203.634 L 38.773 209.065 C 37.364 209.913 36.909 211.744 37.758 213.153 C 38.606 214.562 40.436 215.017 41.846 214.169 L 50.869 208.737 Z" fill="black"/>
  <path d="M 191.8 207.342 C 190.648 206.167 188.763 206.148 187.588 207.299 C 186.413 208.45 186.393 210.336 187.544 211.511 L 200.159 224.389 C 201.31 225.564 203.196 225.583 204.371 224.432 C 205.546 223.281 205.565 221.395 204.414 220.22 L 191.8 207.342 Z" fill="black"/>
  <path d="M 99.162 216.555 C 99.857 215.064 99.212 213.292 97.722 212.597 C 96.231 211.902 94.458 212.547 93.763 214.038 C 91.551 218.783 87.014 228.518 86.655 229.307 C 85.975 230.804 86.637 232.57 88.135 233.251 C 89.632 233.931 91.398 233.269 92.078 231.771 C 92.421 231.018 96.936 221.329 99.162 216.555 Z" fill="black"/>
  <path d="M 207.222 212.977 C 205.941 211.945 204.066 212.146 203.034 213.427 C 202.001 214.708 202.203 216.583 203.484 217.615 L 218.376 229.617 C 219.657 230.649 221.532 230.447 222.564 229.167 C 223.596 227.886 223.395 226.011 222.114 224.979 L 207.222 212.977 Z" fill="black"/>
  <path d="M 165.885 216.341 C 165.156 214.866 163.369 214.262 161.895 214.992 C 160.421 215.721 159.817 217.508 160.546 218.982 L 168.869 235.802 C 169.598 237.276 171.385 237.88 172.859 237.151 C 174.333 236.421 174.937 234.635 174.208 233.16 L 165.885 216.341 Z" fill="black"/>
  <path d="M 65.669 219.728 C 66.81 218.544 66.775 216.658 65.591 215.517 C 64.407 214.375 62.521 214.41 61.38 215.595 L 42.72 234.955 C 41.579 236.139 41.614 238.025 42.798 239.166 C 43.982 240.307 45.868 240.273 47.009 239.089 L 65.669 219.728 Z" fill="black"/>
  <path d="M 84.912 221.347 C 85.835 219.985 85.479 218.133 84.117 217.21 C 82.755 216.288 80.903 216.644 79.98 218.006 L 72.622 228.869 C 71.699 230.23 72.055 232.082 73.417 233.005 C 74.779 233.927 76.631 233.571 77.554 232.21 L 84.912 221.347 Z" fill="black"/>
  <path d="M 177.452 220.554 C 176.485 219.223 174.622 218.928 173.291 219.895 C 171.961 220.862 171.666 222.725 172.633 224.055 L 181.481 236.232 C 182.448 237.563 184.31 237.858 185.641 236.891 C 186.972 235.924 187.267 234.061 186.3 232.73 L 177.452 220.554 Z" fill="black"/>
</svg>
