<?xml version="1.0" encoding="utf-8"?>
<svg width="256" height="256" viewBox="0 0 256 256" fill="none" xmlns="http://www.w3.org/2000/svg">
  <path d="M 76.586 17.091 C 74.774 15.495 72.013 15.671 70.418 17.482 C 68.822 19.293 68.997 22.055 70.809 23.65 L 131.62 77.209 C 133.432 78.804 136.193 78.629 137.788 76.818 C 139.384 75.006 139.209 72.245 137.397 70.649 L 76.586 17.091 Z" fill="black"/>
  <path d="M 36.2 50.166 C 34.374 48.588 31.615 48.789 30.036 50.614 C 28.458 52.441 28.658 55.2 30.484 56.779 L 81.253 100.667 C 83.079 102.246 85.839 102.045 87.418 100.219 C 88.996 98.393 88.795 95.633 86.97 94.055 L 36.2 50.166 Z" fill="black"/>
  <path d="M 23.63 103.606 C 21.841 101.986 19.077 102.123 17.457 103.912 C 15.837 105.701 15.974 108.465 17.763 110.085 L 55.143 143.931 C 56.932 145.551 59.696 145.414 61.316 143.625 C 62.935 141.836 62.798 139.072 61.009 137.452 L 23.63 103.606 Z" fill="black"/>
  <path d="M 17.407 168.498 C 18.997 166.682 21.758 166.498 23.574 168.087 L 60.768 200.632 C 62.584 202.221 62.768 204.982 61.179 206.798 C 59.59 208.615 56.829 208.799 55.012 207.21 L 17.819 174.665 C 16.002 173.076 15.818 170.315 17.407 168.498 Z" fill="black"/>
  <path fill-rule="evenodd" clip-rule="evenodd" d="M 237.759 65.485 C 240.47 68.433 240.279 73.021 237.331 75.733 L 195.964 113.788 C 201.815 123.608 206.095 131.77 208.3 139.825 C 210.666 148.475 210.619 156.915 207.779 167.08 L 192.555 234.932 C 191.759 238.437 188.271 240.634 184.766 239.837 C 181.26 239.04 179.064 235.553 179.861 232.047 L 194.259 168.68 L 179.993 168.68 C 175.047 187.132 170.48 201.943 163.39 223.869 C 162.284 227.289 158.615 229.166 155.194 228.06 C 151.774 226.954 149.898 223.284 151.004 219.864 C 159.558 193.41 164.37 177.53 170.657 152.92 L 140.763 163.607 C 138.082 164.565 135.089 163.867 133.11 161.822 L 114.517 143.109 L 103.545 166.169 L 127.913 177.611 C 130.71 178.976 132.149 182.13 131.347 185.138 L 121.364 220.94 C 120.438 224.414 116.871 226.478 113.398 225.552 C 109.925 224.626 107.86 221.059 108.786 217.586 L 115.633 189.043 L 91.187 175.442 L 83.148 175.442 L 94.68 195.465 C 96.082 197.9 95.764 200.96 93.89 203.054 L 65.343 234.948 C 62.946 237.626 58.831 237.854 56.153 235.456 C 53.474 233.059 53.246 228.944 55.644 226.266 L 80.392 196.482 C 80.392 196.482 65.408 172.506 65.204 171.94 C 64.999 171.374 64.592 165.688 65.143 163.566 C 66.243 159.323 72.892 145.715 76.115 139.948 C 83.182 127.302 85.785 124.14 97.436 116.037 C 97.563 115.983 97.699 115.955 97.837 115.955 L 107.692 115.956 C 107.895 115.659 108.121 115.376 108.367 115.111 C 102.484 112.243 98.431 106.205 98.431 99.221 C 98.431 89.463 106.341 81.554 116.098 81.554 C 125.855 81.554 133.765 89.463 133.765 99.221 C 133.765 102.858 132.666 106.237 130.782 109.047 C 138.396 107.924 145.903 107.495 155.524 107.495 C 158.164 107.496 160.475 108.907 161.744 111.017 C 169.764 107.429 176.303 104.96 185.3 103.889 L 227.511 65.058 C 230.459 62.346 235.047 62.537 237.759 65.485 Z M 163.868 133.4 C 164.582 135.219 165.331 137.128 166.216 139.204 L 139.53 148.688 L 120.096 126.837 C 133.182 123.631 143.59 121.257 158.22 121.258 C 160.754 125.463 162.217 129.192 163.868 133.4 Z" fill="black"/>
  <path d="M 190.299 82.112 C 190.299 91.869 182.389 99.779 172.632 99.779 C 162.875 99.779 154.965 91.869 154.965 82.112 C 154.965 72.354 162.875 64.445 172.632 64.445 C 182.389 64.445 190.299 72.354 190.299 82.112 Z" fill="black"/>
</svg>
