<?xml version="1.0" encoding="utf-8"?>
<svg width="256" height="256" viewBox="0 0 256 256" fill="none" xmlns="http://www.w3.org/2000/svg">
  <path d="M 182.675 15.978 C 173.832 15.978 164.994 19.594 159.591 26.825 C 147.812 15.354 122.632 20.395 122.632 41.951 C 122.632 45.086 123.167 47.869 124.113 50.304 L 183.638 50.304 L 204.266 135.716 L 168.826 135.716 L 163.893 178.129 C 180.747 178.548 197.925 167.71 197.925 145.597 L 197.924 145.521 C 205.02 146.082 212.394 143.541 216.921 137.901 C 223.053 143.478 235.614 140.82 235.614 129.92 C 235.614 121.032 227.263 117.631 220.853 119.7 C 219.279 111.716 213.776 106.666 207.228 104.546 C 209.637 101.262 211.121 97.007 211.121 91.782 C 211.121 81.523 205.414 75.009 198.166 72.231 C 198.308 71.518 198.385 70.757 198.385 69.945 C 198.385 69.138 198.308 68.381 198.168 67.673 C 205.633 63.277 211.032 55.348 211.032 43.873 C 211.032 25.277 196.854 15.979 182.675 15.978 Z M 54.47 26.943 C 45.449 26.879 36.529 31.962 34.006 43.56 C 28.025 71.055 69.948 80.173 75.929 52.678 C 76.155 51.639 76.304 50.628 76.398 49.642 C 81.906 51.137 88.462 48.889 90.053 41.572 C 92.786 29.016 76.025 23.94 70.173 32.95 C 65.973 29.105 60.202 26.984 54.47 26.943 Z M 83.605 59.07 L 67.209 126.951 L 99.323 126.951 L 109.066 210.741 L 151.277 210.741 L 161.019 126.951 L 193.131 126.951 L 176.736 59.07 L 83.605 59.07 Z M 228.461 64.366 C 223.394 64.366 218.326 67.689 218.326 74.336 C 218.326 87.631 238.596 87.631 238.596 74.336 C 238.596 67.69 233.529 64.366 228.46 64.366 L 228.461 64.366 Z M 87.495 86.878 L 119.058 109.031 L 81.975 112.351 L 87.495 86.878 Z M 172.747 86.878 L 178.268 112.351 L 141.184 109.031 L 172.746 86.878 L 172.747 86.878 Z M 225.063 91.297 C 221.576 91.297 218.092 93.583 218.092 98.155 C 218.092 107.301 232.034 107.301 232.034 98.155 C 232.034 93.583 228.549 91.296 225.063 91.296 L 225.063 91.297 Z M 30.749 97.247 C 23.374 97.247 16 102.082 16 111.753 C 16 124.866 29.552 129.088 38.285 124.422 C 38.889 154.006 78.326 157.769 88.814 135.715 L 56.075 135.715 L 65.273 97.633 C 57.535 97.517 49.745 100.358 44.536 106.162 C 42.307 100.219 36.528 97.247 30.749 97.247 Z M 130.123 116.502 L 145.075 136.249 L 138.088 141.54 L 130.122 131.021 L 122.156 141.54 L 115.166 136.249 L 130.123 116.501 L 130.123 116.502 Z M 27.116 136.251 C 23.629 136.251 20.143 138.536 20.143 143.108 C 20.143 152.255 34.086 152.255 34.086 143.108 C 34.086 138.537 30.6 136.251 27.116 136.251 Z M 93.355 151.523 C 86.232 151.832 79.336 156.662 79.336 166.016 C 79.336 169.651 80.376 172.602 82.07 174.87 C 78.245 178.385 75.714 183.551 75.714 190.377 C 75.714 201.59 82.531 208.329 90.726 210.604 C 89.629 212.239 88.965 214.308 88.965 216.814 C 88.965 230.272 108.113 231.168 110.669 219.507 L 101.26 219.507 L 93.355 151.523 Z M 162.419 190.804 L 159.082 219.507 L 134.573 219.507 C 139.914 231.91 156.273 234.764 166.684 228.068 C 169.161 244.817 195.997 243.966 195.997 225.514 C 195.997 213.351 184.338 208.838 175.679 211.97 C 175.707 211.483 175.724 210.991 175.724 210.487 C 175.724 200.063 169.833 193.504 162.419 190.804 Z M 234.433 193.873 C 231.082 193.914 227.687 196.681 228.829 200.943 C 230.752 208.121 241.698 205.187 239.774 198.009 C 238.993 195.093 236.724 193.845 234.433 193.873 Z M 36.933 203.843 C 30.772 203.843 24.611 207.882 24.611 215.963 C 24.611 224.045 30.774 228.087 36.936 228.086 C 36.813 228.728 36.746 229.412 36.746 230.139 C 36.746 242.57 55.701 242.57 55.701 230.139 C 55.701 224.837 52.25 221.804 48.296 221.025 C 48.906 219.563 49.255 217.877 49.255 215.964 C 49.255 207.882 43.094 203.843 36.933 203.843 Z M 225.344 210.843 C 222.725 210.874 220.09 212.288 218.924 214.675 C 212.636 210.572 201.867 215.622 204.395 225.059 C 207.23 235.641 221.782 233.086 222.997 224.112 C 227.525 225.417 233.419 221.871 231.803 215.842 C 230.859 212.316 228.114 210.808 225.344 210.843 Z M 69.208 211.714 C 65.723 211.714 62.236 214.001 62.236 218.572 C 62.236 227.717 76.179 227.717 76.179 218.572 C 76.179 214 72.694 211.714 69.209 211.714 L 69.208 211.714 Z" fill="black"/>
</svg>
