<?xml version="1.0" encoding="utf-8"?>
<svg width="256" height="256" viewBox="0 0 256 256" fill="none" xmlns="http://www.w3.org/2000/svg">
  <path d="M 26.099 16 C -5.574 66.036 49.745 73.989 81.806 78.18 C 122.003 83.434 99.584 157.333 47.604 118.378 C 47.626 146.022 75.416 157.7 92.878 163.443 C 112.346 169.839 91.087 201.15 53.23 192.599 C 209.404 310.135 280.033 183.891 215.585 86.396 C 204.927 70.271 180.379 54.263 155.235 56.168 C 215.395 95.735 132.598 111.526 116.928 53.042 C 107.041 16.148 48.542 61.515 26.098 16 L 26.099 16 Z M 173.349 120.046 L 185.24 142.489 L 175.284 162.715 L 135.993 134.794 C 145.777 125.657 158.909 120.061 173.349 120.045 L 173.349 120.046 Z M 183.945 121.072 C 209.182 125.989 228.237 148.199 228.237 174.874 C 228.237 176.777 228.143 178.662 227.954 180.514 L 203.695 193.969 L 209.529 171.823 L 209.975 170.142 L 209.156 168.608 L 183.945 121.073 L 183.945 121.072 Z M 129.98 141.417 L 147.006 153.517 L 118.729 178.891 C 118.633 177.566 118.58 176.224 118.58 174.873 C 118.58 162.274 122.836 150.675 129.98 141.417 Z M 190.375 152.192 L 200.48 171.242 L 192.92 199.936 L 184.035 204.862 L 168.497 196.631 L 190.375 152.192 Z M 154.433 158.8 L 171.295 170.796 L 160.624 192.465 L 153.509 188.699 L 149.491 186.556 L 147.453 190.635 L 135.516 214.507 C 128.412 207.712 123.133 199.033 120.485 189.266 L 154.433 158.8 Z M 225.483 192.063 C 218.273 213.928 197.688 229.701 173.408 229.701 C 160.889 229.701 149.36 225.497 140.13 218.435 L 142.824 219.789 L 153.376 198.701 L 181.996 213.866 L 184.125 214.997 L 186.237 213.82 L 225.483 192.063 Z" fill="black"/>
</svg>
