<?xml version="1.0" encoding="utf-8"?>
<svg width="256" height="256" viewBox="0 0 256 256" fill="none" xmlns="http://www.w3.org/2000/svg">
  <path d="M 127.993 16 C 119.827 25.405 112.286 32.961 101.527 36.645 C 121.461 69.529 168.726 94.17 217.384 66.599 C 226.03 59.826 230.209 51.492 234.147 43.86 C 186.642 41.242 154.988 34.344 127.993 16 Z M 112.574 60.498 C 103.496 78.895 92.88 95.179 81.304 108.628 C 61.707 131.444 39.501 146.43 17.578 149.601 C 20.686 159.111 22.588 178.037 29.99 184.473 C 51.908 193.359 93.793 180.102 109.068 165.884 C 116.801 158.007 120.596 148.304 125.495 136.632 C 124.535 153.54 119.107 163.819 112.19 171.408 C 103.304 180.15 94.61 186.202 83.85 189.565 C 89.566 200.276 91.92 213.437 97.155 222.132 C 99.269 225.35 100.998 226.695 104.168 226.647 C 124.343 221.411 139.905 204.599 157.438 197.586 C 184 183.512 188.804 162.041 189.62 156.518 C 189.092 170.303 183.52 188.94 174.394 196.674 C 190.629 202.63 197.21 229 199.515 240 C 206.816 233.275 215.462 222.996 222.619 211.132 C 231.698 196.145 238.422 178.709 238.422 162.858 C 238.278 144.221 230.257 126.16 225.693 106.082 C 223.292 95.659 221.995 84.611 223.484 72.795 C 160.224 99.55 131.788 77.31 112.574 60.498 Z" fill="black"/>
</svg>
