<?xml version="1.0" encoding="utf-8"?>
<svg width="256" height="256" viewBox="0 0 256 256" fill="none" xmlns="http://www.w3.org/2000/svg">
  <path d="M 37.349 16 L 63.702 16 L 60.847 104.228 L 40.112 104.228 L 37.349 16 Z" fill="black"/>
  <path d="M 184.942 88.41 C 185.133 88.347 185.364 88.293 185.562 88.337 C 185.67 88.361 185.756 88.425 185.801 88.462 C 185.859 88.507 185.918 88.564 185.978 88.627 C 186.099 88.753 186.245 88.925 186.409 89.133 C 186.738 89.549 187.16 90.129 187.639 90.818 C 188.597 92.197 189.793 94.026 190.947 95.875 C 192.101 97.723 193.216 99.597 194.012 101.066 C 194.408 101.8 194.73 102.44 194.936 102.929 C 195.039 103.172 195.118 103.389 195.162 103.567 C 195.184 103.656 195.201 103.747 195.204 103.833 C 195.206 103.911 195.2 104.032 195.133 104.145 C 195.041 104.298 194.89 104.35 194.776 104.359 C 194.671 104.368 194.57 104.345 194.49 104.32 C 194.325 104.27 194.128 104.171 193.916 104.047 C 193.486 103.795 192.914 103.393 192.254 102.892 C 190.93 101.889 189.217 100.464 187.517 98.987 C 185.816 97.511 184.122 95.978 182.836 94.759 C 182.194 94.15 181.65 93.617 181.258 93.207 C 181.062 93.002 180.9 92.824 180.781 92.681 C 180.722 92.609 180.67 92.542 180.629 92.482 C 180.593 92.429 180.546 92.354 180.521 92.272 C 180.447 92.023 180.541 91.776 180.642 91.594 C 180.751 91.398 180.915 91.194 181.104 90.993 C 181.485 90.589 182.018 90.148 182.574 89.748 C 183.131 89.347 183.725 88.977 184.235 88.716 C 184.49 88.586 184.731 88.479 184.942 88.41 Z" fill="black"/>
  <path d="M 144.177 110.519 C 145.35 111.666 146.594 112.539 147.965 112.885 C 148.993 113.145 149.746 113.068 150.302 112.848 C 150.86 112.628 151.267 112.246 151.566 111.814 C 151.868 111.379 152.052 110.905 152.161 110.531 C 152.215 110.346 152.275 110.035 152.295 109.927 C 152.317 109.738 152.44 109.576 152.616 109.503 C 152.792 109.431 152.994 109.459 153.143 109.578 L 160.917 115.78 C 161.04 115.878 161.112 116.026 161.114 116.183 C 161.116 116.341 161.047 116.491 160.927 116.592 C 160.868 116.642 160.694 116.79 160.584 116.885 C 160.364 117.076 160.049 117.352 159.671 117.693 C 158.913 118.376 157.903 119.318 156.893 120.355 C 155.88 121.395 154.877 122.52 154.125 123.571 C 153.749 124.096 153.443 124.592 153.231 125.042 C 153.017 125.494 152.912 125.868 152.903 126.158 C 152.903 126.158 153.083 126.525 153.208 126.691 C 153.456 127.024 153.835 127.441 154.336 127.938 C 155.336 128.93 156.771 130.186 158.492 131.636 C 159.793 132.732 161.256 133.938 162.809 135.218 C 162.809 135.219 162.81 135.219 162.81 135.219 C 165.346 137.309 168.118 139.594 170.804 141.912 C 178.837 148.845 186.131 156.169 188.699 159.55 C 189.898 161.129 190.715 163.395 191.305 165.992 C 191.897 168.599 192.272 171.593 192.555 174.668 C 192.75 176.799 192.902 178.962 193.049 181.067 C 193.049 181.068 193.05 181.068 193.05 181.069 C 193.111 181.941 193.176 182.82 193.24 183.69 C 193.241 183.694 193.241 183.697 193.241 183.7 C 193.242 183.704 193.242 183.708 193.242 183.712 C 193.474 186.834 193.697 189.847 193.697 192.067 C 193.697 193.08 194.024 194.751 194.436 196.864 L 194.436 196.865 C 195.151 200.531 196.125 205.525 196.105 210.712 C 196.088 214.796 196.105 221.679 196.105 221.679 C 195.715 223.152 195.192 224.418 194.484 225.325 C 193.764 226.247 192.833 226.821 191.674 226.821 C 189.174 226.83 185.618 226.842 184.41 225.325 C 183.146 223.741 182.424 221.416 181.847 218.462 C 181.455 216.455 181.121 214.103 180.742 211.431 L 180.742 211.43 L 180.742 211.429 C 180.562 210.161 180.372 208.821 180.161 207.411 C 179.502 203.015 178.63 197.9 177.202 192.067 C 177.201 192.062 177.2 192.057 177.199 192.052 C 175.831 185.697 174.394 179.795 173.156 175.174 C 171.913 170.534 170.884 167.232 170.335 166.043 C 170.215 165.784 169.935 165.431 169.449 164.986 C 168.973 164.55 168.338 164.058 167.556 163.514 C 165.993 162.428 163.889 161.165 161.41 159.771 C 157.92 157.808 153.718 155.599 149.291 153.272 L 149.282 153.268 C 147.422 152.29 145.523 151.291 143.62 150.282 C 137.192 146.871 130.728 143.332 125.667 140.047 C 123.138 138.406 120.944 136.819 119.277 135.335 C 117.626 133.866 116.428 132.444 115.98 131.121 C 115.339 129.226 115.838 126.609 116.889 123.917 C 117.969 121.152 119.693 118.105 121.696 115.197 C 123.7 112.287 125.994 109.5 128.223 107.254 C 130.44 105.021 132.634 103.281 134.443 102.521 C 135.707 101.989 136.867 102.464 137.889 103.295 C 138.901 104.116 139.9 105.377 140.913 106.674 L 141.065 106.869 C 142.047 108.128 143.061 109.428 144.177 110.519 Z" fill="black"/>
  <path d="M 107.407 136.172 C 107.289 136.058 107.125 136.006 106.963 136.031 C 106.801 136.056 106.659 136.155 106.581 136.3 C 94.886 157.957 70.589 165.736 51.758 168.526 C 44.165 169.651 37.686 171.534 33.356 173.971 C 31.192 175.188 29.525 176.566 28.54 178.092 C 27.542 179.639 27.25 181.332 27.839 183.099 C 28.444 184.914 29.671 185.976 31.406 186.473 C 33.096 186.957 35.263 186.906 37.805 186.576 C 40.357 186.246 43.356 185.624 46.734 184.921 L 46.888 184.889 L 46.889 184.889 L 46.889 184.888 C 50.234 184.192 53.96 183.417 58.034 182.752 C 61.562 182.176 65.162 181.823 68.789 181.466 L 68.79 181.466 C 70.399 181.308 72.012 181.149 73.628 180.971 C 78.866 180.391 84.087 179.602 89.041 177.927 C 95.082 175.883 101.585 171.07 107.639 166.075 C 109.626 164.436 111.562 162.779 113.422 161.188 L 113.422 161.187 L 113.423 161.187 C 117.271 157.895 120.794 154.881 123.758 152.882 C 123.889 152.793 123.973 152.65 123.987 152.493 C 124.001 152.336 123.943 152.18 123.829 152.07 L 107.407 136.172 Z" fill="black"/>
  <path d="M 37.421 120.301 L 63.453 120.301 L 63.453 135.85 L 37.421 135.85 L 37.421 120.301 Z" fill="black"/>
  <path fill-rule="evenodd" clip-rule="evenodd" d="M 216.846 46.05 C 216.846 58.797 207.622 69.39 195.483 71.517 C 194.233 73.205 193.292 74.493 192.645 75.901 C 192.024 77.253 191.678 78.733 191.842 80.747 C 199.441 88.491 204.191 96.749 208.778 104.724 C 209.612 106.172 210.439 107.611 211.278 109.037 C 216.875 118.548 223.086 127.728 234.774 136.04 C 235.021 136.216 235.234 136.437 235.401 136.691 C 241.788 146.418 238.412 158.711 230.534 165.036 C 226.527 168.254 221.292 169.998 215.512 169.124 C 211.021 168.446 206.37 166.217 201.812 162.15 C 201.837 163.857 201.948 165.861 202.125 168.092 C 202.544 173.376 203.325 179.78 204.166 186.266 C 204.419 188.215 204.678 190.173 204.934 192.108 L 204.935 192.113 C 205.526 196.585 206.1 200.931 206.549 204.755 C 207.181 210.142 207.607 214.809 207.404 217.369 C 206.329 230.991 201.159 238.426 193.71 239.783 C 186.647 241.071 179.206 236.467 174.441 230.083 C 172.253 227.151 171.034 223.235 170.184 219.007 C 169.464 215.421 168.838 210.306 168.321 206.082 L 115.603 206.082 C 114.348 206.082 113.332 205.065 113.332 203.811 C 113.332 202.557 114.348 201.54 115.603 201.54 L 167.742 201.54 C 166.487 192.195 164.637 182.318 159.92 173.52 C 158.052 170.036 155.346 169 150.608 167.245 C 146.221 165.619 140.72 163.535 134.554 158.062 C 124.81 164.444 117.148 171.459 110.877 177.201 C 107.584 180.216 104.363 183.157 101.7 185.162 C 99.101 187.118 96.42 188.7 93.729 188.95 C 81.407 190.097 68.531 192.419 58.02 194.423 C 56.501 194.713 55.028 194.997 53.613 195.27 L 53.599 195.272 C 50.146 195.938 47.035 196.537 44.428 196.997 C 42.586 197.322 40.959 197.584 39.612 197.754 C 38.312 197.917 37.112 198.017 36.2 197.952 C 31.673 197.632 27.45 196.647 24.11 194.463 C 20.672 192.215 18.359 188.819 17.541 184.141 C 16.313 177.121 19.007 168.851 25.41 165.329 C 26.302 164.838 27.758 164.315 29.407 163.786 C 31.125 163.237 33.266 162.618 35.666 161.959 C 40.468 160.64 46.397 159.135 52.23 157.663 L 54.068 157.2 C 59.269 155.888 64.292 154.622 68.3 153.548 C 70.541 152.949 72.437 152.416 73.856 151.975 C 74.568 151.754 75.133 151.564 75.551 151.407 C 75.857 151.292 76.012 151.221 76.067 151.195 C 88.921 142.639 97.278 132.17 104.564 121.508 C 106.363 118.875 108.111 116.207 109.853 113.546 C 114.737 106.09 119.588 98.683 125.455 92.235 C 119.559 82.885 114.546 74.397 112.936 67.056 C 112.51 65.112 112.31 63.199 112.404 61.337 L 89.921 61.337 C 88.666 61.337 87.65 60.32 87.65 59.066 C 87.65 57.811 88.666 56.794 89.921 56.794 L 113.296 56.794 C 113.429 56.424 113.578 56.056 113.743 55.692 C 114.076 54.956 114.469 54.246 114.922 53.562 L 79.875 53.562 C 78.621 53.562 77.604 52.545 77.604 51.291 C 77.604 50.037 78.621 49.02 79.875 49.02 L 119.274 49.02 C 120.307 48.233 121.454 47.492 122.717 46.793 C 123.079 46.592 123.487 46.487 123.901 46.487 L 165.136 46.487 C 165.134 46.341 165.133 46.196 165.133 46.05 C 165.133 37.41 169.37 29.759 175.881 25.064 L 135.57 25.434 C 134.347 25.445 133.347 24.438 133.336 23.183 C 133.325 21.929 134.307 20.903 135.531 20.892 L 187.595 20.414 C 188.706 20.268 189.839 20.193 190.99 20.193 C 205.27 20.193 216.846 31.769 216.846 46.05 Z M 211.605 46.05 C 211.605 57.435 202.375 66.665 190.99 66.665 C 179.604 66.665 170.374 57.435 170.374 46.05 C 170.374 34.664 179.604 25.434 190.99 25.434 C 202.375 25.434 211.605 34.664 211.605 46.05 Z M 165.682 51.378 L 124.548 51.378 C 121.135 53.368 119.197 55.505 118.199 57.709 C 117.151 60.024 116.996 62.73 117.714 66.008 C 119.192 72.75 124.129 81.009 130.597 91.213 C 131.199 92.162 131.076 93.399 130.3 94.212 C 124.173 100.624 119.318 108.034 114.147 115.927 C 112.359 118.657 110.533 121.444 108.603 124.268 C 101.17 135.145 92.399 146.207 78.784 155.269 C 78.337 155.567 77.754 155.805 77.273 155.986 C 76.729 156.191 76.062 156.413 75.307 156.647 C 73.794 157.117 71.825 157.669 69.565 158.274 C 65.521 159.357 60.461 160.633 55.269 161.942 L 53.426 162.406 C 47.586 163.88 41.706 165.373 36.962 166.676 C 34.589 167.328 32.522 167.926 30.899 168.446 C 29.207 168.987 28.186 169.385 27.768 169.615 C 23.689 171.859 21.385 177.725 22.359 183.298 C 22.954 186.697 24.528 188.892 26.787 190.369 C 29.143 191.909 32.424 192.781 36.545 193.073 C 36.94 193.101 37.727 193.061 39.002 192.9 C 40.23 192.746 41.765 192.5 43.578 192.18 C 46.145 191.727 49.196 191.139 52.629 190.477 L 52.632 190.477 L 52.633 190.477 C 54.059 190.202 55.552 189.914 57.104 189.618 C 67.627 187.611 80.702 185.249 93.276 184.08 C 94.516 183.964 96.257 183.136 98.758 181.254 C 101.194 179.42 104.297 176.593 107.643 173.53 C 114.228 167.5 122.645 159.794 133.513 152.914 C 134.463 152.312 135.702 152.436 136.514 153.215 C 142.523 158.977 147.773 160.978 152.307 162.658 L 152.732 162.815 C 157.108 164.432 161.46 166.04 164.231 171.208 C 169.973 181.917 171.735 193.917 173.012 204.162 C 173.115 204.982 173.213 205.789 173.311 206.582 C 173.829 210.813 174.3 214.658 174.98 218.044 C 175.793 222.088 176.842 225.121 178.362 227.157 C 182.594 232.827 188.387 235.781 192.833 234.971 C 196.893 234.231 201.507 229.917 202.528 216.984 C 202.684 215.001 202.339 210.857 201.69 205.325 C 201.246 201.537 200.679 197.248 200.09 192.793 L 200.089 192.786 L 200.085 192.758 C 199.83 190.826 199.571 188.862 199.315 186.895 C 198.473 180.409 197.678 173.896 197.248 168.479 C 197.033 165.771 196.906 163.298 196.915 161.216 C 196.92 159.889 196.98 158.626 197.137 157.523 L 192.935 153.741 C 191.931 152.837 191.849 151.291 192.753 150.287 C 193.656 149.283 195.203 149.201 196.207 150.105 L 201.448 154.822 C 201.521 154.887 201.589 154.956 201.653 155.03 C 206.861 160.984 211.91 163.633 216.242 164.288 C 220.555 164.939 224.434 163.66 227.471 161.222 C 233.576 156.321 236.032 147.012 231.548 139.747 C 219.291 130.924 212.739 121.165 207.062 111.517 C 206.185 110.026 205.331 108.545 204.484 107.073 L 204.481 107.069 C 199.769 98.888 195.238 91.022 187.779 83.599 C 187.399 83.221 187.154 82.728 187.081 82.197 C 186.625 78.864 187.106 76.24 188.2 73.859 C 188.517 73.169 188.886 72.502 189.288 71.851 C 186.596 71.676 184.017 71.09 181.612 70.154 C 181.889 71.219 181.933 72.359 181.839 73.464 C 181.606 76.197 180.529 78.887 179.834 80.196 C 179.006 81.758 177.8 82.668 176.398 82.982 C 175.014 83.291 173.505 83.005 172.067 82.308 C 169.289 80.962 166.639 78.024 165.366 74.359 L 159.889 74.359 C 158.29 75.525 156.972 76.142 155.66 76.118 C 154.309 76.092 152.672 75.094 151.289 73.956 C 151.008 73.763 150.605 73.49 150.114 73.171 C 149.132 72.532 147.805 71.715 146.421 70.992 C 145.03 70.265 143.613 69.652 142.443 69.398 C 141.267 69.143 140.589 69.297 140.273 69.708 C 140.273 69.708 140.455 70.21 140.629 70.516 C 140.976 71.125 141.524 71.92 142.19 72.869 L 142.45 73.238 L 142.451 73.239 C 143.732 75.061 145.335 77.342 146.556 79.71 C 147.609 81.753 148.436 83.871 149.153 85.705 C 149.393 86.318 149.62 86.9 149.839 87.436 C 150.282 88.521 150.686 89.407 151.09 90.033 C 151.393 90.503 151.652 90.757 151.869 90.874 L 160.641 81.335 C 160.737 81.231 160.872 81.17 161.014 81.166 C 161.156 81.163 161.293 81.217 161.395 81.317 L 228.919 147.793 C 229.02 147.892 229.076 148.026 229.076 148.167 C 229.076 148.307 229.02 148.441 228.92 148.54 L 216.952 160.333 C 216.853 160.431 216.718 160.485 216.578 160.483 C 216.438 160.482 216.305 160.425 216.208 160.324 L 198.074 141.593 C 194.004 142.571 190.608 141.355 188.624 139.031 C 186.674 136.745 186.144 133.445 187.629 130.311 L 186.457 129.309 C 174.75 119.31 166.556 112.31 156.259 100.592 C 153.762 101.698 151.51 102.222 149.493 102.018 C 147.355 101.801 145.54 100.772 144.022 98.885 C 143.999 98.857 143.98 98.827 143.963 98.795 C 140.96 92.936 136.897 87.089 133.274 82.044 C 132.742 81.303 132.22 80.579 131.711 79.875 L 131.709 79.873 C 130.491 78.185 129.354 76.611 128.371 75.192 C 126.98 73.186 125.87 71.454 125.259 70.118 C 125.116 69.804 124.969 69.489 124.823 69.174 C 124.267 67.977 123.712 66.783 123.32 65.664 C 122.827 64.256 122.547 62.853 122.905 61.61 C 123.277 60.322 124.291 59.332 126.084 58.675 C 127.858 58.024 130.454 57.675 134.122 57.675 C 140.296 57.674 145.211 58.028 149.804 58.359 C 150.914 58.439 152.005 58.518 153.091 58.59 C 157.904 58.909 162.623 59.098 168.433 58.699 C 167.167 56.446 166.228 53.985 165.682 51.378 Z" fill="black"/>
  <path d="M 206.189 46.05 C 206.189 54.444 199.384 61.249 190.99 61.249 C 182.595 61.249 175.79 54.444 175.79 46.05 C 175.79 37.655 182.595 30.85 190.99 30.85 C 199.384 30.85 206.189 37.655 206.189 46.05 Z" fill="black"/>
  <path fill-rule="evenodd" clip-rule="evenodd" d="M 185.562 88.337 C 185.364 88.293 185.133 88.347 184.942 88.41 C 184.731 88.479 184.49 88.586 184.235 88.716 C 183.725 88.977 183.131 89.347 182.574 89.748 C 182.018 90.148 181.485 90.589 181.104 90.993 C 180.915 91.194 180.751 91.398 180.642 91.594 C 180.541 91.776 180.447 92.023 180.521 92.272 C 180.546 92.354 180.593 92.429 180.629 92.482 C 180.67 92.542 180.722 92.609 180.781 92.681 C 180.9 92.824 181.062 93.002 181.258 93.207 C 181.65 93.617 182.194 94.15 182.836 94.759 C 184.122 95.978 185.816 97.511 187.517 98.987 C 189.217 100.464 190.93 101.889 192.254 102.892 C 192.914 103.393 193.486 103.795 193.916 104.047 C 194.128 104.171 194.325 104.27 194.49 104.32 C 194.57 104.345 194.671 104.368 194.776 104.359 C 194.89 104.35 195.041 104.298 195.133 104.145 C 195.2 104.032 195.206 103.911 195.204 103.833 C 195.201 103.747 195.184 103.656 195.162 103.567 C 195.118 103.389 195.039 103.172 194.936 102.929 C 194.73 102.44 194.408 101.8 194.012 101.066 C 193.216 99.597 192.101 97.723 190.947 95.875 C 189.793 94.026 188.597 92.197 187.639 90.818 C 187.16 90.129 186.738 89.549 186.409 89.133 C 186.245 88.925 186.099 88.753 185.978 88.627 C 185.918 88.564 185.859 88.507 185.801 88.462 C 185.756 88.425 185.67 88.361 185.562 88.337 Z M 147.965 112.885 C 146.594 112.539 145.35 111.666 144.177 110.519 C 143.061 109.428 142.047 108.128 141.065 106.869 L 140.913 106.674 C 139.9 105.377 138.901 104.116 137.889 103.295 C 136.867 102.464 135.707 101.989 134.443 102.521 C 132.634 103.281 130.44 105.021 128.223 107.254 C 125.994 109.5 123.7 112.287 121.696 115.197 C 119.693 118.105 117.969 121.152 116.889 123.917 C 115.838 126.609 115.339 129.226 115.98 131.121 C 116.428 132.444 117.626 133.866 119.277 135.335 C 120.944 136.819 123.138 138.406 125.667 140.047 C 130.728 143.332 137.192 146.871 143.62 150.282 C 145.523 151.291 147.422 152.29 149.282 153.268 L 149.291 153.272 C 153.718 155.599 157.92 157.808 161.41 159.771 C 163.889 161.165 165.993 162.428 167.556 163.514 C 168.338 164.058 168.973 164.55 169.449 164.986 C 169.935 165.431 170.215 165.784 170.335 166.043 C 170.884 167.232 171.913 170.534 173.156 175.174 C 174.394 179.795 175.831 185.697 177.199 192.052 C 177.2 192.057 177.201 192.062 177.202 192.067 C 178.63 197.9 179.502 203.015 180.161 207.411 C 180.372 208.821 180.562 210.161 180.742 211.429 L 180.742 211.43 L 180.742 211.431 C 181.121 214.103 181.455 216.455 181.847 218.462 C 182.424 221.416 183.146 223.741 184.41 225.325 C 185.618 226.842 189.174 226.83 191.674 226.821 C 192.833 226.821 193.764 226.247 194.484 225.325 C 195.192 224.418 195.715 223.152 196.105 221.679 C 196.105 221.679 196.088 214.796 196.105 210.712 C 196.125 205.525 195.151 200.531 194.436 196.865 L 194.436 196.864 C 194.024 194.751 193.697 193.08 193.697 192.067 C 193.697 189.847 193.474 186.834 193.242 183.712 L 193.241 183.7 L 193.24 183.69 C 193.176 182.82 193.111 181.941 193.05 181.069 L 193.049 181.067 C 192.902 178.962 192.75 176.799 192.555 174.668 C 192.272 171.593 191.897 168.599 191.305 165.992 C 190.715 163.395 189.898 161.129 188.699 159.55 C 186.131 156.169 178.837 148.845 170.804 141.912 C 168.118 139.594 165.346 137.309 162.81 135.219 L 162.809 135.218 C 161.256 133.938 159.793 132.732 158.492 131.636 C 156.771 130.186 155.336 128.93 154.336 127.938 C 153.835 127.441 153.456 127.024 153.208 126.691 C 153.083 126.525 152.903 126.158 152.903 126.158 C 152.912 125.868 153.017 125.494 153.231 125.042 C 153.443 124.592 153.749 124.096 154.125 123.571 C 154.877 122.52 155.88 121.395 156.893 120.355 C 157.903 119.318 158.913 118.376 159.671 117.693 C 160.049 117.352 160.364 117.076 160.584 116.885 C 160.694 116.79 160.868 116.642 160.927 116.592 C 161.047 116.491 161.116 116.341 161.114 116.183 C 161.112 116.026 161.04 115.878 160.917 115.78 L 153.143 109.578 C 152.994 109.459 152.792 109.431 152.616 109.503 C 152.44 109.576 152.317 109.738 152.295 109.927 C 152.275 110.035 152.215 110.346 152.161 110.531 C 152.052 110.905 151.868 111.379 151.566 111.814 C 151.267 112.246 150.86 112.628 150.302 112.848 C 149.746 113.068 148.993 113.145 147.965 112.885 Z M 106.963 136.031 C 107.125 136.006 107.289 136.058 107.407 136.172 L 123.829 152.07 C 123.943 152.18 124.001 152.336 123.987 152.493 C 123.973 152.65 123.889 152.793 123.758 152.882 C 120.794 154.881 117.271 157.895 113.423 161.187 L 113.422 161.187 L 113.422 161.188 C 111.562 162.779 109.626 164.436 107.639 166.075 C 101.585 171.07 95.082 175.883 89.041 177.927 C 84.087 179.602 78.866 180.391 73.628 180.971 C 72.012 181.149 70.399 181.308 68.79 181.466 L 68.789 181.466 C 65.162 181.823 61.562 182.176 58.034 182.752 C 53.96 183.417 50.234 184.192 46.889 184.888 L 46.889 184.889 L 46.888 184.889 L 46.734 184.921 C 43.356 185.624 40.357 186.246 37.805 186.576 C 35.263 186.906 33.096 186.957 31.406 186.473 C 29.671 185.976 28.444 184.914 27.839 183.099 C 27.25 181.332 27.542 179.639 28.54 178.092 C 29.525 176.566 31.192 175.188 33.356 173.971 C 37.686 171.534 44.165 169.651 51.758 168.526 C 70.589 165.736 94.886 157.957 106.581 136.3 C 106.659 136.155 106.801 136.056 106.963 136.031 Z" fill="black"/>
</svg>
