<?xml version="1.0" encoding="utf-8"?>
<svg width="256" height="256" viewBox="0 0 256 256" fill="none" xmlns="http://www.w3.org/2000/svg">
  <path d="M 111.495 96.566 C 111.495 95.42 112.425 94.49 113.571 94.49 L 119.278 94.49 C 120.425 94.49 121.354 95.42 121.354 96.566 L 121.354 104.867 C 121.354 106.013 120.425 106.943 119.278 106.943 L 113.571 106.943 C 112.425 106.943 111.495 106.013 111.495 104.867 L 111.495 96.566 Z" fill="black"/>
  <path d="M 131.385 94.49 C 130.239 94.49 129.31 95.42 129.31 96.566 L 129.31 104.867 C 129.31 106.013 130.239 106.943 131.385 106.943 L 137.093 106.943 C 138.239 106.943 139.168 106.013 139.168 104.867 L 139.168 96.566 C 139.168 95.42 138.239 94.49 137.093 94.49 L 131.385 94.49 Z" fill="black"/>
  <path fill-rule="evenodd" clip-rule="evenodd" d="M 145.037 27.989 L 103.885 27.989 L 103.885 52.289 L 113.138 52.289 L 113.138 58.17 L 98.178 58.17 L 98.224 78.579 C 97.113 78.59 96.015 78.746 95.004 79.04 C 93.684 79.425 92.567 80.029 91.782 80.783 C 90.998 81.538 90.577 82.412 90.568 83.306 C 90.559 84.2 90.963 85.077 91.733 85.837 C 92.502 86.597 93.607 87.21 94.92 87.604 C 95.959 87.916 97.095 88.081 98.245 88.09 L 98.261 95.182 C 97.138 95.19 96.026 95.347 95.004 95.644 C 93.684 96.028 92.567 96.632 91.782 97.387 C 90.998 98.141 90.577 99.016 90.568 99.91 C 90.559 100.803 90.963 101.681 91.733 102.441 C 92.502 103.201 93.607 103.813 94.92 104.207 C 95.97 104.523 97.12 104.688 98.283 104.694 L 98.3 112.135 C 97.222 112.154 96.158 112.31 95.177 112.595 C 93.857 112.979 92.74 113.583 91.955 114.338 C 91.171 115.092 90.75 115.967 90.741 116.86 C 90.732 117.754 91.136 118.632 91.905 119.392 C 92.675 120.152 93.78 120.764 95.093 121.158 C 96.103 121.461 97.204 121.626 98.321 121.644 L 98.341 130.292 C 98.493 130.764 98.752 131.209 99.119 131.591 L 113.917 145.685 L 113.917 153.468 L 136.92 153.468 L 136.92 145.685 L 151.498 131.812 C 151.934 131.375 152.226 130.849 152.373 130.292 L 152.486 129.427 L 152.486 121.644 C 153.613 121.629 154.725 121.464 155.743 121.158 C 157.056 120.764 158.161 120.152 158.931 119.392 C 159.701 118.632 160.104 117.754 160.096 116.86 C 160.087 115.967 159.666 115.092 158.881 114.338 C 158.097 113.583 156.98 112.979 155.659 112.595 C 154.663 112.305 153.581 112.149 152.486 112.134 L 152.486 104.694 C 153.671 104.694 154.846 104.529 155.916 104.207 C 157.229 103.813 158.334 103.201 159.104 102.441 C 159.874 101.681 160.277 100.803 160.268 99.91 C 160.26 99.016 159.839 98.141 159.054 97.387 C 158.269 96.632 157.153 96.028 155.832 95.644 C 154.783 95.339 153.64 95.182 152.486 95.182 L 152.486 88.091 C 153.671 88.091 154.846 87.925 155.916 87.604 C 157.229 87.21 158.334 86.597 159.104 85.837 C 159.874 85.077 160.277 84.2 160.268 83.306 C 160.26 82.412 159.839 81.538 159.054 80.783 C 158.269 80.029 157.153 79.425 155.832 79.04 C 154.783 78.735 153.64 78.578 152.486 78.578 L 152.486 58.17 L 137.871 58.17 L 137.871 46.719 L 152.256 36.356 L 145.037 27.989 Z M 131.126 58.17 L 131.126 51.578 L 130.139 52.289 L 119.884 52.289 L 119.884 58.17 L 131.126 58.17 Z M 110.631 45.544 L 110.631 34.734 L 141.947 34.734 L 142.338 35.187 L 127.962 45.544 L 110.631 45.544 Z M 114.705 138.075 L 105.788 128.796 L 105.788 125.103 L 144.876 125.103 L 144.876 128.895 L 135.696 138.075 L 114.705 138.075 Z M 144.876 65.78 L 105.788 65.78 L 105.788 76.157 L 144.876 76.157 L 144.876 65.78 Z M 105.788 122.509 L 105.788 78.751 L 111.495 78.751 L 111.495 87.053 C 111.495 88.199 112.425 89.129 113.571 89.129 L 119.278 89.129 C 120.425 89.129 121.354 88.199 121.354 87.053 L 121.354 78.751 L 129.31 78.751 L 129.31 87.053 C 129.31 88.199 130.239 89.129 131.385 89.129 L 137.093 89.129 C 138.239 89.129 139.168 88.199 139.168 87.053 L 139.168 78.751 L 144.876 78.751 L 144.876 122.509 L 137.923 122.509 C 138.656 122.188 139.168 121.456 139.168 120.606 L 139.168 111.958 C 139.168 110.813 138.239 109.883 137.093 109.883 L 131.385 109.883 C 130.239 109.883 129.31 110.813 129.31 111.958 L 129.31 120.606 C 129.31 121.456 129.822 122.188 130.554 122.509 L 120.109 122.509 C 120.842 122.188 121.354 121.456 121.354 120.606 L 121.354 111.958 C 121.354 110.813 120.425 109.883 119.278 109.883 L 113.571 109.883 C 112.425 109.883 111.495 110.813 111.495 111.958 L 111.495 120.606 C 111.495 121.456 112.007 122.188 112.74 122.509 L 105.788 122.509 Z" fill="black"/>
  <path d="M 206.217 107.723 C 206.659 108.093 206.751 108.738 206.428 109.215 L 155.583 184.445 L 209.803 160.825 C 210.339 160.592 210.965 160.808 211.242 161.322 C 211.519 161.837 211.356 162.478 210.867 162.797 L 125.687 218.402 C 125.323 218.64 124.855 218.646 124.485 218.419 L 41.293 167.398 C 40.795 167.092 40.614 166.455 40.877 165.933 C 41.14 165.411 41.76 165.178 42.302 165.397 L 86.006 183.034 L 25.408 118.348 C 25.007 117.92 25.003 117.255 25.398 116.821 C 25.794 116.388 26.457 116.332 26.92 116.693 L 86.2 162.891 L 71.545 128.309 C 71.327 127.793 71.521 127.195 72.002 126.907 C 72.482 126.618 73.101 126.727 73.454 127.163 C 81.265 136.804 92.981 151.213 102.744 163.108 C 107.626 169.056 112.016 174.372 115.186 178.148 C 116.443 179.645 117.504 180.897 118.327 181.848 L 118.327 166.439 C 118.327 165.988 118.596 165.581 119.011 165.405 C 119.426 165.228 119.906 165.317 120.231 165.629 L 132.936 177.846 L 204.711 107.781 C 205.124 107.379 205.774 107.353 206.217 107.723 Z" fill="black"/>
  <path d="M 179.458 54.253 L 178.83 49.265 L 176.407 53.669 L 171.469 52.725 L 174.908 56.391 L 172.485 60.794 L 177.034 58.656 L 180.473 62.322 L 179.846 57.335 L 184.395 55.197 L 179.458 54.253 Z" fill="black"/>
  <path d="M 60.675 60.169 L 64.975 68.703 L 74.421 67.25 L 67.633 73.977 L 71.933 82.511 L 63.438 78.135 L 56.65 84.861 L 58.188 75.43 L 49.693 71.053 L 59.138 69.6 L 60.675 60.169 Z" fill="black"/>
  <path d="M 220.11 80.582 L 215.041 69.982 L 212.912 81.537 L 201.265 83.083 L 211.596 88.678 L 209.468 100.233 L 217.981 92.136 L 228.312 97.732 L 223.244 87.132 L 231.757 79.036 L 220.11 80.582 Z" fill="black"/>
  <path d="M 240 220.401 L 16.024 220.401 L 16.024 228.011 L 240 228.011 L 240 220.401 Z" fill="black"/>
  <path d="M 66.796 112.758 L 67.154 107.065 L 63.518 111.461 L 58.214 109.361 L 61.271 114.178 L 57.636 118.573 L 63.161 117.154 L 66.218 121.97 L 66.575 116.277 L 72.1 114.858 L 66.796 112.758 Z" fill="black"/>
  <path d="M 22.827 105.786 L 22.571 109.87 L 26.375 111.376 L 22.412 112.394 L 22.156 116.478 L 19.963 113.023 L 16 114.041 L 18.608 110.888 L 16.415 107.433 L 20.219 108.939 L 22.827 105.786 Z" fill="black"/>
  <path d="M 224.96 148.716 L 220.928 140.286 L 219.233 149.476 L 209.97 150.706 L 218.187 155.156 L 216.495 164.346 L 223.266 157.907 L 231.483 162.357 L 227.452 153.927 L 234.223 147.487 L 224.96 148.716 Z" fill="black"/>
  <path d="M 175.763 94.157 L 180.308 101.61 L 188.801 99.59 L 183.118 106.216 L 187.663 113.669 L 179.605 110.311 L 173.922 116.937 L 174.625 108.236 L 166.567 104.878 L 175.06 102.858 L 175.763 94.157 Z" fill="black"/>
  <path d="M 206.97 177.686 L 205.975 182.364 L 210.117 184.756 L 205.361 185.256 L 204.367 189.934 L 202.421 185.565 L 197.665 186.064 L 201.219 182.864 L 199.274 178.495 L 203.416 180.887 L 206.97 177.686 Z" fill="black"/>
</svg>
