<?xml version="1.0" encoding="utf-8"?>
<svg width="256" height="256" viewBox="0 0 256 256" fill="none" xmlns="http://www.w3.org/2000/svg">
  <path d="M 232.603 63.403 L 218.336 63.403 L 218.336 74.146 L 232.603 74.146 C 236.69 74.146 240 77.458 240 81.544 C 240 85.629 236.69 88.941 232.603 88.941 L 201.17 88.941 C 190.125 88.941 181.172 79.912 181.172 68.774 C 181.172 57.637 190.125 48.608 201.17 48.608 L 232.603 48.608 C 236.688 48.608 240 51.92 240 56.005 C 240 60.09 236.688 63.403 232.603 63.403 Z" fill="black"/>
  <path d="M 52.989 83.481 L 120.448 83.481 L 120.448 88.941 L 52.989 88.941 L 52.989 83.481 Z" fill="black"/>
  <path d="M 55.631 193.561 L 118.158 193.561 L 118.158 198.316 L 55.631 198.316 L 55.631 193.561 Z" fill="black"/>
  <path d="M 16 213.287 L 110.761 213.287 L 110.761 218.395 L 16 218.395 L 16 213.287 Z" fill="black"/>
  <path d="M 18.29 38.04 L 78.352 38.04 L 78.352 43.5 L 18.29 43.5 L 18.29 38.04 Z" fill="black"/>
  <path d="M 41.271 115.55 C 37.373 112.029 31.358 112.334 27.837 116.231 C 24.315 120.129 24.62 126.143 28.518 129.664 L 64.704 162.357 C 68.602 165.879 74.616 165.574 78.138 161.676 C 87.171 153.681 102.942 139.297 102.942 139.297 C 106.903 135.846 107.317 129.839 103.867 125.878 C 100.416 121.917 94.408 121.503 90.448 124.954 L 70.709 142.147 L 41.271 115.55 Z" fill="black"/>
  <path d="M 182.448 93.696 C 177.973 93.696 173.641 97.324 173.641 101.798 L 173.641 120.996 L 170.206 120.996 C 165.002 120.996 160.783 125.215 160.783 130.419 C 160.783 135.623 165.002 139.842 170.206 139.842 L 181.303 139.842 C 186.507 139.842 190.726 135.623 190.726 130.419 L 190.99 101.798 C 190.99 97.324 186.922 93.696 182.448 93.696 Z" fill="black"/>
  <path d="M 90.329 37.159 L 138.752 37.159 C 141.104 36.859 143.565 37.609 145.375 39.412 L 177.055 71.065 C 182.148 77.445 181.105 86.747 174.725 91.84 L 135.596 123.021 L 160.108 154.308 C 160.904 155.348 161.466 156.493 161.8 157.681 C 162.589 160.139 162.457 162.895 161.216 165.388 L 137.405 213.214 C 134.879 218.288 128.719 220.352 123.646 217.827 C 118.572 215.302 116.507 209.142 119.033 204.068 L 140.278 161.395 L 109.968 121.819 C 107.945 119.178 108.312 116.434 108.312 112.885 C 108.312 108.755 111.465 104.264 113.814 102.633 L 154.063 70.504 L 136.848 53.363 L 90.329 53.363 C 85.854 53.363 82.227 49.736 82.227 45.261 C 82.227 40.787 85.854 37.159 90.329 37.159 Z" fill="black"/>
</svg>
