<?xml version="1.0" encoding="utf-8"?>
<svg width="256" height="256" viewBox="0 0 256 256" fill="none" xmlns="http://www.w3.org/2000/svg">
  <path d="M 222.387 24.081 L 225.38 35.932 L 236.512 30.884 L 229.115 40.614 L 240 46.171 L 227.783 46.453 L 230.225 58.43 L 222.387 49.052 L 214.548 58.43 L 216.992 46.453 L 204.773 46.171 L 215.659 40.614 L 208.262 30.884 L 219.393 35.932 L 222.387 24.081 Z" fill="black"/>
  <path d="M 140.775 60.041 C 145.691 60.041 149.675 56.056 149.675 51.14 C 149.675 46.224 145.691 42.239 140.775 42.239 C 135.86 42.239 131.875 46.224 131.875 51.14 C 131.875 56.056 135.86 60.041 140.775 60.041 Z" fill="black"/>
  <path d="M 235.826 231.918 L 51.955 231.918 C 56.999 225.876 92.276 214.846 115.793 207.492 C 127.958 203.689 136.977 200.868 137.037 200.232 C 137.108 199.493 135.244 195.833 133.076 191.571 C 129.758 185.054 125.726 177.132 126.803 176.11 C 127.738 175.223 132.036 176.986 136.165 178.68 L 136.167 178.681 L 136.168 178.681 C 139.899 180.212 143.49 181.685 144.335 181.095 C 145.08 180.574 141.481 169.496 137.302 156.634 L 137.3 156.63 C 131.488 138.74 124.554 117.397 126.624 116.206 C 128.29 115.248 136.794 125.476 145.957 136.494 L 145.958 136.495 C 156.377 149.025 167.648 162.579 170.679 161.868 C 173.555 161.194 172.596 132.289 171.652 103.834 L 171.652 103.829 C 170.727 75.932 169.816 48.469 172.548 48.468 C 175.389 48.467 184.084 82.2 192.519 114.923 C 200.463 145.742 208.176 175.664 210.55 175.664 C 212.766 175.664 215.73 168.128 218.955 159.931 C 222.853 150.022 230.397 139.171 230.397 139.171 C 237.695 141.752 237.553 185.811 236.448 191.774 C 235.344 197.738 228.824 206.578 219.094 214.739 L 235.826 231.918 Z" fill="black"/>
  <path d="M 221.238 59.433 C 222.606 59.586 223.592 60.818 223.439 62.186 L 213.828 148.615 C 213.675 149.983 212.443 150.968 211.075 150.816 C 209.708 150.664 208.722 149.432 208.874 148.064 L 218.486 61.635 C 218.638 60.267 219.87 59.281 221.238 59.433 Z" fill="black"/>
  <path d="M 146.106 65.135 C 145.724 63.812 144.343 63.05 143.02 63.432 C 141.698 63.814 140.936 65.196 141.318 66.518 L 161.966 137.993 C 162.348 139.316 163.729 140.078 165.052 139.696 C 166.374 139.314 167.136 137.932 166.754 136.61 L 146.106 65.135 Z" fill="black"/>
  <path d="M 80.618 59.747 C 81.715 58.915 83.278 59.129 84.11 60.225 L 122.824 111.228 C 123.656 112.324 123.443 113.888 122.346 114.72 C 121.25 115.552 119.687 115.338 118.855 114.242 L 80.14 63.239 C 79.308 62.143 79.522 60.58 80.618 59.747 Z" fill="black"/>
  <path d="M 51.082 96.879 C 49.896 96.181 48.369 96.577 47.671 97.764 C 46.973 98.95 47.369 100.478 48.555 101.176 L 122.691 144.79 C 123.877 145.488 125.405 145.092 126.102 143.906 C 126.8 142.72 126.404 141.192 125.218 140.494 L 51.082 96.879 Z" fill="black"/>
  <path d="M 121.018 165.251 C 121.018 169.478 117.591 172.906 113.364 172.906 C 109.137 172.906 105.71 169.478 105.71 165.251 C 105.71 161.023 109.137 157.596 113.364 157.596 C 117.591 157.596 121.018 161.023 121.018 165.251 Z" fill="black"/>
  <path d="M 32.642 231.83 C 41.834 231.83 49.285 224.378 49.285 215.185 C 49.285 205.993 41.834 198.54 32.642 198.54 C 23.451 198.54 15.999 205.993 15.999 215.185 C 15.999 224.378 23.451 231.83 32.642 231.83 Z" fill="black"/>
  <path d="M 56.939 142.108 C 56.939 146.336 53.512 149.763 49.285 149.763 C 45.058 149.763 41.631 146.336 41.631 142.108 C 41.631 137.881 45.058 134.453 49.285 134.453 C 53.512 134.453 56.939 137.881 56.939 142.108 Z" fill="black"/>
  <path d="M 130.006 98.493 C 134.971 98.493 138.995 94.468 138.995 89.503 C 138.995 84.538 134.971 80.513 130.006 80.513 C 125.042 80.513 121.018 84.538 121.018 89.503 C 121.018 94.468 125.042 98.493 130.006 98.493 Z" fill="black"/>
  <path d="M 46.615 92.174 C 46.615 97.139 42.59 101.164 37.626 101.164 C 32.662 101.164 28.637 97.139 28.637 92.174 C 28.637 87.209 32.662 83.184 37.626 83.184 C 42.59 83.184 46.615 87.209 46.615 92.174 Z" fill="black"/>
  <path d="M 66.025 38.945 L 55.76 32.31 L 61.641 43.025 L 50.054 46.914 L 62.097 48.997 L 57.914 60.482 L 67.05 52.363 L 73.42 62.795 L 72.77 50.589 L 84.896 52.113 L 74.949 45.011 L 83.701 36.479 L 71.947 39.829 L 70.734 27.666 L 66.025 38.945 Z" fill="black"/>
</svg>
