<?xml version="1.0" encoding="utf-8"?>
<svg width="256" height="256" viewBox="0 0 256 256" fill="none" xmlns="http://www.w3.org/2000/svg">
  <path d="M 195.257 26.836 C 180.399 26.836 168.354 38.88 168.354 53.738 C 168.354 55.693 168.562 57.593 168.954 59.419 C 169.582 62.345 167.72 65.226 164.795 65.854 C 161.869 66.482 158.988 64.62 158.36 61.695 C 158.189 60.896 158.043 60.089 157.922 59.274 C 146.099 65.372 136.516 69.511 120.862 75.744 C 119.233 76.393 117.386 75.598 116.737 73.969 C 116.088 72.339 116.882 70.492 118.512 69.843 C 135.139 63.222 144.738 59.035 157.545 52.31 C 157.859 43.885 160.934 36.166 165.892 30.032 C 137.053 39.198 109.69 48.303 69.529 61.666 L 69.484 61.682 L 69.48 61.683 C 67.074 62.483 64.622 63.299 62.121 64.131 C 60.457 64.685 58.659 63.785 58.105 62.12 C 57.551 60.456 58.452 58.658 60.116 58.104 C 62.643 57.263 65.12 56.439 67.55 55.63 L 67.551 55.63 C 117.503 39.009 147.719 28.955 185.627 17.171 C 185.907 17.084 186.19 17.037 186.47 17.028 C 189.289 16.356 192.231 16 195.257 16 C 216.099 16 232.995 32.896 232.995 53.738 C 232.995 63.696 229.138 72.753 222.837 79.497 L 161.95 201.901 C 161.169 203.472 159.262 204.111 157.692 203.33 C 156.122 202.549 155.482 200.643 156.263 199.072 L 211.64 87.744 C 206.685 90.136 201.127 91.476 195.257 91.476 C 190.869 91.476 186.645 90.725 182.714 89.34 C 179.892 88.346 178.41 85.252 179.404 82.43 C 180.399 79.608 183.492 78.126 186.315 79.12 C 189.105 80.103 192.112 80.64 195.257 80.64 C 210.114 80.64 222.159 68.596 222.159 53.738 C 222.159 38.88 210.114 26.836 195.257 26.836 Z" fill="black"/>
  <path d="M 23.114 49.887 C 22.662 48.192 23.669 46.452 25.363 45.999 C 50.574 39.268 64.432 36.237 88.178 31.748 C 89.902 31.422 91.563 32.556 91.889 34.279 C 92.215 36.003 91.081 37.664 89.358 37.99 C 65.747 42.453 52.044 45.45 27.002 52.136 C 25.307 52.588 23.567 51.581 23.114 49.887 Z" fill="black"/>
  <path d="M 216.928 53.551 C 216.928 65.417 207.309 75.036 195.443 75.036 C 191.407 75.036 187.63 73.922 184.403 71.986 C 171.665 86.021 161.213 96.918 152.74 105.751 L 152.739 105.752 C 148.919 109.735 145.528 113.164 142.527 116.2 C 125.792 133.128 121.163 137.81 121.578 157.931 C 121.658 161.835 122.632 164.995 123.574 168.053 C 124.495 171.04 125.385 173.93 125.385 177.321 C 125.385 205.54 102.509 228.417 74.289 228.417 C 46.07 228.417 23.194 205.54 23.194 177.321 C 23.194 149.101 41.596 126.225 73.916 126.225 C 76.624 126.225 79.123 126.856 81.621 127.486 C 84.12 128.116 86.62 128.747 89.329 128.747 C 99.324 128.747 119.508 116.668 146.823 91.063 C 154.956 83.44 164.631 74.371 176.467 63.635 C 174.866 60.628 173.959 57.195 173.959 53.551 C 173.959 41.686 183.578 32.067 195.443 32.067 C 207.309 32.067 216.928 41.686 216.928 53.551 Z" fill="black"/>
  <path d="M 216.534 120.799 C 218.137 121.511 218.861 123.387 218.15 124.99 L 167.988 238.111 C 167.277 239.715 165.401 240.437 163.797 239.727 C 162.194 239.016 161.47 237.14 162.181 235.536 L 212.343 122.415 C 213.054 120.812 214.931 120.088 216.534 120.799 Z" fill="black"/>
  <path d="M 167.895 136.352 C 168.845 134.877 168.42 132.912 166.945 131.962 C 165.47 131.012 163.505 131.437 162.555 132.912 L 143.78 162.056 C 142.83 163.531 143.255 165.496 144.729 166.446 C 146.204 167.396 148.169 166.971 149.119 165.496 L 167.895 136.352 Z" fill="black"/>
</svg>
