<?xml version="1.0" encoding="utf-8"?>
<svg width="256" height="256" viewBox="0 0 256 256" fill="none" xmlns="http://www.w3.org/2000/svg">
  <path d="M 141.709 95.92 C 141.709 95.92 197.753 42.114 197.382 36.423 C 197.011 30.731 192.813 27.131 187.871 27.003 C 185.778 26.949 172.934 31.171 158.068 36.058 C 137.826 42.712 113.836 50.598 108.137 50.598 C 98.252 50.598 64.68 16 64.68 16 L 21.689 61.881 C 56.326 86.687 73.838 103.422 102.075 137.791 L 121.785 118.138 C 121.785 118.138 118.209 113.824 117.836 110.84 C 117.463 107.856 124.55 98.437 128.84 97.225 C 133.13 96.013 141.709 95.92 141.709 95.92 Z" fill="black"/>
  <path d="M 182.028 179.384 C 202.099 179.366 218.365 163.09 218.365 143.014 C 218.365 122.928 202.082 106.644 181.995 106.644 C 161.909 106.644 145.625 122.928 145.625 143.014 C 145.625 152.379 149.165 160.917 154.979 167.364 L 156.369 172.144 C 119.994 169.136 99.695 181.988 88.782 197.621 C 77.775 213.388 76.45 231.799 77.464 238.958 C 77.548 239.556 78.06 240 78.664 240 L 211.46 240 C 211.795 240 212.115 239.861 212.345 239.617 C 212.574 239.372 212.692 239.044 212.67 238.71 C 211.724 224.061 209.241 213.398 203.82 204.203 C 198.695 195.51 191.008 188.237 179.777 180.145 L 182.028 179.384 Z" fill="black"/>
  <path d="M 233.099 46.494 C 232.84 46.494 232.632 46.571 232.533 46.612 C 232.413 46.661 232.306 46.72 232.217 46.773 C 232.04 46.879 231.85 47.016 231.66 47.164 C 231.274 47.464 230.788 47.886 230.226 48.398 C 229.099 49.426 227.596 50.883 225.85 52.617 C 222.905 55.541 219.233 59.286 215.443 63.152 L 215.439 63.156 L 215.436 63.159 L 215.433 63.162 L 215.418 63.177 C 214.72 63.89 214.017 64.606 213.315 65.322 C 208.784 69.94 204.246 74.546 200.69 77.995 C 198.91 79.722 197.391 81.145 196.249 82.132 C 195.676 82.627 195.089 83.082 194.754 83.319 C 194.392 82.957 193.703 82.176 193.199 81.452 C 192.197 80.012 191.062 78.065 189.984 76.084 C 188.911 74.109 187.91 72.132 187.177 70.645 C 186.811 69.903 186.191 68.609 185.984 68.176 C 185.777 67.732 185.322 67.457 184.832 67.479 C 184.342 67.501 183.914 67.816 183.746 68.277 C 183.687 68.437 183.511 68.913 183.399 69.213 C 183.173 69.812 182.846 70.669 182.44 71.698 C 181.627 73.758 180.502 76.499 179.249 79.236 C 177.992 81.981 176.625 84.681 175.331 86.678 C 174.682 87.681 174.081 88.459 173.554 88.972 C 173.291 89.227 173.075 89.39 172.906 89.484 C 172.743 89.576 172.669 89.578 172.669 89.578 C 170.717 89.578 167.018 88.933 163.692 88.251 C 162.055 87.916 158.762 87.161 157.663 86.909 C 157.135 86.781 156.585 87.019 156.319 87.493 C 156.053 87.967 156.134 88.56 156.519 88.945 L 172.372 104.797 C 172.63 105.055 172.991 105.183 173.354 105.146 C 173.718 105.108 174.045 104.908 174.244 104.602 L 174.245 104.602 C 175.241 103.121 178.224 98.686 179.626 96.717 C 181.031 94.742 182.479 92.789 183.683 91.338 C 184.288 90.609 184.808 90.035 185.215 89.652 C 185.31 89.564 185.392 89.491 185.462 89.433 C 185.56 89.506 185.679 89.602 185.817 89.722 C 186.296 90.136 186.914 90.751 187.634 91.522 C 189.067 93.059 190.82 95.122 192.529 97.203 C 194.235 99.28 197.901 103.956 199.124 105.517 C 199.368 105.836 199.754 106.013 200.155 105.99 C 200.556 105.968 200.919 105.749 201.126 105.404 C 207.055 95.539 215.313 81.261 222.086 69.456 C 225.473 63.552 228.49 58.265 230.66 54.453 C 231.745 52.547 232.619 51.01 233.221 49.949 C 233.522 49.419 233.755 49.008 233.913 48.729 L 234.154 48.304 C 234.367 47.929 234.364 47.469 234.147 47.096 C 233.93 46.724 233.531 46.494 233.099 46.494 Z" fill="black"/>
</svg>
