<?xml version="1.0" encoding="utf-8"?>
<svg width="256" height="256" viewBox="0 0 256 256" fill="none" xmlns="http://www.w3.org/2000/svg">
  <path d="M 127.835 84.377 C 130.203 84.377 132.123 86.3 132.123 88.674 L 132.123 124.401 L 167.655 124.401 C 170.023 124.401 171.943 126.325 171.943 128.698 C 171.943 131.071 170.023 132.995 167.655 132.995 L 123.547 132.995 L 123.547 88.674 C 123.547 86.3 125.467 84.377 127.835 84.377 Z" fill="black"/>
  <path fill-rule="evenodd" clip-rule="evenodd" d="M 76.26 16 C 71.969 16 68.49 19.479 68.49 23.77 L 68.49 39.419 C 65.628 40.565 63.606 43.365 63.606 46.636 L 63.606 49.412 C 51.404 49.387 41.458 51.518 34.181 55.409 C 26.463 59.536 21.58 65.778 20.767 73.413 C 19.969 80.912 23.204 88.821 29.652 96.233 C 35.791 103.29 45.065 110.181 57.488 116.333 C 56.839 120.199 56.502 124.171 56.502 128.222 C 56.502 132.494 56.878 136.679 57.597 140.745 C 45.008 146.938 35.623 153.889 29.429 161.008 C 22.982 168.42 19.747 176.329 20.545 183.828 C 21.358 191.463 26.241 197.705 33.959 201.832 C 41.28 205.746 51.303 207.88 63.606 207.829 L 63.606 210.474 C 63.606 213.745 65.628 216.545 68.49 217.69 L 68.49 232.23 C 68.49 236.521 71.969 240 76.26 240 L 92.022 240 C 96.314 240 99.793 236.521 99.793 232.23 L 99.793 218.244 L 112.447 218.244 L 112.447 232.23 C 112.447 236.521 115.925 240 120.217 240 L 135.979 240 C 140.27 240 143.749 236.521 143.749 232.23 L 143.749 218.244 L 156.403 218.244 L 156.403 232.23 C 156.403 236.521 159.882 240 164.173 240 L 179.935 240 C 184.226 240 187.705 236.521 187.705 232.23 L 187.705 217.597 C 190.449 216.398 192.367 213.66 192.367 210.474 L 192.367 207.96 C 204.582 207.988 214.537 205.857 221.819 201.963 C 229.537 197.836 234.421 191.594 235.233 183.959 C 236.032 176.46 232.797 168.551 226.349 161.139 C 220.148 154.011 210.748 147.052 198.135 140.853 C 198.867 136.753 199.249 132.532 199.249 128.222 C 199.249 124.204 198.917 120.263 198.279 116.426 C 210.931 110.218 220.357 103.245 226.571 96.102 C 233.019 88.69 236.254 80.781 235.455 73.282 C 234.643 65.647 229.759 59.405 222.041 55.278 C 214.715 51.361 204.683 49.227 192.367 49.281 L 192.367 46.636 C 192.367 43.45 190.449 40.713 187.705 39.513 L 187.705 23.77 C 187.705 19.479 184.226 16 179.935 16 L 164.173 16 C 159.882 16 156.403 19.479 156.403 23.77 L 156.403 38.866 L 143.749 38.866 L 143.749 23.77 C 143.749 19.479 140.27 16 135.979 16 L 120.217 16 C 115.925 16 112.447 19.479 112.447 23.77 L 112.447 38.866 L 99.793 38.866 L 99.793 23.77 C 99.793 19.479 96.314 16 92.022 16 L 76.26 16 Z M 192.257 57.052 C 191.812 59.664 190.064 61.831 187.705 62.861 L 187.705 89.289 C 191.551 95.186 194.548 101.687 196.523 108.618 C 207.656 102.957 215.609 96.864 220.709 91.002 C 226.302 84.573 228.221 78.731 227.729 74.104 C 227.251 69.612 224.399 65.35 218.377 62.13 C 212.514 58.995 203.818 56.983 192.257 57.052 Z M 196.293 148.618 C 194.318 155.253 191.404 161.483 187.705 167.155 L 187.705 194.248 C 190.104 195.297 191.87 197.52 192.278 200.19 C 203.718 200.229 212.333 198.224 218.155 195.111 C 224.178 191.891 227.029 187.629 227.507 183.137 C 227.999 178.51 226.08 172.668 220.487 166.239 C 215.386 160.375 207.429 154.281 196.293 148.618 Z M 63.717 200.058 C 64.175 197.365 66.02 195.144 68.49 194.155 L 68.49 167.828 C 64.561 161.949 61.482 155.453 59.429 148.517 C 48.322 154.171 40.384 160.254 35.292 166.108 C 29.699 172.537 27.779 178.379 28.272 183.006 C 28.75 187.498 31.601 191.76 37.623 194.98 C 43.483 198.113 52.169 200.124 63.717 200.058 Z M 59.255 108.522 C 61.307 101.362 64.449 94.663 68.49 88.616 L 68.49 62.955 C 66.059 61.982 64.235 59.816 63.74 57.182 C 52.291 57.141 43.671 59.146 37.845 62.261 C 31.823 65.481 28.972 69.743 28.494 74.235 C 28.001 78.862 29.921 84.704 35.514 91.133 C 40.546 96.917 48.355 102.925 59.255 108.522 Z M 99.793 79.442 C 89.26 85.518 80.88 94.908 76.076 106.187 C 73.193 112.954 71.598 120.402 71.598 128.222 C 71.598 141.048 75.889 152.872 83.114 162.337 C 86.167 166.337 89.744 169.916 93.743 172.97 C 95.666 174.439 97.686 175.787 99.793 177.003 C 104.41 179.666 109.44 181.694 114.764 182.964 C 118.971 183.968 123.361 184.5 127.876 184.5 C 133.124 184.5 138.205 183.781 143.024 182.437 C 157.257 178.469 169.215 169.047 176.506 156.565 C 181.367 148.241 184.153 138.557 184.153 128.222 C 184.153 117.564 181.191 107.598 176.044 99.103 C 176.01 99.046 175.976 98.99 175.941 98.934 C 175.897 98.861 175.852 98.789 175.808 98.716 C 168.257 86.476 156.148 77.346 141.847 73.692 C 137.38 72.551 132.699 71.944 127.876 71.944 C 124.02 71.944 120.254 72.332 116.616 73.071 C 110.605 74.292 104.941 76.471 99.793 79.442 Z" fill="black"/>
</svg>
