<?xml version="1.0" encoding="utf-8"?>
<svg width="256" height="256" viewBox="0 0 256 256" fill="none" xmlns="http://www.w3.org/2000/svg">
  <path d="M 164.61 170.313 C 172.758 170.313 179.363 163.709 179.363 155.563 C 179.363 147.416 172.758 140.812 164.61 140.812 C 156.463 140.812 149.858 147.416 149.858 155.563 C 149.858 163.709 156.463 170.313 164.61 170.313 Z" fill="black"/>
  <path fill-rule="evenodd" clip-rule="evenodd" d="M 117.227 52.12 C 113.825 43.898 107.682 37.097 99.937 32.856 L 104.862 21.36 L 92.343 16 L 86.982 28.516 C 85.126 28.244 83.227 28.103 81.296 28.103 C 73.387 28.103 66.03 30.465 59.892 34.521 L 51.443 25.077 L 41.293 34.155 L 50.011 43.9 C 45.245 50.351 42.428 58.329 42.428 66.965 C 42.428 67.44 42.436 67.913 42.453 68.383 L 30.89 68.383 L 30.89 81.999 L 45.443 81.999 C 48.797 89.985 54.741 96.614 62.225 100.835 L 58.716 113.926 L 71.87 117.45 L 75.116 105.339 C 77.129 105.66 79.193 105.827 81.296 105.827 C 83.221 105.827 85.113 105.687 86.963 105.417 C 100.058 104.435 109.026 111.997 109.382 122.185 C 117.323 132.883 123.71 139.777 136.608 152.367 C 136.586 152.563 136.566 152.76 136.548 152.957 C 123.483 159.519 73.362 184.699 69.664 186.671 C 67.896 187.614 65.933 190.513 63.856 193.581 C 60.931 197.901 57.779 202.556 54.627 202.556 C 53.459 202.556 52.336 202.295 51.292 201.884 C 42.268 194.387 31.81 188.657 21.245 186.482 L 21.245 240 L 77.418 240 C 76.623 236.681 75.359 233.249 73.697 229.797 C 73.346 228.879 70.384 220.907 72.879 219.482 C 74.205 218.724 75.674 218.82 77.665 218.95 C 79.649 219.08 82.152 219.244 85.551 218.631 C 91.749 217.512 145.742 187.563 155.385 182.196 C 158.276 183.196 161.38 183.74 164.61 183.74 C 180.175 183.74 192.792 171.124 192.792 155.563 C 192.792 140.001 180.175 127.385 164.61 127.385 C 164.113 127.385 163.618 127.398 163.127 127.424 C 159.692 124.072 156.821 121.185 154.263 118.613 L 154.263 118.612 C 146.842 111.149 142.057 106.338 133.781 100.532 C 124.346 100.453 115.196 92.169 117.198 81.88 C 119.108 77.287 120.144 71.02 120.144 65.736 L 131.512 65.736 L 131.512 52.12 L 117.227 52.12 Z M 164.516 175.608 C 175.641 175.608 184.659 166.591 184.659 155.468 C 184.659 144.345 175.641 135.328 164.516 135.328 C 153.391 135.328 144.373 144.345 144.373 155.468 C 144.373 166.591 153.391 175.608 164.516 175.608 Z" fill="black"/>
  <path fill-rule="evenodd" clip-rule="evenodd" d="M 175.649 187.297 C 176.923 188.38 177.077 190.289 175.995 191.562 C 157.609 213.182 145.298 223.336 120.243 237.617 C 118.791 238.445 116.943 237.939 116.116 236.487 C 115.288 235.035 115.794 233.187 117.246 232.36 C 141.702 218.42 153.464 208.714 171.384 187.642 C 172.466 186.369 174.376 186.215 175.649 187.297 Z" fill="black"/>
  <path fill-rule="evenodd" clip-rule="evenodd" d="M 116.487 21.409 C 116.633 19.744 118.101 18.513 119.766 18.659 C 181.339 24.063 218.134 60.218 230.273 104.098 C 242.365 147.807 229.927 198.937 193.777 234.406 C 192.584 235.576 190.668 235.559 189.497 234.366 C 188.327 233.173 188.345 231.257 189.538 230.087 C 224.124 196.153 235.943 147.292 224.44 105.712 C 212.985 64.304 178.333 29.874 119.237 24.687 C 117.572 24.541 116.34 23.073 116.487 21.409 Z" fill="black"/>
</svg>
