<?xml version="1.0" encoding="utf-8"?>
<svg width="256" height="256" viewBox="0 0 256 256" fill="none" xmlns="http://www.w3.org/2000/svg">
  <path d="M 110.246 227.012 C 91.232 188.585 21.85 47.354 28.132 45.201 C 34.533 43.008 109.083 184.517 126.88 218.505 C 129.07 222.687 127.758 227.784 123.869 230.462 C 119.181 233.688 112.769 232.111 110.246 227.012 Z" fill="black"/>
  <path d="M 19.717 98.055 C 16.808 95.147 14.419 50.186 17.536 49.148 C 20.652 48.109 28.132 90.475 28.132 94.836 C 28.132 99.197 22.627 100.962 19.717 98.055 Z" fill="black"/>
  <path d="M 46.107 16.127 C 46.107 16.127 122.471 14.57 122.471 22.357 C 122.471 30.145 46.107 16.127 46.107 16.127 Z" fill="black"/>
  <path d="M 45.771 29.95 C 45.771 29.95 209.05 84.545 206.511 91.908 C 203.972 99.27 45.771 29.95 45.771 29.95 Z" fill="black"/>
  <path d="M 189.795 207.707 L 194.471 207.707 L 196.445 219.44 L 187.51 219.44 L 189.795 207.707 Z" fill="black"/>
  <path d="M 177.847 204.695 C 173.773 204.695 169.743 202.045 169.743 198.777 C 169.743 195.508 173.046 192.858 177.12 192.858 C 179.545 192.858 182.196 194.66 183.042 195.247 C 183.888 195.833 187.406 198.777 187.406 198.777 L 187.391 204.527 C 187.391 204.641 187.299 204.733 187.185 204.734 C 184.746 204.775 177.847 204.695 177.847 204.695 Z" fill="black"/>
  <path fill-rule="evenodd" clip-rule="evenodd" d="M 234.574 196.7 C 234.574 179.695 224.883 164.979 210.784 157.896 L 34.99 38.764 L 154.225 217.515 C 161.502 230.917 175.587 240 191.769 240 C 215.41 240 234.574 220.614 234.574 196.7 Z M 204.549 227.124 L 179.717 227.124 C 179.717 227.124 180.756 210.51 167.665 210.51 L 166.834 210.614 L 131.302 160.98 L 166.508 197.67 C 166.406 191.416 167.048 184.254 169.847 179.566 C 170.43 178.59 171.008 177.697 171.587 176.88 L 131.51 131.075 L 180.297 169.729 C 183.489 168.547 187.28 168.188 192.215 168.049 L 149.899 128.168 L 203.509 169.183 L 203.501 169.183 C 208.74 170.821 212.435 174.365 216.289 180.917 C 222.149 190.88 218.782 210.51 218.782 210.51 C 206.211 210.51 204.549 227.124 204.549 227.124 Z" fill="black"/>
  <path d="M 42.953 32.981 C 53.945 36.971 248.064 125.066 239.665 145.093 C 231.273 165.101 53.468 38.069 42.953 32.981 Z" fill="black"/>
  <path d="M 213.988 198.74 C 213.988 202.009 209.958 204.658 205.884 204.658 C 205.884 204.658 198.985 204.738 196.546 204.697 C 196.432 204.696 196.34 204.604 196.34 204.49 L 196.325 198.74 C 196.325 198.74 199.843 195.797 200.689 195.21 C 201.536 194.623 204.186 192.821 206.611 192.821 C 210.685 192.821 213.988 195.471 213.988 198.74 Z" fill="black"/>
</svg>
