<?xml version="1.0" encoding="utf-8"?>
<svg width="256" height="256" viewBox="0 0 256 256" fill="none" xmlns="http://www.w3.org/2000/svg">
  <path fill-rule="evenodd" clip-rule="evenodd" d="M 169.58 27.67 C 171.065 26.333 173.351 26.453 174.688 27.938 L 181.944 35.997 C 183.281 37.481 183.161 39.768 181.676 41.104 L 178.485 43.977 L 190.248 55.608 C 195.516 51.136 202.338 48.438 209.79 48.438 C 226.474 48.438 240 61.963 240 78.646 C 240 95.329 226.474 108.854 209.79 108.854 C 193.105 108.854 179.58 95.329 179.58 78.646 C 179.58 71.867 181.813 65.61 185.583 60.57 L 173.248 48.373 C 172.409 48.697 171.477 48.694 170.644 48.373 L 170.644 54.035 L 175.154 58.451 C 175.824 59.107 176.193 60.011 176.175 60.949 C 176.157 61.887 175.752 62.776 175.057 63.405 L 167.456 70.29 C 174.734 81.9 178.941 95.63 178.941 110.343 C 178.941 125.583 174.34 139.944 166.574 151.812 L 169.371 154.557 C 170.796 155.957 170.817 158.246 169.418 159.672 L 153.764 175.616 C 152.364 177.041 150.075 177.062 148.649 175.663 L 145.796 172.862 C 133.712 181.068 119.124 185.863 103.416 185.863 C 61.704 185.863 27.89 152.052 27.89 110.343 C 27.89 95.134 32.386 80.976 40.122 69.124 L 37.27 66.324 C 35.845 64.925 35.824 62.636 37.223 61.21 L 52.877 45.266 C 54.277 43.841 56.567 43.82 57.992 45.219 L 60.806 47.981 C 72.918 39.715 87.645 34.823 103.416 34.823 C 115.7 34.823 127.299 37.756 137.551 42.959 C 137.558 42.95 137.564 42.941 137.571 42.932 L 144.272 33.678 C 144.853 32.876 145.755 32.366 146.742 32.283 C 147.729 32.199 148.703 32.549 149.411 33.242 L 157.141 40.812 C 158.36 41.831 159.927 42.836 160.964 42.375 C 162.449 41.715 161.887 39.648 161.559 38.753 C 160.718 37.305 160.975 35.417 162.269 34.251 L 169.58 27.67 Z M 227.448 78.646 C 227.448 88.397 219.542 96.303 209.79 96.303 C 200.037 96.303 192.132 88.397 192.132 78.646 C 192.132 68.894 200.037 60.989 209.79 60.989 C 219.542 60.989 227.448 68.894 227.448 78.646 Z M 163.549 64.644 L 167.808 60.786 L 147.47 40.869 L 143.513 46.333 C 151.246 51.187 158.037 57.403 163.549 64.644 Z M 157.225 142.634 L 70.101 57.106 C 79.724 51.106 91.241 47.587 103.416 47.587 C 138.078 47.587 166.176 75.684 166.176 110.343 C 166.176 122.077 162.832 133.238 157.225 142.634 Z M 136.466 163.703 L 49.452 78.283 C 43.864 87.666 40.655 98.63 40.655 110.343 C 40.655 145.002 68.754 173.099 103.416 173.099 C 115.543 173.099 126.867 169.659 136.466 163.703 Z M 49.853 66.637 L 147.079 162.58 C 153.568 169.068 162.193 160.248 157.079 155.134 L 59.002 60.681 C 51.768 53.448 45.173 61.957 49.853 66.637 Z" fill="black"/>
  <path d="M 164.474 214.369 C 164.474 218.246 160.426 221.389 155.433 221.389 C 150.439 221.389 146.391 218.246 146.391 214.369 C 146.391 210.492 150.439 207.349 155.433 207.349 C 160.426 207.349 164.474 210.492 164.474 214.369 Z" fill="black"/>
  <path d="M 33.264 71.876 C 34.401 69.555 33.44 66.752 31.119 65.615 C 28.797 64.478 25.994 65.438 24.857 67.759 C 18.935 79.849 16.209 92.284 16.189 106.361 C 15.164 122.383 18.351 137.446 24.844 150.59 C 25.878 157.837 26.294 165.229 25.763 175.439 C 33.215 175.918 37.299 175.387 42.094 174.158 C 53.799 185.44 68.843 193.549 85.978 197.164 C 93.256 202.269 101.177 212.728 95.331 229.26 C 100.592 229.127 119.743 209.194 125.953 197.404 C 130.481 196.55 134.958 195.413 139.333 194.016 C 141.848 196.872 147.321 202.194 153.305 202.35 C 159.777 202.518 166.381 186.219 168.868 179.369 C 173.009 176.407 176.833 173.165 180.259 169.678 C 182.071 167.834 182.044 164.871 180.2 163.06 C 178.356 161.248 175.393 161.275 173.581 163.118 C 166.641 170.182 157.758 176.191 147.842 180.716 L 144.157 177.566 C 140.695 180.027 134.994 184.006 130.834 186.731 C 122.856 188.789 114.586 189.905 106.394 189.905 C 58.003 189.905 22.535 152.587 25.54 106.821 L 25.55 106.667 L 25.55 106.514 C 25.55 93.685 27.998 82.628 33.264 71.876 Z" fill="black"/>
</svg>
