<?xml version="1.0" encoding="utf-8"?>
<svg width="256" height="256" viewBox="0 0 256 256" fill="none" xmlns="http://www.w3.org/2000/svg">
  <path d="M 170.61 16 C 157.435 26.041 145.921 37.413 139.317 50.301 C 135.108 58.514 132.79 67.542 133.507 77.191 C 134.156 85.932 137.242 94.473 142.6 102.746 L 159.883 84.755 C 158.307 81.34 157.553 78.238 157.344 75.421 C 157.006 70.869 158.026 66.202 160.589 61.201 C 165.951 50.738 177.51 39.878 193.768 28.772 C 195.957 26.853 199.767 21.616 203.566 16 L 170.61 16 Z" fill="black"/>
  <path d="M 168.959 132.077 L 186.132 114.201 C 187.619 114.763 189.042 115.073 190.41 115.2 C 193.732 115.509 197.699 114.828 202.556 112.544 C 212.667 107.789 224.601 97.064 238.337 80.438 L 239.914 78.501 L 239.914 114.176 C 231.001 122.878 221.934 129.845 212.728 134.174 C 204.993 137.812 196.731 139.793 188.198 139 C 181.334 138.362 174.898 135.984 168.959 132.077 Z" fill="black"/>
  <path d="M 182.667 85.988 C 187.624 90.203 188.226 97.637 184.012 102.594 L 140.902 153.301 C 138.069 156.634 133.623 158.122 129.354 157.167 C 125.086 156.212 121.698 152.971 120.555 148.749 L 116.827 134.972 L 83.632 170.071 C 79.161 174.798 71.705 175.005 66.978 170.535 C 62.251 166.064 62.043 158.608 66.514 153.881 L 114.148 103.515 C 117.077 100.419 121.45 99.145 125.583 100.186 C 129.716 101.226 132.965 104.418 134.079 108.532 L 137.45 120.987 L 166.061 87.333 C 170.275 82.376 177.71 81.774 182.667 85.988 Z" fill="black"/>
  <path d="M 67.516 142.825 L 84.689 124.949 C 78.75 121.042 72.314 118.664 65.45 118.026 C 56.917 117.232 48.655 119.214 40.92 122.852 C 32.523 126.801 24.241 132.945 16.085 140.598 L 16.085 175.654 C 29.496 159.56 41.171 149.147 51.092 144.481 C 55.948 142.198 59.916 141.517 63.238 141.825 C 64.606 141.953 66.029 142.262 67.516 142.825 Z" fill="black"/>
  <path d="M 93.765 172.27 C 95.342 175.686 96.095 178.788 96.305 181.605 C 96.643 186.157 95.622 190.824 93.059 195.824 C 87.698 206.288 68.452 228.895 52.195 240 L 84.372 240 C 96.988 230.212 107.951 219.176 114.331 206.725 C 118.54 198.512 120.858 189.484 120.141 179.835 C 119.492 171.094 116.407 162.553 111.048 154.279 L 93.765 172.27 Z" fill="black"/>
</svg>
