<?xml version="1.0" encoding="utf-8"?>
<svg width="256" height="256" viewBox="0 0 256 256" fill="none" xmlns="http://www.w3.org/2000/svg">
  <path d="M 17.912 124.437 C 17.163 124.213 16.368 124.608 16.094 125.341 C 15.821 126.074 16.164 126.894 16.877 127.214 L 83.412 157.122 L 72.223 163.535 C 71.723 163.822 71.434 164.373 71.482 164.947 C 71.53 165.522 71.906 166.017 72.447 166.217 L 104.621 178.103 L 72.448 189.989 C 71.907 190.189 71.53 190.684 71.482 191.258 C 71.434 191.833 71.723 192.383 72.224 192.67 L 83.412 199.084 L 16.878 228.991 C 16.164 229.312 15.822 230.131 16.095 230.864 C 16.368 231.598 17.163 231.992 17.912 231.769 L 111.304 203.812 C 111.842 203.651 112.243 203.201 112.34 202.648 C 112.438 202.096 112.216 201.535 111.766 201.199 L 102.985 194.648 L 126.662 186.246 L 152.204 195.681 L 143.09 202.605 C 142.641 202.946 142.424 203.511 142.529 204.065 C 142.634 204.618 143.043 205.065 143.585 205.217 L 238.112 231.863 C 238.867 232.075 239.656 231.666 239.916 230.926 C 240.176 230.187 239.816 229.373 239.095 229.067 L 170.885 200.134 L 183.123 192.558 C 183.608 192.257 183.878 191.705 183.818 191.137 C 183.757 190.569 183.376 190.086 182.838 189.895 L 149.607 178.103 L 182.838 166.31 C 183.376 166.119 183.757 165.637 183.818 165.069 C 183.879 164.501 183.609 163.948 183.123 163.648 L 170.885 156.072 L 239.095 127.139 C 239.818 126.833 240.176 126.019 239.916 125.279 C 239.656 124.54 238.867 124.13 238.112 124.343 L 143.586 150.988 C 143.044 151.141 142.635 151.587 142.53 152.141 C 142.425 152.694 142.642 153.26 143.09 153.6 L 152.204 160.524 L 126.662 169.96 L 102.984 161.558 L 111.766 155.007 C 112.216 154.671 112.438 154.11 112.34 153.558 C 112.242 153.005 111.841 152.554 111.303 152.393 L 17.912 124.437 Z" fill="black"/>
  <path fill-rule="evenodd" clip-rule="evenodd" d="M 112.362 24.082 C 105.421 24.082 96.486 27.603 89.864 34.08 C 83.201 40.597 78.828 50.16 81.193 62.203 C 84 76.494 82.649 87.875 81.705 94.85 C 81.516 96.229 81.346 97.48 81.235 98.578 C 81.101 99.905 81.044 101.092 81.17 102.088 C 81.296 103.09 81.622 104.029 82.368 104.709 C 83.115 105.388 84.114 105.656 85.254 105.684 C 92.207 105.852 96.7 108.069 99.685 111.196 C 102.698 114.353 104.279 118.547 105.177 122.847 C 105.867 126.149 106.359 131.913 106.596 134.764 C 106.757 136.392 106.957 137.869 107.332 138.952 C 107.521 139.498 107.783 140.033 108.18 140.443 C 108.607 140.885 109.167 141.153 109.829 141.153 L 146.533 141.153 C 147.195 141.153 147.831 140.972 148.258 140.531 C 148.655 140.12 148.917 139.585 149.106 139.04 C 149.481 137.956 149.682 136.479 149.842 134.851 C 149.919 134.067 149.989 133.232 150.061 132.357 L 150.062 132.356 C 150.299 129.506 150.571 126.237 151.261 122.934 C 152.159 118.634 153.741 114.44 156.754 111.283 C 159.738 108.157 164.231 105.94 171.184 105.771 C 172.324 105.743 173.323 105.476 174.07 104.796 C 174.816 104.116 175.142 103.177 175.268 102.176 C 175.394 101.179 175.337 99.992 175.203 98.666 C 175.092 97.567 174.922 96.317 174.733 94.938 C 173.789 87.962 172.438 76.582 175.245 62.291 C 177.61 50.248 173.237 40.684 166.574 34.167 C 159.952 27.69 151.017 24.169 144.076 24.169 L 112.362 24.082 Z M 94.073 91.88 C 99.952 97.667 110.097 96.894 116.731 90.154 C 123.364 83.414 123.976 73.258 118.096 67.471 C 112.216 61.684 102.072 62.457 95.438 69.197 C 88.804 75.938 88.193 86.093 94.073 91.88 Z M 163.194 91.904 C 157.315 97.691 147.17 96.918 140.537 90.178 C 133.903 83.438 133.292 73.282 139.171 67.495 C 145.051 61.708 155.195 62.481 161.829 69.221 C 168.463 75.962 169.074 86.116 163.194 91.904 Z M 115.26 100.671 C 117.007 95.065 123.298 85.585 128.358 85.585 C 133.417 85.585 140.043 95.065 141.79 100.671 C 143.536 106.276 140.917 111.881 135.678 111.881 C 132.384 111.881 130.972 109.266 129.99 107.445 C 129.45 106.441 129.002 105.608 128.358 105.608 C 127.711 105.608 127.303 106.45 126.814 107.46 C 125.929 109.281 124.666 111.881 121.373 111.881 C 116.134 111.881 113.514 106.276 115.26 100.671 Z" fill="black"/>
</svg>
