<?xml version="1.0" encoding="utf-8"?>
<svg width="256" height="256" viewBox="0 0 256 256" fill="none" xmlns="http://www.w3.org/2000/svg">
  <path fill-rule="evenodd" clip-rule="evenodd" d="M 187.743 140.647 C 187.743 140.646 187.75 140.644 187.764 140.642 C 187.75 140.647 187.742 140.648 187.743 140.647 Z" fill="black"/>
  <path d="M 184.224 188.976 C 186.251 184.136 188.545 180.938 192.481 176.589 L 203.199 181.243 C 203.926 181.558 204.766 181.448 205.388 180.958 C 206.01 180.468 206.312 179.677 206.175 178.897 L 204.382 168.679 C 204.178 167.509 203.062 166.726 201.892 166.931 C 200.721 167.137 199.939 168.252 200.145 169.422 L 201.246 175.704 L 194.146 172.621 C 191.462 166.302 188.381 161.903 184.152 158.436 C 179.804 154.87 174.377 152.409 167.352 149.74 C 166.242 149.317 164.999 149.876 164.578 150.987 C 164.155 152.097 164.713 153.34 165.825 153.762 C 172.798 156.412 177.655 158.672 181.425 161.763 C 182.979 163.037 184.373 164.473 185.656 166.175 C 179.839 172.935 175.458 179.536 170.398 188.495 C 167.598 192.391 164.838 195.206 161.732 197.54 C 157.437 200.768 152.357 203.176 145.23 206.186 C 143.908 206.745 143.288 208.27 143.846 209.592 C 144.404 210.914 145.93 211.533 147.253 210.975 C 154.397 207.958 160.003 205.344 164.856 201.697 C 168.597 198.884 171.819 195.515 174.995 191.001 L 179.535 191.8 L 186.456 197.757 L 177.871 210.635 C 177.074 211.829 177.397 213.443 178.592 214.239 C 179.787 215.036 181.4 214.713 182.197 213.518 L 192.056 198.729 C 192.785 197.636 192.585 196.173 191.59 195.316 L 184.224 188.976 Z" fill="black"/>
  <path d="M 203.877 159.281 C 203.877 161.954 201.71 164.122 199.037 164.122 C 196.363 164.122 194.196 161.954 194.196 159.281 C 194.196 156.608 196.363 154.441 199.037 154.441 C 201.71 154.441 203.877 156.608 203.877 159.281 Z" fill="black"/>
  <path d="M 73.152 161.749 C 74.532 160.906 76.455 159.729 78.566 159.729 C 80.736 159.729 82.821 160.58 84.357 162.222 C 85.894 163.867 86.812 166.229 86.812 169.141 C 86.812 170.947 85.871 172.372 84.609 173.437 C 83.362 174.488 81.717 175.267 80.036 175.841 C 76.674 176.989 72.808 177.435 70.649 177.387 C 68.595 177.342 63.707 177.07 59.271 176.258 C 57.062 175.854 54.887 175.302 53.216 174.538 C 52.381 174.157 51.606 173.693 51.012 173.116 C 50.41 172.529 49.944 171.766 49.886 170.833 C 49.772 169.028 51.083 167.752 52.44 166.917 C 53.857 166.048 55.746 165.383 57.691 164.878 C 61.594 163.866 66.092 163.404 68.436 163.404 C 70.302 163.404 71.654 162.659 73.152 161.749 Z" fill="black"/>
  <path d="M 238.374 196.877 C 238.717 197.111 238.925 197.499 238.925 197.915 L 238.925 223.73 C 238.925 224.162 238.702 224.564 238.335 224.793 C 238.15 224.91 237.939 224.974 237.726 224.983 C 237.521 224.993 237.312 224.952 237.123 224.859 C 232.049 222.401 226.907 220.668 222.3 219.115 C 220.418 218.481 218.625 217.877 216.962 217.266 C 214.151 216.232 211.66 215.157 209.882 213.85 C 208.074 212.52 206.821 210.805 206.926 208.523 C 207.031 206.234 208.397 204.741 210.29 203.738 C 212.117 202.77 214.601 202.16 217.352 201.614 C 222.295 200.709 231.481 199.01 237.209 196.748 C 237.47 196.644 237.754 196.633 238.018 196.709 C 238.143 196.746 238.264 196.802 238.374 196.877 Z" fill="black"/>
  <path d="M 62.053 218.891 C 60.786 218.911 59.502 218.885 58.192 218.859 C 57.568 218.846 56.941 218.834 56.305 218.825 C 54.371 218.801 52.42 218.823 50.614 219.054 C 47.306 219.478 44.193 220.656 42.63 223.833 L 42.364 223.881 C 42.165 223.877 41.938 223.874 41.694 223.87 C 40.593 223.854 39.057 223.847 37.322 223.88 C 33.87 223.946 29.542 224.171 26.242 224.832 C 22.633 225.554 20.349 228.025 20.259 230.869 C 20.166 233.757 22.344 236.331 26.203 237.234 C 28.065 237.671 30.938 237.873 34.104 237.948 C 37.3 238.025 40.896 237.973 44.262 237.872 C 45.558 237.833 46.822 237.787 48.016 237.737 C 49.931 237.657 51.67 237.57 53.091 237.492 C 53.687 237.459 54.229 237.428 54.701 237.4 C 55.127 237.375 55.496 237.352 55.805 237.333 L 55.846 237.331 L 56.604 237.282 L 56.87 237.264 C 57.011 237.254 57.149 237.221 57.28 237.166 L 57.321 237.174 L 57.367 237.126 L 57.414 237.105 L 57.533 237.053 L 57.744 236.962 C 57.898 236.896 58.089 236.816 58.313 236.724 C 58.509 236.644 58.732 236.554 58.976 236.46 C 60.025 236.05 61.472 235.529 63.073 235.079 C 64.682 234.626 66.415 234.253 68.041 234.123 C 69.686 233.992 71.105 234.12 72.161 234.568 C 74.787 235.683 77.976 235.48 80.509 234.341 C 83.043 233.203 85.199 230.973 85.199 227.855 C 85.199 226.071 84.644 224.518 83.504 223.246 C 82.39 222.004 80.795 221.113 78.847 220.471 C 74.979 219.196 69.328 218.778 62.053 218.891 Z" fill="black"/>
  <path fill-rule="evenodd" clip-rule="evenodd" d="M 187.743 140.647 C 187.743 140.646 187.75 140.644 187.764 140.642 C 187.75 140.647 187.742 140.648 187.743 140.647 Z" fill="black"/>
  <path fill-rule="evenodd" clip-rule="evenodd" d="M 187.743 140.647 C 187.743 140.646 187.75 140.644 187.764 140.642 C 187.75 140.647 187.742 140.648 187.743 140.647 Z" fill="black"/>
  <path fill-rule="evenodd" clip-rule="evenodd" d="M 61.087 18.015 C 60.038 18.015 59.118 18.717 58.839 19.726 C 58.562 20.738 58.993 21.809 59.893 22.348 L 133.754 66.36 C 134.447 66.771 135.305 66.798 136.02 66.426 C 136.736 66.054 137.209 65.339 137.271 64.534 L 138.484 48.69 C 146.22 56.763 154.47 65.374 160.76 75.194 C 168.187 86.786 173.989 101.252 176.283 122.246 C 176.38 127.066 177.546 133.011 178.749 136.682 C 180.177 141.042 182.814 144.992 187.504 145.292 C 189.231 145.404 190.555 144.531 191.458 143.63 C 192.346 142.743 193.076 141.588 193.685 140.519 C 194.038 139.901 194.423 139.174 194.788 138.482 L 194.789 138.481 L 194.794 138.471 C 195.03 138.026 195.258 137.597 195.462 137.223 C 196.044 136.159 196.574 135.291 197.1 134.659 C 197.639 134.008 197.984 133.84 198.126 133.802 L 198.13 133.802 C 198.171 133.79 198.417 133.72 199.043 134.141 C 199.75 134.618 200.74 135.604 202.02 137.461 C 203.283 139.293 204.747 141.852 206.443 145.333 C 206.541 145.534 206.664 145.715 206.807 145.873 C 208.497 149.075 210.116 152.285 211.424 155.471 C 213.108 159.572 214.196 163.456 214.285 167.033 L 214.282 167.07 L 214.278 167.141 L 214.275 167.2 L 214.275 167.258 L 214.275 187.426 L 204.325 187.426 C 203.418 187.426 202.594 187.952 202.211 188.775 C 194.516 205.331 188.88 215.061 184.61 220.423 C 180.222 225.933 177.982 225.994 176.923 225.655 C 176.186 225.42 175.364 224.828 174.366 223.769 C 173.607 222.961 172.201 220.816 171.407 219.803 C 170.333 218.456 168.978 217.194 167.527 216.065 C 166.039 214.907 164.206 214.017 161.983 214.049 C 158.438 214.101 155.335 215.24 152.683 216.411 C 151.846 216.781 151.08 217.139 150.361 217.475 L 150.36 217.475 L 150.36 217.476 C 148.659 218.27 147.225 218.939 145.759 219.342 C 143.892 219.854 142.371 219.794 140.777 218.785 C 139.067 217.701 134.633 210.63 134.633 210.63 C 132.839 208.202 127.06 200.011 124.206 196.329 C 118.526 189.003 111.375 180.229 105.726 174.81 C 102.985 172.18 101.268 170.277 100.305 168.786 C 99.368 167.335 99.343 166.585 99.457 166.099 C 99.605 165.466 100.142 164.598 101.626 163.201 C 102.782 162.113 104.274 160.915 106.157 159.402 L 106.167 159.393 C 106.661 158.997 107.181 158.578 107.729 158.136 C 109.309 156.857 110.386 155.361 110.871 153.66 C 111.356 151.96 111.184 150.282 110.661 148.748 C 109.65 145.789 107.226 143.073 104.783 140.884 C 102.279 138.642 99.469 136.702 97.315 135.335 C 96.814 135.017 93.554 133.112 93.554 133.112 C 93.275 132.964 92.98 132.877 92.684 132.849 C 75.077 124.614 53.287 119.322 21.783 111.671 L 21.781 111.671 L 21.768 111.668 L 21.759 111.666 L 21.752 111.664 L 17.551 110.644 C 17.315 110.586 17.069 110.6 16.844 110.677 C 16.715 110.723 16.59 110.789 16.48 110.877 C 16.291 111.026 16.151 111.223 16.073 111.443 C 16.025 111.576 16 111.719 16 111.864 L 16 176.581 C 16 177.274 16.561 177.835 17.256 177.835 L 30.791 177.835 C 35.146 176.453 38.796 174.897 41.767 172.753 C 44.6 170.708 47.108 168.114 50.012 164.589 C 56.763 164.78 61.476 164.09 64.899 161.945 C 68.265 159.838 70.17 156.469 71.681 151.858 C 78.243 151.945 83.133 151.392 86.935 149.072 C 90.218 147.069 92.531 143.853 94.502 139.071 L 94.817 139.271 C 96.861 140.567 99.436 142.352 101.672 144.356 C 103.968 146.413 105.639 148.466 106.25 150.255 C 106.537 151.095 106.559 151.785 106.388 152.383 C 106.219 152.978 105.794 153.706 104.798 154.511 C 104.295 154.918 103.802 155.314 103.324 155.698 L 103.322 155.7 C 101.417 157.229 99.734 158.581 98.431 159.807 C 96.823 161.321 95.398 162.989 94.919 165.036 C 94.405 167.228 95.085 169.295 96.39 171.315 C 97.668 173.294 99.727 175.514 102.499 178.173 C 103.306 178.948 104.148 179.797 105.017 180.708 L 104.703 181.107 C 92.569 180.284 85.381 182.533 81.088 185.661 C 77.387 188.358 75.981 191.602 75.372 193.713 C 68.938 193.228 64.141 193.102 60.735 193.803 C 58.912 194.179 57.389 194.809 56.208 195.829 C 55.252 196.658 54.583 197.691 54.145 198.912 C 45.193 199.126 40.622 202.44 39.832 206.598 C 39.038 210.777 42.364 214.822 46.957 215.033 L 46.996 215.034 L 131.703 215.034 C 133.824 218.757 135.97 221.257 138.282 222.722 C 141.282 224.622 144.243 224.59 146.992 223.837 C 148.867 223.322 150.852 222.395 152.696 221.533 C 153.341 221.232 153.967 220.939 154.566 220.675 C 157.046 219.58 159.456 218.748 162.051 218.709 C 162.898 218.697 163.725 219.013 164.665 219.744 C 165.641 220.502 166.589 221.593 167.65 222.923 C 167.871 223.202 168.1 223.494 168.335 223.794 C 169.157 224.843 170.053 225.988 170.973 226.964 C 172.164 228.229 173.645 229.501 175.504 230.095 C 179.632 231.414 183.739 228.998 188.256 223.327 C 192.764 217.665 198.4 207.901 205.809 192.087 L 216.605 192.087 C 217.892 192.087 218.935 191.044 218.935 189.757 L 218.935 170.634 L 237.072 170.395 C 238.348 170.379 239.373 169.34 239.373 168.065 L 239.373 125.219 C 239.373 124.356 238.896 123.564 238.133 123.16 C 237.372 122.756 236.448 122.807 235.733 123.291 C 229.623 127.44 225.752 130.018 221.627 132.167 C 217.882 134.117 213.877 135.737 207.742 137.815 C 207.089 136.689 206.461 135.691 205.858 134.816 C 204.431 132.747 203.051 131.222 201.65 130.277 C 200.188 129.291 198.585 128.869 196.957 129.29 C 195.443 129.682 194.322 130.705 193.512 131.683 C 192.687 132.678 191.982 133.874 191.374 134.984 C 191.109 135.467 190.875 135.911 190.651 136.335 L 190.601 136.429 L 190.594 136.443 L 190.573 136.483 L 190.572 136.485 C 190.261 137.074 189.966 137.631 189.635 138.213 C 189.065 139.212 188.588 139.909 188.165 140.331 C 187.951 140.546 187.824 140.617 187.771 140.639 C 186.108 140.517 184.454 139.127 183.178 135.232 C 182.079 131.873 181.515 127.313 181.4 122.143 C 184.97 117.488 187.5 115.384 190.289 114.303 C 193.454 113.077 197.227 113.029 203.967 113.029 C 204.814 113.029 205.593 112.569 206.005 111.829 C 214.034 97.36 217.334 89.034 221.398 75.292 L 237.671 75.292 C 238.957 75.292 240 74.248 240 72.961 L 240 20.347 C 240 19.057 238.957 18.015 237.671 18.015 L 61.087 18.015 Z M 187.743 140.647 C 187.743 140.646 187.75 140.644 187.764 140.642 C 187.75 140.647 187.742 140.648 187.743 140.647 Z" fill="black"/>
</svg>
