<?xml version="1.0" encoding="utf-8"?>
<svg width="256" height="256" viewBox="0 0 256 256" fill="none" xmlns="http://www.w3.org/2000/svg">
  <path d="M 54.029 169.103 C 47.325 163.845 44.127 166.319 42.993 171.268 C 41.858 176.218 53.102 194.776 57.847 193.745 C 59.844 193.311 59.592 190.061 59.301 186.305 C 58.901 181.142 58.427 175.023 63.622 173.949 C 72.177 172.164 78.216 170.904 87.654 191.579 C 97.35 212.818 140.464 240.759 145.725 232.717 C 150.985 224.675 112.822 182.403 99.722 180.238 C 86.913 178.121 86.826 174.229 86.732 170.009 L 86.729 169.876 C 86.728 169.825 86.727 169.773 86.726 169.721 C 86.671 167.408 91.002 165.183 95.253 162.999 C 98.959 161.095 102.605 159.222 103.229 157.349 C 103.761 155.755 103.498 154.226 103.238 152.711 C 102.842 150.403 102.451 148.125 104.879 145.698 C 106.959 143.62 113.309 146.114 120.825 149.066 C 127.851 151.825 135.896 154.984 142.424 155.184 C 155.936 155.596 166.973 142.296 166.973 142.296 L 193.997 142.296 C 193.997 151.678 203.177 154.668 209.572 145.698 C 209.572 145.698 240 149.204 240 130.645 C 240 115.588 216.281 115.591 210.711 115.592 L 210.603 115.592 C 198.845 115.592 193.997 123.84 193.997 123.84 L 154.905 123.84 C 154.905 123.84 147.272 111.674 138.092 111.674 C 133.585 111.674 131.878 112.867 130.14 114.082 C 128.34 115.341 126.506 116.623 121.486 116.623 C 117.245 116.623 115.2 118.625 113.566 120.226 C 111.821 121.935 110.543 123.186 107.561 121.056 C 104.831 118.611 109.005 112.705 109.005 112.705 C 125.199 98.684 124.477 86.62 120.351 85.899 C 117.98 85.484 116.426 87.555 114.476 90.156 C 113.033 92.08 111.374 94.293 109.005 96.003 C 103.067 100.29 95.184 97.961 95.184 97.961 C 95.184 97.961 97.453 86.104 96.318 84.764 C 95.898 84.267 95.067 84.351 94.098 84.449 C 92.452 84.615 90.408 84.821 89.305 82.289 C 88.808 81.151 90.231 79.253 92.077 76.792 C 96.752 70.559 104.136 60.712 89.923 50.43 C 82.085 44.76 89.305 38.78 89.305 38.78 L 89.305 25.067 C 89.305 25.067 88.79 21.868 82.394 21.869 C 70.429 21.871 66.303 89.92 66.303 89.92 C 66.303 89.92 56.401 74.557 48.975 75.176 C 41.548 75.795 45.365 93.528 45.365 93.528 C 45.365 93.528 46.912 100.023 49.8 100.023 C 51.174 100.023 51.638 98.413 52.124 96.725 C 52.659 94.864 53.222 92.909 55.06 92.91 C 56.749 92.91 57.242 94.44 57.771 96.084 C 58.341 97.854 58.954 99.756 61.146 100.023 C 63.281 100.284 63.523 99.046 63.77 97.784 C 64.013 96.545 64.26 95.282 66.303 95.384 C 68.468 95.493 69.81 98.241 71.073 100.829 C 72.216 103.173 73.296 105.385 74.864 105.385 L 92.708 105.385 C 95.283 109.062 96.077 113.063 96.783 116.624 C 97.859 122.05 98.732 126.455 105.395 127.14 L 105.395 130.53 L 193.295 130.53 C 195.723 120.899 228.77 122.244 228.77 131.541 L 228.77 134.272 C 228.77 142.726 198.749 144.442 193.833 136.6 L 105.395 136.6 L 105.395 136.625 C 105.395 136.625 100.238 138.481 98.278 141.368 C 97.348 142.739 96.882 145.667 96.385 148.795 C 95.835 152.255 95.246 155.959 93.946 158.071 C 91.917 161.368 77.475 160.922 68.815 160.654 L 68.814 160.654 C 66.912 160.595 65.289 160.545 64.137 160.545 C 61.152 160.545 60.212 163.555 59.377 166.23 C 58.422 169.287 57.604 171.907 54.029 169.103 Z" fill="black"/>
  <path fill-rule="evenodd" clip-rule="evenodd" d="M 85.526 144.188 L 80.145 144.082 L 80.145 121.631 L 85.526 121.525 C 87.458 121.519 88.95 120.616 89.887 119.279 C 90.78 118.003 91.123 116.417 91.083 114.95 C 91.044 113.481 90.617 111.934 89.732 110.702 C 88.817 109.43 87.38 108.474 85.507 108.474 L 40.889 108.474 C 40.446 108.474 40.018 108.636 39.685 108.929 L 28.722 118.591 L 16 118.591 L 16 147.122 L 28.722 147.122 L 39.685 156.784 C 40.018 157.078 40.446 157.24 40.889 157.24 L 85.507 157.24 C 87.38 157.24 88.817 156.283 89.732 155.011 C 90.617 153.78 91.044 152.232 91.083 150.763 C 91.123 149.297 90.78 147.71 89.887 146.435 C 88.95 145.097 87.458 144.195 85.526 144.188 Z M 75.086 126.28 L 39.068 126.28 L 39.068 139.433 L 75.086 139.433 L 75.086 126.28 Z" fill="black"/>
</svg>
