<?xml version="1.0" encoding="utf-8"?>
<svg width="256" height="256" viewBox="0 0 256 256" fill="none" xmlns="http://www.w3.org/2000/svg">
  <path d="M 76.857 54.621 C 76.857 63.67 69.522 71.005 60.473 71.005 C 51.424 71.005 44.088 63.67 44.088 54.621 C 44.088 45.572 51.424 38.236 60.473 38.236 C 69.522 38.236 76.857 45.572 76.857 54.621 Z" fill="black"/>
  <path d="M 56.026 146.177 L 56.026 209.572 C 56.026 214.096 52.358 217.764 47.833 217.764 C 43.309 217.764 39.641 214.096 39.641 209.572 L 39.641 101.668 L 35.579 101.668 L 30.278 106.151 L 30.278 145.087 C 30.278 149.03 27.082 152.226 23.139 152.226 C 19.197 152.226 16 149.03 16 145.087 L 16 102.838 C 16 100.737 16.926 98.743 18.53 97.387 L 35.967 82.641 C 37.341 81.479 39.026 80.926 40.694 80.954 L 80.719 80.953 C 82.459 80.981 84.192 81.642 85.546 82.941 L 102.983 99.677 C 104.386 101.023 105.179 102.883 105.179 104.828 L 105.179 145.204 C 105.179 149.147 101.983 152.343 98.04 152.343 C 94.098 152.343 90.901 149.147 90.901 145.204 L 90.901 107.871 L 84.438 101.668 L 81.539 101.668 L 81.539 209.572 C 81.539 214.096 77.871 217.764 73.346 217.764 C 68.822 217.764 65.154 214.096 65.154 209.572 L 65.154 146.155 C 62.582 146.15 59.322 146.16 56.026 146.177 Z" fill="black"/>
  <path d="M 107.988 79.315 L 107.988 54.504 L 131.98 54.504 L 131.98 44.088 L 157.961 67.377 L 131.98 89.964 L 131.98 79.315 L 107.988 79.315 Z" fill="black"/>
  <path d="M 148.13 197.283 L 148.13 172.472 L 124.138 172.472 L 124.138 162.056 L 98.157 185.346 L 124.138 207.933 L 124.138 197.283 L 148.13 197.283 Z" fill="black"/>
  <path d="M 195.294 71.005 C 204.343 71.005 211.678 63.67 211.678 54.621 C 211.678 45.572 204.343 38.236 195.294 38.236 C 186.245 38.236 178.91 45.572 178.91 54.621 C 178.91 63.67 186.245 71.005 195.294 71.005 Z" fill="black"/>
  <path d="M 190.847 209.572 L 190.847 146.177 C 194.143 146.16 197.404 146.15 199.976 146.155 L 199.976 209.572 C 199.976 214.096 203.644 217.764 208.168 217.764 C 212.692 217.764 216.36 214.096 216.36 209.572 L 216.36 101.668 L 219.26 101.668 L 225.723 107.871 L 225.723 145.204 C 225.723 149.147 228.918 152.343 232.862 152.343 C 236.805 152.343 240 149.147 240 145.204 L 240 104.828 C 240 102.883 239.207 101.023 237.805 99.677 L 220.367 82.941 C 219.014 81.642 217.279 80.981 215.542 80.953 L 175.516 80.953 C 173.848 80.925 172.163 81.479 170.789 82.641 L 153.351 97.387 C 151.747 98.743 150.822 100.737 150.822 102.838 L 150.822 145.087 C 150.822 149.03 154.018 152.226 157.961 152.226 C 161.904 152.226 165.1 149.03 165.1 145.087 L 165.1 106.151 L 170.401 101.668 L 174.463 101.668 L 174.463 209.572 C 174.463 214.096 178.13 217.764 182.655 217.764 C 187.179 217.764 190.847 214.096 190.847 209.572 Z" fill="black"/>
</svg>
