<?xml version="1.0" encoding="utf-8"?>
<svg width="256" height="256" viewBox="0 0 256 256" fill="none" xmlns="http://www.w3.org/2000/svg">
  <path d="M 73.434 26.226 C 73.434 24.008 75.231 22.212 77.447 22.212 C 79.664 22.212 81.461 24.008 81.461 26.226 L 81.461 61.775 C 81.461 63.992 79.664 65.789 77.447 65.789 C 75.231 65.789 73.434 63.992 73.434 61.775 L 73.434 26.226 Z" fill="black"/>
  <path d="M 37.311 88.533 C 35.094 88.533 33.297 90.329 33.297 92.546 L 33.297 126.567 C 33.297 128.784 35.094 130.58 37.311 130.58 C 39.528 130.58 41.325 128.784 41.325 126.567 L 41.325 92.546 C 41.325 90.329 39.528 88.533 37.311 88.533 Z" fill="black"/>
  <path d="M 160.587 134.594 C 160.587 132.377 162.384 130.58 164.601 130.58 C 166.818 130.58 168.614 132.377 168.614 134.594 L 168.614 151.604 C 168.614 153.822 166.818 155.618 164.601 155.618 C 162.384 155.618 160.587 153.822 160.587 151.604 L 160.587 134.594 Z" fill="black"/>
  <path d="M 219.836 137.461 C 217.62 137.461 215.823 139.257 215.823 141.475 L 215.823 197.283 C 215.823 199.501 217.62 201.297 219.836 201.297 C 222.053 201.297 223.85 199.501 223.85 197.283 L 223.85 141.475 C 223.85 139.257 222.053 137.461 219.836 137.461 Z" fill="black"/>
  <path d="M 87.264 204.739 C 91.85 204.53 100.14 204.522 107.369 204.57 C 109.297 204.588 105.945 204.552 107.369 204.57 L 126.251 204.74 C 128.256 204.757 129.895 203.144 129.911 201.139 C 129.928 199.133 128.315 197.494 126.31 197.479 C 125.485 197.471 114.611 197.353 107.417 197.307 C 100.223 197.261 91.742 197.265 86.935 197.483 C 84.931 197.575 83.381 199.272 83.472 201.275 C 83.563 203.278 85.261 204.83 87.264 204.739 Z" fill="black"/>
  <path d="M 169.57 198.917 C 183.262 199.602 195.153 200.907 204.173 202.778 C 209.72 203.929 214.407 205.339 217.794 207.076 C 220.874 208.654 224.328 211.264 224.328 215.394 C 224.328 218.203 222.41 220.144 220.771 221.32 C 219.019 222.578 216.667 223.641 213.987 224.571 C 208.581 226.448 200.959 228.079 191.779 229.425 C 173.363 232.131 148.045 233.788 120.164 233.788 C 92.283 233.788 66.965 232.131 48.549 229.425 C 39.369 228.079 31.747 226.448 26.341 224.571 C 23.661 223.641 21.309 222.578 19.557 221.32 C 17.918 220.144 16 218.203 16 215.394 C 16 213.754 16.747 212.442 17.492 211.536 C 17.857 211.092 18.272 210.682 18.717 210.302 C 19.189 209.899 19.693 209.532 20.204 209.196 C 22.2 207.883 24.891 206.671 27.951 205.572 C 34.117 203.356 42.46 201.366 51.489 200.011 C 53.472 199.713 55.321 201.079 55.619 203.064 C 55.916 205.046 54.55 206.895 52.567 207.193 C 52.028 207.323 51.44 207.453 50.811 207.583 C 50.038 207.743 49.204 207.901 48.325 208.063 C 47.173 208.273 45.945 208.487 44.678 208.706 L 44.674 208.707 L 44.673 208.707 L 44.672 208.707 L 44.671 208.707 L 44.67 208.707 C 36.007 210.212 25.557 212.028 25.557 215.394 C 25.557 219.171 35.96 220.485 44.646 221.583 L 44.651 221.583 L 44.895 221.615 L 46.298 221.794 C 47.458 221.942 48.571 222.088 49.605 222.24 C 67.574 224.879 92.523 226.526 120.164 226.526 C 147.805 226.526 172.754 224.879 190.724 222.24 C 192.386 221.996 194.289 221.757 196.288 221.507 L 196.293 221.506 L 196.295 221.506 L 196.312 221.506 L 196.363 221.501 L 196.398 221.497 C 205.213 220.383 215.823 219.04 215.823 216.014 C 215.823 212.558 207.909 210.949 202.698 209.89 C 192.14 207.7 177.067 206.271 159.343 205.795 C 157.338 205.741 155.757 204.071 155.81 202.066 C 155.864 200.062 157.533 198.479 159.538 198.535 L 161.543 198.599 L 161.543 183.331 C 161.543 181.114 163.34 179.317 165.557 179.317 C 167.773 179.317 169.57 181.114 169.57 183.331 L 169.57 198.917 Z" fill="black"/>
  <path d="M 179.317 155.236 C 179.317 153.018 181.115 151.222 183.331 151.222 C 185.548 151.222 187.345 153.018 187.345 155.236 L 187.345 187.154 C 187.345 189.371 185.548 191.167 183.331 191.167 C 181.115 191.167 179.317 189.371 179.317 187.154 L 179.317 155.236 Z" fill="black"/>
  <path d="M 61.966 143.195 C 59.75 143.195 57.953 144.991 57.953 147.208 L 57.953 166.703 C 57.953 168.921 59.75 170.717 61.966 170.717 C 64.183 170.717 65.98 168.921 65.98 166.703 L 65.98 147.208 C 65.98 144.991 64.183 143.195 61.966 143.195 Z" fill="black"/>
  <path d="M 17.243 142.43 C 17.243 140.213 19.04 138.417 21.256 138.417 C 23.473 138.417 25.27 140.213 25.27 142.43 L 25.27 197.283 C 25.27 199.501 23.473 201.297 21.256 201.297 C 19.04 201.297 17.243 199.501 17.243 197.283 L 17.243 142.43 Z" fill="black"/>
  <path d="M 188.874 22.212 C 186.657 22.212 184.86 24.008 184.86 26.226 L 184.86 44.956 C 184.86 47.173 186.657 48.97 188.874 48.97 C 191.09 48.97 192.888 47.173 192.888 44.956 L 192.888 26.226 C 192.888 24.008 191.09 22.212 188.874 22.212 Z" fill="black"/>
  <path d="M 213.497 65.417 C 213.573 65.444 213.625 65.516 213.625 65.598 L 213.625 89.871 L 239.809 89.871 C 239.888 89.871 239.96 89.92 239.987 89.995 C 240.017 90.069 239.996 90.153 239.934 90.206 L 233.149 96.131 C 233.115 96.161 233.071 96.178 233.024 96.178 L 218.881 96.178 L 222.433 109.682 C 222.457 109.745 222.446 109.817 222.403 109.87 C 222.361 109.923 222.293 109.949 222.225 109.939 L 207.978 109.939 L 206.935 123.7 C 206.935 123.785 206.878 123.861 206.796 123.884 C 206.714 123.907 206.626 123.873 206.581 123.8 C 199.161 118.757 196.254 115.316 196.165 106.789 C 196.129 106.73 196.127 106.657 196.161 106.596 C 196.195 106.536 196.259 106.499 196.328 106.499 L 202.731 106.499 L 202.731 99.045 C 202.731 99.045 211.331 99.427 211.331 96.465 C 211.331 93.502 205.597 92.737 205.597 92.737 C 205.498 92.73 205.42 92.647 205.42 92.547 L 205.42 85.284 L 198.048 85.188 C 197.974 85.188 197.907 85.145 197.876 85.079 C 197.844 85.013 197.853 84.934 197.899 84.877 C 202.417 75.963 205.788 71.717 213.284 65.478 C 213.335 65.415 213.42 65.39 213.497 65.417 Z" fill="black"/>
  <path d="M 117.011 57.188 C 125.824 57.188 132.97 50.043 132.97 41.229 C 132.97 32.415 125.824 25.27 117.011 25.27 C 108.197 25.27 101.052 32.415 101.052 41.229 C 101.052 50.043 108.197 57.188 117.011 57.188 Z" fill="black"/>
  <path d="M 112.232 69.134 C 112.232 66.22 111.555 62.886 109.31 61.417 C 107.066 59.946 104.166 59.937 101.912 61.393 L 68.983 82.282 C 66.969 83.583 65.791 85.85 65.884 88.246 C 65.978 90.641 67.328 92.811 69.438 93.95 C 69.438 93.95 88.246 103.919 89.297 108.219 C 89.874 110.58 89.311 112.835 88.52 115.996 C 87.871 118.594 87.069 121.803 86.621 126.185 C 85.26 139.512 83.271 154.712 82.99 156.478 C 82.71 158.245 76.632 172.127 70.949 182.185 L 61.643 202.787 L 61.634 202.801 C 59.509 205.887 60.288 210.112 63.374 212.238 C 66.46 214.363 70.685 213.583 72.811 210.497 L 72.885 210.381 C 75.047 207.004 85.478 189.927 88.342 184.86 C 93.915 174.996 95 171.439 97.038 162.976 C 97.337 161.735 97.631 160.521 97.919 159.329 C 101.872 142.993 104.782 130.966 105.138 114.578 L 107.359 115.673 C 110.655 117.455 114.03 115.029 115.812 111.732 C 117.594 108.436 116.548 104.828 113.188 102.867 C 112.943 102.725 112.612 102.652 112.226 102.566 C 110.802 102.252 108.637 101.775 107.359 97.038 C 106.825 95.062 107.531 92.859 108.521 89.768 C 109.087 88 109.747 85.942 110.321 83.468 C 111.802 77.089 112.232 69.134 112.232 69.134 Z" fill="black"/>
  <path d="M 126.783 86.432 C 126.844 86.431 126.906 86.43 126.967 86.43 L 186.981 86.43 C 191.361 86.43 194.912 89.981 194.912 94.362 C 194.912 98.743 191.361 102.294 186.981 102.294 L 155.923 102.294 L 155.923 105.054 C 156.254 105.391 156.634 105.838 157.006 106.41 C 158.021 107.968 158.982 110.449 158.789 114.148 C 158.72 115.478 158.02 116.394 157.019 117.017 C 156.022 117.637 154.724 117.967 153.445 118.135 C 152.165 118.303 148.654 118.194 147.704 118.157 C 143.165 118.157 139.486 114.478 139.486 109.939 L 139.486 102.294 L 126.967 102.294 C 125.804 102.294 124.89 101.987 123.711 101.591 C 123.559 101.54 123.402 101.487 123.24 101.434 C 121.444 100.84 119.975 100.155 118.85 99.385 C 116.598 97.844 114.398 95.26 114.64 91.109 C 114.72 89.737 115.382 88.563 116.678 87.735 C 117.969 86.91 119.886 86.433 122.476 86.433 L 126.783 86.432 Z" fill="black"/>
  <path d="M 145.965 162.278 C 145.933 160.528 145.251 158.942 144.152 157.748 L 144.15 157.72 C 140.615 152.464 136.85 147.673 133.284 143.954 L 133.278 143.949 C 129.715 140.234 126.177 136.545 121.398 131.451 C 118.184 128.025 112.801 127.853 109.376 131.067 C 105.95 134.281 105.778 139.663 108.992 143.089 C 113.839 148.255 117.431 152 120.997 155.718 L 121.002 155.724 C 124.565 159.439 128.103 163.127 132.883 168.222 C 132.909 168.25 132.935 168.277 132.961 168.305 C 133.167 169.848 133.367 171.339 133.562 172.79 C 133.628 173.282 133.694 173.769 133.759 174.253 C 135.257 185.407 136.418 194.403 136.987 207.429 C 137.629 211.174 141.185 213.69 144.931 213.048 C 148.676 212.406 151.192 208.849 150.55 205.104 C 149.853 198.221 149.191 192.484 148.55 186.928 L 148.55 186.923 C 147.661 179.22 146.813 171.863 145.965 162.278 Z" fill="black"/>
</svg>
