<?xml version="1.0" encoding="utf-8"?>
<svg width="256" height="256" viewBox="0 0 256 256" fill="none" xmlns="http://www.w3.org/2000/svg">
  <path d="M 110.611 27.703 C 113.054 29.909 113.245 33.677 111.039 36.12 C 103.529 44.435 95.18 53.462 89.352 62.185 C 86.441 66.542 79.911 77.808 78.135 81.027 C 77.59 83.531 76.288 90.483 76.119 99.778 C 76.051 103.533 75.418 111.524 78.135 111.524 L 84.217 111.524 L 84.217 82.61 C 84.217 80.195 84.998 77.845 86.443 75.91 L 118.909 32.422 C 122.61 27.462 129.631 26.444 134.59 30.145 C 139.549 33.845 140.568 40.865 136.867 45.823 L 106.626 86.331 L 106.626 140.053 C 106.626 140.053 126.831 153.616 129.665 153.678 C 132.5 153.739 152.434 128.619 157.135 124.598 C 162.066 120.381 168.312 119.523 172.95 123.618 C 177.588 127.715 178.027 134.795 173.93 139.431 L 157.802 159.661 C 133.012 190.893 86.658 229.794 86.658 229.794 L 16 229.834 L 16 175.408 C 16 175.408 34.579 164.632 34.754 160.952 C 34.93 157.271 34.145 155.869 34.145 155.869 C 34.145 155.869 34.101 119.392 34.145 112.528 C 34.164 109.723 34.139 106.861 34.115 104.062 C 34.081 100.019 34.048 96.107 34.145 92.682 C 34.145 92.682 34.016 87.26 34.145 85.146 C 34.221 83.91 34.579 82.691 34.891 81.628 C 35.075 81.001 36.794 73.064 38.698 67.794 C 41.299 60.596 45.621 52.983 47.287 50.179 C 48.967 47.349 52.215 45.845 55.206 47.218 C 58.197 48.591 58.697 52.161 57.453 54.998 C 57.22 55.529 56.706 56.401 56.02 57.567 L 56.019 57.567 C 53.035 62.632 47.141 72.678 46.358 85.146 C 46.237 87.074 46.439 90.288 46.358 93.124 C 46.204 98.491 45.756 110.923 46.358 111.524 C 46.96 112.126 48.338 112.138 48.952 111.524 C 49.565 110.911 49.414 103.592 49.5 99.778 C 49.71 90.443 50.277 81.425 51.115 77.57 C 52.027 73.373 55.38 66.093 60.099 58.103 C 64.945 49.895 70.612 40.241 78.667 31.323 C 80.873 28.88 84.641 28.689 87.084 30.895 C 89.526 33.101 89.718 36.869 87.512 39.312 C 80.08 47.54 74.671 56.297 70.16 63.937 C 65.52 71.795 63.24 77.902 62.761 80.102 C 62.209 82.644 61.63 90.496 61.416 100.047 C 61.33 103.832 60.475 110.648 61.221 111.524 C 61.967 112.401 66.17 112.313 66.654 111.524 C 67.139 110.736 67.061 103.61 67.131 99.793 C 67.293 90.882 67.697 82.164 68.543 78.271 C 69.098 75.718 70.738 72.331 72.597 68.962 C 74.578 65.371 77.209 61.104 80.251 56.551 C 86.328 47.455 94.218 36.962 102.194 28.131 C 104.401 25.688 108.169 25.497 110.611 27.703 Z" fill="black"/>
  <path d="M 206.475 99.017 C 224.99 99.017 240 84.01 240 65.497 C 240 46.983 224.99 31.976 206.475 31.976 C 187.96 31.976 172.95 46.983 172.95 65.497 C 172.95 84.01 187.96 99.017 206.475 99.017 Z" fill="black"/>
</svg>
