<?xml version="1.0" encoding="utf-8"?>
<svg width="256" height="256" viewBox="0 0 256 256" fill="none" xmlns="http://www.w3.org/2000/svg">
  <path d="M 156.814 42.181 C 157.211 42.527 157.576 42.867 157.795 43.141 C 158.199 43.645 158.555 44.406 158.874 45.204 C 159.209 46.042 159.559 47.071 159.916 48.213 C 160.631 50.5 161.399 53.329 162.153 56.181 C 162.373 57.013 162.592 57.847 162.808 58.671 L 162.81 58.676 C 163.338 60.688 163.85 62.641 164.329 64.373 C 165.014 66.85 165.596 68.747 166.021 69.691 C 166.39 70.513 167.232 71.639 168.644 72.959 C 170.037 74.261 171.918 75.688 174.271 77.127 C 178.644 79.8 184.596 82.48 191.961 84.459 L 191.961 63.589 C 191.961 63.475 191.975 63.36 192.004 63.249 L 193.337 63.589 C 192.004 63.249 192.004 63.248 192.004 63.248 L 192.004 63.247 L 192.011 63.219 L 192.034 63.134 C 192.053 63.059 192.081 62.949 192.119 62.805 C 192.194 62.518 192.304 62.098 192.447 61.565 C 192.732 60.498 193.145 58.978 193.66 57.159 C 194.688 53.523 196.124 48.685 197.748 43.893 C 199.367 39.115 201.192 34.326 203.007 30.816 C 203.908 29.073 204.85 27.558 205.816 26.516 C 206.71 25.553 208.03 24.569 209.58 25.005 C 211.057 25.42 211.705 26.742 211.967 27.978 C 212.233 29.237 212.206 30.818 212.022 32.531 C 211.65 35.984 210.582 40.437 209.33 44.971 C 208.404 48.327 207.362 51.78 206.403 54.958 L 206.402 54.961 C 206.062 56.086 205.733 57.176 205.423 58.216 C 204.302 61.974 203.467 64.964 203.217 66.645 C 217.168 96.259 217.455 126.469 215.873 154.246 C 215.844 154.759 215.531 155.213 215.062 155.423 L 214.5 154.168 C 215.062 155.423 215.061 155.423 215.061 155.423 L 215.06 155.424 L 215.055 155.426 L 215.036 155.435 L 214.965 155.466 C 214.945 155.475 214.921 155.486 214.895 155.497 C 214.84 155.522 214.771 155.552 214.689 155.588 C 214.448 155.694 214.097 155.847 213.649 156.039 C 212.755 156.424 211.477 156.963 209.941 157.585 C 206.871 158.829 202.757 160.41 198.599 161.747 C 194.465 163.076 190.194 164.196 186.844 164.467 C 185.186 164.601 183.601 164.543 182.339 164.091 C 180.992 163.609 179.916 162.625 179.699 161.018 C 179.508 159.604 179.973 158.323 180.756 157.224 C 181.525 156.143 182.64 155.176 183.899 154.303 C 186.416 152.56 189.82 150.985 193.133 149.546 C 193.964 149.185 194.789 148.833 195.596 148.488 L 195.598 148.488 L 195.599 148.487 C 198.07 147.432 200.383 146.444 202.242 145.477 C 203.473 144.837 204.414 144.25 205.03 143.716 C 205.69 143.144 205.717 142.859 205.717 142.845 C 205.717 140.872 204.699 138.062 202.344 134.559 C 200.013 131.094 196.473 127.098 191.676 122.785 C 182.086 114.161 167.576 104.363 147.988 95.096 C 147.51 94.87 147.204 94.389 147.201 93.859 L 148.577 93.853 C 147.201 93.859 147.201 93.859 147.201 93.859 L 147.2 93.735 C 147.2 93.653 147.199 93.531 147.198 93.371 C 147.196 93.051 147.193 92.582 147.188 91.984 C 147.178 90.788 147.162 89.074 147.136 87.009 C 147.085 82.878 146.996 77.341 146.844 71.714 C 146.692 66.083 146.477 60.376 146.176 55.899 C 146.026 53.657 145.855 51.746 145.663 50.315 C 145.566 49.597 145.468 49.025 145.37 48.603 C 145.293 48.273 145.234 48.115 145.214 48.063 C 145.212 48.057 145.21 48.052 145.209 48.048 C 145.208 48.047 145.208 48.045 145.208 48.044 C 145.194 48.027 145.16 47.988 145.098 47.926 C 145.008 47.836 144.885 47.722 144.722 47.583 C 144.395 47.305 143.954 46.96 143.403 46.552 C 142.302 45.737 140.828 44.717 139.101 43.541 C 138.232 42.95 137.302 42.321 136.327 41.663 L 136.325 41.661 C 133.441 39.711 130.173 37.503 126.993 35.247 C 122.745 32.234 118.586 29.089 115.653 26.309 C 114.193 24.926 112.971 23.571 112.201 22.319 C 111.476 21.141 110.899 19.637 111.565 18.235 C 111.948 17.429 112.645 16.978 113.395 16.787 C 114.096 16.609 114.872 16.645 115.629 16.771 C 117.15 17.026 119.044 17.729 121.114 18.683 C 125.286 20.605 130.555 23.728 135.754 27.083 C 140.965 30.445 146.151 34.071 150.17 37.024 C 152.18 38.5 153.904 39.813 155.198 40.845 C 155.844 41.36 156.39 41.811 156.814 42.181 Z" fill="black"/>
  <path fill-rule="evenodd" clip-rule="evenodd" d="M 95.673 58.911 C 107.296 59.775 119.457 61.526 121.713 61.903 C 122.984 62.115 124.84 62.756 126.809 63.533 C 128.814 64.324 131.054 65.303 133.141 66.253 C 135.23 67.205 137.178 68.132 138.603 68.821 C 139.154 69.087 140.08 69.545 140.659 69.832 C 140.83 69.916 140.97 69.986 141.062 70.031 C 141.529 70.264 141.698 70.674 141.698 71.195 L 141.698 87.068 C 141.698 87.629 141.356 88.135 140.835 88.344 C 140.314 88.553 139.053 87.738 138.913 87.6 C 138.634 87.323 138.22 86.92 137.687 86.423 C 136.621 85.428 135.082 84.057 133.198 82.563 C 129.414 79.562 124.312 76.121 118.906 74.183 C 116.258 73.233 112.083 72.5 107.184 71.844 C 104.336 71.463 101.319 71.116 98.276 70.766 L 98.274 70.766 L 98.273 70.766 C 96.933 70.612 95.587 70.457 94.249 70.299 C 95.212 73.677 96.433 78.027 97.612 82.402 C 98.862 87.042 100.072 91.738 100.872 95.336 C 101.27 97.126 101.578 98.695 101.735 99.867 C 101.811 100.439 101.864 101.004 101.853 101.484 C 101.848 101.714 101.826 102.037 101.734 102.372 C 101.668 102.611 101.418 103.427 100.544 103.872 C 99.97 104.165 99.383 104.227 98.931 104.223 C 98.464 104.218 97.995 104.143 97.553 104.039 C 96.671 103.833 95.66 103.457 94.58 102.985 C 92.409 102.035 89.65 100.554 86.524 98.752 C 81.577 95.9 75.539 92.141 69.168 88.176 L 69.167 88.175 L 69.166 88.175 L 69.165 88.174 L 69.163 88.173 C 67.473 87.121 65.76 86.054 64.038 84.987 C 55.789 79.872 47.309 74.711 40.006 70.83 C 36.355 68.89 33.038 67.292 30.22 66.184 C 27.344 65.053 25.202 64.521 23.821 64.521 C 21.272 64.521 20.622 65.212 20.441 65.536 C 20.17 66.019 20.045 67.14 20.831 69.304 C 22.354 73.496 26.459 79.343 31.497 85.446 C 36.476 91.478 42.167 97.527 46.626 102.08 C 48.853 104.353 50.767 106.248 52.122 107.573 C 52.801 108.235 53.339 108.755 53.707 109.108 C 53.891 109.285 54.032 109.42 54.127 109.51 L 54.234 109.612 L 54.268 109.645 L 54.268 109.646 L 54.266 109.647 L 54.267 109.647 L 54.269 109.645 C 54.454 109.821 54.601 110.022 54.708 110.238 C 54.864 110.521 54.97 110.838 55.013 111.178 L 55.883 118.032 C 63.079 119.639 72.125 120.571 81.54 121.541 C 84.051 121.799 86.588 122.061 89.124 122.339 C 101.882 123.736 114.638 125.548 123.141 129.635 C 131.635 133.719 138.919 140.62 144.22 146.414 C 146.567 148.98 148.546 151.353 150.072 153.182 L 150.327 153.488 C 150.438 153.62 150.546 153.75 150.651 153.875 C 151.454 154.836 152.086 155.58 152.558 156.082 C 152.645 156.175 152.722 156.254 152.789 156.322 L 152.796 156.318 L 152.813 156.308 C 153.153 156.116 153.607 155.817 154.162 155.412 C 155.266 154.607 156.679 153.454 158.215 152.097 C 160.542 150.04 163.102 147.559 165.253 145.177 C 165.8 143.214 167.601 141.774 169.739 141.774 C 172.31 141.774 174.394 143.859 174.394 146.43 C 174.394 148.833 172.574 150.811 170.236 151.06 C 166.011 158.486 161.982 162.897 154.409 168.983 C 153.994 169.316 153.424 169.381 152.945 169.147 C 145.265 165.409 140.706 163.308 132.913 160.709 L 132.913 176.822 C 143.755 180.025 150.032 184.676 160.664 193.407 C 160.835 193.548 160.969 193.727 161.056 193.931 L 159.79 194.47 C 161.056 193.931 161.056 193.931 161.056 193.931 L 161.059 193.939 L 161.07 193.964 C 161.079 193.985 161.092 194.016 161.11 194.058 C 161.124 194.091 161.141 194.131 161.16 194.176 L 161.263 194.422 C 161.398 194.741 161.592 195.207 161.838 195.8 C 162.328 196.986 163.019 198.679 163.822 200.71 C 165.429 204.77 167.493 210.191 169.309 215.62 C 171.119 221.03 172.709 226.521 173.338 230.692 C 173.648 232.752 173.75 234.644 173.439 236.08 C 173.282 236.806 172.992 237.54 172.453 238.107 C 171.874 238.715 171.112 239.019 170.266 239.019 C 168.743 239.019 167.37 238.141 166.205 237.036 C 165.01 235.903 163.826 234.333 162.666 232.529 C 160.343 228.917 157.958 224.111 155.654 219.311 C 155.217 218.401 154.783 217.491 154.352 216.588 L 154.323 216.526 L 154.321 216.522 L 154.321 216.521 L 154.32 216.521 C 152.474 212.648 150.691 208.91 149.016 205.849 C 147.979 203.955 147.01 202.369 146.12 201.198 C 145.189 199.972 144.499 199.409 144.075 199.252 C 137.536 196.827 125.034 193.095 116.406 193.095 C 116.112 193.095 115.6 193.199 114.823 193.514 C 114.069 193.819 113.161 194.281 112.107 194.895 C 110 196.122 107.415 197.895 104.472 200.053 C 100.126 203.242 95.081 207.213 89.753 211.407 C 87.865 212.893 85.942 214.407 84.001 215.924 C 76.607 221.704 68.98 227.518 62.247 231.889 C 58.882 234.075 55.709 235.92 52.879 237.223 C 50.081 238.512 47.48 239.336 45.299 239.336 C 44.222 239.336 42.947 239.064 42.33 237.902 C 41.772 236.85 42.092 235.642 42.482 234.72 C 43.313 232.759 45.327 230.125 47.982 227.123 C 53.358 221.042 61.919 212.849 70.887 204.37 C 72.027 203.292 73.174 202.209 74.323 201.125 C 82.234 193.655 90.214 186.121 96.484 179.682 C 100.075 175.993 103.074 172.695 105.167 169.996 C 106.215 168.646 107.011 167.476 107.539 166.505 C 108.088 165.495 108.259 164.857 108.259 164.525 L 108.259 153.035 C 107.844 146.695 104.189 140.142 97.662 136.637 C 88.24 131.578 73.174 129.21 57.168 128.169 L 57.764 132.87 C 57.948 134.32 56.922 135.644 55.473 135.828 C 54.023 136.011 52.699 134.985 52.515 133.536 L 49.764 111.844 C 49.736 111.619 49.737 111.398 49.763 111.183 C 49.578 111.003 49.378 110.808 49.165 110.6 C 47.79 109.258 45.854 107.341 43.602 105.042 C 39.103 100.449 33.32 94.303 28.233 88.141 C 23.204 82.049 18.652 75.702 16.853 70.749 C 15.977 68.34 15.524 65.65 16.749 63.465 C 18.064 61.121 20.734 60.288 23.821 60.288 C 26.037 60.288 28.798 61.076 31.769 62.244 C 34.798 63.436 38.273 65.116 41.993 67.093 C 49.434 71.047 58.023 76.277 66.268 81.389 C 68.001 82.463 69.717 83.532 71.405 84.583 L 71.417 84.59 L 71.438 84.603 L 71.441 84.605 C 77.803 88.565 83.758 92.272 88.638 95.085 C 91.733 96.87 94.327 98.254 96.277 99.107 C 96.697 99.291 97.074 99.444 97.407 99.568 C 97.256 98.674 97.029 97.555 96.74 96.254 C 95.961 92.752 94.772 88.13 93.525 83.503 C 92.28 78.883 90.986 74.285 90.002 70.841 C 89.892 70.457 89.787 70.087 89.685 69.733 C 85.341 69.162 81.294 68.512 78.197 67.669 C 76.417 67.184 74.847 66.61 73.696 65.89 C 72.578 65.19 71.519 64.128 71.541 62.604 C 71.568 60.849 73.115 59.956 74.387 59.503 C 75.788 59.003 77.684 58.719 79.825 58.569 C 84.138 58.265 89.87 58.48 95.673 58.911 Z M 152.41 156.504 C 152.41 156.504 152.413 156.503 152.421 156.501 C 152.413 156.503 152.41 156.504 152.41 156.504 Z" fill="black"/>
  <path d="M 138.84 114.262 C 138.84 120.223 134.008 125.055 128.047 125.055 C 122.086 125.055 117.254 120.223 117.254 114.262 C 117.254 108.301 122.086 103.469 128.047 103.469 C 134.008 103.469 138.84 108.301 138.84 114.262 Z" fill="black"/>
  <path d="M 229.207 108.759 C 235.168 108.759 240 103.927 240 97.966 C 240 92.005 235.168 87.173 229.207 87.173 C 223.246 87.173 218.414 92.005 218.414 97.966 C 218.414 103.927 223.246 108.759 229.207 108.759 Z" fill="black"/>
</svg>
