<?xml version="1.0" encoding="utf-8"?>
<svg width="256" height="256" viewBox="0 0 256 256" fill="none" xmlns="http://www.w3.org/2000/svg">
  <path d="M 67.208 57.674 C 64.452 55.82 60.715 56.55 58.86 59.306 C 57.005 62.062 57.735 65.8 60.491 67.655 L 65.884 71.284 C 68.64 73.139 72.377 72.409 74.233 69.653 C 76.087 66.897 75.357 63.159 72.601 61.304 L 67.208 57.674 Z" fill="black"/>
  <path d="M 79.633 179.55 C 81.298 176.675 80.317 172.995 77.441 171.33 C 74.567 169.666 70.887 170.647 69.222 173.522 L 65.8 179.433 C 64.135 182.308 65.117 185.988 67.992 187.653 C 70.867 189.317 74.547 188.336 76.211 185.461 L 79.633 179.55 Z" fill="black"/>
  <path d="M 95.845 206.327 C 97.75 203.606 97.088 199.855 94.367 197.95 C 91.645 196.045 87.895 196.707 85.99 199.428 L 81.634 205.651 C 79.729 208.372 80.391 212.123 83.112 214.028 C 85.834 215.933 89.584 215.271 91.489 212.55 L 95.845 206.327 Z" fill="black"/>
  <path fill-rule="evenodd" clip-rule="evenodd" d="M 230.39 209.81 C 232.147 208.523 235.063 206.348 236.071 205.597 C 236.448 205.312 236.782 204.788 236.793 204.314 L 236.839 202.459 C 236.871 201.248 236.915 199.471 236.97 197.207 C 237.081 192.681 237.239 186.209 237.424 178.429 C 237.795 162.869 238.279 142.074 238.725 121.136 C 239.173 100.199 239.583 79.116 239.813 62.981 C 239.926 54.914 239.996 48.078 240 43.113 C 240.002 40.632 239.987 38.61 239.956 37.131 C 239.939 36.393 239.918 35.779 239.89 35.306 C 239.867 34.89 239.831 34.44 239.756 34.13 C 239.676 33.815 239.501 33.533 239.255 33.323 C 238.283 32.495 236.583 31.815 234.647 31.215 C 232.629 30.589 230.085 29.976 227.204 29.383 C 221.435 28.196 214.199 27.069 206.872 26.094 C 192.249 24.15 177.068 22.788 172.287 22.788 C 167.432 22.788 154.373 24.769 142.293 27.533 C 136.231 28.92 130.334 30.522 125.767 32.203 C 123.488 33.042 121.489 33.919 119.951 34.824 C 118.5 35.678 117.135 36.74 116.603 38.082 C 116.53 38.264 116.493 38.459 116.493 38.655 C 116.493 40.205 117.082 61.501 117.914 88.355 L 94.591 41.229 C 93.321 38.662 90.21 37.611 87.644 38.882 C 85.077 40.152 84.026 43.262 85.296 45.829 L 111.567 98.91 L 110.452 98.91 L 86.707 76.631 C 84.827 74.868 81.874 74.962 80.111 76.842 C 78.347 78.721 78.441 81.675 80.321 83.438 L 96.811 98.91 L 23.156 98.91 C 19.204 98.91 16 102.113 16 106.065 C 16 110.017 19.204 113.221 23.156 113.221 L 104.376 113.221 C 104.405 113.221 104.434 113.221 104.463 113.221 C 109.961 113.221 112.967 114.896 112.967 117.473 C 112.967 120.039 110.002 122.536 104.539 122.555 L 24.4 122.555 C 20.448 122.555 17.244 125.759 17.244 129.711 C 17.244 133.663 20.448 136.867 24.4 136.867 L 99.798 136.867 L 84.247 155.369 C 82.589 157.342 82.844 160.286 84.817 161.944 C 86.791 163.602 89.734 163.347 91.393 161.374 L 111.792 137.103 L 92.619 181.193 C 91.477 183.819 92.68 186.874 95.306 188.016 C 97.933 189.158 100.987 187.955 102.13 185.328 L 119.781 144.737 C 120.162 155.403 120.546 165.524 120.913 174.321 C 121.567 189.984 122.172 201.605 122.63 204.519 C 122.682 204.844 122.834 205.144 123.067 205.377 C 123.437 205.747 124.017 206.131 124.629 206.499 C 125.281 206.891 126.111 207.345 127.081 207.847 C 129.023 208.853 131.594 210.086 134.581 211.456 C 140.56 214.199 148.264 217.52 156.076 220.727 C 163.886 223.935 171.821 227.036 178.26 229.338 C 181.478 230.489 184.339 231.446 186.632 232.117 C 188.848 232.766 190.735 233.211 191.888 233.211 C 193.147 233.211 194.765 232.649 196.441 231.899 C 198.187 231.118 200.242 230.018 202.465 228.721 C 206.914 226.126 212.146 222.678 217.129 219.248 C 222.117 215.814 226.878 212.382 230.39 209.81 Z M 168.969 75.472 C 177.56 75.472 184.525 68.507 184.525 59.916 C 184.525 51.324 177.56 44.359 168.969 44.359 C 160.378 44.359 153.413 51.324 153.413 59.916 C 153.413 68.507 160.378 75.472 168.969 75.472 Z M 145.795 116.488 L 145.83 116.21 C 145.886 115.607 145.967 114.742 146.068 113.692 C 146.269 111.593 146.551 108.755 146.868 105.802 C 147.185 102.85 147.539 99.776 147.887 97.206 C 148.229 94.684 148.58 92.522 148.907 91.484 C 149.316 90.191 150.271 88.99 151.525 87.897 C 152.794 86.792 154.457 85.721 156.431 84.708 C 160.38 82.682 165.699 80.828 171.919 79.405 C 184.364 76.56 200.578 75.407 216.986 78.186 C 217.612 78.292 218.098 78.701 218.424 79.036 C 218.783 79.406 219.133 79.883 219.47 80.417 C 220.148 81.49 220.869 82.945 221.584 84.625 C 223.02 87.996 224.496 92.42 225.607 96.861 C 226.716 101.287 227.482 105.816 227.454 109.371 C 227.44 111.139 227.227 112.775 226.688 114.059 C 226.133 115.378 225.162 116.458 223.632 116.728 C 220.516 117.28 218.085 115.682 216.292 113.391 C 214.517 111.123 213.203 107.993 212.21 104.917 C 211.211 101.82 210.503 98.664 209.992 96.28 C 209.817 95.459 209.373 93.462 209.245 92.929 C 208.875 92.883 208.303 92.832 207.699 92.797 C 206.496 92.726 204.96 92.684 203.43 92.678 C 201.899 92.671 200.396 92.7 199.258 92.767 C 198.99 92.783 198.748 92.801 198.535 92.82 C 198.722 93.584 199.011 94.694 199.385 96.106 C 199.784 97.613 200.278 99.452 200.846 101.567 L 200.852 101.589 C 201.351 103.448 201.907 105.519 202.507 107.767 C 205.075 117.39 208.431 130.188 211.46 143.02 C 214.486 155.842 217.194 168.737 218.455 178.542 C 219.084 183.432 219.363 187.63 219.118 190.687 C 218.996 192.207 218.738 193.548 218.262 194.573 C 217.778 195.616 216.97 196.517 215.71 196.697 C 211.659 197.276 208.641 194.414 206.355 190.453 C 204.035 186.432 202.157 180.779 200.476 174.645 C 199.374 170.626 198.339 166.329 197.316 162.086 L 197.316 162.085 L 197.315 162.081 L 197.315 162.08 L 197.313 162.073 L 197.312 162.068 L 197.311 162.065 C 196.774 159.835 196.241 157.621 195.703 155.47 C 194.299 149.855 192.865 144.663 191.244 140.573 C 185.528 145 183.146 150.281 182.538 155.822 C 181.878 161.828 183.297 168.196 185.038 174.209 C 185.472 175.707 185.922 177.172 186.362 178.602 L 186.417 178.782 L 186.418 178.783 L 186.419 178.788 L 186.42 178.789 L 186.422 178.796 L 186.423 178.8 C 186.841 180.156 187.249 181.482 187.618 182.755 C 188.389 185.41 189.014 187.915 189.21 190.106 C 189.404 192.282 189.197 194.354 188.079 195.979 C 186.93 197.65 185.009 198.584 182.383 198.881 C 177.922 199.384 174.481 195.999 171.903 191.556 C 169.273 187.024 167.221 180.87 165.65 174.69 C 164.074 168.491 162.961 162.179 162.243 157.279 C 161.53 152.421 161.191 148.851 161.191 148.175 C 161.191 147.52 161.503 146.916 161.784 146.472 C 162.09 145.987 162.503 145.471 162.954 144.952 C 163.476 144.352 164.124 143.664 164.797 142.949 L 166.183 141.461 C 167.338 140.197 168.444 138.89 169.259 137.603 C 170.085 136.298 170.525 135.145 170.525 134.17 L 170.525 134.159 L 170.525 134.153 L 170.525 134.144 L 170.525 134.133 C 170.699 128.295 170.555 124.498 169.909 118.117 C 169.546 114.542 168.668 110.289 167.518 106.968 C 166.94 105.299 166.317 103.933 165.697 103.014 C 165.014 102.001 164.602 101.915 164.541 101.917 L 164.539 101.917 C 164.518 101.917 164.378 101.919 164.122 102.26 C 163.851 102.62 163.57 103.214 163.306 104.066 C 162.782 105.758 162.428 108.11 162.17 110.676 C 161.95 112.866 161.741 116.153 161.61 118.225 C 161.464 120.487 161.317 122.53 161.055 123.664 C 160.943 124.15 160.682 124.603 160.402 124.993 C 160.11 125.399 159.736 125.82 159.309 126.247 C 158.454 127.1 157.311 128.046 155.989 129.017 C 153.339 130.963 149.871 133.084 146.305 134.857 C 142.753 136.623 139.025 138.084 135.869 138.654 C 134.293 138.938 132.777 139.016 131.463 138.744 C 130.124 138.466 128.927 137.804 128.184 136.578 C 126.741 134.197 127.715 131.581 129.254 129.409 C 130.831 127.185 133.295 124.976 135.801 123.047 C 138.325 121.105 140.971 119.387 142.979 118.159 C 143.985 117.544 144.835 117.049 145.434 116.707 C 145.485 116.678 145.555 116.635 145.622 116.593 C 145.688 116.552 145.752 116.512 145.795 116.488 Z" fill="black"/>
</svg>
