<?xml version="1.0" encoding="utf-8"?>
<svg width="256" height="256" viewBox="0 0 256 256" fill="none" xmlns="http://www.w3.org/2000/svg">
  <path fill-rule="evenodd" clip-rule="evenodd" d="M 57.711 17.376 C 57.717 16.613 58.339 15.998 59.103 16 L 146.574 16.231 C 146.89 16.232 147.197 16.341 147.443 16.54 L 156.617 23.95 C 162.646 19.811 169.945 17.388 177.81 17.388 C 198.514 17.388 215.298 34.172 215.298 54.876 C 215.298 59.908 214.306 64.709 212.508 69.093 L 231.675 84.573 C 232.001 84.837 232.191 85.234 232.191 85.653 L 232.191 205.984 C 232.191 206.502 231.902 206.977 231.442 207.216 C 230.983 207.455 230.428 207.418 230.004 207.12 C 227.48 205.347 223.676 202.689 220.47 200.474 C 218.867 199.366 217.417 198.372 216.352 197.656 C 215.819 197.297 215.39 197.013 215.089 196.822 C 214.937 196.724 214.831 196.659 214.765 196.621 C 214.756 196.615 214.748 196.611 214.743 196.608 C 214.738 196.605 214.735 196.604 214.733 196.603 L 214.736 196.604 L 214.74 196.606 L 214.741 196.606 C 214.746 196.609 214.765 196.618 214.794 196.63 C 214.805 196.635 214.817 196.639 214.83 196.644 C 214.842 196.649 214.859 196.655 214.88 196.662 C 214.903 196.67 214.931 196.678 214.963 196.686 C 215.012 196.699 215.136 196.728 215.298 196.728 C 215.002 196.696 214.53 196.496 214.358 196.362 C 214.259 196.262 214.121 196.078 214.074 195.999 C 213.996 195.853 213.961 195.726 213.951 195.688 C 213.924 195.59 213.913 195.505 213.909 195.474 C 213.898 195.394 213.892 195.309 213.888 195.24 C 213.878 195.092 213.87 194.888 213.863 194.643 C 213.849 194.148 213.836 193.426 213.825 192.505 C 213.803 190.662 213.787 187.996 213.776 184.701 C 213.754 178.11 213.752 168.985 213.762 158.848 C 213.782 138.862 213.85 114.935 213.907 98.722 L 197.846 86.566 C 192.051 90.238 185.179 92.364 177.81 92.364 C 174.77 92.364 171.814 92.002 168.984 91.319 C 185.604 107.013 195.976 129.254 195.976 153.917 C 195.976 201.459 157.435 240 109.893 240 C 62.35 240 23.81 201.459 23.81 153.917 C 23.81 120.456 42.901 91.454 70.785 77.21 L 70.785 45.041 L 58.868 45.041 C 58.497 45.041 58.142 44.894 57.881 44.63 C 57.621 44.367 57.476 44.011 57.479 43.641 L 57.711 17.376 Z M 147.675 48.594 C 147.254 50.623 147.033 52.723 147.033 54.876 C 147.033 71.874 160.813 85.653 177.81 85.653 C 182.944 85.653 187.785 84.396 192.041 82.173 L 147.675 48.594 Z M 207.004 64.647 C 208.031 61.577 208.587 58.292 208.587 54.876 C 208.587 37.879 194.808 24.099 177.81 24.099 C 172.079 24.099 166.714 25.666 162.119 28.394 L 207.004 64.647 Z M 85.681 110.119 C 85.177 110.502 84.995 111.177 85.24 111.76 L 94.908 134.83 L 73.249 118.221 C 72.739 117.83 72.026 117.84 71.528 118.247 L 49.082 136.527 C 48.64 136.887 48.463 137.481 48.635 138.024 L 56.503 162.785 C 56.679 163.34 57.183 163.726 57.764 163.752 L 85.022 164.963 L 63.429 179.137 C 62.939 179.458 62.704 180.051 62.841 180.621 L 69.551 208.621 C 69.7 209.246 70.259 209.686 70.901 209.686 L 102.719 209.686 C 103.383 209.686 103.954 209.216 104.082 208.564 L 108.854 184.173 L 115.26 208.535 C 115.421 209.145 115.972 209.57 116.603 209.57 L 148.422 209.57 C 149.067 209.57 149.627 209.126 149.774 208.498 L 156.368 180.384 C 156.496 179.839 156.284 179.271 155.831 178.942 L 134.535 163.508 L 160.429 163.984 C 161.045 163.995 161.594 163.599 161.779 163.012 L 170.608 134.978 C 170.798 134.375 170.557 133.72 170.021 133.384 L 145.687 118.146 C 145.167 117.82 144.495 117.875 144.034 118.28 L 125.455 134.618 L 133.874 111.703 C 134.083 111.132 133.898 110.492 133.416 110.123 L 110.507 92.535 C 110.01 92.154 109.319 92.152 108.821 92.531 L 85.681 110.119 Z" fill="black"/>
</svg>
