<?xml version="1.0" encoding="utf-8"?>
<svg width="256" height="256" viewBox="0 0 256 256" fill="none" xmlns="http://www.w3.org/2000/svg">
  <path fill-rule="evenodd" clip-rule="evenodd" d="M 126.346 240 C 126.346 240 173.612 202.138 180.884 180.738 C 188.156 159.338 177.248 137.938 155.433 137.938 C 133.618 137.938 126.347 154.399 126.347 154.399 C 126.347 154.399 117.682 137.938 95.867 137.938 C 74.053 137.938 63.145 159.338 70.417 180.738 C 77.688 202.138 126.346 240 126.346 240 Z M 150.092 187.357 L 102.821 187.357 L 126.347 211.53 L 150.092 187.357 Z" fill="black"/>
  <path d="M 59.444 158.35 L 53.938 123.3 L 84.557 129.074 L 79.454 96.038 L 113.967 106.513 L 129.948 66.226 L 150.092 108.528 L 178.562 96.038 L 176.279 129.074 L 198.168 118.868 L 195.214 154.399 L 238.859 104.364 L 203.674 102.082 L 214.015 49.439 L 164.595 73.074 L 129.948 16 L 100 74.686 L 47.358 54.139 L 52.461 104.364 L 17.142 104.364 L 59.444 158.35 Z" fill="black"/>
</svg>
