<?xml version="1.0" encoding="utf-8"?>
<svg width="256" height="256" viewBox="0 0 256 256" fill="none" xmlns="http://www.w3.org/2000/svg">
  <path d="M 138.701 16 C 170.02 40.333 190.519 51.433 230.155 68.599 C 230.155 92.094 227.14 112.707 222.205 130.71 L 155.679 130.71 L 176.081 98.323 L 48.946 98.323 C 47.845 88.972 47.246 79.072 47.246 68.599 C 90.356 47.12 113.151 35.253 138.701 16 Z" fill="black"/>
  <path d="M 215.755 150.257 C 189.996 216.442 138.701 240 138.701 240 C 138.701 240 87.405 216.442 61.646 150.257 L 120.438 150.257 L 99.893 184.356 L 215.755 150.257 Z" fill="black"/>
  <path d="M 68.84 112.448 C 88.957 112.448 92.902 125.289 92.902 125.289 C 92.902 125.289 88.957 138.129 68.84 138.129 L 25.845 138.129 L 25.845 112.448 L 68.84 112.448 Z" fill="black"/>
</svg>
