<?xml version="1.0" encoding="utf-8"?>
<svg width="256" height="256" viewBox="0 0 256 256" fill="none" xmlns="http://www.w3.org/2000/svg">
  <path d="M 115.132 39.514 L 115.132 16 L 123.95 16 L 123.95 39.514 L 115.132 39.514 Z" fill="black"/>
  <path d="M 129.561 119.273 C 129.561 124.511 125.314 128.758 120.075 128.758 C 114.837 128.758 110.59 124.511 110.59 119.273 C 110.59 114.034 114.837 109.787 120.075 109.787 C 125.314 109.787 129.561 114.034 129.561 119.273 Z" fill="black"/>
  <path fill-rule="evenodd" clip-rule="evenodd" d="M 152.273 119.273 C 152.273 137.055 137.858 151.47 120.075 151.47 C 102.293 151.47 87.878 137.055 87.878 119.273 C 87.878 101.49 102.293 87.075 120.075 87.075 C 137.858 87.075 152.273 101.49 152.273 119.273 Z M 97.291 119.273 C 97.291 131.856 107.492 142.057 120.075 142.057 C 132.659 142.057 142.86 131.856 142.86 119.273 C 142.86 106.689 132.659 96.488 120.075 96.488 C 107.492 96.488 97.291 106.689 97.291 119.273 Z" fill="black"/>
  <path fill-rule="evenodd" clip-rule="evenodd" d="M 176.355 161.763 C 185.225 149.968 190.482 135.301 190.482 119.406 C 190.482 80.447 158.9 48.866 119.942 48.866 C 80.983 48.866 49.401 80.447 49.401 119.406 C 49.401 158.365 80.983 189.947 119.942 189.947 C 135.338 189.947 149.582 185.014 161.18 176.643 C 161.631 179.119 162.814 181.487 164.728 183.401 L 217.57 236.244 C 222.579 241.252 230.699 241.252 235.708 236.244 C 240.716 231.235 240.716 223.114 235.708 218.105 L 182.866 165.263 C 181.016 163.413 178.741 162.246 176.355 161.763 Z M 119.942 170.381 C 91.789 170.381 68.966 147.559 68.966 119.406 C 68.966 91.253 91.789 68.431 119.942 68.431 C 148.095 68.431 170.917 91.253 170.917 119.406 C 170.917 147.559 148.095 170.381 119.942 170.381 Z" fill="black"/>
  <path d="M 198.766 114.864 L 222.279 114.864 L 222.279 123.681 L 198.766 123.681 L 198.766 114.864 Z" fill="black"/>
  <path d="M 16.536 114.864 L 16.536 123.681 L 41.118 123.681 L 41.118 114.864 L 16.536 114.864 Z" fill="black"/>
  <path d="M 115.399 199.299 L 115.399 222.812 L 124.217 222.812 L 124.217 199.299 L 115.399 199.299 Z" fill="black"/>
</svg>
