<?xml version="1.0" encoding="utf-8"?>
<svg width="256" height="256" viewBox="0 0 256 256" fill="none" xmlns="http://www.w3.org/2000/svg">
  <path fill-rule="evenodd" clip-rule="evenodd" d="M 73.828 62.064 C 72.133 72.318 76.865 92.171 79.231 92.171 C 81.598 92.171 88.565 81.863 91.851 84.809 C 93.706 86.472 91.206 91.451 88.676 96.488 C 86.723 100.377 83.57 104.037 83.57 106.499 C 83.57 112.152 107.166 132.396 126.687 132.396 C 146.208 132.396 165.598 106.368 165.598 102.293 C 165.598 99.531 163.538 98.422 161.081 97.099 C 159.444 96.217 157.631 95.24 156.133 93.617 C 154.837 92.213 154.311 90.501 153.837 88.962 C 153.142 86.7 152.56 84.809 149.823 84.809 C 147.67 84.809 146.942 85.586 146.208 86.369 C 145.463 87.164 144.713 87.964 142.461 87.964 C 137.992 87.964 132.339 80.734 132.339 73.633 C 132.339 66.531 137.335 58.913 145.353 58.913 C 153.372 58.913 159.682 69.166 159.682 76.396 C 159.682 90.856 171.25 86.518 171.25 86.518 C 177.034 77.309 180.198 20.264 127.213 20.274 C 110.123 20.277 104.997 26.177 104.997 36.167 C 104.997 41.841 107.837 44.208 110.292 46.254 C 112.16 47.81 113.804 49.18 113.804 51.679 C 113.804 54.847 112.897 56.043 112.077 57.126 C 111.399 58.02 110.781 58.836 110.781 60.622 C 110.781 62.204 112.366 63.321 114.265 64.659 C 117.102 66.657 120.64 69.149 120.64 74.424 C 120.64 83.232 111.044 88.072 105.128 87.964 C 99.213 87.857 91.851 80.597 91.851 73.633 C 91.851 70.167 94.488 67.285 97.138 64.391 C 99.812 61.469 102.499 58.533 102.499 54.969 C 102.499 51.47 101.06 50.143 99.602 48.798 C 98.103 47.416 96.584 46.015 96.584 42.218 C 96.584 34.725 99.213 28.543 99.213 28.543 C 86.874 39.912 75.523 51.81 73.828 62.064 Z" fill="black"/>
  <path d="M 36.896 128.584 C 38.079 131.87 44.206 131.101 49.252 133.316 C 54.642 135.683 58.461 139.626 61.222 138.575 C 63.983 137.523 61.28 132.765 64.377 128.584 C 67.055 124.968 72.396 124.772 73.447 121.222 C 74.499 117.673 67.393 100.847 61.872 100.847 C 56.351 100.847 32.71 116.958 36.896 128.584 Z" fill="black"/>
  <path d="M 16.006 149.617 C 24.539 139.758 47.019 139.1 47.019 143.438 C 47.019 145.636 38.209 148.039 32.69 157.11 C 27.706 165.301 32.69 178.406 16 178.406 C 16 178.406 16.002 149.617 16.006 149.617 Z" fill="black"/>
  <path d="M 16.001 193.523 L 16.001 235.726 L 42.286 235.726 C 42.286 235.726 57.936 228.227 65.291 215.87 C 68.914 209.785 67.023 202.917 69.103 197.73 C 71.184 192.542 76.727 189.185 76.727 185.504 C 76.727 181.823 69.811 180.377 65.291 173.147 C 60.562 165.582 60.294 154.743 52.67 154.743 C 37.553 154.743 41.696 172.624 34.005 182.218 C 25.543 192.773 16.164 193.303 16.001 193.523 Z" fill="black"/>
  <path d="M 72.257 223.363 C 68.445 223.363 61.872 235.726 61.872 235.726 L 85.534 235.726 C 85.534 235.726 76.069 223.363 72.257 223.363 Z" fill="black"/>
  <path d="M 95.919 235.726 L 122.21 235.726 C 122.21 235.726 126.687 223.363 126.687 208.246 C 126.687 193.329 124.376 191.723 121.41 189.663 L 121.29 189.579 C 118.267 187.476 116.032 186.95 104.858 186.95 C 93.684 186.95 82.116 189.316 82.116 208.246 C 82.116 227.175 95.919 235.726 95.919 235.726 Z" fill="black"/>
  <path d="M 134.698 224.678 C 134.698 232.697 140.088 235.726 140.088 235.726 L 178.736 235.726 C 178.736 235.726 211.206 202.33 211.206 200.096 C 211.206 197.861 192.539 175.514 188.595 175.514 C 184.651 175.514 170.98 198.255 161.252 198.255 C 151.525 198.255 147.976 189.663 142.191 189.663 C 136.407 189.663 139.431 200.096 139.431 205.88 C 139.431 211.664 134.698 216.659 134.698 224.678 Z" fill="black"/>
  <path d="M 240 235.726 L 240 170.518 C 240 170.518 237.891 166.049 234.474 166.049 C 231.055 166.049 217.252 183.664 217.252 187.082 C 217.252 190.499 225.534 198.255 225.534 202.593 C 225.534 206.931 193.459 235.726 193.459 235.726 L 240 235.726 Z" fill="black"/>
  <path d="M 206.999 129.767 C 213.966 129.767 227.637 142.906 227.637 146.593 C 227.637 149.354 208.708 175.514 205.553 175.514 C 200.952 175.514 196.877 162.762 189.647 162.762 C 182.417 162.762 167.168 187.082 161.081 187.082 C 158.459 187.082 157.435 183.024 154.548 181.692 C 150.734 179.931 146.267 182.875 144.952 179.851 C 143.637 176.828 161.252 161.711 161.252 155.269 C 161.252 148.828 156.652 149.88 156.652 142.781 C 156.652 135.683 185.966 108.208 190.435 110.049 C 194.905 111.889 192.802 140.152 197.14 140.152 C 201.478 140.152 200.032 129.767 206.999 129.767 Z" fill="black"/>
  <path d="M 104.201 137.786 C 107.75 135.183 120.896 150.8 127.6 150.8 C 131.018 150.8 130.886 147.776 136.67 147.776 C 142.454 147.776 145.353 155.269 145.353 158.424 C 145.353 161.579 133.377 176.697 127.6 176.697 C 113.534 176.697 100.652 140.389 104.201 137.786 Z" fill="black"/>
  <path d="M 107.75 175.514 C 107.75 178.406 100.52 178.406 93.553 178.406 C 86.586 178.406 69.365 154.349 69.103 149.617 C 68.842 144.884 80.815 130.95 84.745 130.95 C 93.027 130.95 89.478 150.274 94.473 160.791 C 99.794 171.992 107.75 172.622 107.75 175.514 Z" fill="black"/>
</svg>
