<?xml version="1.0" encoding="utf-8"?>
<svg width="256" height="256" viewBox="0 0 256 256" fill="none" xmlns="http://www.w3.org/2000/svg">
  <path fill-rule="evenodd" clip-rule="evenodd" d="M 128.043 16 C 113.911 16 107.647 21.197 99.03 28.345 C 92.169 34.037 83.816 40.966 68.814 47.495 C 68.814 124.976 128.043 150.124 128.043 150.124 C 128.043 150.124 187.272 124.976 187.272 47.495 C 172.271 40.966 163.918 34.037 157.058 28.346 C 148.44 21.197 142.175 16 128.043 16 Z M 96.079 67.35 C 96.079 51.674 104.07 48.6 104.07 48.6 C 104.07 48.6 112.061 51.674 112.061 67.35 L 112.061 100.854 L 96.079 100.854 L 96.079 67.35 Z M 96.079 110.073 L 96.079 103.926 L 112.061 103.926 L 112.061 110.073 L 96.079 110.073 Z M 128.036 48.6 C 128.036 48.6 120.045 51.674 120.045 67.35 L 120.045 100.854 L 136.027 100.854 L 136.027 67.35 C 136.027 51.674 128.036 48.6 128.036 48.6 Z M 136.027 103.926 L 136.027 110.073 L 120.045 110.073 L 120.045 103.926 L 136.027 103.926 Z M 152.017 48.6 C 152.017 48.6 144.026 51.674 144.026 67.35 L 144.026 100.854 L 160.008 100.854 L 160.008 67.35 C 160.008 51.674 152.017 48.6 152.017 48.6 Z M 144.026 110.073 L 144.026 103.926 L 160.008 103.926 L 160.008 110.073 L 144.026 110.073 Z" fill="black"/>
  <path d="M 45.458 17.449 C 44.095 16.24 42.011 16.364 40.802 17.726 C 39.593 19.088 39.716 21.173 41.078 22.382 L 58.039 37.44 C 59.402 38.649 61.487 38.525 62.696 37.163 C 63.906 35.801 63.781 33.716 62.419 32.507 L 45.458 17.449 Z" fill="black"/>
  <path d="M 23.33 51.861 C 23.863 50.119 25.707 49.139 27.449 49.672 L 54.799 58.044 C 56.541 58.577 57.521 60.421 56.987 62.163 C 56.455 63.905 54.61 64.884 52.869 64.351 L 25.519 55.98 C 23.777 55.446 22.797 53.602 23.33 51.861 Z" fill="black"/>
  <path d="M 16.574 89.967 C 16.497 88.147 17.91 86.609 19.73 86.532 L 58.54 84.879 C 60.36 84.801 61.898 86.214 61.975 88.034 C 62.053 89.854 60.641 91.392 58.82 91.469 L 20.01 93.122 C 18.19 93.199 16.653 91.787 16.574 89.967 Z" fill="black"/>
  <path d="M 18.376 127.641 C 16.726 128.412 16.013 130.375 16.785 132.026 C 17.557 133.676 19.519 134.388 21.169 133.616 L 68.102 111.671 C 69.752 110.899 70.464 108.936 69.692 107.286 C 68.921 105.636 66.958 104.924 65.308 105.695 L 18.376 127.641 Z" fill="black"/>
  <path d="M 27.027 175.065 C 25.724 176.338 25.7 178.426 26.973 179.729 C 28.246 181.032 30.334 181.056 31.637 179.783 L 80.684 131.862 C 81.986 130.589 82.011 128.501 80.738 127.198 C 79.464 125.895 77.376 125.871 76.074 127.144 L 27.027 175.065 Z" fill="black"/>
  <path d="M 52.807 229.988 C 52.017 231.63 52.708 233.6 54.349 234.39 C 55.991 235.179 57.962 234.488 58.751 232.846 L 98.632 149.901 C 99.421 148.259 98.729 146.289 97.088 145.5 C 95.446 144.71 93.476 145.401 92.686 147.043 L 52.807 229.988 Z" fill="black"/>
  <path d="M 215.199 17.726 C 213.989 16.364 211.906 16.24 210.543 17.449 L 193.581 32.507 C 192.22 33.716 192.095 35.801 193.305 37.163 C 194.514 38.525 196.599 38.649 197.96 37.44 L 214.922 22.382 C 216.285 21.173 216.408 19.088 215.199 17.726 Z" fill="black"/>
  <path d="M 228.552 49.672 C 230.293 49.139 232.138 50.119 232.67 51.861 C 233.204 53.602 232.224 55.446 230.482 55.98 L 203.132 64.351 C 201.391 64.884 199.546 63.905 199.012 62.163 C 198.48 60.421 199.459 58.577 201.202 58.044 L 228.552 49.672 Z" fill="black"/>
  <path d="M 236.271 86.532 C 238.091 86.609 239.504 88.147 239.425 89.967 C 239.348 91.787 237.811 93.199 235.99 93.122 L 197.18 91.469 C 195.36 91.392 193.948 89.854 194.026 88.034 C 194.103 86.214 195.641 84.801 197.461 84.879 L 236.271 86.532 Z" fill="black"/>
  <path d="M 239.216 132.026 C 239.987 130.375 239.275 128.412 237.625 127.641 L 190.692 105.695 C 189.043 104.924 187.079 105.636 186.307 107.286 C 185.536 108.936 186.248 110.899 187.898 111.671 L 234.831 133.616 C 236.482 134.388 238.444 133.676 239.216 132.026 Z" fill="black"/>
  <path d="M 229.028 179.729 C 230.301 178.426 230.276 176.338 228.974 175.065 L 179.927 127.144 C 178.623 125.871 176.535 125.895 175.263 127.198 C 173.99 128.501 174.014 130.589 175.317 131.862 L 224.364 179.783 C 225.667 181.056 227.754 181.032 229.028 179.729 Z" fill="black"/>
  <path d="M 201.65 234.39 C 203.292 233.6 203.983 231.63 203.194 229.988 L 163.314 147.043 C 162.525 145.401 160.554 144.71 158.913 145.5 C 157.27 146.289 156.58 148.259 157.369 149.901 L 197.25 232.846 C 198.039 234.488 200.009 235.179 201.65 234.39 Z" fill="black"/>
  <path d="M 135.602 165.378 C 135.602 169.553 132.218 172.937 128.043 172.937 C 123.869 172.937 120.485 169.553 120.485 165.378 C 120.485 161.204 123.869 157.82 128.043 157.82 C 132.218 157.82 135.602 161.204 135.602 165.378 Z" fill="black"/>
  <path d="M 113.889 177.884 C 113.889 177.277 114.38 176.784 114.988 176.784 L 140.824 176.784 C 141.431 176.784 141.923 177.277 141.923 177.884 L 141.923 206.193 C 141.923 206.8 141.431 207.292 140.824 207.292 L 134.777 207.292 L 134.777 238.9 C 134.777 239.123 134.71 239.332 134.596 239.505 C 134.398 239.803 134.061 240 133.678 240 L 122.134 240 C 121.526 240 121.035 239.507 121.035 238.9 L 121.035 207.292 L 114.988 207.292 C 114.38 207.292 113.889 206.8 113.889 206.193 L 113.889 177.884 Z" fill="black"/>
</svg>
