<?xml version="1.0" encoding="utf-8"?>
<svg width="256" height="256" viewBox="0 0 256 256" fill="none" xmlns="http://www.w3.org/2000/svg">
  <path fill-rule="evenodd" clip-rule="evenodd" d="M 61.546 150.097 L 16.175 128.251 C 16.175 128.251 27.938 215.129 83.224 215.129 C 138.509 215.129 171.277 143.879 171.277 118.673 C 171.277 104.407 176.648 94.37 181.524 85.259 C 184.516 79.668 187.322 74.425 188.585 68.767 C 193.631 46.171 188.585 21.041 188.585 21.041 C 188.585 21.041 167.076 15.999 131.787 16 C 68.772 16.003 18.36 106.072 18.36 106.072 C 18.36 106.072 46.871 135.309 61.546 150.097 Z M 163.075 48.539 C 162.543 47.961 161.724 47.745 160.977 47.984 L 81.428 73.446 C 79.862 73.947 79.522 76.01 80.843 76.988 L 119.955 105.922 C 121.229 106.864 120.968 108.839 119.494 109.419 L 73.902 127.362 C 72.488 127.919 72.174 129.778 73.326 130.768 L 91.31 146.224 C 91.911 146.74 92.759 146.857 93.478 146.521 L 157.74 116.522 C 159.097 115.888 159.315 114.049 158.143 113.117 L 121.732 84.133 C 120.451 83.114 120.854 81.074 122.426 80.619 L 174.702 65.47 C 176.141 65.054 176.639 63.27 175.624 62.168 L 163.075 48.539 Z" fill="black"/>
  <path d="M 195.615 26.587 C 195.615 26.587 231.591 49.104 231.591 65.908 C 231.591 107.919 179.483 135.645 179.483 135.645 L 179.483 107.414 C 190.925 92.627 203.345 62.379 195.615 26.587 Z" fill="black"/>
  <path d="M 223.861 111.615 C 225.634 115.303 225.811 118.696 226.014 122.573 C 226.207 126.266 226.423 130.399 228.062 135.645 C 231.402 130.59 233.431 125.509 235.194 121.095 C 236.713 117.291 238.034 113.984 239.825 111.615 C 237.531 105.173 237.492 100.86 237.444 95.542 C 237.413 92.239 237.38 88.549 236.801 83.721 C 235.623 86.434 234.858 88.858 234.091 91.289 L 234.09 91.29 L 234.09 91.291 C 232.339 96.839 230.575 102.43 223.861 111.615 Z" fill="black"/>
  <path d="M 163.698 180.483 C 165.147 186.666 167.532 196.843 166.618 205.522 C 166.554 206.132 167.256 206.542 167.733 206.157 C 172.097 202.633 185.706 191.377 187.396 186.73 C 188.084 184.838 188.655 182.047 189.302 178.882 C 190.551 172.772 192.084 165.272 195.294 160.179 C 198.161 155.632 205.565 152.48 211.377 150.006 C 215.444 148.274 218.732 146.875 219.14 145.561 C 220.133 142.369 214.771 126.067 212.419 126.235 C 212.088 126.259 211.049 127.553 209.416 129.585 L 209.416 129.586 C 206.855 132.774 202.838 137.775 197.815 142.535 L 187.578 148.821 C 184.497 150.304 181.416 151.844 178.658 154.298 C 169.436 162.505 162.678 174.128 162.678 175.303 C 162.678 176.135 163.111 177.982 163.698 180.483 Z" fill="black"/>
  <path d="M 83.531 240 C 113.551 240 152.596 213.617 152.596 213.617 L 152.596 185.891 C 152.596 185.891 122.532 225.883 84.891 225.883 C 47.25 225.883 24.396 185.385 24.396 185.385 C 21.875 196.476 39.912 233.402 48.603 234.454 C 52.555 234.932 57.52 235.909 62.614 236.912 L 62.618 236.913 L 62.619 236.913 C 70.309 238.427 78.293 240 83.531 240 Z" fill="black"/>
</svg>
