<?xml version="1.0" encoding="utf-8"?>
<svg width="256" height="256" viewBox="0 0 256 256" fill="none" xmlns="http://www.w3.org/2000/svg">
  <path fill-rule="evenodd" clip-rule="evenodd" d="M 90.789 74.093 C 101.316 64.877 112.783 54.837 128.236 54.837 C 143.877 54.837 155.795 65.124 166.578 74.431 C 175.484 82.118 183.616 89.136 192.43 89.136 C 192.43 138.383 174.012 172.549 128.236 200.443 C 84.194 176.954 64.174 128.641 64.174 89.136 C 73.607 89.136 81.86 81.911 90.789 74.093 Z M 119.827 131.043 L 119.827 174.284 L 162.802 113.159 L 137.444 113.159 L 137.444 69.251 L 93.402 131.043 L 119.827 131.043 Z" fill="black"/>
  <path fill-rule="evenodd" clip-rule="evenodd" d="M 52.286 81.189 C 49.275 137.272 76.712 184.767 128.08 213.815 C 155.21 197.1 174.002 179.919 186.112 159.009 C 198.118 138.28 203.733 113.58 204.028 81.424 C 199.1 80.263 194.154 77.493 189.289 74.193 C 185.291 71.482 181.067 68.206 176.748 64.857 C 174.765 63.319 172.761 61.766 170.75 60.244 C 157.661 50.338 143.698 41.358 128.153 41.358 C 112.588 41.358 101.277 48.872 89.629 57.963 C 88.246 59.042 86.856 60.147 85.451 61.263 C 75.763 68.961 65.407 77.19 52.286 81.189 Z M 85.688 52.912 C 97.468 43.719 110.272 34.951 128.153 34.951 C 146.055 34.951 161.561 45.256 174.616 55.136 C 176.778 56.772 178.861 58.387 180.882 59.955 C 185.106 63.231 189.057 66.295 192.885 68.892 C 198.557 72.739 203.366 75.122 207.56 75.539 L 210.446 75.826 L 210.446 78.727 C 210.446 112.913 204.738 139.632 191.656 162.22 C 178.58 184.796 158.325 202.923 129.818 220.262 L 128.23 221.228 L 126.604 220.329 C 71.501 189.881 41.935 138.838 46.031 78.51 L 46.188 76.209 L 48.418 75.627 C 61.217 72.288 71.079 64.472 81.416 56.281 C 82.828 55.161 84.249 54.035 85.688 52.912 Z" fill="black"/>
  <path fill-rule="evenodd" clip-rule="evenodd" d="M 34.952 69.535 C 29.248 134.268 56.648 200.583 127.964 232.947 C 163.56 215.831 187.867 193.898 202.8 166.787 C 217.566 139.98 223.333 107.809 221.423 69.632 C 214.406 68.934 207.782 65.894 201.407 61.891 C 195.519 58.194 189.573 53.491 183.556 48.733 C 182.157 47.626 180.753 46.516 179.346 45.415 C 164.187 33.556 148.134 22.406 128.005 22.406 C 107.8 22.406 89.655 33.64 73.561 45.473 C 70.723 47.559 67.923 49.684 65.19 51.758 C 60.334 55.443 55.688 58.97 51.411 61.839 C 45.832 65.581 40.26 68.66 34.952 69.535 Z M 69.766 40.311 C 85.892 28.455 105.532 16 128.005 16 C 150.553 16 168.172 28.54 183.293 40.37 C 184.773 41.527 186.224 42.675 187.654 43.805 C 193.65 48.545 199.25 52.973 204.814 56.466 C 211.673 60.773 218.061 63.378 224.464 63.378 L 227.482 63.378 L 227.661 66.391 C 230.056 106.627 224.298 141.037 208.412 169.878 C 192.511 198.746 166.637 221.719 129.376 239.372 L 128.048 240 L 126.704 239.404 C 50.443 205.511 21.871 134.46 28.829 66.256 L 29.122 63.378 L 32.015 63.378 C 36.056 63.378 41.216 60.963 47.842 56.518 C 51.983 53.741 56.351 50.424 61.081 46.833 C 63.844 44.735 66.73 42.543 69.766 40.311 Z" fill="black"/>
</svg>
