<?xml version="1.0" encoding="utf-8"?>
<svg width="256" height="256" viewBox="0 0 256 256" fill="none" xmlns="http://www.w3.org/2000/svg">
  <path fill-rule="evenodd" clip-rule="evenodd" d="M 107.084 16.135 C 85.351 16.135 75.718 24.124 62.466 35.113 C 51.915 43.863 39.07 54.515 16 64.552 C 16 183.662 107.084 222.322 107.084 222.322 C 107.084 222.322 118.932 217.294 134.081 205.275 C 133.296 203.564 132.857 201.659 132.857 199.652 L 132.857 182.38 C 132.857 174.928 138.899 168.886 146.351 168.886 L 167.958 168.886 C 168.616 168.886 169.021 168.212 169.021 167.309 L 169.021 146.216 C 169.021 138.764 175.063 132.723 182.515 132.723 L 186.591 132.723 C 193.635 113.694 198.168 91.125 198.168 64.552 C 175.098 54.515 162.253 43.863 151.703 35.114 C 138.45 24.124 128.817 16.135 107.084 16.135 Z M 57.928 95.074 C 57.928 70.975 70.216 66.25 70.216 66.25 C 70.216 66.25 82.505 70.975 82.505 95.074 L 82.505 146.58 L 57.928 146.58 L 57.928 95.074 Z M 57.928 160.752 L 57.928 151.302 L 82.505 151.302 L 82.505 160.752 L 57.928 160.752 Z M 107.072 66.25 C 107.072 66.25 94.784 70.975 94.784 95.074 L 94.784 146.58 L 119.361 146.58 L 119.361 95.074 C 119.361 70.975 107.072 66.25 107.072 66.25 Z M 119.361 151.302 L 119.361 160.752 L 94.784 160.752 L 94.784 151.302 L 119.361 151.302 Z M 143.952 66.25 C 143.952 66.25 131.663 70.975 131.663 95.074 L 131.663 146.58 L 156.24 146.58 L 156.24 95.074 C 156.24 70.975 143.952 66.25 143.952 66.25 Z M 131.663 160.752 L 131.663 151.302 L 156.24 151.302 L 156.24 160.752 L 131.663 160.752 Z" fill="black"/>
  <path d="M 178.197 146.216 C 178.197 143.832 180.13 141.898 182.515 141.898 L 199.787 141.898 C 202.172 141.898 204.105 143.832 204.105 146.216 L 204.105 178.062 L 235.681 178.062 C 238.066 178.062 240 179.995 240 182.38 L 240 199.652 C 240 202.037 238.066 203.97 235.681 203.97 L 204.105 203.97 L 204.105 235.546 C 204.105 237.931 202.172 239.864 199.787 239.864 L 182.515 239.864 C 180.13 239.864 178.197 237.931 178.197 235.546 L 178.197 203.97 L 146.351 203.97 C 143.966 203.97 142.033 202.037 142.033 199.652 L 142.033 182.38 C 142.033 179.995 143.966 178.062 146.351 178.062 L 178.197 178.062 L 178.197 146.216 Z" fill="black"/>
</svg>
