<?xml version="1.0" encoding="utf-8"?>
<svg width="256" height="256" viewBox="0 0 256 256" fill="none" xmlns="http://www.w3.org/2000/svg">
  <path d="M 76.496 26.084 L 89.567 39.156 L 99.223 29.5 L 86.152 16.428 L 77.228 17.16 L 76.496 26.084 Z" fill="black"/>
  <path d="M 40.367 39.573 L 40.367 77.081 L 21.887 58.875 L 20.929 20.272 L 58.984 20.272 L 76.506 39.573 L 40.367 39.573 Z" fill="black"/>
  <path d="M 29.293 98.004 L 16.222 84.932 L 16.954 76.008 L 25.878 75.276 L 38.949 88.348 L 29.293 98.004 Z" fill="black"/>
  <path d="M 215.854 39.584 L 215.854 77.092 L 234.335 58.886 L 235.293 20.282 L 197.237 20.282 L 179.715 39.584 L 215.854 39.584 Z" fill="black"/>
  <path d="M 240 84.943 L 226.928 98.014 L 217.272 88.358 L 230.344 75.287 L 239.269 76.019 L 240 84.943 Z" fill="black"/>
  <path d="M 166.655 39.166 L 179.726 26.095 L 178.994 17.171 L 170.07 16.439 L 156.999 29.51 L 166.655 39.166 Z" fill="black"/>
  <path d="M 121.743 143.23 C 123.404 140.74 121.881 128.977 116.762 123.857 C 111.642 118.736 97.25 118.32 93.237 123.856 C 89.225 129.392 89.638 138.387 94.897 142.262 C 100.156 146.136 120.082 145.721 121.743 143.23 Z" fill="black"/>
  <path d="M 122.434 168.417 C 118.421 168.417 123.675 147.935 127.967 147.935 C 132.259 147.935 137.933 168.417 133.504 168.417 C 130.974 168.417 130.341 167.468 129.798 166.655 C 129.392 166.045 129.035 165.511 127.967 165.511 C 126.868 165.511 126.443 166.075 125.967 166.707 C 125.363 167.508 124.678 168.417 122.434 168.417 Z" fill="black"/>
  <path d="M 134.84 143.353 C 133.179 140.862 134.702 129.099 139.821 123.979 C 144.941 118.859 159.333 118.443 163.345 123.978 C 167.358 129.514 166.945 138.509 161.686 142.384 C 156.427 146.259 136.501 145.843 134.84 143.353 Z" fill="black"/>
  <path fill-rule="evenodd" clip-rule="evenodd" d="M 209.492 107.87 L 148.579 47.374 C 137.555 36.426 119.607 36.426 108.583 47.374 L 47.814 107.87 C 36.79 118.818 36.79 136.644 47.814 147.592 L 108.725 208.088 C 119.749 219.036 137.697 219.036 148.721 208.088 L 209.633 147.592 C 220.516 136.644 220.516 118.678 209.492 107.87 Z M 105.137 173.814 C 106.798 175.475 115.52 178.658 128.25 178.658 C 140.981 178.658 148.869 176.024 151.079 173.814 C 152.083 172.81 153.316 170.091 154.662 167.124 L 154.664 167.121 C 156.28 163.558 158.058 159.638 159.796 157.899 C 160.762 156.934 162.514 156.16 164.487 155.288 L 164.49 155.287 C 169.03 153.281 174.741 150.758 174.741 144.199 C 174.741 134.789 171.701 131.467 171.701 131.467 L 171.701 104.067 C 171.701 104.067 161.319 75.282 127.42 75.282 C 93.522 75.282 84.8 104.067 84.8 104.067 L 84.8 131.467 C 84.8 131.467 81.889 135.204 81.894 144.199 C 81.897 149.935 86.51 152.069 90.784 154.047 L 90.786 154.048 C 93.215 155.172 95.535 156.245 96.839 157.899 C 98.877 160.487 100.737 164.719 102.268 168.203 L 102.27 168.208 C 103.44 170.87 104.418 173.095 105.137 173.814 Z" fill="black"/>
  <path d="M 226.707 157.984 L 239.777 171.055 L 239.045 179.979 L 230.122 180.711 L 217.051 167.64 L 226.707 157.984 Z" fill="black"/>
  <path d="M 16 171.066 L 29.072 157.994 L 38.728 167.651 L 25.656 180.722 L 16.733 179.99 L 16 171.066 Z" fill="black"/>
  <path d="M 40.146 178.917 L 40.146 216.425 L 76.285 216.425 L 58.763 235.726 L 20.707 235.726 L 21.666 197.123 L 40.146 178.917 Z" fill="black"/>
  <path d="M 89.346 216.842 L 76.274 229.914 L 77.006 238.838 L 85.93 239.571 L 99.002 226.498 L 89.346 216.842 Z" fill="black"/>
  <path d="M 215.633 178.906 L 215.633 216.414 L 179.494 216.414 L 197.016 235.716 L 235.071 235.716 L 234.113 197.112 L 215.633 178.906 Z" fill="black"/>
  <path d="M 179.505 229.903 L 166.433 216.832 L 156.777 226.488 L 169.849 239.56 L 178.772 238.827 L 179.505 229.903 Z" fill="black"/>
</svg>
