<?xml version="1.0" encoding="utf-8"?>
<svg width="256" height="256" viewBox="0 0 256 256" fill="none" xmlns="http://www.w3.org/2000/svg">
  <path d="M 62.198 28.918 C 62.198 24.218 66.008 20.408 70.708 20.408 C 75.408 20.408 79.218 24.218 79.218 28.918 L 79.218 45.027 L 62.198 45.027 L 62.198 28.918 Z" fill="black"/>
  <path d="M 119.945 20.408 C 115.245 20.408 111.435 24.218 111.435 28.918 L 111.435 45.027 L 128.456 45.027 L 128.456 28.918 C 128.456 24.218 124.646 20.408 119.945 20.408 Z" fill="black"/>
  <path d="M 160.673 28.918 C 160.673 24.218 164.482 20.408 169.183 20.408 C 173.883 20.408 177.693 24.218 177.693 28.918 L 177.693 45.027 L 160.673 45.027 L 160.673 28.918 Z" fill="black"/>
  <path d="M 92.895 89.401 C 91.217 89.401 89.856 90.762 89.856 92.44 L 89.856 163.561 C 89.856 165.239 91.217 166.6 92.895 166.6 L 118.73 166.6 C 120.409 166.6 121.769 165.239 121.769 163.561 L 121.769 92.44 C 121.769 90.762 120.409 89.401 118.73 89.401 L 92.895 89.401 Z" fill="black"/>
  <path d="M 160.673 102.47 C 158.994 102.47 157.633 103.831 157.633 105.509 L 157.633 121.618 L 141.525 121.618 C 139.846 121.618 138.485 122.979 138.485 124.657 L 138.485 131.344 C 138.485 133.022 139.846 134.383 141.525 134.383 L 157.633 134.383 L 157.633 150.492 C 157.633 152.17 158.994 153.531 160.673 153.531 L 167.359 153.531 C 169.038 153.531 170.398 152.17 170.398 150.492 L 170.398 134.383 L 186.507 134.383 C 188.186 134.383 189.546 133.022 189.546 131.344 L 189.546 124.657 C 189.546 122.979 188.186 121.618 186.507 121.618 L 170.398 121.618 L 170.398 105.509 C 170.398 103.831 169.038 102.47 167.359 102.47 L 160.673 102.47 Z" fill="black"/>
  <path d="M 48.217 89.401 C 46.538 89.401 45.178 90.762 45.178 92.44 L 45.178 163.561 C 45.178 165.239 46.538 166.6 48.217 166.6 L 74.051 166.6 C 75.73 166.6 77.091 165.239 77.091 163.561 L 77.091 92.44 C 77.091 90.762 75.73 89.401 74.051 89.401 L 48.217 89.401 Z" fill="black"/>
  <path fill-rule="evenodd" clip-rule="evenodd" d="M 33.932 58.096 C 24.028 58.096 16 66.124 16 76.028 L 16 179.973 C 16 189.877 24.028 197.905 33.932 197.905 L 205.959 197.905 C 215.863 197.905 223.891 189.877 223.891 179.973 L 223.891 153.531 L 232.402 153.531 C 236.598 153.531 240 150.129 240 145.933 L 240 110.069 C 240 105.872 236.598 102.47 232.402 102.47 L 223.891 102.47 L 223.891 76.028 C 223.891 66.124 215.863 58.096 205.959 58.096 L 33.932 58.096 Z M 35.148 77.244 L 35.148 178.758 L 204.743 178.758 L 204.743 77.244 L 35.148 77.244 Z" fill="black"/>
  <path d="M 70.708 235.592 C 66.008 235.592 62.198 231.783 62.198 227.083 L 62.198 210.975 L 79.218 210.975 L 79.218 227.083 C 79.218 231.783 75.408 235.592 70.708 235.592 Z" fill="black"/>
  <path d="M 111.435 227.083 C 111.435 231.783 115.245 235.592 119.945 235.592 C 124.646 235.592 128.456 231.783 128.456 227.083 L 128.456 210.975 L 111.435 210.975 L 111.435 227.083 Z" fill="black"/>
  <path d="M 169.183 235.592 C 164.482 235.592 160.673 231.783 160.673 227.083 L 160.673 210.975 L 177.693 210.975 L 177.693 227.083 C 177.693 231.783 173.883 235.592 169.183 235.592 Z" fill="black"/>
</svg>
