<?xml version="1.0" encoding="utf-8"?>
<svg width="256" height="256" viewBox="0 0 256 256" fill="none" xmlns="http://www.w3.org/2000/svg">
  <path d="M 195.192 160.988 L 199.326 177.347 L 214.693 170.38 L 204.48 183.811 L 219.509 191.481 L 202.641 191.871 L 206.014 208.403 L 195.192 195.458 L 184.37 208.403 L 187.743 191.871 L 170.875 191.481 L 185.904 183.811 L 175.691 170.38 L 191.058 177.347 L 195.192 160.988 Z" fill="black"/>
  <path d="M 55.836 90.827 L 59.969 107.186 L 75.336 100.219 L 65.124 113.65 L 80.153 121.32 L 63.284 121.71 L 66.658 138.242 L 55.836 125.297 L 45.014 138.242 L 48.387 121.71 L 31.519 121.32 L 46.547 113.65 L 36.335 100.219 L 51.702 107.186 L 55.836 90.827 Z" fill="black"/>
  <path fill-rule="evenodd" clip-rule="evenodd" d="M 163.967 192.918 C 164.107 195.581 162.063 197.853 159.4 197.993 C 119.602 200.091 92.929 213.914 59.882 239.017 C 57.759 240.628 54.731 240.216 53.118 238.093 C 51.505 235.969 51.919 232.941 54.042 231.328 C 87.938 205.58 116.445 190.589 158.892 188.352 C 161.555 188.211 163.827 190.256 163.967 192.918 Z" fill="black"/>
  <path fill-rule="evenodd" clip-rule="evenodd" d="M 140.946 88.027 C 141.16 90.685 139.179 93.012 136.521 93.226 C 136.211 93.251 135.904 93.276 135.599 93.3 C 114.377 95.005 104.408 95.806 86.616 103.025 C 84.146 104.027 81.33 102.837 80.328 100.367 C 79.326 97.896 80.516 95.081 82.986 94.078 C 102.159 86.299 113.397 85.397 134.542 83.699 C 134.94 83.667 135.342 83.634 135.748 83.602 C 138.405 83.388 140.733 85.369 140.946 88.027 Z M 171.379 166.135 C 169.781 168.269 166.755 168.704 164.621 167.106 C 136.061 145.719 119.979 137.018 88.547 128.642 C 85.971 127.955 84.439 125.311 85.126 122.734 C 85.812 120.158 88.457 118.626 91.034 119.312 C 123.915 128.074 141.098 137.428 170.409 159.377 C 172.543 160.975 172.977 164.001 171.379 166.135 Z" fill="black"/>
  <path fill-rule="evenodd" clip-rule="evenodd" d="M 141.578 208.734 C 141.782 210.051 140.88 211.284 139.562 211.489 C 124.226 213.866 110.914 218.873 94.87 228.245 C 93.719 228.918 92.24 228.53 91.568 227.378 C 90.895 226.227 91.283 224.749 92.435 224.077 C 108.896 214.46 122.779 209.205 138.823 206.718 C 140.14 206.514 141.373 207.416 141.578 208.734 Z" fill="black"/>
  <path fill-rule="evenodd" clip-rule="evenodd" d="M 87.33 197.988 C 87.87 199.207 87.32 200.632 86.101 201.172 C 75.834 205.721 71.044 209.009 61.351 216.633 C 60.303 217.457 58.786 217.276 57.962 216.228 C 57.137 215.18 57.319 213.662 58.366 212.838 C 68.243 205.07 73.384 201.526 84.145 196.758 C 85.364 196.219 86.79 196.769 87.33 197.988 Z" fill="black"/>
  <path fill-rule="evenodd" clip-rule="evenodd" d="M 137.707 159.447 C 136.973 160.559 135.475 160.866 134.363 160.131 C 124.991 153.945 119.638 151.688 107.987 147.645 C 106.728 147.208 106.061 145.832 106.498 144.573 C 106.935 143.314 108.31 142.647 109.57 143.084 C 121.441 147.204 127.199 149.618 137.022 156.102 C 138.135 156.837 138.441 158.334 137.707 159.447 Z" fill="black"/>
  <path fill-rule="evenodd" clip-rule="evenodd" d="M 129.214 76.726 C 129.181 78.059 128.074 79.112 126.741 79.08 C 118.503 78.876 113.922 79.524 105.485 80.977 C 104.172 81.203 102.923 80.321 102.697 79.007 C 102.471 77.693 103.353 76.445 104.667 76.219 C 113.23 74.745 118.166 74.038 126.86 74.253 C 128.193 74.286 129.247 75.394 129.214 76.726 Z" fill="black"/>
  <path d="M 160.271 16.042 C 160.353 16.089 160.41 16.169 160.428 16.261 C 163.956 34.698 165.801 46.77 167.653 67.236 C 175.439 69.106 181.966 69.968 188.609 69.754 C 195.318 69.539 202.159 68.227 210.549 65.737 C 210.559 65.735 210.569 65.732 210.579 65.73 L 221.361 63.638 C 221.411 63.628 221.464 63.631 221.513 63.645 L 221.984 63.83 C 222.258 63.956 222.623 64.155 222.99 64.446 C 223.728 65.032 224.48 66.002 224.48 67.494 C 224.48 70.367 222.817 72.862 219.723 76.085 C 216.003 79.96 212.73 82.724 208.881 85.02 C 205.036 87.315 200.629 89.134 194.65 91.133 C 194.617 91.144 194.583 91.149 194.548 91.149 L 172.503 91.149 L 172.503 91.189 C 172.505 93.054 172.509 95.416 171.947 97.354 C 171.646 98.392 171.175 99.338 170.43 100.025 C 169.678 100.72 168.672 101.126 167.353 101.126 L 152.549 101.126 C 150.813 101.126 149.517 100.752 148.551 100.057 C 147.583 99.362 146.982 98.373 146.589 97.213 C 146.197 96.057 146.005 94.712 145.867 93.284 C 145.808 92.677 145.759 92.061 145.71 91.437 L 145.709 91.433 C 145.641 90.566 145.571 89.68 145.47 88.771 C 144.53 80.282 140.344 69.327 134.988 59.668 C 132.312 54.842 129.348 50.349 126.362 46.658 C 123.371 42.963 120.372 40.091 117.627 38.485 C 117.534 38.43 117.474 38.332 117.469 38.224 C 117.463 38.116 117.512 38.012 117.599 37.948 C 133.346 26.36 143.053 22.16 160.002 16.019 C 160.091 15.987 160.189 15.995 160.271 16.042 Z" fill="black"/>
</svg>
