<?xml version="1.0" encoding="utf-8"?>
<svg width="256" height="256" viewBox="0 0 256 256" fill="none" xmlns="http://www.w3.org/2000/svg">
  <path d="M 137.705 73.99 C 148.515 63.491 152.927 54.989 151.01 30.292 C 144 26.697 128.872 25.592 110.965 24.944 C 110.965 24.944 137.705 32.64 137.705 36.423 C 137.705 40.206 115.531 45.032 101.573 45.032 C 87.616 45.032 65.833 37.988 65.833 33.553 C 65.833 29.118 93.877 24.944 93.877 24.944 C 90.192 24.986 86.578 24.938 83.093 24.892 C 71.506 24.739 61.333 24.605 54.615 27.814 L 54.615 54.685 C 54.615 74.903 75.355 81.425 124.27 74.903 C 113.763 84.988 96.225 86.904 66.615 82.077 C 75.612 113.426 75.877 143.123 73.789 166.994 C 33.002 180.98 27.165 194.227 16.441 218.56 C 16.295 218.892 16.148 219.226 16 219.561 L 117.091 219.561 C 117.091 219.561 101.052 208.735 101.052 189.299 C 101.052 169.863 134.314 139.21 134.314 139.21 L 137.705 73.99 Z" fill="black"/>
  <path d="M 226.405 65.381 C 214.274 59.772 197.578 82.077 197.578 82.077 C 197.578 82.077 209.969 73.99 214.665 73.99 C 219.361 73.99 218.187 80.512 217.274 84.295 C 216.361 88.077 192.621 117.948 185.838 123.296 C 182.368 126.032 171.389 131.294 160.095 136.706 L 160.095 136.707 C 149.31 141.875 138.237 147.182 133.14 150.558 C 122.705 157.472 108.487 177.038 108.487 189.299 C 108.487 201.561 118.27 217.214 131.836 217.214 C 145.401 217.214 151.01 206.387 151.923 197.126 C 152.837 187.864 145.401 179.516 140.314 179.908 C 135.227 180.299 131.966 185.647 133.14 191.386 C 133.703 194.137 135.943 195.57 137.851 196.789 C 139.924 198.115 141.605 199.189 140.314 201.43 C 137.836 205.735 130.401 201.43 128.314 197.126 C 126.227 192.821 124.27 182.125 130.401 173.255 C 134.334 167.564 157.112 154.196 176.656 142.726 C 187.575 136.318 197.485 130.502 202.534 126.949 C 216.622 117.035 252.884 81.164 235.275 59.119 C 239.024 81.425 226.667 97.86 212.187 108.296 C 212.187 108.296 238.535 70.99 226.405 65.381 Z" fill="black"/>
  <path d="M 200.578 158.776 C 196.476 167.592 185.277 174.512 175.423 180.6 C 164.281 187.484 154.859 193.305 159.359 199.604 C 167.837 211.474 202.534 179.908 200.578 158.776 Z" fill="black"/>
  <path d="M 168.144 155.654 C 178.761 150.552 192.43 143.982 205.404 132.166 C 196.665 162.037 156.489 191.908 149.967 175.342 C 146.341 166.132 154.85 162.042 168.144 155.654 Z" fill="black"/>
  <path d="M 21.959 225.692 C 21.048 225.692 20.309 226.431 20.309 227.343 L 20.309 229.52 C 20.309 230.432 21.048 231.171 21.959 231.171 L 133.185 231.171 C 134.096 231.171 134.835 230.432 134.835 229.52 L 134.835 227.343 C 134.835 226.431 134.096 225.692 133.185 225.692 L 21.959 225.692 Z" fill="black"/>
</svg>
