<?xml version="1.0" encoding="utf-8"?>
<svg width="256" height="256" viewBox="0 0 256 256" fill="none" xmlns="http://www.w3.org/2000/svg">
  <path fill-rule="evenodd" clip-rule="evenodd" d="M 16.41 239.325 L 16.41 200.798 C 16.41 200.798 26.208 182.383 32.344 174.286 C 38.48 166.189 50.629 155.087 50.629 151.3 C 50.629 147.513 29.604 143.203 30.387 139.154 C 31.17 135.105 76.488 155.478 78.968 152.736 C 81.449 149.994 14.713 118.127 16.019 113.295 C 17.325 108.463 69.567 141.374 73.224 141.635 C 76.881 141.896 78.968 140.46 78.968 135.889 C 78.968 131.318 51.675 108.071 46.32 104.283 C 40.966 100.496 16.019 86.13 16.019 86.13 L 16.019 51.782 C 16.019 51.782 33.521 81.015 43.578 89.786 C 49.089 94.594 63.255 109.038 77.012 119.694 C 88.355 128.481 99.891 134.191 101.957 134.191 C 106.528 134.191 108.354 130.534 107.18 124.918 C 106.006 119.302 76.319 58.02 51.673 16.911 L 77.532 16.911 C 77.532 16.911 90.332 63.014 94.12 62.752 C 97.907 62.49 86.152 16.911 90.07 16.911 C 93.988 16.911 101.956 72.286 103.262 77.51 C 104.568 82.734 112.926 118.127 117.628 118.127 C 122.33 118.127 139.307 62.229 142.31 56.222 C 145.314 50.214 160.595 17.564 162.945 16.911 C 165.296 16.257 168.301 16.911 168.301 19.523 C 168.301 22.135 144.4 68.499 140.351 79.077 C 136.303 89.656 125.463 121.262 128.728 123.09 C 131.993 124.918 143.354 101.28 144.661 100.888 C 145.968 100.496 166.21 103.239 170.259 98.276 C 174.308 93.313 168.953 84.693 167.255 81.297 C 165.557 77.902 162.815 76.073 162.945 71.633 C 163.076 67.192 168.171 65.625 171.044 66.67 C 173.917 67.715 173.916 77.51 179.924 77.51 C 185.931 77.51 190.241 74.898 190.241 69.805 C 190.241 64.711 184.233 62.491 184.625 59.879 C 185.017 57.267 190.894 59.487 191.678 57.006 C 192.461 54.524 190.502 50.606 195.204 50.606 C 199.906 50.606 198.73 58.703 207.35 58.703 C 215.97 58.703 232.164 68.237 232.164 84.693 C 232.164 101.149 215.447 112.511 205.652 112.772 C 195.857 113.034 192.461 108.593 185.931 108.593 C 179.401 108.593 173.657 110.813 173.657 114.47 C 173.657 118.127 185.539 121.262 193.767 130.404 C 201.995 139.546 205.262 164.752 213.099 175.853 C 220.935 186.954 240 207.72 240 207.72 L 240 237.105 C 240 237.105 220.804 210.07 216.233 205.369 C 211.662 200.667 190.766 178.987 186.717 175.853 C 182.668 172.719 166.993 148.819 164.251 151.3 C 161.51 153.781 167.647 160.965 165.949 162.401 C 164.251 163.837 158.246 160.572 144.141 160.572 C 130.036 160.572 123.765 160.703 115.537 168.931 C 107.309 177.159 104.699 184.864 103.783 191.003 C 102.867 197.142 103.783 239.325 103.783 239.325 L 63.429 239.325 C 63.429 239.325 61.863 203.801 54.156 203.671 C 46.45 203.541 39.398 239.325 39.398 239.325 L 16.41 239.325 Z M 198.34 71.633 C 198.34 68.238 198.862 65.364 204.739 65.364 C 210.616 65.364 213.751 68.89 213.751 72.808 C 213.751 76.726 209.18 79.077 205.652 79.077 C 202.125 79.077 198.34 75.028 198.34 71.633 Z" fill="black"/>
  <path d="M 138.786 16.911 L 119.98 16.911 C 119.98 16.911 114.885 100.104 117.628 100.888 C 119.161 101.326 122.443 73.876 127.816 50.606 C 132.058 32.234 138.786 16.911 138.786 16.911 Z" fill="black"/>
  <path d="M 16.019 35.064 L 16.019 16.911 L 37.048 16.911 C 46.19 51.782 88.243 104.153 85.24 106.503 C 82.236 108.854 22.551 36.762 16.019 35.064 Z" fill="black"/>
  <path d="M 197.818 239.325 L 179.664 239.325 C 175.825 211.299 165.717 191.173 146.88 169.855 C 146.431 169.346 146.795 168.546 147.473 168.57 C 174.289 169.506 188.743 192.03 197.818 239.325 Z" fill="black"/>
  <path d="M 93.206 115.123 C 93.206 116.782 91.861 118.127 90.202 118.127 C 88.543 118.127 87.198 116.782 87.198 115.123 C 87.198 113.464 88.543 112.119 90.202 112.119 C 91.861 112.119 93.206 113.464 93.206 115.123 Z" fill="black"/>
  <path d="M 24.742 136.169 C 24.397 136.877 22.687 136.754 20.923 135.894 C 19.158 135.035 18.008 133.764 18.353 133.056 C 18.698 132.348 20.408 132.471 22.172 133.331 C 23.936 134.191 25.087 135.462 24.742 136.169 Z" fill="black"/>
</svg>
