<?xml version="1.0" encoding="utf-8"?>
<svg width="256" height="256" viewBox="0 0 256 256" fill="none" xmlns="http://www.w3.org/2000/svg">
  <path d="M 220.097 120.75 L 217.906 90.901 L 215.714 120.75 C 213.772 121.387 212.203 122.849 211.421 124.72 L 195.812 127.425 L 211.421 130.13 C 212.203 132.002 213.772 133.463 215.714 134.1 L 217.906 164.971 L 220.097 134.1 C 222.039 133.463 223.608 132.002 224.39 130.13 L 240 127.425 L 224.39 124.72 C 223.608 122.849 222.039 121.387 220.097 120.75 Z" fill="black"/>
  <path d="M 42.84 141.183 L 40.648 117.847 L 38.457 141.183 C 36.514 141.82 34.946 143.282 34.164 145.153 L 18.555 147.858 L 34.164 150.563 C 34.946 152.435 36.514 153.896 38.457 154.533 L 40.648 177.869 L 42.84 154.533 C 44.782 153.896 46.351 152.435 47.132 150.563 L 62.742 147.858 L 47.132 145.153 C 46.351 143.282 44.782 141.82 42.84 141.183 Z" fill="black"/>
  <path d="M 199.515 138.791 C 191.096 130.193 186.193 121.99 184.445 110.568 C 184.445 110.568 180.103 120.146 174.229 120.273 C 168.354 120.401 151.88 110.568 151.88 110.568 L 130.425 110.568 L 121.486 107.247 C 121.486 107.247 144.218 130.49 156.988 130.49 C 169.759 130.49 199.515 138.791 199.515 138.791 Z" fill="black"/>
  <path d="M 175.25 114.016 C 164.504 113.295 159.73 113.632 154.011 104.821 L 126.682 104.821 C 110.259 99.059 101.993 92.481 95.433 76.725 L 113.44 84.005 C 113.44 84.005 81.513 59.613 72.702 55.015 C 80.875 55.015 112.961 68.968 138.343 88.602 C 126.083 65.232 67.338 47.097 52.141 29.601 L 83.174 46.203 L 47.415 18.874 C 89.559 46.203 113.44 58.208 156.222 87.58 L 149.964 72.255 C 165.053 84.182 170.791 93.167 175.25 114.016 Z" fill="black"/>
  <path d="M 95.433 84.005 C 87.26 78.769 88.026 72.255 76.533 72.255 C 83.301 79.279 84.195 85.409 95.433 84.005 Z" fill="black"/>
  <path d="M 70.147 83.111 C 73.965 87.836 74.106 88.602 81.513 87.58 C 76.533 85.282 75.904 83.62 70.147 83.111 Z" fill="black"/>
  <path d="M 66.189 79.918 C 48.693 74.81 40.804 66.636 25.067 57.058 C 38.604 59.996 52.141 70.978 66.189 79.918 Z" fill="black"/>
  <path d="M 73.723 70.212 C 65.678 58.974 39.242 45.565 16 31.389 L 16 39.435 C 33.623 45.437 50.097 61.145 73.723 70.212 Z" fill="black"/>
  <path d="M 59.931 48.757 C 58.954 45.768 57.245 44.663 53.29 43.138 C 54.915 45.917 55.782 47.5 59.931 48.757 Z" fill="black"/>
  <path d="M 45.755 43.138 L 16 18.874 L 16 26.153 L 45.755 43.138 Z" fill="black"/>
  <path d="M 50.097 30.495 L 42.209 20.662 L 32.631 20.662 L 50.097 30.495 Z" fill="black"/>
  <path d="M 22.64 53.61 C 20.613 51.554 17.978 52.701 16 52.972 C 17.875 54.165 20.44 53.901 22.64 53.61 Z" fill="black"/>
  <path d="M 113.44 150.029 L 16 77.875 L 16 84.005 L 72.702 124.743 L 16 88.602 L 16 98.691 L 106.161 150.029 L 113.44 150.029 Z" fill="black"/>
  <path d="M 53.29 133.555 C 55.078 138.152 59.165 141.345 65.167 141.345 C 64.017 136.62 59.279 133.459 53.29 133.555 Z" fill="black"/>
  <path d="M 19.959 114.016 C 19.962 117.745 20.853 120.615 27.621 121.806 C 26.686 117.229 25.296 114.61 19.959 114.016 Z" fill="black"/>
  <path d="M 38.348 182.978 L 16 161.012 L 16 172.25 L 38.348 182.978 Z" fill="black"/>
  <path d="M 99.009 232.783 C 81.787 212.796 71.785 201.895 51.502 184.638 L 62.868 202.517 L 56.355 202.517 L 48.948 192.683 C 41.286 190.895 16 177.997 16 177.997 C 16 177.997 52.524 204.943 54.312 209.158 L 66.061 209.158 C 76.318 219.769 84.4 224.481 99.009 232.783 Z" fill="black"/>
  <path d="M 81.641 228.058 C 74.004 223.499 70.348 220.71 66.061 214.904 C 60.512 215.559 58.056 215.263 51.502 214.904 C 49.842 210.149 47.654 207.784 43.329 203.666 C 40.204 203.058 38.882 202.868 35.028 203.666 C 42.005 208.493 44.181 212.164 47.543 219.885 C 47.543 219.885 54.056 218.608 56.355 219.885 C 58.654 221.162 62.868 226.143 62.868 226.143 L 73.34 226.143 C 73.34 226.143 79.257 227.334 81.641 228.058 Z" fill="black"/>
  <path d="M 35.028 200.601 C 28.515 192.683 21.874 193.194 16 188.98 C 18.681 195.748 26.344 200.601 35.028 200.601 Z" fill="black"/>
  <path d="M 126.466 197.281 C 101.833 179.289 86.66 172.039 61.846 159.607 C 84.09 177.314 98.947 185.611 126.466 197.281 Z" fill="black"/>
  <path d="M 116.25 179.402 C 111.525 163.311 90.07 153.477 72.702 148.114 C 84.706 160.373 102.457 169.568 116.25 179.402 Z" fill="black"/>
  <path d="M 116.25 155.776 C 119.953 163.438 132.341 169.824 147.538 174.804 C 141.28 165.482 126.466 155.776 116.25 155.776 Z" fill="black"/>
  <path d="M 129.787 150.029 C 132.724 150.029 135.406 151.562 136.044 154.371 C 133.235 154.371 130.681 152.328 129.787 150.029 Z" fill="black"/>
  <path d="M 210.242 211.712 L 199.644 189.746 L 139.238 155.776 L 185.468 189.746 L 170.908 189.746 C 183.296 192.683 196.087 198.956 210.242 211.712 Z" fill="black"/>
  <path d="M 166.823 237.125 L 235.785 237.125 L 213.18 210.69 L 219.566 228.058 L 193.513 203.666 C 193.513 203.666 181.636 203.538 178.954 202.517 C 176.272 201.495 148.943 182.978 148.943 182.978 L 180.103 217.586 L 156.988 204.943 C 156.988 204.943 180.103 228.058 180.103 230.995 C 180.103 233.933 166.823 237.125 166.823 237.125 Z" fill="black"/>
  <path d="M 164.14 223.844 C 156.988 211.712 143.451 201.751 134.639 201.24 C 141.646 213.416 148.943 216.054 164.14 223.844 Z" fill="black"/>
  <path d="M 152.774 199.58 C 144.572 185.386 137.194 175.826 123.657 174.804 C 124.678 186.298 136.811 192.939 152.774 199.58 Z" fill="black"/>
  <path d="M 119.953 114.016 C 119.953 114.016 108.97 102.522 104.884 99.968 C 100.797 97.414 84.195 91.923 84.195 91.923 L 119.953 114.016 Z" fill="black"/>
  <path d="M 238.21 90.262 C 238.21 90.262 225.95 71.106 218.926 71.106 C 211.902 71.106 210.497 73.66 205.134 73.66 C 199.77 73.66 178.443 62.55 178.443 62.55 C 178.443 62.55 191.725 74.81 198.365 77.875 C 205.006 80.94 211.647 79.918 216.628 80.94 C 221.608 81.961 238.21 90.262 238.21 90.262 Z" fill="black"/>
  <path d="M 167.716 56.164 C 168.718 58.232 169.947 58.984 172.696 59.996 C 171.652 57.878 171.035 56.712 167.716 56.164 Z" fill="black"/>
  <path d="M 225.95 66.509 C 219.243 59.585 214.372 56.984 205.134 52.972 L 210.497 62.55 L 192.108 57.058 L 144.856 32.666 L 198.365 66.509 L 225.95 66.509 Z" fill="black"/>
  <path d="M 202.707 48.757 L 154.562 18.874 L 189.043 48.757 L 202.707 48.757 Z" fill="black"/>
  <path d="M 164.778 35.859 L 138.343 19.768 L 166.183 40.329 L 164.778 35.859 Z" fill="black"/>
  <path d="M 119.953 19.768 L 141.152 31.389 L 124.551 18.874 L 119.953 19.768 Z" fill="black"/>
  <path d="M 214.967 174.293 C 217.777 172.633 220.459 172.378 222.757 174.293 C 219.566 175.187 217.777 175.187 214.967 174.293 Z" fill="black"/>
</svg>
