<?xml version="1.0" encoding="utf-8"?>
<svg width="256" height="256" viewBox="0 0 256 256" fill="none" xmlns="http://www.w3.org/2000/svg">
  <path d="M 193.198 26.318 C 195.895 24.316 199.24 24.256 200.67 26.182 C 202.099 28.108 201.072 31.292 198.375 33.293 C 195.678 35.294 192.333 35.355 190.904 33.429 C 189.474 31.503 190.502 28.319 193.198 26.318 Z" fill="black"/>
  <path d="M 177.462 51.642 C 179.905 46.583 182.319 41.584 180.788 39.812 C 178.874 37.596 173.369 42.506 167.039 48.153 C 164.271 50.622 161.345 53.231 158.493 55.448 C 156.871 56.708 155.288 57.875 153.812 58.964 C 148.845 62.624 145.077 65.403 145.029 67.899 C 144.999 69.431 146.615 71.359 148.588 73.712 C 150.563 76.066 152.894 78.847 154.294 82.086 C 155.864 85.718 157.003 89.445 157.983 92.649 C 159.545 97.758 160.701 101.539 162.546 101.486 C 163.908 101.447 165.535 98.867 167.59 95.607 L 167.593 95.602 C 169.265 92.949 171.221 89.847 173.549 87.298 C 176.139 84.462 179.174 82.851 181.648 81.537 C 184.385 80.084 186.434 78.996 186.434 77.019 C 186.434 75.327 183.831 73.314 180.965 71.096 C 177.454 68.381 173.549 65.36 173.549 62.252 C 173.549 59.748 175.515 55.676 177.462 51.642 Z" fill="black"/>
  <path d="M 204.241 66.451 C 204.241 64.052 201.519 62.107 198.161 62.107 C 194.803 62.107 192.08 64.052 192.08 66.451 C 192.08 68.849 194.803 70.794 198.161 70.794 C 201.519 70.794 204.241 68.849 204.241 66.451 Z" fill="black"/>
  <path d="M 77.564 204.586 C 77.564 210.377 82.342 231.224 89.725 231.224 C 97.109 231.224 140.54 197.637 140.54 191.991 C 140.54 189.435 138.315 185.929 135.879 182.092 C 132.934 177.453 129.682 172.329 129.682 167.813 C 129.682 162.641 135.085 153.26 139.689 145.267 L 139.691 145.264 C 142.431 140.506 144.888 136.24 145.753 133.646 C 148.07 126.697 160.519 55.758 91.317 55.758 C 29.739 55.758 30.866 114.221 31.147 128.836 C 31.182 130.645 31.204 131.783 31.092 132.054 C 30.826 132.703 29.522 134.689 27.785 137.337 L 27.781 137.344 C 22.925 144.743 14.686 157.301 16.178 160.285 C 17.293 162.515 22.526 162.072 27.443 161.657 C 31.465 161.317 35.275 160.995 36.447 162.167 C 37.294 163.014 37.866 167.147 38.594 172.417 C 40.108 183.364 42.299 199.211 49.043 200.677 C 54.219 201.802 63.943 197.175 72.636 193.039 C 80.72 189.192 87.912 185.769 89.725 187.792 C 91.718 190.016 88.187 192.971 84.425 196.12 C 81.086 198.915 77.564 201.863 77.564 204.586 Z" fill="black"/>
  <path d="M 194.975 96.005 L 194.975 116.274 L 185.565 116.274 L 185.565 96.005 L 194.975 96.005 Z" fill="black"/>
  <path d="M 225.869 96.005 C 237.684 96.005 240 106.139 240 106.139 C 240 106.139 237.684 116.274 225.869 116.274 L 200.62 116.274 L 200.62 96.005 L 225.869 96.005 Z" fill="black"/>
  <path d="M 180.643 187.792 C 182.174 186.02 179.76 181.021 177.318 175.962 C 175.37 171.928 173.404 167.857 173.404 165.352 C 173.404 162.244 177.309 159.223 180.82 156.508 C 183.686 154.291 186.289 152.277 186.289 150.585 C 186.289 148.608 184.24 147.52 181.503 146.067 C 179.029 144.754 175.994 143.142 173.404 140.306 C 171.079 137.76 169.126 134.663 167.454 132.013 L 167.449 132.005 L 167.448 132.002 L 167.445 131.997 C 165.39 128.737 163.764 126.157 162.402 126.118 C 160.556 126.065 159.4 129.846 157.838 134.956 C 156.858 138.16 155.719 141.886 154.149 145.518 C 152.75 148.757 150.418 151.538 148.444 153.892 C 146.47 156.246 144.855 158.173 144.884 159.706 C 144.932 162.202 148.701 164.98 153.667 168.641 C 155.143 169.729 156.726 170.896 158.348 172.156 C 161.2 174.373 164.126 176.983 166.894 179.451 C 173.225 185.098 178.729 190.008 180.643 187.792 Z" fill="black"/>
  <path d="M 198.016 165.497 C 201.374 165.497 204.097 163.552 204.097 161.154 C 204.097 158.755 201.374 156.81 198.016 156.81 C 194.658 156.81 191.936 158.755 191.936 161.154 C 191.936 163.552 194.658 165.497 198.016 165.497 Z" fill="black"/>
  <path d="M 200.525 201.422 C 199.095 203.349 195.75 203.288 193.054 201.287 C 190.357 199.286 189.33 196.102 190.759 194.175 C 192.188 192.249 195.533 192.31 198.23 194.311 C 200.927 196.312 201.954 199.496 200.525 201.422 Z" fill="black"/>
</svg>
