<?xml version="1.0" encoding="utf-8"?>
<svg width="256" height="256" viewBox="0 0 256 256" fill="none" xmlns="http://www.w3.org/2000/svg">
  <path d="M 16.296 78.891 C 16.132 78.892 16 79.025 16 79.189 L 16 81.571 C 16 81.735 16.133 81.869 16.298 81.869 L 18.679 81.869 C 21.421 83.184 20.762 84.993 19.423 86.631 C 24.696 86.897 27.179 85.637 28.5 81.869 L 32.22 81.869 C 32.994 84.661 31.223 85.901 28.054 88.119 C 37.41 87.936 39.799 85.947 43.268 83.06 C 43.268 83.06 46.913 80.019 48.441 78.743 L 16.296 78.891 Z" fill="black"/>
  <path d="M 179.693 69.071 C 179.529 69.071 179.395 69.204 179.395 69.368 L 179.395 71.749 C 179.395 71.914 179.529 72.047 179.693 72.047 L 225.229 72.047 L 212.931 83.398 C 212.161 84.109 213.033 85.336 213.958 84.842 L 239.528 71.198 C 240.157 70.861 240.157 69.958 239.528 69.622 L 215.591 56.847 C 215.591 56.847 215.344 56.749 215.219 56.742 C 214.789 56.719 214.377 57.012 214.292 57.471 L 212.135 69.071 L 179.693 69.071 Z" fill="black"/>
  <path d="M 75.822 222.793 C 114.96 203.15 140.704 201.662 201.271 203.15 C 176.419 194.222 161.687 194.966 135.645 198.388 C 140.853 193.031 171.062 191.989 191.301 191.989 C 191.301 191.989 154.842 155.084 154.842 135.738 C 154.842 125.125 160.82 110.985 166.077 99.301 C 170.4 89.69 174.34 80.933 174.34 75.023 C 174.34 61.928 165.258 33.207 129.99 33.207 C 96.669 33.207 88.183 60.628 86.848 69.071 L 44.721 69.071 C 41.252 66.183 37.41 63.003 28.054 62.821 C 31.223 65.039 32.994 66.278 32.22 69.071 L 28.5 69.071 C 27.179 65.302 24.696 64.042 19.423 64.309 C 20.762 65.946 21.421 67.755 18.679 69.071 L 16.298 69.071 C 16.133 69.071 16 69.204 16 69.368 L 16 71.749 C 16 71.914 16.133 72.047 16.298 72.047 L 116.75 72.047 L 116.75 78.892 L 86.848 78.743 C 85.361 83.946 80.246 89.393 76.418 93.625 C 73.347 97.019 70.921 99.699 71.385 101.024 C 72.427 104 86.848 105.381 86.848 105.381 C 86.848 105.381 85.946 123.089 86.541 126.661 C 87.136 130.232 88.922 135.738 94.279 135.738 C 96.456 135.738 103.015 133.43 110.153 130.918 C 120.585 127.247 131.334 122.345 133.264 125.619 C 135.194 128.893 118.387 136.929 118.387 136.929 C 118.387 136.929 120.47 149.429 116.75 157.763 C 114.592 162.595 102.773 173.286 92.763 182.342 C 85.511 188.9 79.208 194.602 78.208 196.602 C 75.827 201.365 75.822 222.793 75.822 222.793 Z" fill="black"/>
</svg>
