<?xml version="1.0" encoding="utf-8"?>
<svg width="256" height="256" viewBox="0 0 256 256" fill="none" xmlns="http://www.w3.org/2000/svg">
  <path fill-rule="evenodd" clip-rule="evenodd" d="M 127.999 240 C 101.338 223.893 88.561 212.747 75.033 168.902 L 75.033 147.201 C 75.033 147.201 109.868 117.077 127.999 117.078 C 146.131 117.078 180.823 147.201 180.823 147.201 L 180.823 168.902 C 172.181 205.874 160.455 220.258 127.999 240 Z M 118.862 139.92 C 118.862 138.816 119.757 137.922 120.861 137.922 L 135.423 137.922 C 136.527 137.922 137.422 138.816 137.422 139.92 L 137.422 161.335 L 158.837 161.335 C 159.941 161.335 160.835 162.23 160.835 163.334 L 160.835 177.896 C 160.835 179 159.941 179.895 158.837 179.895 L 137.422 179.895 L 137.422 201.595 C 137.422 202.699 136.527 203.594 135.423 203.594 L 120.861 203.594 C 119.757 203.594 118.862 202.699 118.862 201.595 L 118.862 179.895 L 97.162 179.895 C 96.058 179.895 95.163 179 95.163 177.896 L 95.163 163.334 C 95.163 162.23 96.058 161.335 97.162 161.335 L 118.862 161.335 L 118.862 139.92 Z" fill="black"/>
  <path d="M 128.285 110.082 C 104.858 110.082 88.168 131.925 88.168 131.925 C 88.168 131.925 100.588 104.086 107.156 104.086 C 113.723 104.086 116.864 106.799 116.864 106.799 L 116.864 91.237 L 138.849 91.237 L 138.849 106.799 C 138.849 106.799 143.561 104.086 149.985 104.086 C 156.41 104.086 168.402 131.925 168.402 131.925 C 168.402 131.925 151.712 110.082 128.285 110.082 Z" fill="black"/>
  <path d="M 84.17 85.241 C 84.17 91.237 102.587 89.667 102.587 89.667 L 95.655 86.642 C 95.391 86.527 95.433 86.143 95.718 86.105 C 99.661 85.575 114.766 83.671 128.285 83.671 C 141.755 83.671 156.695 85.562 160.674 86.099 C 160.961 86.138 161 86.527 160.732 86.638 L 153.412 89.667 C 153.412 89.667 171.686 91.237 171.686 85.241 C 171.686 79.245 138.849 78.817 138.849 78.817 L 138.849 68.395 C 138.849 68.395 140.563 63.255 145.274 63.255 C 149.985 63.255 151.984 71.393 161.692 71.393 C 171.4 71.393 172.257 63.255 177.825 63.255 C 183.392 63.255 184.534 69.537 190.102 69.537 C 195.67 69.537 206.235 64.255 206.235 52.976 C 206.235 41.698 194.528 25.851 186.961 25.851 C 179.395 25.851 178.396 30.562 173.97 28.563 C 169.544 26.565 166.403 18.855 158.694 18.855 C 150.985 18.855 152.412 22.424 147.13 22.424 C 141.848 22.424 138.136 16 127.571 16 C 117.006 16 117.578 22.71 110.154 22.71 C 102.73 22.71 106.013 18.855 97.019 18.855 C 88.025 18.855 86.455 28.563 80.03 28.563 C 73.606 28.563 76.318 25.851 66.325 25.851 C 56.331 25.851 49.764 44.696 49.764 52.976 C 49.764 61.257 58.044 69.537 66.896 69.537 C 75.747 69.537 71.036 63.255 78.174 63.255 C 85.313 63.255 86.312 70.251 94.021 70.536 C 101.731 70.822 104.586 63.255 110.725 63.255 C 116.864 63.255 116.864 68.395 116.864 68.395 L 116.864 78.817 C 116.864 78.817 84.17 79.245 84.17 85.241 Z" fill="black"/>
</svg>
