<?xml version="1.0" encoding="utf-8"?>
<svg width="256" height="256" viewBox="0 0 256 256" fill="none" xmlns="http://www.w3.org/2000/svg">
  <path d="M 128.893 23.016 C 131.359 23.016 133.358 25.015 133.358 27.481 L 133.358 84.246 C 133.358 86.712 131.359 88.711 128.893 88.711 C 126.427 88.711 124.428 86.712 124.428 84.246 L 124.428 27.481 C 124.428 25.015 126.427 23.016 128.893 23.016 Z" fill="black"/>
  <path d="M 94.87 66.452 C 95.61 68.05 97.506 68.746 99.104 68.006 C 100.702 67.265 101.398 65.37 100.658 63.772 L 89.435 39.535 C 88.695 37.937 86.8 37.241 85.202 37.981 C 83.603 38.721 82.908 40.617 83.648 42.215 L 94.87 66.452 Z" fill="black"/>
  <path d="M 201.305 102.761 C 199.786 103.653 197.831 103.144 196.94 101.625 C 196.048 100.106 196.557 98.152 198.076 97.261 L 203.944 93.816 C 205.463 92.924 207.418 93.433 208.309 94.952 C 209.201 96.471 208.692 98.425 207.173 99.316 L 201.305 102.761 Z" fill="black"/>
  <path d="M 51.379 102.815 C 52.898 103.706 54.852 103.198 55.744 101.679 C 56.635 100.16 56.126 98.206 54.608 97.314 L 48.739 93.87 C 47.22 92.978 45.266 93.487 44.374 95.006 C 43.483 96.525 43.991 98.479 45.51 99.37 L 51.379 102.815 Z" fill="black"/>
  <path d="M 189.56 159.5 C 188.296 158.273 188.267 156.254 189.494 154.99 C 190.721 153.727 192.74 153.698 194.004 154.925 L 198.468 159.262 C 199.732 160.489 199.761 162.508 198.534 163.772 C 197.307 165.035 195.287 165.064 194.024 163.837 L 189.56 159.5 Z" fill="black"/>
  <path d="M 71.481 156.011 C 72.708 157.274 72.679 159.293 71.416 160.52 L 66.951 164.857 C 65.688 166.085 63.669 166.055 62.441 164.792 C 61.214 163.529 61.243 161.51 62.507 160.282 L 66.971 155.945 C 68.235 154.718 70.254 154.747 71.481 156.011 Z" fill="black"/>
  <path d="M 20.464 125.322 C 17.999 125.322 16 127.321 16 129.786 C 16 132.252 17.999 134.251 20.464 134.251 L 75.444 134.251 C 77.91 134.251 79.909 132.252 79.909 129.786 C 79.909 127.321 77.91 125.322 75.444 125.322 L 20.464 125.322 Z" fill="black"/>
  <path d="M 180.556 125.449 C 178.09 125.449 176.091 127.448 176.091 129.914 C 176.091 132.38 178.09 134.379 180.556 134.379 L 235.536 134.379 C 238.001 134.379 240 132.38 240 129.914 C 240 127.448 238.001 125.449 235.536 125.449 L 180.556 125.449 Z" fill="black"/>
  <path d="M 42.8 44.268 C 41.081 42.5 38.254 42.461 36.486 44.18 C 34.718 45.899 34.679 48.725 36.398 50.493 L 85.892 101.391 C 87.611 103.159 90.438 103.198 92.206 101.479 C 93.974 99.76 94.013 96.933 92.294 95.166 L 42.8 44.268 Z" fill="black"/>
  <path d="M 213.073 44.395 C 214.792 42.628 217.619 42.588 219.386 44.307 C 221.154 46.026 221.194 48.853 219.475 50.621 L 169.98 101.518 C 168.261 103.286 165.434 103.326 163.667 101.607 C 161.899 99.887 161.859 97.061 163.578 95.293 L 213.073 44.395 Z" fill="black"/>
  <path d="M 157.058 67.835 C 158.632 68.625 160.549 67.989 161.338 66.414 L 173.453 42.264 C 174.243 40.69 173.607 38.774 172.032 37.984 C 170.458 37.194 168.542 37.83 167.752 39.404 L 155.637 63.554 C 154.848 65.129 155.484 67.045 157.058 67.835 Z" fill="black"/>
  <path d="M 125.228 98.316 C 126.158 96.878 127.485 95.982 129.274 95.982 C 130.934 95.982 131.981 97.292 132.643 98.94 C 133.318 100.623 133.73 102.965 133.983 105.686 C 134.49 111.142 134.376 118.397 134.249 125.59 L 134.238 126.181 C 134.113 133.203 133.99 140.122 134.412 145.335 C 134.629 148.022 134.988 150.188 135.534 151.662 C 136.1 153.19 136.729 153.641 137.305 153.641 C 137.889 153.641 138.485 153.244 139.058 152.025 C 139.623 150.823 140.047 149.047 140.366 146.823 C 140.94 142.816 141.145 137.59 141.356 132.192 L 141.357 132.181 C 141.379 131.608 141.402 131.033 141.425 130.457 C 141.664 124.491 141.96 118.451 142.838 113.899 C 143.276 111.629 143.871 109.656 144.722 108.233 C 145.581 106.795 146.78 105.804 148.409 105.804 C 150.112 105.804 151.14 107.208 151.76 108.938 C 152.397 110.716 152.75 113.194 152.925 116.081 C 153.277 121.871 152.926 129.574 152.504 137.243 C 152.442 138.36 152.379 139.477 152.316 140.587 C 151.947 147.124 151.59 153.441 151.629 158.388 C 151.652 161.287 151.812 163.661 152.167 165.313 C 152.346 166.143 152.563 166.732 152.797 167.105 C 153.025 167.468 153.207 167.537 153.326 167.548 C 154.021 167.611 154.516 167.441 154.92 167.123 C 155.35 166.786 155.729 166.239 156.084 165.463 C 156.436 164.69 156.737 163.755 157.045 162.696 C 157.143 162.358 157.243 162.005 157.345 161.643 L 157.347 161.636 L 157.348 161.632 L 157.35 161.625 C 157.561 160.879 157.782 160.095 158.026 159.316 C 158.759 156.979 159.751 154.493 161.532 152.55 C 163.34 150.578 165.91 149.22 169.671 149.049 C 171.113 148.984 172.244 149.102 173.068 149.45 C 173.947 149.821 174.484 150.464 174.619 151.325 C 174.742 152.104 174.518 152.961 174.176 153.795 C 173.827 154.646 173.308 155.582 172.72 156.555 C 172.293 157.264 171.831 157.991 171.358 158.735 L 171.358 158.736 C 170.505 160.078 169.619 161.474 168.837 162.915 C 167.628 165.141 166.779 167.291 166.778 169.192 C 167.045 178.648 166.54 187.381 163.61 194.942 C 160.666 202.541 155.294 208.902 145.949 213.64 C 145.749 213.741 145.515 213.75 145.308 213.664 L 145.081 213.569 C 145.257 212.328 145.349 211.059 145.349 209.768 C 145.349 194.974 133.355 182.98 118.56 182.98 C 109.842 182.98 102.097 187.145 97.205 193.593 L 95.17 192.743 C 94.91 192.635 94.731 192.394 94.703 192.115 C 93.364 179.021 93.358 173.44 93.696 169.094 C 93.792 167.87 93.912 166.758 94.037 165.613 L 94.037 165.611 L 94.037 165.609 C 94.355 162.685 94.696 159.541 94.699 153.768 C 94.702 148.304 93.481 142.694 92.399 137.719 C 92.136 136.513 91.882 135.345 91.655 134.225 C 91.083 131.396 90.677 128.828 90.83 126.818 C 90.907 125.805 91.13 124.874 91.59 124.106 C 92.061 123.32 92.759 122.746 93.695 122.428 C 94.748 122.072 95.685 122.333 96.445 122.999 C 97.155 123.62 97.707 124.585 98.169 125.675 C 99.019 127.681 99.693 130.443 100.37 133.216 C 100.432 133.469 100.493 133.723 100.555 133.975 C 101.308 137.047 102.088 140.069 103.136 142.284 C 104.211 144.554 105.379 145.594 106.761 145.479 C 107.289 145.435 107.733 145.097 108.066 144.126 C 108.405 143.136 108.546 141.682 108.53 139.842 C 108.504 136.71 108.028 132.71 107.53 128.52 C 107.445 127.807 107.359 127.088 107.275 126.367 C 106.703 121.453 106.197 116.436 106.491 112.567 C 106.637 110.636 106.987 108.91 107.683 107.607 C 108.398 106.267 109.5 105.349 111.075 105.171 C 112.583 105.002 113.757 105.626 114.603 106.75 C 115.411 107.826 115.928 109.36 116.275 111.106 C 116.97 114.609 117.05 119.344 117.069 124.019 C 117.072 124.558 117.073 125.097 117.075 125.632 L 117.075 125.638 C 117.086 129.793 117.097 133.805 117.473 136.9 C 117.686 138.654 118.007 140.031 118.466 140.949 C 118.917 141.85 119.41 142.16 119.962 142.16 C 120.802 142.16 121.465 141.703 122.01 140.602 C 122.571 139.468 122.93 137.779 123.131 135.638 C 123.494 131.77 123.322 126.717 123.143 121.486 C 123.125 120.946 123.106 120.404 123.088 119.862 C 122.897 114.106 122.765 108.26 123.439 103.847 C 123.776 101.645 124.325 99.714 125.228 98.316 Z" fill="black"/>
  <path d="M 111.927 195.354 C 111.927 193.029 113.812 191.144 116.137 191.144 C 118.462 191.144 120.346 193.029 120.346 195.354 L 120.346 209.513 L 132.72 209.513 C 135.045 209.513 136.929 211.398 136.929 213.723 C 136.929 216.048 135.045 217.932 132.72 217.932 L 120.346 217.932 L 120.346 228.775 C 120.346 231.1 118.462 232.984 116.137 232.984 C 113.812 232.984 111.927 231.1 111.927 228.775 L 111.927 217.932 L 99.298 217.932 C 96.973 217.932 95.089 216.048 95.089 213.723 C 95.089 211.398 96.973 209.513 99.298 209.513 L 111.927 209.513 L 111.927 195.354 Z" fill="black"/>
</svg>
