<?xml version="1.0" encoding="utf-8"?>
<svg width="256" height="256" viewBox="0 0 256 256" fill="none" xmlns="http://www.w3.org/2000/svg">
  <path d="M 195.03 110.8 L 61.756 110.8 C 60.694 88.805 72.962 68.259 93.831 68.259 C 119.146 68.259 129.201 89.436 129.201 89.436 C 129.201 89.436 137.64 68.259 162.955 68.259 C 183.824 68.259 196.092 88.805 195.03 110.8 Z" fill="black"/>
  <path d="M 177.901 148.352 L 79.165 148.352 C 98.683 173.235 129.201 199.56 129.201 199.56 C 129.201 199.56 158.846 173.235 177.901 148.352 Z" fill="black"/>
  <path d="M 207.699 129.707 C 207.699 129.707 203.992 117.89 185.084 117.89 L 144.674 117.89 L 144.674 141.525 L 185.084 141.525 C 203.992 141.525 207.699 129.707 207.699 129.707 Z" fill="black"/>
  <path d="M 139.422 125.243 L 44.361 125.243 L 44.361 131.546 L 139.422 131.546 L 139.422 125.243 Z" fill="black"/>
  <path d="M 221.354 128.395 C 221.354 179.88 179.617 221.618 128.131 221.618 C 76.645 221.618 34.907 179.88 34.907 128.395 C 34.907 76.909 76.645 35.171 128.131 35.171 C 179.617 35.171 221.354 76.909 221.354 128.395 Z M 40.763 128.395 C 40.763 176.646 79.879 215.762 128.131 215.762 C 176.382 215.762 215.498 176.646 215.498 128.395 C 215.498 80.143 176.382 41.027 128.131 41.027 C 79.879 41.027 40.763 80.143 40.763 128.395 Z" fill="black"/>
  <path d="M 240 128.001 C 240 189.856 189.855 240 127.999 240 C 66.143 240 16 189.856 16 128.001 C 16 66.145 66.143 16.001 127.999 16.001 C 189.855 16.001 240 66.145 240 128.001 Z M 23.249 128.001 C 23.249 185.852 70.147 232.751 127.999 232.751 C 185.851 232.751 232.749 185.852 232.749 128.001 C 232.749 70.149 185.851 23.25 127.999 23.25 C 70.147 23.25 23.249 70.149 23.249 128.001 Z" fill="black"/>
</svg>
