<?xml version="1.0" encoding="utf-8"?>
<svg width="256" height="256" viewBox="0 0 256 256" fill="none" xmlns="http://www.w3.org/2000/svg">
  <path fill-rule="evenodd" clip-rule="evenodd" d="M 48.914 63.721 C 62.253 52.541 81.558 36.362 97.252 53.424 C 107.642 64.72 110.717 75.543 113.693 86.019 C 117.548 99.59 121.237 112.578 140.454 125.256 C 154.119 134.272 176.493 129.479 184.9 114.162 C 195.632 94.609 190.6 40.12 140.454 22.166 C 65.083 -4.819 27.384 65.111 34.295 71.728 C 36.658 73.992 41.98 69.532 48.914 63.721 Z M 113.068 43.439 C 113.068 38.308 114.594 35.812 119.308 35.812 C 124.023 35.812 132.621 44.409 132.621 49.679 C 132.621 54.948 129.847 58.277 125.41 58.277 C 120.972 58.277 113.068 48.57 113.068 43.439 Z M 133.73 90.31 C 133.732 103.9 144.687 112.914 151.619 112.914 C 158.55 112.914 169.646 104.038 169.646 91.558 C 169.646 79.077 154.254 57.445 146.627 57.445 C 143.033 57.445 141.785 62.848 140.267 69.416 C 139.877 71.104 139.47 72.87 139 74.64 C 138.36 77.049 137.376 79.166 136.431 81.2 C 135.038 84.196 133.73 87.01 133.73 90.31 Z" fill="black"/>
  <path fill-rule="evenodd" clip-rule="evenodd" d="M 100.883 230.436 C 85.884 227.556 61.347 222.844 61.347 189.046 C 61.347 164.381 73.184 158.09 84.673 151.984 C 95.856 146.04 106.708 140.272 105.996 117.906 C 105.474 101.543 91.162 89.201 73.689 89.2 C 48.132 89.2 17.384 103.76 17.384 168.521 C 17.384 246.454 112.239 244.929 112.239 235.498 C 112.239 232.616 107.485 231.703 100.883 230.436 Z M 39.988 175.732 C 39.988 179.476 40.958 183.775 44.425 183.775 C 47.892 183.775 51.22 177.396 51.22 174.345 C 51.22 171.295 48.031 167.273 45.257 167.134 C 42.484 166.996 39.988 171.988 39.988 175.732 Z M 46.782 119.708 C 50.388 115.548 62.868 106.951 69.941 106.951 C 77.013 106.951 85.749 110.001 85.749 123.314 C 85.749 133.642 77.403 135.874 69.063 138.104 C 66.653 138.748 64.244 139.393 62.036 140.232 C 56.437 142.361 52.138 148.528 48.706 153.451 C 46.104 157.183 44 160.201 42.206 160.201 C 38.046 160.201 34.441 158.121 34.441 147.027 C 34.441 135.933 43.177 123.869 46.782 119.708 Z" fill="black"/>
  <path fill-rule="evenodd" clip-rule="evenodd" d="M 227.344 127.666 C 225.847 143.507 223.509 168.243 194.191 168.243 C 173.938 168.243 164.327 161.087 155.522 154.53 C 145.576 147.124 136.658 140.483 114.593 145.778 C 98.674 149.599 93.144 165.644 97.666 182.522 C 104.281 207.209 137.384 233.951 188.504 218.997 C 250.77 200.781 241.201 114.716 231.632 114.716 C 228.569 114.716 228.05 120.204 227.344 127.666 Z M 136.781 194.037 C 120.915 188.42 113.899 176.258 122.081 166.857 C 130.264 157.455 143.575 162.005 153.835 175.178 C 158.344 180.966 164.563 185.915 169.302 189.686 L 169.303 189.686 C 173.623 193.124 176.714 195.584 176.161 196.81 C 174.933 199.535 152.096 199.459 136.781 194.037 Z M 202.511 186.687 C 202.511 189.444 200.276 191.679 197.519 191.679 C 194.762 191.679 192.527 189.444 192.527 186.687 C 192.527 183.93 194.762 181.695 197.519 181.695 C 200.276 181.695 202.511 183.93 202.511 186.687 Z" fill="black"/>
</svg>
