<?xml version="1.0" encoding="utf-8"?>
<svg width="256" height="256" viewBox="0 0 256 256" fill="none" xmlns="http://www.w3.org/2000/svg">
  <path d="M 94.522 25.585 C 97.043 25.585 99.087 23.542 99.087 21.02 C 99.087 18.499 97.043 16.455 94.522 16.455 C 92.001 16.455 89.957 18.499 89.957 21.02 C 89.957 23.542 92.001 25.585 94.522 25.585 Z" fill="black"/>
  <path d="M 153.566 139.412 C 153.566 141.765 151.658 143.673 149.305 143.673 C 146.952 143.673 145.044 141.765 145.044 139.412 C 145.044 137.059 146.952 135.151 149.305 135.151 C 151.658 135.151 153.566 137.059 153.566 139.412 Z" fill="black"/>
  <path d="M 40.957 228.89 C 40.957 234.773 36.187 239.544 30.304 239.544 C 24.421 239.544 19.652 234.773 19.652 228.89 C 19.652 223.007 24.421 218.238 30.304 218.238 C 36.187 218.238 40.957 223.007 40.957 228.89 Z" fill="black"/>
  <path d="M 231.479 200.89 C 231.479 206.773 226.71 211.542 220.827 211.542 C 214.944 211.542 210.175 206.773 210.175 200.89 C 210.175 195.007 214.944 190.238 220.827 190.238 C 226.71 190.238 231.479 195.007 231.479 200.89 Z" fill="black"/>
  <path d="M 208.653 52.368 C 213.864 52.368 218.087 48.144 218.087 42.933 C 218.087 37.723 213.864 33.499 208.653 33.499 C 203.442 33.499 199.218 37.723 199.218 42.933 C 199.218 48.144 203.442 52.368 208.653 52.368 Z" fill="black"/>
  <path d="M 32.435 47.499 C 32.435 52.037 28.756 55.716 24.217 55.716 C 19.679 55.716 16 52.037 16 47.499 C 16 42.96 19.679 39.281 24.217 39.281 C 28.756 39.281 32.435 42.96 32.435 47.499 Z" fill="black"/>
  <path d="M 48.261 213.673 C 51.455 213.673 54.044 211.697 54.044 209.26 C 54.044 206.823 51.455 204.847 48.261 204.847 C 45.067 204.847 42.478 206.823 42.478 209.26 C 42.478 211.697 45.067 213.673 48.261 213.673 Z" fill="black"/>
  <path d="M 236.653 84.629 C 236.653 86.646 234.132 88.281 231.022 88.281 C 227.913 88.281 225.392 86.646 225.392 84.629 C 225.392 82.612 227.913 80.977 231.022 80.977 C 234.132 80.977 236.653 82.612 236.653 84.629 Z" fill="black"/>
  <path fill-rule="evenodd" clip-rule="evenodd" d="M 91.022 47.803 C 92.962 45.863 93.137 42.013 93.307 38.305 C 93.522 33.579 93.728 29.085 97.566 29.085 C 99.766 29.085 103.136 37.829 107.565 49.32 L 107.565 49.321 L 107.566 49.322 C 109.677 54.799 112.029 60.9 114.609 66.977 C 117.13 72.912 119.81 78.852 122.294 84.358 C 128.537 98.191 133.54 109.278 131.652 110.651 C 128.984 112.592 123.694 106.153 118.387 99.693 C 113.706 93.996 109.011 88.281 106.087 88.281 C 99.848 88.281 88.891 97.26 86 101.368 C 83.109 105.477 76.413 126.477 76.413 133.173 C 76.413 139.868 76.565 147.782 80.674 148.847 C 84.783 149.912 89.652 148.086 91.326 145.803 C 91.753 145.221 92.2 143.886 92.758 142.221 C 94.386 137.357 96.958 129.673 102.739 129.673 C 110.5 129.673 119.479 138.803 118.261 140.629 C 117.69 141.487 115.172 140.633 112.347 139.675 C 109.156 138.593 105.571 137.378 103.957 138.347 C 102.733 139.081 102.444 140.653 102.091 142.576 C 101.566 145.435 100.898 149.07 96.805 151.89 C 94.492 153.483 90.478 155.302 86.327 157.183 C 78.191 160.87 69.532 164.794 72.152 167.716 C 74.534 170.373 82.709 166.631 89.335 163.598 C 93.715 161.593 97.418 159.898 98.326 160.564 C 99.813 161.654 99.04 164.681 98.321 167.5 C 97.936 169.009 97.566 170.459 97.566 171.521 C 97.566 174.564 98.326 176.542 102.739 179.434 C 107.152 182.325 116.435 183.238 123.131 183.238 C 126.624 183.238 130.862 182.203 134.916 181.213 C 138.634 180.304 142.198 179.434 144.892 179.434 C 148.103 179.434 150.621 182.75 152.785 185.6 C 154.415 187.747 155.845 189.629 157.218 189.629 C 160.414 189.629 161.935 187.803 161.935 185.216 C 161.935 182.629 159.5 162.542 156.761 159.651 C 154.022 156.76 152.653 152.347 153.87 150.064 C 155.087 147.782 159.5 150.064 161.174 152.347 C 161.671 153.024 162.047 153.861 162.425 154.705 C 163.323 156.705 164.236 158.738 166.805 158.738 C 170.457 158.738 175.022 152.803 175.022 127.238 C 175.022 101.673 150.218 87.368 145.805 87.368 C 143.639 87.368 142.097 88.871 140.691 90.239 C 139.233 91.659 137.923 92.935 136.218 92.238 C 134.884 91.692 132.718 84.692 130.353 77.047 L 130.352 77.046 C 129.533 74.397 128.689 71.67 127.848 69.107 C 126.785 65.868 125.702 62.985 124.765 60.491 C 123.215 56.363 122.065 53.301 122.065 51.455 C 122.065 49.001 125.348 45.445 129.312 41.151 C 130.657 39.695 132.079 38.154 133.479 36.542 C 134.71 35.124 135.917 33.638 137.089 32.195 C 140.884 27.522 144.311 23.303 147.022 23.303 C 151.101 23.303 153.852 28.049 156.281 32.24 C 158.2 35.554 159.92 38.52 161.935 38.52 C 164.158 38.52 165.732 36.536 167.165 34.728 C 168.676 32.823 170.031 31.114 171.826 32.129 C 175.326 34.107 167.87 47.803 161.935 47.803 C 158.44 47.803 155.367 44.847 152.841 42.417 C 151.077 40.721 149.58 39.281 148.392 39.281 C 145.5 39.281 142.609 40.803 142.609 43.238 C 142.609 45.673 146.109 50.694 149.305 52.368 C 150.858 53.182 153.13 53.456 155.422 53.733 C 157.846 54.026 160.293 54.321 161.935 55.26 C 162.894 55.807 164.195 56.998 165.723 58.398 C 169.289 61.664 174.094 66.064 178.674 66.064 C 181.946 66.064 184.267 64.77 186.587 63.477 C 188.908 62.183 191.229 60.89 194.5 60.89 C 198.304 60.89 201.131 65.671 203.728 70.065 C 205.598 73.229 207.35 76.192 209.261 77.02 C 211.156 77.841 213.941 78.348 216.551 78.822 C 220.232 79.492 223.566 80.098 223.566 81.433 C 223.566 83.716 210.783 86.151 205.457 83.564 C 202.869 82.307 200.533 79.29 198.361 76.485 C 196.062 73.517 193.948 70.786 191.913 70.629 C 187.957 70.325 182.327 71.847 183.24 75.651 C 183.811 78.032 188.852 83.154 193.104 87.474 C 195.647 90.058 197.907 92.355 198.761 93.607 C 199.856 95.212 200.495 98.845 201.15 102.561 C 201.86 106.598 202.588 110.734 203.935 112.477 C 206.522 115.825 212.305 120.238 217.327 120.847 C 222.348 121.455 225.087 120.39 228.588 117.042 C 230.459 115.252 230.851 110.634 231.183 106.724 C 231.472 103.321 231.716 100.455 232.848 100.455 C 235.283 100.455 240 106.542 240 116.129 C 240 121.465 234.533 128.167 229.684 134.112 C 225.82 138.848 222.348 143.104 222.348 145.803 C 222.348 149.145 223.495 150.789 224.529 152.273 C 225.379 153.492 226.153 154.602 226.153 156.455 C 226.153 159.487 223.75 161.193 220.718 163.346 C 219.64 164.111 218.483 164.933 217.327 165.89 C 215.04 167.782 210.916 169.47 206.773 171.166 C 202.92 172.743 199.051 174.326 196.631 176.086 C 194.294 177.786 192.55 180.937 190.954 183.819 C 189.122 187.129 187.485 190.086 185.37 190.086 C 183.655 190.086 181.883 187.141 179.979 183.978 C 177.491 179.843 174.778 175.335 171.674 176.542 C 168.823 177.651 172.526 184.697 176.734 192.701 C 180.61 200.074 184.913 208.261 184.913 213.369 C 184.913 224.021 180.196 232.238 170.761 232.238 C 162.816 232.238 158.648 227.49 155.258 223.627 C 154.622 222.903 154.014 222.21 153.413 221.586 C 152.488 220.623 151.697 219.598 150.926 218.597 C 148.526 215.483 146.31 212.608 140.783 212.608 C 137.168 212.608 134.075 214.322 130.95 216.054 C 127.761 217.822 124.539 219.608 120.696 219.608 C 117.065 219.608 115.167 218.707 113.182 217.765 C 111.008 216.733 108.73 215.651 103.957 215.651 C 99.391 215.651 95.93 218.505 92.468 221.358 C 89.006 224.211 85.544 227.064 80.978 227.064 C 71.848 227.064 66.826 218.086 68.805 216.108 C 69.876 215.037 71.75 216.151 73.847 217.399 C 75.624 218.456 77.56 219.608 79.304 219.608 C 83.109 219.608 88.587 214.89 88.587 209.716 C 88.587 205.835 81.309 201.184 76.644 198.202 C 75.09 197.209 73.826 196.401 73.218 195.869 C 72.677 195.395 71.805 194.531 70.738 193.474 L 70.737 193.473 L 70.737 193.472 C 67.002 189.77 60.874 183.695 58.152 183.695 C 54.652 183.695 51.761 185.673 49.935 187.042 C 49.23 187.571 48.456 188.872 47.641 190.244 C 46.345 192.423 44.944 194.779 43.544 194.499 C 41.261 194.043 45.37 182.021 47.804 180.195 C 48.475 179.691 49.377 179.292 50.332 178.87 C 52.842 177.759 55.717 176.486 55.717 172.738 C 55.717 167.564 50.239 156.76 39.891 152.651 C 29.544 148.542 20.717 138.042 20.717 127.238 C 20.717 116.433 24.522 109.281 31.978 106.086 C 34.238 105.117 36.804 104.512 39.285 103.928 C 44.99 102.583 50.239 101.345 50.239 96.042 C 50.239 92.437 44.054 86.542 38.016 80.786 C 31.311 74.396 24.787 68.177 27.109 65.455 C 29.455 62.704 35.072 68.085 40.962 73.728 C 46.149 78.697 51.546 83.868 55.109 83.868 C 61.024 83.868 62.416 81.226 63.989 78.239 C 64.306 77.637 64.63 77.022 65 76.412 C 65.346 75.85 65.887 75.119 66.499 74.291 C 67.709 72.656 69.199 70.643 70.022 68.803 C 70.751 67.173 71.193 65.491 71.609 63.904 C 72.2 61.653 72.741 59.594 73.978 58.151 C 75.841 55.977 79.09 54.477 82.411 52.943 C 85.602 51.47 88.86 49.965 91.022 47.803 Z M 213.522 131.499 C 208.653 130.586 199.979 151.129 199.979 155.39 C 199.979 159.651 203.022 162.086 207.892 162.086 C 212.761 162.086 216.718 151.434 217.327 146.26 C 217.935 141.086 218.392 132.412 213.522 131.499 Z M 169.392 224.021 C 175.443 224.021 180.348 219.115 180.348 213.064 C 180.348 207.013 175.443 202.108 169.392 202.108 C 163.341 202.108 158.435 207.013 158.435 213.064 C 158.435 219.115 163.341 224.021 169.392 224.021 Z M 41.565 111.26 C 34.717 111.26 28.783 120.847 28.783 125.412 C 28.783 129.977 35.63 141.695 39.891 141.695 C 44.152 141.695 47.348 131.042 47.804 126.477 C 48.261 121.912 48.413 111.26 41.565 111.26 Z" fill="black"/>
</svg>
