<?xml version="1.0" encoding="utf-8"?>
<svg width="256" height="256" viewBox="0 0 256 256" fill="none" xmlns="http://www.w3.org/2000/svg">
  <path d="M 16 17.451 L 55.505 17.451 L 89.049 105.332 L 16 65.411 L 16 17.451 Z" fill="black"/>
  <path d="M 70.752 17.451 L 124.396 17.451 L 124.396 83.985 L 70.752 17.451 Z" fill="black"/>
  <path d="M 192.178 17.451 L 146.713 17.451 L 166.396 77.748 L 192.178 17.451 Z" fill="black"/>
  <path d="M 212.97 17.451 L 240 17.451 L 240 56.679 L 204.376 90.362 L 212.97 17.451 Z" fill="black"/>
  <path d="M 16 134.441 L 16 86.342 L 61.049 136.936 L 16 134.441 Z" fill="black"/>
  <path d="M 16 162.302 L 16 189.193 L 51.485 177.966 L 16 162.302 Z" fill="black"/>
  <path d="M 23.069 238.549 L 143.802 238.549 L 102.356 190.304 C 105.217 188.248 107.808 186.277 110.256 184.415 C 122.001 175.484 130.463 169.049 149.624 167.572 C 157.507 198.674 173.522 230.109 183.168 238.549 L 210.891 238.549 C 188.565 209.643 177.598 194.35 173.049 155.233 C 173.049 155.233 195.227 181.149 224.475 137.908 C 226.073 135.546 232.667 111.401 216.297 107.136 C 197.357 102.203 187.684 114.469 181.781 121.953 C 179.39 124.986 177.617 127.233 176.099 127.233 C 174.369 127.233 173.417 126.606 172.137 125.763 C 169.52 124.039 165.535 121.413 150.733 121.413 C 99.307 121.413 68.95 156.344 68.95 178.106 C 68.95 199.869 91.683 216.223 91.683 216.223 L 35.267 216.223 L 23.069 238.549 Z" fill="black"/>
</svg>
