<?xml version="1.0" encoding="utf-8"?>
<svg width="256" height="256" viewBox="0 0 256 256" fill="none" xmlns="http://www.w3.org/2000/svg">
  <path d="M 96.906 195.846 C 103.313 205.811 109.096 214.806 115.476 209.6 C 122.857 203.576 94.022 176.051 71.334 154.394 C 57.673 141.355 46.242 130.443 46.287 127.634 C 46.328 125.14 55.397 118.127 67.468 108.791 C 91.595 90.134 127.714 62.202 127.722 42.541 C 127.731 22.422 88.154 20.255 75.253 27.457 C 75.253 27.457 98.361 47.303 98.361 50.701 C 98.361 54.1 92.38 59.401 89.526 59.401 C 86.671 59.401 64.922 34.285 64.922 34.285 C 62.522 36.058 59.913 38.093 57.191 40.371 C 57.191 40.371 83.545 62.101 83.545 65.382 C 83.545 68.663 77.7 74.353 74.574 74.353 C 71.447 74.353 48.846 47.847 48.846 47.847 C 46.313 50.279 43.766 52.886 41.271 55.655 C 41.271 55.655 66.146 78.567 66.146 81.15 C 66.146 83.733 61.66 90.121 57.718 90.121 C 53.776 90.121 33.387 65.265 33.387 65.265 C 31.295 68.086 29.307 71.029 27.473 74.082 C 27.473 74.082 50.922 95.151 50.922 98.005 C 50.922 100.86 46.708 106.977 41.95 106.977 C 37.193 106.977 21.809 85.092 21.809 85.092 C 17.098 96.094 14.758 108.187 16.667 120.977 C 23.768 168.541 52.697 172.612 70.561 175.125 C 73.521 175.541 76.177 175.915 78.38 176.437 C 85.515 178.127 91.438 187.34 96.906 195.846 Z" fill="black"/>
  <path d="M 140.525 46.401 C 146.905 41.194 152.688 50.19 159.095 60.155 C 164.563 68.661 170.486 77.874 177.622 79.564 C 179.824 80.085 182.48 80.459 185.44 80.876 C 203.304 83.389 232.233 87.459 239.334 135.023 C 241.243 147.813 238.903 159.907 234.192 170.909 C 234.192 170.909 218.808 149.024 214.051 149.024 C 209.293 149.024 205.079 155.141 205.079 157.995 C 205.079 160.85 228.529 181.919 228.529 181.919 C 226.695 184.971 224.707 187.914 222.614 190.736 C 222.614 190.736 202.225 165.879 198.283 165.879 C 194.341 165.879 189.855 172.268 189.855 174.851 C 189.855 177.433 214.731 200.346 214.731 200.346 C 212.236 203.114 209.688 205.722 207.155 208.154 C 207.155 208.154 184.554 181.647 181.428 181.647 C 178.301 181.647 172.456 187.338 172.456 190.619 C 172.456 193.9 198.81 215.63 198.81 215.63 C 196.088 217.907 193.479 219.943 191.079 221.715 C 191.079 221.715 169.33 196.6 166.475 196.6 C 163.621 196.6 157.64 201.901 157.64 205.299 C 157.64 208.697 180.748 228.543 180.748 228.543 C 167.847 235.746 128.27 233.578 128.279 213.459 C 128.287 193.799 164.407 165.866 188.533 147.209 C 200.605 137.874 209.674 130.86 209.714 128.367 C 209.759 125.557 198.328 114.646 184.668 101.607 L 184.668 101.606 C 161.98 79.95 133.144 52.425 140.525 46.401 Z" fill="black"/>
  <path d="M 160.914 129.95 C 156.546 144.2 128.153 169.413 128.153 169.413 C 128.153 169.413 98.924 144.2 94.556 129.95 C 90.188 115.699 96.741 101.448 109.845 101.448 C 122.949 101.448 128.153 112.41 128.153 112.41 C 128.153 112.41 132.521 101.448 145.626 101.448 C 158.73 101.448 165.282 115.699 160.914 129.95 Z" fill="black"/>
</svg>
