<?xml version="1.0" encoding="utf-8"?>
<svg width="256" height="256" viewBox="0 0 256 256" fill="none" xmlns="http://www.w3.org/2000/svg">
  <path d="M 123.798 112.496 L 132.492 112.496 L 132.492 124.377 L 144.083 124.377 L 144.083 133.071 L 132.492 133.071 L 132.492 144.662 L 123.798 144.662 L 123.798 133.071 L 111.917 133.071 L 111.917 124.377 L 123.798 124.377 L 123.798 112.496 Z" fill="black"/>
  <path fill-rule="evenodd" clip-rule="evenodd" d="M 123.798 16.289 L 132.492 16.289 L 132.492 30.023 C 183.218 32.458 223.875 73.424 226.003 124.377 L 240 124.377 L 240 133.071 L 225.991 133.071 C 223.712 184.084 182.812 225.016 131.912 227.161 L 131.912 239.71 L 123.219 239.71 L 123.219 227.149 C 72.454 224.861 31.704 183.987 29.43 133.071 L 16 133.071 L 16 124.377 L 29.417 124.377 C 31.558 73.133 72.668 31.991 123.798 29.985 L 123.798 16.289 Z M 131.912 220.613 L 131.912 190.737 L 123.219 190.737 L 123.219 220.6 C 76.057 218.322 38.223 180.373 35.959 133.071 L 64.973 133.071 L 64.973 124.377 L 35.946 124.377 C 38.078 76.746 76.271 38.529 123.798 36.532 L 123.798 65.262 L 132.492 65.262 L 132.492 36.573 C 179.615 38.996 217.356 77.037 219.475 124.377 L 191.028 124.377 L 191.028 133.071 L 219.461 133.071 C 217.193 180.47 179.209 218.478 131.912 220.613 Z" fill="black"/>
</svg>
