<?xml version="1.0" encoding="utf-8"?>
<svg width="256" height="256" viewBox="0 0 256 256" fill="none" xmlns="http://www.w3.org/2000/svg">
  <path d="M 120.462 146.398 L 120.462 212.579 C 120.462 216.473 117.031 219.63 112.798 219.63 C 108.566 219.63 105.135 216.473 105.135 212.579 L 105.135 147.818 C 105.135 147.818 102.14 95.449 95.611 95.449 C 92.275 95.449 85.393 107.654 87.38 116.879 C 90.193 129.936 93.341 153.069 82.128 154.913 C 70.916 156.759 67.368 123.549 69.355 106.518 C 70.705 94.954 89.665 73.167 89.665 73.167 L 167.012 73.167 C 167.012 73.167 190.417 94.171 191.124 107.796 C 191.832 121.42 185.318 159.881 172.122 154.913 C 158.925 149.946 171.397 121.562 171.397 111.344 C 171.397 105.241 164.871 95.023 161.04 95.023 C 155.788 95.023 152.536 147.818 152.536 147.818 L 152.536 212.579 C 152.536 216.473 149.105 219.63 144.873 219.63 C 140.64 219.63 137.209 216.473 137.209 212.579 L 137.209 146.398 L 120.462 146.398 Z" fill="black"/>
  <path fill-rule="evenodd" clip-rule="evenodd" d="M 167.165 47.335 C 167.384 48.608 167.522 49.726 167.61 50.634 C 174.127 51.475 179.364 53.012 183.596 56.397 C 188.109 60.008 191.101 65.412 193.644 73.139 C 203.863 78.191 208.966 87.292 211.506 94.955 C 212.829 98.946 213.487 102.628 213.816 105.311 C 213.981 106.656 214.064 107.759 214.106 108.535 L 214.166 112.638 C 214.148 114.467 214.075 117.068 213.856 120.187 C 213.421 126.408 212.402 134.756 210.055 143.145 C 207.715 151.507 203.998 160.12 198.032 166.683 C 192.512 172.753 185.124 176.997 175.424 177.69 L 175.424 197.689 C 172.899 198.495 171.015 201.658 171.015 205.437 C 171.015 209.217 172.899 212.38 175.424 213.186 L 175.424 218.379 C 175.424 219.803 174.942 221.319 174.291 222.717 C 173.616 224.167 172.654 225.713 171.456 227.252 C 169.063 230.327 165.613 233.525 161.301 235.95 C 152.847 240.706 141.186 242.406 128.174 234.7 C 115.02 241.358 104.143 240.207 96.391 235.843 C 92.44 233.619 89.389 230.607 87.314 227.538 C 85.278 224.528 84.027 221.227 84.027 218.379 L 84.027 177.565 C 68.715 175.976 59.285 169.165 53.729 159.319 C 48.015 149.193 46.603 136.192 46.266 123.51 C 45.747 103.985 46.08 86.568 60.754 74.791 C 61.562 73.59 62.345 72.393 63.118 71.212 C 66.329 66.306 69.359 61.677 73.223 58.148 C 77.904 53.872 83.75 51.186 92.473 50.493 C 92.529 49.631 92.624 48.598 92.78 47.437 C 93.241 44.023 94.252 39.422 96.475 34.784 C 98.706 30.131 102.179 25.397 107.564 21.837 C 112.96 18.269 120.095 16 129.441 16 C 138.79 16 145.991 18.269 151.493 21.82 C 156.981 25.362 160.614 30.071 163.009 34.708 C 165.397 39.332 166.577 43.923 167.165 47.335 Z M 98.191 56.045 L 98.085 53.198 L 98.416 48.311 C 98.824 45.286 99.711 41.301 101.604 37.353 C 103.489 33.42 106.349 29.567 110.704 26.687 C 115.047 23.816 121.058 21.792 129.451 21.792 C 137.843 21.792 143.947 23.816 148.424 26.705 C 152.914 29.602 155.934 33.479 157.974 37.428 C 160.021 41.391 161.058 45.386 161.58 48.413 L 162.093 53.304 L 162.093 55.864 L 164.646 56.122 C 172.01 56.866 176.639 58.209 180.06 60.945 C 183.479 63.68 186.109 68.147 188.621 76.146 L 189.003 77.365 L 190.17 77.887 C 199.161 81.908 203.764 89.727 206.127 96.856 C 207.303 100.405 207.895 103.704 208.191 106.117 C 208.338 107.32 208.411 108.294 208.447 108.957 L 208.499 112.695 C 208.482 114.429 208.412 116.916 208.203 119.905 C 207.783 125.897 206.807 133.835 204.598 141.731 C 202.38 149.655 198.979 157.327 193.841 162.979 C 188.782 168.543 181.98 172.228 172.595 172.228 L 169.757 172.228 L 169.757 218.494 C 169.757 218.738 169.643 219.386 169.155 220.436 C 168.69 221.434 167.968 222.618 166.986 223.88 C 165.02 226.407 162.132 229.09 158.527 231.117 C 151.454 235.096 141.508 236.642 129.827 229.161 L 128.415 228.256 L 126.941 229.057 C 114.641 235.742 105.329 234.47 99.185 231.011 C 96.045 229.244 93.636 226.854 92.025 224.473 C 90.375 222.032 89.713 219.833 89.713 218.495 L 89.713 172.228 L 86.963 172.228 C 71.817 171.269 63.492 165.168 58.683 156.644 C 53.707 147.826 52.285 136.062 51.951 123.474 C 51.417 103.386 52.132 88.883 64.622 79.091 L 64.973 78.816 L 65.222 78.447 C 66.261 76.911 67.216 75.455 68.119 74.079 C 71.259 69.292 73.776 65.455 77.061 62.454 C 81.033 58.826 86.209 56.424 95.338 56.135 L 98.191 56.045 Z" fill="black"/>
  <path d="M 184.789 206.919 C 185.185 205.16 186.931 204.055 188.69 204.451 L 218.043 211.061 C 219.801 211.457 220.906 213.204 220.51 214.963 C 220.114 216.721 218.367 217.826 216.608 217.43 L 187.256 210.82 C 185.497 210.424 184.393 208.678 184.789 206.919 Z" fill="black"/>
  <path d="M 54.697 179.65 C 53.285 178.529 51.232 178.766 50.111 180.178 L 31.406 203.744 C 30.286 205.157 30.522 207.21 31.934 208.331 C 33.346 209.451 35.399 209.215 36.52 207.803 L 55.224 184.236 C 56.345 182.824 56.109 180.771 54.697 179.65 Z" fill="black"/>
  <path d="M 50.925 68.846 C 52.191 67.563 52.177 65.496 50.894 64.23 L 29.473 43.101 C 28.19 41.835 26.123 41.85 24.857 43.133 C 23.591 44.417 23.606 46.483 24.889 47.749 L 46.309 68.878 C 47.593 70.144 49.659 70.13 50.925 68.846 Z" fill="black"/>
  <path d="M 204.469 62.641 C 205.752 63.907 207.819 63.893 209.085 62.609 L 230.214 41.189 C 231.48 39.905 231.465 37.839 230.182 36.573 C 228.899 35.307 226.832 35.321 225.566 36.604 L 204.437 58.025 C 203.171 59.308 203.186 61.375 204.469 62.641 Z" fill="black"/>
  <path d="M 207.92 186.744 C 209.014 188.177 208.739 190.225 207.306 191.319 L 200.278 196.684 C 198.844 197.777 196.796 197.502 195.702 196.069 C 194.609 194.636 194.884 192.588 196.317 191.494 L 203.345 186.13 C 204.778 185.036 206.827 185.311 207.92 186.744 Z" fill="black"/>
  <path d="M 27.915 178.781 C 27.915 180.583 29.376 182.045 31.179 182.045 L 40.02 182.045 C 41.823 182.045 43.285 180.583 43.285 178.781 C 43.285 176.978 41.823 175.516 40.02 175.516 L 31.179 175.516 C 29.376 175.516 27.915 176.978 27.915 178.781 Z" fill="black"/>
  <path d="M 57.335 37.971 C 55.533 37.971 54.071 39.432 54.071 41.235 L 54.071 50.076 C 54.071 51.879 55.533 53.34 57.335 53.34 C 59.138 53.34 60.6 51.879 60.6 50.076 L 60.6 41.235 C 60.6 39.432 59.138 37.971 57.335 37.971 Z" fill="black"/>
  <path d="M 232.083 68.2 C 232.083 66.397 230.621 64.936 228.818 64.936 L 219.977 64.936 C 218.174 64.936 216.713 66.397 216.713 68.2 C 216.713 70.002 218.174 71.464 219.977 71.464 L 228.818 71.464 C 230.621 71.464 232.083 70.002 232.083 68.2 Z" fill="black"/>
  <path d="M 196.515 236.235 C 194.934 237.101 192.95 236.521 192.084 234.94 L 186.207 224.209 C 185.341 222.628 185.921 220.644 187.502 219.778 C 189.083 218.912 191.067 219.492 191.933 221.073 L 197.81 231.804 C 198.676 233.386 198.096 235.369 196.515 236.235 Z" fill="black"/>
  <path d="M 60.458 210.293 C 62.261 210.293 63.722 208.831 63.722 207.028 L 63.722 194.793 C 63.722 192.991 62.261 191.529 60.458 191.529 C 58.655 191.529 57.194 192.991 57.194 194.793 L 57.194 207.028 C 57.194 208.831 58.655 210.293 60.458 210.293 Z" fill="black"/>
  <path d="M 27.235 80.841 C 27.933 82.504 29.846 83.285 31.509 82.587 L 38.627 79.598 C 40.29 78.9 41.071 76.987 40.373 75.325 C 39.675 73.663 37.762 72.881 36.1 73.579 L 28.981 76.568 C 27.319 77.266 26.537 79.179 27.235 80.841 Z" fill="black"/>
  <path d="M 196.418 35.416 C 194.615 35.416 193.154 36.877 193.154 38.68 L 193.154 46.401 C 193.154 48.204 194.615 49.665 196.418 49.665 C 198.221 49.665 199.682 48.204 199.682 46.401 L 199.682 38.68 C 199.682 36.877 198.221 35.416 196.418 35.416 Z" fill="black"/>
  <path d="M 145.753 53.582 C 145.753 62.204 138.764 69.193 130.142 69.193 C 121.52 69.193 114.53 62.204 114.53 53.582 C 114.53 44.96 121.52 37.971 130.142 37.971 C 138.764 37.971 145.753 44.96 145.753 53.582 Z" fill="black"/>
</svg>
