<?xml version="1.0" encoding="utf-8"?>
<svg width="256" height="256" viewBox="0 0 256 256" fill="none" xmlns="http://www.w3.org/2000/svg">
  <path d="M 121.971 21.662 L 135.257 21.662 L 135.257 116.153 L 156.377 87.142 L 167.118 94.962 L 145.895 124.115 L 235.876 94.734 L 240 107.364 L 149.402 136.945 L 184.009 148.245 L 179.885 160.875 L 146.92 150.111 L 202.546 226.52 L 191.805 234.338 L 135.257 156.664 L 135.257 194.062 L 121.971 194.062 L 121.971 156.976 L 65.65 234.338 L 54.909 226.52 L 110.989 149.488 L 76.115 160.875 L 71.991 148.245 L 106.598 136.945 L 16 107.364 L 20.124 94.734 L 112.015 124.738 L 90.337 94.962 L 101.078 87.142 L 121.971 115.841 L 121.971 21.662 Z" fill="black"/>
</svg>
