<?xml version="1.0" encoding="utf-8"?>
<svg width="256" height="256" viewBox="0 0 256 256" fill="none" xmlns="http://www.w3.org/2000/svg">
  <path fill-rule="evenodd" clip-rule="evenodd" d="M 111.238 98.945 C 111.238 98.945 111.238 117.365 98.496 123.721 C 90.194 127.862 83.708 159.133 83.708 159.133 C 76.953 142.804 81.017 132.443 91.751 115.549 C 65.678 115.549 60.359 131.244 56.338 164.581 C 49.204 162.895 46.609 157.836 43.237 146.162 C 43.237 175.348 50.212 187.784 72.293 204.015 C 71.728 186.848 73.025 178.58 83.708 170.937 C 83.708 170.937 103.555 195.972 124.569 195.972 C 141.172 195.972 156.479 176.904 156.479 176.904 C 152.328 195.583 142.08 207.647 127.043 207.647 C 112.006 207.647 96.161 195.972 96.161 195.972 C 96.161 202.847 95.123 208.685 91.621 214.132 C 91.621 214.132 107.705 227.104 130.276 227.104 C 152.846 227.104 162.705 212.446 162.705 210.5 C 162.705 208.108 162.157 207.29 161.541 206.371 C 160.788 205.247 159.933 203.97 159.851 199.475 C 159.703 191.303 170.877 174.699 175.936 174.699 C 180.995 174.699 185.665 182.612 185.665 182.612 C 185.665 182.612 205.122 173.013 205.122 137.341 C 205.122 90.862 170.358 70.407 170.358 70.407 C 187.61 93.108 197.858 105.431 195.912 133.579 C 188 122.553 180.865 115.419 171.929 116.197 C 184.791 131.13 188.908 139.375 180.476 153.555 C 179.049 137.6 162.446 118.61 144.674 112.306 C 134.382 108.655 134.168 95.054 134.168 95.054 C 139.115 93.012 141.759 86.643 142.729 83.898 C 125.217 77.618 106 80.655 97.458 99.723 C 97.458 99.723 105.111 91.162 112.375 91.292 C 119.639 91.421 117.305 97.518 128.201 98.815 C 128.201 98.815 119.25 105.171 111.238 98.945 Z M 131.184 134.747 C 154.145 134.747 158.554 161.728 158.554 161.728 C 158.554 161.728 166.596 125.537 129.368 126.054 C 109.783 126.327 98.496 140.711 98.496 156.407 C 98.496 172.104 113.285 183.908 125.867 183.908 C 138.448 183.908 149.344 176.644 149.344 162.505 C 149.344 148.366 140.653 143.602 131.184 143.697 C 121.715 143.793 111.337 154.983 116.396 160.431 C 118.444 162.636 125.217 163.414 128.071 160.431 C 128.946 159.516 129.462 158.328 129.956 157.188 C 131.022 154.733 131.992 152.499 136.243 153.685 C 142.469 155.423 140.264 172.365 125.867 172.365 C 114.84 172.365 107.705 161.468 107.705 155.242 C 107.705 149.016 115.099 134.747 131.184 134.747 Z M 158.165 173.402 C 160.457 173.402 162.316 171.543 162.316 169.251 C 162.316 166.958 160.457 165.1 158.165 165.1 C 155.872 165.1 154.014 166.958 154.014 169.251 C 154.014 171.543 155.872 173.402 158.165 173.402 Z" fill="black"/>
  <path fill-rule="evenodd" clip-rule="evenodd" d="M 95.054 77.618 C 96.923 78.71 98.947 79.892 100.899 81.56 C 101.522 82.091 102.046 82.817 102.518 83.638 C 102.518 83.638 112.735 74.299 125.217 74.299 C 137.7 74.299 148.955 83.12 156.608 85.195 C 156.608 85.195 150.157 80.525 150.123 77.618 C 150.088 74.71 155.899 73.883 158.02 68.911 C 158.529 67.718 159.009 61.097 158.02 60.548 C 157.031 59.999 151.031 62.639 151.031 62.639 L 151.031 56.989 L 159.203 56.989 C 144.156 40.962 106.668 44.464 94.474 54.323 L 94.474 62.639 C 94.474 62.639 88.377 59.712 87.498 60.548 C 86.619 61.385 87.334 67.751 87.498 68.911 C 88.158 73.59 91.293 75.42 95.054 77.618 Z M 112.041 71.186 C 115.378 71.186 118.083 66.449 118.083 62.639 C 118.083 58.829 115.378 54.323 112.041 54.323 C 108.705 54.323 106 58.829 106 62.639 C 106 66.449 108.705 71.186 112.041 71.186 Z M 139.126 62.639 C 139.126 66.449 136.422 71.186 133.085 71.186 C 129.748 71.186 127.043 66.449 127.043 62.639 C 127.043 58.829 129.748 54.323 133.085 54.323 C 136.422 54.323 139.126 58.829 139.126 62.639 Z" fill="black"/>
  <path d="M 41.294 122.034 C 70.481 27.731 132.095 34.346 148.306 43.167 C 148.306 31.752 139.255 21.245 122.233 21.245 C 107.445 21.246 100.076 29.807 96.6 37.589 C 57.249 56.009 40.776 98.036 41.294 122.034 Z" fill="black"/>
  <path d="M 16 69.11 C 30.013 47.733 41.867 34.951 59.325 20.207 C 44.149 20.207 18.205 49.134 16 69.11 Z" fill="black"/>
  <path d="M 173.215 20.859 C 209.925 36.035 233.791 75.08 239.756 94.408 C 243.522 61.328 202.922 20.859 173.215 20.859 Z" fill="black"/>
  <path d="M 19.503 195.453 C 20.792 210.746 25.169 222.059 38.183 235.793 L 29.751 235.793 C 24.952 230.217 13.146 212.835 19.503 195.453 Z" fill="black"/>
  <path d="M 232.495 186.892 C 228.231 206.224 222.801 219.603 213.298 235.793 L 224.324 235.793 C 231.069 219.839 235.479 204.922 232.495 186.892 Z" fill="black"/>
  <path d="M 215.373 214.392 C 215.373 218.931 204.088 235.793 200.845 235.793 L 196.824 235.793 C 195.786 235.793 194.789 232.887 193.84 228.401 C 192.869 223.808 194.203 212.885 192.673 211.408 C 188.911 207.776 175.81 212.835 175.81 212.835 C 192.673 199.734 202.272 189.227 210.833 167.175 C 210.833 167.175 209.796 183.519 209.666 194.675 C 209.536 205.83 215.373 209.852 215.373 214.392 Z" fill="black"/>
  <path d="M 167.508 219.061 C 160.374 227.493 148.161 232.127 135.728 235.793 L 175.81 235.793 C 170.248 231.466 168.157 225.936 167.508 219.061 Z" fill="black"/>
  <path d="M 92.014 225.288 C 92.014 225.288 88.252 233.2 85.009 235.793 L 122.886 235.793 C 110.174 234.108 100.056 233.071 92.014 225.288 Z" fill="black"/>
  <path d="M 81.896 224.639 C 70.74 224.639 68.795 227.752 68.795 235.793 L 48.948 235.793 C 38.561 228.315 39.609 216.597 44.408 205.96 C 46.974 200.272 46.224 191.043 46.224 191.043 C 57.555 205.972 65.631 213.598 81.896 224.639 Z" fill="black"/>
  <path d="M 158.688 85.843 C 159.336 88.956 163.487 91.421 166.471 92.199 C 165.641 89.422 161.93 86.881 158.688 85.843 Z" fill="black"/>
</svg>
