<?xml version="1.0" encoding="utf-8"?>
<svg width="256" height="256" viewBox="0 0 256 256" fill="none" xmlns="http://www.w3.org/2000/svg">
  <path fill-rule="evenodd" clip-rule="evenodd" d="M 16 200.656 C 16.001 204.46 18.493 206.164 18.493 206.164 C 18.493 206.164 56 206.82 57.967 206.164 C 59.013 205.816 60.022 199.795 60.974 194.113 C 61.813 189.109 62.607 184.369 63.344 184.001 C 64.917 183.214 80.001 183.214 80.001 183.214 C 92.314 183.214 102.296 173.232 102.296 160.919 C 102.296 158.263 102.23 156.461 101.378 154.099 C 101.378 154.099 103.475 151.257 105.705 149.771 C 107.934 148.284 111.869 145.836 111.869 145.836 L 140.066 145.836 L 140.066 133.902 L 145.574 133.902 L 145.574 122.492 L 140.066 122.492 L 140.066 116.682 L 133.508 116.681 L 133.508 113.705 L 117.901 113.685 L 117.901 116.681 L 49.967 116.681 L 49.967 113.705 L 41.705 113.837 L 41.705 116.681 L 36.197 116.681 C 32.189 116.687 28.21 118.939 25.444 121.706 C 21.772 125.378 17.574 138.1 19.016 139.541 C 19.592 140.116 20.86 139.575 21.377 139.279 C 22.295 138.755 23.093 138.766 24.262 139.935 C 25.213 140.886 24.273 147.368 23.093 155.492 C 22.876 156.991 22.65 158.546 22.426 160.132 C 21.906 163.824 20.788 170.361 19.629 177.144 C 17.863 187.468 15.999 198.361 16 200.656 Z M 79.213 175.607 C 87.036 175.607 93.377 169.265 93.377 161.443 C 93.377 153.62 87.036 147.279 79.213 147.279 C 71.39 147.279 65.049 153.62 65.049 161.443 C 65.049 169.265 71.39 175.607 79.213 175.607 Z" fill="black"/>
  <path d="M 105.892 183.11 C 102.923 186.274 99.332 188.848 95.315 190.638 C 96.223 191.491 97.152 192.325 98.1 193.141 C 114.943 207.62 136.74 215.012 158.917 213.767 C 181.093 212.521 201.925 202.734 217.041 186.459 C 232.156 170.185 240.38 148.687 239.987 126.48 C 239.593 104.272 230.613 83.08 214.931 67.35 C 199.249 51.621 178.084 42.577 155.877 42.117 C 133.67 41.658 112.149 49.817 95.829 64.884 C 83.993 75.811 75.561 89.754 71.32 105.05 L 84.571 105.05 C 88.435 93.345 95.225 82.703 104.433 74.203 C 118.343 61.361 136.687 54.406 155.615 54.798 C 174.542 55.19 192.583 62.898 205.949 76.305 C 219.317 89.712 226.971 107.775 227.306 126.704 C 227.641 145.633 220.631 163.956 207.748 177.828 C 194.864 191.699 177.107 200.042 158.205 201.103 C 139.303 202.165 120.725 195.864 106.368 183.523 C 106.209 183.386 106.05 183.248 105.892 183.11 Z" fill="black"/>
  <path d="M 113.556 105.05 L 97.86 105.05 C 100.7 98.352 104.763 92.168 109.909 86.842 C 120.557 75.82 135.03 69.307 150.341 68.646 C 165.651 67.986 180.631 73.228 192.189 83.291 C 203.746 93.355 211 107.471 212.453 122.727 C 213.905 137.983 209.445 153.215 199.992 165.277 C 190.542 177.341 176.819 185.315 161.659 187.555 C 146.498 189.795 131.057 186.129 118.52 177.314 C 116.423 175.839 114.434 174.239 112.561 172.527 C 113.987 168.852 114.768 164.855 114.768 160.676 C 114.768 160.676 114.685 158.538 114.644 158.074 C 115.35 157.524 116.075 156.967 116.762 156.449 C 119.531 160.018 122.836 163.187 126.595 165.83 C 136.189 172.576 148.006 175.381 159.607 173.667 C 171.208 171.953 181.709 165.85 188.942 156.619 C 196.175 147.388 199.589 135.732 198.477 124.057 C 197.366 112.383 191.815 101.58 182.97 93.879 C 174.125 86.178 162.662 82.167 150.946 82.672 C 139.229 83.178 128.154 88.162 120.006 96.596 C 117.515 99.174 115.356 102.014 113.556 105.05 Z" fill="black"/>
  <path d="M 153.968 113.574 C 157.712 113.843 162.282 115.241 164.843 117.986 C 167.404 120.731 168.832 124.344 168.84 128.098 C 168.849 131.853 167.437 135.471 164.888 138.228 C 162.339 140.985 158.843 142.676 155.099 142.961 C 154.241 143.027 153.384 143.017 152.538 142.936 L 152.538 145.594 C 152.538 151.388 146.123 158.074 140.328 158.074 C 144.426 159.777 150.296 160.242 156.382 159.777 C 164.37 159.168 171.833 155.56 177.272 149.677 C 182.71 143.794 185.723 136.072 185.705 128.06 C 185.687 120.048 182.64 112.34 177.174 106.482 C 171.709 100.624 164.23 97.049 156.239 96.475 C 148.474 95.918 142.553 97.56 136.394 102.296 C 140.167 102.3 142.68 104.218 144.525 107.21 C 147.109 107.809 149.485 109.753 150.946 111.869 C 151.6 112.074 153.195 113.083 153.968 113.574 Z" fill="black"/>
</svg>
