<?xml version="1.0" encoding="utf-8"?>
<svg width="256" height="256" viewBox="0 0 256 256" fill="none" xmlns="http://www.w3.org/2000/svg">
  <path d="M 204.61 26.648 C 202.043 24.468 150.758 52.933 150.758 54.985 C 150.758 55.859 152.465 56.478 154.917 57.366 C 158.216 58.562 162.866 60.246 166.529 63.703 C 170.061 67.036 172.26 71.629 173.926 75.109 C 175.308 77.995 176.323 80.116 177.428 80.116 C 179.864 80.116 207.178 28.828 204.61 26.648 Z" fill="black"/>
  <path d="M 104.886 146.434 L 104.882 146.439 L 104.877 146.443 C 96.681 154.812 88.889 162.768 89.979 164.099 C 91.576 166.051 148.451 114.094 148.451 109.478 C 148.451 104.862 120.371 94.604 111.011 94.604 C 101.652 94.604 63.183 139.737 65.619 142.943 C 66.975 144.726 71.623 141.946 76.298 139.15 C 80.026 136.92 83.77 134.68 85.876 134.737 C 88.413 134.806 90.694 136.561 92.797 138.18 C 94.625 139.588 96.318 140.891 97.928 140.891 C 99.353 140.891 103.144 137.743 107.337 134.26 L 107.34 134.258 L 107.344 134.254 C 113.338 129.276 120.148 123.62 122.033 125.505 C 123.725 127.197 114.055 137.072 104.886 146.434 Z" fill="black"/>
  <path d="M 46.132 208.207 C 44.978 206.925 62.415 184.615 65.236 184.615 C 68.057 184.615 68.057 185.64 68.057 187.82 C 68.057 190 47.286 209.489 46.132 208.207 Z" fill="black"/>
  <path fill-rule="evenodd" clip-rule="evenodd" d="M 142.42 63.703 C 157.291 63.703 170.244 80.244 167.936 88.45 C 167.67 89.397 167.079 90.078 166.527 90.714 C 165.81 91.54 165.158 92.29 165.376 93.451 C 165.76 95.502 179.48 98.708 191.404 98.708 C 203.329 98.708 215.638 96.784 221.536 88.45 C 226.423 81.544 219.779 61.612 217.357 54.98 C 217.168 54.463 217.82 54.052 218.207 54.443 C 232.392 68.802 240 88.395 240 110.247 C 240 132.942 232.562 147.046 215.125 147.046 C 198.611 147.046 178.072 134.282 172.675 126.177 C 172.402 125.768 172.837 125.331 173.277 125.551 C 179.403 128.615 204.433 140.891 212.176 140.891 C 218.697 140.891 225.22 136.92 228.197 134.833 C 228.637 134.525 228.341 133.876 227.813 133.967 C 224.932 134.459 219.377 135.25 213.458 135.25 C 205.818 135.25 191.687 127.035 185.767 123.594 L 184.877 123.077 C 184.528 122.875 184.223 122.7 183.968 122.556 C 182.865 121.936 180.42 120.307 177.036 118.051 L 177.03 118.047 L 177.016 118.038 L 177.012 118.035 L 177 118.026 C 167.78 111.884 151.637 101.129 136.655 93.451 C 115.468 82.592 92.715 79.218 87.803 79.218 C 77.802 79.218 65.621 81.141 66.647 84.219 C 67.422 86.543 75.216 86.014 81.084 85.617 L 81.088 85.616 L 81.103 85.616 C 82.997 85.487 84.688 85.373 85.876 85.373 C 89.366 85.373 93.911 88.4 96.209 90.117 C 96.626 90.429 96.351 91.056 95.836 90.978 C 91.567 90.328 80.842 88.87 74.083 89.476 C 65.493 90.245 43.174 97.554 42.029 117.171 C 41.319 129.322 56.64 145.606 71.147 161.025 C 80.062 170.499 88.668 179.646 93.06 187.307 C 104.6 207.438 112.549 229.235 112.549 229.235 L 86.649 229.235 C 86.649 229.235 93.701 223.465 93.701 210.13 C 93.701 196.795 67.031 165.382 67.031 165.382 C 67.031 165.382 82.29 195 82.29 206.027 C 82.29 216.476 78.49 225.774 66.745 229.447 C 66.233 229.607 65.85 228.935 66.223 228.549 C 69.427 225.239 76.648 216.603 76.648 206.027 C 76.648 192.436 59.338 157.047 56.133 157.047 C 54.753 157.047 50.001 161.654 44.178 167.301 L 44.175 167.304 C 36.466 174.779 26.879 184.074 20.744 186.923 C 23.595 181.221 31.764 173.004 38.821 165.905 C 45.095 159.594 50.491 154.166 50.491 152.175 C 50.491 148.788 40.549 137.759 34.806 131.389 C 33.375 129.802 32.205 128.504 31.515 127.685 C 28.053 123.582 16 106.785 16 89.989 C 16 73.192 35.489 63.703 58.569 63.703 C 77.103 63.703 102.666 71.146 113.875 74.409 C 116.624 75.209 118.51 75.758 119.217 75.884 C 122.807 76.526 124.858 75.884 127.423 74.218 C 128.17 73.732 129.432 72.636 130.94 71.327 C 134.606 68.145 139.722 63.703 142.42 63.703 Z M 225.254 104.093 C 233.331 96.015 229.1 79.603 228.075 79.603 C 227.976 79.603 227.893 80.095 227.757 80.92 C 227.249 83.966 225.989 91.557 220.254 95.758 C 213.702 100.559 202.867 102.301 198.061 103.074 C 196.551 103.317 195.636 103.464 195.636 103.58 C 195.636 104.477 217.176 112.171 225.254 104.093 Z" fill="black"/>
  <path d="M 38.274 216.577 C 36.738 218.113 35.089 218.956 34.592 218.459 C 34.095 217.962 34.937 216.314 36.474 214.777 C 38.01 213.241 39.658 212.398 40.156 212.895 C 40.653 213.392 39.81 215.041 38.274 216.577 Z" fill="black"/>
  <path d="M 163.204 119.19 C 162.846 119.597 163.71 120.943 165.134 122.196 C 166.559 123.45 168.003 124.137 168.361 123.73 C 168.719 123.323 167.855 121.977 166.431 120.723 C 165.007 119.47 163.562 118.783 163.204 119.19 Z" fill="black"/>
</svg>
