<?xml version="1.0" encoding="utf-8"?>
<svg width="256" height="256" viewBox="0 0 256 256" fill="none" xmlns="http://www.w3.org/2000/svg">
  <path d="M 45.734 166.977 L 45.734 89.948 L 138.631 89.948 L 138.631 59.907 L 215.66 128.925 L 138.631 195.786 L 138.631 166.977 L 45.734 166.977 Z" fill="black"/>
  <path d="M 45.734 166.977 L 45.734 89.948 L 138.631 89.948 L 138.631 59.907 L 215.66 128.925 L 138.631 195.786 L 138.631 166.977 L 45.734 166.977 Z" fill="black"/>
  <path d="M 62.199 28.973 C 62.199 24.276 66.009 20.468 70.708 20.468 C 75.409 20.468 79.22 24.276 79.22 28.973 L 79.22 45.073 L 62.199 45.073 L 62.199 28.973 Z" fill="black"/>
  <path d="M 119.946 20.468 C 115.245 20.468 111.437 24.276 111.437 28.973 L 111.437 45.073 L 128.455 45.073 L 128.455 28.973 C 128.455 24.276 124.647 20.468 119.946 20.468 Z" fill="black"/>
  <path d="M 169.185 20.468 C 164.483 20.468 160.673 24.276 160.673 28.973 L 160.673 45.073 L 177.694 45.073 L 177.694 28.973 C 177.694 24.276 173.883 20.468 169.185 20.468 Z" fill="black"/>
  <path d="M 33.934 58.135 C 24.028 58.135 16 66.159 16 76.057 L 16 179.944 C 16 189.842 24.028 197.866 33.934 197.866 L 128.992 197.866 C 128.846 197.191 128.771 196.495 128.771 195.786 L 128.771 178.729 L 35.149 178.729 L 35.149 77.272 L 128.771 77.272 L 128.771 59.907 C 128.771 59.306 128.826 58.713 128.932 58.135 L 33.934 58.135 Z" fill="black"/>
  <path d="M 151.427 58.135 L 172.786 77.272 L 204.743 77.272 L 204.743 105.906 L 222.238 121.582 C 224.347 123.47 225.541 126.173 225.519 129.003 C 225.498 131.832 224.26 134.516 222.123 136.371 L 204.743 151.457 L 204.743 178.729 L 173.322 178.729 L 151.275 197.866 L 205.961 197.866 C 215.864 197.866 223.892 189.842 223.892 179.944 L 223.892 153.517 L 232.402 153.517 C 236.6 153.517 240 150.116 240 145.923 L 240 110.078 C 240 105.884 236.6 102.484 232.402 102.484 L 223.892 102.484 L 223.892 76.057 C 223.892 66.159 215.864 58.135 205.961 58.135 L 151.427 58.135 Z" fill="black"/>
  <path d="M 62.199 227.028 C 62.199 231.725 66.009 235.532 70.708 235.532 C 75.409 235.532 79.22 231.725 79.22 227.028 L 79.22 210.928 L 62.199 210.928 L 62.199 227.028 Z" fill="black"/>
  <path d="M 111.437 227.028 C 111.437 231.725 115.245 235.532 119.946 235.532 C 124.647 235.532 128.455 231.725 128.455 227.028 L 128.455 210.928 L 111.437 210.928 L 111.437 227.028 Z" fill="black"/>
  <path d="M 160.673 227.028 C 160.673 231.725 164.483 235.532 169.185 235.532 C 173.883 235.532 177.694 231.725 177.694 227.028 L 177.694 210.928 L 160.673 210.928 L 160.673 227.028 Z" fill="black"/>
</svg>
