<?xml version="1.0" encoding="utf-8"?>
<svg width="256" height="256" viewBox="0 0 256 256" fill="none" xmlns="http://www.w3.org/2000/svg">
  <path d="M 210.988 144.952 C 193.43 153.756 167.968 162.557 136.213 162.557 C 133.818 162.557 131.877 160.615 131.877 158.221 C 131.877 155.827 133.818 153.886 136.213 153.886 C 166.336 153.886 190.469 145.541 207.102 137.201 C 215.418 133.031 221.848 128.867 226.197 125.761 C 228.371 124.209 230.026 122.921 231.138 122.026 C 231.694 121.578 232.118 121.227 232.418 120.98 C 232.418 120.98 233.189 120.366 233.336 120.273 C 233.403 120.231 233.562 120.133 233.773 120.03 L 233.775 120.03 C 233.797 120.018 234.59 119.596 235.665 119.596 L 240 119.596 L 240 128.267 L 237.208 128.267 C 237.018 128.423 236.805 128.596 236.572 128.784 C 235.35 129.764 233.564 131.155 231.236 132.818 C 226.582 136.141 219.768 140.549 210.988 144.952 Z" fill="black"/>
  <path fill-rule="evenodd" clip-rule="evenodd" d="M 34.533 191.201 C 33.782 172.229 33.366 161.718 38.092 154.638 C 43.963 145.842 57.771 142.344 88.733 134.499 L 88.742 134.497 C 92.06 133.656 95.573 132.766 99.296 131.814 C 99.781 148.21 101.146 161.118 102.235 171.413 C 106.452 211.275 106.524 211.957 35.315 224.173 C 35.315 210.954 34.887 200.139 34.533 191.201 Z M 85.764 147.317 C 80.377 144.295 68.422 146.66 61.853 149.55 C 55.284 152.44 48.058 158.615 48.058 161.9 C 48.058 165.184 54.102 167.812 61.327 167.68 C 68.553 167.549 74.991 165.315 78.407 162.819 C 81.822 160.323 91.15 150.339 85.764 147.317 Z M 39.519 186.73 C 39.519 183.577 45.037 177.665 48.058 177.665 C 51.294 177.665 52.041 180.973 52.131 185.285 C 52.221 189.596 48.158 193.976 43.854 193.693 C 40.096 193.446 39.519 189.883 39.519 186.73 Z" fill="black"/>
  <path fill-rule="evenodd" clip-rule="evenodd" d="M 64.621 20.283 L 64.613 24.618 C 64.612 25.272 64.457 25.841 64.421 25.974 C 64.421 25.974 63.82 27.831 63.659 28.302 C 63.221 29.58 62.624 31.35 61.956 33.61 C 60.622 38.129 58.995 44.646 57.855 52.984 C 55.633 69.239 55.253 92.493 62.586 121.414 C 67.871 120.243 77.344 118.308 86.218 116.521 C 92.011 115.354 97.619 114.236 101.779 113.411 C 102.297 113.242 103.701 111.299 105.498 108.812 C 109.206 103.676 114.592 96.22 117.335 97.262 C 121.408 98.809 122.484 105.67 122.484 105.67 C 129.578 107.772 184.428 117.501 239.737 88.066 L 239.737 102.254 C 188.112 124.531 141.539 117.537 124.333 114.954 C 120.128 114.322 117.677 113.954 117.335 114.341 C 115.595 116.312 114.335 125.761 114.335 125.761 C 115.867 131.498 117.054 137.171 117.685 141.538 C 118.331 146.006 118.729 149.916 118.966 152.711 C 118.971 152.755 119.035 153.638 119.108 154.643 L 119.109 154.66 L 119.109 154.663 L 119.11 154.672 C 119.205 155.986 119.315 157.496 119.326 157.604 C 119.364 157.986 119.418 158.544 119.483 159.254 C 119.614 160.674 119.789 162.706 119.968 165.164 C 120.327 170.072 120.706 176.524 120.781 183.397 C 120.856 190.239 120.098 196.781 119.21 202.799 C 118.767 205.802 118.138 208.65 117.23 211.057 C 116.354 213.377 115.036 215.785 112.899 217.312 C 106.913 221.587 99.125 225.651 90.818 228.542 C 86.615 230.005 82.542 231.223 79.083 232.082 C 75.741 232.911 72.638 233.491 70.538 233.491 L 17.833 235.733 C 17.833 235.733 15.984 165.901 16 164.812 C 16.032 162.641 16.129 159.676 16.394 156.528 C 16.657 153.401 17.093 149.985 17.833 146.951 C 18.527 144.108 19.652 140.853 21.756 138.749 C 23.533 136.972 26.557 135.219 29.662 133.654 C 32.912 132.016 36.758 130.341 40.572 128.8 C 45.475 126.82 50.46 125.008 54.232 123.746 C 46.548 93.556 46.9 69.104 49.264 51.809 C 50.472 42.969 52.203 36.02 53.64 31.154 C 54.359 28.722 55.15 26.383 55.606 25.055 C 55.751 24.633 55.86 24.314 55.943 24.061 L 55.95 20.267 L 64.621 20.283 Z M 105.864 122.225 C 103.967 122.602 101.353 122.677 98.522 122.758 C 95.154 122.854 91.477 122.96 88.335 123.593 C 76.83 125.91 64.737 129.136 61.714 129.942 L 61.59 129.975 C 58.858 130.704 50.978 133.099 43.525 136.109 C 39.818 137.606 36.192 139.191 33.21 140.694 C 30.082 142.27 28.114 143.538 27.33 144.323 C 26.871 144.781 26.141 146.157 25.491 148.819 C 24.888 151.291 24.495 154.255 24.249 157.188 C 24.004 160.1 23.914 162.759 23.884 164.812 L 23.884 228.639 L 69.626 226.396 C 70.679 226.396 72.963 226.04 76.273 225.219 C 79.465 224.427 83.307 223.281 87.315 221.886 C 95.43 219.062 103.267 214.504 108.317 210.897 C 108.578 210.711 109.189 210.037 109.855 208.273 C 110.488 206.597 111.012 204.36 111.412 201.648 C 112.211 196.234 112.972 190.171 112.899 183.483 C 112.826 176.827 112.458 170.548 112.107 165.738 C 111.931 163.336 111.76 161.354 111.634 159.975 C 111.588 159.248 111.226 154.715 111.112 153.378 C 110.885 150.701 110.502 146.95 109.883 142.665 C 108.866 135.63 106.279 128.888 106.584 124.103 C 106.344 123.479 106.104 122.854 105.864 122.225 Z" fill="black"/>
  <path d="M 85.895 24.61 L 85.895 20.274 L 77.224 20.275 L 77.224 24.61 C 77.225 40.202 77.275 51.35 79.804 62.389 C 82.357 73.532 87.362 84.312 96.792 99.544 C 98.052 101.58 100.725 102.208 102.76 100.948 C 104.796 99.688 105.425 97.015 104.164 94.98 C 94.957 80.107 90.503 70.261 88.256 60.453 C 85.986 50.543 85.896 40.417 85.895 24.61 Z" fill="black"/>
</svg>
