<?xml version="1.0" encoding="utf-8"?>
<svg width="256" height="256" viewBox="0 0 256 256" fill="none" xmlns="http://www.w3.org/2000/svg">
  <path d="M 231.739 122.583 L 210.801 143.367 L 180.563 113.129 L 192.543 96.507 C 194.211 94.161 193.238 92.23 190.319 92.092 L 163.077 92.092 L 163.077 43.387 C 163.077 40.49 161.687 39.938 159.881 42.422 L 138.927 71.494 L 111.881 44.448 L 132.361 24.071 C 143.202 13.31 160.853 13.31 171.695 24.071 L 231.599 83.537 C 242.441 94.161 242.441 111.822 231.739 122.583 Z" fill="black"/>
  <path fill-rule="evenodd" clip-rule="evenodd" d="M 131.734 81.474 L 131.736 81.472 L 103.275 53.011 L 103.273 53.013 L 69.541 19.281 C 68.746 18.486 67.458 18.486 66.663 19.281 L 59.074 26.869 C 58.28 27.664 58.28 28.952 59.074 29.747 L 92.781 63.453 L 72.595 83.537 C 61.754 94.299 61.754 111.822 72.595 122.583 L 90.117 139.977 L 116.179 139.977 L 116.179 165.848 L 132.5 182.05 C 143.341 192.811 160.993 192.811 171.834 182.05 L 191.678 162.351 L 225.154 195.827 C 225.949 196.621 227.237 196.621 228.032 195.827 L 235.62 188.238 C 236.415 187.444 236.415 186.155 235.62 185.361 L 202.183 151.923 L 202.185 151.921 L 173.371 123.107 L 173.369 123.11 L 131.734 81.474 Z M 122.966 93.639 L 111.651 109.338 C 109.844 111.822 110.817 113.753 113.875 113.753 L 141.117 113.753 L 141.117 162.458 C 141.117 165.354 142.507 165.907 144.314 163.423 L 164.602 135.274 L 122.966 93.639 Z" fill="black"/>
  <path d="M 43.39 185.76 L 70.278 212.794 L 98.039 181.255 C 101.672 172.389 102.399 162.215 102.399 153.494 C 92.772 153.494 85.212 153.676 74.784 159.308 L 43.39 185.76 Z" fill="black"/>
  <path d="M 50.63 200.37 L 54.584 204.163 L 20.205 240 L 16.251 236.207 L 50.63 200.37 Z" fill="black"/>
</svg>
