<?xml version="1.0" encoding="utf-8"?>
<svg width="256" height="256" viewBox="0 0 256 256" fill="none" xmlns="http://www.w3.org/2000/svg">
  <path d="M 149.482 37.482 C 149.482 49.345 139.864 58.963 128 58.963 C 116.136 58.963 106.519 49.345 106.519 37.482 C 106.519 25.618 116.136 16 128 16 C 139.864 16 149.482 25.618 149.482 37.482 Z" fill="black"/>
  <path d="M 90.519 80.889 C 90.519 72.543 97.285 65.778 105.63 65.778 L 150.075 65.778 C 158.42 65.778 165.186 72.543 165.186 80.889 L 165.186 125.676 C 142.09 129.745 113.403 129.74 90.519 125.539 L 90.519 80.889 Z" fill="black"/>
  <path d="M 88.097 134.129 C 84.136 133.869 80.134 133.564 76.202 133.209 C 65.627 132.252 55.819 130.948 48.756 129.218 C 45.624 128.451 43.254 127.632 41.713 126.888 C 41.387 126.731 41.303 126.317 41.573 126.076 C 41.799 125.875 42.085 125.657 42.448 125.42 C 44.163 124.302 46.794 123.371 49.939 122.687 C 52.997 122.022 56.119 121.678 58.519 121.504 C 59.708 121.418 61.69 121.355 62.371 121.334 C 65.478 121.332 68 118.812 68 115.704 C 68 112.595 65.48 110.075 62.371 110.075 L 62.303 110.077 C 61.429 110.104 59.035 110.178 57.705 110.274 C 54.996 110.471 51.304 110.868 47.547 111.685 C 43.879 112.482 39.696 113.773 36.298 115.988 C 32.804 118.267 29.485 122.021 29.481 127.553 C 29.479 132.38 33.329 135.144 35.734 136.472 C 38.526 138.015 42.171 139.197 46.077 140.154 C 53.983 142.09 64.469 143.453 75.188 144.422 C 80.265 144.881 85.451 145.257 90.519 145.563 L 90.519 147.852 C 90.519 154.095 94.303 159.453 99.704 161.757 L 99.704 165.427 C 106.753 165.856 114.174 166.123 121.63 166.211 L 121.63 155.26 C 121.63 153.133 123.355 151.408 125.482 151.408 L 130.519 151.408 C 132.646 151.408 134.371 153.133 134.371 155.26 L 134.371 166.183 C 142.043 166.056 149.473 165.725 156.297 165.181 L 156.297 161.627 C 161.538 159.255 165.186 153.98 165.186 147.852 L 165.186 144.819 C 170.476 144.383 175.902 143.876 181.2 143.301 C 191.836 142.146 202.169 140.693 209.924 138.924 C 213.755 138.051 217.263 137.034 219.925 135.806 C 221.238 135.201 222.668 134.4 223.85 133.305 C 225.023 132.219 226.519 130.292 226.519 127.556 C 226.519 122.241 222.561 118.924 219.659 117.15 C 216.497 115.218 212.576 113.848 209.063 112.872 C 205.517 111.887 197.556 110.561 194.845 110.109 C 191.754 109.766 188.971 111.992 188.628 115.082 C 188.284 118.172 190.51 120.955 193.6 121.299 L 197.464 121.859 C 199.849 122.256 202.973 122.866 206.05 123.721 C 207.814 124.211 210.167 125.14 211.669 125.762 C 212.177 125.972 212.135 126.686 211.606 126.838 C 210.413 127.182 208.743 127.645 207.42 127.947 C 200.314 129.567 190.498 130.966 179.985 132.107 C 178.642 132.253 177.291 132.395 175.937 132.531 C 150.208 138.673 115.301 139.262 88.097 134.129 Z" fill="black"/>
  <path d="M 76.202 172.469 C 79.149 172.735 82.136 172.973 85.116 173.185 C 98.129 174.486 113.387 175.17 128.272 175.13 C 145.217 175.086 162.041 174.105 174.691 171.916 C 176.462 171.741 178.23 171.558 179.985 171.367 C 190.498 170.226 200.314 168.827 207.42 167.207 C 208.743 166.905 210.413 166.442 211.606 166.098 C 212.135 165.946 212.177 165.232 211.669 165.022 C 210.167 164.4 207.814 163.471 206.05 162.981 C 202.973 162.126 199.849 161.516 197.464 161.119 L 193.6 160.559 C 190.51 160.215 188.284 157.432 188.628 154.342 C 188.971 151.252 191.754 149.026 194.845 149.369 C 197.556 149.821 205.517 151.147 209.063 152.132 C 212.576 153.108 216.497 154.478 219.659 156.41 C 222.561 158.184 226.519 161.501 226.519 166.816 C 226.519 169.552 225.023 171.479 223.85 172.565 C 222.668 173.66 221.238 174.461 219.925 175.066 C 217.263 176.294 213.755 177.311 209.924 178.184 C 202.169 179.953 191.836 181.406 181.2 182.561 C 172.873 183.465 164.23 184.2 156.297 184.759 L 156.297 204.448 C 155.006 204.658 153.654 204.853 152.245 205.032 C 146.809 205.722 140.726 206.153 134.371 206.339 L 134.371 185.951 C 131.893 186.034 129.829 186.075 128.29 186.075 C 126.651 186.075 124.383 186.057 121.63 186.012 L 121.63 206.393 C 114.074 206.245 106.575 205.786 99.704 205.06 L 99.704 185.313 C 91.888 184.949 83.396 184.424 75.188 183.682 C 64.469 182.713 53.983 181.35 46.077 179.414 C 42.171 178.457 38.526 177.275 35.734 175.732 C 33.329 174.404 29.479 171.64 29.481 166.813 C 29.485 161.281 32.804 157.527 36.298 155.248 C 39.696 153.033 43.879 151.742 47.547 150.945 C 51.304 150.128 54.996 149.731 57.705 149.534 C 59.035 149.438 61.429 149.364 62.303 149.337 L 62.371 149.335 C 65.48 149.335 68 151.855 68 154.964 C 68 158.072 65.478 160.592 62.371 160.594 C 61.69 160.615 59.708 160.678 58.519 160.764 C 56.119 160.938 52.997 161.282 49.939 161.947 C 46.794 162.631 44.163 163.562 42.448 164.68 C 42.085 164.917 41.799 165.135 41.573 165.336 C 41.303 165.577 41.387 165.991 41.713 166.148 C 43.254 166.892 45.624 167.711 48.756 168.478 C 55.819 170.208 65.627 171.512 76.202 172.469 Z" fill="black"/>
  <path d="M 85.453 212.024 C 82.362 211.806 79.26 211.56 76.202 211.283 C 65.627 210.327 55.819 209.023 48.756 207.293 C 45.624 206.526 43.254 205.707 41.713 204.964 C 41.387 204.806 41.303 204.392 41.573 204.151 C 41.799 203.95 42.085 203.732 42.448 203.495 C 44.163 202.377 46.794 201.446 49.939 200.762 C 52.997 200.097 56.119 199.753 58.519 199.579 C 59.708 199.493 61.69 199.43 62.371 199.409 C 65.478 199.407 68 196.887 68 193.779 C 68 190.67 65.48 188.15 62.371 188.15 L 62.303 188.152 L 62.302 188.152 C 61.427 188.179 59.035 188.253 57.705 188.349 C 54.996 188.546 51.304 188.943 47.547 189.759 C 43.879 190.557 39.696 191.848 36.298 194.064 C 32.804 196.342 29.485 200.096 29.481 205.628 C 29.479 210.455 33.329 213.219 35.734 214.547 C 38.526 216.09 42.171 217.272 46.077 218.229 C 53.983 220.165 64.469 221.528 75.188 222.497 C 83.396 223.24 91.888 223.764 99.704 224.128 L 99.704 229.038 C 99.704 235.093 104.612 240 110.667 240 C 116.723 240 121.63 235.093 121.63 229.038 L 121.63 224.827 C 124.383 224.872 126.651 224.89 128.29 224.89 C 129.829 224.89 131.893 224.849 134.371 224.766 L 134.371 229.038 C 134.371 235.093 139.278 240 145.334 240 C 151.389 240 156.297 235.093 156.297 229.038 L 156.297 223.574 C 164.23 223.015 172.873 222.28 181.2 221.376 C 191.836 220.221 202.169 218.768 209.924 217 C 213.755 216.126 217.263 215.109 219.925 213.881 C 221.238 213.276 222.668 212.475 223.85 211.38 C 225.023 210.294 226.519 208.367 226.519 205.631 C 226.519 200.316 222.561 196.999 219.659 195.226 C 216.497 193.294 212.576 191.923 209.063 190.948 C 205.517 189.962 197.557 188.636 194.845 188.184 C 191.755 187.841 188.971 190.067 188.628 193.158 C 188.284 196.247 190.51 199.03 193.6 199.374 L 197.464 199.934 C 199.849 200.332 202.973 200.941 206.05 201.796 C 207.814 202.286 210.167 203.215 211.669 203.837 C 212.177 204.047 212.135 204.761 211.606 204.913 C 210.413 205.257 208.743 205.72 207.42 206.022 C 200.314 207.643 190.498 209.041 179.985 210.183 C 175.291 210.692 170.5 211.146 165.805 211.544 C 162.065 212.529 157.834 213.282 153.365 213.85 C 145.222 214.884 135.868 215.353 126.398 215.334 C 112.05 215.306 97.101 214.156 85.453 212.024 Z" fill="black"/>
</svg>
