<?xml version="1.0" encoding="utf-8"?>
<svg width="256" height="256" viewBox="0 0 256 256" fill="none" xmlns="http://www.w3.org/2000/svg">
  <path d="M 207.704 94.759 L 149.826 32.265 C 137.747 19.222 118.079 19.222 105.998 32.265 L 48.256 94.759 L 100.241 94.759 L 133.326 44.828 C 135.339 41.818 136.888 42.487 136.888 45.998 L 136.888 85.379 L 157.379 85.379 C 160.045 85.379 163.586 86.851 163.586 89.517 C 163.586 91.55 160.602 94.047 158.824 94.759 L 207.704 94.759 Z" fill="black"/>
  <path d="M 155.368 161.241 L 207.859 161.241 L 149.981 223.735 C 137.902 236.778 118.233 236.778 106.154 223.735 L 48.277 161.241 L 95.724 161.241 C 94.156 162.084 92.137 163.806 92.137 165.793 C 92.137 168.612 94.299 170.897 96.965 170.897 L 117.379 170.897 L 117.379 210.692 C 117.379 214.203 118.928 214.872 120.941 211.861 L 155.368 161.241 Z" fill="black"/>
  <path d="M 240 128.138 C 240 128.138 235.471 112.966 212.382 112.966 L 163.034 112.966 L 163.034 143.31 L 212.382 143.31 C 235.471 143.31 240 128.138 240 128.138 Z" fill="black"/>
  <path d="M 16 126.621 C 16 124.107 18.037 122.069 20.551 122.069 L 150.758 122.069 C 153.272 122.069 155.31 124.107 155.31 126.621 C 155.31 129.135 153.272 131.173 150.758 131.173 L 20.551 131.173 C 18.037 131.173 16 129.135 16 126.621 Z" fill="black"/>
</svg>
