<?xml version="1.0" encoding="utf-8"?>
<svg width="256" height="256" viewBox="0 0 256 256" fill="none" xmlns="http://www.w3.org/2000/svg">
  <path fill-rule="evenodd" clip-rule="evenodd" d="M 98.491 240 C 99.509 204.678 87.008 185.055 38.312 215.29 C 65.495 177.06 60.843 160.343 17.235 147.988 C 49.941 131.998 55.174 109.322 38.312 83.884 C 89.77 79.813 77.414 52.776 49.941 16 C 95.294 61.789 121.749 72.981 146.315 18.762 C 154.165 58.591 165.844 76.62 195.738 46.235 C 194.575 94.931 203.297 110.048 238.765 111.066 C 204.75 138.539 209.402 159.907 237.02 186.799 C 202.57 173.135 194.43 185.346 196.901 221.104 C 163.343 201.638 132.07 208.022 98.491 240 Z M 70.875 118.479 C 70.882 115.386 99.363 67.894 102.852 67.894 C 106.343 67.893 119.716 76.761 119.716 80.104 C 119.716 83.447 91.228 131.127 87.589 131.126 C 83.953 131.126 70.868 121.571 70.875 118.479 Z M 100.397 132.076 C 100.419 128.575 131.892 71.964 135.994 71.964 C 140.098 71.964 153.422 80.342 153.406 84.125 C 153.388 87.909 122.337 144.507 118.403 144.843 C 114.472 145.179 100.372 135.576 100.397 132.076 Z M 129.237 146.674 C 129.235 143.218 159.727 87.777 163.481 87.485 C 167.235 87.194 181.653 95.987 181.665 99.723 C 181.674 103.458 151.175 159.11 147.262 159.412 C 143.346 159.716 129.239 150.13 129.237 146.674 Z M 156.576 162.885 C 156.32 159.864 181.442 113.647 185.015 113.668 C 188.588 113.689 203.033 122.431 203.319 125.697 C 203.603 128.963 178.49 175.363 174.765 175.341 C 171.04 175.318 156.831 165.905 156.576 162.885 Z M 67.82 134.324 C 71.061 134.288 119.066 154.074 119.135 157.145 C 119.201 160.217 112.207 179.488 108.376 179.531 C 104.544 179.574 57.038 159.327 56.775 155.547 C 56.509 151.766 64.579 134.36 67.82 134.324 Z" fill="black"/>
</svg>
