<?xml version="1.0" encoding="utf-8"?>
<svg width="256" height="256" viewBox="0 0 256 256" fill="none" xmlns="http://www.w3.org/2000/svg">
  <path d="M 85.585 17.862 C 87.022 15.859 89.81 15.4 91.813 16.836 C 116.13 34.27 126.656 46.919 144.097 69.935 C 145.586 71.899 145.199 74.698 143.234 76.186 C 141.27 77.674 138.47 77.288 136.982 75.324 C 119.787 52.633 109.889 40.777 86.611 24.088 C 84.608 22.652 84.149 19.864 85.585 17.862 Z" fill="black"/>
  <path d="M 64.176 68.832 C 62.172 67.396 59.384 67.855 57.947 69.858 C 56.511 71.86 56.97 74.648 58.973 76.084 C 82.251 92.772 92.149 104.629 109.344 127.32 C 110.833 129.284 113.632 129.67 115.597 128.182 C 117.562 126.694 117.948 123.895 116.459 121.931 C 99.018 98.915 88.492 86.266 64.176 68.832 Z" fill="black"/>
  <path d="M 27.955 114.994 C 25.951 113.558 23.163 114.017 21.726 116.019 C 20.29 118.021 20.749 120.809 22.752 122.245 C 46.03 138.934 55.929 150.791 73.123 173.481 C 74.612 175.445 77.411 175.831 79.376 174.343 C 81.341 172.855 81.727 170.057 80.238 168.093 C 62.797 145.077 52.271 132.427 27.955 114.994 Z" fill="black"/>
  <path d="M 211.749 214.639 C 213.383 213.888 214.412 212.802 214.413 211.592 C 214.416 209.321 210.802 207.477 206.341 207.472 C 201.88 207.467 198.261 209.304 198.259 211.574 C 198.257 213.368 200.511 214.895 203.656 215.46 C 200.405 216.455 198.252 218.192 198.25 220.17 C 198.247 222.947 202.48 225.257 208.04 225.709 C 204.822 227.208 202.805 229.364 202.802 231.761 C 202.797 236.302 210.026 239.991 218.948 240 C 227.87 240.011 235.106 236.337 235.111 231.796 C 235.115 227.332 228.132 223.691 219.418 223.56 C 220.899 222.624 221.777 221.459 221.778 220.196 C 221.782 217.38 217.426 215.043 211.749 214.639 Z" fill="black"/>
  <path d="M 153.471 120.62 C 159.748 107.932 168.428 95.723 176.987 84.491 C 176.987 84.491 210.11 40.225 203.567 32.491 C 197.023 24.756 192.282 32.629 187.044 31.038 C 181.806 29.448 186.647 16.33 173.957 18.704 C 168.694 19.688 166.034 24.862 164.223 30.673 L 151.049 76.27 C 147.575 84.995 144.726 97.33 140.708 106.345 L 140.708 106.346 L 140.706 106.349 L 140.705 106.353 C 138.819 110.584 136.939 114.804 135.125 118.97 C 126.719 138.28 114.556 155.206 105.018 165.363 L 105.011 165.37 L 105.008 165.373 L 105.006 165.375 L 105.006 165.376 C 101.733 168.811 90.186 177.28 91.579 184.96 C 92.972 192.641 94.061 195.704 97.917 198.566 C 101.752 201.413 106.91 202.79 112.223 203.404 C 117.536 204.018 127.28 201.117 135.11 203.242 C 142.88 205.35 168.985 243.752 198.031 237.799 C 198.399 237.724 198.633 237.357 198.55 236.992 L 191.633 206.681 C 191.569 206.4 191.34 206.191 191.054 206.153 C 172.303 203.612 145.606 174.718 144.388 159.56 C 143.335 146.453 147.195 133.309 153.471 120.62 Z" fill="black"/>
</svg>
