<?xml version="1.0" encoding="utf-8"?>
<svg width="256" height="256" viewBox="0 0 256 256" fill="none" xmlns="http://www.w3.org/2000/svg">
  <path fill-rule="evenodd" clip-rule="evenodd" d="M 118.861 129.215 C 118.861 136.59 115.025 141.404 109.123 145.739 C 106.134 147.933 102.716 149.931 99.077 152.054 L 99.042 152.074 C 95.459 154.166 91.678 156.372 88.165 158.909 C 72.911 169.929 65.52 181.058 65.52 195.768 C 65.52 203.113 68.223 214.205 77.296 223.477 C 86.419 232.802 101.704 240 126.298 240 C 150.813 240 166.475 233.573 176.011 224.486 C 185.538 215.409 188.621 203.995 188.621 194.666 C 188.621 183.622 180.651 166.841 163.649 155.546 C 161.827 154.335 160.013 153.268 158.248 152.297 C 156.517 151.344 154.833 150.482 153.237 149.667 L 153.206 149.65 C 149.946 147.984 147.126 146.543 144.742 144.857 C 142.392 143.195 140.566 141.363 139.305 138.993 C 138.04 136.618 137.248 133.527 137.248 129.215 L 137.248 124.31 C 137.248 120.094 138.04 117.072 139.305 114.751 C 140.566 112.433 142.392 110.642 144.742 109.017 C 147.126 107.369 149.946 105.96 153.206 104.331 L 153.237 104.315 C 156.46 102.705 160.037 100.912 163.649 98.567 C 180.651 87.524 188.621 71.119 188.621 60.321 C 188.621 51.2 185.538 40.04 176.011 31.166 C 166.475 22.283 150.813 16 126.298 16 C 101.704 16 86.419 23.036 77.296 32.153 C 68.223 41.218 65.52 52.062 65.52 59.243 C 65.52 73.625 72.911 84.505 88.165 95.279 C 91.678 97.759 95.459 99.916 99.042 101.961 L 99.077 101.981 C 102.716 104.057 106.134 106.009 109.123 108.154 C 115.025 112.393 118.861 117.099 118.861 124.31 L 118.861 129.215 Z M 121.663 228.023 C 120.4 229.729 119.342 231.163 119.342 232.129 C 119.342 234.518 120.606 236.486 123.838 236.486 C 127.071 236.486 134.659 228.616 134.659 217.515 C 134.659 211.359 132.154 209.092 129.921 207.072 C 128.127 205.449 126.509 203.985 126.509 200.792 C 126.509 196.561 129.644 194.044 132.731 191.564 C 134.874 189.844 136.995 188.141 138.032 185.896 C 139.007 183.785 138.958 180.382 138.91 176.994 L 138.91 176.975 C 138.831 171.575 138.754 166.223 142.81 166.223 C 146.347 166.223 147.265 172.43 148.174 178.585 C 148.962 183.921 149.746 189.218 152.225 190.393 C 155.035 191.725 160.378 192.355 164.993 192.9 C 169.143 193.39 172.704 193.81 173.304 194.609 C 173.512 194.887 173.618 195.208 173.648 195.563 C 173.721 196.422 173.359 197.485 172.959 198.656 C 172.52 199.938 172.039 201.349 172.039 202.76 C 172.039 205.992 173.866 207.397 177.238 207.397 C 180.611 207.397 184.546 200.511 184.546 196.717 C 184.546 192.923 182.157 187.02 178.363 184.35 C 176.275 182.882 172.955 182.263 169.804 181.677 C 168.897 181.508 168.003 181.342 167.158 181.159 C 165.603 180.822 164.211 180.427 163.186 179.854 C 161.287 178.79 160.865 174.028 160.459 169.412 C 160.112 165.492 159.774 161.676 158.548 160.32 C 157.343 158.989 154.421 157.342 151.006 155.418 C 146.859 153.081 141.986 150.335 138.594 147.251 C 132.411 141.63 132.692 128.702 132.692 128.702 C 132.692 128.702 132.27 118.303 136.345 113.244 C 140.421 108.185 148.009 104.11 150.679 102.845 C 153.349 101.581 157.003 99.192 161.078 94.976 C 163.517 92.452 164.145 87.61 164.677 83.498 C 165.033 80.742 165.347 78.313 166.137 77.129 C 167.156 75.602 169.639 74.978 172.248 74.323 C 174.683 73.712 177.223 73.073 178.784 71.648 C 182.016 68.697 182.297 62.655 182.297 59.563 C 182.297 56.472 177.66 44.527 174.428 44.527 C 171.196 44.527 169.228 45.932 169.228 49.305 C 169.228 49.788 169.34 50.305 169.525 50.845 C 169.837 51.761 170.353 52.744 170.875 53.74 C 172.202 56.265 173.572 58.874 171.758 60.687 C 170.482 61.963 168.078 62.293 165.204 62.689 C 161.427 63.208 156.838 63.839 152.927 66.871 C 149.43 69.583 148.832 74.506 148.301 78.898 C 147.785 83.153 147.328 86.908 144.355 87.668 C 138.313 89.214 135.362 84.296 136.767 79.658 C 137.079 78.629 137.722 77.442 138.535 76.136 C 139.081 75.259 139.703 74.33 140.353 73.36 C 143.095 69.262 146.323 64.442 146.323 59.844 C 146.323 55.874 141.637 51.106 137.355 46.751 C 133.757 43.089 130.443 39.719 130.443 37.36 C 130.443 34.286 131.987 31.486 133.236 29.219 C 134.086 27.677 134.8 26.382 134.8 25.415 C 134.8 23.026 133.675 21.059 130.443 21.059 C 127.211 21.059 121.028 28.647 121.028 39.749 C 121.028 45.905 123.492 48.129 125.685 50.11 C 127.448 51.703 129.038 53.138 129.038 56.331 C 129.038 60.575 126.032 63.044 123.057 65.491 C 121.006 67.176 118.968 68.851 117.937 71.086 C 116.95 73.221 117.054 76.721 117.155 80.198 C 117.313 85.647 117.471 91.041 113.44 91.041 C 109.878 91.041 108.523 84.461 107.193 78 C 106.058 72.482 104.938 67.052 102.479 65.887 C 99.635 64.54 94.561 64.069 90.248 63.67 C 86.459 63.319 83.255 63.022 82.664 62.233 C 81.968 61.304 82.423 60.162 82.972 58.783 C 83.136 58.373 83.308 57.942 83.459 57.488 C 83.516 57.318 83.571 57.144 83.622 56.968 C 83.804 56.328 83.929 55.648 83.929 54.926 C 83.929 51.694 81.681 49.867 78.308 49.867 C 74.935 49.867 71.703 56.753 71.703 60.547 C 71.703 64.341 74.654 70.665 78.589 72.913 C 80.627 74.078 83.156 74.564 85.607 75.035 C 87.89 75.474 90.106 75.9 91.799 76.848 C 93.718 77.923 94.506 82.943 95.259 87.756 C 95.885 91.752 96.491 95.605 97.701 96.943 C 98.906 98.275 101.829 99.922 105.243 101.845 C 109.391 104.183 114.263 106.928 117.655 110.012 C 123.838 115.633 123.979 128.702 123.979 128.702 C 123.979 128.702 123.979 138.961 119.904 144.019 C 115.828 149.078 108.24 153.154 105.57 154.418 C 102.9 155.683 99.246 158.072 95.171 162.288 C 92.725 164.817 92.051 169.472 91.478 173.428 C 91.096 176.065 90.758 178.392 89.972 179.573 C 88.946 181.111 86.432 181.847 83.802 182.618 C 81.386 183.325 78.872 184.062 77.324 185.475 C 74.092 188.426 71.844 193.766 71.844 196.857 C 71.844 199.949 79.011 212.877 82.243 212.877 C 85.475 212.877 87.021 211.332 87.021 207.959 C 87.021 207.257 86.742 206.439 86.325 205.557 C 85.956 204.778 85.479 203.949 84.994 203.105 C 83.398 200.321 81.714 197.386 83.507 195.593 C 84.772 194.327 87.124 194.173 89.941 193.988 C 93.691 193.742 98.265 193.443 102.197 190.393 C 105.651 187.715 106.56 182.739 107.368 178.302 C 108.174 173.892 108.881 170.015 111.894 169.455 C 117.937 168.33 120.325 172.968 118.92 177.605 C 118.408 179.296 117.073 181.415 115.587 183.781 C 112.992 187.905 109.926 192.775 109.926 197.419 C 109.926 201.389 114.612 205.992 118.894 210.195 C 122.492 213.73 125.806 216.983 125.806 219.341 C 125.806 222.416 123.516 225.514 121.663 228.023 Z" fill="black"/>
  <path d="M 62.148 164.115 L 62.148 215.088 L 76.374 237.821 L 38.647 237.821 L 53.154 214.639 L 53.154 164.115 C 49.893 164.115 47.252 161.472 47.252 158.213 C 47.252 154.953 49.893 152.31 53.154 152.31 L 53.154 134.911 C 49.035 133.244 46.127 129.204 46.127 124.486 C 46.127 119.768 49.035 115.729 53.154 114.061 L 53.154 96.1 C 49.893 96.1 47.252 93.457 47.252 90.198 C 47.252 86.938 49.893 84.296 53.154 84.296 L 53.154 42.484 L 38.647 19.302 L 76.374 19.302 L 62.148 42.035 L 62.148 84.296 L 62.428 84.296 C 65.689 84.296 68.331 86.938 68.331 90.198 C 68.331 93.457 65.689 96.1 62.428 96.1 L 62.148 96.1 L 62.148 114.307 C 65.968 116.103 68.612 119.986 68.612 124.486 C 68.612 128.987 65.968 132.87 62.148 134.666 L 62.148 152.31 L 62.428 152.31 C 65.689 152.31 68.331 154.953 68.331 158.213 C 68.331 161.472 65.689 164.115 62.428 164.115 L 62.148 164.115 Z" fill="black"/>
  <path d="M 203.128 215.158 L 203.128 164.185 L 203.409 164.185 C 206.67 164.185 209.311 161.542 209.311 158.283 C 209.311 155.023 206.67 152.381 203.409 152.381 L 203.128 152.381 L 203.128 134.736 C 206.949 132.94 209.592 129.057 209.592 124.557 C 209.592 120.056 206.949 116.173 203.128 114.377 L 203.128 96.17 L 203.409 96.17 C 206.67 96.17 209.311 93.528 209.311 90.268 C 209.311 87.009 206.67 84.366 203.409 84.366 L 203.128 84.366 L 203.128 42.105 L 217.354 19.373 L 179.627 19.373 L 194.135 42.554 L 194.135 84.366 C 190.874 84.366 188.233 87.009 188.233 90.268 C 188.233 93.528 190.874 96.17 194.135 96.17 L 194.135 114.131 C 190.015 115.799 187.108 119.838 187.108 124.557 C 187.108 129.275 190.015 133.314 194.135 134.981 L 194.135 152.381 C 190.874 152.381 188.233 155.023 188.233 158.283 C 188.233 161.542 190.874 164.185 194.135 164.185 L 194.135 214.709 L 179.627 237.891 L 217.354 237.891 L 203.128 215.158 Z" fill="black"/>
</svg>
