<?xml version="1.0" encoding="utf-8"?>
<svg width="256" height="256" viewBox="0 0 256 256" fill="none" xmlns="http://www.w3.org/2000/svg">
  <path d="M 122.024 21.238 C 122.006 21.169 121.957 21.111 121.892 21.08 C 121.827 21.05 121.752 21.049 121.687 21.079 C 109.234 26.819 102.146 30.629 90.941 40.464 C 90.897 40.503 90.868 40.555 90.859 40.612 L 90.857 40.634 L 90.857 40.65 L 90.859 40.684 C 90.87 40.766 90.921 40.837 90.995 40.873 C 93.173 41.934 95.622 43.949 98.115 46.593 C 100.606 49.234 103.129 52.491 105.454 56.021 C 109.594 62.303 111.357 71.871 112.568 78.441 L 112.63 78.782 C 112.759 79.473 112.879 80.128 112.997 80.74 C 113.05 81.019 113.101 81.295 113.148 81.569 C 113.217 81.972 113.281 82.37 113.344 82.765 C 113.421 83.241 113.495 83.709 113.577 84.17 C 113.771 85.254 114 86.272 114.368 87.132 C 114.437 87.295 114.513 87.453 114.594 87.605 C 114.635 87.682 114.678 87.757 114.722 87.831 L 114.827 87.999 C 115.14 88.48 115.532 88.886 116.03 89.189 C 116.805 89.661 117.81 89.868 119.123 89.762 L 132.365 89.762 C 133.364 89.681 134.1 89.308 134.626 88.73 C 135.147 88.158 135.445 87.406 135.609 86.593 C 135.892 85.184 135.928 80.084 135.838 78.216 L 159.014 78.235 C 161.967 76.964 164.408 74.767 166.53 72.857 L 166.565 72.824 C 166.907 72.517 167.241 72.218 167.566 71.931 C 167.897 71.639 168.221 71.36 168.537 71.1 C 168.849 70.844 169.154 70.606 169.453 70.391 C 172.224 68.398 174.532 66.081 177.108 62.887 C 179.25 60.231 180.355 58.219 180.177 56.021 C 180.084 54.878 177.115 51.602 176.52 51.199 C 176.386 51.108 176.175 51.007 175.964 50.918 L 175.814 50.855 C 175.691 50.805 175.575 50.76 175.482 50.725 L 175.352 50.677 C 175.314 50.668 175.275 50.67 175.237 50.68 L 167.203 52.943 L 167.181 52.95 C 160.982 55.371 155.884 56.795 150.818 57.371 C 145.8 57.942 136.361 58.325 130.35 57.371 C 127.683 41.848 125.846 35.156 122.044 21.311 L 122.024 21.238 Z" fill="black"/>
  <path d="M 127.664 98.362 C 129.89 98.362 131.693 100.166 131.693 102.391 L 131.693 192.642 C 131.693 194.868 129.89 196.671 127.664 196.671 C 125.439 196.671 123.635 194.868 123.635 192.642 L 123.635 102.391 C 123.635 100.166 125.439 98.362 127.664 98.362 Z" fill="black"/>
  <path d="M 31.432 107.208 L 34.592 119.716 L 37.754 107.208 L 49.503 112.535 L 41.694 102.266 L 53.186 96.401 L 40.287 96.103 L 42.868 83.462 L 34.592 93.36 L 26.318 83.462 L 28.897 96.103 L 16 96.401 L 27.491 102.266 L 19.682 112.535 L 31.432 107.208 Z" fill="black"/>
  <path d="M 105.085 90.389 C 106.077 91.492 105.986 93.191 104.882 94.182 C 96.667 101.561 88.994 105.515 80.625 107.222 C 72.345 108.91 63.581 108.352 53.331 107.071 C 51.859 106.887 50.814 105.544 50.998 104.072 C 51.183 102.6 52.525 101.556 53.997 101.74 C 64.16 103.011 72.184 103.46 79.551 101.958 C 86.827 100.475 93.658 97.043 101.291 90.186 C 102.395 89.194 104.094 89.285 105.085 90.389 Z" fill="black"/>
  <path d="M 112.859 100.165 C 113.41 98.55 112.548 96.795 110.933 96.244 C 109.318 95.694 107.563 96.556 107.012 98.17 C 102.186 112.315 97.298 121.709 90.63 128.812 C 83.975 135.901 75.314 140.954 62.475 145.984 C 60.886 146.606 60.102 148.398 60.725 149.986 C 61.347 151.575 63.139 152.358 64.727 151.736 C 77.966 146.551 87.585 141.082 95.134 133.04 C 102.671 125.012 107.911 114.668 112.859 100.165 Z" fill="black"/>
  <path d="M 122.02 102.537 C 122.101 100.684 120.665 99.117 118.812 99.036 C 116.959 98.956 115.392 100.392 115.311 102.245 C 114.49 121.139 112.379 134.401 107.817 146.072 C 103.261 157.728 96.164 168.045 84.975 180.903 C 83.758 182.302 83.905 184.422 85.304 185.64 C 86.703 186.857 88.823 186.71 90.04 185.311 C 101.46 172.187 109.115 161.198 114.071 148.517 C 119.021 135.852 121.185 121.747 122.02 102.537 Z" fill="black"/>
  <path d="M 39.757 137.224 L 44.535 149.208 L 55.482 142.382 L 49.092 153.589 L 61.254 157.891 L 48.508 159.883 L 52.727 172.075 L 43.223 163.351 L 36.321 174.251 L 37.216 161.381 L 24.391 162.782 L 35.012 155.457 L 25.92 146.303 L 38.269 150.039 L 39.757 137.224 Z" fill="black"/>
  <path d="M 72.059 193.357 L 61.538 185.892 L 67.249 197.459 L 54.852 201.03 L 67.458 203.777 L 62.521 215.696 L 72.527 207.553 L 78.767 218.845 L 78.64 205.944 L 91.359 208.106 L 81.193 200.162 L 90.814 191.565 L 78.265 194.56 L 77.542 181.679 L 72.059 193.357 Z" fill="black"/>
  <path d="M 221.408 119.707 L 224.568 107.199 L 236.316 112.527 L 228.509 102.258 L 240 96.393 L 227.103 96.095 L 229.682 83.454 L 221.408 93.352 L 213.132 83.454 L 215.712 96.095 L 202.814 96.393 L 214.305 102.258 L 206.497 112.527 L 218.246 107.199 L 221.408 119.707 Z" fill="black"/>
  <path d="M 151.118 94.174 C 150.014 93.182 149.923 91.484 150.914 90.38 C 151.906 89.277 153.605 89.186 154.708 90.177 C 162.342 97.034 169.173 100.466 176.449 101.95 C 183.815 103.451 191.84 103.002 202.003 101.732 C 203.475 101.548 204.817 102.592 205.002 104.064 C 205.185 105.536 204.141 106.878 202.669 107.063 C 192.419 108.344 183.655 108.901 175.375 107.214 C 167.005 105.507 159.332 101.553 151.118 94.174 Z" fill="black"/>
  <path d="M 145.067 96.236 C 143.452 96.787 142.59 98.542 143.141 100.157 C 148.089 114.659 153.329 125.004 160.865 133.032 C 168.415 141.073 178.034 146.542 191.272 151.727 C 192.861 152.35 194.653 151.566 195.275 149.978 C 195.897 148.39 195.114 146.598 193.525 145.975 C 180.686 140.946 172.025 135.893 165.37 128.803 C 158.702 121.701 153.813 112.307 148.988 98.162 C 148.437 96.547 146.682 95.685 145.067 96.236 Z" fill="black"/>
  <path d="M 137.188 99.028 C 135.335 99.108 133.899 100.675 133.979 102.528 C 134.815 121.738 136.978 135.843 141.929 148.509 C 146.885 161.189 154.539 172.179 165.959 185.302 C 167.177 186.701 169.297 186.848 170.696 185.631 C 172.095 184.414 172.242 182.293 171.025 180.894 C 159.836 168.036 152.739 157.72 148.183 146.064 C 143.621 134.392 141.51 121.13 140.688 102.237 C 140.608 100.384 139.041 98.947 137.188 99.028 Z" fill="black"/>
  <path d="M 211.465 149.199 L 216.243 137.216 L 217.731 150.031 L 230.079 146.295 L 220.988 155.448 L 231.609 162.773 L 218.783 161.373 L 219.679 174.243 L 212.777 163.343 L 203.272 172.066 L 207.492 159.875 L 194.745 157.883 L 206.908 153.581 L 200.517 142.373 L 211.465 149.199 Z" fill="black"/>
  <path d="M 194.462 185.883 L 183.941 193.349 L 178.458 181.671 L 177.735 194.552 L 165.186 191.557 L 174.807 200.153 L 164.641 208.097 L 177.359 205.936 L 177.233 218.836 L 183.472 207.545 L 193.479 215.688 L 188.542 203.769 L 201.148 201.022 L 188.751 197.451 L 194.462 185.883 Z" fill="black"/>
  <path d="M 128.641 208.589 L 120.42 198.647 L 122.93 211.301 L 110.032 211.529 L 121.49 217.456 L 113.626 227.683 L 125.405 222.42 L 128.497 234.944 L 131.726 222.454 L 143.447 227.845 L 135.694 217.533 L 147.217 211.731 L 134.321 211.363 L 136.969 198.737 L 128.641 208.589 Z" fill="black"/>
</svg>
