<?xml version="1.0" encoding="utf-8"?>
<svg width="256" height="256" viewBox="0 0 256 256" fill="none" xmlns="http://www.w3.org/2000/svg">
  <path d="M 194.245 22.933 C 216.121 27.093 218.278 37.414 218.278 37.414 C 218.278 37.414 214.272 47.131 194.245 51.28 C 186.579 52.867 181.252 53.436 174.814 53.436 C 159.612 53.436 148.952 53.436 148.952 53.436 L 148.952 21.084 C 148.952 21.084 159.612 21.084 174.814 21.084 C 181.252 21.084 186.554 21.47 194.245 22.933 Z" fill="black"/>
  <path d="M 104.712 64.837 C 127.172 68.996 129.386 79.318 129.386 79.318 C 129.386 79.318 125.274 89.035 104.712 93.184 C 96.842 94.771 91.373 95.34 84.764 95.34 C 69.156 95.34 58.211 95.34 58.211 95.34 L 58.211 62.988 C 58.211 62.988 69.156 62.988 84.764 62.988 C 91.373 62.988 96.816 63.374 104.712 64.837 Z" fill="black"/>
  <path d="M 77.315 134.163 C 77.315 134.163 75.1 123.841 52.641 119.681 C 44.745 118.219 39.302 117.833 32.692 117.833 L 18.773 117.833 L 18.773 150.185 L 32.692 150.185 C 39.302 150.185 44.77 149.616 52.641 148.028 C 73.202 143.88 77.315 134.163 77.315 134.163 Z" fill="black"/>
  <path d="M 18.773 204.078 L 18.773 171.772 C 24.359 171.865 29.393 172.32 36.311 173.602 C 58.77 177.761 60.984 188.083 60.984 188.083 C 60.984 188.083 56.872 197.8 36.311 201.948 C 29.415 203.34 24.363 203.949 18.773 204.078 Z" fill="black"/>
  <path d="M 15.999 78.856 C 15.999 75.878 18.414 73.464 21.392 73.464 L 46.349 73.464 C 49.327 73.464 51.741 75.878 51.741 78.856 C 51.741 81.834 49.327 84.248 46.349 84.248 L 21.392 84.248 C 18.414 84.248 15.999 81.834 15.999 78.856 Z" fill="black"/>
  <path d="M 21.392 30.327 C 18.414 30.327 15.999 32.742 15.999 35.72 C 15.999 38.697 18.414 41.112 21.392 41.112 L 134.162 41.112 C 137.14 41.112 139.554 38.697 139.554 35.72 C 139.554 32.742 137.14 30.327 134.162 30.327 L 21.392 30.327 Z" fill="black"/>
  <path d="M 211.962 81.783 C 136.194 81.783 86.404 138.902 86.404 205.954 C 86.404 209.187 83.783 211.808 80.55 211.808 C 77.317 211.808 74.696 209.187 74.696 205.954 C 74.696 132.812 129.357 70.075 211.962 70.075 C 215.195 70.075 217.816 72.696 217.816 75.929 C 217.816 79.162 215.195 81.783 211.962 81.783 Z" fill="black"/>
  <path d="M 145.128 139.544 C 128.849 155.447 119.064 178.27 119.064 205.954 C 119.064 209.187 116.443 211.808 113.21 211.808 C 109.977 211.808 107.356 209.187 107.356 205.954 C 107.356 175.404 118.215 149.467 136.946 131.169 C 155.662 112.885 181.873 102.581 211.962 102.581 C 215.195 102.581 217.816 105.202 217.816 108.435 C 217.816 111.668 215.195 114.289 211.962 114.289 C 184.586 114.289 161.422 123.627 145.128 139.544 Z" fill="black"/>
  <path d="M 211.962 146.333 C 171.669 146.333 150.954 176.734 150.954 205.954 C 150.954 209.187 148.333 211.808 145.1 211.808 C 141.867 211.808 139.246 209.187 139.246 205.954 C 139.246 171.393 164.132 134.625 211.962 134.625 C 215.195 134.625 217.816 137.246 217.816 140.479 C 217.816 143.712 215.195 146.333 211.962 146.333 Z" fill="black"/>
  <path fill-rule="evenodd" clip-rule="evenodd" d="M 207.494 234.916 C 225.446 234.916 240 220.363 240 202.411 C 240 184.458 225.446 169.904 207.494 169.904 C 189.541 169.904 174.987 184.458 174.987 202.411 C 174.987 220.363 189.541 234.916 207.494 234.916 Z M 207.494 215.593 C 200.213 215.593 194.311 209.691 194.311 202.411 C 194.311 195.13 200.213 189.228 207.494 189.228 C 214.775 189.228 220.677 195.13 220.677 202.411 C 220.677 209.691 214.775 215.593 207.494 215.593 Z" fill="black"/>
</svg>
