<?xml version="1.0" encoding="utf-8"?>
<svg width="256" height="256" viewBox="0 0 256 256" fill="none" xmlns="http://www.w3.org/2000/svg">
  <path fill-rule="evenodd" clip-rule="evenodd" d="M 104.973 144.41 C 111.192 144.555 105.263 128.938 113.361 128.793 C 121.459 128.648 117.554 149.761 127.966 149.761 C 138.377 149.761 132.593 139.349 141.414 139.349 C 150.235 139.349 146.331 168.704 155.441 168.704 C 164.551 168.704 163.539 112.886 165.419 107.97 C 167.299 103.053 188.846 84.543 188.846 59.816 C 188.846 35.088 171.059 16 132.738 16 C 94.417 16 70.846 50.272 70.846 71.963 C 70.846 93.654 84.439 98.137 91.236 109.705 C 98.032 121.274 98.755 144.266 104.973 144.41 Z M 122.76 92.208 C 116.544 91.485 109.89 103.776 115.819 109.705 C 121.748 115.634 131.003 107.102 131.003 101.462 C 131.003 95.823 128.976 92.931 122.76 92.208 Z M 89.067 77.747 C 88.671 86.65 94.562 95.1 101.214 95.1 C 107.866 95.1 112.637 85.15 112.637 76.301 C 112.637 68.492 109.099 62.563 101.214 62.563 C 92.682 62.563 89.441 69.332 89.067 77.747 Z M 122.76 61.262 C 122.76 70.081 131.147 86.423 143.294 86.712 C 155.441 87.002 159.201 71.963 159.056 62.563 C 158.912 53.164 155.586 41.017 143.294 41.017 C 131.003 41.017 122.76 52.443 122.76 61.262 Z" fill="black"/>
  <path d="M 81.836 128.793 C 70.41 129.82 65.493 112.163 69.834 110.573 C 74.175 108.982 93.262 127.766 81.836 128.793 Z" fill="black"/>
  <path d="M 57.254 116.501 C 9.822 88.592 7.802 44.198 37.012 44.198 C 66.222 44.198 47.71 72.107 47.71 80.205 C 47.71 88.303 49.448 103.92 57.254 116.501 Z" fill="black"/>
  <path d="M 193.33 105.511 C 189.137 98.281 174.096 110.283 178.291 118.671 C 182.486 127.058 197.524 112.742 193.33 105.511 Z" fill="black"/>
  <path d="M 198.825 136.896 C 222.541 123.305 258.981 49.552 223.264 52.443 C 187.546 55.333 227.457 85.122 198.825 136.896 Z" fill="black"/>
  <path d="M 141.995 203.271 C 102.083 194.016 119.292 165.818 117.412 156.129 C 140.549 163.359 122.443 192.425 141.995 203.271 Z" fill="black"/>
  <path d="M 120.593 203.271 C 98.035 182.737 105.265 157.864 79.091 160.467 C 91.817 174.494 93.118 201.68 120.593 203.271 Z" fill="black"/>
  <path d="M 204.174 240 L 153.128 240 C 153.128 240 144.887 232.771 117.412 232.771 C 113.941 232.771 110.76 228.577 98.035 222.214 C 91.569 218.982 84.614 218.109 80.392 214.695 C 76.306 211.389 74.877 205.574 73.308 200.524 C 70.118 190.257 51.761 179.266 57.69 173.337 C 63.619 167.409 91.235 196.908 94.707 200.524 C 98.18 204.139 99.769 212.671 128.401 212.671 C 157.033 212.671 172.216 188.81 173.518 186.352 C 174.819 183.894 173.518 172.181 175.108 165.095 C 176.699 158.009 185.954 152.369 188.846 153.237 C 191.738 154.105 190.726 172.181 190.437 174.494 C 190.148 176.808 185.376 192.281 185.52 198.499 C 185.665 204.716 204.174 240 204.174 240 Z" fill="black"/>
</svg>
