<?xml version="1.0" encoding="utf-8"?>
<svg width="256" height="256" viewBox="0 0 256 256" fill="none" xmlns="http://www.w3.org/2000/svg">
  <path d="M 162.69 160.394 C 177.94 145.183 192.615 130.546 197.636 114.307 C 206.983 84.074 193.229 56.132 165.187 56.132 C 150.847 56.132 141.396 62.213 135.583 68.156 C 136.486 68.737 137.342 69.42 138.132 70.207 L 171.478 103.407 C 177.513 109.338 177.513 119.198 171.555 125.207 L 138.209 158.406 C 132.174 164.415 122.349 164.415 116.314 158.406 L 82.968 125.207 C 76.933 119.198 76.933 109.415 82.968 103.407 L 116.237 70.207 C 117.09 69.358 118.018 68.629 119.001 68.02 C 112.724 62.12 102.847 56.132 88.617 56.132 C 60.574 56.132 47.689 84.074 57.037 114.307 C 62.147 130.835 77.03 145.573 92.637 161.029 C 105.579 173.845 119.018 187.153 127.797 202.384 C 135.982 187.034 149.55 173.501 162.69 160.394 Z" fill="black"/>
  <path d="M 122.89 148.007 L 149.737 110.648 C 150.665 109.338 150.124 108.26 148.499 108.183 L 133.335 108.183 L 133.335 80.991 C 133.335 79.374 132.561 79.066 131.556 80.452 L 104.708 117.812 C 103.703 119.198 104.244 120.277 105.946 120.277 L 121.111 120.277 L 121.111 147.469 C 121.111 149.086 121.884 149.394 122.89 148.007 Z" fill="black"/>
  <path fill-rule="evenodd" clip-rule="evenodd" d="M 137.006 46.556 C 133.096 49.72 128.461 53.576 128.461 53.576 C 128.277 53.389 128.083 53.193 127.88 52.99 C 126.072 51.186 123.51 48.777 120.5 46.373 C 113.813 41.031 102.156 37.677 83.983 37.677 C 65.18 37.677 51.532 50.597 43.524 65.952 C 35.529 81.279 32.596 99.995 35.84 113.378 C 38.569 124.636 45.254 134.873 53.5 144.573 C 60.301 152.571 68.365 160.426 76.445 168.297 C 78.151 169.958 79.857 171.62 81.552 173.284 C 87.475 179.099 93.614 186.789 99.645 194.344 C 101.718 196.94 103.777 199.52 105.811 202.002 C 109.714 206.766 113.539 211.185 117.07 214.428 C 118.838 216.052 120.624 217.469 122.394 218.495 C 124.136 219.505 126.113 220.284 128.198 220.284 C 130.232 220.284 132.195 219.564 133.956 218.61 C 135.744 217.642 137.567 216.3 139.384 214.75 C 143.015 211.654 146.973 207.426 151.021 202.825 C 153.665 199.818 156.351 196.653 159.048 193.474 L 159.049 193.472 C 164.764 186.737 170.53 179.941 176.07 174.463 C 195.365 155.384 211.582 134.667 218.154 113.594 C 224.114 94.485 218.289 75.53 208.648 61.53 C 203.816 54.512 197.947 48.615 191.919 44.444 C 185.95 40.314 179.529 37.677 173.631 37.677 C 155.451 37.677 145.78 39.459 137.006 46.556 Z M 49.675 69.161 C 42.278 83.344 39.818 100.336 42.583 111.744 C 44.939 121.463 50.826 130.716 58.786 140.079 C 65.355 147.804 73.132 155.381 81.205 163.247 C 82.93 164.928 84.669 166.622 86.412 168.333 C 92.664 174.471 99.205 182.666 105.305 190.309 C 107.319 192.832 109.286 195.296 111.178 197.605 C 115.061 202.345 118.622 206.433 121.764 209.319 C 123.332 210.76 124.704 211.815 125.874 212.493 C 127.072 213.188 127.817 213.347 128.198 213.347 C 128.629 213.347 129.419 213.177 130.652 212.509 C 131.858 211.857 133.27 210.846 134.883 209.471 C 138.114 206.716 141.799 202.803 145.811 198.242 C 148.269 195.449 150.85 192.408 153.492 189.294 C 159.314 182.434 165.435 175.222 171.192 169.529 C 190.253 150.682 205.475 130.945 211.531 111.528 C 216.679 95.022 211.751 78.269 202.934 65.465 C 198.538 59.081 193.253 53.803 187.971 50.149 C 182.63 46.453 177.586 44.615 173.631 44.615 C 155.745 44.615 148.181 46.44 141.37 51.95 C 137.488 55.091 134.756 57.352 132.999 58.825 C 132.121 59.561 130.48 60.964 130.48 60.964 L 127.875 63.241 L 124.929 59.916 C 123.247 58.237 118.927 53.996 116.17 51.794 C 111.323 47.921 101.6 44.615 83.983 44.615 C 68.8 44.615 57.058 55.006 49.675 69.161 Z" fill="black"/>
  <path fill-rule="evenodd" clip-rule="evenodd" d="M 130.921 28.782 C 129.877 29.541 128.951 30.262 128.18 30.886 C 127.767 30.515 127.305 30.109 126.796 29.676 C 124.457 27.684 121.104 25.097 117.063 22.746 C 114.55 21.283 110.836 20.377 106.905 19.806 C 102.854 19.218 98.139 18.929 93.328 18.926 C 83.815 18.92 73.382 20.032 66.703 22.488 C 31.464 35.447 15.998 67.503 16 98.037 C 16.001 112.489 22.057 128.134 30.986 143.024 C 39.95 157.972 52.002 172.479 64.45 184.737 C 69.386 189.597 73.989 195.173 78.589 200.92 C 79.358 201.881 80.128 202.848 80.9 203.817 L 80.903 203.821 L 80.906 203.824 L 80.908 203.828 C 84.706 208.597 88.541 213.414 92.491 217.786 C 101.957 228.264 112.835 237.074 127.245 237.074 C 141.606 237.074 152.43 228.646 161.921 218.405 C 166.028 213.973 170.016 209.054 173.982 204.161 C 174.611 203.384 175.24 202.609 175.868 201.836 C 180.499 196.142 185.158 190.548 190.187 185.561 C 214.42 161.526 235.394 129.848 239.504 102.437 C 241.95 86.129 235.063 67.977 225.047 53.345 C 215.058 38.753 201.297 26.704 188.856 23.235 C 181.229 21.108 171.834 20.263 163.423 20.245 C 155.085 20.228 147.229 21.023 142.754 22.436 C 138.272 23.852 133.979 26.561 130.921 28.782 Z M 93.323 25.864 C 84.088 25.858 74.627 26.966 69.098 29 C 37.171 40.74 22.936 69.737 22.938 98.037 C 22.939 110.689 28.302 125.058 36.936 139.456 C 45.536 153.796 57.19 167.851 69.318 179.793 C 74.571 184.966 79.394 190.823 84.005 196.584 C 84.795 197.571 85.577 198.554 86.355 199.53 L 86.362 199.539 L 86.371 199.549 L 86.371 199.55 L 86.378 199.559 C 90.174 204.325 93.848 208.939 97.639 213.135 C 106.831 223.31 115.944 230.137 127.245 230.137 C 138.594 230.137 147.674 223.572 156.832 213.69 C 160.771 209.439 164.596 204.721 168.574 199.814 C 169.207 199.033 169.844 198.247 170.486 197.458 C 175.122 191.758 179.984 185.908 185.301 180.634 C 209.094 157.036 228.856 126.663 232.644 101.408 C 234.723 87.551 228.853 71.187 219.322 57.264 C 209.764 43.302 197.189 32.761 186.993 29.918 C 180.189 28.02 171.476 27.2 163.409 27.183 C 155.269 27.166 148.278 27.967 144.844 29.052 C 141.417 30.134 137.837 32.333 134.999 34.395 C 133.608 35.406 132.448 36.344 131.64 37.027 C 131.237 37.367 130.42 38.096 130.42 38.096 L 127.907 40.442 L 125.357 37.763 C 125.222 37.627 125.013 37.42 124.736 37.154 C 124.181 36.622 123.356 35.858 122.299 34.958 C 120.178 33.153 117.164 30.832 113.573 28.742 C 112.271 27.984 109.674 27.219 105.908 26.672 C 102.26 26.142 97.887 25.867 93.323 25.864 Z M 197.636 114.307 C 192.615 130.546 177.94 145.183 162.69 160.394 C 149.55 173.501 135.982 187.034 127.797 202.384 C 119.018 187.153 105.579 173.845 92.637 161.029 C 77.03 145.573 62.147 130.835 57.037 114.307 C 47.689 84.074 60.574 56.132 88.617 56.132 C 102.847 56.132 112.724 62.12 119.001 68.02 C 118.018 68.629 117.09 69.358 116.237 70.207 L 82.968 103.407 C 76.933 109.415 76.933 119.198 82.968 125.207 L 116.314 158.406 C 122.349 164.415 132.174 164.415 138.209 158.406 L 171.555 125.207 C 177.513 119.198 177.513 109.338 171.478 103.407 L 138.132 70.207 C 137.342 69.42 136.486 68.737 135.583 68.156 C 141.396 62.213 150.847 56.132 165.187 56.132 C 193.229 56.132 206.983 84.074 197.636 114.307 Z M 149.737 110.648 L 122.89 148.007 C 121.884 149.394 121.111 149.086 121.111 147.469 L 121.111 120.277 L 105.946 120.277 C 104.244 120.277 103.703 119.198 104.708 117.812 L 131.556 80.452 C 132.561 79.066 133.335 79.374 133.335 80.991 L 133.335 108.183 L 148.499 108.183 C 150.124 108.26 150.665 109.338 149.737 110.648 Z" fill="black"/>
</svg>
