<?xml version="1.0" encoding="utf-8"?>
<svg width="256" height="256" viewBox="0 0 256 256" fill="none" xmlns="http://www.w3.org/2000/svg">
  <path fill-rule="evenodd" clip-rule="evenodd" d="M 136.107 35.851 C 135.383 32.484 134.067 28.85 132.819 25.402 L 132.799 25.343 C 132.322 24.027 131.855 22.737 131.436 21.5 C 131.2 20.803 130.978 20.124 130.779 19.466 C 130.614 18.922 130.464 18.394 130.333 17.882 C 130.229 17.476 130.136 17.08 130.056 16.696 C 129.995 16.4 129.792 16.181 129.544 16.073 C 129.251 15.946 128.894 15.977 128.634 16.225 C 121.572 22.986 118.246 30.099 117.665 35.984 C 102.943 37.826 89.495 43.769 78.503 52.634 C 75.684 50.861 72.336 49.293 69.154 47.802 C 66.093 46.369 63.185 45.006 61.045 43.601 C 60.492 43.238 59.721 43.612 59.706 44.274 C 59.498 53.843 62.06 61.12 65.686 65.711 C 56.908 77.062 51.188 90.898 49.764 105.985 C 46.208 106.669 42.312 108.079 38.628 109.413 C 35.45 110.563 32.43 111.657 29.922 112.176 C 29.275 112.311 28.994 113.12 29.451 113.598 C 36.603 121.067 44.148 124.358 50.217 124.641 C 52.296 139.067 58.32 152.217 67.162 162.962 C 65.129 165.961 63.369 169.718 61.706 173.269 C 60.272 176.33 58.91 179.238 57.505 181.378 C 57.142 181.931 57.516 182.702 58.177 182.717 C 68.5 182.941 76.154 179.943 80.649 175.861 C 91.078 183.69 103.532 188.967 117.085 190.765 C 117.38 192.548 117.681 194.349 117.981 196.145 L 117.987 196.181 C 120.171 209.27 122.312 222.093 122.312 225.935 C 122.312 233.779 115.008 240 115.008 240 L 140.164 240 C 140.164 240 132.861 233.913 132.861 226.069 C 132.861 222.228 135.001 209.405 137.185 196.316 L 137.192 196.28 C 137.501 194.425 137.811 192.565 138.117 190.725 C 152.619 188.743 165.852 182.777 176.678 173.965 C 179.867 176.542 184.419 178.674 188.676 180.668 C 191.737 182.102 194.645 183.465 196.786 184.87 C 197.339 185.232 198.109 184.858 198.124 184.197 C 198.374 172.694 194.622 164.504 189.829 160.308 C 197.957 149.514 203.349 136.541 204.972 122.423 C 208.854 121.865 213.246 120.275 217.372 118.782 C 220.55 117.631 223.571 116.538 226.078 116.018 C 226.726 115.884 227.006 115.074 226.549 114.597 C 219.033 106.746 211.082 103.512 204.867 103.533 C 203.188 90.239 198.164 77.987 190.665 67.647 C 193.558 63.901 194.733 57.301 195.811 51.249 C 196.404 47.922 196.967 44.76 197.77 42.329 C 197.978 41.701 197.417 41.053 196.775 41.21 C 187.024 43.597 180.498 48.275 177.124 53.225 C 165.722 43.804 151.597 37.561 136.107 35.851 Z M 117.995 41.542 C 119.377 47.201 124.026 50.455 130.377 48.802 C 134.668 47.685 136.367 44.988 136.631 41.507 C 151.09 43.334 164.222 49.421 174.729 58.471 C 173.464 63.805 175.917 68.618 181.995 70.294 C 183.482 70.703 184.792 70.791 185.951 70.61 C 187.527 72.759 188.986 74.998 190.321 77.319 C 189.087 77.877 187.904 78.857 186.958 80.276 C 186.836 80.459 186.716 80.65 186.598 80.848 C 186.359 81.247 186.125 81.677 185.887 82.137 C 185.582 82.73 185.27 83.372 184.935 84.063 C 183.655 86.7 182.039 90.031 179.114 93.936 C 174.828 99.659 167.709 106.322 166.401 106.649 C 163.696 107.325 134.484 108.272 132.861 106.649 C 131.992 105.78 132.518 103.401 133.194 100.34 L 133.196 100.334 C 133.783 97.678 134.484 94.508 134.484 91.366 C 134.484 84.604 131.643 79.33 127.586 79.33 C 123.529 79.33 120.689 84.469 120.689 91.232 C 120.689 94.373 121.389 97.543 121.976 100.199 L 121.978 100.206 C 122.654 103.267 123.18 105.645 122.312 106.514 C 120.689 108.137 91.476 107.19 88.771 106.514 C 87.464 106.188 80.344 99.524 76.058 93.802 C 73.133 89.896 71.517 86.565 70.237 83.928 L 70.228 83.909 C 69.996 83.43 69.774 82.973 69.557 82.54 C 69.105 81.634 68.675 80.833 68.214 80.142 C 67.228 78.663 65.986 77.662 64.697 77.117 C 66.232 74.469 67.93 71.927 69.777 69.505 C 74.831 72.762 80.584 71.854 83.975 66.077 C 86.308 62.103 85.453 58.901 82.962 56.186 C 92.896 48.452 104.896 43.248 117.995 41.542 Z M 199.397 104.554 C 198.667 98.569 197.208 92.809 195.111 87.366 C 194.584 87.765 194.044 88.137 193.537 88.488 C 192.88 88.941 192.277 89.358 191.827 89.743 C 191.231 90.255 189.344 92.85 186.894 96.219 L 186.87 96.252 L 186.859 96.268 C 181.54 103.586 173.6 114.509 170.458 115.71 C 168.483 116.466 165.16 116.672 161.701 116.886 C 157.107 117.171 152.274 117.471 150.037 119.091 C 146.115 121.931 137.594 136.538 137.594 143.706 C 137.594 147.135 138.554 150.069 139.555 153.13 C 140.646 156.467 141.787 159.954 141.787 164.398 C 141.787 167.525 140.585 175.604 139.063 184.968 C 151.838 182.911 163.494 177.516 173.111 169.706 C 172.152 167.582 172.222 165.178 173.856 162.394 C 176.571 157.769 180.799 156.264 184.971 157.52 C 192.656 147.513 197.788 135.444 199.394 122.285 C 196.828 121.6 194.879 119.824 193.972 116.339 C 192.507 110.711 194.896 106.42 199.397 104.554 Z M 116.138 185.016 C 114.603 175.575 113.385 167.41 113.385 164.263 C 113.385 159.819 114.526 156.332 115.617 152.995 L 115.621 152.987 C 116.62 149.929 117.578 146.998 117.578 143.572 C 117.578 136.404 109.058 121.797 105.136 118.956 C 102.898 117.336 98.065 117.036 93.471 116.751 C 90.012 116.537 86.689 116.331 84.714 115.575 C 81.572 114.374 73.632 103.451 68.313 96.133 C 67.143 94.523 66.1 93.088 65.262 91.969 C 64.335 90.73 63.66 89.879 63.345 89.609 C 63.035 89.342 62.651 89.062 62.227 88.764 L 61.939 88.563 L 61.635 88.353 C 61.073 87.965 60.472 87.55 59.892 87.102 C 57.61 92.959 56.067 99.186 55.378 105.668 C 58.547 106.088 60.982 107.833 62.029 111.855 C 63.585 117.836 60.79 122.308 55.732 123.963 C 57.636 137.018 63.02 148.944 70.912 158.769 C 73.447 156.832 76.4 156.347 79.98 158.448 C 85.32 161.583 86.5 166.735 84.076 171.488 C 93.309 178.395 104.244 183.152 116.138 185.016 Z" fill="black"/>
</svg>
