<?xml version="1.0" encoding="utf-8"?>
<svg width="256" height="256" viewBox="0 0 256 256" fill="none" xmlns="http://www.w3.org/2000/svg">
  <path d="M 16 18.682 L 16 38.288 C 24.042 29.355 28.882 25.03 38.297 18.81 L 16 18.682 Z" fill="#000000b2"/>
  <path d="M 16 237.301 L 16 195.269 C 23.942 213.156 31.342 223.23 46.755 237.301 L 16 237.301 Z" fill="#000000b2"/>
  <path d="M 59.826 185.401 C 64.294 176.941 70.925 172.414 78.921 171.946 C 42.142 137.09 59.058 94.929 106.728 53.41 C 95.835 55.46 83.533 62.508 71.103 71.094 C 71.103 71.094 89.044 42.774 127.616 42.774 C 149.513 42.774 164.225 60.987 172.852 76.734 C 174.902 80.476 172.724 92.495 172.724 92.495 C 172.724 92.495 177.849 89.676 179.259 92.238 C 181.668 96.617 182.463 99.286 182.463 99.286 C 182.463 99.286 180.157 38.16 125.951 38.16 C 71.745 38.16 38.425 93.648 38.427 130.811 C 38.427 167.973 59.826 185.401 59.826 185.401 Z" fill="#000000b2"/>
  <path fill-rule="evenodd" clip-rule="evenodd" d="M 107.112 171.433 C 114.801 165.154 114.032 145.163 114.032 145.163 C 120.312 148.623 126.847 147.342 126.847 147.342 C 126.847 147.342 123.941 145.005 120.312 142.472 C 119.583 141.964 118.772 141.483 117.896 140.964 C 116.388 140.07 114.687 139.062 112.884 137.602 C 111.358 136.367 110.342 134.014 109.318 131.642 C 108.323 129.338 107.32 127.017 105.836 125.685 C 103.558 123.64 101.197 122.191 99.016 120.852 C 94.628 118.159 90.972 115.914 90.202 110.179 C 90.011 108.757 89.177 100.952 90.202 99.927 C 91.227 98.902 100.069 102.49 100.069 102.49 L 100.069 87.006 C 100.069 87.006 100.705 56.357 132.101 56.357 C 161.446 56.357 161.446 87.241 161.446 87.241 L 161.446 102.49 C 161.446 102.49 171.319 99.254 172.472 99.927 C 173.626 100.6 173.066 108.717 172.472 110.179 C 168.811 119.199 164.784 121.077 160.982 122.851 C 159.329 123.622 157.718 124.374 156.198 125.685 C 154.751 126.932 154.058 128.686 153.288 130.635 C 151.892 134.168 150.241 138.345 143.383 141.319 C 143.383 141.319 139.149 160.413 150.81 169.896 C 156.423 174.737 163.399 177.793 170.698 180.627 C 177.502 183.269 183.811 185.72 187.337 189.246 C 196.948 198.857 200.788 237.318 200.788 237.318 L 174.133 237.301 C 174.133 237.301 174.133 223.479 167.726 223.479 L 167.726 237.318 L 88.787 237.301 L 88.787 223.1 C 83.021 223.1 83.021 237.301 83.021 237.301 L 55.213 237.301 C 55.213 222.687 58.351 200.468 70.847 187.708 C 75.279 183.182 81.136 181.865 89.13 180.068 C 91.801 179.468 99.952 177.281 107.112 171.433 Z M 115.314 116.843 C 119.206 116.843 122.362 113.056 122.362 108.385 C 122.362 103.714 119.206 99.927 115.314 99.927 C 111.421 99.927 108.266 103.714 108.266 108.385 C 108.266 113.056 111.421 116.843 115.314 116.843 Z M 150.298 108.385 C 150.298 113.056 147.142 116.843 143.25 116.843 C 139.357 116.843 136.202 113.056 136.202 108.385 C 136.202 103.714 139.357 99.927 143.25 99.927 C 147.142 99.927 150.298 103.714 150.298 108.385 Z" fill="black"/>
  <path d="M 91.222 130.683 C 91.222 141.319 100.577 152.339 102.636 152.339 L 102.636 141.831 C 100.577 141.831 94.938 137.346 91.222 130.683 Z" fill="#000000b2"/>
  <path d="M 154.399 155.797 L 154.399 146.06 C 158.459 145.16 160.613 142.224 162.651 139.447 C 163.507 138.28 164.343 137.141 165.291 136.193 C 166.68 134.803 168.213 133.744 169.806 132.643 C 174.132 129.654 178.904 126.356 182.462 115.305 C 182.462 139.525 167.726 151.57 154.399 155.797 Z" fill="#000000b2"/>
  <path d="M 52.394 197.447 C 49.446 200.394 48.677 210.134 49.446 213.978 C 32.742 192.069 25.098 177.456 25.098 154.902 C 32.911 173.202 39.077 187.086 52.394 197.447 Z" fill="#000000b2"/>
  <path d="M 240 237.301 L 240 181.941 C 229.09 195.842 222.289 202.844 209.374 213.594 L 209.374 227.946 C 216.55 220.257 220.779 216.285 228.596 210.774 C 223.389 220.955 218.861 226.789 209.246 237.301 L 240 237.301 Z" fill="#000000b2"/>
  <path d="M 240 130.683 L 240 162.463 C 227.978 178.959 220.874 187.311 204.504 200.266 C 204.504 195.909 203.094 191.424 200.916 188.349 C 220.651 168.486 230.39 153.236 240 130.683 Z" fill="#000000b2"/>
  <path fill-rule="evenodd" clip-rule="evenodd" d="M 191.946 177.328 C 186.692 172.074 182.463 170.024 174.518 167.973 C 225.264 119.662 195.159 27.268 122.234 27.268 C 48.037 27.268 16 109.666 16 109.666 L 16 67.122 C 33.684 41.748 47.652 29.959 69.437 18.81 L 175.415 18.81 C 175.415 18.81 217.575 43.799 217.575 106.078 C 217.575 146.06 191.946 177.328 191.946 177.328 Z M 181.309 32.906 C 194.38 52.257 207.067 78.142 211.039 99.799 C 212.577 73.273 200.66 46.105 181.309 32.906 Z" fill="#000000b2"/>
  <path d="M 240 18.81 L 206.682 18.81 C 222.06 32.137 231.287 48.796 240 66.353 L 240 18.81 Z" fill="#000000b2"/>
</svg>

