<?xml version="1.0" encoding="utf-8"?>
<svg width="256" height="256" viewBox="0 0 256 256" fill="none" xmlns="http://www.w3.org/2000/svg">
  <path d="M 210.673 23.566 C 210.497 22.745 209.324 22.745 209.148 23.566 L 204.178 46.708 C 204.114 47.008 203.88 47.242 203.579 47.307 L 180.438 52.276 C 179.616 52.453 179.616 53.625 180.438 53.802 L 203.527 58.76 C 203.853 58.83 204.099 59.099 204.138 59.431 L 209.136 101.626 C 209.244 102.543 210.577 102.543 210.685 101.626 L 215.683 59.431 C 215.702 59.273 215.767 59.13 215.865 59.015 C 215.973 58.888 216.123 58.797 216.294 58.76 L 239.383 53.802 C 240.205 53.625 240.205 52.453 239.383 52.276 L 216.241 47.307 C 215.941 47.242 215.707 47.008 215.643 46.708 L 210.673 23.566 Z" fill="black"/>
  <path d="M 46.851 168.406 C 46.675 167.584 45.502 167.584 45.326 168.406 L 40.356 191.547 C 40.327 191.685 40.262 191.808 40.171 191.908 C 40.064 192.026 39.92 192.111 39.757 192.146 L 16.616 197.115 C 15.794 197.292 15.794 198.465 16.616 198.641 L 39.737 203.606 C 40.048 203.673 40.287 203.921 40.342 204.233 L 45.32 232.406 C 45.472 233.265 46.705 233.265 46.857 232.406 L 51.835 204.233 C 51.89 203.921 52.129 203.673 52.44 203.606 L 75.561 198.641 C 76.383 198.465 76.383 197.292 75.561 197.115 L 52.419 192.146 C 52.329 192.127 52.245 192.092 52.169 192.044 C 52.085 191.992 52.012 191.924 51.954 191.844 C 51.934 191.817 51.915 191.789 51.899 191.759 C 51.863 191.694 51.837 191.623 51.821 191.547 L 46.851 168.406 Z" fill="black"/>
  <path fill-rule="evenodd" clip-rule="evenodd" d="M 132.68 32.236 L 153.873 92.174 L 112.787 92.174 C 112.787 92.174 109.927 92.434 109.927 95.685 C 109.927 98.935 112.787 98.935 112.787 98.935 L 153.873 98.935 L 153.873 152.502 C 153.873 152.502 154.003 155.623 157.773 155.623 C 161.544 155.623 161.544 152.502 161.544 152.502 L 161.544 92.174 L 144.512 43.808 L 183.777 98.935 L 183.777 178.506 C 168.175 195.061 136.867 228.276 136.451 228.692 C 136.035 229.108 114.694 195.408 104.076 178.506 L 147.242 178.506 C 147.242 178.506 151.663 178.506 151.663 174.215 C 151.663 169.925 147.242 169.925 147.242 169.925 L 100.826 169.925 L 100.826 97.505 L 132.68 32.236 Z M 107.328 106.915 C 107.328 105.622 108.376 104.575 109.669 104.575 L 129.728 104.576 C 131.719 104.576 132.801 106.906 131.514 108.427 L 111.454 132.149 C 110.046 133.814 107.326 132.818 107.327 130.637 L 107.328 106.915 Z M 158.034 167.194 C 160.26 167.194 162.064 165.39 162.064 163.164 C 162.064 160.938 160.26 159.133 158.034 159.133 C 155.807 159.133 154.003 160.938 154.003 163.164 C 154.003 165.39 155.807 167.194 158.034 167.194 Z" fill="black"/>
  <path d="M 121.109 43.808 C 112.701 59.93 95.755 92.174 95.235 92.174 L 76.903 85.153 L 121.109 43.808 Z" fill="black"/>
  <path d="M 74.952 93.734 L 95.235 98.935 L 95.235 169.925 L 74.952 169.925 L 74.952 93.734 Z" fill="black"/>
  <path d="M 123.449 221.411 L 78.073 178.506 L 95.235 178.506 L 123.449 221.411 Z" fill="black"/>
  <path d="M 209.91 120.648 C 211.921 120.648 213.551 119.018 213.551 117.007 C 213.551 114.997 211.921 113.367 209.91 113.367 C 207.9 113.367 206.27 114.997 206.27 117.007 C 206.27 119.018 207.9 120.648 209.91 120.648 Z" fill="black"/>
</svg>
