<?xml version="1.0" encoding="utf-8"?>
<svg width="256" height="256" viewBox="0 0 256 256" fill="none" xmlns="http://www.w3.org/2000/svg">
  <path d="M 66.144 16.791 C 69.931 17.671 73.611 20.281 76.657 25.19 C 82.63 34.816 82.822 43.569 81.063 49.27 C 80.202 52.062 78.816 54.29 77.24 55.412 C 76.448 55.976 75.407 56.392 74.298 56.129 C 73.14 55.855 72.394 54.96 71.983 53.943 C 70.933 51.341 67.856 47.312 63.907 43.196 C 59.999 39.123 55.432 35.166 51.601 32.683 C 50.279 31.826 49.458 30.626 49.16 29.236 C 48.869 27.885 49.097 26.481 49.615 25.183 C 50.645 22.606 52.95 20.111 55.833 18.463 C 58.739 16.803 62.384 15.918 66.144 16.791 Z" fill="black"/>
  <path fill-rule="evenodd" clip-rule="evenodd" d="M 84.514 116.733 C 90.06 117.393 96.516 120.327 99.332 126.33 C 100.028 127.815 101.946 129.81 105.024 132.439 C 106.059 133.323 107.238 134.289 108.468 135.296 L 108.47 135.299 L 108.471 135.299 L 108.473 135.301 L 108.476 135.303 L 108.477 135.304 L 108.479 135.306 C 110.54 136.994 112.743 138.799 114.652 140.532 C 117.733 143.33 120.833 146.602 122.314 150.215 C 123.086 152.099 123.467 154.187 123.088 156.38 C 122.708 158.581 121.615 160.59 119.932 162.392 C 117.799 164.676 115.249 166.029 112.31 165.57 C 109.778 165.175 107.768 163.499 106.365 162.203 C 105.753 161.637 105.126 161.014 104.536 160.428 C 104.403 160.295 104.271 160.164 104.142 160.036 C 103.415 159.316 102.721 158.644 102.008 158.028 C 100.568 156.786 99.243 155.95 97.875 155.585 C 97.377 155.452 96.793 155.306 96.139 155.141 L 96.131 155.14 L 96.131 155.139 L 96.125 155.138 L 96.124 155.138 L 96.123 155.137 C 91.684 154.024 84.021 152.1 78.012 148.213 C 74.482 145.93 71.217 142.792 69.51 138.458 C 67.777 134.056 67.839 128.9 70.087 122.997 C 71.195 120.091 73.689 118.373 76.204 117.489 C 78.737 116.599 81.671 116.394 84.514 116.733 Z M 78.566 123.781 C 77.829 124.017 76.938 124.45 76.554 125.46 C 74.785 130.103 74.972 133.443 75.949 135.922 C 76.951 138.469 78.98 140.598 81.77 142.403 C 86.72 145.605 93.098 147.225 97.644 148.38 L 97.646 148.381 C 98.367 148.564 99.042 148.735 99.658 148.899 C 102.475 149.651 104.735 151.242 106.528 152.79 C 107.432 153.569 108.266 154.382 109.011 155.12 C 109.162 155.27 109.308 155.415 109.451 155.556 L 109.455 155.56 C 110.037 156.139 110.55 156.649 111.06 157.12 C 112.434 158.389 113.034 158.754 113.378 158.734 C 113.721 158.713 114.252 158.337 114.875 157.669 C 115.815 156.663 116.159 155.841 116.269 155.203 C 116.381 154.557 116.304 153.798 115.912 152.839 C 115.063 150.768 113.001 148.38 110 145.654 C 108.172 143.994 106.283 142.45 104.361 140.879 C 103.096 139.845 101.816 138.799 100.53 137.7 C 97.595 135.194 94.491 132.304 93.067 129.268 C 91.642 126.23 87.906 124.105 83.696 123.604 C 81.661 123.362 79.303 123.544 78.566 123.781 Z" fill="black"/>
  <path fill-rule="evenodd" clip-rule="evenodd" d="M 68.022 174.14 C 63.005 171.921 58.143 173.151 54.998 176.352 C 51.934 179.472 50.651 184.302 52.137 189.045 C 52.985 191.752 55.295 194.238 57.754 196.262 C 60.315 198.37 63.474 200.327 66.64 201.884 C 69.794 203.436 73.098 204.661 75.968 205.213 C 77.396 205.488 78.848 205.622 80.181 205.477 C 81.485 205.334 83.024 204.881 84.162 203.643 C 85.242 202.468 85.617 201.007 85.681 199.709 C 85.744 198.413 85.513 197.054 85.146 195.75 C 84.411 193.136 82.98 190.219 81.25 187.448 C 79.507 184.656 77.377 181.879 75.142 179.551 C 72.945 177.263 70.475 175.226 68.022 174.14 Z M 57.675 187.309 C 56.818 184.576 57.6 181.985 59.139 180.419 C 60.598 178.934 62.877 178.21 65.673 179.447 C 67.126 180.09 68.98 181.512 70.955 183.57 C 72.89 185.586 74.778 188.041 76.327 190.522 C 77.889 193.024 79.025 195.422 79.559 197.321 C 79.827 198.274 79.907 198.971 79.884 199.426 C 79.88 199.523 79.871 199.599 79.862 199.657 C 79.789 199.674 79.687 199.693 79.551 199.708 C 79.001 199.768 78.173 199.728 77.065 199.514 C 74.86 199.09 72.061 198.083 69.202 196.677 C 66.356 195.277 63.593 193.551 61.442 191.781 C 59.189 189.927 57.998 188.34 57.675 187.309 Z" fill="black"/>
  <path fill-rule="evenodd" clip-rule="evenodd" d="M 198.263 94.341 C 198.627 90.348 198.14 86.365 197.008 83.008 C 196.591 82.698 196.039 82.268 195.413 81.737 C 194.086 80.609 192.355 78.959 190.913 76.955 C 189.489 74.978 188.175 72.419 188.059 69.519 C 187.938 66.468 189.16 63.48 191.992 60.856 C 193.862 59.123 196.151 58.588 198.454 59.182 C 200.532 59.719 202.398 61.11 203.994 62.714 C 207.219 65.954 210.345 71.087 212.99 76.636 C 215.661 82.241 217.958 88.518 219.437 94.236 C 220.881 99.821 221.666 105.323 220.92 109.157 C 220.137 113.176 217.937 115.762 214.798 116.854 C 211.952 117.844 208.793 117.436 206.197 116.75 C 205.346 116.525 204.51 116.257 203.707 115.968 C 202.975 116.206 202.208 116.375 201.433 116.487 C 198.668 116.886 195.649 116.582 193.34 115.944 C 192.629 115.748 191.891 115.238 191.175 114.583 C 190.446 113.916 189.682 113.044 188.923 112.04 C 187.404 110.033 185.863 107.45 184.612 104.799 C 183.363 102.153 182.383 99.4 182.012 97.056 C 181.827 95.885 181.787 94.781 181.964 93.828 C 182.141 92.872 182.546 92.022 183.285 91.445 C 184.661 90.371 186.631 90.3 188.619 90.643 C 190.638 90.992 192.854 91.798 194.892 92.7 C 196.091 93.231 197.24 93.801 198.263 94.341 Z M 195.937 65.112 C 196.356 64.724 196.612 64.701 197.004 64.802 C 197.619 64.961 198.596 65.518 199.881 66.808 C 202.417 69.356 205.206 73.794 207.751 79.133 C 210.27 84.418 212.437 90.347 213.818 95.689 C 215.234 101.165 215.704 105.578 215.223 108.048 C 214.778 110.333 213.811 111.053 212.891 111.373 C 211.677 111.795 209.883 111.722 207.681 111.139 C 207.161 111.002 206.642 110.842 206.13 110.668 C 204.315 109.139 203.733 106.68 203.547 104.132 C 203.472 103.106 203.464 102.137 203.457 101.232 L 203.457 101.231 C 203.452 100.706 203.448 100.203 203.431 99.722 C 203.423 99.491 203.412 99.264 203.395 99.046 C 204.841 92.511 204.232 85.636 202.146 80.145 C 201.931 79.58 201.545 79.095 201.042 78.76 C 200.957 78.701 200.716 78.532 200.547 78.407 C 200.209 78.158 199.726 77.786 199.171 77.314 C 198.042 76.356 196.69 75.048 195.622 73.565 C 194.535 72.054 193.91 70.595 193.858 69.289 C 193.812 68.134 194.193 66.728 195.937 65.112 Z" fill="black"/>
  <path d="M 91.504 91.187 C 94.527 93.543 97.158 95.564 100.091 95.888 C 104.09 96.33 108.154 98.307 110.643 101.631 C 113.211 105.061 113.938 109.71 111.542 114.968 C 109.533 119.375 106.796 121.702 103.345 121.538 C 100.275 121.393 97.396 119.231 95.046 116.999 C 93.111 115.161 91.229 112.963 89.593 111.053 C 89.18 110.571 88.783 110.107 88.405 109.672 C 87.438 108.56 86.607 107.65 85.906 107.008 C 85.556 106.689 84.874 106.237 84.874 106.237 C 81.304 105.802 78.642 104.518 76.87 102.628 C 75.088 100.727 74.361 98.377 74.378 96.127 C 74.394 93.9 75.135 91.717 76.356 90.019 C 77.57 88.331 79.388 86.963 81.611 86.738 C 83.589 86.537 85.393 87.166 86.978 88.031 C 88.546 88.886 90.077 90.075 91.504 91.187 Z" fill="black"/>
  <path d="M 46.234 109.964 C 46.693 109.25 46.712 108.462 46.663 107.929 C 46.611 107.354 46.45 106.755 46.246 106.179 C 45.834 105.021 45.139 103.669 44.271 102.258 C 43.296 100.672 41.592 99.662 39.761 98.575 C 38.317 97.719 36.794 96.816 35.487 95.546 C 34.384 94.476 33.601 93.336 32.87 92.272 C 31.654 90.501 30.579 88.937 28.408 88.24 C 26.646 87.674 24.8 87.457 22.987 87.844 C 21.149 88.237 19.482 89.222 18.076 90.832 C 16.663 92.448 15.947 94.23 16.003 96.099 C 16.057 97.928 16.842 99.587 17.94 101.022 C 19.341 102.852 21.157 103.442 23.306 104.14 C 24.474 104.52 25.74 104.931 27.091 105.591 C 28.327 106.194 29.525 106.853 30.694 107.496 C 33.205 108.876 35.586 110.185 37.933 110.72 C 39.645 111.11 41.231 111.352 42.509 111.377 C 43.141 111.388 43.787 111.35 44.37 111.204 C 44.898 111.071 45.72 110.764 46.234 109.964 Z" fill="black"/>
  <path fill-rule="evenodd" clip-rule="evenodd" d="M 209.857 135.999 C 209.813 137.136 209.888 138.312 210.015 139.46 C 210.042 140.029 210.061 140.553 210.071 141.035 C 210.083 141.619 210.081 142.144 210.06 142.617 C 210.008 143.851 209.838 144.5 209.651 144.853 C 209.524 145.093 209.358 145.273 208.888 145.424 C 208.316 145.608 207.39 145.71 205.865 145.657 C 205.49 145.643 205.281 145.54 205.119 145.407 C 204.923 145.246 204.685 144.945 204.439 144.393 C 203.919 143.223 203.618 141.552 203.256 139.406 L 203.229 139.247 L 203.228 139.245 C 203.166 138.877 203.102 138.498 203.035 138.112 C 202.737 136.416 202.364 134.577 201.747 132.906 C 200.959 130.774 199.683 128.657 197.398 127.383 C 196.19 126.71 194.776 126.213 193.183 125.993 C 191.922 125.82 190.401 125.793 189.002 125.769 C 188.557 125.762 188.124 125.754 187.716 125.742 C 186.336 125.702 185.032 125.702 183.972 125.716 C 182.075 124.889 180.094 124.076 178.176 123.317 C 174.925 122.03 170.967 120.58 168.665 119.753 C 169.609 119.197 170.484 118.535 171.263 117.814 C 173.529 115.72 174.497 113.733 174.849 110.845 C 175.046 109.226 174.675 107.894 173.933 106.8 C 173.255 105.799 172.32 105.09 171.644 104.585 C 170.066 103.406 169.363 102.017 169.363 101.125 C 169.363 100.464 169.645 99.345 170.198 97.643 C 170.348 97.179 170.516 96.68 170.693 96.155 L 170.693 96.154 L 170.693 96.153 L 170.694 96.153 L 170.694 96.151 C 171.114 94.902 171.582 93.51 171.979 92.12 C 173.074 88.28 173.987 83.342 171.495 79.497 C 170.831 78.472 169.652 77.338 168.296 76.208 C 166.893 75.039 165.138 73.743 163.17 72.397 C 162.418 71.883 161.671 71.364 160.92 70.842 L 160.919 70.842 C 157.73 68.629 154.473 66.367 150.558 64.25 C 145.733 61.639 140.888 59.328 137.042 57.955 C 136.925 57.913 136.798 57.867 136.663 57.818 C 134.605 57.073 130.637 55.638 129.234 57.041 C 127.739 58.536 127.959 60.637 128.43 61.729 L 147.08 83.483 C 148.183 84.743 149.052 85.825 149.631 86.694 C 149.921 87.129 150.935 88.805 149.819 89.921 C 148.703 91.037 145.157 89.773 145.157 89.773 C 144.588 89.4 143.929 88.967 143.199 88.488 C 140.617 86.791 137.147 84.505 133.595 82.151 C 130.041 79.796 126.411 77.376 123.506 75.408 C 120.513 73.38 118.499 71.971 117.989 71.546 C 118.006 71.561 118.004 71.559 117.982 71.532 C 117.929 71.468 117.762 71.267 117.463 70.824 C 117.082 70.259 116.641 69.535 116.099 68.64 L 115.963 68.416 C 114.938 66.72 113.637 64.57 112.137 62.585 C 110.594 60.544 108.63 58.386 106.222 57.041 C 103.656 55.608 100.567 55.108 97.305 56.545 C 94.616 57.73 92.635 59.428 91.362 61.511 C 90.099 63.577 89.662 65.807 89.699 67.87 C 89.77 71.835 91.598 75.624 93.563 77.667 C 94.174 78.301 95.176 79.042 96.167 79.735 C 97.246 80.489 98.607 81.386 100.138 82.368 C 103.205 84.334 107.059 86.705 110.93 89.069 C 112.116 89.793 113.297 90.513 114.454 91.219 L 114.456 91.22 L 114.457 91.22 C 121.004 95.212 126.784 98.735 128.43 99.992 C 128.811 100.282 129.548 101.203 130.334 102.993 C 131.072 104.678 131.702 106.786 132.087 109.007 C 132.473 111.232 132.592 113.453 132.39 115.373 C 132.182 117.336 131.669 118.699 131.05 119.5 C 127.868 123.614 128.249 127.869 129.349 130.839 L 129.359 130.869 C 127.988 131.315 126.633 131.852 125.387 132.456 C 123.585 133.33 121.865 134.415 120.627 135.693 C 119.407 136.953 118.378 138.713 118.783 140.784 C 118.912 141.45 119.233 142.032 119.551 142.495 C 119.881 142.975 120.295 143.448 120.744 143.904 C 121.641 144.815 122.821 145.801 124.135 146.818 C 125.981 148.248 128.23 149.843 130.541 151.483 L 130.542 151.483 C 131.508 152.169 132.485 152.862 133.449 153.554 C 136.769 155.94 139.955 158.333 142.288 160.537 C 143.456 161.639 144.345 162.635 144.924 163.502 C 145.525 164.402 145.651 164.954 145.642 165.224 C 145.606 166.37 145.314 167.144 144.947 167.687 C 137.276 164.756 129.896 164.579 124.774 166.946 C 122.04 168.209 119.763 170.311 118.817 173.269 C 117.868 176.238 118.462 179.432 120.185 182.464 C 120.797 183.541 121.943 184.588 122.829 185.362 C 123.821 186.227 125.058 187.22 126.335 188.245 L 126.445 188.333 C 129.151 190.505 132.114 192.895 134.379 195.239 C 135.508 196.407 136.358 197.46 136.897 198.365 C 137.459 199.307 137.464 200.058 137.464 200.058 C 136.882 200.485 135.329 201.286 133.039 201.746 C 132.805 201.793 132.205 201.811 131.064 201.603 C 129.982 201.406 128.69 201.06 127.192 200.612 C 126.401 200.375 125.545 200.107 124.65 199.826 L 124.649 199.826 L 124.648 199.826 C 122.314 199.094 119.712 198.279 117.292 197.724 C 114.042 196.98 110.136 196.44 106.902 197.739 C 105.146 198.444 103.634 199.671 102.614 201.501 C 101.63 203.265 101.222 205.374 101.222 207.708 C 101.222 209.712 102.1 211.507 103.093 212.94 C 104.114 214.414 105.487 215.836 106.986 217.167 C 109.989 219.831 113.897 222.47 117.672 224.769 C 121.472 227.083 125.257 229.124 128.082 230.583 C 129.497 231.313 130.678 231.901 131.508 232.307 C 131.923 232.511 132.251 232.669 132.476 232.777 C 132.937 232.993 133.797 233.271 134.306 233.264 C 161.2 232.866 174.685 233.638 186.904 239.11 C 187.316 239.295 187.761 239.394 188.213 239.402 C 188.213 239.402 195.276 239.507 197.676 239.528 C 200.072 239.549 202.517 239.56 204.436 239.544 C 204.436 239.544 207.534 239.468 207.799 239.447 C 207.953 239.434 208.473 239.393 208.944 239.24 C 215.878 237 224.904 231.66 231.447 223.022 C 238.075 214.272 242.085 202.21 238.869 186.928 C 238.707 186.156 238.52 184.18 238.349 181.354 C 238.184 178.633 238.046 175.379 237.934 172.238 C 237.824 169.1 237.74 166.092 237.685 163.867 C 237.657 162.756 237.636 161.84 237.622 161.203 C 237.616 155.051 235.994 145.962 233.192 139.366 C 231.789 136.062 229.996 132.928 227.775 130.606 C 225.548 128.277 222.579 126.467 218.981 126.689 C 216.122 126.865 213.676 127.8 211.997 129.773 C 210.385 131.667 209.933 133.998 209.857 135.999 Z M 137.687 172.507 C 138.261 173.301 139.618 175.172 140.117 175.813 C 141.508 177.598 143.452 179.987 145.656 182.383 C 147.85 184.77 149.232 185.998 151.734 187.862 C 154.155 189.666 156.921 191.19 159.59 191.19 C 163.669 191.19 168.37 190.635 172.019 187.319 C 175.687 183.984 177.836 178.285 177.894 169.105 L 177.894 169.092 C 177.894 155.719 169.69 146.679 160.152 139.928 C 156.515 137.355 153.055 136.037 149.785 134.792 L 149.783 134.791 L 149.782 134.791 L 149.781 134.79 C 148.724 134.388 147.687 133.993 146.671 133.565 C 144.589 132.69 142.694 132.02 141.112 131.568 C 139.589 131.133 138.185 130.85 137.158 130.869 C 136.961 130.872 136.76 130.88 136.554 130.892 C 136.394 130.591 136.241 130.261 136.112 129.911 C 135.568 128.442 134.963 125.385 136.347 123.597 C 138.015 121.44 138.771 118.702 139.049 116.076 C 139.331 113.406 139.151 110.549 138.685 107.864 C 138.219 105.174 137.446 102.539 136.466 100.304 C 135.532 98.174 134.233 95.997 132.493 94.669 C 130.538 93.177 124.346 89.404 117.882 85.465 L 117.881 85.465 L 117.88 85.464 L 117.856 85.449 C 116.712 84.752 115.559 84.05 114.42 83.354 C 110.548 80.99 106.75 78.653 103.752 76.731 C 102.251 75.768 100.976 74.926 100.003 74.246 C 99.516 73.906 99.126 73.621 98.831 73.391 C 98.684 73.277 98.389 73.025 98.389 73.025 C 97.564 72.167 96.434 69.981 96.394 67.749 C 96.376 66.714 96.594 65.79 97.075 65.004 C 97.546 64.234 98.397 63.381 100.005 62.673 C 101.039 62.217 101.913 62.304 102.956 62.887 C 104.158 63.558 105.45 64.844 106.795 66.623 C 108.082 68.325 109.224 70.214 110.286 71.968 L 110.37 72.107 C 110.894 72.972 111.421 73.841 111.91 74.566 C 112.349 75.218 112.962 76.073 113.697 76.686 C 114.529 77.381 116.909 79.027 119.75 80.951 C 122.683 82.939 126.335 85.373 129.896 87.733 C 133.458 90.094 136.935 92.384 139.522 94.084 C 140.161 94.504 140.928 95.007 141.541 95.409 C 141.667 95.836 141.837 96.293 142.035 96.765 C 142.466 97.798 143.077 99.016 143.804 100.329 C 145.261 102.961 147.252 106.099 149.403 109.117 C 151.549 112.128 153.893 115.075 156.061 117.299 C 156.321 117.565 156.827 118.116 157.463 118.808 L 157.464 118.81 L 157.465 118.81 C 159.474 120.999 162.776 124.595 163.674 125.053 C 164.485 125.466 165.331 125.734 166.147 125.993 L 166.148 125.994 L 166.149 125.994 C 166.521 126.112 166.886 126.228 167.24 126.355 C 169.5 127.167 172.547 128.291 175.713 129.544 C 176.466 129.841 177.251 130.119 178.036 130.396 L 178.036 130.397 L 178.037 130.397 C 179.095 130.771 180.153 131.145 181.13 131.568 C 181.271 131.882 181.921 133.669 182.046 134.053 C 183.583 137.333 185.776 141.719 188.387 146.118 C 190.988 150.5 194.052 154.977 197.348 158.382 C 200.571 161.713 204.38 164.4 208.473 164.4 C 211.926 164.4 214.342 162.822 215.843 160.475 C 217.26 158.26 217.806 155.467 217.983 152.935 C 218.136 150.741 218.022 148.572 217.845 146.821 L 217.842 146.785 C 217.841 146.764 217.839 146.745 217.837 146.726 C 217.835 146.707 217.834 146.688 217.832 146.671 C 217.695 145.251 217.436 143.7 217.198 142.276 C 216.902 140.415 216.499 137.548 216.548 136.253 C 216.598 134.948 216.877 134.371 217.097 134.113 C 217.248 133.935 217.733 133.475 219.394 133.372 C 220.316 133.315 221.49 133.723 222.936 135.234 C 224.387 136.752 225.795 139.08 227.029 141.984 C 229.495 147.791 230.772 154.049 230.927 161.349 C 230.941 161.992 230.962 162.915 230.99 164.035 C 231.046 166.274 231.13 169.307 231.242 172.475 C 231.354 175.639 231.495 178.956 231.665 181.759 C 231.828 184.456 232.032 186.958 232.316 188.307 C 235.108 201.572 231.642 211.674 226.109 218.978 C 220.579 226.279 212.916 230.855 207.156 232.78 C 207.156 232.78 200.119 232.853 197.735 232.832 C 195.353 232.811 193.002 232.78 191.246 232.754 C 190.368 232.741 189.639 232.729 189.13 232.72 L 189.006 232.718 C 175.546 226.872 160.806 226.192 134.994 226.557 C 134.838 226.482 134.657 226.393 134.453 226.294 C 133.66 225.905 132.521 225.339 131.154 224.633 C 128.413 223.217 124.776 221.255 121.154 219.049 C 117.508 216.829 113.993 214.431 111.43 212.158 C 110.146 211.018 109.2 209.996 108.598 209.127 C 107.967 208.216 107.918 207.768 107.918 207.708 C 107.918 206.108 108.204 205.226 108.462 204.762 C 108.684 204.364 108.963 204.127 109.398 203.952 C 110.546 203.491 112.627 203.525 115.796 204.251 C 117.945 204.743 120.134 205.43 122.37 206.131 C 123.329 206.432 124.297 206.736 125.274 207.028 C 126.831 207.493 128.408 207.925 129.863 208.191 C 131.26 208.445 132.865 208.611 134.358 208.311 C 137.09 207.762 139.383 206.94 141.083 205.694 C 142.902 204.362 144.05 202.52 144.18 200.303 C 144.299 198.279 143.536 196.425 142.65 194.937 C 141.742 193.413 140.503 191.941 139.194 190.586 C 136.587 187.887 133.284 185.235 130.651 183.123 L 130.651 183.122 L 130.608 183.087 C 129.265 182.01 128.118 181.09 127.232 180.316 C 126.48 179.659 126.15 179.303 126.043 179.188 C 126.043 179.188 124.962 176.037 125.195 175.309 C 125.419 174.582 126.091 173.714 127.584 173.024 C 129.775 172.012 133.315 171.617 137.687 172.507 Z" fill="black"/>
</svg>
