<?xml version="1.0" encoding="utf-8"?>
<svg width="256" height="256" viewBox="0 0 256 256" fill="none" xmlns="http://www.w3.org/2000/svg">
  <path d="M 208.509 81.512 C 193.438 62.841 176.408 57.806 151.824 57.806 C 127.041 57.806 114.622 65.864 100.758 83.323 C 95.257 90.25 89.845 103.172 89.845 103.172 L 89.845 132.199 L 220.011 132.199 L 220.011 103.172 C 220.011 103.172 214.524 88.964 208.509 81.512 Z" fill="black"/>
  <path d="M 94.383 78.676 C 95.409 79.216 95.803 80.485 95.263 81.512 C 90.712 90.164 87.88 97.388 86.357 104.858 C 84.834 112.328 84.6 120.152 85.366 130.028 C 85.456 131.184 84.592 132.194 83.436 132.284 C 82.28 132.373 81.27 131.508 81.18 130.353 C 80.94 127.264 80.794 124.351 80.754 121.565 C 79.211 121.79 77.163 121.711 75.646 121.651 L 75.638 121.651 C 75.082 121.63 74.598 121.611 74.237 121.611 C 68.742 121.611 64.287 115.808 64.287 108.649 C 64.287 101.491 68.742 95.688 74.237 95.688 C 74.578 95.688 75.573 95.667 75.573 95.667 C 77.923 95.62 81.748 95.544 84.335 96.118 C 86.055 90.837 88.432 85.479 91.547 79.557 C 92.087 78.531 93.356 78.136 94.383 78.676 Z" fill="black"/>
  <path d="M 86.012 136.945 L 221.836 136.945 L 221.836 149.907 L 198.286 149.907 L 198.286 174.576 L 201.663 171.801 L 201.663 155.475 C 201.663 154.82 202.194 154.288 202.85 154.288 L 216.359 154.288 C 216.682 154.288 216.991 154.42 217.214 154.653 L 239.669 178.02 C 239.881 178.241 240 178.536 240 178.843 L 240 197.007 C 240 197.663 239.468 198.194 238.814 198.194 L 205.77 198.194 C 205.452 198.194 205.146 198.066 204.923 197.838 L 190.227 182.869 C 189.994 182.631 189.872 182.306 189.889 181.974 C 189.907 181.642 190.064 181.332 190.321 181.121 L 193.205 178.751 L 114.917 178.751 L 117.8 181.121 C 118.057 181.332 118.214 181.642 118.232 181.974 C 118.249 182.306 118.127 182.631 117.893 182.869 L 103.198 197.838 C 102.974 198.066 102.669 198.194 102.351 198.194 L 69.308 198.194 C 68.652 198.194 68.121 197.663 68.121 197.007 L 68.121 178.843 C 68.121 178.536 68.24 178.241 68.452 178.02 L 90.907 154.653 C 91.13 154.42 91.439 154.288 91.762 154.288 L 105.272 154.288 C 105.927 154.288 106.458 154.82 106.458 155.475 L 106.458 171.801 L 110.657 175.251 L 110.657 149.907 L 86.012 149.907 L 86.012 136.945 Z" fill="black"/>
  <path d="M 41.378 72.365 C 41.92 72.121 42.553 72.208 43.009 72.589 L 66.194 91.94 C 66.63 92.303 66.832 92.875 66.723 93.431 C 66.613 93.987 66.209 94.439 65.668 94.611 L 54.644 98.1 L 58.126 105.82 C 58.448 106.535 58.186 107.379 57.515 107.785 L 49.18 112.83 L 66.709 124.707 C 67.085 124.961 67.33 125.367 67.381 125.818 C 67.432 126.268 67.283 126.718 66.974 127.05 L 43.15 152.608 C 42.715 153.074 42.04 153.227 41.446 152.994 C 40.853 152.76 40.463 152.188 40.463 151.55 L 40.463 119.266 L 17.181 113.533 C 16.537 113.374 16.065 112.824 16.006 112.163 C 15.948 111.502 16.316 110.877 16.922 110.608 L 39.671 100.507 L 40.464 73.734 C 40.482 73.14 40.837 72.609 41.378 72.365 Z" fill="black"/>
</svg>
