<?xml version="1.0" encoding="utf-8"?>
<svg width="256" height="256" viewBox="0 0 256 256" fill="none" xmlns="http://www.w3.org/2000/svg">
  <path d="M 227.111 17.778 C 227.111 17.058 226.676 16.409 226.011 16.134 C 225.345 15.86 224.579 16.014 224.072 16.525 L 135.381 105.808 C 135.05 106.141 134.865 106.592 134.865 107.061 L 134.865 124.734 L 128.157 119.488 C 127.493 118.968 126.555 118.987 125.912 119.533 L 117.545 126.636 L 138.629 170.184 L 160.543 147.303 C 160.891 146.94 161.068 146.447 161.033 145.946 C 160.997 145.445 160.75 144.982 160.355 144.673 L 156.167 141.398 L 209.036 94.165 C 209.414 93.827 209.629 93.345 209.629 92.839 L 209.629 74.995 L 226.358 63.18 C 226.83 62.847 227.111 62.306 227.111 61.728 L 227.111 17.778 Z" fill="black"/>
  <path d="M 112.412 130.993 L 95.041 145.741 L 131.684 177.434 L 133.818 175.206 L 112.412 130.993 Z" fill="black"/>
  <path d="M 91.049 150.907 L 127.17 182.148 L 119.315 190.349 L 91.049 150.907 Z" fill="black"/>
  <path d="M 110.608 199.44 L 71.789 165.482 L 63.349 172.648 L 98.563 212.016 L 110.608 199.44 Z" fill="black"/>
  <path d="M 58.378 176.868 L 94.041 216.738 L 84.396 226.808 C 83.738 227.494 82.658 227.543 81.942 226.917 L 75.391 221.193 L 69.525 226.577 C 69.195 226.88 68.711 226.949 68.308 226.75 L 35.222 210.355 C 34.901 210.195 34.679 209.887 34.629 209.532 C 34.579 209.176 34.708 208.819 34.973 208.578 L 47.696 196.996 L 42.831 192.745 C 42.442 192.404 42.22 191.911 42.223 191.393 C 42.227 190.876 42.456 190.386 42.85 190.051 L 58.378 176.868 Z" fill="black"/>
  <path d="M 76.814 161.216 L 113.278 193.115 L 85.272 154.035 L 76.814 161.216 Z" fill="black"/>
  <path d="M 185.963 28.411 C 187.799 27.573 188.607 25.405 187.768 23.569 C 186.93 21.733 184.762 20.925 182.926 21.763 L 30.927 91.195 C 29.091 92.033 28.283 94.201 29.122 96.037 C 29.96 97.873 32.128 98.681 33.964 97.843 L 185.963 28.411 Z" fill="black"/>
  <path d="M 134.609 79.204 C 135.759 80.863 135.345 83.139 133.686 84.288 L 35.02 152.634 C 33.361 153.783 31.085 153.37 29.935 151.711 C 28.786 150.052 29.199 147.775 30.859 146.626 L 129.524 78.281 C 131.184 77.131 133.46 77.545 134.609 79.204 Z" fill="black"/>
  <path d="M 226.795 114.876 C 227.728 113.087 227.035 110.88 225.246 109.946 C 223.457 109.012 221.25 109.705 220.316 111.494 L 156.119 234.456 C 155.185 236.245 155.878 238.453 157.667 239.387 C 159.456 240.32 161.663 239.627 162.597 237.839 L 226.795 114.876 Z" fill="black"/>
  <path d="M 181.537 154.198 C 182.75 152.586 182.428 150.295 180.815 149.081 C 179.203 147.867 176.912 148.19 175.698 149.802 L 112.192 234.147 C 110.978 235.759 111.301 238.05 112.914 239.264 C 114.526 240.479 116.817 240.156 118.031 238.543 L 181.537 154.198 Z" fill="black"/>
</svg>
