<?xml version="1.0" encoding="utf-8"?>
<svg width="256" height="256" viewBox="0 0 256 256" fill="none" xmlns="http://www.w3.org/2000/svg">
  <path d="M 163.793 165.364 L 144.238 163.074 C 146.79 161.667 182.173 158.411 199.072 157.531 C 178.168 153.113 165.929 152.855 144.238 150.753 L 144.238 135.615 C 164.404 131.779 176.252 132.395 199.072 130.51 C 177.779 125.452 166.354 126.323 145.471 124.965 C 145.471 124.965 146.283 110.449 146.879 107.186 C 150.047 106.042 174.232 104.472 195.375 102.345 C 179.031 97.801 169.914 97.111 152.599 94.863 C 154.714 91.315 158.479 86.463 161.578 84.126 C 169.713 77.989 198.192 75.148 198.192 75.148 C 198.192 75.148 180.413 72.771 175.044 70.923 C 168.983 68.836 166.792 55.005 166.683 48.743 C 174.165 47.335 189.302 45.575 204.354 46.103 C 192.206 41.614 181.557 38.885 168.945 38.885 C 171.519 28.071 177.991 16 190.8 16 C 208.403 16 215.708 31.493 215.708 49.801 C 215.708 68.108 204.354 78.491 204.354 78.491 C 228.206 78.491 239.384 99.351 239.384 163.074 L 219.405 163.074 L 213.86 240 L 168.354 240 L 166.946 218.085 C 174.252 216.413 187.102 215.181 201.184 216.677 C 188.422 210.252 179.704 210.842 166.413 209.548 L 166.413 189.216 C 172.157 188.072 187.278 186.664 203.033 187.192 C 191.327 183.407 178.932 180.503 163.793 180.503 L 163.793 165.364 Z" fill="black"/>
  <path d="M 16.616 229.528 C 73.183 231.978 103.616 233.741 158.145 238.241 L 156.825 218.438 C 101.318 220.403 70.8 223.397 16.616 229.528 Z" fill="black"/>
  <path d="M 16.616 201.891 C 65.289 202.683 119.419 205.675 155.417 209.548 L 155.417 189.833 C 99.263 191.153 33.251 197.666 16.616 201.891 Z" fill="black"/>
  <path d="M 134.293 162.988 C 101.463 162.988 30.435 169.765 16.616 173.021 C 52.879 173.99 134.293 179.007 155.417 181.031 L 155.417 175.091 L 134.293 175.134 L 134.293 162.988 Z" fill="black"/>
  <path d="M 16.616 144.592 C 42.933 144.592 116.25 148.113 134.293 151.018 L 134.293 135.351 C 88.123 136.28 45.749 139.135 16.616 144.592 Z" fill="black"/>
  <path d="M 16.616 116.603 C 62.691 118.852 90.228 120.268 136.054 124.965 C 136.727 117.72 137.263 113.268 138.87 106.922 C 90.786 109.135 64.37 109.878 16.616 116.603 Z" fill="black"/>
  <path d="M 16.616 86.854 C 66.324 89.816 93.89 91.151 142.303 96.272 C 146.312 87.927 148.713 83.135 156.825 76.468 L 16.616 86.854 Z" fill="black"/>
  <path d="M 16.616 58.953 L 161.402 67.666 L 158.498 49.183 C 104.86 50.091 73.295 53.056 16.616 58.953 Z" fill="black"/>
  <path d="M 16.616 28.764 C 72.468 31.99 103.959 33.648 159.29 38.181 C 162.189 29.899 164.258 25.944 169.236 18.554 C 109.607 21.04 76.195 23.462 16.616 28.764 Z" fill="black"/>
</svg>
