<?xml version="1.0" encoding="utf-8"?>
<svg width="256" height="256" viewBox="0 0 256 256" fill="none" xmlns="http://www.w3.org/2000/svg">
  <path d="M 67.009 67.832 C 64.32 64.899 39.875 58.707 38.49 63.025 C 37.104 67.343 55.275 77.203 61.876 77.203 C 68.476 77.203 69.698 70.766 67.009 67.832 Z" fill="black"/>
  <path d="M 26.267 118.514 C 26.43 113.542 16 113.219 16 113.219 L 16 123.975 C 16 123.975 26.104 123.486 26.267 118.514 Z" fill="black"/>
  <path d="M 54.868 153.552 C 48.268 153.197 33.193 141.331 29.852 147.279 C 26.511 153.227 54.46 165.776 60.083 165.776 C 65.705 165.776 68.313 164.634 68.313 160.48 C 68.313 156.325 61.468 153.907 54.868 153.552 Z" fill="black"/>
  <path fill-rule="evenodd" clip-rule="evenodd" d="M 164.139 194.458 C 121.115 194.458 81.024 171.968 83.388 166.264 C 84.996 162.382 87.472 162.991 90.663 163.777 C 92.16 164.146 93.814 164.553 95.61 164.553 C 101.233 164.553 112.07 159.918 112.07 153.552 C 112.07 147.187 106.774 144.834 102.292 144.834 C 100.09 144.834 97.22 145.541 94.3 146.261 C 91.275 147.007 88.197 147.766 85.751 147.766 C 80.943 147.766 75.402 146.228 71.328 143.692 C 69.526 142.571 67.597 140.674 65.504 138.617 C 62.866 136.023 59.969 133.175 56.742 131.306 C 54.942 130.264 52.102 129.02 49.042 127.679 C 42.266 124.711 34.415 121.271 34.415 118.514 C 34.415 116.57 36.856 116.094 39.366 115.604 C 42.026 115.085 44.764 114.55 44.764 112.24 C 44.764 107.748 16 100.261 16 100.261 L 16 85.838 C 16 85.838 70.269 92.194 79.721 92.194 C 89.173 92.194 98.299 91.298 98.299 87.386 C 98.299 85.523 95.803 84.03 93.189 82.466 C 90.315 80.747 87.299 78.942 87.299 76.467 C 87.299 71.741 110.44 73.759 112.722 74.502 C 113.365 74.712 115.396 75.77 118.105 77.181 C 124.999 80.773 136.286 86.653 140.264 86.653 C 145.805 86.653 157.049 85.268 157.049 80.379 C 157.049 78.434 154.884 76.966 152.553 75.386 C 149.021 72.993 145.11 70.342 147.76 65.386 C 149.929 61.329 181.902 65.701 202.192 81.276 C 213.762 90.158 240 114.592 240 139.293 C 240 167.169 209.199 194.458 164.139 194.458 Z M 131.626 127.641 C 131.566 122.552 142.196 122.566 149.747 122.576 C 152.472 122.58 154.796 122.583 156.071 122.345 C 157.654 122.05 160.617 120.544 164.328 118.657 C 171.887 114.814 182.557 109.389 191.028 109.389 C 200.481 109.389 216.451 120.797 216.451 137.746 C 216.451 154.694 194.859 163.25 182.147 163.25 C 169.435 163.25 161.776 158.931 157.049 154.694 C 154.533 152.439 152.803 149.283 151.145 146.259 C 149.687 143.602 148.286 141.046 146.456 139.293 C 145.078 137.971 142.838 136.994 140.512 135.979 C 136.241 134.116 131.679 132.126 131.626 127.641 Z M 143.034 111.752 C 136.811 111.752 120.218 106.618 120.3 102.87 C 120.381 99.122 137.004 99.04 140.264 99.04 C 143.523 99.04 151.672 103.196 151.672 105.966 C 151.672 108.737 149.258 111.752 143.034 111.752 Z" fill="black"/>
</svg>
