<?xml version="1.0" encoding="utf-8"?>
<svg width="256" height="256" viewBox="0 0 256 256" fill="none" xmlns="http://www.w3.org/2000/svg">
  <path d="M 82.041 17.658 C 83.675 19.614 83.413 22.525 81.456 24.159 C 76.329 28.439 75.955 31.087 76.122 32.576 C 76.364 34.744 77.878 36.954 80.506 40.515 C 80.579 40.615 80.654 40.716 80.73 40.818 L 80.736 40.826 C 82.931 43.794 86.069 48.037 86.406 53.077 C 86.796 58.908 83.547 64.215 76.928 69.382 C 74.919 70.95 72.018 70.593 70.45 68.584 C 68.881 66.574 69.239 63.674 71.248 62.105 C 76.783 57.785 77.29 55.105 77.196 53.692 C 77.06 51.668 75.688 49.531 73.08 45.998 C 72.966 45.844 72.85 45.687 72.731 45.526 L 72.728 45.523 C 70.555 42.592 67.493 38.462 66.948 33.604 C 66.298 27.798 69.18 22.382 75.54 17.072 C 77.497 15.439 80.408 15.701 82.041 17.658 Z" fill="black"/>
  <path d="M 140.044 17.658 C 141.678 19.614 141.416 22.525 139.459 24.159 C 134.332 28.439 133.958 31.087 134.125 32.576 C 134.368 34.744 135.881 36.954 138.509 40.515 L 138.739 40.826 C 140.935 43.794 144.073 48.037 144.409 53.077 C 144.799 58.908 141.55 64.215 134.931 69.382 C 132.922 70.95 130.021 70.593 128.453 68.584 C 126.884 66.574 127.242 63.674 129.251 62.105 C 134.786 57.785 135.293 55.105 135.199 53.692 C 135.064 51.668 133.691 49.531 131.083 45.998 C 130.969 45.843 130.852 45.685 130.732 45.523 C 128.558 42.592 125.496 38.462 124.951 33.604 C 124.301 27.798 127.184 22.382 133.543 17.072 C 135.5 15.439 138.411 15.701 140.044 17.658 Z" fill="black"/>
  <path d="M 197.559 24.159 C 199.515 22.525 199.777 19.614 198.144 17.658 C 196.51 15.701 193.6 15.439 191.643 17.072 C 185.283 22.382 182.4 27.798 183.051 33.604 C 183.595 38.462 186.657 42.592 188.831 45.523 C 188.951 45.685 189.068 45.843 189.182 45.998 C 191.791 49.531 193.163 51.668 193.299 53.692 C 193.393 55.105 192.885 57.785 187.35 62.105 C 185.341 63.674 184.984 66.574 186.552 68.584 C 188.121 70.593 191.021 70.95 193.03 69.382 C 199.649 64.215 202.898 58.908 202.509 53.077 C 202.172 48.037 199.034 43.794 196.838 40.826 C 196.76 40.721 196.684 40.617 196.609 40.515 C 193.98 36.954 192.467 34.744 192.224 32.576 C 192.057 31.087 192.431 28.439 197.559 24.159 Z" fill="black"/>
  <path d="M 173.219 125.232 C 170.378 123.064 166.987 123.121 163.726 124.369 C 160.479 125.612 157.857 126.896 155.147 129.728 C 152.434 132.563 150.179 135.837 148.899 138.789 C 148.259 140.264 147.846 141.695 147.762 142.975 C 147.679 144.251 147.92 145.464 148.697 146.377 C 149.507 147.329 150.799 147.688 152.181 147.726 C 153.584 147.765 155.241 147.479 156.994 146.966 C 160.507 145.937 164.574 143.946 168.098 141.492 C 171.604 139.051 174.081 137.245 175.486 134.203 C 176.195 132.667 176.499 131.066 176.161 129.497 C 175.82 127.918 174.853 126.478 173.219 125.232 Z" fill="black"/>
  <path d="M 102.339 126.655 C 102.415 126.325 102.489 125.939 102.547 125.508 C 102.732 124.119 102.749 122.229 102.025 120.317 C 101.292 118.385 99.823 116.489 97.142 115.09 C 94.481 113.703 90.658 112.82 85.219 112.821 C 79.799 112.821 75.59 114.848 72.102 118.484 C 68.645 122.086 65.906 127.255 63.332 133.535 C 61.689 137.543 59.925 141.032 58.315 144.083 C 57.917 144.837 57.527 145.568 57.149 146.274 L 57.149 146.275 C 56.008 148.41 54.984 150.326 54.216 152.021 C 53.202 154.26 52.55 156.281 52.737 158.057 C 52.935 159.936 54.047 161.377 56.118 162.469 C 57.917 163.418 59.709 163.027 61.355 161.953 C 62.968 160.9 64.549 159.133 66.099 157.086 C 67.532 155.194 69.371 152.414 70.836 150.2 C 72.44 147.779 74.058 145.363 75.71 143.264 C 78.757 139.393 82.025 136.369 84.963 134.52 C 86.432 133.595 87.793 132.981 88.983 132.689 C 90.176 132.396 91.139 132.441 91.87 132.754 C 92.087 132.847 92.138 132.945 92.164 133.061 C 92.203 133.242 92.185 133.567 92.002 134.091 C 91.639 135.133 90.782 136.545 89.592 138.265 C 88.858 139.327 88.005 140.493 87.102 141.729 L 87.102 141.73 L 87.101 141.731 C 85.149 144.402 82.962 147.394 81.229 150.341 C 78.043 155.76 75.814 161.303 75.095 165.833 C 74.736 168.095 74.743 170.166 75.246 171.859 C 75.756 173.579 76.787 174.93 78.438 175.628 C 79.801 176.204 81.087 176.379 82.308 176.177 C 83.526 175.975 84.615 175.409 85.608 174.603 C 87.562 173.017 89.243 170.413 90.907 167.477 C 91.537 166.365 92.169 165.199 92.817 164.003 C 95.654 158.767 98.799 152.963 103.416 148.706 C 106.684 145.693 110.66 145.396 114.477 145.111 C 115.219 145.056 115.955 145.001 116.679 144.927 C 118.825 144.706 120.936 144.293 122.487 142.922 C 124.075 141.519 124.911 139.273 124.911 135.795 C 124.911 132.742 123.261 130.645 120.936 129.262 C 118.648 127.901 115.657 127.192 112.756 126.833 C 109.839 126.472 106.934 126.455 104.765 126.526 C 103.789 126.559 102.959 126.609 102.339 126.655 Z" fill="black"/>
  <path d="M 135.761 98.686 C 140.844 96.47 148.27 95.963 157.77 100.382 C 161.463 102.1 165.021 104.289 167.638 106.415 C 168.945 107.476 170.042 108.542 170.804 109.546 C 171.54 110.515 172.077 111.575 171.985 112.587 C 171.847 114.111 171.028 115.583 169.82 116.862 C 168.605 118.147 166.953 119.288 165.037 120.157 C 161.208 121.894 156.22 122.593 151.336 121.088 C 146.624 119.635 140.907 117.31 136.343 114.848 C 134.063 113.619 132.04 112.339 130.568 111.099 C 129.833 110.479 129.212 109.85 128.765 109.221 C 128.323 108.599 128.007 107.915 127.989 107.201 C 127.955 105.927 128.718 104.324 129.993 102.835 C 131.297 101.311 133.232 99.789 135.761 98.686 Z" fill="black"/>
  <path fill-rule="evenodd" clip-rule="evenodd" d="M 183.27 88.205 C 183.27 90.631 182.647 92.911 181.551 94.893 C 189.446 98.242 197.145 101.689 203.683 104.942 C 208.053 107.116 211.962 109.232 215.087 111.201 C 218.099 113.099 220.762 115.089 222.262 117.083 C 223.686 118.975 224.394 121.389 224.777 123.791 C 225.169 126.244 225.276 129.051 225.244 132.009 C 225.202 135.816 224.919 140.2 224.627 144.716 C 224.472 147.121 224.314 149.563 224.189 151.975 C 223.815 159.193 223.781 166.61 223.751 173.082 L 223.746 174.289 C 223.745 174.474 223.744 174.659 223.743 174.843 L 223.741 175.187 C 223.74 175.348 223.739 175.509 223.739 175.669 C 223.719 179.162 223.686 182.334 223.574 184.902 C 223.469 187.326 223.283 189.656 222.804 191.192 C 221.756 194.553 218.538 196.833 215.475 198.499 C 212.198 200.282 207.966 201.939 203.43 203.598 C 201.775 204.203 200.07 204.813 198.331 205.435 L 198.33 205.435 C 190.337 208.292 181.638 211.402 173.93 215.491 C 166.687 219.334 160.574 223.461 154.913 227.284 C 152.793 228.715 150.736 230.105 148.706 231.42 C 141.499 236.091 134.402 240 126.758 240 C 119.277 240 110.65 235.92 102.134 230.967 C 97.782 228.436 93.279 225.564 88.77 222.661 C 88.198 222.293 87.626 221.924 87.054 221.555 C 83.095 219.004 79.136 216.452 75.2 214.055 C 68.458 209.95 61.685 206.235 55.539 202.864 L 55.535 202.861 L 55.532 202.86 L 55.53 202.859 C 53.652 201.828 51.832 200.83 50.089 199.863 C 46.396 197.812 43.032 195.889 40.265 194.117 C 37.56 192.385 35.163 190.635 33.599 188.894 C 33.089 188.326 32.805 187.7 32.649 187.306 C 32.474 186.861 32.338 186.39 32.229 185.938 C 32.01 185.033 31.835 183.939 31.689 182.742 C 31.395 180.332 31.181 177.179 31.032 173.587 C 30.733 166.385 30.685 157.163 30.831 148.04 C 30.978 138.916 31.32 129.829 31.81 122.893 C 32.054 119.435 32.339 116.448 32.665 114.237 C 32.826 113.145 33.011 112.141 33.235 111.332 C 33.344 110.935 33.494 110.472 33.705 110.028 C 33.845 109.737 34.31 108.779 35.361 108.166 C 40.219 105.336 48.187 102.733 56.932 100.11 C 59.509 99.337 62.174 98.556 64.893 97.76 C 71.606 95.794 78.638 93.735 85.448 91.462 C 91.855 89.322 97.948 86.934 103.626 84.709 L 103.627 84.709 L 103.628 84.708 C 105.989 83.783 108.278 82.886 110.489 82.046 C 114.204 80.635 117.703 79.386 120.836 78.505 C 123.926 77.637 126.909 77.052 129.528 77.13 C 134.052 77.265 140.768 79.164 148.209 81.743 C 150.704 82.608 153.332 83.568 156.052 84.598 C 157.64 78.7 163.025 74.359 169.424 74.359 C 177.071 74.359 183.27 80.558 183.27 88.205 Z M 200.577 111.186 C 193.51 107.67 184.987 103.892 176.278 100.239 C 174.257 101.392 171.918 102.051 169.424 102.051 C 163.128 102.051 157.813 97.848 156.132 92.095 C 152.548 90.712 149.117 89.439 145.925 88.333 C 138.393 85.722 132.632 84.2 129.32 84.102 C 127.765 84.055 125.592 84.413 122.723 85.22 C 119.898 86.014 116.635 87.172 112.965 88.566 C 111.003 89.311 108.925 90.124 106.754 90.975 C 108.612 91.37 110.444 91.91 111.968 92.653 C 113.908 93.598 115.558 94.977 115.876 96.999 C 116.159 98.806 115.507 100.375 114.267 101.665 C 113.05 102.931 111.252 103.948 109.142 104.757 C 104.912 106.377 99.167 107.254 93.455 107.446 C 87.741 107.637 81.972 107.145 77.686 105.97 C 75.55 105.384 73.715 104.611 72.44 103.616 C 72.196 103.426 71.969 103.224 71.763 103.011 C 70.061 103.514 68.376 104.008 66.72 104.493 L 66.718 104.493 C 64.032 105.279 61.422 106.044 58.936 106.79 C 50.679 109.267 43.977 111.492 39.844 113.656 C 39.759 114.052 39.664 114.58 39.564 115.254 C 39.277 117.205 39.006 119.987 38.767 123.384 C 38.289 130.154 37.95 139.107 37.805 148.152 C 37.659 157.198 37.709 166.276 38 173.297 C 38.146 176.818 38.351 179.758 38.612 181.897 C 38.743 182.974 38.88 183.769 39.008 184.3 C 39.03 184.392 39.05 184.468 39.068 184.53 C 40.018 185.487 41.646 186.72 44.026 188.244 C 46.596 189.89 49.798 191.724 53.474 193.765 C 55.162 194.702 56.946 195.68 58.803 196.699 C 64.969 200.081 71.936 203.902 78.828 208.099 C 82.846 210.545 86.885 213.149 90.837 215.696 C 91.409 216.064 91.978 216.432 92.545 216.797 C 97.059 219.702 101.441 222.496 105.64 224.938 C 114.225 229.931 121.366 233.026 126.758 233.026 C 132.135 233.026 137.673 230.259 144.913 225.567 C 146.752 224.375 148.69 223.067 150.735 221.686 L 150.741 221.681 L 150.742 221.681 C 156.481 217.806 163.063 213.361 170.662 209.33 C 178.863 204.979 188.152 201.662 196.151 198.805 C 197.844 198.201 199.479 197.617 201.034 197.048 C 205.578 195.386 209.368 193.882 212.142 192.372 C 215.132 190.746 215.995 189.601 216.146 189.116 C 216.312 188.585 216.495 187.161 216.607 184.599 C 216.712 182.181 216.745 179.134 216.764 175.63 C 216.769 174.796 216.773 173.938 216.777 173.06 C 216.806 166.601 216.84 159.009 217.224 151.614 C 217.36 148.976 217.526 146.427 217.685 143.981 L 217.685 143.98 L 217.685 143.979 C 217.968 139.609 218.23 135.568 218.27 131.933 C 218.3 129.139 218.192 126.78 217.89 124.891 C 217.58 122.949 217.116 121.843 216.689 121.276 C 216.019 120.386 214.328 118.966 211.369 117.102 C 208.522 115.308 204.843 113.309 200.577 111.186 Z M 39.135 184.741 L 39.132 184.734 C 39.146 184.763 39.146 184.768 39.135 184.741 Z" fill="black"/>
</svg>
