<?xml version="1.0" encoding="utf-8"?>
<svg width="256" height="256" viewBox="0 0 256 256" fill="none" xmlns="http://www.w3.org/2000/svg">
  <path d="M 65.177 35.265 C 35.498 55.41 16 89.428 16 128 C 16 161.783 30.957 192.072 54.61 212.607 L 68.043 194.361 C 69.161 192.843 70.848 191.843 72.717 191.593 C 74.586 191.342 76.477 191.861 77.955 193.032 L 84.757 198.414 L 88.121 191.897 C 66.843 178.589 52.69 154.947 52.69 128 C 52.69 106.179 61.97 86.526 76.799 72.772 L 65.647 61.672 C 64.101 60.132 63.367 57.956 63.665 55.794 C 63.964 53.632 65.26 51.736 67.166 50.673 L 74.786 46.424 L 65.177 35.265 Z" fill="black"/>
  <path d="M 87.923 64.227 C 99.53 56.918 113.271 52.69 128 52.69 C 164.781 52.69 195.404 79.057 201.997 113.921 L 212.088 109.017 C 213.957 108.109 216.133 108.084 218.022 108.95 C 219.91 109.814 221.313 111.479 221.846 113.486 L 223.958 121.444 L 239.028 113.172 C 231.773 58.325 184.83 16 128 16 C 109.768 16 92.554 20.356 77.341 28.085 L 90.882 43.809 C 92.244 45.391 92.824 47.503 92.459 49.559 C 92.094 51.616 90.824 53.399 89 54.416 L 81.993 58.324 L 87.923 64.227 Z" fill="black"/>
  <path d="M 240 128.499 L 222.863 137.906 C 220.989 138.934 218.746 139.044 216.781 138.202 C 214.816 137.36 213.347 135.662 212.799 133.595 L 210.573 125.212 L 203.308 128.743 C 202.909 169.993 169.345 203.31 128 203.31 C 118.311 203.31 109.049 201.481 100.541 198.148 L 93.239 212.292 C 92.286 214.138 90.558 215.461 88.528 215.899 C 86.497 216.337 84.377 215.844 82.748 214.555 L 74.972 208.401 L 65.654 221.057 C 83.475 233.02 104.923 240 128 240 C 189.69 240 239.731 190.125 240 128.499 Z" fill="black"/>
  <path d="M 174.345 128 C 174.345 153.596 153.596 174.345 128 174.345 C 102.405 174.345 81.655 153.596 81.655 128 C 81.655 102.404 102.405 81.655 128 81.655 C 153.596 81.655 174.345 102.404 174.345 128 Z" fill="black"/>
</svg>
