<?xml version="1.0" encoding="utf-8"?>
<svg width="256" height="256" viewBox="0 0 256 256" fill="none" xmlns="http://www.w3.org/2000/svg">
  <path fill-rule="evenodd" clip-rule="evenodd" d="M 165.322 44.993 C 171.199 38.955 178.064 36.789 184.733 37.227 C 192.255 37.72 199.855 41.565 205.593 47.692 C 211.309 53.796 214.966 61.939 214.911 70.762 C 214.856 79.508 211.15 89.396 201.282 99.06 C 200.355 99.967 199.857 101.224 199.91 102.52 C 199.962 103.815 200.561 105.028 201.559 105.857 C 208.653 111.755 213.694 117.657 215.597 124.2 C 217.422 130.474 216.602 138.226 209.978 148.491 C 208.606 150.617 209.217 153.453 211.344 154.826 C 213.47 156.198 216.306 155.587 217.678 153.461 C 225.33 141.607 227.153 131.118 224.396 121.64 C 222.164 113.964 217.088 107.572 211.098 102.03 C 220.056 91.904 224.01 81.111 224.076 70.819 C 224.146 59.383 219.41 49.038 212.282 41.428 C 205.178 33.842 195.484 28.748 185.333 28.082 C 175.701 27.45 165.947 30.837 158.089 39.301 C 147.013 38.454 138.099 40.862 132.319 47.765 C 127.666 53.322 125.707 61.058 125.543 70.263 C 120.795 67.919 116.309 66.095 112.137 64.906 C 105.989 63.155 100.069 62.653 94.889 64.372 C 89.481 66.167 85.565 70.151 83.184 75.891 C 81.167 80.756 80.22 86.922 80.195 94.335 C 77.838 95.273 75.731 96.263 73.942 97.383 C 71.358 98.998 69.145 101.066 67.892 103.941 C 66.639 106.815 66.611 109.886 67.21 112.995 C 67.52 114.605 68.016 116.313 68.663 118.128 C 68.447 118.244 68.235 118.369 68.027 118.503 C 65.869 119.889 64.676 121.898 64.032 123.844 C 63.413 125.713 63.237 127.703 63.191 129.452 C 63.151 130.953 63.205 132.547 63.255 133.991 L 63.255 133.993 C 63.263 134.238 63.271 134.478 63.279 134.713 C 63.396 138.357 63.315 140.708 62.673 142.181 C 62.432 142.734 62.169 143.007 61.84 143.202 C 61.457 143.428 60.619 143.755 58.915 143.755 C 57.127 143.755 56.25 143.449 55.862 143.242 C 55.56 143.081 55.383 142.897 55.208 142.532 C 54.985 142.065 54.786 141.319 54.658 140.106 C 54.556 139.133 54.52 138.129 54.477 136.934 C 54.465 136.608 54.453 136.266 54.439 135.907 C 54.324 133.01 54.125 128.595 51.641 125.042 C 50.324 123.157 48.576 121.763 46.429 120.816 C 48.545 117.595 49.742 114.284 50.031 110.934 C 50.515 105.31 48.369 100.37 45.217 96.503 C 42.088 92.665 37.832 89.688 33.509 87.732 C 29.222 85.791 24.474 84.678 20.243 84.992 C 17.851 85.17 16 87.163 16 89.562 L 16 175.566 C 16 178.097 18.052 180.148 20.583 180.148 L 71.541 180.148 C 70.489 181.983 69.19 184.245 67.784 186.688 C 64.271 192.791 60.096 200.006 57.431 204.487 C 57.091 205.059 57.084 205.769 57.413 206.348 C 57.742 206.926 58.356 207.284 59.021 207.284 L 80.183 207.284 L 73.054 225.374 C 72.719 226.224 73.054 227.19 73.842 227.65 C 74.63 228.112 75.636 227.928 76.212 227.22 L 102.207 195.233 C 102.657 194.679 102.749 193.915 102.442 193.27 C 102.135 192.626 101.485 192.215 100.771 192.215 L 85.409 192.215 L 92.867 180.148 L 118.453 180.148 C 117.392 181.999 116.074 184.294 114.645 186.776 C 111.132 192.879 106.957 200.094 104.292 204.575 C 103.952 205.147 103.945 205.857 104.274 206.436 C 104.603 207.014 105.217 207.372 105.882 207.372 L 127.044 207.372 L 119.915 225.463 C 119.58 226.312 119.915 227.278 120.703 227.739 C 121.491 228.2 122.497 228.016 123.073 227.308 L 149.068 195.321 C 149.518 194.767 149.61 194.003 149.303 193.358 C 148.996 192.714 148.346 192.303 147.632 192.303 L 132.27 192.303 L 139.783 180.148 L 164.627 180.148 C 163.566 181.999 162.248 184.294 160.82 186.776 C 157.306 192.879 153.132 200.094 150.466 204.575 C 150.126 205.147 150.119 205.857 150.448 206.436 C 150.777 207.014 151.391 207.372 152.057 207.372 L 173.219 207.372 L 166.089 225.463 C 165.755 226.312 166.089 227.278 166.877 227.739 C 167.665 228.2 168.672 228.016 169.247 227.308 L 195.242 195.321 C 195.693 194.767 195.784 194.003 195.477 193.358 C 195.17 192.714 194.52 192.303 193.806 192.303 L 178.444 192.303 L 185.957 180.148 L 235.417 180.148 C 237.949 180.148 240 178.097 240 175.566 L 240 145.694 C 240 144.596 239.606 143.536 238.891 142.704 L 233.957 136.971 C 232.305 135.053 229.411 134.836 227.493 136.487 C 225.576 138.138 225.36 141.031 227.009 142.949 L 230.835 147.394 L 230.835 170.984 L 165.552 170.984 C 166.021 170.527 166.47 170.055 166.896 169.564 C 170.129 165.838 171.835 161.36 172.476 155.146 C 172.736 152.629 170.906 150.378 168.388 150.118 C 165.871 149.858 163.62 151.688 163.36 154.206 C 162.856 159.095 161.654 161.622 159.974 163.558 C 158.063 165.761 155.277 167.549 150.509 170.529 C 150.29 170.666 150.087 170.818 149.899 170.984 L 25.165 170.984 L 25.165 94.528 C 26.602 94.852 28.151 95.366 29.73 96.081 C 33.019 97.569 36.043 99.753 38.114 102.293 C 40.16 104.804 41.132 107.458 40.9 110.148 C 40.668 112.84 39.162 116.361 34.676 120.456 C 33.28 121.731 32.81 123.734 33.494 125.497 C 34.178 127.26 35.875 128.422 37.766 128.422 C 42.507 128.422 43.711 129.694 44.13 130.293 C 44.858 131.334 45.154 133.043 45.282 136.27 C 45.292 136.534 45.302 136.811 45.312 137.099 C 45.355 138.329 45.405 139.744 45.544 141.066 C 45.719 142.724 46.066 144.657 46.941 146.487 C 47.865 148.419 49.339 150.149 51.548 151.327 C 53.671 152.46 56.164 152.919 58.915 152.919 C 61.749 152.919 64.325 152.379 66.504 151.09 C 68.738 149.77 70.185 147.881 71.073 145.845 C 72.688 142.142 72.542 137.611 72.439 134.424 L 72.439 134.418 C 72.43 134.151 72.421 133.89 72.413 133.635 L 72.412 133.631 L 72.412 133.628 C 72.363 132.17 72.352 130.895 72.352 129.695 C 72.352 126.28 76.61 125.324 78.987 124.891 C 81.365 124.457 85.458 123.773 89.255 123.822 C 93.034 123.872 96.792 124.322 99.89 125.06 C 103.187 125.845 105.048 126.796 105.689 127.386 C 106.191 127.847 106.327 128.133 106.327 128.133 C 106.327 128.133 106.354 128.255 106.359 128.398 C 106.371 128.752 106.325 129.277 106.226 130.222 C 106.137 131.076 106.019 132.201 105.993 133.505 C 105.881 139.237 107.564 147.047 116.353 160.139 C 117.764 162.24 120.61 162.8 122.712 161.39 C 124.813 159.979 125.372 157.132 123.962 155.031 C 115.832 142.921 115.092 136.942 115.156 133.685 C 115.174 132.781 115.256 131.988 115.349 131.1 C 115.432 130.305 115.554 129.148 115.518 128.086 C 115.477 126.88 115.118 125.285 114.463 123.908 C 116.249 121.705 117.769 119.914 119.926 118.233 C 122.768 116.019 126.886 113.934 134.268 112.467 C 135.504 112.222 136.584 111.479 137.254 110.412 C 137.925 109.346 138.127 108.05 137.813 106.831 C 135.682 98.552 134.887 88.948 134.887 76.831 C 134.887 64.906 135.852 57.821 139.345 53.649 C 141.759 50.766 145.547 48.786 151.532 48.376 C 150.146 50.686 149.02 52.994 148.245 55.286 C 146.384 60.785 146.471 66.508 150.063 71.649 C 151.513 73.723 154.37 74.23 156.444 72.78 C 158.518 71.331 159.025 68.474 157.575 66.399 C 156.057 64.227 155.746 61.71 156.926 58.222 C 158.171 54.539 160.974 50.193 165.174 45.178 C 165.225 45.117 165.274 45.055 165.322 44.993 Z M 109.626 73.72 C 114.263 75.041 119.653 77.387 125.757 80.695 C 125.709 90.127 126.393 97.452 127.874 104.557 C 121.943 106.179 117.692 108.356 114.293 111.005 C 111.518 113.167 109.375 115.632 107.508 117.921 C 105.768 117.164 103.868 116.587 102.013 116.145 C 98.182 115.232 93.745 114.716 89.374 114.659 C 85.366 114.607 81.239 114.939 77.57 115.8 C 76.893 114 76.45 112.511 76.209 111.261 C 75.824 109.267 76.021 108.225 76.292 107.603 C 76.563 106.983 77.172 106.171 78.802 105.152 C 80.476 104.105 82.898 103.041 86.359 101.809 C 88.233 101.142 89.463 99.34 89.402 97.351 C 89.147 89.066 90.047 83.266 91.65 79.402 C 93.182 75.707 95.286 73.897 97.776 73.07 C 100.494 72.168 104.349 72.217 109.626 73.72 Z" fill="black"/>
</svg>
