<?xml version="1.0" encoding="utf-8"?>
<svg width="256" height="256" viewBox="0 0 256 256" fill="none" xmlns="http://www.w3.org/2000/svg">
  <path d="M 33.361 18.014 C 32.232 18.868 32.01 20.476 32.865 21.605 L 39.678 30.604 C 40.532 31.732 42.14 31.955 43.269 31.1 C 44.398 30.246 44.62 28.638 43.766 27.509 L 36.952 18.51 C 36.098 17.382 34.49 17.159 33.361 18.014 Z" fill="black"/>
  <path d="M 28.775 30.699 C 27.92 29.57 28.143 27.963 29.271 27.108 C 30.4 26.254 32.008 26.476 32.863 27.605 L 46.001 44.958 C 46.856 46.086 46.634 47.694 45.505 48.549 C 44.376 49.403 42.768 49.181 41.914 48.052 L 28.775 30.699 Z" fill="black"/>
  <path d="M 147.971 201.888 C 147.557 200.535 148.319 199.102 149.673 198.688 C 151.027 198.274 152.46 199.036 152.874 200.39 L 160.379 224.942 C 160.792 226.296 160.03 227.729 158.676 228.143 C 157.322 228.557 155.889 227.795 155.475 226.441 L 147.971 201.888 Z" fill="black"/>
  <path d="M 215.741 205.181 C 214.617 206.041 214.402 207.65 215.262 208.774 L 230.86 229.168 C 231.72 230.292 233.329 230.506 234.454 229.646 C 235.578 228.786 235.793 227.178 234.933 226.053 L 219.335 205.66 C 218.475 204.535 216.866 204.321 215.741 205.181 Z" fill="black"/>
  <path d="M 43.114 213.548 C 44.133 212.565 45.756 212.595 46.738 213.614 C 47.721 214.633 47.691 216.256 46.672 217.238 L 28.93 234.345 C 27.911 235.328 26.288 235.299 25.305 234.28 C 24.323 233.26 24.352 231.638 25.371 230.655 L 43.114 213.548 Z" fill="black"/>
  <path d="M 215.228 228.372 C 214.104 229.232 213.889 230.841 214.749 231.965 L 218.562 236.95 C 219.422 238.075 221.031 238.289 222.155 237.429 C 223.28 236.569 223.494 234.96 222.634 233.836 L 218.822 228.851 C 217.962 227.726 216.353 227.512 215.228 228.372 Z" fill="black"/>
  <path d="M 24.577 214.079 C 25.596 213.097 27.219 213.126 28.201 214.145 C 29.184 215.164 29.155 216.787 28.135 217.77 L 23.618 222.126 C 22.599 223.108 20.976 223.079 19.993 222.06 C 19.01 221.041 19.04 219.418 20.059 218.435 L 24.577 214.079 Z" fill="black"/>
  <path d="M 218.616 100.284 C 218.19 101.635 218.94 103.074 220.29 103.5 L 233.41 107.635 C 234.76 108.06 236.2 107.311 236.625 105.96 C 237.052 104.61 236.301 103.171 234.951 102.745 L 221.831 98.61 C 220.481 98.185 219.041 98.934 218.616 100.284 Z" fill="black"/>
  <path d="M 221.118 43.441 C 219.981 44.284 218.375 44.045 217.533 42.907 C 216.69 41.77 216.929 40.164 218.067 39.322 L 232.521 28.616 C 233.659 27.774 235.264 28.013 236.107 29.15 C 236.95 30.288 236.71 31.893 235.573 32.736 L 221.118 43.441 Z" fill="black"/>
  <path d="M 214.502 200.968 L 230.173 200.968 C 230.173 200.968 226.809 197.869 226.809 192.646 C 226.809 187.422 240 177.949 240 177.949 C 240 177.949 217.601 192.38 212.997 175.205 C 208.397 183.42 204.382 185.602 191.748 180.694 C 191.748 180.694 196.351 184.855 198.211 189.193 C 200.07 193.531 199.362 205.926 199.362 205.926 C 199.362 205.926 209.084 200.975 209.57 200.968 C 206.669 200.219 204.497 197.174 204.497 193.531 C 204.497 189.326 207.302 186.36 210.872 186.36 C 214.441 186.36 217.778 189.459 218.043 192.646 C 218.309 195.833 217.402 200.218 214.502 200.968 Z" fill="black"/>
  <path fill-rule="evenodd" clip-rule="evenodd" d="M 84.086 210.884 C 94.2 218.649 96.056 224.592 91.346 238.506 C 99.662 231.283 105.109 231.362 116.136 238.506 C 113.87 230.911 115.283 228.015 123.928 225.934 C 119.817 215.875 120.89 212.076 129.063 208.67 C 114.634 212.808 111.562 207.204 108.522 193.354 C 105.135 209.424 100.097 213.73 84.086 210.884 Z M 114.011 222.216 C 114.011 227.105 110.047 231.069 105.158 231.069 C 100.268 231.069 96.304 227.105 96.304 222.216 C 96.304 217.326 100.268 213.362 105.158 213.362 C 110.047 213.362 114.011 217.326 114.011 222.216 Z" fill="black"/>
  <path fill-rule="evenodd" clip-rule="evenodd" d="M 59.826 221.95 C 60.11 209.641 63.633 205.037 76.56 205.926 C 68.7 199.299 66.846 193.972 71.071 185.652 C 55.222 186.626 49.733 165.732 49.733 165.732 C 47.396 192.902 39.695 192.054 31.255 191.123 L 31.254 191.123 C 29.464 190.926 27.64 190.725 25.828 190.787 C 38.085 194.275 43.755 196.721 36.098 208.316 C 52.717 202.754 57.833 206.432 59.826 221.95 Z M 54.868 205.926 C 59.758 205.926 63.722 202.002 63.722 197.161 C 63.722 192.32 59.758 188.396 54.868 188.396 C 49.978 188.396 46.014 192.32 46.014 197.161 C 46.014 202.002 49.978 205.926 54.868 205.926 Z" fill="black"/>
  <path d="M 43.358 145.458 L 35.833 140.5 C 44.839 133.004 38.409 126.952 28.46 117.587 L 28.459 117.587 L 28.453 117.581 L 28.449 117.578 L 28.448 117.577 L 28.443 117.572 C 27.651 116.826 26.836 116.059 26.005 115.269 C 46.763 128.814 54.253 127.942 55.754 107.832 C 57.651 123.553 58.41 126.689 68.68 125.627 L 63.014 135.365 C 52.212 130.319 46.988 132.71 43.358 145.458 Z" fill="black"/>
  <path d="M 189.446 39.751 L 189.446 52.588 C 202.375 55.517 204.763 57.103 199.539 72.862 L 206.446 77.465 C 204.825 67.269 221.851 62.415 221.851 62.415 L 221.851 54.978 C 205.363 56.629 202.285 51.531 209.544 34.97 C 209.544 34.97 198.477 51.348 189.446 39.751 Z" fill="black"/>
  <path fill-rule="evenodd" clip-rule="evenodd" d="M 87.264 114.438 C 81.01 111.006 58.587 97.483 58.587 79.959 C 58.587 59.596 85.237 23.92 104.007 24.805 L 104.007 70.056 C 109.472 65.144 121.565 55.067 128.797 55.067 C 137.344 55.067 149.215 69.142 151.64 72.131 L 151.64 24.877 C 170.41 23.992 197.06 59.668 197.06 80.031 C 197.06 97.761 175.443 110.749 168.739 114.351 C 178.302 123.656 183.75 129.588 192.456 140.412 C 217.255 148.865 231.104 153.625 240 167.768 C 225.247 163.426 215.092 162.123 192.456 162.81 C 191.571 159.889 196.794 151.39 197.945 150.062 C 199.096 148.734 200.424 144.042 194.05 145.724 C 193.878 145.769 193.708 145.824 193.538 145.89 C 193.52 145.927 193.501 145.964 193.481 146 L 167.709 193.409 C 166.93 194.841 165.138 195.371 163.706 194.593 C 162.274 193.815 161.745 192.023 162.523 190.591 L 179.02 160.244 C 172.612 154.675 159.697 142.989 159.697 139.261 C 159.697 136.786 161.716 133.179 163.512 129.971 C 165.314 126.753 166.891 123.935 165.983 123.059 L 160.24 115.357 C 157.317 116.557 139.953 123.526 139.953 125.627 C 139.953 127.929 142.786 128.46 147.479 128.371 C 152.171 128.283 158.989 120.403 158.989 120.403 C 159.697 122.351 158.989 130.408 158.989 130.408 L 143.709 148.465 C 144.763 150.263 145.354 152.275 145.354 154.4 C 145.354 162.028 137.743 168.211 128.355 168.211 C 118.966 168.211 111.355 162.028 111.355 154.4 C 111.355 151.653 112.343 149.093 114.045 146.942 L 96.392 129.788 C 96.392 129.788 95.95 122.351 96.658 120.403 C 96.658 120.403 103.475 128.283 108.168 128.371 C 112.86 128.46 115.694 127.929 115.694 125.627 C 115.694 123.485 98.297 116.286 95.874 115.294 L 90.018 123.148 C 89.109 124.023 90.687 126.841 92.489 130.059 C 94.285 133.268 96.304 136.874 96.304 139.349 C 96.304 142.904 84.564 153.692 77.917 159.516 L 94.817 190.606 C 95.596 192.038 95.066 193.829 93.634 194.608 C 92.202 195.386 90.41 194.856 89.632 193.424 L 64.538 147.264 C 63.707 146.558 62.841 146.047 61.951 145.812 C 55.576 144.13 56.904 148.822 58.055 150.15 C 59.207 151.478 64.43 159.977 63.545 162.899 C 40.908 162.211 30.754 163.514 16 167.857 C 24.897 153.713 38.745 148.954 63.545 140.5 C 72.251 129.676 77.699 123.744 87.264 114.438 Z M 151.64 110.91 L 151.64 110.842 C 172.8 105.973 187.498 92.693 187.144 83.574 C 186.848 75.973 179.339 67.195 168.497 56.317 C 165.711 53.522 162.799 50.6 159.874 47.541 L 160.405 92.87 L 154.296 92.87 C 153.657 90.466 153.29 89.225 151.906 87.818 L 151.906 87.824 C 151.906 87.824 149.249 85.168 144.026 85.168 C 141.436 85.168 138.737 88.28 136.015 91.419 C 133.248 94.61 130.458 97.828 127.735 97.828 C 125.174 97.828 122.553 94.981 119.797 91.987 C 116.741 88.668 113.519 85.168 110.027 85.168 C 103.592 85.168 101.314 92.319 101.18 92.76 L 101.174 92.798 L 95.242 92.798 L 95.773 47.469 C 92.848 50.528 89.936 53.45 87.15 56.245 L 87.149 56.245 C 76.308 67.122 68.798 74.999 68.503 82.6 C 68.149 91.719 82.846 105.353 104.007 110.222 C 114.513 114.244 117.822 118.342 123.131 127.043 C 123.131 127.043 112.241 131.647 112.241 134.214 C 112.241 135.616 116.354 139.284 120.091 142.328 C 122.537 141.22 125.355 140.589 128.355 140.589 C 131.921 140.589 135.23 141.481 137.964 143.006 C 141.72 139.95 145.885 136.244 145.885 134.834 C 145.885 132.267 132.516 127.043 132.516 127.043 C 137.795 118.391 141.271 114.904 151.64 110.91 Z" fill="black"/>
  <path d="M 43.535 87.824 C 43.535 87.824 53.098 77.465 53.186 73.393 C 53.275 69.32 38.312 62.592 38.312 62.592 C 48.565 64.695 55.399 56.218 55.399 56.218 L 58.764 67.018 C 55.78 71.139 55.802 74.43 55.84 80.092 C 55.841 80.219 55.841 80.347 55.842 80.475 L 43.535 87.824 Z" fill="black"/>
</svg>
