<?xml version="1.0" encoding="utf-8"?>
<svg width="256" height="256" viewBox="0 0 256 256" fill="none" xmlns="http://www.w3.org/2000/svg">
  <path d="M 16.048 48.594 C 16.082 47.949 16.134 47.309 16.202 46.675 L 239.799 46.675 C 239.933 47.907 240 49.159 240 50.427 L 240 70.289 L 156.901 70.289 C 148.212 65.912 138.394 63.448 128.001 63.448 C 117.608 63.448 107.79 65.912 99.101 70.289 L 16 70.289 L 16 50.427 C 16 49.812 16.016 49.201 16.048 48.594 Z" fill="black"/>
  <path d="M 16 81.544 L 16 105.158 L 67.759 105.158 C 71.142 96.154 76.485 88.109 83.27 81.544 L 16 81.544 Z" fill="black"/>
  <path d="M 16 140.027 L 16 116.413 L 64.67 116.413 C 64.013 120.102 63.669 123.9 63.669 127.779 C 63.669 131.967 64.07 136.062 64.834 140.027 L 16 140.027 Z" fill="black"/>
  <path d="M 16 151.282 L 16 174.896 L 84.2 174.896 C 77.2 168.386 71.653 160.335 68.098 151.282 L 16 151.282 Z" fill="black"/>
  <path d="M 16 205.572 L 16 186.151 L 100.924 186.151 C 109.154 189.976 118.328 192.11 128.001 192.11 C 137.673 192.11 146.847 189.976 155.077 186.151 L 240 186.151 L 240 205.572 C 240 206.992 239.915 208.391 239.749 209.765 L 16.253 209.765 C 16.086 208.391 16 206.992 16 205.572 Z" fill="black"/>
  <path d="M 19.653 221.021 C 25.314 232.277 36.969 240 50.428 240 L 205.574 240 C 219.033 240 230.688 232.277 236.349 221.021 L 19.653 221.021 Z" fill="black"/>
  <path d="M 240 174.896 L 171.802 174.896 C 178.802 168.386 184.349 160.335 187.904 151.282 L 240 151.282 L 240 174.896 Z" fill="black"/>
  <path d="M 191.168 140.027 L 240 140.027 L 240 116.413 L 191.331 116.413 C 191.989 120.102 192.332 123.9 192.332 127.779 C 192.332 131.967 191.932 136.062 191.168 140.027 Z" fill="black"/>
  <path d="M 240 105.158 L 188.243 105.158 C 184.86 96.154 179.517 88.109 172.732 81.544 L 240 81.544 L 240 105.158 Z" fill="black"/>
  <path d="M 236.567 35.42 L 19.435 35.42 C 25.011 23.925 36.794 15.999 50.428 15.999 L 205.574 15.999 C 219.208 15.999 230.991 23.925 236.567 35.42 Z" fill="black"/>
  <path fill-rule="evenodd" clip-rule="evenodd" d="M 128.663 88.055 C 130.796 88.055 132.525 89.784 132.525 91.917 L 132.525 124.027 L 164.525 124.027 C 166.658 124.027 168.387 125.756 168.387 127.889 C 168.387 130.022 166.658 131.751 164.525 131.751 L 124.801 131.751 L 124.801 91.917 C 124.801 89.784 126.53 88.055 128.663 88.055 Z" fill="black"/>
</svg>
