<?xml version="1.0" encoding="utf-8"?>
<svg width="256" height="256" viewBox="0 0 256 256" fill="none" xmlns="http://www.w3.org/2000/svg">
  <path d="M 105.595 59.603 C 107.795 49.581 113.728 44.644 120.474 43.416 C 127.448 42.147 135.947 44.731 143.078 51.234 C 144.413 52.451 146.482 52.356 147.699 51.021 C 148.916 49.686 148.821 47.617 147.486 46.4 C 139.173 38.821 128.683 35.273 119.303 36.98 C 109.697 38.728 101.911 45.874 99.205 58.201 C 98.818 59.965 99.934 61.709 101.699 62.096 C 103.463 62.484 105.207 61.367 105.595 59.603 Z" fill="black"/>
  <path d="M 176.964 46.128 C 167.096 47.95 159.574 52.819 156.499 60.564 C 156.055 61.682 155.033 62.466 153.838 62.606 C 147.65 63.329 143.515 65.726 140.242 69.768 C 136.823 73.988 134.222 80.148 131.601 88.665 C 131.26 89.775 130.354 90.621 129.223 90.887 C 128.092 91.153 126.905 90.798 126.105 89.956 C 113.469 76.662 100.993 71.384 90.189 71.06 C 79.373 70.735 69.777 75.356 62.817 82.735 C 48.819 97.579 45.891 122.992 65.25 140.419 C 66.593 141.628 66.701 143.696 65.493 145.038 C 64.284 146.381 62.216 146.489 60.874 145.281 C 38.35 125.005 41.962 95.316 58.059 78.248 C 66.146 69.672 77.486 64.134 90.386 64.521 C 102.082 64.873 114.687 70.081 127.015 81.64 C 129.245 75.247 131.77 69.834 135.158 65.651 C 139.197 60.664 144.346 57.561 151.197 56.38 C 155.761 46.933 165.231 41.642 175.777 39.695 C 186.981 37.627 199.927 39.19 211.202 43.879 C 222.466 48.564 232.448 56.544 237.162 67.648 C 241.826 78.629 241.074 92.038 232.407 107.175 C 235.066 120.688 235.001 130.321 232.338 137.894 C 229.916 144.777 225.485 149.566 219.962 153.872 C 228.625 167.572 228.172 180.514 221.835 189.223 C 215.158 198.401 202.586 201.879 190.479 196.538 C 188.826 195.809 188.077 193.878 188.807 192.225 C 189.536 190.573 191.467 189.824 193.119 190.553 C 202.634 194.751 211.82 191.869 216.546 185.375 C 221.202 178.974 222.17 168.056 212.85 155.018 C 211.804 153.552 212.138 151.515 213.6 150.462 C 219.895 145.928 224.042 141.76 226.167 135.723 C 228.329 129.579 228.57 120.986 225.752 107.258 C 225.589 106.46 225.728 105.629 226.145 104.929 C 234.595 90.716 234.929 79.125 231.142 70.205 C 227.294 61.143 218.912 54.172 208.689 49.919 C 198.478 45.671 186.815 44.31 176.964 46.128 Z" fill="black"/>
  <path d="M 48.193 136.034 C 49.849 136.754 50.609 138.681 49.889 140.337 C 45.57 150.279 37.812 152.899 32.009 154.86 L 31.746 154.949 C 28.709 155.975 26.598 156.742 25.08 157.968 C 23.819 158.987 22.794 160.479 22.542 163.506 C 22.588 169.691 26.131 182.345 40.392 189.139 C 41.182 189.515 41.787 190.192 42.075 191.018 C 42.362 191.843 42.306 192.75 41.921 193.535 L 33.926 209.797 C 33.129 211.418 31.168 212.086 29.547 211.289 C 27.926 210.492 27.258 208.532 28.055 206.911 L 34.645 193.508 C 19.917 185.057 16 170.938 16 163.382 C 16 163.3 16.003 163.218 16.009 163.136 C 16.365 158.432 18.136 155.168 20.97 152.879 C 23.512 150.827 26.738 149.736 29.482 148.809 L 29.65 148.752 C 35.451 146.79 40.741 144.977 43.89 137.731 C 44.609 136.074 46.536 135.314 48.193 136.034 Z" fill="black"/>
  <path d="M 141.557 196.543 C 141.557 206.378 133.585 214.35 123.75 214.35 C 113.916 214.35 105.943 206.378 105.943 196.543 C 105.943 186.709 113.916 178.736 123.75 178.736 C 133.585 178.736 141.557 186.709 141.557 196.543 Z" fill="black"/>
  <path d="M 217.109 100.516 C 218.062 102.051 217.588 104.067 216.054 105.019 C 211.016 108.142 208.634 111.682 207.314 115.234 C 206.224 118.162 205.458 123.819 205.048 126.906 C 204.459 130.803 203.475 135.251 199.807 138.485 C 196.17 141.691 190.586 143.123 182.331 143.032 C 172.362 143.025 166.932 137.611 163.189 133.88 C 162.61 133.302 162.071 132.764 161.562 132.294 C 159.563 130.446 158.353 129.835 157.058 129.883 C 155.58 129.937 153.018 130.885 148.568 134.917 C 147.23 136.129 145.161 136.027 143.949 134.689 C 142.736 133.35 142.838 131.282 144.176 130.069 C 148.902 125.787 152.939 123.488 156.819 123.346 C 160.881 123.197 163.787 125.443 166.002 127.491 C 169.732 131.143 175.23 136.49 182.35 136.49 C 190.075 136.578 193.675 135.171 195.481 133.578 C 197.258 132.012 198.011 129.697 198.581 125.928 C 198.996 122.753 199.808 116.647 201.182 112.954 C 202.991 108.094 206.288 103.377 212.607 99.459 C 214.141 98.507 216.158 98.98 217.109 100.516 Z" fill="black"/>
  <path fill-rule="evenodd" clip-rule="evenodd" d="M 133.409 104.445 C 117.021 100.671 104.166 105.2 98.81 115.581 C 93.832 125.228 96.231 138.303 105.936 150.793 C 98.101 153.885 91.274 159.016 86.077 165.539 C 85.011 165.624 84.109 165.606 83.227 165.455 C 81.374 165.137 79.487 164.204 76.348 162.01 C 75.838 161.653 75.145 161.718 74.71 162.163 C 74.275 162.608 74.226 163.302 74.593 163.804 C 76.715 166.698 77.555 168.648 77.972 170.653 C 77.972 170.911 79.057 176.161 78.623 178.631 C 78.188 181.101 76.921 183.741 76.387 186.425 C 75.698 186.032 74.888 185.604 73.99 185.155 C 71.267 183.793 67.63 182.184 63.814 180.676 C 59.999 179.167 55.977 177.747 52.484 176.768 C 50.738 176.279 49.105 175.894 47.684 175.666 C 46.29 175.442 44.997 175.35 43.98 175.515 C 43.492 175.595 43.094 175.95 42.96 176.427 C 42.826 176.903 43.046 177.385 43.356 177.736 C 43.572 177.98 44.221 178.622 44.626 179.04 C 45.436 179.877 46.569 181.056 47.916 182.467 C 50.609 185.289 54.152 189.037 57.662 192.838 C 61.175 196.643 64.645 200.488 67.198 203.508 C 68.477 205.021 69.508 206.307 70.196 207.267 C 70.53 207.732 70.762 208.092 70.901 208.347 L 63.003 215.078 C 63.003 215.078 62.184 215.843 61.907 216.202 C 61.774 216.376 61.61 216.617 61.51 216.903 C 61.411 217.185 61.303 217.74 61.665 218.275 C 62.21 219.083 63.17 219.318 63.874 219.398 C 64.654 219.486 65.582 219.435 66.553 219.306 C 68.51 219.047 70.912 218.439 73.247 217.706 C 75.59 216.971 77.921 216.093 79.746 215.273 C 79.995 215.161 80.525 215.201 80.525 215.201 C 80.525 215.201 82.063 215.231 82.872 214.94 C 84.713 214.277 85.668 212.247 85.005 210.406 C 83.401 205.953 82.524 201.137 82.524 196.103 C 82.524 173.124 100.806 154.605 123.226 154.605 C 145.645 154.605 163.93 174.409 163.93 197.388 C 163.938 199.509 163.945 201.451 163.746 204.028 C 163.693 204.701 163.726 205.375 163.757 206.018 C 163.822 207.366 163.88 208.576 163.136 209.35 C 162.037 210.482 160.29 212.283 160.153 215.061 C 160.053 215.442 160.135 215.849 160.376 216.161 C 160.617 216.474 160.989 216.657 161.383 216.657 L 188.548 216.657 C 189.174 216.657 189.707 216.201 189.804 215.583 C 189.902 214.965 189.536 214.368 188.94 214.175 L 188.938 214.174 L 188.929 214.171 L 188.889 214.158 C 188.854 214.146 188.799 214.128 188.728 214.104 C 188.585 214.056 188.374 213.984 188.104 213.889 C 187.565 213.699 186.791 213.419 185.864 213.059 C 184.006 212.338 181.544 211.303 179.104 210.042 C 176.652 208.774 174.288 207.309 172.581 205.746 C 171.596 204.844 170.909 203.982 170.512 203.17 C 170.694 201.899 170.828 200.612 170.911 199.312 C 171.105 198.969 171.336 198.59 171.61 198.176 C 172.605 196.67 174.024 194.882 175.746 192.911 C 179.188 188.973 183.751 184.401 188.324 180.044 C 192.892 175.691 197.448 171.571 200.864 168.538 C 202.572 167.021 203.993 165.778 204.988 164.913 C 205.482 164.483 206.275 163.799 206.546 163.566 C 206.998 163.18 207.122 162.533 206.844 162.007 C 206.568 161.481 205.964 161.217 205.39 161.371 C 191.235 165.153 178.745 168.491 165.755 173.928 C 165.642 173.705 165.528 173.484 165.412 173.263 C 165.935 161.661 166.358 152.274 163.872 144.148 C 163.758 143.778 163.483 143.479 163.123 143.337 C 162.763 143.195 162.358 143.224 162.022 143.417 C 156.12 146.806 152.712 149.399 147.886 154.476 C 140.693 150.061 132.257 147.518 123.226 147.518 C 119.596 147.518 116.063 147.929 112.668 148.707 C 112.658 148.695 112.648 148.683 112.638 148.671 C 102.411 136.617 101.069 125.468 104.623 118.58 C 108.08 111.882 117.165 107.416 131.941 110.819 C 133.701 111.225 135.457 110.126 135.862 108.366 C 136.267 106.606 135.169 104.85 133.409 104.445 Z" fill="black"/>
</svg>
