<?xml version="1.0" encoding="utf-8"?>
<svg width="256" height="256" viewBox="0 0 256 256" fill="none" xmlns="http://www.w3.org/2000/svg">
  <path d="M 72.354 200.606 C 72.354 171.654 95.824 148.184 124.776 148.184 C 153.728 148.184 177.198 171.654 177.198 200.606 C 177.198 213.613 172.461 225.514 164.617 234.678 C 190.304 219.913 241.337 190.384 239.973 190.384 C 238.61 190.384 204.283 200.868 187.289 206.11 C 191.26 179.513 199.085 127.149 199.341 125.662 C 198.886 126.805 171.43 143.738 157.671 152.115 L 124.776 21.322 L 98.172 148.184 L 47.584 131.671 L 67.767 206.11 L 16 197.329 L 84.935 234.678 C 77.091 225.514 72.354 213.613 72.354 200.606 Z" fill="black" fill-opacity="0.99"/>
  <path d="M 144.041 50.809 L 144.041 62.342 C 184.406 77.676 224.116 95.762 216.908 183.307 C 234.338 131.671 216.908 71.778 144.041 50.809 Z" fill="black" fill-opacity="0.99"/>
  <path d="M 108.656 50.809 C 24.65 70.73 11.544 152.115 35.527 192.743 C 20.98 127.739 50.992 70.992 108.656 62.342 L 108.656 50.809 Z" fill="black" fill-opacity="0.99"/>
  <path d="M 119.796 164.303 C 119.796 161.77 121.85 159.717 124.383 159.717 C 126.916 159.717 128.97 161.77 128.97 164.303 L 128.97 197.461 L 161.603 197.461 C 164.136 197.461 166.19 199.514 166.19 202.048 C 166.19 204.581 164.136 206.635 161.603 206.635 L 124.383 206.635 C 121.85 206.635 119.796 204.581 119.796 202.048 L 119.796 164.303 Z" fill="black" fill-opacity="0.99"/>
</svg>
