<?xml version="1.0" encoding="utf-8"?>
<svg width="256" height="256" viewBox="0 0 256 256" fill="none" xmlns="http://www.w3.org/2000/svg">
  <path d="M 128.633 164.422 C 108.686 164.422 92.516 148.251 92.516 128.304 C 92.516 120.057 95.28 112.456 99.932 106.376 C 99.932 106.376 36.764 32.278 35.187 30.271 C 33.611 28.265 30.029 20.24 33.039 17.23 C 36.048 14.22 47.801 17.113 53.532 21.816 C 56.566 24.305 63.495 35.12 69.665 44.751 C 75.152 53.315 80.038 60.943 81.05 60.943 C 81.859 60.943 84.695 59.138 88.018 57.024 C 93.53 53.517 100.383 49.157 101.546 50.767 C 102.681 52.339 96.418 57.744 91.352 62.115 C 88.105 64.916 85.35 67.294 85.35 67.966 C 85.35 69.685 106.561 99.714 106.561 99.714 L 119.031 116.265 L 118.457 93.64 C 121.685 92.694 125.1 92.187 128.633 92.187 C 148.58 92.187 164.75 108.357 164.75 128.304 L 186.679 132.604 L 164.275 134.18 L 151.995 134.18 L 161.137 144.07 C 155.283 156.117 142.928 164.422 128.633 164.422 Z" fill="black"/>
  <path d="M 62.89 84.25 C 64.979 85.38 65.755 87.989 64.625 90.078 C 50.44 116.286 50.345 149.702 72.745 177.171 C 82.11 169.367 89.319 164.052 91.943 165.856 C 95.785 168.497 83.864 182.152 70 198.031 C 68.212 200.078 66.392 202.163 64.569 204.266 C 62.16 207.044 59.771 209.882 57.411 212.683 C 42.343 230.576 28.526 246.981 19.136 236.944 C 10.108 227.293 25.069 215.66 42.257 202.297 L 42.258 202.296 C 45.746 199.583 49.327 196.799 52.817 193.947 C 57.072 190.468 61.239 186.922 65.181 183.567 L 65.185 183.563 L 65.186 183.562 L 65.191 183.557 L 66.174 182.721 C 41.246 152.249 41.381 114.958 57.062 85.985 C 58.193 83.896 60.802 83.119 62.89 84.25 Z" fill="black"/>
  <path d="M 95.33 194.578 C 93.304 193.339 90.658 193.978 89.419 196.004 C 88.181 198.031 88.82 200.677 90.846 201.915 C 98.126 206.364 107.5 208.455 117.484 209.303 C 127.528 210.155 138.61 209.778 149.581 208.984 C 151.95 208.813 153.731 206.754 153.559 204.385 C 153.388 202.017 151.329 200.236 148.96 200.407 C 138.146 201.19 127.587 201.53 118.211 200.734 C 108.775 199.933 100.95 198.011 95.33 194.578 Z" fill="black"/>
  <path d="M 163.331 94.338 C 159.604 91.758 206.898 27.119 209.624 26.689 C 212.35 26.259 224.389 36.579 224.385 39.732 C 224.384 40.46 218.662 45.741 211.945 51.939 C 202.309 60.832 190.626 71.613 190.849 73.556 C 190.926 74.22 191.873 75.397 193.311 77.181 C 199.008 84.253 212.4 100.877 209.768 133.035 L 239.579 131.315 L 239.579 146.364 C 239.579 146.364 191.566 140.344 191.566 136.761 C 191.566 133.178 201.742 132.461 201.742 132.461 C 204.465 101.504 187.839 80.334 183.683 80.005 C 181.787 79.855 178.162 83.36 174.426 86.973 C 169.971 91.28 165.358 95.741 163.331 94.338 Z" fill="black"/>
  <path d="M 189.834 228.774 C 192.472 224.408 185.465 214.844 179.995 207.377 C 176.847 203.08 174.208 199.478 174.208 197.96 C 174.208 196.921 176.778 194.751 180.49 191.617 C 184.458 188.268 189.73 183.817 194.563 178.468 C 203.297 168.803 208.609 153.96 203.019 151.81 C 199.491 150.453 196.782 155.455 193.304 161.876 C 191.273 165.627 188.98 169.861 186.107 173.595 C 178.941 182.911 172.463 189.934 170.05 189.934 C 167.802 189.934 165.411 185.474 162.89 180.771 C 159.783 174.976 156.478 168.811 152.997 170.155 C 149.85 171.371 158.694 189.386 167.08 206.469 L 167.081 206.47 C 170.544 213.525 173.93 220.42 176.36 225.908 C 178.533 230.814 188.515 230.957 189.834 228.774 Z" fill="black"/>
  <path d="M 153.86 53.347 C 153.86 57.384 150.844 60.657 147.124 60.657 C 143.403 60.657 140.387 57.384 140.387 53.347 C 140.387 49.31 143.403 46.038 147.124 46.038 C 150.844 46.038 153.86 49.31 153.86 53.347 Z" fill="black"/>
</svg>
