<?xml version="1.0" encoding="utf-8"?>
<svg width="256" height="256" viewBox="0 0 256 256" fill="none" xmlns="http://www.w3.org/2000/svg">
  <path d="M 198.667 24.862 C 198.617 23.227 197.902 21.922 197.069 21.947 C 196.237 21.973 195.602 23.319 195.652 24.954 C 195.702 26.59 196.417 27.895 197.25 27.869 C 198.082 27.844 198.717 26.498 198.667 24.862 Z" fill="black"/>
  <path d="M 105.978 82.012 C 106.525 82.64 105.97 84.02 104.737 85.096 C 103.505 86.172 102.061 86.536 101.514 85.908 C 100.966 85.281 101.521 83.9 102.754 82.824 C 103.987 81.748 105.43 81.385 105.978 82.012 Z" fill="black"/>
  <path d="M 42.186 88.076 C 41.458 88.287 40.561 87.398 40.181 86.089 C 39.8 84.78 40.082 83.548 40.809 83.337 C 41.536 83.126 42.433 84.015 42.814 85.324 C 43.194 86.633 42.913 87.865 42.186 88.076 Z" fill="black"/>
  <path d="M 235.748 77.611 C 236.404 78.125 236.115 79.585 235.103 80.872 C 234.092 82.158 232.743 82.783 232.087 82.269 C 231.432 81.754 231.72 80.294 232.732 79.008 C 233.744 77.722 235.093 77.096 235.748 77.611 Z" fill="black"/>
  <path d="M 118.64 196.747 C 116.118 176.219 112.627 147.809 106.067 147.809 C 99.727 147.809 100.632 154.375 101.325 159.411 C 101.757 162.542 102.107 165.08 100.583 165.081 C 98.982 165.082 96.954 157.326 94.934 149.598 C 93.621 144.575 92.31 139.564 91.122 136.702 C 89.761 133.423 88.172 131.5 86.93 129.996 C 85.705 128.513 84.817 127.438 84.817 125.872 C 84.817 122.719 89.617 114.908 103.736 111.618 C 117.856 108.328 121.555 97.633 121.555 87.351 C 121.555 77.07 112.921 59.66 97.293 59.386 C 81.665 59.112 77.827 82.282 77.827 89.959 C 77.827 97.636 80.569 102.982 83.585 102.708 C 85.004 102.578 87.761 100.05 90.452 97.581 C 93.478 94.804 96.423 92.103 97.293 92.972 C 98.938 94.614 79.609 117.787 74.948 117.787 C 70.287 117.787 59.182 98.047 59.73 82.008 C 60.279 65.969 74.811 24.706 117.306 24.704 C 159.8 24.701 165.563 46.78 165.562 48.285 C 165.56 49.79 145.819 76.11 143.9 75.288 C 143.228 75 143.665 73.62 144.217 71.877 C 145.241 68.642 146.661 64.157 142.118 63.088 C 135.129 61.442 127.587 74.605 127.587 85.569 C 127.587 96.533 139.104 109.148 147.601 109.148 C 156.099 109.148 167.205 96.396 167.205 86.803 C 167.205 81.043 163.942 77.701 161.336 75.031 C 159.601 73.255 158.157 71.776 158.157 70.079 C 158.157 65.832 170.771 52.258 175.978 49.79 C 178.478 48.606 180.852 48.716 183.039 48.817 C 185.409 48.927 187.559 49.027 189.412 47.46 C 191.238 45.916 192.668 42.681 193.868 39.966 C 195.011 37.38 195.946 35.266 196.815 35.533 C 198.597 36.082 195.446 48.148 192.428 51.298 C 191.465 52.304 189.441 53.184 187.131 54.189 C 182.205 56.333 175.979 59.041 175.978 64.732 C 175.977 69.252 177.1 73.734 178.109 77.764 C 178.967 81.187 179.743 84.285 179.679 86.803 C 179.585 90.512 170.021 103.317 162.441 113.465 L 162.441 113.466 L 162.44 113.467 C 158.815 118.32 155.645 122.564 154.182 124.915 C 151.969 128.47 149.79 138.153 147.771 147.121 C 145.662 156.492 143.729 165.081 142.118 165.081 C 140.647 165.081 140.518 160.154 140.382 154.926 C 140.227 148.952 140.061 142.586 137.869 142.734 C 135.763 142.876 134.627 154.998 133.523 166.787 C 132.471 178.01 131.448 188.931 129.643 188.931 C 125.942 188.931 128.41 124.915 128.41 124.915 C 128.41 124.915 128.41 106.955 124.025 107.094 C 119.67 107.233 117.883 112.912 116.38 117.687 L 116.348 117.787 C 114.838 122.582 111.278 135.199 116.348 135.334 C 119.507 135.418 120.112 133.216 120.518 131.742 C 120.763 130.849 120.935 130.224 121.555 130.533 C 121.91 130.71 121.82 134.753 121.678 141.037 C 121.524 147.936 121.308 157.535 121.555 167.683 C 121.746 175.534 122.104 183.692 122.427 191.076 C 123.07 205.766 123.579 217.394 122.38 217.445 C 121.189 217.496 120.07 208.389 118.64 196.747 Z" fill="black"/>
  <path fill-rule="evenodd" clip-rule="evenodd" d="M 102.335 183.368 C 102.872 182.212 103.28 181.333 104.009 181.669 C 104.368 181.835 104.392 184.247 104.429 187.91 C 104.484 193.312 104.566 201.435 105.791 209.086 C 106.838 215.632 108.712 221.837 110.098 226.423 C 111.442 230.873 112.326 233.8 111.548 234.037 C 110.285 234.421 107.453 228.046 103.527 219.21 C 97.653 205.988 89.33 187.257 80.156 177.421 C 80.106 177.367 80.087 177.257 80.066 177.139 C 79.997 176.747 79.911 176.262 78.648 177.421 C 77.891 178.114 79.362 186.984 83.857 197.023 C 86.245 202.357 89.614 207.801 92.384 212.279 C 95.74 217.702 98.218 221.708 97.017 222.384 C 95.448 223.267 91.5 216.837 88.723 212.314 C 87.618 210.514 86.698 209.017 86.187 208.401 C 79.559 200.412 77.14 198.531 75.769 199.216 C 74.952 199.625 76.473 204.029 77.719 207.635 C 78.563 210.079 79.281 212.156 79.059 212.377 C 78.873 212.563 77.912 211.806 76.537 210.723 C 73.852 208.607 69.589 205.249 66.447 205.249 C 64.162 205.249 63.079 205.474 61.839 205.732 C 60.177 206.078 58.233 206.482 52.739 206.482 C 43.143 206.482 33.273 199.354 30.257 195.79 C 27.241 192.226 16 176.461 16 153.705 C 16 130.949 28.201 116.831 35.74 109.836 C 40.33 105.579 41.211 101.273 41.755 98.617 C 42.105 96.91 42.314 95.884 43.28 95.991 C 45.747 96.265 45.61 104.354 44.377 107.781 C 43.963 108.93 42.578 110.819 40.92 113.081 C 37.634 117.565 33.273 123.514 33.273 128.07 C 33.273 132.559 35.096 135.343 37.239 138.617 C 38.369 140.342 39.587 142.202 40.675 144.52 C 42.188 147.743 41.997 150.272 41.797 152.909 C 41.581 155.768 41.355 158.754 43.28 162.89 C 46.981 170.84 53.835 176.735 58.908 177.421 C 63.98 178.106 70.149 176.872 72.616 172.485 C 75.084 168.099 71.931 151.237 68.915 146.439 C 65.899 141.641 61.101 139.037 53.698 139.037 C 46.296 139.037 39.03 133.416 39.03 126.151 C 39.03 118.885 43.417 116.144 51.916 116.144 C 55.803 116.144 67.186 120.723 75.769 136.843 C 80.468 145.668 84.566 157.09 88.062 166.832 C 92.143 178.205 95.403 187.291 97.84 187.291 C 100.514 187.291 101.559 185.039 102.335 183.368 Z M 49.723 202.096 C 42.732 202.233 33.136 191.266 33.273 185.509 C 33.41 179.751 36.426 176.735 43.28 176.735 C 50.134 176.735 58.908 185.646 58.908 192.226 C 58.908 198.806 56.714 201.959 49.723 202.096 Z" fill="black"/>
  <path fill-rule="evenodd" clip-rule="evenodd" d="M 138.638 216.221 C 139.687 209.527 140.878 201.926 143.078 196.609 C 147.898 184.957 161.857 169.466 165.01 172.071 C 167.87 174.434 158.996 186.049 155.175 191.05 C 154.785 191.561 154.447 192.003 154.18 192.359 C 151.301 196.198 146.914 214.841 148.971 216.075 C 149.957 216.666 151.762 211.933 153.934 206.24 C 156.292 200.058 159.081 192.746 161.721 189.891 C 166.792 184.408 180.913 172.619 183.243 174.538 C 185.574 176.457 175.978 186.328 173.51 188.52 C 171.043 190.714 162.815 204.149 166.38 204.697 C 167.582 204.881 170.001 201.788 173.192 197.705 C 175.649 194.561 178.564 190.832 181.735 187.561 C 185.753 183.417 190.724 180.685 194.103 178.827 C 194.87 178.406 195.556 178.029 196.129 177.691 C 198.573 176.251 201.865 174.838 205.536 173.263 C 213.393 169.891 222.987 165.775 229.714 159.047 C 239.583 149.178 239.861 136.291 239.997 128.889 C 240.132 121.486 236.022 105.584 227.383 105.721 C 218.746 105.859 196.129 118.47 196.129 124.639 C 196.129 127.575 196.936 128.804 197.738 130.024 C 198.621 131.367 199.497 132.7 199.282 136.291 C 198.872 143.145 185.575 156.031 180.365 156.169 C 175.154 156.306 172.551 155.209 172.551 151.234 C 172.551 148.804 177.002 143.766 180.997 139.244 C 183.541 136.365 185.9 133.695 186.806 132.042 C 187.641 130.52 188.37 127.854 189.184 124.883 C 190.64 119.56 192.365 113.257 195.445 110.794 C 198.179 108.606 203.228 107.576 207.826 106.638 C 211.296 105.931 214.51 105.275 216.279 104.214 C 220.393 101.746 229.714 92.15 228.891 90.779 C 228.543 90.199 225.693 91.263 221.888 92.684 C 216.697 94.621 209.728 97.222 204.903 97.222 C 196.541 97.222 187.494 100.512 182.559 106.543 C 180.204 109.422 180.14 113.705 180.071 118.395 C 179.995 123.533 179.912 129.159 176.8 133.961 C 173.679 138.777 169.986 143.066 165.421 148.368 C 161.279 153.177 156.42 158.821 150.616 166.45 C 145.447 173.245 139.54 185.573 136.36 197.842 C 132.034 214.532 131.582 230.88 134.031 230.88 C 136.341 230.88 137.388 224.195 138.638 216.221 Z M 180.365 165.764 C 179.542 163.022 192.046 154.386 194.759 157.539 C 197.471 160.692 188.179 170.151 184.751 170.288 C 181.683 170.411 181.252 168.885 180.605 166.596 C 180.529 166.329 180.451 166.051 180.365 165.764 Z M 201.202 156.169 C 201.202 150.411 215.184 132.042 220.393 132.042 C 225.603 132.042 227.383 137.936 227.383 143.693 C 227.383 149.451 217.789 164.393 210.798 164.393 C 203.806 164.393 201.202 161.926 201.202 156.169 Z" fill="black"/>
  <path d="M 168.027 126.969 C 165.011 124.883 154.593 135.446 159.254 139.244 C 163.915 143.042 171.043 129.055 168.027 126.969 Z" fill="black"/>
</svg>
