<?xml version="1.0" encoding="utf-8"?>
<svg width="256" height="256" viewBox="0 0 256 256" fill="none" xmlns="http://www.w3.org/2000/svg">
  <path fill-rule="evenodd" clip-rule="evenodd" d="M 128 16 C 104.412 16 93.956 24.679 79.573 36.618 C 68.121 46.124 54.18 57.696 29.14 68.6 C 29.14 197.999 128 240 128 240 C 128 240 226.861 197.999 226.861 68.6 C 201.821 57.696 187.88 46.124 176.428 36.618 C 162.044 24.679 151.589 16 128 16 Z M 74.647 101.758 C 74.647 75.578 87.985 70.444 87.985 70.444 C 87.985 70.444 101.323 75.578 101.323 101.758 L 101.323 157.713 L 74.647 157.713 L 74.647 101.758 Z M 74.647 173.11 L 74.647 162.843 L 101.323 162.843 L 101.323 173.11 L 74.647 173.11 Z M 127.988 70.444 C 127.988 70.444 114.65 75.578 114.65 101.758 L 114.65 157.713 L 141.326 157.713 L 141.326 101.758 C 141.326 75.578 127.988 70.444 127.988 70.444 Z M 114.65 162.843 L 141.326 162.843 L 141.326 173.11 L 114.65 173.11 L 114.65 162.843 Z M 168.016 70.444 C 168.016 70.444 154.678 75.578 154.678 101.758 L 154.678 157.713 L 181.354 157.713 L 181.354 101.758 C 181.354 75.578 168.016 70.444 168.016 70.444 Z M 154.678 173.11 L 154.678 162.843 L 181.354 162.843 L 181.354 173.11 L 154.678 173.11 Z" fill="black"/>
</svg>
