<?xml version="1.0" encoding="utf-8"?>
<svg width="256" height="256" viewBox="0 0 256 256" fill="none" xmlns="http://www.w3.org/2000/svg">
  <path d="M 86.01 128.942 C 86.01 128.942 72.121 134.495 72.121 162.816 C 72.121 196.69 72.121 223.346 72.121 220.346 L 99.898 220.346 C 99.898 223.346 99.898 196.69 99.898 162.816 C 99.898 134.495 86.01 128.942 86.01 128.942 Z" fill="black"/>
  <path d="M 99.898 228.895 L 72.121 228.895 L 72.121 240 L 99.898 240 L 99.898 228.895 Z" fill="black"/>
  <path d="M 127.665 128.942 C 127.665 128.942 113.776 134.495 113.776 162.816 C 113.776 196.69 113.776 223.346 113.776 220.346 L 141.554 220.346 C 141.554 223.346 141.554 196.69 141.554 162.816 C 141.554 134.495 127.665 128.942 127.665 128.942 Z" fill="black"/>
  <path d="M 141.554 228.895 L 113.776 228.895 L 113.776 240 L 141.554 240 L 141.554 228.895 Z" fill="black"/>
  <path d="M 169.347 128.942 C 169.347 128.942 155.458 134.495 155.458 162.816 C 155.458 196.69 155.458 223.346 155.458 220.346 L 183.236 220.346 C 183.236 223.346 183.236 196.69 183.236 162.816 C 183.236 134.495 169.347 128.942 169.347 128.942 Z" fill="black"/>
  <path d="M 183.236 228.895 L 155.458 228.895 L 155.458 240 L 183.236 240 L 183.236 228.895 Z" fill="black"/>
  <path d="M 111.455 142.849 C 92.318 124.865 63.489 95.386 57.395 75.789 C 48.1 45.894 62.043 16 89.929 16 C 117.815 16 128.891 38.996 128.891 38.996 C 128.891 38.996 138.186 16 166.072 16 C 193.958 16 207.901 45.894 198.606 75.789 C 192.33 95.974 162.744 126.644 144.188 144.436 C 139.807 130.017 130.169 125.481 128.002 124.626 L 174.756 77.103 L 84.585 77.103 L 127.998 124.625 C 127.718 124.514 127.563 124.465 127.563 124.465 C 127.563 124.465 116.656 127.895 111.455 142.849 Z" fill="black"/>
</svg>
