<?xml version="1.0" encoding="utf-8"?>
<svg width="256px" height="256px" viewBox="0 0 256 256" fill="none" xmlns="http://www.w3.org/2000/svg">
  <path d="M 96.953 199.339 L 72.074 171.574 L 103.172 171.574 L 128.051 199.339 L 103.172 227.105 L 72.074 227.105 L 96.953 199.339 Z" fill="black"/>
  <path d="M 152.929 199.339 L 128.051 171.574 L 159.148 171.574 L 184.026 199.339 L 159.148 227.105 L 128.051 227.105 L 152.929 199.339 Z" fill="black"/>
  <path d="M 208.903 199.389 L 184.025 171.623 L 215.122 171.623 L 240 199.389 L 215.122 227.154 L 184.025 227.154 L 208.903 199.389 Z" fill="black"/>
  <path d="M 16 171.623 L 40.878 199.389 L 16 227.154 L 47.098 227.154 L 71.976 199.389 L 47.098 171.623 L 16 171.623 Z" fill="black"/>
  <path d="M 197.902 42.24 C 197.902 42.24 185.254 28.754 165.424 28.846 C 132.95 28.996 107.393 28.846 107.393 28.846 L 107.393 55.634 C 107.393 55.634 132.948 55.634 165.424 55.634 C 185.698 55.634 197.902 42.24 197.902 42.24 Z" fill="black" style=""/>
  <line style="fill: rgb(216, 216, 216); stroke: rgb(0, 0, 0); stroke-linecap: round; stroke-width: 9px;" x1="42.441" y1="41.612" x2="94.808" y2="41.71"/>
  <path d="M 197.912 136.081 C 197.912 136.081 185.263 122.596 165.434 122.687 C 132.958 122.837 107.403 122.687 107.403 122.687 L 107.403 149.474 C 107.403 149.474 132.958 149.474 165.434 149.474 C 185.708 149.474 197.912 136.081 197.912 136.081 Z" fill="black" style=""/>
  <line style="fill: rgb(216, 216, 216); stroke: rgb(0, 0, 0); stroke-linecap: round; stroke-width: 9px;" x1="42.45" y1="135.453" x2="94.817" y2="135.551"/>
  <path d="M 232.206 88.691 C 232.206 88.691 219.558 75.205 199.727 75.297 C 167.252 75.448 141.697 75.297 141.697 75.297 L 141.697 102.084 C 141.697 102.084 167.251 102.084 199.727 102.084 C 220 102.084 232.206 88.691 232.206 88.691 Z" fill="black" style=""/>
  <line style="fill: rgb(216, 216, 216); stroke: rgb(0, 0, 0); stroke-linecap: round; stroke-width: 9px;" x1="42.529" y1="88.063" x2="130.855" y2="88.221"/>
</svg>