<?xml version="1.0" encoding="utf-8"?>
<svg width="256" height="256" viewBox="0 0 256 256" fill="none" xmlns="http://www.w3.org/2000/svg">
  <path fill-rule="evenodd" clip-rule="evenodd" d="M 107.173 140.458 C 107.552 140.965 108.035 141.667 108.608 142.502 C 112.152 147.657 119.156 157.846 126.64 157.846 C 133.675 157.846 140.711 148.333 144.516 143.188 C 145.414 141.974 146.131 141.003 146.627 140.458 C 147.411 139.597 149.128 138.285 151.145 136.746 L 151.146 136.745 C 155.809 133.185 162.071 128.406 162.071 125.145 C 162.071 120.473 160.384 116.969 158.826 116.317 C 158.138 116.029 157.02 116.831 155.817 117.694 C 154.298 118.784 152.645 119.969 151.559 119.172 L 151.559 103.339 C 151.559 103.339 153.504 81.014 126.64 81.017 C 99.775 81.019 101.592 103.339 101.592 103.339 L 101.592 119.172 C 100.633 119.652 99.276 118.649 97.979 117.69 C 96.82 116.833 95.709 116.012 94.973 116.317 C 93.414 116.963 91.729 120.343 92.248 125.145 C 92.578 128.196 97.416 132.086 101.598 135.45 C 103.996 137.378 106.179 139.134 107.173 140.458 Z M 124.695 125.923 C 124.695 128.778 121.84 130.855 116.13 130.855 C 113.122 130.855 108.796 127.87 106.914 124.236 C 105.705 121.901 106.394 118.266 107.952 118.266 C 108.622 118.266 109.726 118.94 110.983 119.707 C 112.646 120.721 114.577 121.9 116.13 121.9 C 118.855 121.9 124.695 123.068 124.695 125.923 Z M 138.58 130.855 C 132.869 130.855 130.014 128.778 130.014 125.923 C 130.014 123.068 135.854 121.9 138.58 121.9 C 140.132 121.9 142.063 120.721 143.726 119.707 C 144.983 118.94 146.087 118.266 146.757 118.266 C 148.315 118.266 149.005 121.901 147.795 124.236 C 145.913 127.87 141.588 130.855 138.58 130.855 Z M 124.045 114.243 C 124.045 116.035 122.593 117.488 120.801 117.488 C 119.009 117.488 117.556 116.035 117.556 114.243 C 117.556 112.451 119.009 110.998 120.801 110.998 C 122.593 110.998 124.045 112.451 124.045 114.243 Z M 133.26 117.488 C 131.468 117.488 130.015 116.035 130.015 114.243 C 130.015 112.451 131.468 110.998 133.26 110.998 C 135.051 110.998 136.504 112.451 136.504 114.243 C 136.504 116.035 135.051 117.488 133.26 117.488 Z M 124.045 102.563 C 124.045 104.355 122.593 105.807 120.801 105.807 C 119.009 105.807 117.556 104.355 117.556 102.563 C 117.556 100.771 119.009 99.318 120.801 99.318 C 122.593 99.318 124.045 100.771 124.045 102.563 Z M 133.26 105.807 C 131.468 105.807 130.015 104.355 130.015 102.563 C 130.015 100.771 131.468 99.318 133.26 99.318 C 135.051 99.318 136.504 100.771 136.504 102.563 C 136.504 104.355 135.051 105.807 133.26 105.807 Z M 124.045 90.883 C 124.045 92.675 122.593 94.127 120.801 94.127 C 119.009 94.127 117.556 92.675 117.556 90.883 C 117.556 89.091 119.009 87.638 120.801 87.638 C 122.593 87.638 124.045 89.091 124.045 90.883 Z M 133.26 94.127 C 131.468 94.127 130.015 92.675 130.015 90.883 C 130.015 89.091 131.468 87.638 133.26 87.638 C 135.051 87.638 136.504 89.091 136.504 90.883 C 136.504 92.675 135.051 94.127 133.26 94.127 Z" fill="black"/>
  <path d="M 101.204 154.994 C 105.876 154.995 122.358 168.751 122.358 172.903 C 122.358 177.056 119.114 178.614 116.259 183.416 C 113.103 188.723 111.572 195.964 106.785 200.417 C 102.585 204.322 97.336 205.089 92.119 205.089 C 83.648 205.089 77.454 201.585 73.042 193.019 C 69.623 186.383 62.4 182.507 62.4 180.041 C 62.4 177.575 73.782 172.863 83.165 167.323 C 92.245 161.962 98.906 154.993 101.204 154.994 Z" fill="black"/>
  <path d="M 148.443 154.605 C 142.992 154.734 130.793 165.508 130.794 170.049 C 130.795 174.59 137.545 177.967 140.919 183.546 C 144.292 189.126 145.329 199.249 154.154 199.249 C 162.979 199.249 169.34 195.614 174.531 193.798 C 179.722 191.981 199.449 186.789 199.06 184.325 C 198.671 181.86 178.552 175.24 170.505 170.049 C 162.459 164.858 153.894 154.475 148.443 154.605 Z" fill="black"/>
  <path d="M 50.72 180.69 C 55.003 180.82 75.378 204.57 73.691 206.776 C 72.004 208.982 49.422 207.686 44.361 209.631 C 39.299 211.575 31.902 218.975 29.436 218.975 C 26.971 218.975 25.672 216.509 26.452 213.137 C 27.231 209.765 35.146 198.73 40.208 198.73 C 45.269 198.73 54.873 204.44 56.69 201.195 C 58.507 197.951 44.101 193.148 43.971 189.904 C 43.842 186.661 46.437 180.56 50.72 180.69 Z" fill="black"/>
  <path d="M 49.292 239.74 C 60.713 239.74 76.027 234.549 84.982 232.602 C 88.68 231.798 94.948 229.764 101.204 229.098 C 110.095 228.151 120.262 229.225 121.709 227.93 C 124.175 225.724 121.969 198.73 123.137 195.874 C 124.305 193.019 126.252 194.966 126.252 193.019 C 126.252 191.073 121.32 191.073 119.373 192.63 C 117.426 194.187 113.793 210.929 109.38 213.005 C 106.567 214.329 102.891 215.341 93.028 216.12 C 87.474 216.558 79.839 214.669 69.538 214.563 C 41.116 214.27 28.528 225.205 28.528 231.953 C 28.528 238.702 37.872 239.74 49.292 239.74 Z" fill="black"/>
  <path d="M 206.455 240 C 195.035 240 177.386 234.503 168.431 232.557 C 164.732 231.752 158.205 230.283 151.949 229.617 C 143.058 228.67 132.761 228.705 131.314 227.41 C 128.848 225.204 130.276 197.432 130.276 195.745 C 130.276 194.057 130.016 189.126 132.093 189.126 C 134.169 189.126 134.169 190.683 134.688 192.889 C 135.207 195.096 137.023 210.41 141.436 212.486 C 144.249 213.81 150.262 215.731 160.125 215.731 C 165.696 215.731 177.877 215.055 188.156 215.731 C 215.8 217.548 228.258 230.006 228.258 235.068 C 228.259 240.13 217.876 240 206.455 240 Z" fill="black"/>
  <path d="M 210.349 210.28 C 201.005 207.944 164.536 209.501 164.276 205.738 C 164.149 203.888 175.995 200.933 187.638 197.172 C 199.679 193.282 211.557 188.612 213.074 188.48 C 216.059 188.22 217.746 190.425 216.838 193.801 C 215.93 197.177 193.997 199.119 193.088 201.195 C 192.18 203.272 194.904 204.962 198.15 205.092 C 201.395 205.222 210.868 200.679 217.487 200.679 C 224.106 200.679 228.777 205.348 229.686 208.593 C 230.596 211.837 229.817 222.352 227.999 222.223 C 226.181 222.093 219.693 212.616 210.349 210.28 Z" fill="black"/>
  <path d="M 127.29 16 C 129.225 16 130.794 17.569 130.794 19.504 L 130.794 60.774 C 130.794 62.709 129.225 64.278 127.29 64.278 C 125.354 64.278 123.786 62.709 123.786 60.774 L 123.786 19.504 C 123.786 17.569 125.354 16 127.29 16 Z" fill="black"/>
  <path d="M 25.932 118.655 C 25.932 116.72 27.501 115.151 29.436 115.151 L 70.706 115.151 C 72.641 115.151 74.21 116.72 74.21 118.655 C 74.21 120.591 72.641 122.16 70.706 122.16 L 29.436 122.16 C 27.501 122.16 25.932 120.591 25.932 118.655 Z" fill="black"/>
  <path d="M 57.124 42.442 C 58.583 41.17 60.796 41.321 62.068 42.78 L 89.194 73.882 C 90.466 75.341 90.315 77.554 88.857 78.826 C 87.398 80.098 85.185 79.947 83.913 78.489 L 56.787 47.386 C 55.515 45.927 55.666 43.714 57.124 42.442 Z" fill="black"/>
  <path d="M 56.84 152.306 C 55.687 150.751 56.014 148.557 57.568 147.405 L 71.651 136.967 C 73.205 135.814 75.4 136.14 76.552 137.695 C 77.705 139.25 77.378 141.445 75.824 142.597 L 61.741 153.035 C 60.187 154.187 57.992 153.861 56.84 152.306 Z" fill="black"/>
  <path d="M 58.396 88.172 C 59.267 86.444 61.374 85.748 63.102 86.619 L 78.757 94.505 C 80.485 95.376 81.181 97.483 80.31 99.211 C 79.439 100.939 77.333 101.635 75.604 100.764 L 59.949 92.878 C 58.221 92.007 57.526 89.9 58.396 88.172 Z" fill="black"/>
  <path d="M 95.83 47.249 C 97.449 46.189 99.621 46.643 100.681 48.262 L 110.281 62.929 C 111.34 64.548 110.887 66.72 109.268 67.78 C 107.648 68.84 105.477 68.386 104.417 66.767 L 94.817 52.1 C 93.758 50.481 94.211 48.309 95.83 47.249 Z" fill="black"/>
  <path d="M 228.693 118.655 C 228.693 116.72 227.124 115.151 225.189 115.151 L 183.919 115.151 C 181.984 115.151 180.415 116.72 180.415 118.655 C 180.415 120.591 181.984 122.16 183.919 122.16 L 225.189 122.16 C 227.124 122.16 228.693 120.591 228.693 118.655 Z" fill="black"/>
  <path d="M 197.501 42.442 C 196.042 41.17 193.829 41.321 192.557 42.78 L 165.431 73.882 C 164.159 75.341 164.31 77.554 165.768 78.826 C 167.227 80.098 169.44 79.947 170.712 78.489 L 197.838 47.386 C 199.11 45.927 198.959 43.714 197.501 42.442 Z" fill="black"/>
  <path d="M 197.785 152.306 C 198.937 150.751 198.611 148.557 197.057 147.405 L 182.974 136.967 C 181.42 135.814 179.225 136.14 178.073 137.695 C 176.92 139.25 177.246 141.445 178.801 142.597 L 192.883 153.035 C 194.438 154.187 196.633 153.861 197.785 152.306 Z" fill="black"/>
  <path d="M 196.229 88.172 C 195.358 86.444 193.251 85.748 191.523 86.619 L 175.868 94.505 C 174.14 95.376 173.444 97.483 174.315 99.211 C 175.186 100.939 177.292 101.635 179.021 100.764 L 194.676 92.878 C 196.404 92.007 197.099 89.9 196.229 88.172 Z" fill="black"/>
  <path d="M 158.795 47.249 C 157.176 46.189 155.004 46.643 153.944 48.262 L 144.344 62.929 C 143.285 64.548 143.738 66.72 145.357 67.78 C 146.977 68.84 149.148 68.386 150.208 66.767 L 159.808 52.1 C 160.867 50.481 160.414 48.309 158.795 47.249 Z" fill="black"/>
</svg>
