<?xml version="1.0" encoding="utf-8"?>
<svg width="256" height="256" viewBox="0 0 256 256" fill="none" xmlns="http://www.w3.org/2000/svg">
  <path d="M 129.732 58.144 C 141.371 58.144 150.804 48.71 150.804 37.072 C 150.804 25.434 141.371 16 129.732 16 C 118.093 16 108.66 25.434 108.66 37.072 C 108.66 48.71 118.093 58.144 129.732 58.144 Z" fill="black"/>
  <path d="M 98.557 64.495 C 92.339 64.495 87.299 69.535 87.299 75.752 L 87.299 79.505 L 69.114 79.505 L 69.114 85.567 L 117.608 85.567 L 117.608 94.804 L 87.299 94.804 L 87.299 103.752 L 59.588 103.752 L 59.588 112.989 L 105.485 112.989 L 105.485 122.226 L 87.299 122.226 L 87.299 131.175 L 69.114 131.175 L 69.114 140.123 L 108.66 140.123 L 108.66 149.36 L 87.299 149.36 L 87.299 156.577 C 87.299 162.794 92.339 167.834 98.557 167.834 L 102.309 167.834 L 102.309 236.535 C 102.309 238.448 103.861 240 105.773 240 L 120.206 240 C 122.119 240 123.67 238.448 123.67 236.535 L 123.67 158.597 L 135.794 158.597 L 135.794 236.535 C 135.794 238.448 137.345 240 139.258 240 L 153.691 240 C 155.603 240 157.154 238.448 157.154 236.535 L 157.154 167.834 L 160.907 167.834 C 167.124 167.834 172.165 162.794 172.165 156.577 L 172.165 149.649 L 196.412 149.649 L 196.412 140.412 L 156.866 140.412 L 156.866 131.175 L 172.165 131.175 L 172.165 122.226 L 190.35 122.226 L 190.35 112.989 L 147.917 112.989 L 147.917 103.752 L 172.165 103.752 L 172.165 94.804 L 193.525 94.804 L 193.525 88.742 L 160.041 88.742 L 160.041 79.505 L 172.165 79.505 L 172.165 75.752 C 172.165 69.535 167.124 64.495 160.907 64.495 L 98.557 64.495 Z" fill="black"/>
</svg>
