<?xml version="1.0" encoding="utf-8"?>
<svg width="256" height="256" viewBox="0 0 256 256" fill="none" xmlns="http://www.w3.org/2000/svg">
  <path fill-rule="evenodd" clip-rule="evenodd" d="M 69.443 226.463 C 69.443 226.463 109.67 164.148 109.816 161.662 C 109.962 159.175 100.747 151.276 98.113 151.276 C 95.481 151.276 88.606 158.006 86.265 158.006 C 83.925 158.006 81.145 154.349 81.145 153.033 C 81.145 151.716 83.071 149.187 85.241 147.913 C 88.78 145.835 91.677 144.402 91.677 141.184 C 91.677 137.966 87.582 130.945 87.582 125.825 C 87.582 120.706 89.191 110.466 95.773 103.737 C 102.356 97.009 119.908 89.255 119.908 89.255 L 121.956 16.263 C 109.231 14.947 90.215 18.603 85.241 26.356 C 85.241 26.356 107.768 72.434 104.111 76.09 C 100.454 79.747 71.345 31.622 71.345 31.622 C 60.813 34.548 48.818 44.641 43.552 54.588 C 43.552 54.588 88.898 89.255 88.898 92.473 C 88.898 95.691 83.924 104.614 81.438 105.492 C 78.951 106.37 29.948 76.09 29.948 76.09 C 20.733 83.843 16.93 98.178 17.808 110.319 C 17.808 110.319 63.007 122.021 63.007 130.359 C 63.007 138.697 18.244 139.282 18.244 139.282 C 13.254 155.616 17.251 163.026 27.608 175.412 C 27.608 175.412 69.736 152.593 73.539 159.761 C 77.342 166.928 33.752 190.625 33.752 190.625 C 41.368 205.494 51.312 214.723 69.443 226.463 Z M 69.297 180.533 C 72.077 178.338 77.927 175.851 79.975 178.338 C 82.023 180.824 79.975 188.285 77.196 190.041 C 74.417 191.796 65.933 192.819 64.177 190.625 C 62.422 188.43 66.517 182.727 69.297 180.533 Z" fill="black"/>
  <path fill-rule="evenodd" clip-rule="evenodd" d="M 136.584 92.473 L 136.584 16.263 C 166.859 18.818 179.714 24.529 196.997 40.546 C 196.997 40.546 157.063 89.695 157.063 94.376 C 157.063 99.057 161.598 101.251 159.696 105.054 C 157.794 108.857 154.137 106.224 153.26 105.492 C 152.382 104.759 147.555 93.791 136.584 92.473 Z M 149.895 58.392 C 150.188 53.565 153.113 50.932 157.063 50.932 C 161.012 50.932 162.329 55.32 162.329 58.392 C 162.329 61.463 159.842 69.07 155.015 69.07 C 150.188 69.07 149.603 63.219 149.895 58.392 Z" fill="black"/>
  <path fill-rule="evenodd" clip-rule="evenodd" d="M 223.911 70.972 C 219.403 71.459 158.087 118.804 158.087 118.804 C 163.353 128.458 159.696 141.038 153.26 146.597 C 153.26 146.597 185.733 183.458 181.491 187.7 C 177.249 191.942 146.824 156.397 142.289 156.397 C 137.754 156.397 136.292 160.785 135.122 162.248 C 133.951 163.711 118.153 160.932 118.153 164.881 C 118.153 168.831 132.342 169.854 132.342 169.854 L 128.247 239.628 C 146.793 240.789 153.348 239.218 162.768 235.094 C 162.768 235.094 141.704 188.87 149.164 185.067 C 156.624 181.264 176.957 229.682 179.59 229.828 C 182.223 229.974 199.776 215.932 199.776 213.299 C 199.776 210.666 184.417 198.817 188.074 193.99 C 191.731 189.163 203.329 207.138 207.528 207.74 C 213.737 208.63 242.894 152.316 238.1 147.913 C 235.02 145.083 181.491 138.259 181.491 131.384 C 181.491 124.509 237.091 125.937 239.27 124.362 C 242.86 121.768 230.068 70.306 223.911 70.972 Z M 207.528 164.003 C 203.14 161.517 198.606 160.932 196.411 162.979 C 194.217 165.027 196.997 171.609 199.776 173.511 C 202.555 175.414 209.284 176.583 211.185 174.682 C 213.087 172.78 211.917 166.49 207.528 164.003 Z" fill="black"/>
</svg>
