<?xml version="1.0" encoding="utf-8"?>
<svg width="256" height="256" viewBox="0 0 256 256" fill="none" xmlns="http://www.w3.org/2000/svg">
  <path d="M 118.413 18.969 C 119.31 18.553 122.695 16.981 127.164 16.981 C 131.629 16.981 135.012 18.55 135.91 18.967 L 135.937 18.979 C 137.37 19.643 138.593 20.382 139.456 20.937 C 141.223 22.07 143.045 23.447 144.723 24.782 C 148.159 27.517 152.386 31.207 156.965 35.371 C 166.194 43.762 177.735 54.887 188.978 66.121 C 200.22 77.354 211.362 88.893 219.769 98.133 C 223.941 102.718 227.642 106.958 230.386 110.412 C 231.727 112.1 233.111 113.937 234.251 115.723 C 234.809 116.598 235.55 117.832 236.214 119.278 L 236.22 119.291 C 236.641 120.208 238.183 123.566 238.183 128 C 238.183 132.428 236.645 135.782 236.225 136.698 L 236.219 136.712 C 235.557 138.157 234.818 139.391 234.26 140.266 C 233.122 142.051 231.74 143.889 230.401 145.577 C 229.86 146.26 229.281 146.973 228.668 147.714 L 228.668 140.207 C 228.668 138.762 227.497 137.591 226.053 137.591 L 212.501 137.591 C 216.748 132.606 219.293 129.128 219.293 128 C 219.293 121.461 133.558 35.872 127.164 35.872 C 120.77 35.872 34.89 121.606 34.89 128 C 34.89 134.394 120.625 220.129 127.164 220.129 C 129.443 220.129 141.317 209.738 155.825 195.922 L 167.696 210.701 C 163.923 214.281 160.325 217.633 157.021 220.635 C 152.436 224.801 148.196 228.497 144.741 231.237 C 143.053 232.576 141.215 233.958 139.429 235.096 C 138.555 235.654 137.321 236.393 135.875 237.056 L 135.862 237.061 C 134.946 237.482 131.592 239.019 127.164 239.019 C 122.733 239.019 119.376 237.479 118.461 237.059 L 118.446 237.052 C 117.002 236.39 115.768 235.65 114.893 235.092 C 113.107 233.953 111.269 232.571 109.579 231.23 C 106.122 228.487 101.876 224.786 97.285 220.615 C 88.032 212.208 76.474 201.067 65.223 189.825 C 53.971 178.583 42.828 167.042 34.423 157.813 C 30.252 153.234 26.556 149.007 23.817 145.572 C 22.479 143.894 21.1 142.071 19.965 140.305 C 19.41 139.441 18.669 138.217 18.003 136.784 L 17.991 136.757 C 17.573 135.858 16 132.472 16 128 C 16 123.522 17.578 120.132 17.996 119.233 L 18.009 119.206 C 18.676 117.771 19.418 116.548 19.974 115.684 C 21.111 113.918 22.492 112.095 23.832 110.418 C 26.574 106.983 30.276 102.756 34.452 98.177 C 42.868 88.95 54.024 77.41 65.283 66.17 C 76.542 54.929 88.1 43.792 97.341 35.39 C 101.926 31.221 106.159 27.527 109.597 24.789 C 111.276 23.452 113.1 22.075 114.866 20.941 C 115.73 20.386 116.953 19.647 118.385 18.982 L 118.413 18.969 Z" fill="black"/>
  <path fill-rule="evenodd" clip-rule="evenodd" d="M 177.707 137.591 L 203.381 137.591 L 207.491 133.481 C 210.439 130.533 210.439 125.752 207.491 122.804 L 132.36 47.674 C 129.412 44.725 124.632 44.725 121.683 47.674 L 46.838 122.519 C 43.889 125.468 43.889 130.248 46.838 133.197 L 121.968 208.327 C 124.916 211.275 129.697 211.275 132.645 208.327 L 175.091 165.881 L 175.091 140.207 C 175.091 138.762 176.262 137.591 177.707 137.591 Z M 168.724 114.922 L 86.186 114.922 L 86.186 141.078 L 168.724 141.078 L 168.724 114.922 Z" fill="black"/>
  <path d="M 203.381 239.019 L 163.856 188.596 L 183.037 188.596 L 183.037 143.985 L 223.725 143.985 L 223.725 188.596 L 240 188.596 L 203.381 239.019 Z" fill="black"/>
</svg>
