<?xml version="1.0" encoding="utf-8"?>
<svg width="256" height="256" viewBox="0 0 256 256" fill="none" xmlns="http://www.w3.org/2000/svg">
  <path fill-rule="evenodd" clip-rule="evenodd" d="M 131.575 47.593 L 116.69 16.364 L 106.767 51.195 C 82.45 58.446 62.608 76.082 52.391 98.96 L 16 101.149 L 45.56 123.476 C 45.119 127.013 44.894 130.617 44.894 134.274 C 44.894 146.057 47.245 157.29 51.504 167.531 L 34.679 199.212 L 65.939 190.894 C 70.807 196.532 76.389 201.536 82.543 205.765 L 82.543 239.636 L 105.454 216.951 C 106.564 217.301 107.682 217.629 108.81 217.936 L 108.81 239.636 L 117.566 239.636 L 117.566 219.83 C 122.126 220.571 126.805 220.956 131.575 220.956 L 131.867 220.955 L 131.867 239.636 L 140.623 239.636 L 140.623 220.489 C 149.116 219.608 157.247 217.501 164.831 214.347 L 196.367 238.759 L 184.255 203.116 C 193.866 195.75 201.89 186.417 207.727 175.718 L 240 175.718 L 216.043 153.829 C 217.491 147.544 218.257 140.999 218.257 134.274 C 218.257 123.265 216.205 112.734 212.461 103.045 L 235.33 72.692 L 199.04 79.843 C 183.15 60.173 158.832 47.593 131.575 47.593 Z M 117.566 213.125 C 122.115 213.928 126.796 214.347 131.575 214.347 L 131.867 214.346 L 131.867 173.987 C 128.194 171.615 123.073 168.212 117.566 164.259 L 117.566 213.125 Z M 108.81 157.712 C 99.195 150.193 90.072 141.799 86.771 134.944 C 78.719 118.224 85.106 99.623 102.435 97.366 C 119.764 95.108 128.397 107.651 128.397 107.651 C 128.397 107.651 132.421 93.459 149.75 91.201 C 163.219 89.446 173.97 98.931 175.937 111.801 L 175.937 200.945 C 193.57 189.19 206.272 170.627 210.294 149.013 L 188.195 137.339 L 211.469 128.875 C 209.79 103.678 196.458 81.671 176.813 68.196 L 158.134 80.573 L 159.593 59.24 C 150.872 55.983 141.432 54.202 131.575 54.202 C 110.755 54.202 91.791 62.148 77.55 75.173 L 86.191 93.122 L 64.71 90.204 C 56.764 102.238 51.978 116.545 51.536 131.939 L 69.118 143.03 L 54.329 155.434 C 61.618 182.112 82.359 203.235 108.81 211.064 L 108.81 157.712 Z M 140.623 213.841 C 150.072 212.779 159.021 210.072 167.182 206.014 L 167.182 139.767 C 159.005 153.048 146.421 167.63 140.623 174.109 L 140.623 213.841 Z" fill="black"/>
</svg>
