<?xml version="1.0" encoding="utf-8"?>
<svg width="256" height="256" viewBox="0 0 256 256" fill="none" xmlns="http://www.w3.org/2000/svg">
  <path d="M 37.807 83.555 C 30.539 70.058 28.982 17.885 69.993 30.085 C 69.993 30.085 68.167 23.893 56.877 23.59 C 45.586 23.287 27.177 35.415 26.247 64.601 C 25.317 93.787 48.834 109.131 63.634 123.524 C 71.608 131.279 74.787 137.565 74.787 141.698 C 74.787 145.831 73.438 151.477 70.244 155.321 C 68.122 157.874 64.788 158.924 61.938 157.008 C 59.979 155.69 59.798 152.654 60.77 151.038 C 61.852 149.238 65.207 149.481 66.74 147.404 C 68.847 144.55 68.687 138.6 66.74 137.411 C 64.793 136.221 61.307 136.417 58.953 138.449 C 55.018 141.847 52.343 146.504 52.343 154.027 C 52.343 161.55 56.746 167.52 63.236 167.52 C 69.726 167.52 84.261 157.663 84.261 141.698 C 84.261 120.933 45.075 97.053 37.807 83.555 Z" fill="black"/>
  <path d="M 30.405 117.552 C 49.482 128.454 51.041 137.411 51.041 137.411 C 51.041 137.411 53.86 121.576 37.025 112.361 C 20.189 103.147 18.336 60.318 18.336 60.318 C 18.336 60.318 11.327 106.651 30.405 117.552 Z" fill="black"/>
  <path d="M 45.721 138.449 C 45.356 149.702 42.866 157.008 48.057 167.52 C 39.751 156.617 40.27 159.991 40.27 144.417 C 18.85 132.456 16 126.897 16 108.987 C 22.648 122.447 26.773 132.609 45.721 138.449 Z" fill="black"/>
  <path d="M 218.193 83.431 C 225.46 69.934 227.018 17.761 186.007 29.961 C 186.007 29.961 187.834 23.769 199.124 23.466 C 210.414 23.162 228.822 35.291 229.753 64.477 C 230.683 93.663 207.166 109.007 192.367 123.4 C 184.392 131.155 181.214 137.441 181.214 141.574 C 181.214 145.707 182.562 151.352 185.756 155.196 C 187.878 157.75 191.212 158.8 194.062 156.883 C 196.022 155.566 196.202 152.53 195.23 150.914 C 194.148 149.114 190.793 149.357 189.26 147.28 C 187.154 144.425 187.313 138.476 189.26 137.286 C 191.207 136.097 194.694 136.292 197.047 138.325 C 200.983 141.723 203.658 146.38 203.658 153.903 C 203.658 161.426 199.255 167.396 192.764 167.396 C 186.274 167.396 171.739 157.539 171.739 141.574 C 171.739 120.808 210.925 96.929 218.193 83.431 Z" fill="black"/>
  <path d="M 225.596 117.428 C 206.518 128.33 204.959 137.286 204.959 137.286 C 204.959 137.286 202.14 121.452 218.976 112.237 C 235.812 103.022 237.664 60.194 237.664 60.194 C 237.664 60.194 244.673 106.526 225.596 117.428 Z" fill="black"/>
  <path d="M 210.279 138.325 C 210.644 149.578 213.134 156.883 207.943 167.396 C 216.249 156.493 215.73 159.867 215.73 144.293 C 237.15 132.332 240 126.773 240 108.863 C 233.351 122.323 229.228 132.484 210.279 138.325 Z" fill="black"/>
  <path d="M 127.873 208.4 L 127.873 232.539 C 155.906 210.736 165.25 195.151 178.618 171.023 L 162.915 155.189 C 157.284 183.588 144.486 197.628 127.873 208.4 Z" fill="black"/>
  <path d="M 121.903 224.753 L 121.903 208.4 C 103.835 191.167 95.721 180.224 89.977 155.189 L 80.632 165.702 C 85.793 181.092 89.978 189.48 99.711 203.988 C 87.385 192.019 82.388 184.584 75.701 171.023 C 85.016 195.483 90.847 208.955 121.903 224.753 Z" fill="black"/>
  <path d="M 90.755 116.514 C 93.531 170.118 104.649 182.844 126.835 201.262 C 152.129 184.788 159.769 164.55 163.953 115.736 C 163.953 115.736 146.788 108.387 130.209 106.91 L 130.209 158.68 C 121.773 156.487 121.773 105.003 121.773 105.003 C 105.745 106.84 90.755 116.514 90.755 116.514 Z" fill="black"/>
  <path d="M 124.239 99.772 C 115.804 99.772 76.869 103.795 85.824 121.835 C 76.999 109.376 69.471 103.925 56.623 96.268 C 56.623 96.268 67.265 99.772 73.365 99.772 C 76.525 99.772 85.739 92.399 95.038 88.87 C 103.689 85.587 113.114 87.147 115.804 84.458 C 121.384 78.877 124.239 69.922 124.239 69.922 L 124.239 99.772 Z" fill="black"/>
  <path d="M 168.495 121.835 C 175.853 112.942 199.773 94.711 199.773 94.711 C 195.75 96.398 187.833 99.902 182.382 99.772 C 176.931 99.642 151.753 74.465 130.209 76.541 C 144.875 81.862 153.827 82.248 161.098 93.024 C 149.413 85.184 142.941 83.539 130.209 81.862 L 130.209 99.253 C 141.501 97.826 156.945 103.925 165.251 108.468 C 173.557 113.01 168.495 121.835 168.495 121.835 Z" fill="black"/>
</svg>
