<?xml version="1.0" encoding="utf-8"?>
<svg width="256" height="256" viewBox="0 0 256 256" fill="none" xmlns="http://www.w3.org/2000/svg">
  <path fill-rule="evenodd" clip-rule="evenodd" d="M 116.592 127.852 C 116.592 130.802 113.32 132.615 108.536 135.266 C 95.544 142.464 71.404 155.841 71.403 214.964 L 186.07 214.964 C 186.071 156.961 161.389 143.825 147.423 136.393 C 141.912 133.46 138.07 131.415 138.07 127.852 C 138.07 124.225 142.054 121.863 147.726 118.501 C 161.743 110.193 186.07 95.775 186.07 41.037 L 71.403 41.037 C 71.403 98.32 95.364 112.399 108.39 120.053 C 113.253 122.91 116.592 124.872 116.592 127.852 Z M 99.122 88.89 C 103.716 82.666 152.756 83.261 157.201 88.89 C 161.645 94.519 139.557 111.704 127.558 111.704 C 115.56 111.704 94.529 95.113 99.122 88.89 Z M 133.124 165.048 C 130.224 162.108 125.478 162.108 122.578 165.048 L 98.852 189.094 C 94.234 193.775 97.55 201.704 104.125 201.704 L 151.577 201.704 C 158.152 201.704 161.468 193.775 156.85 189.094 L 133.124 165.048 Z" fill="black"/>
  <path d="M 65.777 225.779 C 65.777 223.324 67.766 221.334 70.221 221.334 L 185.777 221.334 C 188.232 221.334 190.222 223.324 190.222 225.779 L 190.222 235.557 C 190.222 238.011 188.232 240 185.777 240 L 70.221 240 C 67.766 240 65.777 238.011 65.777 235.557 L 65.777 225.779 Z" fill="black"/>
  <path d="M 65.777 20.444 C 65.777 17.99 67.766 16 70.221 16 L 185.777 16 C 188.232 16 190.222 17.99 190.222 20.444 L 190.222 30.222 C 190.222 32.677 188.232 34.667 185.777 34.667 L 70.221 34.667 C 67.766 34.667 65.777 32.677 65.777 30.222 L 65.777 20.444 Z" fill="black"/>
</svg>
