<?xml version="1.0" encoding="utf-8"?>
<svg width="256" height="256" viewBox="0 0 256 256" fill="none" xmlns="http://www.w3.org/2000/svg">
  <path d="M 76.67 18.662 C 71.874 18.662 67.079 19.232 62.473 20.371 C 37.782 26.544 17.033 48.765 16.036 80.697 C 15.514 97.695 20.737 111.845 29.141 123.953 C 37.498 136.108 48.846 146.316 60.858 156.477 C 84.884 176.657 111.379 196.267 123.724 226.893 L 127.95 237.337 L 131.986 226.798 C 143.666 196.125 169.306 175.612 193.047 154.958 C 216.788 134.303 238.914 113.032 239.96 80.982 C 241.051 47.009 219.827 25.547 194.614 20.609 C 171.348 16.003 144.568 24.93 127.997 48.006 C 114.94 28.016 95.568 18.709 76.67 18.662 Z M 44.43 59.615 L 82.415 74.809 L 52.027 90.003 L 107.295 101.066 L 127.997 59.615 L 148.699 101.066 L 203.968 90.003 L 173.58 74.809 L 211.565 59.615 L 226.759 97.6 L 145.328 128.938 L 127.997 203.959 L 110.667 128.938 L 29.236 97.6 L 44.43 59.615 Z" fill="black"/>
</svg>
