<?xml version="1.0" encoding="utf-8"?>
<svg width="256" height="256" viewBox="0 0 256 256" fill="none" xmlns="http://www.w3.org/2000/svg">
  <path d="M 189.73 217.341 C 191.201 217.033 192.242 216.339 192.468 215.353 C 192.892 213.503 190.29 211.327 186.655 210.494 C 183.02 209.66 179.73 210.484 179.305 212.334 C 178.97 213.795 180.523 215.459 182.981 216.505 C 180.147 216.711 178.069 217.726 177.699 219.338 C 177.18 221.601 180.201 224.271 184.648 225.673 C 181.747 226.297 179.702 227.678 179.254 229.632 C 178.405 233.332 183.61 237.683 190.88 239.35 C 198.15 241.016 204.73 239.369 205.578 235.669 C 206.413 232.032 201.398 227.765 194.321 226.038 C 195.702 225.551 196.634 224.764 196.87 223.735 C 197.397 221.44 194.281 218.726 189.73 217.341 Z" fill="black"/>
  <path d="M 159.72 129.877 C 167.194 120.703 176.54 112.367 185.604 104.805 C 185.604 104.805 220.833 74.888 216.938 67.368 C 213.044 59.847 207.715 65.381 203.742 63.111 C 199.769 60.841 206.154 51.05 195.37 50.624 C 184.586 50.198 181.606 72.444 175.646 72.192 C 169.686 71.941 170.041 63.112 170.111 61.408 C 170.81 44.381 190.683 16 165.141 16 C 145.264 16 135.237 38.706 110.368 58.569 C 71.637 89.503 33.886 100.712 39.277 109.935 C 44.668 119.158 63.533 103.7 85.676 89.502 C 107.468 75.53 125.291 54.085 131.51 60.158 C 134.28 62.863 118.418 76.702 102.563 86.948 C 82.824 99.704 62.963 108.513 66.805 114.476 C 68.897 117.721 85.638 107.433 101.57 95.887 C 114.908 86.221 127.791 74.865 129.949 77.583 C 132.199 80.415 122.921 88.994 112.07 96.597 C 100.083 104.995 86.396 112.468 89.083 115.608 C 92.073 119.1 105.437 110.882 116.469 102.698 C 124.33 96.867 130.657 90.047 132.787 92.056 C 135.34 94.464 130.192 99.798 124.687 104.805 C 119.155 109.838 110.793 113.476 112.07 115.608 C 112.735 116.717 121.553 116.049 128.672 111.07 C 135.232 106.482 138.747 96.597 144.706 96.597 C 150.666 96.597 150.382 99.293 153.362 99.293 C 156.342 99.293 168.119 94.326 168.119 94.326 C 163.665 100.792 156.923 109.268 151.973 115.868 L 151.973 115.869 L 151.972 115.869 L 151.97 115.871 L 151.968 115.874 C 149.645 118.972 147.327 122.061 145.074 125.12 C 134.632 139.294 121.571 150.826 111.908 157.33 L 111.902 157.334 L 111.898 157.337 L 111.896 157.338 C 108.59 159.53 97.604 164.284 97.311 170.803 C 97.018 177.321 97.335 180.021 99.945 183.07 C 102.542 186.103 106.49 188.186 110.705 189.674 C 114.921 191.163 123.403 190.611 129.389 193.798 C 135.329 196.962 149.462 233.114 174.242 233.665 C 174.556 233.672 174.815 233.417 174.815 233.104 L 174.815 207.114 C 174.815 206.872 174.668 206.66 174.442 206.576 C 159.632 201.017 143.247 172.504 145.074 159.923 C 146.654 149.045 152.244 139.051 159.72 129.877 Z" fill="black"/>
</svg>
