<?xml version="1.0" encoding="utf-8"?>
<svg width="256" height="256" viewBox="0 0 256 256" fill="none" xmlns="http://www.w3.org/2000/svg">
  <path d="M 215.144 26.443 C 213.93 24.745 214.322 22.385 216.018 21.169 C 217.716 19.953 220.078 20.344 221.294 22.042 L 221.326 22.089 C 221.821 22.837 223.199 24.917 223.964 26.187 C 225.527 28.781 227.601 32.501 229.676 37.041 C 233.804 46.075 238.035 58.584 238.035 72.038 C 238.035 80.718 237.144 88.13 236.348 94.765 C 235.966 97.95 235.606 100.956 235.374 103.838 C 234.654 112.867 235 121.899 239.34 134.482 C 240.02 136.456 238.972 138.608 236.998 139.289 C 235.024 139.97 232.871 138.921 232.191 136.947 C 227.455 123.213 227.047 113.112 227.837 103.235 C 228.111 99.805 228.506 96.541 228.907 93.228 C 229.678 86.857 230.471 80.303 230.471 72.038 C 230.471 60.083 226.686 48.694 222.797 40.184 C 220.863 35.951 218.93 32.486 217.486 30.089 C 216.765 28.892 215.555 27.063 215.144 26.443 Z" fill="black"/>
  <path d="M 182.827 21.62 C 181.378 23.124 181.423 25.518 182.927 26.967 C 193.051 36.719 199.426 44.788 203.339 53.69 C 207.245 62.575 208.843 72.62 208.843 86.558 C 208.843 100.376 206.903 110.162 204.93 118.781 C 204.698 119.793 204.464 120.795 204.232 121.792 L 204.229 121.804 C 202.49 129.247 200.827 136.371 200.827 144.638 C 200.827 150.111 203.109 155.222 206.102 159.816 C 209.103 164.422 213.068 168.878 216.891 173.041 C 217.493 173.696 218.091 174.344 218.682 174.985 L 218.696 174.999 C 221.937 178.51 224.979 181.805 227.448 185.03 C 230.403 188.891 232.111 192.127 232.468 194.887 C 232.739 196.958 234.636 198.418 236.705 198.149 C 238.777 197.88 240.237 195.983 239.968 193.912 C 239.344 189.109 236.609 184.556 233.453 180.433 C 230.752 176.905 227.43 173.308 224.198 169.81 L 224.197 169.809 C 223.614 169.177 223.034 168.549 222.461 167.925 C 218.627 163.75 215.058 159.708 212.439 155.688 C 209.812 151.656 208.389 148.013 208.389 144.638 C 208.389 137.296 209.844 131.047 211.592 123.536 C 211.824 122.538 212.062 121.517 212.302 120.469 C 214.337 111.581 216.405 101.176 216.405 86.558 C 216.405 72.062 214.751 60.856 210.262 50.646 C 205.781 40.453 198.619 31.582 188.174 21.52 C 186.67 20.071 184.276 20.116 182.827 21.62 Z" fill="black"/>
  <path d="M 157.516 21.521 C 159.02 20.072 161.414 20.116 162.863 21.62 C 183.323 42.848 194.323 60.984 194.323 88.222 C 194.323 101.878 190.065 115.344 185.657 126.344 C 183.701 131.226 181.684 135.696 179.967 139.499 C 179.744 139.994 179.526 140.477 179.314 140.949 C 177.407 145.184 176.102 148.203 175.595 150.135 C 175.065 152.155 172.999 153.363 170.979 152.833 C 168.959 152.303 167.75 150.236 168.28 148.216 C 168.984 145.535 170.609 141.862 172.418 137.844 C 172.633 137.366 172.853 136.879 173.076 136.384 C 174.796 132.572 176.745 128.253 178.637 123.532 C 182.926 112.827 186.76 100.43 186.76 88.222 C 186.76 63.732 177.19 47.383 157.418 26.867 C 155.969 25.364 156.013 22.97 157.516 21.521 Z" fill="black"/>
  <path d="M 172.579 159.48 C 170.836 160.629 170.354 162.974 171.503 164.718 C 173.73 168.095 175.457 170.078 179.722 173.125 C 181.422 174.339 183.783 173.945 184.997 172.246 C 186.211 170.547 185.818 168.185 184.118 166.971 C 180.634 164.482 179.549 163.183 177.817 160.556 C 176.668 158.812 174.323 158.331 172.579 159.48 Z" fill="black"/>
  <path d="M 192.982 186.431 C 192.003 185.817 190.375 184.828 189.828 184.496 C 188.03 183.433 187.434 181.115 188.496 179.317 C 189.559 177.519 191.878 176.923 193.676 177.986 L 193.688 177.993 L 193.695 177.997 C 194.289 178.358 195.999 179.396 197.001 180.025 C 199.027 181.296 201.81 183.089 204.843 185.179 C 210.797 189.28 218.109 194.789 222.331 199.839 C 224.775 202.762 226.307 206.641 227.311 210.467 C 228.33 214.352 228.889 218.517 229.193 222.285 C 229.497 226.066 229.55 229.534 229.528 232.053 C 229.52 233.019 229.468 234.551 229.431 235.538 L 221.866 235.538 C 221.896 234.741 221.957 233.053 221.966 231.987 C 221.987 229.624 221.936 226.389 221.654 222.892 C 221.372 219.38 220.863 215.691 219.996 212.386 C 219.114 209.024 217.942 206.379 216.529 204.69 C 213.038 200.513 206.511 195.511 200.553 191.406 C 197.631 189.393 194.941 187.66 192.982 186.431 Z" fill="black"/>
  <path d="M 34.129 235.538 C 34.098 234.694 34.043 233.141 34.034 232.138 C 34.014 229.774 34.065 226.54 34.346 223.042 C 34.629 219.531 35.138 215.841 36.005 212.537 C 36.887 209.174 38.059 206.53 39.471 204.84 C 42.963 200.664 49.49 195.661 55.447 191.557 C 58.37 189.544 61.059 187.811 63.019 186.582 C 63.998 185.968 65.626 184.979 66.173 184.647 C 67.97 183.584 68.567 181.265 67.504 179.468 C 66.442 177.67 64.123 177.074 62.325 178.136 L 62.312 178.144 L 62.305 178.148 C 61.711 178.509 60.001 179.547 58.999 180.176 C 56.974 181.447 54.19 183.24 51.157 185.329 C 45.204 189.43 37.892 194.939 33.669 199.989 C 31.225 202.913 29.694 206.791 28.69 210.618 C 27.671 214.502 27.111 218.668 26.808 222.436 C 26.504 226.217 26.45 229.685 26.472 232.204 C 26.48 233.122 26.528 234.551 26.564 235.538 L 34.129 235.538 Z" fill="black"/>
  <path d="M 39.982 21.32 C 41.679 22.535 42.07 24.896 40.856 26.594 C 40.445 27.214 39.236 29.042 38.514 30.24 C 37.071 32.637 35.137 36.102 33.203 40.334 C 29.315 48.845 25.529 60.233 25.529 72.189 C 25.529 80.454 26.322 87.008 27.093 93.378 C 27.495 96.692 27.89 99.956 28.164 103.385 C 28.954 113.262 28.546 123.363 23.81 137.098 C 23.129 139.072 20.977 140.121 19.003 139.44 C 17.029 138.759 15.98 136.607 16.661 134.633 C 21 122.049 21.348 113.018 20.626 103.988 C 20.395 101.107 20.034 98.101 19.652 94.916 C 18.856 88.281 17.967 80.869 17.967 72.189 C 17.967 58.735 22.197 46.226 26.325 37.192 C 28.399 32.652 30.474 28.932 32.036 26.338 C 32.801 25.068 34.179 22.988 34.675 22.24 L 34.706 22.192 C 35.922 20.495 38.284 20.104 39.982 21.32 Z" fill="black"/>
  <path d="M 73.174 21.771 C 74.622 23.275 74.577 25.669 73.073 27.118 C 62.949 36.87 56.574 44.939 52.661 53.84 C 48.755 62.726 47.158 72.771 47.158 86.709 C 47.158 100.526 49.097 110.313 51.071 118.932 C 51.302 119.945 51.537 120.949 51.77 121.947 L 51.771 121.951 L 51.771 121.952 L 51.772 121.954 C 53.51 129.397 55.174 136.522 55.174 144.789 C 55.174 150.262 52.891 155.373 49.898 159.967 C 46.898 164.572 42.932 169.029 39.11 173.191 C 38.505 173.849 37.905 174.499 37.312 175.142 L 37.305 175.15 C 34.064 178.66 31.022 181.955 28.553 185.181 C 25.597 189.042 23.89 192.278 23.531 195.037 C 23.262 197.108 21.365 198.569 19.294 198.3 C 17.223 198.03 15.763 196.133 16.032 194.062 C 16.656 189.26 19.392 184.706 22.548 180.584 C 25.249 177.056 28.572 173.458 31.803 169.959 L 31.805 169.957 C 32.388 169.327 32.967 168.699 33.54 168.076 C 37.374 163.901 40.943 159.859 43.562 155.838 C 46.189 151.807 47.612 148.164 47.612 144.789 C 47.612 137.447 46.157 131.198 44.409 123.686 L 44.408 123.686 L 44.407 123.678 C 44.175 122.683 43.938 121.665 43.699 120.62 C 41.664 111.732 39.595 101.327 39.595 86.709 C 39.595 72.212 41.25 61.007 45.738 50.797 C 50.219 40.603 57.381 31.733 67.827 21.671 C 69.331 20.222 71.725 20.267 73.174 21.771 Z" fill="black"/>
  <path d="M 98.484 21.672 C 96.981 20.222 94.587 20.267 93.138 21.77 C 72.678 42.999 61.678 61.135 61.678 88.373 C 61.678 102.028 65.936 115.495 70.343 126.495 C 72.3 131.377 74.317 135.846 76.033 139.649 L 76.033 139.65 L 76.034 139.65 C 76.257 140.145 76.475 140.628 76.687 141.099 C 78.594 145.334 79.898 148.354 80.405 150.286 C 80.935 152.306 83.002 153.514 85.022 152.984 C 87.042 152.454 88.25 150.387 87.72 148.367 C 87.017 145.686 85.392 142.012 83.583 137.995 C 83.368 137.517 83.148 137.03 82.924 136.534 C 81.204 132.723 79.255 128.403 77.363 123.682 C 73.074 112.978 69.24 100.581 69.24 88.373 C 69.24 63.883 78.81 47.534 98.583 27.018 C 100.032 25.514 99.988 23.121 98.484 21.672 Z" fill="black"/>
  <path d="M 83.421 159.63 C 85.165 160.78 85.647 163.125 84.497 164.869 C 82.271 168.246 80.544 170.228 76.278 173.276 C 74.579 174.489 72.217 174.096 71.003 172.397 C 69.789 170.697 70.183 168.336 71.882 167.122 C 75.366 164.633 76.451 163.334 78.183 160.707 C 79.333 158.963 81.678 158.481 83.421 159.63 Z" fill="black"/>
  <path fill-rule="evenodd" clip-rule="evenodd" d="M 178.593 194.857 C 196.461 205.969 200.914 235.116 200.977 235.538 L 54.872 235.538 C 54.936 235.116 59.388 205.969 77.256 194.857 C 95.255 183.665 110.38 164.003 110.38 164.003 L 110.38 142.217 C 110.38 142.217 102.363 138.29 99.187 134.055 C 97.489 131.791 96.699 127.97 96.007 124.627 C 95.406 121.717 94.879 119.17 93.894 118.325 C 93.045 117.598 91.493 116.701 89.782 115.712 C 87.221 114.232 84.303 112.546 82.852 110.914 C 80.432 108.191 79.373 101.688 79.373 97.453 C 79.373 93.218 82.247 88.226 86.029 88.226 C 89.81 88.226 92.532 92.008 92.532 92.008 L 92.532 67.354 C 92.532 67.354 96.439 36.494 127.622 36.494 C 158.628 36.494 163.317 67.354 163.317 67.354 L 163.317 92.008 C 163.317 92.008 166.04 88.226 169.821 88.226 C 173.602 88.226 176.476 93.218 176.476 97.453 C 176.476 101.688 175.417 108.191 172.997 110.914 C 171.546 112.546 168.629 114.232 166.068 115.712 C 164.356 116.701 162.804 117.598 161.956 118.325 C 160.971 119.17 160.444 121.717 159.842 124.627 C 159.151 127.97 158.36 131.791 156.662 134.055 C 153.486 138.29 145.47 142.217 145.47 142.217 L 145.47 164.003 C 145.47 164.003 160.595 183.665 178.593 194.857 Z M 114.463 109.704 C 110.529 109.704 105.232 103.947 103.271 100.024 C 102.365 98.211 102.366 95.033 102.817 94.579 C 103.268 94.125 108.111 94.428 109.623 95.033 C 112.248 96.083 120.665 101.083 120.665 103.957 C 120.665 106.83 118.397 109.704 114.463 109.704 Z M 141.386 109.704 C 145.32 109.704 150.617 103.947 152.578 100.024 C 153.485 98.211 153.483 95.033 153.032 94.579 C 152.581 94.125 147.738 94.428 146.226 95.033 C 143.601 96.083 135.185 101.083 135.185 103.957 C 135.185 106.83 137.453 109.704 141.386 109.704 Z" fill="#000000d1"/>
</svg>
