<?xml version="1.0" encoding="utf-8"?>
<svg width="256" height="256" viewBox="0 0 256 256" fill="none" xmlns="http://www.w3.org/2000/svg">
  <path d="M 182.124 175.56 C 205.437 152.325 227.87 129.967 235.545 105.161 C 249.834 58.979 228.809 16.297 185.94 16.297 C 164.019 16.297 149.571 25.586 140.686 34.664 C 142.066 35.551 143.374 36.595 144.581 37.797 L 195.557 88.511 C 204.783 97.571 204.783 112.632 195.676 121.81 L 144.7 172.524 C 135.475 181.702 120.454 181.702 111.228 172.524 L 60.253 121.81 C 51.027 112.632 51.027 97.689 60.253 88.511 L 111.11 37.797 C 112.414 36.5 113.834 35.386 115.337 34.456 C 105.74 25.444 90.641 16.297 68.888 16.297 C 26.019 16.297 6.322 58.979 20.612 105.161 C 28.424 130.407 51.175 152.921 75.034 176.53 C 94.818 196.106 115.362 216.436 128.782 239.703 C 141.296 216.253 162.036 195.582 182.124 175.56 Z" fill="black"/>
  <path d="M 121.282 156.639 L 162.322 99.572 C 163.742 97.571 162.914 95.924 160.43 95.806 L 137.248 95.806 L 137.248 54.27 C 137.248 51.799 136.066 51.329 134.528 53.447 L 93.487 110.515 C 91.95 112.632 92.778 114.28 95.38 114.28 L 118.561 114.28 L 118.561 155.816 C 118.561 158.286 119.744 158.757 121.282 156.639 Z" fill="black"/>
</svg>
