<?xml version="1.0" encoding="utf-8"?>
<svg width="256" height="256" viewBox="0 0 256 256" fill="none" xmlns="http://www.w3.org/2000/svg">
  <path d="M 93.593 26.368 L 89.756 16 L 85.92 26.368 L 75.551 30.205 L 85.92 34.041 L 89.756 44.41 L 93.593 34.041 L 103.961 30.205 L 93.593 26.368 Z" fill="black"/>
  <path d="M 151.493 23.376 L 158.576 42.517 L 177.717 49.6 L 158.576 56.683 L 151.493 75.824 L 144.409 56.683 L 125.268 49.6 L 144.409 42.517 L 151.493 23.376 Z" fill="black"/>
  <path d="M 200.72 153.554 C 191.164 184.77 129.051 240 129.051 240 C 129.051 240 65.109 184.77 55.553 153.554 C 45.997 122.338 60.331 91.122 88.999 91.122 C 117.666 91.122 129.052 115.134 129.052 115.134 C 129.052 115.134 138.607 91.122 167.275 91.122 C 195.942 91.122 210.276 122.338 200.72 153.554 Z" fill="black"/>
  <path d="M 47.961 53.424 L 53.347 67.98 L 67.903 73.366 L 53.347 78.751 L 47.961 93.307 L 42.575 78.751 L 28.02 73.366 L 42.575 67.98 L 47.961 53.424 Z" fill="black"/>
  <path d="M 216.615 71.618 L 212.409 60.253 L 208.204 71.618 L 196.839 75.824 L 208.204 80.03 L 212.409 91.395 L 216.615 80.03 L 227.98 75.824 L 216.615 71.618 Z" fill="black"/>
</svg>
