<?xml version="1.0" encoding="utf-8"?>
<svg width="256" height="256" viewBox="0 0 256 256" fill="none" xmlns="http://www.w3.org/2000/svg">
  <path d="M 128.001 16 C 151.073 32.855 166.174 40.977 195.373 52.868 C 195.373 54.014 195.394 55.794 195.418 57.843 C 195.48 63.039 195.562 69.966 195.373 72.698 C 169.389 60.036 150.968 49.815 128.001 33.037 C 109.258 46.317 92.129 57.938 60.629 72.698 C 60.442 69.99 60.522 63.629 60.583 58.733 C 60.608 56.756 60.629 55.018 60.629 53.854 C 92.387 38.976 109.179 29.336 128.001 16 Z" fill="black"/>
  <path d="M 195.371 84.242 C 166.172 72.352 151.071 64.229 127.999 47.375 C 109.177 60.711 92.385 70.351 60.627 85.229 C 60.627 86.392 60.605 88.131 60.581 90.108 C 60.52 95.004 60.44 101.365 60.627 104.073 C 92.127 89.313 109.256 77.692 127.999 64.412 C 150.965 81.19 169.387 91.411 195.371 104.073 C 195.559 101.341 195.477 94.414 195.416 89.218 C 195.392 87.168 195.371 85.389 195.371 84.242 Z" fill="black"/>
  <path fill-rule="evenodd" clip-rule="evenodd" d="M 128.071 84.708 C 151.143 101.577 166.244 109.272 195.442 121.173 C 195.442 210.882 128.071 240 128.071 240 C 128.071 240 60.699 210.882 60.699 121.173 C 92.457 106.282 109.249 98.056 128.071 84.708 Z M 138.046 119.371 L 119.471 119.371 L 119.471 146.444 L 92.322 146.444 L 92.322 166.437 L 119.471 166.437 L 119.471 192.857 L 138.046 192.857 L 138.046 166.437 L 165.194 166.437 L 165.194 146.444 L 138.046 146.444 L 138.046 119.371 Z" fill="black"/>
</svg>
