<?xml version="1.0" encoding="utf-8"?>
<svg width="256" height="256" viewBox="0 0 256 256" fill="none" xmlns="http://www.w3.org/2000/svg">
  <path d="M 119.364 145.697 C 119.364 153.709 112.868 160.205 104.855 160.205 C 96.843 160.205 90.347 153.709 90.347 145.697 C 90.347 137.684 96.843 131.188 104.855 131.188 C 112.868 131.188 119.364 137.684 119.364 145.697 Z" fill="black"/>
  <path d="M 165.21 145.697 C 165.21 153.709 158.714 160.205 150.702 160.205 C 142.689 160.205 136.194 153.709 136.194 145.697 C 136.194 137.684 142.689 131.188 150.702 131.188 C 158.714 131.188 165.21 137.684 165.21 145.697 Z" fill="black"/>
  <path d="M 128.214 159.625 C 126.183 159.625 118.421 170.216 118.928 172.247 C 119.436 174.278 136.194 174.278 136.774 172.247 C 137.354 170.216 130.245 159.625 128.214 159.625 Z" fill="black"/>
  <path fill-rule="evenodd" clip-rule="evenodd" d="M 97.747 108.702 C 106.755 108.702 118.204 96.95 118.204 89.551 C 118.204 82.151 111.094 77.943 111.094 70.398 C 111.094 62.853 116.172 44.428 101.228 44.428 C 83.093 44.428 92.378 90.565 77.145 89.984 C 66.997 89.598 73.662 76.056 62.056 76.056 C 50.449 76.056 52.916 107.975 51.32 114.213 C 49.724 120.451 37.071 137.286 36.667 157.303 C 36.138 183.517 47.914 194.819 54.135 198.946 C 55.666 199.962 57.404 198.599 57.232 196.769 C 56.583 189.865 57.424 178.217 73.795 192.125 C 90.274 206.126 78.379 209.571 71.337 210.418 C 69.523 210.636 68.482 212.646 69.636 214.063 C 75.91 221.765 94.258 240 127.343 240 C 141.531 240 150.852 231.667 162.018 229.555 C 207.285 220.995 225.13 162.816 217.731 157.738 C 210.331 152.66 203.077 172.385 195.678 168.91 C 188.279 165.435 205.966 152.517 205.966 113.635 C 205.966 74.753 191.18 70.978 183.346 70.978 C 161.148 70.978 174.786 87.375 169.418 92.742 C 164.051 98.11 153.169 66.772 143.58 66.917 C 133.992 67.063 133.737 75.197 133.292 88.245 C 132.722 104.928 156.226 98.399 171.727 112.619 C 182.991 122.953 182.331 128.87 182.331 140.475 C 182.331 168.041 155.899 174.715 150.98 183.42 C 146.06 192.125 149.262 200.975 143.168 200.975 C 137.075 200.975 139.967 188.208 134.888 188.208 C 129.81 188.208 132.566 200.975 126.908 200.975 C 121.25 200.975 122.266 188.208 118.204 188.208 C 114.141 188.208 115.592 200.975 110.514 200.975 C 105.436 200.975 105.592 182.337 104.855 181.387 C 104.855 181.387 100.222 175.311 92.233 170.651 C 81.787 164.557 73.227 155.913 73.227 143.375 C 73.227 130.463 82.367 103.042 87.3 103.042 C 92.233 103.042 88.739 108.702 97.747 108.702 Z M 180.299 88.245 C 177.397 90.856 180.818 111.547 189.439 111.602 C 198.06 111.656 198.267 100.928 195.678 93.611 C 193.089 86.294 183.201 85.633 180.299 88.245 Z" fill="black"/>
  <path d="M 65.538 45.879 C 61.911 44.573 53.496 51.827 55.092 57.05 C 56.558 61.851 61.281 63.773 65.538 61.112 C 69.02 58.936 68.605 46.983 65.538 45.879 Z" fill="black"/>
  <path d="M 102.244 31.95 C 97.185 34.047 95.28 25.132 96.295 20.198 C 97.012 16.717 105.373 14.541 106.741 17.152 C 108.337 20.199 108.192 29.484 102.244 31.95 Z" fill="black"/>
  <path d="M 147.945 50.956 C 150.922 50.956 154.082 47.156 154.619 41.961 C 155.49 33.546 148.545 30.151 145.044 32.386 C 138.225 36.738 142.722 50.956 147.945 50.956 Z" fill="black"/>
</svg>
