<?xml version="1.0" encoding="utf-8"?>
<svg width="256" height="256" viewBox="0 0 256 256" fill="none" xmlns="http://www.w3.org/2000/svg">
  <path d="M 166.762 142.679 C 175.343 126.945 185.322 106.175 185.322 94.671 C 185.322 74.492 169.822 60.892 151.104 60.892 C 140.03 60.892 118.309 71.437 102.416 80.049 C 98.194 82.336 93.297 76.958 96.042 73.019 C 105.071 60.058 115.571 44.361 115.571 41.444 C 115.571 39.206 114.648 37.891 113.781 36.654 C 112.665 35.063 111.641 33.603 112.793 30.477 C 114.84 24.92 135.75 16 164.996 16 C 194.242 16 207.988 21.41 218.809 34.132 C 229.63 46.854 230.507 71.128 230.507 81.511 C 230.507 91.893 225.389 120.115 223.049 125.087 C 220.71 130.059 216.908 132.691 212.521 132.691 C 210.205 132.691 208.623 132.283 207.129 131.899 C 205.792 131.555 204.527 131.229 202.87 131.229 C 200.957 131.229 186.797 140.827 174.306 149.562 C 170.089 152.511 164.298 147.197 166.762 142.679 Z" fill="black"/>
  <path d="M 160.072 87.71 C 160.072 87.71 141.038 79.742 113.635 107.612 L 96.331 125.178 C 95.651 125.869 95.66 126.98 96.351 127.66 L 122.311 153.203 C 123.001 153.882 124.111 153.873 124.791 153.184 L 142.096 135.616 C 169.499 107.746 160.072 87.71 160.072 87.71 Z" fill="black"/>
  <path d="M 115.166 164.787 C 116.298 163.636 116.282 161.784 115.13 160.652 L 89.455 135.407 C 88.303 134.274 86.451 134.29 85.319 135.442 L 76.167 144.75 C 75.035 145.902 75.05 147.754 76.202 148.886 L 101.877 174.131 C 103.029 175.263 104.881 175.248 106.013 174.096 L 115.166 164.787 Z" fill="black"/>
  <path d="M 95.057 180.634 C 97.176 182.678 97.218 186.048 95.128 188.121 C 86.3 196.88 64.908 217.931 62.49 218.674 C 59.434 219.613 55.323 217.478 55.284 212.946 C 55.266 210.715 58.597 206.719 61.981 202.662 C 65.472 198.475 69.019 194.222 68.998 191.772 C 68.957 186.947 65.857 183.463 61.909 183.496 C 60.063 183.512 58.55 185.187 56.94 186.972 C 55.106 189.003 53.146 191.175 50.421 191.197 C 45.303 191.241 43.082 187.896 43.046 183.655 C 43.019 180.442 57.078 165.105 63.893 157.861 C 65.884 155.745 69.204 155.691 71.296 157.709 L 95.057 180.634 Z" fill="black"/>
  <path d="M 73.915 58.063 C 71.16 55.308 71.16 50.842 73.915 48.087 L 83.481 38.521 C 86.235 35.766 90.702 35.766 93.457 38.521 C 96.212 41.276 96.212 45.742 93.457 48.497 L 83.891 58.063 C 81.137 60.818 76.67 60.818 73.915 58.063 Z" fill="black"/>
  <path d="M 44.759 118.3 C 42.208 115.355 42.528 110.9 45.472 108.349 L 66.326 90.285 C 69.271 87.734 73.726 88.054 76.277 90.999 C 78.827 93.943 78.508 98.398 75.563 100.949 L 54.71 119.013 C 51.765 121.564 47.31 121.244 44.759 118.3 Z" fill="black"/>
  <path d="M 197.843 172.282 C 195.088 175.037 190.622 175.037 187.867 172.282 C 185.112 169.527 185.112 165.061 187.867 162.306 L 197.432 152.74 C 200.187 149.986 204.654 149.986 207.408 152.74 C 210.163 155.495 210.163 159.962 207.408 162.717 L 197.843 172.282 Z" fill="black"/>
  <path d="M 137.581 200.725 C 135.03 203.67 130.575 203.989 127.63 201.438 C 124.686 198.887 124.366 194.432 126.917 191.487 L 144.981 170.634 C 147.532 167.689 151.987 167.37 154.932 169.921 C 157.876 172.472 158.196 176.927 155.645 179.871 L 137.581 200.725 Z" fill="black"/>
  <path d="M 25.494 201.565 C 25.494 197.527 28.767 194.253 32.805 194.253 C 36.843 194.253 40.117 197.527 40.117 201.565 C 40.117 205.603 36.843 208.876 32.805 208.876 C 28.767 208.876 25.494 205.603 25.494 201.565 Z" fill="black"/>
  <path d="M 34.722 229.294 C 32.273 231.743 32.273 235.714 34.722 238.164 C 37.172 240.612 41.143 240.612 43.592 238.164 L 49.672 232.083 C 52.122 229.634 52.122 225.663 49.672 223.214 C 47.223 220.764 43.252 220.764 40.803 223.214 L 34.722 229.294 Z" fill="black"/>
</svg>
