<?xml version="1.0" encoding="utf-8"?>
<svg width="256" height="256" viewBox="0 0 256 256" fill="none" xmlns="http://www.w3.org/2000/svg">
  <path d="M 87.4 93.996 C 87.157 94.104 86.916 93.844 87.04 93.61 L 99.664 69.957 C 99.768 69.763 99.618 69.532 99.399 69.547 L 17.182 75.274 C 16.88 75.295 16.766 74.888 17.034 74.748 L 130.085 16.033 C 130.337 15.902 130.6 16.187 130.45 16.428 L 116.792 38.36 C 116.669 38.557 116.827 38.809 117.057 38.785 L 238.808 26.062 C 239.124 26.029 239.24 26.465 238.95 26.594 L 87.4 93.996 Z" fill="black"/>
  <path d="M 210.586 106.035 L 45.256 106.035 C 40.734 119.169 37.412 126.453 29.922 139.213 L 210.586 139.213 L 210.586 106.035 Z" fill="black"/>
  <path fill-rule="evenodd" clip-rule="evenodd" d="M 210.864 145.625 L 33.267 145.625 C 33.267 145.625 44.141 155.105 44.141 160.959 C 44.141 166.814 18.351 240 18.351 240 L 67.56 240 C 67.56 240 68.396 221.599 69.79 217.975 C 70.54 216.025 71.896 214.236 73.161 212.566 C 74.248 211.131 75.269 209.783 75.785 208.495 C 76.9 205.707 76.76 197.483 76.76 197.483 L 126.666 197.064 C 127.316 193.576 127.977 190.476 128.596 187.566 C 130.472 178.762 131.975 171.707 131.685 160.959 L 210.864 160.959 L 210.864 145.625 Z M 119.417 189.676 L 79.27 189.676 L 82.476 164.445 C 82.476 164.445 87.913 163.608 90.004 165.56 C 91.341 166.808 90.74 169.026 90.132 171.265 C 89.79 172.526 89.446 173.794 89.446 174.9 C 89.446 177.966 94.186 182.567 94.186 182.567 C 94.186 182.567 93.303 178.525 93.349 174.9 C 93.38 172.522 94.464 169.463 95.719 168.069 C 96.974 166.675 100.319 163.887 122.066 163.887 C 122.066 163.887 124.017 172.948 119.417 189.676 Z" fill="black"/>
</svg>
