<?xml version="1.0" encoding="utf-8"?>
<svg width="256" height="256" viewBox="0 0 256 256" fill="none" xmlns="http://www.w3.org/2000/svg">
  <path d="M 30.931 69.535 C 25.228 134.267 52.625 200.582 123.93 232.946 C 139.102 225.65 152.223 217.478 163.441 208.403 L 167.371 213.463 C 155.411 223.123 141.439 231.743 125.342 239.371 L 124.014 240 L 122.671 239.403 C 46.42 205.51 17.853 134.459 24.809 66.256 L 25.103 63.378 L 27.995 63.378 C 32.035 63.378 37.195 60.963 43.82 56.518 C 47.96 53.741 52.328 50.424 57.057 46.833 L 57.175 46.743 C 58.056 46.074 58.95 45.395 59.857 44.709 L 61.179 43.711 C 62.662 42.593 64.182 41.457 65.741 40.311 C 81.865 28.455 101.502 15.999 123.971 16 C 146.516 16.001 164.132 28.54 179.252 40.37 C 180.707 41.508 182.135 42.637 183.542 43.75 L 183.611 43.805 C 189.607 48.545 195.206 52.972 200.769 56.466 C 207.627 60.773 214.014 63.378 220.416 63.378 L 223.434 63.378 L 223.613 66.391 C 225.179 92.698 223.259 116.515 217.303 137.913 C 215.839 136.918 214.072 136.336 212.168 136.336 L 211.093 136.336 C 216.636 116.497 218.611 94.321 217.376 69.632 C 210.36 68.933 203.737 65.894 197.363 61.891 C 191.476 58.194 185.53 53.491 179.515 48.733 L 179.434 48.668 C 178.061 47.583 176.685 46.495 175.305 45.415 C 160.148 33.556 144.098 22.407 123.971 22.406 C 103.77 22.406 85.627 33.64 69.535 45.472 C 66.698 47.558 63.898 49.684 61.165 51.758 C 56.31 55.443 51.664 58.969 47.388 61.838 C 41.81 65.581 36.239 68.66 30.931 69.535 Z" fill="black"/>
  <path d="M 198.866 136.336 C 204.037 119.633 206.401 100.726 206.401 78.726 L 206.401 75.826 L 203.515 75.539 C 199.321 75.122 194.513 72.739 188.842 68.892 C 185.014 66.295 181.064 63.231 176.841 59.955 C 175.942 59.258 175.031 58.551 174.106 57.837 L 173.646 57.482 L 173.02 57 L 172.262 56.419 C 171.705 55.993 171.143 55.565 170.576 55.135 C 157.523 45.256 142.018 34.951 124.12 34.951 C 106.241 34.951 93.438 43.719 81.66 52.912 C 80.239 54.022 78.834 55.134 77.439 56.24 L 77.389 56.28 C 67.054 64.472 57.193 72.288 44.396 75.627 L 42.166 76.209 L 42.009 78.509 C 37.914 138.838 67.476 189.88 122.571 220.328 L 124.197 221.227 L 125.784 220.261 C 137.165 213.338 147.23 206.289 156.048 198.882 L 152.116 193.819 C 143.966 200.684 134.642 207.285 124.046 213.814 C 72.686 184.766 45.253 137.272 48.263 81.189 C 61.382 77.19 71.737 68.961 81.423 61.263 C 82.828 60.147 84.218 59.042 85.601 57.962 C 97.247 48.872 108.557 41.357 124.12 41.357 C 139.662 41.357 153.623 50.338 166.711 60.244 C 167.373 60.745 168.035 61.25 168.695 61.756 C 169.398 62.296 170.1 62.838 170.8 63.379 L 172.707 64.857 C 177.026 68.206 181.249 71.481 185.246 74.193 C 190.111 77.493 195.056 80.263 199.983 81.424 C 199.788 102.64 197.278 120.61 192.145 136.336 L 198.866 136.336 Z" fill="black"/>
  <path fill-rule="evenodd" clip-rule="evenodd" d="M 188.387 89.136 C 188.387 106.643 186.06 122.245 181.003 136.336 L 176.807 136.336 C 171.758 136.336 167.664 140.43 167.664 145.479 L 167.664 161.882 C 157.455 176.232 143.18 188.876 124.202 200.442 C 80.166 176.953 60.15 128.64 60.15 89.136 C 69.582 89.136 77.833 81.911 86.761 74.093 C 97.286 64.877 108.752 54.837 124.202 54.837 C 139.84 54.837 151.758 65.124 162.539 74.431 C 171.444 82.118 179.574 89.136 188.387 89.136 Z M 89.645 106.715 C 89.645 89.864 98.24 86.56 98.24 86.56 C 98.24 86.56 106.834 89.864 106.834 106.715 L 106.834 142.73 L 89.645 142.73 L 89.645 106.715 Z M 89.645 152.64 L 89.645 146.032 L 106.834 146.032 L 106.834 152.64 L 89.645 152.64 Z M 124.016 86.56 C 124.016 86.56 115.422 89.864 115.422 106.715 L 115.422 142.73 L 132.611 142.73 L 132.611 106.715 C 132.611 89.864 124.016 86.56 124.016 86.56 Z M 132.611 146.032 L 132.611 152.64 L 115.422 152.64 L 115.422 146.032 L 132.611 146.032 Z M 149.809 86.56 C 149.809 86.56 141.215 89.864 141.215 106.715 L 141.215 142.73 L 158.404 142.73 L 158.404 106.715 C 158.404 89.864 149.809 86.56 149.809 86.56 Z M 141.215 152.64 L 141.215 146.032 L 158.404 146.032 L 158.404 152.64 L 141.215 152.64 Z" fill="black"/>
  <path d="M 176.673 145.479 L 176.673 187.16 L 158.387 187.16 L 194.824 234.084 L 232.202 187.16 L 212.034 187.16 L 212.034 145.479 L 176.673 145.479 Z" fill="black"/>
</svg>
