<?xml version="1.0" encoding="utf-8"?>
<svg width="256" height="256" viewBox="0 0 256 256" fill="none" xmlns="http://www.w3.org/2000/svg">
  <path d="M 106.919 49.855 C 105.25 49.855 103.897 51.207 103.897 52.876 L 103.897 67.983 C 103.897 69.652 105.25 71.005 106.919 71.005 L 148.944 71.005 C 150.613 71.005 151.966 69.652 151.966 67.983 L 151.966 52.876 C 151.966 51.207 150.613 49.855 148.944 49.855 L 106.919 49.855 Z" fill="black"/>
  <path fill-rule="evenodd" clip-rule="evenodd" d="M 231.897 38.044 L 163.777 239.519 L 158.283 239.519 C 158.283 239.519 159.622 215.356 155.949 198.867 C 154.573 192.69 150.969 185.12 147.917 178.711 C 145.27 173.151 143.039 168.464 143.039 166.318 C 143.039 157.391 146.198 153.133 149.219 151.623 C 150.243 151.111 152.244 151.119 154.758 151.13 C 159.664 151.15 166.522 151.179 171.88 147.365 C 179.983 141.597 191.245 122.37 187.399 118.524 C 185.762 116.887 180.596 120.949 176 125.528 C 175.287 126.239 174.562 126.978 173.826 127.728 C 168.167 133.492 161.83 139.949 154.713 139.949 C 147.327 139.949 143.415 138.307 139.716 136.755 C 136.4 135.363 133.255 134.043 127.932 134.043 C 122.648 134.043 120.237 135.343 117.676 136.723 C 114.778 138.285 108.943 139.949 101.288 139.949 C 94.648 139.949 90.753 136.306 85.561 131.45 L 85.56 131.45 C 84.751 130.693 83.91 129.906 83.022 129.099 C 81.082 127.337 79.347 125.344 77.784 123.548 C 74.683 119.986 72.257 117.2 70.249 118.524 C 63.794 122.782 80 144.344 84.807 147.365 C 87.532 149.078 93.389 149.643 98.503 150.137 C 102.411 150.514 105.885 150.849 107.193 151.623 C 110.215 153.408 113.099 161.648 113.099 166.318 C 113.099 167.356 111.27 171.558 108.993 176.788 C 105.822 184.072 101.782 193.352 100.601 198.867 C 97.081 215.313 97.992 239.519 97.992 239.519 L 92.224 239.519 L 25.477 38.044 C 25.477 38.044 106.095 16.344 127.657 16.344 C 149.219 16.344 231.897 38.044 231.897 38.044 Z M 128.069 131.434 C 133.075 131.434 137.133 127.376 137.133 122.37 C 137.133 117.363 133.075 113.305 128.069 113.305 C 123.063 113.305 119.005 117.363 119.005 122.37 C 119.005 127.376 123.063 131.434 128.069 131.434 Z M 90.979 66.327 C 88.405 63.753 88.405 59.579 90.979 57.004 L 123.27 24.714 C 125.845 22.139 130.019 22.139 132.593 24.714 L 165.296 57.416 C 167.87 59.991 167.87 64.165 165.296 66.739 L 133.005 99.03 C 130.431 101.605 126.257 101.605 123.682 99.03 L 90.979 66.327 Z" fill="black"/>
  <path d="M 149.219 239.519 C 149.219 239.519 149.768 183.76 127.382 183.76 C 104.996 183.76 107.193 239.519 107.193 239.519 L 149.219 239.519 Z" fill="black"/>
  <path d="M 76.292 239.519 L 19.983 56.035 L 65.03 239.519 L 76.292 239.519 Z" fill="black"/>
  <path d="M 52.395 239.519 L 35.777 183.76 L 40.722 239.519 L 52.395 239.519 Z" fill="black"/>
  <path d="M 29.185 220.429 L 29.185 239.519 L 16.001 239.519 L 29.185 220.429 Z" fill="black"/>
  <path d="M 236.017 56.172 L 179.708 239.656 L 190.97 239.656 L 236.017 56.172 Z" fill="black"/>
  <path d="M 220.223 183.897 L 203.605 239.656 L 215.279 239.656 L 220.223 183.897 Z" fill="black"/>
  <path d="M 226.815 239.656 L 226.815 220.567 L 240 239.656 L 226.815 239.656 Z" fill="black"/>
</svg>
