<?xml version="1.0" encoding="utf-8"?>
<svg width="256" height="256" viewBox="0 0 256 256" fill="none" xmlns="http://www.w3.org/2000/svg">
  <path fill-rule="evenodd" clip-rule="evenodd" d="M 98.453 102.99 C 98.453 102.99 110.684 119.893 127.587 119.893 C 144.489 119.893 155.621 102.99 155.621 102.99 L 155.621 55.167 C 155.621 55.167 152.872 23.561 126.9 23.56 C 100.927 23.559 98.453 55.167 98.453 55.167 L 98.453 102.99 Z M 112.195 55.03 C 109.614 55.03 107.523 57.122 107.523 59.702 C 107.523 62.282 109.614 64.374 112.195 64.374 L 120.715 64.374 C 123.296 64.374 125.387 62.282 125.387 59.702 C 125.387 57.122 123.296 55.03 120.715 55.03 L 112.195 55.03 Z M 149.711 103.127 C 147.662 103.127 146.001 101.466 146.001 99.417 C 146.001 97.368 147.662 95.706 149.711 95.706 C 151.76 95.706 153.421 97.368 153.421 99.417 C 153.421 101.466 151.76 103.127 149.711 103.127 Z M 123.738 112.334 C 123.738 114.384 125.4 116.045 127.449 116.045 C 129.498 116.045 131.159 114.384 131.159 112.334 C 131.159 110.285 129.498 108.624 127.449 108.624 C 125.4 108.624 123.738 110.285 123.738 112.334 Z M 100.926 99.417 C 100.926 101.466 102.587 103.127 104.637 103.127 C 106.686 103.127 108.347 101.466 108.347 99.417 C 108.347 97.368 106.686 95.706 104.637 95.706 C 102.587 95.706 100.926 97.368 100.926 99.417 Z M 130.335 59.702 C 130.335 57.122 132.427 55.03 135.007 55.03 L 143.527 55.03 C 146.108 55.03 148.199 57.122 148.199 59.702 C 148.199 62.282 146.108 64.374 143.527 64.374 L 135.007 64.374 C 132.427 64.374 130.335 62.282 130.335 59.702 Z" fill="black"/>
  <path fill-rule="evenodd" clip-rule="evenodd" d="M 77.153 138.857 L 77.153 106.7 L 92.544 106.7 C 92.544 106.7 104.912 126.077 127.587 126.077 C 150.261 126.077 162.08 106.7 162.08 106.7 L 177.196 106.7 L 177.196 138.857 C 177.196 138.857 196.572 166.891 196.572 169.914 C 196.572 172.938 175.684 232.44 127.312 232.44 C 78.939 232.44 58.051 172.525 58.051 169.914 C 58.051 167.303 77.153 138.857 77.153 138.857 Z M 88.283 112.334 C 88.283 114.384 86.622 116.045 84.573 116.045 C 82.524 116.045 80.863 114.384 80.863 112.334 C 80.863 110.285 82.524 108.624 84.573 108.624 C 86.622 108.624 88.283 110.285 88.283 112.334 Z M 83.474 147.927 C 85.523 147.927 87.184 146.266 87.184 144.216 C 87.184 142.167 85.523 140.506 83.474 140.506 C 81.425 140.506 79.763 142.167 79.763 144.216 C 79.763 146.266 81.425 147.927 83.474 147.927 Z M 65.334 174.586 C 67.383 174.586 69.044 172.925 69.044 170.876 C 69.044 168.827 67.383 167.166 65.334 167.166 C 63.285 167.166 61.624 168.827 61.624 170.876 C 61.624 172.925 63.285 174.586 65.334 174.586 Z M 171.149 147.927 C 169.1 147.927 167.439 146.266 167.439 144.216 C 167.439 142.167 169.1 140.506 171.149 140.506 C 173.198 140.506 174.859 142.167 174.859 144.216 C 174.859 146.266 173.198 147.927 171.149 147.927 Z M 185.578 170.876 C 185.578 172.925 187.239 174.586 189.289 174.586 C 191.338 174.586 192.999 172.925 192.999 170.876 C 192.999 168.827 191.338 167.166 189.289 167.166 C 187.239 167.166 185.578 168.827 185.578 170.876 Z M 170.05 116.045 C 168 116.045 166.339 114.384 166.339 112.334 C 166.339 110.285 168 108.624 170.05 108.624 C 172.099 108.624 173.76 110.285 173.76 112.334 C 173.76 114.384 172.099 116.045 170.05 116.045 Z M 138.855 157.91 C 138.855 142.21 146.55 139.132 146.55 139.132 C 146.55 139.132 154.246 142.21 154.246 157.91 L 154.246 191.464 L 138.855 191.464 L 138.855 157.91 Z M 138.855 194.54 L 154.246 194.54 L 154.246 200.697 L 138.855 200.697 L 138.855 194.54 Z M 127.037 139.132 C 127.037 139.132 119.341 142.21 119.341 157.91 L 119.341 191.464 L 134.732 191.464 L 134.732 157.91 C 134.732 142.21 127.037 139.132 127.037 139.132 Z M 134.732 194.54 L 119.341 194.54 L 119.341 200.697 L 134.732 200.697 L 134.732 194.54 Z M 101.201 157.91 C 101.201 142.21 108.897 139.132 108.897 139.132 C 108.897 139.132 116.593 142.21 116.593 157.91 L 116.593 191.464 L 101.201 191.464 L 101.201 157.91 Z M 101.201 194.54 L 116.593 194.54 L 116.593 200.697 L 101.201 200.697 L 101.201 194.54 Z" fill="black"/>
  <path d="M 186.28 107.111 C 204.68 106.562 240 135.284 240 148.475 C 240 159.332 224.609 163.592 208.256 163.592 C 201.11 163.592 185.58 144.352 185.576 132.258 C 185.576 132.096 185.558 131.546 185.531 130.712 C 185.352 125.179 184.77 107.155 186.28 107.111 Z" fill="black"/>
  <path d="M 16 148.348 C 16 135.156 51.32 106.434 69.72 106.983 C 71.23 107.028 70.648 125.052 70.469 130.584 C 70.442 131.418 70.424 131.968 70.424 132.13 C 70.42 144.225 54.89 163.465 47.744 163.465 C 31.391 163.465 16 159.204 16 148.348 Z" fill="black"/>
</svg>
