<?xml version="1.0" encoding="utf-8"?>
<svg width="256" height="256" viewBox="0 0 256 256" fill="none" xmlns="http://www.w3.org/2000/svg">
  <path d="M 121.302 236.265 C 121.302 236.265 95.02 232.721 91.033 228.734 C 87.047 224.748 88.671 197.58 88.671 197.58 C 88.671 197.58 84.832 204.963 80.255 204.963 C 75.678 204.963 72.429 200.681 72.429 195.661 C 72.429 190.641 87.933 177.943 127.208 177.943 C 166.483 177.943 186.858 191.674 186.858 197.58 C 186.858 203.486 184.053 204.963 180.509 204.963 C 176.966 204.963 171.355 195.661 171.355 195.661 C 171.355 195.661 171.355 222.238 169.583 227.11 C 167.812 231.983 141.235 236.265 141.235 236.265 C 181.395 236.265 227.905 229.03 237.65 205.996 L 237.65 140.44 C 237.65 140.44 230.563 176.319 214.469 176.319 C 198.375 176.319 200.147 150.628 200.147 150.628 C 200.147 150.628 190.993 167.903 184.496 167.903 C 177.999 167.903 166.483 164.507 166.483 164.507 C 166.483 164.507 227.758 187.392 227.758 199.352 C 227.758 211.312 186.858 225.339 186.858 225.339 C 186.858 225.339 183.02 225.339 180.509 221.795 C 177.999 218.251 179.328 213.674 179.328 213.674 C 179.328 213.674 193.207 205.996 193.207 197.58 C 193.207 189.164 174.751 173.661 127.208 173.661 C 79.664 173.661 62.98 187.835 62.98 195.661 C 62.98 203.486 78.483 213.674 78.483 213.674 C 78.483 213.674 81.289 217.218 80.255 220.761 C 79.221 224.305 74.644 225.339 74.644 225.339 C 74.644 225.339 31.973 216.627 30.94 200.681 C 29.906 184.735 95.611 164.507 95.611 164.507 C 95.611 164.507 74.054 167.607 70.805 166.426 C 67.557 165.245 61.208 150.628 61.208 150.628 C 61.208 150.628 56.926 175.138 41.718 175.138 C 26.51 175.138 18.537 140.44 18.537 140.44 L 18.537 205.996 C 44.228 234.493 80.698 238.479 121.302 236.265 Z" fill="black"/>
  <path d="M 99.761 210.674 C 102.725 209.195 115.691 212.493 128.684 212.493 C 141.678 212.493 153.047 208.506 156.886 209.097 C 160.724 209.688 160.281 217.718 157.919 218.99 C 155.556 220.262 143.154 222.386 129.865 222.386 C 116.577 222.386 99.117 222.229 97.53 218.99 C 95.943 215.75 96.797 212.152 99.761 210.674 Z" fill="black"/>
  <path d="M 133.557 157.715 L 133.557 113.567 L 154.818 102.641 L 133.557 157.715 Z" fill="black"/>
  <path d="M 123.516 157.715 L 123.516 113.567 L 102.255 102.641 L 123.516 157.715 Z" fill="black"/>
  <path d="M 102.255 89.353 L 127.208 19.219 L 154.818 86.843 L 127.208 106.037 L 102.255 89.353 Z" fill="black"/>
  <path d="M 64.977 50.538 L 69.968 65.113 L 81.369 69.93 L 70.63 76.083 L 67.427 91.152 L 62.436 76.577 L 51.034 71.76 L 61.774 65.607 L 64.977 50.538 Z" fill="black"/>
  <path d="M 194.954 68.717 L 189.393 83.085 L 177.81 87.448 L 188.299 94.02 L 190.904 109.204 L 196.466 94.837 L 208.049 90.473 L 197.56 83.902 L 194.954 68.717 Z" fill="black"/>
  <path d="M 174.378 113.765 L 170.166 125.145 L 161.339 128.673 L 169.355 133.783 L 171.375 145.748 L 175.587 134.368 L 184.414 130.839 L 176.398 125.73 L 174.378 113.765 Z" fill="black"/>
  <path d="M 83.524 113.752 L 81.394 125.697 L 73.331 130.733 L 82.125 134.342 L 86.232 145.761 L 88.362 133.815 L 96.424 128.779 L 87.631 125.17 L 83.524 113.752 Z" fill="black"/>
  <path d="M 21.949 115.272 L 20.705 122.244 L 16 125.183 L 21.132 127.29 L 23.529 133.955 L 24.773 126.982 L 29.478 124.043 L 24.346 121.936 L 21.949 115.272 Z" fill="black"/>
  <path d="M 234.402 93.433 L 235.572 99.992 L 240 102.757 L 235.17 104.739 L 232.915 111.009 L 231.746 104.449 L 227.319 101.684 L 232.147 99.702 L 234.402 93.433 Z" fill="black"/>
</svg>
