<?xml version="1.0" encoding="utf-8"?>
<svg width="256" height="256" viewBox="0 0 256 256" fill="none" xmlns="http://www.w3.org/2000/svg">
  <path fill-rule="evenodd" clip-rule="evenodd" d="M 197.675 88.188 L 129.258 48.687 L 60.841 88.188 L 60.841 167.189 L 129.258 206.69 L 197.675 167.189 L 197.675 88.188 Z M 90.247 111.442 C 90.247 91.474 100.034 87.559 100.034 87.559 C 100.034 87.559 109.822 91.474 109.822 111.442 L 109.822 154.118 L 90.247 154.118 L 90.247 111.442 Z M 90.247 165.861 L 90.247 158.03 L 109.822 158.03 L 109.822 165.861 L 90.247 165.861 Z M 129.118 87.559 C 129.118 87.559 119.33 91.474 119.33 111.442 L 119.33 154.118 L 138.906 154.118 L 138.906 111.442 C 138.906 91.474 129.118 87.559 129.118 87.559 Z M 119.33 158.03 L 119.33 165.861 L 138.906 165.861 L 138.906 158.03 L 119.33 158.03 Z M 148.414 111.442 C 148.414 91.474 158.202 87.559 158.202 87.559 C 158.202 87.559 167.989 91.474 167.989 111.442 L 167.989 154.118 L 148.414 154.118 L 148.414 111.442 Z M 148.414 165.861 L 148.414 158.03 L 167.989 158.03 L 167.989 165.861 L 148.414 165.861 Z" fill="black"/>
  <path d="M 126.009 32.102 C 74.302 33.821 30.821 76.314 30.821 127.968 C 30.821 142.909 35.926 159.324 43.987 173.772 C 51.587 187.395 61.415 198.561 71.054 204.887 L 77.851 189.192 L 109.142 231.348 L 56.988 237.369 L 65.096 218.644 C 52.065 210.831 39.919 196.903 31.043 180.993 C 22.08 164.927 16 146.036 16 127.968 C 16 67.827 66.323 19.257 125.516 17.289 L 126.009 32.102 Z" fill="black"/>
  <path d="M 225.178 127.968 C 225.178 95.634 210.259 66.683 187.466 50.83 L 179.735 67.823 L 149.22 25.102 L 201.475 20.035 L 193.611 37.322 L 193.711 37.168 C 222.171 55.735 240 90.296 240 127.968 C 240 189.129 190.419 238.71 129.258 238.71 L 129.258 223.888 C 182.233 223.888 225.178 180.944 225.178 127.968 Z" fill="black"/>
</svg>
