<?xml version="1.0" encoding="utf-8"?>
<svg width="256" height="256" viewBox="0 0 256 256" fill="none" xmlns="http://www.w3.org/2000/svg">
  <path d="M 188.667 16 C 114.799 66.976 75.802 54.065 26.291 16 C 29.352 47.677 72.741 111.297 135.03 87.472 C 101.623 123.005 70.612 101.581 29.219 53.4 C 50.381 161.34 189.466 134.588 199.981 27.047 C 136.893 89.868 100.691 105.573 50.381 47.677 C 96.965 85.077 149.138 76.958 188.667 16 Z" fill="black"/>
  <path d="M 197.984 78.555 C 193.418 89.729 189.378 95.348 178.419 103.976 C 181.484 140.285 174.773 159.299 160.451 189.823 C 160.451 189.823 160.717 240 169.635 240 C 178.552 240 211.027 185.564 196.254 111.297 C 211.027 122.876 211.427 157.215 208.366 186.762 C 227.398 169.326 249.256 154.792 197.984 78.555 Z" fill="black"/>
</svg>
