<?xml version="1.0" encoding="utf-8"?>
<svg width="256" height="256" viewBox="0 0 256 256" fill="none" xmlns="http://www.w3.org/2000/svg">
  <path d="M 218.909 186.128 C 218.564 186.117 218.218 186.112 217.87 186.112 C 209.278 186.112 201.48 189.505 195.74 195.025 L 195.74 192.531 C 195.74 189.568 195.038 186.645 193.688 184.002 C 179.596 156.39 170.892 141.215 155.036 114.935 L 155.036 114.934 C 149.685 106.068 138.16 103.216 129.293 108.566 C 120.425 113.917 117.577 125.442 122.924 134.307 L 122.925 134.308 C 134.983 154.294 142.646 167.429 151.829 184.76 L 123.247 184.76 L 106.702 157.471 L 106.701 157.47 C 104.171 153.296 100.113 150.274 95.39 149.045 L 61.157 140.134 C 61.032 140.094 60.872 140.044 60.684 139.986 C 60.229 139.845 59.594 139.653 58.866 139.445 C 57.522 139.062 55.473 138.513 53.601 138.211 L 53.165 138.138 L 53.15 138.136 C 52.922 138.097 52.559 138.035 52.138 137.98 L 52.135 137.979 L 52.131 137.979 C 51.572 137.905 51.019 137.856 50.385 137.817 L 50.083 137.798 L 49.781 137.798 C 39.424 137.798 31.03 146.193 31.03 156.549 C 31.03 165.382 37.128 172.767 45.332 174.767 L 78.578 183.421 L 94.139 209.086 L 24.953 209.086 C 22.174 209.086 19.537 209.69 17.165 210.775 L 16.169 210.775 L 16.169 16 C 115.64 26.202 176.492 54.81 218.909 186.128 Z" fill="black"/>
  <path d="M 134.355 116.788 C 138.588 114.233 144.092 115.594 146.647 119.829 C 162.418 145.968 171.002 160.936 184.963 188.293 C 185.607 189.553 185.943 190.948 185.943 192.363 L 185.943 236.623 L 24.953 236.623 C 20.008 236.623 16 232.614 16 227.669 C 16 222.725 20.008 218.716 24.953 218.716 L 104.857 218.716 L 104.857 207.697 L 84.894 174.773 L 47.713 165.095 C 43.765 164.161 40.828 160.614 40.828 156.381 C 40.828 151.436 44.836 147.428 49.781 147.428 C 50.256 147.458 50.575 147.488 50.855 147.525 C 51.089 147.556 51.294 147.591 51.539 147.633 L 52.019 147.712 C 54.571 148.122 58.425 149.38 58.425 149.38 L 92.922 158.359 C 95.178 158.946 97.115 160.389 98.323 162.382 L 117.73 194.39 L 167.97 194.39 C 154.858 168.792 146.528 154.295 131.314 129.079 C 128.76 124.845 130.121 119.342 134.355 116.788 Z" fill="black"/>
  <path d="M 217.87 240 C 230.092 240 240.001 230.093 240.001 217.871 C 240.001 205.649 230.092 195.742 217.87 195.742 C 205.648 195.742 195.74 205.649 195.74 217.871 C 195.74 230.093 205.648 240 217.87 240 Z" fill="black"/>
</svg>
