<?xml version="1.0" encoding="utf-8"?>
<svg width="256" height="256" viewBox="0 0 256 256" fill="none" xmlns="http://www.w3.org/2000/svg">
  <path d="M 45.023 18.621 L 19.068 18.621 L 76.091 68.74 L 45.023 18.621 Z" fill="black"/>
  <path d="M 16 35.114 L 16 46.749 L 45.023 60.813 L 16 35.114 Z" fill="black"/>
  <path d="M 187.067 106.968 C 187.067 115.023 183.617 127.808 181.697 127.808 C 180.909 127.808 180.918 124.535 180.929 120.692 C 180.946 115.172 180.965 108.48 178.628 108.63 C 174.665 108.886 173.9 123.845 173.9 131.388 C 173.9 133.555 174.221 136.222 174.555 138.984 C 175.383 145.838 176.281 153.27 172.493 155.042 C 164.566 158.749 152.42 153.379 151.781 131.388 C 151.658 127.157 152.811 121.141 153.843 115.751 L 153.845 115.741 C 155.057 109.413 156.102 103.951 154.722 103.26 C 152.165 101.982 144.238 121.416 144.238 131.388 C 144.238 134.464 144.87 137.782 145.482 140.995 C 146.855 148.201 148.126 154.876 141.936 157.087 C 132.986 160.284 122.502 141.233 122.502 132.411 C 122.502 129.6 124.196 124.258 125.914 118.841 C 128.339 111.201 130.809 103.413 128.639 102.366 C 124.931 100.576 114.368 130.238 114.575 138.292 C 114.641 140.837 115.545 143.713 116.434 146.539 C 118.358 152.656 120.207 158.534 113.297 160.284 C 103.196 162.841 94.631 141.617 94.886 135.863 C 94.986 133.617 96.548 128.349 98.229 122.684 L 98.241 122.645 L 98.265 122.565 L 98.274 122.539 C 100.891 113.736 103.775 104.036 101.915 103.26 C 98.846 101.982 86.886 133.086 87.087 140.083 C 87.142 142.022 87.697 144.271 88.266 146.577 C 89.75 152.591 91.331 158.996 84.4 161.306 C 74.812 164.503 66.502 138.42 66.246 131.388 C 65.991 124.356 80.31 87.407 83.379 88.43 C 84.886 88.932 82.753 94.122 80.587 99.396 C 78.343 104.859 76.062 110.411 77.753 110.932 C 79.168 111.367 81.137 107.197 83.435 102.33 C 86.538 95.757 90.241 87.915 93.988 88.43 C 97.45 88.905 99.614 90.641 101.514 92.166 C 103.193 93.513 104.667 94.694 106.645 94.694 C 108.558 94.694 110.235 92.908 112.068 90.955 C 114.279 88.599 116.718 86 120.073 86 C 123.341 86 125.085 88.465 126.717 90.77 C 128.149 92.794 129.493 94.694 131.705 94.694 C 133.836 94.694 135.553 92.929 137.44 90.989 C 139.74 88.624 142.292 86 146.155 86 C 149.687 86 151.251 88.194 152.809 90.377 C 154.351 92.541 155.886 94.694 159.322 94.694 C 162.894 94.694 164.687 92.367 166.418 90.121 C 168.032 88.025 169.593 86 172.493 86 C 178.502 86 187.067 101.726 187.067 106.968 Z" fill="black"/>
  <path d="M 16 111.699 L 16 119.498 L 46.94 121.927 L 16 111.699 Z" fill="black"/>
  <path d="M 16 138.804 L 16 127.808 L 54.995 127.808 L 16 138.804 Z" fill="black"/>
  <path d="M 33.644 237.379 L 16 237.379 L 16 223.827 L 77.498 178.183 L 33.644 237.379 Z" fill="black"/>
  <path d="M 184 191.991 L 213.151 237.379 L 227.854 237.379 L 227.854 230.987 L 184 191.991 Z" fill="black"/>
  <path d="M 211.617 203.243 L 237.954 211.937 L 237.954 225.617 L 211.617 203.243 Z" fill="black"/>
  <path d="M 70.082 206.183 L 57.808 237.379 L 46.94 237.379 L 70.082 206.183 Z" fill="black"/>
  <path d="M 125.443 18.621 L 139.379 18.621 L 128.639 68.74 L 125.443 18.621 Z" fill="black"/>
  <path d="M 207.653 18.621 L 217.114 18.621 L 194.996 49.434 L 207.653 18.621 Z" fill="black"/>
  <path d="M 240 18.621 L 240 40.612 L 192.566 73.854 L 232.201 18.621 L 240 18.621 Z" fill="black"/>
  <path d="M 240 133.434 L 240 121.927 L 198.831 128.959 L 240 133.434 Z" fill="black"/>
  <path d="M 126.977 181.124 C 128.782 182.778 135.583 180.806 142.154 178.901 C 146.757 177.567 151.246 176.265 153.827 176.265 C 156.912 176.265 161.796 177.444 166.754 178.64 C 171.861 179.873 177.045 181.124 180.418 181.124 C 187.067 181.124 188.603 175.882 188.603 170 C 188.603 164.119 185.026 145.197 182.594 145.197 C 181.426 145.197 181.527 149.204 181.636 153.54 C 181.754 158.238 181.882 163.321 180.418 164.119 C 179.141 164.815 175.892 164.09 171.41 163.091 C 166.013 161.886 158.826 160.284 151.142 160.284 C 137.078 160.284 123.909 178.311 126.977 181.124 Z" fill="black"/>
  <path d="M 119.942 237.379 L 131.705 237.379 L 126.977 199.918 L 119.942 237.379 Z" fill="black"/>
  <path d="M 154.722 237.379 L 143.598 237.379 L 142.32 211.937 L 154.722 237.379 Z" fill="black"/>
  <path d="M 55.89 65.416 C 55.89 66.404 55.089 67.206 54.1 67.206 C 53.111 67.206 52.31 66.404 52.31 65.416 C 52.31 64.427 53.111 63.626 54.1 63.626 C 55.089 63.626 55.89 64.427 55.89 65.416 Z" fill="black"/>
  <path d="M 203.69 200.174 C 204.679 200.174 205.48 199.373 205.48 198.384 C 205.48 197.395 204.679 196.594 203.69 196.594 C 202.701 196.594 201.9 197.395 201.9 198.384 C 201.9 199.373 202.701 200.174 203.69 200.174 Z" fill="black"/>
</svg>
