<?xml version="1.0" encoding="utf-8"?>
<svg width="256" height="256" viewBox="0 0 256 256" fill="none" xmlns="http://www.w3.org/2000/svg">
  <path d="M 49.246 29.478 C 47.224 29.478 45.585 31.117 45.585 33.139 L 45.585 46.737 L 31.726 46.737 C 29.704 46.737 28.065 48.376 28.065 50.398 L 28.065 65.303 C 28.065 67.325 29.704 68.964 31.726 68.964 L 45.585 68.964 L 45.585 82.562 C 45.585 84.583 47.224 86.223 49.246 86.223 L 64.151 86.223 C 66.172 86.223 67.812 84.583 67.812 82.562 L 67.812 68.964 L 81.148 68.964 C 83.17 68.964 84.809 67.325 84.809 65.303 L 84.809 50.398 C 84.809 48.376 83.17 46.737 81.148 46.737 L 67.812 46.737 L 67.812 33.139 C 67.812 31.117 66.172 29.478 64.151 29.478 L 49.246 29.478 Z" fill="black"/>
  <path d="M 190.714 156.826 C 188.693 156.826 187.053 158.465 187.053 160.487 L 187.053 174.085 L 173.194 174.085 C 171.173 174.085 169.533 175.724 169.533 177.746 L 169.533 192.651 C 169.533 194.673 171.173 196.312 173.194 196.312 L 187.053 196.312 L 187.053 209.909 C 187.053 211.931 188.693 213.57 190.714 213.57 L 205.619 213.57 C 207.641 213.57 209.28 211.931 209.28 209.909 L 209.28 196.312 L 222.617 196.312 C 224.638 196.312 226.278 194.673 226.278 192.651 L 226.278 177.746 C 226.278 175.724 224.638 174.085 222.617 174.085 L 209.28 174.085 L 209.28 160.487 C 209.28 158.465 207.641 156.826 205.619 156.826 L 190.714 156.826 Z" fill="black"/>
  <path fill-rule="evenodd" clip-rule="evenodd" d="M 218.284 96.85 C 214.951 88.254 206.091 76.056 193.01 66.417 C 179.924 56.773 162.593 49.674 142.317 51.314 L 142.098 51.332 L 142.077 51.551 C 141.819 54.358 140.523 58.955 138.507 64.482 C 136.494 70.001 133.772 76.425 130.678 82.874 C 124.484 95.784 116.82 108.753 110.387 114.796 C 110.331 114.849 110.301 114.924 110.305 115 C 110.309 115.077 110.346 115.148 110.408 115.195 C 116.72 120.011 124.189 128.422 130.476 136.751 C 136.767 145.085 141.844 153.294 143.399 157.698 L 143.538 158.092 L 143.832 157.795 C 149.874 151.665 166.75 137.644 183.239 130.13 C 191.544 126.346 199.099 120.067 205.174 113.75 C 211.249 107.432 215.857 101.062 218.264 97.079 L 218.331 96.969 L 218.284 96.85 Z M 153.582 77.855 C 153.582 80.888 151.124 83.346 148.091 83.346 C 145.058 83.346 142.599 80.888 142.599 77.855 C 142.599 74.822 145.058 72.363 148.091 72.363 C 151.124 72.363 153.582 74.822 153.582 77.855 Z M 134.624 109.234 C 137.729 109.234 140.246 106.717 140.246 103.612 C 140.246 100.507 137.729 97.99 134.624 97.99 C 131.519 97.99 129.001 100.507 129.001 103.612 C 129.001 106.717 131.519 109.234 134.624 109.234 Z" fill="black"/>
  <path d="M 194.113 18.365 C 186.564 17.959 175.831 18.134 167.735 18.267 C 164.526 18.319 161.73 18.365 159.712 18.365 C 159.449 18.365 159.157 18.477 158.86 18.646 C 158.557 18.818 158.219 19.065 157.858 19.371 C 157.136 19.984 156.297 20.854 155.419 21.889 C 153.66 23.962 151.723 26.722 150.21 29.484 C 148.703 32.235 147.596 35.028 147.544 37.153 C 147.518 38.222 147.757 39.158 148.386 39.827 C 149.017 40.498 149.996 40.853 151.345 40.853 C 159.999 40.853 167.931 43.68 174.966 46.522 C 175.94 46.916 176.898 47.31 177.839 47.697 C 180.287 48.705 182.617 49.664 184.81 50.436 C 187.846 51.506 190.651 52.228 193.184 52.228 C 195.78 52.228 198.38 50.571 200.753 48.122 C 203.133 45.666 205.326 42.37 207.107 38.998 C 208.889 35.625 210.266 32.162 211.01 29.364 C 211.381 27.965 211.598 26.722 211.623 25.734 C 211.636 25.24 211.601 24.8 211.509 24.432 C 211.418 24.065 211.265 23.751 211.026 23.532 C 210.435 22.993 209.378 22.423 208.079 21.869 C 206.772 21.311 205.193 20.758 203.535 20.262 C 200.223 19.271 196.569 18.498 194.113 18.365 Z" fill="black"/>
  <path d="M 225.231 33.793 C 224.214 33.793 223.383 34.343 222.655 35.197 C 221.929 36.047 221.277 37.231 220.614 38.571 C 220.34 39.125 220.064 39.708 219.779 40.308 C 218.676 42.63 217.445 45.22 215.739 47.495 C 213.828 50.044 211.465 52.281 209.4 54.235 C 209.116 54.503 208.837 54.767 208.566 55.025 C 207.452 56.088 206.46 57.067 205.748 57.957 C 205.043 58.836 204.569 59.679 204.568 60.465 C 204.568 61.241 205.001 61.927 205.645 62.58 C 206.29 63.235 207.187 63.896 208.189 64.617 C 208.295 64.694 208.403 64.771 208.512 64.849 L 208.514 64.85 C 210.469 66.254 212.8 67.928 214.698 70.304 C 216.268 72.269 217.574 74.663 218.802 76.915 C 219.216 77.674 219.622 78.417 220.025 79.121 C 220.819 80.508 221.609 81.75 222.444 82.647 C 223.278 83.543 224.191 84.131 225.231 84.131 C 227.411 84.131 229.417 82.675 231.191 80.63 C 232.973 78.576 234.568 75.874 235.923 73.269 C 236.207 72.722 236.493 72.2 236.769 71.689 C 237.506 70.334 238.198 69.059 238.747 67.608 C 239.51 65.596 240 63.24 240 59.812 C 240 54.477 237.886 50.018 235.928 45.969 C 235.791 45.691 235.66 45.415 235.527 45.142 C 234.023 42.025 232.706 39.298 231.228 37.308 C 229.612 35.133 227.769 33.793 225.231 33.793 Z" fill="black"/>
  <path d="M 102.198 122.57 C 101.282 122.57 99.984 123.03 98.448 123.8 C 96.9 124.575 95.072 125.686 93.081 127.032 C 89.099 129.724 84.448 133.367 80.062 137.18 C 75.676 140.993 71.548 144.981 68.611 148.365 C 67.143 150.055 65.967 151.603 65.205 152.906 C 64.824 153.558 64.543 154.157 64.382 154.688 C 64.222 155.216 64.173 155.702 64.291 156.113 C 64.403 156.508 64.689 156.972 65.097 157.488 C 65.508 158.008 66.062 158.602 66.735 159.255 C 68.082 160.562 69.923 162.122 72.105 163.835 C 76.47 167.261 82.217 171.31 88.146 175.186 C 94.075 179.062 100.19 182.768 105.291 185.506 C 107.842 186.875 110.143 188.004 112.043 188.792 C 113.931 189.574 115.46 190.036 116.449 190.036 C 118.379 190.036 120.511 189.259 122.612 187.947 C 124.716 186.633 126.808 184.771 128.661 182.572 C 132.363 178.179 135.146 172.401 135.146 166.894 C 135.146 165.492 134.729 163.752 134.003 161.794 C 133.276 159.832 132.232 157.632 130.962 155.306 C 128.421 150.652 124.964 145.472 121.297 140.635 C 117.631 135.799 113.749 131.297 110.354 128.003 C 108.657 126.356 107.076 125.005 105.701 124.064 C 104.339 123.132 103.134 122.57 102.198 122.57 Z" fill="black"/>
  <path d="M 87.625 120.629 C 80.001 120.629 74.965 122.024 67.203 124.742 C 63.321 126.102 59.905 127.595 57.454 129.016 C 56.23 129.726 55.237 130.423 54.546 131.083 C 53.867 131.732 53.43 132.393 53.43 133.03 C 53.43 135.145 53.793 138.014 54.504 140.362 C 54.859 141.535 55.306 142.594 55.85 143.366 C 56.39 144.134 57.063 144.666 57.876 144.666 C 58.108 144.666 58.373 144.576 58.653 144.44 C 58.939 144.301 59.268 144.1 59.635 143.849 C 60.369 143.346 61.277 142.624 62.331 141.743 C 63.312 140.925 64.424 139.965 65.646 138.91 L 65.927 138.666 C 67.261 137.515 68.722 136.256 70.285 134.946 C 76.543 129.702 79.789 124.45 87.725 121.132 C 87.84 121.084 87.905 120.962 87.881 120.839 C 87.856 120.717 87.749 120.629 87.625 120.629 Z" fill="black"/>
  <path d="M 27.944 172.056 C 29.228 167.262 30.601 158.413 33.746 151.014 C 35.318 147.315 36.896 143.93 38.248 141.51 C 38.923 140.302 39.548 139.324 40.093 138.667 C 40.365 138.339 40.499 138.166 40.747 137.999 C 40.99 137.834 42.961 137.925 43.234 137.999 C 43.621 138.102 44.102 138.63 44.509 138.987 C 44.92 139.348 45.352 139.821 45.786 140.365 C 46.656 141.454 47.557 142.852 48.357 144.276 C 49.157 145.701 49.862 147.161 50.338 148.377 C 50.576 148.985 50.759 149.537 50.868 149.996 C 50.974 150.442 51.022 150.847 50.945 151.132 C 50.902 151.295 50.785 151.474 50.644 151.654 C 50.496 151.841 50.297 152.058 50.056 152.3 C 49.574 152.785 48.907 153.388 48.104 154.086 C 47.168 154.9 46.04 155.849 44.793 156.898 L 44.792 156.899 C 43.9 157.649 42.948 158.449 41.964 159.287 C 37.227 163.317 31.831 167.846 28.403 172.283 C 28.327 172.382 28.192 172.413 28.08 172.358 C 27.969 172.302 27.912 172.176 27.944 172.056 Z" fill="black"/>
  <path d="M 65.236 169.577 L 55.47 160.186 L 33.772 182.751 C 31.179 185.448 31.263 189.736 33.96 192.33 C 36.657 194.923 40.945 194.839 43.539 192.142 L 65.236 169.577 Z" fill="black"/>
  <path d="M 79.134 180.88 L 72.221 174.232 L 53.347 193.861 C 51.511 195.77 51.57 198.805 53.479 200.641 C 55.389 202.477 58.424 202.417 60.26 200.509 L 79.134 180.88 Z" fill="black"/>
  <path d="M 93.289 191.083 L 86.376 184.436 L 71.105 200.316 C 69.269 202.225 69.33 205.261 71.238 207.097 C 73.147 208.933 76.183 208.873 78.018 206.964 L 93.289 191.083 Z" fill="black"/>
  <path d="M 103.564 193.875 L 110.477 200.523 L 97.155 214.377 C 95.32 216.286 92.284 216.346 90.375 214.51 C 88.466 212.674 88.406 209.639 90.242 207.729 L 103.564 193.875 Z" fill="black"/>
  <path d="M 25.423 198.062 C 25.494 198.011 25.586 197.997 25.668 198.027 L 38.614 202.734 C 38.734 202.778 38.805 202.903 38.781 203.029 L 38.78 203.032 L 38.772 203.075 C 38.767 203.104 38.758 203.148 38.746 203.206 C 38.723 203.322 38.69 203.492 38.645 203.712 C 38.556 204.15 38.424 204.782 38.254 205.561 C 37.915 207.119 37.422 209.264 36.81 211.612 C 35.588 216.295 33.881 221.82 31.95 225.079 C 29.904 228.533 26.733 231.504 23.774 233.318 C 22.295 234.225 20.855 234.851 19.623 235.098 C 18.402 235.342 17.316 235.226 16.634 234.544 C 15.947 233.858 15.883 232.826 16.136 231.639 C 16.391 230.444 16.984 229.006 17.732 227.413 C 18.179 226.463 18.681 225.455 19.205 224.403 C 20.45 221.907 21.817 219.165 22.851 216.357 C 24.319 212.369 24.937 207.853 25.187 204.326 C 25.312 202.564 25.344 201.052 25.346 199.981 C 25.346 199.446 25.339 199.021 25.332 198.731 C 25.328 198.585 25.324 198.473 25.322 198.398 C 25.32 198.361 25.319 198.332 25.318 198.313 L 25.318 198.292 L 25.317 198.287 L 25.317 198.286 L 25.317 198.285 C 25.313 198.198 25.353 198.114 25.423 198.062 Z" fill="black"/>
  <path d="M 45.045 205.248 C 45.115 205.201 45.203 205.19 45.283 205.219 L 54.174 208.487 C 54.277 208.526 54.346 208.624 54.345 208.735 L 54.345 208.745 L 54.344 208.775 C 54.344 208.801 54.343 208.84 54.343 208.891 C 54.341 208.993 54.338 209.142 54.333 209.335 C 54.323 209.72 54.303 210.277 54.269 210.965 C 54.199 212.341 54.067 214.244 53.814 216.349 C 53.311 220.546 52.327 225.596 50.387 228.87 C 48.347 232.313 45.609 235.219 43.073 236.971 C 42.561 237.325 42.056 237.633 41.564 237.888 L 36.601 237.888 C 36.081 237.266 35.953 236.529 36.086 235.694 C 36.231 234.792 36.683 233.753 37.283 232.57 C 37.577 231.99 37.909 231.371 38.264 230.71 C 39.369 228.649 40.698 226.172 41.809 223.155 C 43.279 219.161 44.061 214.738 44.474 211.308 C 44.681 209.594 44.795 208.13 44.857 207.096 C 44.889 206.579 44.907 206.169 44.918 205.888 C 44.923 205.748 44.926 205.641 44.928 205.568 C 44.929 205.532 44.93 205.505 44.93 205.486 L 44.931 205.466 L 44.931 205.46 C 44.931 205.46 44.931 205.459 45.192 205.464 L 44.931 205.459 C 44.933 205.375 44.975 205.296 45.045 205.248 Z" fill="black"/>
  <path d="M 88.508 237.888 C 89.859 235.082 90.967 231.898 91.787 229.207 C 92.317 227.464 92.729 225.923 93.007 224.818 C 93.146 224.265 93.253 223.821 93.324 223.515 C 93.36 223.362 93.387 223.244 93.405 223.163 C 93.414 223.123 93.421 223.092 93.425 223.072 L 93.43 223.048 L 93.432 223.04 C 93.46 222.912 93.389 222.783 93.266 222.738 L 81.76 218.555 C 81.676 218.524 81.581 218.539 81.51 218.594 C 81.439 218.649 81.402 218.737 81.411 218.827 L 81.411 218.828 L 81.411 218.831 L 81.413 218.846 C 81.414 218.859 81.416 218.879 81.418 218.906 C 81.423 218.96 81.429 219.04 81.436 219.145 C 81.45 219.356 81.467 219.668 81.479 220.067 C 81.501 220.866 81.501 222.016 81.409 223.416 C 81.225 226.217 80.673 230.016 79.203 234.007 C 78.709 235.349 78.152 236.647 77.579 237.888 L 88.508 237.888 Z" fill="black"/>
  <path d="M 66.755 237.888 C 67.557 236.905 68.301 235.852 68.952 234.754 C 70.884 231.494 72.231 226.818 73.095 222.978 C 73.527 221.054 73.84 219.332 74.045 218.092 C 74.147 217.471 74.223 216.971 74.273 216.625 C 74.298 216.453 74.316 216.318 74.329 216.227 C 74.335 216.182 74.339 216.147 74.342 216.124 L 74.346 216.097 L 74.347 216.09 L 74.347 216.088 C 74.362 215.968 74.294 215.854 74.182 215.811 L 62.415 211.235 C 62.332 211.202 62.237 211.215 62.165 211.268 C 62.093 211.322 62.053 211.408 62.06 211.498 L 62.1 211.495 C 62.06 211.498 62.06 211.498 62.06 211.498 L 62.06 211.499 L 62.06 211.504 L 62.062 211.525 L 62.064 211.562 L 62.067 211.609 C 62.072 211.683 62.078 211.793 62.085 211.937 C 62.1 212.224 62.117 212.643 62.128 213.172 C 62.151 214.23 62.151 215.725 62.058 217.47 C 61.873 220.964 61.32 225.445 59.852 229.431 C 58.685 232.6 57.215 235.176 56.005 237.297 C 55.89 237.499 55.777 237.696 55.667 237.888 L 66.755 237.888 Z" fill="black"/>
</svg>
