<?xml version="1.0" encoding="utf-8"?>
<svg width="256" height="256" viewBox="0 0 256 256" fill="none" xmlns="http://www.w3.org/2000/svg">
  <path d="M 77.208 77.208 C 77.208 71.928 81.488 67.648 86.767 67.648 C 92.047 67.648 96.327 71.928 96.327 77.208 L 96.327 114.303 C 96.327 119.583 92.047 123.862 86.767 123.862 C 81.488 123.862 77.208 119.583 77.208 114.303 L 77.208 77.208 Z" fill="black"/>
  <path d="M 104.316 77.208 C 104.316 71.928 108.596 67.648 113.875 67.648 C 119.155 67.648 123.435 71.928 123.435 77.208 L 123.435 114.303 C 123.435 119.583 119.155 123.862 113.875 123.862 C 108.596 123.862 104.316 119.583 104.316 114.303 L 104.316 77.208 Z" fill="black"/>
  <path d="M 130.569 72.743 C 130.569 69.93 134.848 67.648 140.128 67.648 C 145.407 67.648 149.687 69.93 149.687 72.743 L 149.687 98.752 L 130.569 98.752 L 130.569 72.743 Z" fill="black"/>
  <path d="M 155.965 71.918 C 155.965 69.56 160.245 67.648 165.524 67.648 C 170.803 67.648 175.083 69.56 175.083 71.918 L 175.083 101.748 C 170.66 96.183 164.953 95.755 155.965 95.755 L 155.965 71.918 Z" fill="black"/>
  <path d="M 167.236 105.315 L 136.703 105.315 C 131.582 105.315 127.43 109.467 127.43 114.588 C 127.43 119.71 131.582 123.862 136.703 123.862 L 146.263 123.862 C 146.263 123.862 159.674 125.146 159.674 130.425 C 159.674 133.49 154.659 135.978 148.76 138.307 C 144.498 139.99 140.446 141.591 139.129 143.266 C 138.002 144.7 135.233 148.454 133.85 153.111 C 131.38 161.427 130.221 171.288 126.288 171.088 C 120.153 170.776 119.497 162.73 122.579 153.824 C 124.722 147.63 129.207 141.934 132.171 138.17 C 134.048 135.787 135.315 134.178 134.991 133.707 C 133.422 131.424 124.862 130.425 112.306 130.425 C 99.751 130.425 92.474 131.995 87.053 137.417 C 81.631 142.838 78.492 155.964 78.492 164.953 C 78.492 173.941 83.343 185.926 87.053 189.636 C 87.981 190.564 89.017 191.261 90.049 191.782 L 90.049 233.437 C 90.049 237.062 92.987 240 96.612 240 L 155.394 240 C 159.019 240 161.957 237.062 161.957 233.437 L 161.957 192.39 C 164.98 191.152 169.854 188.776 171.944 185.641 C 175.083 180.933 176.51 172.515 176.51 164.953 L 176.51 114.588 C 176.51 109.467 172.358 105.315 167.236 105.315 Z" fill="black"/>
  <path d="M 53.239 119.012 C 53.239 124.37 50.875 128.713 47.96 128.713 C 45.044 128.713 42.681 124.37 42.681 119.012 C 42.681 113.653 45.044 109.31 47.96 109.31 C 50.875 109.31 53.239 113.653 53.239 119.012 Z" fill="black"/>
  <path d="M 211.037 108.454 C 211.037 113.812 208.674 118.155 205.758 118.155 C 202.843 118.155 200.479 113.812 200.479 108.454 C 200.479 103.095 202.843 98.752 205.758 98.752 C 208.674 98.752 211.037 103.095 211.037 108.454 Z" fill="black"/>
  <path d="M 235.578 199.195 C 235.578 206.129 233.597 211.75 231.154 211.75 C 228.712 211.75 226.732 206.129 226.732 199.195 C 226.732 192.261 228.712 186.639 231.154 186.639 C 233.597 186.639 235.578 192.261 235.578 199.195 Z" fill="black"/>
  <path d="M 28.413 188.922 C 28.413 195.857 26.433 201.478 23.99 201.478 C 21.547 201.478 19.567 195.857 19.567 188.922 C 19.567 181.988 21.547 176.367 23.99 176.367 C 26.433 176.367 28.413 181.988 28.413 188.922 Z" fill="black"/>
  <path d="M 16.856 49.101 C 16.857 52.12 19.399 126.314 20.498 158.253 C 20.557 159.975 23.106 160.166 23.4 158.468 C 28.149 131.057 38.652 73.498 43.109 73.498 C 48.958 73.498 48.102 81.345 52.953 81.345 C 57.804 81.345 57.6 65.444 68.648 49.101 C 75.151 39.479 85.798 30.699 97.436 23.962 C 100.72 22.061 99.4 16 95.605 16 L 55.238 16 C 55.238 16 41.738 16.999 30.127 26.986 C 18.516 36.973 16.855 45.248 16.856 49.101 Z" fill="black"/>
  <path d="M 239.145 49.101 C 239.144 52.12 236.602 126.314 235.503 158.253 C 235.444 159.975 232.895 160.166 232.6 158.468 C 227.852 131.057 217.349 73.498 212.892 73.498 C 207.043 73.498 207.899 81.345 203.048 81.345 C 198.197 81.345 198.401 65.444 187.353 49.101 C 180.85 39.479 170.203 30.699 158.565 23.962 C 155.281 22.061 156.601 16 160.396 16 L 200.763 16 C 200.763 16 214.262 16.999 225.874 26.986 C 237.485 36.973 239.145 45.248 239.145 49.101 Z" fill="black"/>
</svg>
