<?xml version="1.0" encoding="utf-8"?>
<svg width="256" height="256" viewBox="0 0 256 256" fill="none" xmlns="http://www.w3.org/2000/svg">
  <path d="M 89.502 75.621 C 90.474 76.593 92.05 76.593 93.022 75.621 L 99.157 69.486 L 105.33 75.659 C 106.302 76.631 107.878 76.631 108.85 75.659 L 111.458 73.051 C 112.43 72.079 112.43 70.503 111.458 69.531 L 105.285 63.358 L 111.57 57.073 C 112.542 56.101 112.542 54.525 111.57 53.553 L 108.961 50.945 C 107.99 49.973 106.414 49.973 105.442 50.945 L 99.157 57.23 L 92.911 50.983 C 91.938 50.011 90.363 50.011 89.391 50.983 L 86.782 53.591 C 85.811 54.563 85.811 56.139 86.782 57.111 L 93.029 63.358 L 86.894 69.493 C 85.922 70.465 85.922 72.041 86.894 73.013 L 89.502 75.621 Z" fill="black"/>
  <path d="M 147.966 75.696 C 146.994 76.668 145.418 76.668 144.446 75.696 L 141.838 73.088 C 140.866 72.116 140.866 70.54 141.838 69.568 L 147.973 63.433 L 141.726 57.186 C 140.754 56.214 140.754 54.638 141.726 53.666 L 144.334 51.058 C 145.307 50.086 146.882 50.086 147.854 51.058 L 154.101 57.305 L 160.386 51.02 C 161.357 50.048 162.933 50.048 163.905 51.02 L 166.513 53.628 C 167.486 54.6 167.486 56.176 166.513 57.148 L 160.229 63.433 L 166.402 69.606 C 167.374 70.578 167.374 72.154 166.402 73.126 L 163.794 75.734 C 162.822 76.706 161.246 76.706 160.274 75.734 L 154.101 69.561 L 147.966 75.696 Z" fill="black"/>
  <path fill-rule="evenodd" clip-rule="evenodd" d="M 72.138 18.212 C 60.683 18.212 51.397 27.498 51.397 38.953 L 51.397 89.007 C 51.397 100.462 60.683 109.748 72.138 109.748 L 182.202 109.748 C 193.657 109.748 202.943 100.462 202.943 89.007 L 202.943 38.953 C 202.943 27.498 193.657 18.212 182.202 18.212 L 72.138 18.212 Z M 93.155 33.698 C 81.7 33.698 72.415 42.984 72.415 54.439 L 72.415 71.032 C 72.415 82.487 81.7 91.773 93.155 91.773 L 161.185 91.773 C 172.64 91.773 181.926 82.487 181.926 71.032 L 181.926 54.439 C 181.926 42.984 172.64 33.698 161.185 33.698 L 93.155 33.698 Z" fill="black"/>
  <path d="M 28.721 45.313 L 42.548 45.313 L 42.548 82.647 L 28.721 82.647 L 28.721 45.313 Z" fill="black"/>
  <path d="M 225.067 45.313 L 211.516 45.313 L 211.239 82.647 L 225.067 82.647 L 225.067 45.313 Z" fill="black"/>
  <path fill-rule="evenodd" clip-rule="evenodd" d="M 16 173.353 C 16 145.861 38.286 123.575 65.778 123.575 L 190.222 123.575 C 217.714 123.575 240 145.861 240 173.353 L 240 237.788 L 16 237.788 L 16 173.353 Z M 150.953 161.919 C 150.953 138.647 166.301 134.084 166.301 134.084 C 166.301 134.084 181.649 138.647 181.649 161.919 L 181.649 204.049 L 150.953 204.049 L 150.953 161.919 Z M 150.953 225.343 L 150.953 210.686 L 181.649 210.686 L 181.649 225.343 L 150.953 225.343 Z M 126.479 134.084 C 126.479 134.084 111.131 138.647 111.131 161.919 L 111.131 204.049 L 141.827 204.049 L 141.827 161.919 C 141.827 138.647 126.479 134.084 126.479 134.084 Z M 111.131 210.686 L 111.131 225.343 L 141.827 225.343 L 141.827 210.686 L 111.131 210.686 Z M 72.138 161.919 C 72.138 138.647 87.486 134.084 87.486 134.084 C 87.486 134.084 102.834 138.647 102.834 161.919 L 102.834 204.049 L 72.138 204.049 L 72.138 161.919 Z M 72.138 225.343 L 72.138 210.686 L 102.834 210.686 L 102.834 225.343 L 72.138 225.343 Z" fill="black"/>
</svg>
