<?xml version="1.0" encoding="utf-8"?>
<svg width="256" height="256" viewBox="0 0 256 256" fill="none" xmlns="http://www.w3.org/2000/svg">
  <path d="M 30.687 28.868 C 26.303 36.562 22.82 44.796 20.347 53.412 C 13.623 76.837 14.724 101.816 23.482 124.559 C 32.239 147.302 48.176 166.568 68.874 179.434 L 73.314 172.291 C 54.17 160.392 39.43 142.572 31.329 121.537 C 23.229 100.502 22.212 77.398 28.431 55.732 C 31.171 46.186 35.249 37.149 40.497 28.868 L 30.687 28.868 Z" fill="black"/>
  <path d="M 189.405 28.868 L 177.516 28.868 C 186.132 36.538 192.889 46.137 197.2 56.942 C 202.782 70.935 204.002 86.291 200.696 100.99 C 197.391 115.689 189.716 129.042 178.683 139.29 L 184.382 145.438 C 196.656 134.037 205.194 119.184 208.87 102.832 C 212.547 86.48 211.192 69.397 204.981 53.831 C 201.297 44.597 196.006 36.154 189.405 28.868 Z" fill="black"/>
  <path d="M 78.479 28.868 L 66.589 28.868 C 59.542 36.648 53.995 45.739 50.3 55.687 C 44.463 71.397 43.517 88.507 47.584 104.766 C 51.652 121.025 60.542 135.67 73.086 146.773 L 78.636 140.49 C 67.36 130.509 59.368 117.345 55.712 102.729 C 52.055 88.114 52.906 72.732 58.153 58.61 C 62.413 47.142 69.409 36.941 78.479 28.868 Z" fill="black"/>
  <path d="M 215.504 28.868 L 225.314 28.868 C 229.805 36.75 233.348 45.195 235.83 54.037 C 242.419 77.5 241.174 102.473 232.283 125.164 C 223.395 147.856 207.346 167.029 186.574 179.775 L 182.176 172.607 C 201.389 160.818 216.232 143.085 224.454 122.097 C 232.676 101.109 233.828 78.012 227.735 56.31 C 224.995 46.553 220.859 37.318 215.504 28.868 Z" fill="black"/>
  <path d="M 113.828 225.215 L 172.568 143.789 C 174.599 140.935 173.415 138.584 169.86 138.416 L 136.681 138.416 L 136.681 79.15 C 136.681 75.625 134.988 74.953 132.788 77.975 L 74.048 159.403 C 71.847 162.425 73.032 164.775 76.756 164.775 L 109.935 164.775 L 109.935 224.042 C 109.935 227.565 111.628 228.237 113.828 225.215 Z" fill="black"/>
  <path d="M 181.285 90.859 C 179.856 101.325 175.409 111.146 168.489 119.121 L 161.902 113.393 C 167.709 106.701 171.44 98.459 172.64 89.676 C 173.839 80.893 172.455 71.95 168.656 63.943 C 164.855 55.936 158.805 49.212 151.247 44.593 C 143.688 39.975 134.948 37.663 126.097 37.941 C 117.245 38.218 108.666 41.074 101.411 46.157 C 94.157 51.24 88.539 58.33 85.248 66.56 C 81.957 74.79 81.134 83.801 82.88 92.492 C 84.628 101.182 88.867 109.174 95.082 115.49 L 88.867 121.619 C 81.461 114.094 76.409 104.57 74.326 94.214 C 72.245 83.859 73.226 73.121 77.148 63.314 C 81.069 53.507 87.763 45.059 96.408 39.001 C 105.054 32.944 115.276 29.542 125.823 29.211 C 136.371 28.88 146.785 31.635 155.792 37.138 C 164.8 42.641 172.009 50.654 176.536 60.196 C 181.065 69.737 182.714 80.393 181.285 90.859 Z" fill="black"/>
</svg>
