<?xml version="1.0" encoding="utf-8"?>
<svg width="256" height="256" viewBox="0 0 256 256" fill="none" xmlns="http://www.w3.org/2000/svg">
  <path d="M 58.391 42.225 C 59.874 43.712 59.871 46.12 58.383 47.604 C 39.432 66.501 26.013 92.225 23.899 120.385 C 21.792 148.455 30.891 179.26 57.519 208.53 C 58.933 210.084 58.819 212.489 57.266 213.903 C 55.712 215.316 53.306 215.203 51.893 213.649 C 23.957 182.942 14.04 150.113 16.314 119.816 C 18.581 89.608 32.941 62.231 53.012 42.217 C 54.5 40.734 56.908 40.737 58.391 42.225 Z" fill="black"/>
  <path d="M 71.356 60.997 C 72.808 59.478 72.753 57.071 71.235 55.619 C 69.716 54.168 67.309 54.222 65.857 55.741 C 46.02 76.494 35.318 100.276 35.028 125.213 C 34.738 150.136 44.851 175.722 65.717 200.104 C 67.082 201.7 69.483 201.887 71.079 200.521 C 72.675 199.155 72.862 196.754 71.496 195.158 C 51.552 171.852 42.37 147.994 42.634 125.301 C 42.898 102.623 52.602 80.617 71.356 60.997 Z" fill="black"/>
  <path d="M 84.467 76.115 C 85.866 74.548 85.73 72.144 84.163 70.745 C 82.595 69.346 80.191 69.482 78.792 71.049 C 58.781 93.465 52.118 114.667 54.033 134.348 C 55.932 153.855 66.201 171.208 78.713 186.174 C 80.06 187.785 82.459 188 84.07 186.652 C 85.682 185.305 85.896 182.906 84.549 181.295 C 72.479 166.858 63.29 150.93 61.604 133.611 C 59.936 116.465 65.562 97.292 84.467 76.115 Z" fill="black"/>
  <path fill-rule="evenodd" clip-rule="evenodd" d="M 172.153 117.109 L 138.657 83.936 C 132.596 77.933 122.726 77.933 116.664 83.936 L 83.246 117.109 C 77.184 123.112 77.184 132.887 83.246 138.891 L 116.741 172.064 C 122.803 178.067 132.673 178.067 138.735 172.064 L 172.231 138.891 C 178.215 132.887 178.215 123.036 172.153 117.109 Z M 150.315 124.344 L 123.347 161.673 C 122.337 163.059 121.56 162.75 121.56 161.135 L 121.56 133.965 L 106.327 133.965 C 104.618 133.965 104.074 132.887 105.084 131.502 L 132.052 94.173 C 133.062 92.787 133.839 93.095 133.839 94.712 L 133.839 121.881 L 149.071 121.881 C 150.704 121.958 151.247 123.036 150.315 124.344 Z" fill="black"/>
  <path d="M 197.617 47.604 C 196.129 46.12 196.126 43.712 197.61 42.225 C 199.092 40.737 201.501 40.734 202.989 42.217 C 223.061 62.231 237.419 89.608 239.687 119.816 C 241.96 150.113 232.044 182.942 204.108 213.649 C 202.695 215.203 200.29 215.316 198.734 213.903 C 197.181 212.489 197.068 210.084 198.481 208.53 C 225.11 179.26 234.208 148.455 232.101 120.385 C 229.988 92.225 216.568 66.501 197.617 47.604 Z" fill="black"/>
  <path d="M 184.766 55.619 C 183.248 57.071 183.193 59.478 184.645 60.997 C 203.399 80.617 213.103 102.623 213.367 125.301 C 213.631 147.994 204.448 171.852 184.505 195.158 C 183.139 196.754 183.326 199.155 184.922 200.521 C 186.517 201.887 188.918 201.7 190.285 200.104 C 211.15 175.722 221.262 150.136 220.972 125.213 C 220.682 100.276 209.982 76.494 190.144 55.741 C 188.692 54.222 186.284 54.168 184.766 55.619 Z" fill="black"/>
  <path d="M 171.838 70.745 C 170.271 72.144 170.135 74.548 171.534 76.115 C 190.44 97.292 196.065 116.465 194.397 133.611 C 192.711 150.93 183.521 166.858 171.452 181.295 C 170.105 182.906 170.319 185.305 171.931 186.652 C 173.542 188 175.941 187.785 177.288 186.174 C 189.8 171.208 200.069 153.855 201.967 134.348 C 203.884 114.667 197.219 93.465 177.208 71.049 C 175.809 69.482 173.405 69.346 171.838 70.745 Z" fill="black"/>
</svg>
