<?xml version="1.0" encoding="utf-8"?>
<svg width="256" height="256" viewBox="0 0 256 256" fill="none" xmlns="http://www.w3.org/2000/svg">
  <path d="M 82.835 71.604 C 69.412 63.633 53.887 71.604 48.988 83.212 C 48.986 69.367 61.861 55.66 79.338 58.317 C 95.567 -11.334 195.849 11.743 183.96 78.598 C 205.22 68.528 225.355 87.129 210.67 106.849 C 247.174 124.753 226.059 164.054 216.129 171.607 C 224.525 179.159 221.723 186.712 216.129 195.803 C 217.248 183.635 215.01 177.621 207.872 177.621 C 243.122 125.032 182.561 99.717 158.92 117.759 C 169.55 101.116 186.897 95.241 207.872 104.891 C 209.695 84.472 192.212 79.717 177.802 87.129 C 170.066 26.863 97.66 27.268 82.835 71.604 Z" fill="black"/>
  <path d="M 130.812 158.6 C 116.145 158.6 103.976 169.3 101.688 183.321 L 78.363 158.6 L 108.014 163.635 L 95.986 136.501 L 120.882 152.166 L 129.134 66.01 L 142.001 154.823 L 170.533 130.907 L 152.351 164.754 L 185.219 162.376 L 159.782 182.457 C 157.145 168.863 145.177 158.6 130.812 158.6 Z" fill="black"/>
  <path d="M 115.008 198.39 C 115.008 178.921 130.393 175.103 130.393 175.103 C 130.393 175.103 145.778 178.921 145.778 198.39 L 145.778 240 L 115.008 240 L 115.008 198.39 Z" fill="black"/>
  <path d="M 45.635 194.405 C 41.02 185.874 42.698 176.503 51.786 169.93 C 35.705 157.901 36.404 117.9 77.521 121.677 C 75.561 103.774 92.07 89.228 111.788 96.641 C 97.944 78.878 65.491 91.747 68.989 114.264 C 37.661 95.242 1.579 140.138 44.235 168.81 C 32.208 176.083 31.792 187.832 45.635 194.405 Z" fill="black"/>
</svg>
