<?xml version="1.0" encoding="utf-8"?>
<svg width="256" height="256" viewBox="0 0 256 256" fill="none" xmlns="http://www.w3.org/2000/svg">
  <path fill-rule="evenodd" clip-rule="evenodd" d="M 234.672 98.046 L 166.29 147.831 L 179.384 202.059 L 204.289 228.475 L 192.816 240 L 152.426 232.053 L 114.687 214.711 L 97.922 174.846 L 82.256 182.097 L 49.545 149.323 C 49.545 149.323 69.623 134.352 69.623 130.222 C 69.623 126.091 21.328 81.451 21.328 81.451 L 21.328 62.07 C 23.596 62.199 30.194 68.693 37.568 75.952 C 48.283 86.498 60.639 98.66 63.745 95.272 C 68.987 89.553 21.328 37.923 21.328 37.923 L 21.328 16 L 30.225 16 C 30.225 16 64.698 56.828 71.052 52.221 C 77.407 47.614 49.129 16 49.129 16 L 80.107 16 C 80.107 16 133.644 77.162 136.027 77.162 C 138.41 77.162 168.242 31.361 168.242 31.361 L 234.672 98.046 Z M 130.308 83.284 C 130.308 83.284 111.086 101.944 100.76 101.944 C 92.293 101.944 89.487 100.08 86.824 98.31 C 86.24 97.921 85.662 97.537 85.032 97.178 C 81.537 95.187 72.641 81.928 76.136 79.545 C 77.922 78.327 81.824 81.133 85.573 83.83 C 89.16 86.41 92.608 88.89 93.928 87.647 C 95.043 86.598 91.479 82.357 87.341 77.437 C 81.452 70.431 74.403 62.047 78.042 59.528 C 81.712 56.988 88.724 63.834 94.362 69.337 C 98.243 73.125 101.471 76.277 102.507 75.291 C 103.623 74.229 102.472 71.458 101.247 68.509 C 99.684 64.742 97.998 60.686 100.76 59.528 C 105.684 57.463 130.308 83.284 130.308 83.284 Z M 83.602 107.504 C 83.602 111.102 80.686 114.018 77.089 114.018 C 73.492 114.018 70.576 111.102 70.576 107.504 C 70.576 103.907 73.492 100.991 77.089 100.991 C 80.686 100.991 83.602 103.907 83.602 107.504 Z M 66.763 74.938 C 69.922 74.938 72.482 72.377 72.482 69.219 C 72.482 66.06 69.922 63.5 66.763 63.5 C 63.604 63.5 61.044 66.06 61.044 69.219 C 61.044 72.377 63.604 74.938 66.763 74.938 Z" fill="black"/>
</svg>
