<?xml version="1.0" encoding="utf-8"?>
<svg width="256" height="256" viewBox="0 0 256 256" fill="none" xmlns="http://www.w3.org/2000/svg">
  <path fill-rule="evenodd" clip-rule="evenodd" d="M 138.542 20.644 C 138.113 19.518 137.515 18.46 136.918 17.407 C 136.653 16.939 136.389 16.472 136.14 16 C 135.859 16.09 135.624 16.155 135.426 16.21 L 135.415 16.213 C 135.049 16.314 134.801 16.382 134.589 16.517 C 133.478 17.182 132.375 17.86 131.275 18.536 C 130.265 19.156 129.256 19.775 128.242 20.385 C 100.801 36.919 72.427 40.854 42.708 26.855 C 39.283 25.238 37.674 26.097 36.494 30.232 C 24.585 71.811 16.951 114.04 17.43 157.528 C 17.496 163.389 18.841 168.725 21.622 173.819 C 32.871 194.43 47.132 212.614 64.29 228.538 C 68.647 232.582 72.79 234.641 79.277 233.64 C 106.991 229.363 133.21 221.176 157.086 206.077 C 164.225 201.566 170.613 196.414 175.16 188.852 C 193.63 158.12 208.18 125.704 217.564 90.995 C 219.038 85.528 220.237 79.986 221.464 74.311 L 221.474 74.265 L 221.477 74.25 C 222.059 71.56 222.648 68.84 223.275 66.083 L 222.401 66.017 C 220.794 65.895 219.654 65.809 218.513 65.716 C 215.555 65.478 212.58 65.33 209.606 65.182 C 203.114 64.86 196.624 64.537 190.313 63.273 C 165.793 58.371 147.768 44.823 138.542 20.644 Z M 95.656 130.223 C 77.498 130.224 69.554 126.69 65.537 124.904 C 63.38 123.945 62.355 123.489 61.49 124.355 C 59.012 126.833 69.055 142.612 93.835 142.612 C 118.613 142.612 127.218 154.872 127.218 167.783 C 127.218 180.695 119.915 188.128 111.177 188.128 C 102.44 188.128 96.31 180.694 96.31 176.782 C 96.31 172.87 97.875 171.565 101.266 171.565 C 102.915 171.565 103.947 172.337 105.007 173.129 C 106.127 173.965 107.279 174.826 109.221 174.826 C 113.003 174.826 116.655 172.478 116.655 166.74 C 116.655 161.002 109.873 153.437 101.266 153.437 C 92.659 153.437 80.921 164.132 80.921 177.434 C 80.921 190.736 90.441 201.039 110.525 201.039 C 130.609 201.039 144.825 184.215 144.825 170.261 C 144.825 156.307 140.651 149.916 135.043 143.787 C 134.869 143.596 134.694 143.404 134.519 143.211 C 129.05 137.202 122.698 130.223 95.656 130.223 Z M 97.616 120.051 C 69.706 120.051 55.101 106.617 55.101 90.315 C 55.101 74.013 68.926 56.277 89.01 56.277 C 109.094 56.277 117.049 75.969 117.049 83.403 C 117.049 90.837 110.002 100.227 101.395 100.227 C 92.788 100.227 87.051 94.62 87.051 88.882 C 87.051 85.898 89.73 84.959 92.486 83.993 C 95.03 83.102 97.639 82.188 98.266 79.621 C 99.573 74.274 93.571 71.928 88.355 72.971 C 83.138 74.014 72.838 81.708 72.838 89.663 C 72.838 97.619 75.317 107.661 100.096 107.661 C 111.276 107.661 126.5 109.806 135.176 116.27 C 145.729 124.132 151.084 136.875 147.693 138.049 C 146.057 138.615 144.105 136.928 141.167 134.388 C 138.015 131.664 133.728 127.959 127.481 125.007 C 119.708 121.333 108.55 120.051 97.616 120.051 Z" fill="black"/>
  <path d="M 184.707 190.532 C 210.155 160.472 229.831 106.728 235.114 72.66 C 249.324 113.469 216.714 168.552 196.127 200.005 L 184.707 190.532 Z" fill="black"/>
  <path d="M 103.76 239.904 C 103.76 239.904 162.605 222.596 177.544 202.556 L 187.564 211.483 C 153.861 243.183 103.76 239.904 103.76 239.904 Z" fill="black"/>
</svg>
