<?xml version="1.0" encoding="utf-8"?>
<svg width="256" height="256" viewBox="0 0 256 256" fill="none" xmlns="http://www.w3.org/2000/svg">
  <path d="M 144.5 206.72 L 116.556 175.527 L 151.486 175.527 L 179.431 206.72 L 151.486 237.913 L 116.556 237.913 L 144.5 206.72 Z" fill="black"/>
  <path d="M 81.625 206.72 L 53.681 175.527 L 88.611 175.527 L 116.556 206.72 L 88.611 237.913 L 53.681 237.913 L 81.625 206.72 Z" fill="black"/>
  <path d="M 198.393 33.06 C 198.393 33.06 183.051 17.984 158.999 18.087 C 119.61 18.255 88.611 18.087 88.611 18.087 L 88.611 48.033 C 88.611 48.033 119.609 48.033 158.999 48.033 C 183.59 48.033 198.393 33.06 198.393 33.06 Z" fill="black"/>
  <line style="fill: rgb(216, 216, 216); stroke: rgb(0, 0, 0); stroke-linecap: round; stroke-width: 9px;" x1="16" y1="32.358" x2="77.606" y2="32.468"/>
  <path d="M 198.404 137.967 C 198.404 137.967 183.062 122.891 159.01 122.994 C 119.621 123.161 88.622 122.994 88.622 122.994 L 88.622 152.939 C 88.622 152.939 119.62 152.939 159.01 152.939 C 183.601 152.939 198.404 137.967 198.404 137.967 Z" fill="black"/>
  <line style="fill: rgb(216, 216, 216); stroke: rgb(0, 0, 0); stroke-linecap: round; stroke-width: 9px;" x1="16.011" y1="137.264" x2="77.617" y2="137.375"/>
  <path d="M 240 84.989 C 240 84.989 224.659 69.912 200.606 70.015 C 161.217 70.183 130.219 70.015 130.219 70.015 L 130.219 99.961 C 130.219 99.961 161.216 99.961 200.606 99.961 C 225.197 99.961 240 84.989 240 84.989 Z" fill="black"/>
  <line style="fill: rgb(216, 216, 216); stroke: rgb(0, 0, 0); stroke-linecap: round; stroke-width: 9px;" x1="16.099" y1="84.286" x2="119.214" y2="84.471"/>
</svg>
