<?xml version="1.0" encoding="utf-8"?>
<svg width="256" height="256" viewBox="0 0 256 256" fill="none" xmlns="http://www.w3.org/2000/svg">
  <path fill-rule="evenodd" clip-rule="evenodd" d="M 31.697 219.702 L 64.154 158.077 C 64.154 158.077 82.032 114.392 82.032 107.365 C 82.032 100.338 46.368 74.567 46.368 74.567 C 43.39 72.103 42.401 68.128 43.597 64.679 L 67.312 20.7 C 69.689 16.333 75.156 14.72 79.523 17.097 C 83.889 19.474 85.503 24.94 83.127 29.307 L 63.498 65.37 L 90.151 87.414 C 90.94 88.066 91.589 88.825 92.095 89.651 L 130.196 89.651 C 130.196 89.651 149.52 70.034 161.525 70.034 C 173.529 70.034 202.369 93.311 202.369 93.311 L 202.369 111.61 C 197.391 128.007 188.606 148.826 161.232 164.898 C 139.062 153.083 133.156 141.828 122.928 122.339 L 122.926 122.336 C 122.928 122.339 121.549 119.713 120.827 118.344 L 120.827 147.038 C 120.827 147.038 118.338 149.234 118.338 151.43 C 118.338 153.626 119.216 155.236 119.216 155.236 L 136.059 179.094 C 137.904 181.181 138.731 184.064 138.141 186.894 L 127.598 215.815 C 165.905 207.412 206.693 198.538 235.601 192.274 L 235.601 240 L 20.4 240 C 21.489 239.31 59.994 230.689 106.732 220.4 L 119.217 186.38 C 119.217 186.38 106.041 156.7 93.597 156.7 C 85.526 156.7 76.139 175.004 65.639 195.475 C 59.95 206.566 53.935 218.294 47.626 228.092 C 45.309 232.491 39.865 234.179 35.466 231.862 C 31.067 229.545 29.38 224.101 31.697 219.702 Z M 155.962 86.284 C 154.183 86.284 152.741 87.726 152.741 89.505 L 152.741 103.851 L 138.101 103.851 C 136.322 103.851 134.881 105.293 134.881 107.072 L 134.881 116.734 C 134.881 118.513 136.322 119.955 138.101 119.955 L 152.741 119.955 L 152.741 134.302 C 152.741 136.08 154.183 137.522 155.962 137.522 L 165.624 137.522 C 167.402 137.522 168.844 136.08 168.844 134.302 L 168.844 119.955 L 182.898 119.955 C 184.677 119.955 186.119 118.513 186.119 116.734 L 186.119 107.072 C 186.119 105.293 184.677 103.851 182.898 103.851 L 168.844 103.851 L 168.844 89.505 C 168.844 87.726 167.402 86.284 165.624 86.284 L 155.962 86.284 Z" fill="black"/>
  <path d="M 117.313 79.257 C 128.471 79.257 137.516 70.212 137.516 59.054 C 137.516 47.897 128.471 38.852 117.313 38.852 C 106.156 38.852 97.111 47.897 97.111 59.054 C 97.111 70.212 106.156 79.257 117.313 79.257 Z" fill="black"/>
</svg>
