<?xml version="1.0" encoding="utf-8"?>
<svg width="256" height="256" viewBox="0 0 256 256" fill="none" xmlns="http://www.w3.org/2000/svg">
  <path d="M 45.132 153.057 C 45.132 151.724 46.214 150.642 47.547 150.642 L 74.114 150.642 C 75.447 150.642 76.528 151.724 76.528 153.057 L 76.528 179.623 L 103.095 179.623 C 104.428 179.623 105.51 180.704 105.51 182.038 L 105.51 208.604 C 105.51 209.938 104.428 211.02 103.095 211.02 L 76.528 211.02 L 76.528 237.586 C 76.528 238.92 75.447 240 74.114 240 L 47.547 240 C 46.214 240 45.132 238.92 45.132 237.586 L 45.132 211.02 L 18.566 211.02 C 17.232 211.02 16.151 209.938 16.151 208.604 L 16.151 182.038 C 16.151 180.704 17.232 179.623 18.566 179.623 L 45.132 179.623 L 45.132 153.057 Z" fill="black"/>
  <path fill-rule="evenodd" clip-rule="evenodd" d="M 239.85 67.925 C 239.85 89.398 224.506 104.052 207.548 115.518 L 118.076 184.085 C 117.766 184.323 117.349 184.37 116.993 184.206 C 116.638 184.043 116.401 183.697 116.379 183.306 C 116.121 178.739 115.237 175.62 113.868 173.505 C 112.526 171.43 110.657 170.23 108.195 169.609 C 105.69 168.977 102.586 168.95 98.843 169.263 C 95.918 169.508 86.027 170.859 86.027 170.859 C 86.027 170.859 85.366 170.79 85.133 170.553 C 84.9 170.315 84.793 169.982 84.842 169.654 C 86.061 161.631 86.575 155.846 86.467 151.674 C 86.358 147.477 85.62 145.089 84.514 143.693 C 83.447 142.347 81.885 141.741 79.589 141.506 C 78.528 141.398 77.373 141.373 76.105 141.378 C 75.433 141.381 74.729 141.392 73.99 141.403 L 73.948 141.404 C 73.006 141.419 72.007 141.435 70.944 141.435 C 70.761 141.435 70.585 141.388 70.431 141.302 C 70.247 141.2 70.094 141.044 69.997 140.848 C 69.819 140.489 69.859 140.059 70.102 139.74 L 142.77 40.598 C 144.149 38.382 145.694 36.276 147.387 34.298 L 148.076 33.359 L 148.237 33.331 C 157.804 22.7 171.769 16 187.321 16 C 216.165 16 239.85 39.497 239.85 67.925 Z M 214.846 67.973 C 211.103 79.62 186.774 100.227 186.774 100.227 C 186.774 100.227 161.728 79.62 157.985 67.973 C 154.243 56.326 159.857 44.679 171.086 44.679 C 182.314 44.679 186.774 53.639 186.774 53.639 C 186.774 53.639 190.517 44.679 201.746 44.679 C 212.975 44.679 218.589 56.326 214.846 67.973 Z" fill="black"/>
</svg>
