<?xml version="1.0" encoding="utf-8"?>
<svg width="256" height="256" viewBox="0 0 256 256" fill="none" xmlns="http://www.w3.org/2000/svg">
  <path d="M 127.778 76.419 C 115.774 76.419 113.135 65.074 113.135 65.074 L 113.136 40.801 C 116.132 27.016 124.876 16 127.778 16 C 130.681 16 139.521 27.016 142.553 40.801 L 142.553 65.074 C 142.553 65.074 139.783 76.419 127.778 76.419 Z" fill="black"/>
  <path d="M 127.778 83.543 C 122.502 83.543 113.136 77.738 113.136 77.738 C 113.136 77.738 115.774 91.722 127.778 91.722 C 139.783 91.722 142.553 77.738 142.553 77.738 C 142.553 77.738 133.055 83.543 127.778 83.543 Z" fill="black"/>
  <path d="M 136.639 147.633 C 136.639 152.429 132.764 156.317 127.987 156.317 C 123.208 156.317 119.335 152.429 119.335 147.633 C 119.335 142.837 123.208 138.949 127.987 138.949 C 132.764 138.949 136.639 142.837 136.639 147.633 Z" fill="black"/>
  <path d="M 122.622 199.263 L 122.622 236.077 C 122.622 238.243 120.721 240 118.374 240 C 116.028 240 114.127 238.243 114.127 236.077 L 114.127 200.053 C 114.127 200.053 112.467 170.922 108.849 170.922 C 107 170.922 103.186 177.711 104.287 182.842 C 105.846 190.105 107.591 202.973 101.376 204 C 95.162 205.026 93.196 186.553 94.298 177.079 C 95.045 170.647 105.553 158.527 105.553 158.527 L 148.422 158.527 C 148.422 158.527 161.393 170.211 161.785 177.79 C 162.176 185.369 158.567 206.763 151.253 204 C 146.057 202.037 148.041 193.499 149.626 186.681 C 150.273 183.902 150.852 181.41 150.852 179.764 C 150.852 176.369 147.234 170.685 145.111 170.685 C 142.201 170.685 140.398 200.053 140.398 200.053 L 140.398 236.077 C 140.398 238.243 138.497 240 136.151 240 C 133.805 240 131.903 238.243 131.903 236.077 L 131.903 199.263 L 122.622 199.263 Z" fill="black"/>
  <path d="M 65.362 99.731 C 65.362 99.731 72.483 107.578 81.542 102.405 C 90.6 97.232 87.561 87.055 87.561 87.055 L 76.586 67.835 C 68.065 58.226 56.413 53.313 54.223 54.564 C 52.033 55.814 50.416 68.304 54.388 80.511 L 65.362 99.731 Z" fill="black"/>
  <path d="M 71.089 109.759 C 71.089 109.759 80.78 110.319 84.762 108.046 C 88.745 105.772 93.288 97.083 93.288 97.083 C 93.288 97.083 97.519 109.349 88.46 114.522 C 79.402 119.695 71.089 109.759 71.089 109.759 Z" fill="black"/>
  <path d="M 173.96 102.387 C 164.887 97.241 167.995 87.112 167.995 87.112 L 178.914 67.86 C 187.379 58.21 198.943 53.221 201.137 54.465 C 203.33 55.709 205.057 68.236 201.149 80.469 L 190.232 99.722 C 190.232 99.722 183.035 107.533 173.96 102.387 Z" fill="black"/>
  <path d="M 170.756 108.037 C 166.768 105.776 162.299 97.157 162.299 97.157 C 162.299 97.157 158.003 109.379 167.078 114.525 C 176.151 119.67 184.535 109.767 184.535 109.767 C 184.535 109.767 174.745 110.299 170.756 108.037 Z" fill="black"/>
  <path d="M 198.488 129.528 C 198.488 129.528 191.777 135.389 195.859 142.687 C 199.942 149.985 208.493 147.412 208.493 147.412 L 224.774 138.304 C 232.989 131.288 237.371 121.78 236.384 120.016 C 235.397 118.251 225.035 117.069 214.77 120.42 L 198.488 129.528 Z" fill="black"/>
  <path d="M 189.995 134.281 C 189.995 134.281 189.287 142.152 191.081 145.36 C 192.875 148.568 199.999 152.164 199.999 152.164 C 199.999 152.164 189.678 155.727 185.595 148.429 C 181.513 141.131 189.995 134.281 189.995 134.281 Z" fill="black"/>
  <path d="M 60.142 142.819 C 64.224 135.521 57.513 129.66 57.513 129.66 L 41.231 120.552 C 30.966 117.201 20.604 118.383 19.617 120.148 C 18.63 121.912 23.012 131.42 31.227 138.436 L 47.508 147.544 C 47.508 147.544 56.059 150.117 60.142 142.819 Z" fill="black"/>
  <path d="M 64.92 145.492 C 66.714 142.284 66.006 134.413 66.006 134.413 C 66.006 134.413 74.488 141.263 70.406 148.561 C 66.323 155.859 56.002 152.296 56.002 152.296 C 56.002 152.296 63.126 148.7 64.92 145.492 Z" fill="black"/>
  <path d="M 130.681 98.054 L 124.876 98.054 L 124.876 132.353 L 130.681 132.353 L 130.681 98.054 Z" fill="black"/>
  <path d="M 89.381 121.496 L 94.384 118.555 L 111.24 147.234 L 106.236 150.175 L 89.381 121.496 Z" fill="black"/>
  <path d="M 161.256 117.842 L 166.26 120.783 L 149.404 149.462 L 144.4 146.52 L 161.256 117.842 Z" fill="black"/>
  <path d="M 182.772 152.941 L 179.447 148.183 L 162.869 159.768 L 166.194 164.526 L 182.772 152.941 Z" fill="black"/>
  <path d="M 75.961 148.183 L 72.636 152.941 L 89.215 164.526 L 92.539 159.768 L 75.961 148.183 Z" fill="black"/>
</svg>
