<?xml version="1.0" encoding="utf-8"?>
<svg width="256" height="256" viewBox="0 0 256 256" fill="none" xmlns="http://www.w3.org/2000/svg">
  <path d="M 236.654 29.089 L 236.654 31.142 L 236.437 45.823 C 236.435 47.989 235.687 50.439 234.459 53.025 C 233.222 55.625 231.47 58.428 229.384 61.314 C 225.216 67.087 219.673 73.265 214.152 78.926 C 208.627 84.59 203.104 89.755 198.963 93.503 C 196.893 95.378 195.167 96.899 193.958 97.951 C 193.355 98.477 192.383 99.31 192.056 99.59 L 192.055 99.591 C 191.705 99.887 191.188 99.862 190.868 99.536 L 178.875 87.307 L 165.936 74.659 C 165.608 74.339 165.584 73.821 165.879 73.471 C 166.157 73.147 166.993 72.172 167.519 71.568 C 168.572 70.359 170.093 68.633 171.967 66.562 C 175.715 62.422 180.88 56.899 186.545 51.373 C 192.206 45.851 198.384 40.309 204.157 36.141 C 207.043 34.057 209.846 32.303 212.446 31.067 C 215.034 29.837 217.487 29.089 219.654 29.089 L 236.654 29.089 Z" fill="black"/>
  <path d="M 26.735 36.768 C 28.44 35.065 31.203 35.067 32.906 36.773 L 127.817 131.825 L 163.857 94.847 C 165.539 93.121 168.302 93.086 170.028 94.768 C 171.753 96.45 171.789 99.212 170.107 100.938 L 130.98 141.084 L 240 141.093 L 240 226.911 L 16 226.911 L 16 141.093 L 124.738 141.093 L 26.73 42.939 C 25.027 41.234 25.029 38.471 26.735 36.768 Z" fill="black"/>
</svg>
