<?xml version="1.0" encoding="utf-8"?>
<svg width="256" height="256" viewBox="0 0 256 256" fill="none" xmlns="http://www.w3.org/2000/svg">
  <path d="M 16 158.067 L 16 17.161 L 121.099 99.846 L 16 158.067 Z" fill="black"/>
  <path d="M 97.045 238.838 L 240 238.838 L 155.949 134.286 L 97.045 238.838 Z" fill="black"/>
  <path d="M 143.201 126.715 C 140.424 126.994 136.397 126.296 132.786 122.667 C 129.175 119.038 128.342 115.968 128.342 113.316 C 128.342 110.664 152.227 87.356 154.588 86.24 C 156.65 85.265 168.034 83.757 170.883 83.391 C 170.983 83.378 171.08 83.393 171.166 83.429 C 171.248 83.464 171.321 83.519 171.376 83.589 C 171.456 83.688 171.502 83.817 171.494 83.958 C 171.326 86.93 170.594 99.146 169.863 100.615 C 169.03 102.29 145.978 126.435 143.201 126.715 Z" fill="black"/>
  <path d="M 121.641 132.497 C 94.615 155.197 17.623 221.113 25.977 228.451 C 34.32 235.78 100.244 160.508 123.063 133.938 C 123.93 132.928 122.66 131.641 121.641 132.497 Z" fill="black"/>
  <path d="M 184.65 77.842 C 189.027 77.842 192.577 74.293 192.577 69.915 C 192.577 65.537 189.027 61.988 184.65 61.988 C 180.272 61.988 176.723 65.537 176.723 69.915 C 176.723 74.293 180.272 77.842 184.65 77.842 Z" fill="black"/>
  <path d="M 176.281 97.369 C 182.438 99.245 189.048 98.998 195.047 96.666 C 201.047 94.334 206.089 90.053 209.362 84.511 C 212.635 78.968 213.951 72.486 213.096 66.106 C 212.242 59.726 209.268 53.818 204.652 49.332 C 200.035 44.846 194.045 42.043 187.643 41.371 C 181.241 40.7 174.799 42.2 169.353 45.631 C 163.906 49.062 159.771 54.224 157.612 60.288 C 155.453 66.352 155.395 72.966 157.447 79.067 L 163.766 76.941 C 162.191 72.258 162.235 67.18 163.893 62.524 C 165.55 57.869 168.725 53.906 172.906 51.272 C 177.088 48.638 182.033 47.486 186.948 48.002 C 191.862 48.517 196.461 50.67 200.005 54.114 C 203.549 57.557 205.833 62.093 206.489 66.991 C 207.144 71.889 206.135 76.865 203.622 81.12 C 201.109 85.375 197.238 88.662 192.632 90.452 C 188.026 92.242 182.952 92.432 178.225 90.992 L 176.281 97.369 Z" fill="black"/>
  <path d="M 201.13 119.307 C 189.731 123.006 177.404 122.66 166.231 118.326 L 169.165 110.76 C 178.598 114.418 189.003 114.711 198.626 111.589 C 208.249 108.466 216.5 102.12 221.987 93.621 C 227.475 85.122 229.863 74.99 228.748 64.935 C 227.633 54.88 223.084 45.518 215.869 38.427 C 208.653 31.336 199.212 26.951 189.139 26.012 C 179.066 25.074 168.977 27.638 160.575 33.274 C 152.173 38.909 145.972 47.27 143.019 56.946 C 140.065 66.622 140.54 77.02 144.362 86.387 L 136.849 89.453 C 132.321 78.357 131.758 66.039 135.257 54.577 C 138.756 43.114 146.102 33.21 156.055 26.534 C 166.008 19.858 177.959 16.82 189.892 17.932 C 201.824 19.044 213.008 24.239 221.556 32.639 C 230.105 41.038 235.493 52.13 236.814 64.041 C 238.134 75.953 235.306 87.955 228.805 98.023 C 222.304 108.091 212.53 115.609 201.13 119.307 Z" fill="black"/>
</svg>
