<?xml version="1.0" encoding="utf-8"?>
<svg width="256" height="256" viewBox="0 0 256 256" fill="none" xmlns="http://www.w3.org/2000/svg">
  <path d="M 73.476 16 L 87.388 44.948 C 75.444 47.759 53.522 66.589 44.387 86.685 L 16.844 74.178 C 27.946 52.115 53.381 26.399 73.476 16 Z" fill="black"/>
  <path d="M 182.525 16.141 L 168.613 45.089 C 180.557 47.899 202.48 66.73 211.614 86.825 L 239.157 74.318 C 228.055 52.256 202.62 26.539 182.525 16.141 Z" fill="black"/>
  <path d="M 196.428 150.602 L 177.312 169.56 L 149.706 141.978 L 160.643 126.816 C 162.166 124.676 161.278 122.914 158.613 122.788 L 133.742 122.788 L 133.742 78.362 C 133.742 75.719 132.473 75.215 130.824 77.481 L 111.694 104 L 87.003 79.329 L 105.699 60.742 C 115.597 50.926 131.712 50.926 141.61 60.742 L 196.3 114.985 C 206.198 124.676 206.198 140.785 196.428 150.602 Z" fill="black"/>
  <path fill-rule="evenodd" clip-rule="evenodd" d="M 105.127 113.104 L 105.129 113.101 L 79.145 87.14 L 79.143 87.142 L 67.391 75.413 C 66.665 74.688 65.489 74.688 64.764 75.413 L 57.836 82.335 C 57.11 83.06 57.11 84.235 57.836 84.96 L 69.564 96.665 L 51.136 114.985 C 41.238 124.802 41.238 140.785 51.136 150.602 L 67.133 166.468 L 90.926 166.468 L 90.926 190.067 L 105.826 204.845 C 115.724 214.661 131.839 214.661 141.736 204.845 L 159.854 186.876 L 171.743 198.739 C 172.468 199.463 173.645 199.463 174.37 198.739 L 181.298 191.817 C 182.024 191.092 182.024 189.917 181.298 189.192 L 169.444 177.364 L 169.446 177.363 L 143.14 151.079 L 143.138 151.082 L 105.127 113.104 Z M 97.123 124.2 L 86.792 138.52 C 85.143 140.785 86.031 142.547 88.823 142.547 L 113.693 142.547 L 113.693 186.974 C 113.693 189.616 114.962 190.12 116.612 187.854 L 135.134 162.178 L 97.123 124.2 Z" fill="black"/>
  <path d="M 168.613 210.91 L 182.525 239.858 C 202.62 229.46 228.055 203.743 239.157 181.681 L 211.614 169.174 C 202.48 189.269 180.557 208.099 168.613 210.91 Z" fill="black"/>
  <path d="M 87.388 211.05 L 73.476 240 C 53.381 229.6 27.946 203.884 16.844 181.821 L 44.387 169.314 C 53.522 189.409 75.444 208.24 87.388 211.05 Z" fill="black"/>
</svg>
