<?xml version="1.0" encoding="utf-8"?>
<svg width="256" height="256" viewBox="0 0 256 256" fill="none" xmlns="http://www.w3.org/2000/svg">
  <path d="M 16 35.953 L 16 58.229 C 18.419 53.517 56.863 1.962 110.33 48.554 C 136.172 71.074 147.629 48.935 144.446 47.027 C 143.737 46.601 143.122 47.106 142.204 47.859 C 139.007 50.485 132.129 56.131 104.728 35.953 C 70.27 10.577 50.066 16.06 16 35.953 Z" fill="black"/>
  <path d="M 126.75 224.483 C 129.023 224.483 130.982 224.292 131.672 224 L 131.679 223.997 C 132.754 223.543 133.891 222.958 135.017 222.327 C 137.294 221.05 140.07 219.272 143.167 217.101 C 149.384 212.741 157.288 206.516 165.666 198.855 C 182.313 183.634 201.502 162.137 212.753 137.699 C 216.371 129.84 219.23 120.897 220.204 112.038 C 221.171 103.25 220.355 93.78 215.707 85.637 C 207.615 71.459 195.727 62.939 180.98 62.939 C 163.933 62.939 152.553 67.615 144.173 72.272 C 142.151 73.395 140.323 74.507 138.745 75.469 L 138.56 75.582 C 137.012 76.527 135.787 77.275 134.645 77.906 C 132.286 79.208 131.396 79.35 131.115 79.36 L 131.11 79.359 C 131.047 79.35 130.694 79.297 129.965 79.024 C 129.02 78.67 127.801 78.086 126.211 77.202 C 124.233 76.102 122.347 74.935 120.177 73.592 L 120.176 73.591 C 118.495 72.551 116.644 71.405 114.447 70.104 C 105.342 64.708 93.014 58.356 78.504 58.356 C 61.487 58.356 47.301 68.838 38.923 82.614 C 30.503 96.461 27.213 114.668 32.551 132.235 C 35.604 142.283 42.867 152.957 51.183 162.863 C 56.921 169.697 70.739 185.275 74.304 181.71 C 76.08 179.934 68.889 170.467 60.703 159.687 C 52.459 148.832 43.205 136.647 41.077 129.645 C 31.992 99.746 52.247 67.267 78.504 67.267 C 92.962 67.267 105.369 74.925 115.2 80.993 C 121.651 84.975 126.993 88.272 131.078 88.272 C 134.874 88.272 138.52 86.047 143.127 83.235 C 151.036 78.407 161.779 71.85 180.98 71.85 C 191.715 71.85 201.013 77.869 207.968 90.054 C 214.753 101.941 211.297 119.553 204.658 133.973 C 183.557 179.808 131.709 216.835 126.75 216.591 C 122.758 216.394 116.916 212.261 111.817 208.654 C 106.999 205.246 102.845 202.307 101.546 203.606 C 98.873 206.279 104.887 212.019 107.386 213.866 C 111.227 216.706 114.628 219.065 117.311 220.753 C 118.637 221.587 119.921 222.342 121.068 222.921 C 121.636 223.207 122.314 223.523 123.038 223.788 C 123.546 223.973 124.974 224.483 126.75 224.483 Z" fill="black"/>
  <path d="M 126.482 194.313 C 131.206 194.313 172.962 169.237 187.856 136.813 C 192.594 126.499 192.124 115.491 186.894 107.115 C 181.533 98.528 171.562 93.621 163.287 93.621 C 145.162 93.621 134.363 103.571 129.513 108.04 C 128.096 109.346 127.187 110.184 126.751 110.168 C 126.288 110.15 124.958 108.823 122.947 106.816 C 116.598 100.481 103.468 87.381 89.451 87.381 C 69.211 87.381 53.785 111.186 61.444 132.063 C 69.944 155.232 121.759 194.313 126.482 194.313 Z" fill="black"/>
  <path d="M 97.778 236.133 C 55.627 208.828 42.289 191.039 21.324 163.08 L 21.322 163.077 L 21.308 163.059 C 19.885 161.161 18.427 159.217 16.923 157.219 C 16.629 156.829 16 157.027 16 157.515 L 16 169.425 C 16 169.549 16.045 169.668 16.126 169.761 L 48.829 207.102 C 49.213 207.54 48.678 208.159 48.184 207.851 C 34.019 199.006 28.455 193.54 20.387 185.613 C 19.271 184.516 18.106 183.372 16.864 182.166 C 16.542 181.853 16 182.079 16 182.529 L 16 189.631 C 16 189.775 16.063 189.914 16.17 190.011 C 36.032 207.949 47.986 218.115 83.482 237.025 C 83.556 237.065 83.64 237.085 83.724 237.085 L 97.521 237.085 C 98.029 237.085 98.205 236.41 97.778 236.133 Z" fill="black"/>
  <path d="M 238.996 146.024 C 206.454 189.188 187.895 209.458 157.318 236.186 C 156.963 236.496 157.175 237.085 157.646 237.085 L 170.747 237.085 C 170.863 237.085 170.976 237.045 171.067 236.973 C 173.383 235.12 175.642 233.321 177.846 231.564 C 203.831 210.859 222.307 196.137 239.921 170.635 C 240.089 170.392 239.962 169.975 239.794 169.824 C 239.626 169.674 239.127 169.68 238.904 169.872 L 218.101 188.151 C 217.637 188.547 216.995 187.94 217.366 187.455 L 239.668 158.033 C 239.735 157.944 239.794 157.835 239.794 157.724 L 239.794 146.307 C 239.794 145.818 239.29 145.633 238.996 146.024 Z" fill="black"/>
  <path d="M 152.297 40.387 C 151.336 41.025 151.075 42.321 151.713 43.281 C 152.351 44.242 153.647 44.503 154.608 43.865 L 158.202 41.476 C 159.163 40.838 159.424 39.542 158.786 38.582 C 158.148 37.621 156.852 37.36 155.891 37.998 L 152.297 40.387 Z" fill="black"/>
  <path d="M 239.794 58.224 C 222.243 28.087 199.17 23.611 167.898 35.487 C 166.138 36.156 164.718 34.144 166.106 32.872 C 186.344 14.321 215.266 16.205 239.794 42.95 L 239.794 58.224 Z" fill="black"/>
  <path d="M 218.172 22.989 C 226.477 25.553 232.792 28.935 239.794 35.564 L 239.794 30.348 C 233.017 23.856 226.746 21.72 218.279 22.023 C 217.713 22.044 217.631 22.821 218.172 22.989 Z" fill="black"/>
  <path d="M 86.52 189.928 C 85.546 189.046 84.041 189.119 83.158 190.093 C 82.275 191.068 82.349 192.573 83.323 193.455 L 87.691 197.415 C 88.664 198.298 90.17 198.224 91.053 197.25 C 91.935 196.276 91.862 194.771 90.888 193.888 L 86.52 189.928 Z" fill="black"/>
</svg>
