<?xml version="1.0" encoding="utf-8"?>
<svg width="256" height="256" viewBox="0 0 256 256" fill="none" xmlns="http://www.w3.org/2000/svg">
  <path fill-rule="evenodd" clip-rule="evenodd" d="M 95.79 19.074 C 92.313 19.074 89.495 21.892 89.495 25.369 L 89.495 48.062 L 84.225 48.062 C 83.892 48.062 83.591 48.201 83.378 48.424 C 83.177 48.635 83.053 48.92 83.053 49.233 L 83.053 54.504 L 66.949 54.504 L 66.949 44.841 L 44.695 44.841 L 44.695 54.504 L 37.375 54.504 C 25.57 54.504 16 64.074 16 75.879 L 16 205.887 C 16 217.692 25.57 227.262 37.375 227.262 L 44.695 227.262 L 44.695 234.875 C 44.695 236.007 45.613 236.926 46.745 236.926 L 90.374 236.926 C 91.506 236.926 92.423 236.007 92.423 234.875 L 92.423 227.262 L 163.283 227.262 L 163.283 234.875 C 163.283 236.007 164.201 236.926 165.333 236.926 L 208.962 236.926 C 210.094 236.926 211.011 236.007 211.011 234.875 L 211.011 227.262 L 218.624 227.262 C 230.429 227.262 240 217.692 240 205.887 L 240 75.879 C 240 64.074 230.429 54.504 218.624 54.504 L 211.011 54.504 L 211.011 44.841 L 188.758 44.841 L 188.758 54.504 L 172.653 54.504 L 172.653 49.233 C 172.653 48.587 172.129 48.062 171.482 48.062 L 166.211 48.062 L 166.211 25.369 C 166.211 21.892 163.393 19.074 159.916 19.074 L 95.79 19.074 Z M 153.62 35.471 L 102.086 35.471 L 102.086 48.062 L 107.649 48.062 C 108.297 48.062 108.821 48.587 108.821 49.233 L 108.821 54.504 L 146.886 54.504 L 146.886 49.233 C 146.886 48.587 147.41 48.062 148.057 48.062 L 153.62 48.062 L 153.62 35.471 Z M 35.036 72.179 C 37.303 69.533 41.286 69.225 43.931 71.491 L 59.426 84.761 C 62.073 87.027 62.38 91.01 60.115 93.656 C 57.848 96.303 53.865 96.61 51.219 94.344 L 35.724 81.075 C 33.078 78.808 32.77 74.826 35.036 72.179 Z M 106.959 109.89 C 108.553 114.239 118.337 119.947 118.337 119.947 L 118.337 110.431 C 118.337 110.431 115.251 110.072 114.21 107.232 C 113.169 104.393 113.041 101.299 113.842 98.383 C 114.644 95.467 116.969 91.708 119.315 89.799 C 121.66 87.89 124.779 86.274 127.853 86.274 C 130.928 86.274 133.581 87.127 136.151 88.722 C 138.72 90.317 140.094 93.838 141.26 96.629 C 142.426 99.42 142.347 102.378 141.26 105.306 C 140.207 108.141 137.519 110.431 137.519 110.431 L 137.519 119.947 C 137.519 119.947 148.526 111.682 149.553 107.165 C 150.58 102.649 150.172 97.925 148.385 93.651 C 146.6 89.377 143.524 85.767 139.59 83.325 C 135.654 80.882 132.392 80.024 127.853 80.024 C 123.221 80.024 117.396 82.05 113.803 84.974 C 110.211 87.899 107.622 91.871 106.395 96.337 C 105.167 100.804 105.365 105.541 106.959 109.89 Z M 115.555 185.244 C 120.698 198.933 125.642 208.083 128.146 208.083 C 130.627 208.083 136.364 199.281 141.323 185.244 C 144.849 175.263 148.057 161.233 147.032 147.325 C 163.3 149.081 170.945 145.386 172.653 131.513 C 184.805 131.513 191.832 126.242 191.832 122.582 L 191.832 113.652 L 158.745 113.652 C 158.745 113.652 152.157 130.488 142.933 130.488 C 136.198 130.488 132.392 127.853 132.392 126.389 C 132.392 125.983 132.538 125.802 132.75 125.541 C 133.3 124.859 134.295 123.629 134.295 116.433 C 134.295 106.478 129.024 105.599 127.561 105.599 C 126.096 105.599 121.411 106.478 121.411 116.433 C 121.411 123.629 122.329 124.859 122.838 125.541 C 122.952 125.693 123.046 125.819 123.104 125.978 C 123.145 126.091 123.168 126.22 123.168 126.389 C 123.168 127.853 119.215 130.488 112.481 130.488 C 103.257 130.488 96.376 113.652 96.376 113.652 L 63.874 113.652 L 63.874 122.582 C 63.874 126.242 70.316 131.513 82.468 131.513 C 84.86 145.238 93.183 149.207 108.674 147.325 C 107.032 162.79 111.346 174.151 114.839 183.35 L 115.555 185.244 Z M 196.058 84.486 C 193.32 86.64 192.847 90.607 195.001 93.345 C 197.154 96.084 201.121 96.558 203.859 94.403 L 219.894 81.791 C 222.632 79.637 223.106 75.671 220.952 72.932 C 218.797 70.193 214.832 69.72 212.092 71.874 L 196.058 84.486 Z M 35.085 208.779 C 37.352 211.425 41.335 211.733 43.98 209.467 L 59.475 196.198 C 62.122 193.931 62.43 189.949 60.164 187.302 C 57.897 184.656 53.914 184.348 51.269 186.614 L 35.774 199.884 C 33.127 202.15 32.819 206.133 35.085 208.779 Z M 196.108 196.472 C 193.37 194.318 192.896 190.352 195.05 187.613 C 197.203 184.875 201.17 184.401 203.908 186.555 L 219.943 199.168 C 222.681 201.321 223.155 205.288 221.001 208.026 C 218.846 210.765 214.881 211.239 212.141 209.084 L 196.108 196.472 Z" fill="black"/>
</svg>
