<?xml version="1.0" encoding="utf-8"?>
<svg width="256" height="256" viewBox="0 0 256 256" fill="none" xmlns="http://www.w3.org/2000/svg">
  <path d="M 90.076 123.888 C 90.076 128.163 86.68 131.629 82.491 131.629 C 78.302 131.629 74.906 128.163 74.906 123.888 C 74.906 119.613 78.302 116.147 82.491 116.147 C 86.68 116.147 90.076 119.613 90.076 123.888 Z" fill="black"/>
  <path d="M 74.906 147.111 C 74.906 151.386 71.51 154.852 67.321 154.852 C 63.132 154.852 59.737 151.386 59.737 147.111 C 59.737 142.836 63.132 139.37 67.321 139.37 C 71.51 139.37 74.906 142.836 74.906 147.111 Z" fill="black"/>
  <path d="M 74.906 193.556 C 74.906 197.831 71.51 201.297 67.321 201.297 C 63.132 201.297 59.737 197.831 59.737 193.556 C 59.737 189.281 63.132 185.815 67.321 185.815 C 71.51 185.815 74.906 189.281 74.906 193.556 Z" fill="black"/>
  <path d="M 90.076 216.778 C 90.076 221.054 86.68 224.519 82.491 224.519 C 78.302 224.519 74.906 221.054 74.906 216.778 C 74.906 212.503 78.302 209.038 82.491 209.038 C 86.68 209.038 90.076 212.503 90.076 216.778 Z" fill="black"/>
  <path d="M 112.831 232.26 C 112.831 236.535 109.435 240 105.246 240 C 101.057 240 97.661 236.535 97.661 232.26 C 97.661 227.985 101.057 224.519 105.246 224.519 C 109.435 224.519 112.831 227.985 112.831 232.26 Z" fill="black"/>
  <path d="M 158.34 232.26 C 158.34 236.535 154.944 240 150.755 240 C 146.566 240 143.17 236.535 143.17 232.26 C 143.17 227.985 146.566 224.519 150.755 224.519 C 154.944 224.519 158.34 227.985 158.34 232.26 Z" fill="black"/>
  <path d="M 181.095 216.778 C 181.095 221.054 177.699 224.519 173.51 224.519 C 169.321 224.519 165.925 221.054 165.925 216.778 C 165.925 212.503 169.321 209.038 173.51 209.038 C 177.699 209.038 181.095 212.503 181.095 216.778 Z" fill="black"/>
  <path d="M 196.264 193.556 C 196.264 197.831 192.869 201.297 188.68 201.297 C 184.49 201.297 181.095 197.831 181.095 193.556 C 181.095 189.281 184.49 185.815 188.68 185.815 C 192.869 185.815 196.264 189.281 196.264 193.556 Z" fill="black"/>
  <path d="M 196.264 147.111 C 196.264 151.386 192.869 154.852 188.68 154.852 C 184.49 154.852 181.095 151.386 181.095 147.111 C 181.095 142.836 184.49 139.37 188.68 139.37 C 192.869 139.37 196.264 142.836 196.264 147.111 Z" fill="black"/>
  <path d="M 181.095 123.888 C 181.095 128.163 177.699 131.629 173.51 131.629 C 169.321 131.629 165.925 128.163 165.925 123.888 C 165.925 119.613 169.321 116.147 173.51 116.147 C 177.699 116.147 181.095 119.613 181.095 123.888 Z" fill="black"/>
  <path fill-rule="evenodd" clip-rule="evenodd" d="M 79.832 158.182 C 73.264 164.881 73.264 175.786 79.832 182.485 L 116.123 219.496 C 122.69 226.194 133.384 226.194 139.952 219.496 L 176.243 182.485 C 182.726 175.786 182.726 164.795 176.158 158.182 L 145.735 127.155 C 162.161 111.014 185.337 86.078 190.525 69.285 C 198.756 42.642 186.409 16 161.715 16 C 137.02 16 128.789 36.494 128.789 36.494 C 128.789 36.494 118.981 16 94.286 16 C 69.592 16 57.245 42.642 65.476 69.285 C 70.603 85.879 93.903 110.423 110.75 126.577 L 79.832 158.182 Z M 123.28 207.903 L 152.498 166.255 C 153.508 164.795 152.919 163.593 151.15 163.507 L 134.647 163.507 L 134.647 133.193 C 134.647 131.39 133.805 131.046 132.71 132.592 L 103.493 174.241 C 102.398 175.786 102.987 176.989 104.84 176.989 L 121.343 176.989 L 121.343 207.302 C 121.343 209.105 122.185 209.449 123.28 207.903 Z M 128.001 112.811 L 169.405 70.456 L 89.553 70.456 L 128.001 112.811 Z" fill="black"/>
</svg>
