<?xml version="1.0" encoding="utf-8"?>
<svg width="256" height="256" viewBox="0 0 256 256" fill="none" xmlns="http://www.w3.org/2000/svg">
  <path d="M 114.858 128.182 C 113.155 128.05 107.367 148.966 107.885 150.677 C 108.404 152.388 119.206 152.649 120.522 150.677 C 121.837 148.704 116.56 128.314 114.858 128.182 Z" fill="black"/>
  <path fill-rule="evenodd" clip-rule="evenodd" d="M 24.088 234.343 C 26.053 235.791 39.355 217.241 50.792 217.373 C 62.23 217.506 73.288 238.421 90.258 240 L 139.589 240 C 149.192 240 165.889 213.075 175.904 196.982 C 185.212 182.026 204.575 171.2 210.495 164.227 C 216.414 157.254 221.8 140.023 219.966 138.969 C 218.132 137.916 210.758 149.478 205.89 148.704 C 201.023 147.93 194.051 151.336 193.261 156.597 C 192.472 161.858 182.606 178.96 176.562 184.748 C 173.333 187.841 165.041 193.122 158.927 197.904 C 153.599 202.071 151.589 205.971 150.244 204.745 C 148.548 203.199 152.513 192.079 161.295 185.538 C 167.478 180.933 175.146 175.862 177.475 172.12 C 183.124 163.044 191.946 129.892 200.497 120.288 C 209.048 110.685 220.763 99.767 221.808 97.268 C 222.853 94.768 222.203 86.481 222.868 83.586 C 223.533 80.691 226.281 71.352 223.913 69.774 C 221.545 68.195 217.467 75.957 211.81 75.957 C 206.153 75.957 201.418 71.616 201.418 66.485 C 201.418 61.355 209.721 45.436 214.054 40.043 C 218.388 34.649 233.508 19.392 232.332 17.812 C 231.156 16.233 218.256 22.416 214.054 22.415 C 209.852 22.414 197.734 21.89 193.006 23.731 C 188.278 25.571 180.501 32.283 174.318 34.256 C 168.135 36.229 160.374 40.835 157.874 38.334 C 155.375 35.834 167.478 20.181 165.11 16.891 C 162.742 13.601 144.449 20.179 134.195 24.257 C 123.942 28.336 111.429 37.15 99.861 37.019 C 88.292 36.887 71.577 47.017 66.71 51.095 C 61.843 55.173 55.175 68.026 43.426 83.586 C 40.247 87.796 29.877 99.372 26.858 101.345 C 23.839 103.319 19.097 112.922 20.017 113.579 C 20.938 114.237 28.963 105.686 31.331 104.766 C 33.699 103.845 41.065 96.741 44.091 93.189 C 47.117 89.637 57.238 75.037 60.527 71.485 C 63.816 67.933 80.654 55.961 83.548 60.302 C 86.443 64.643 66.06 77.272 61.719 82.139 C 57.378 87.006 48.827 104.897 46.459 108.054 C 44.091 111.211 32.507 119.895 29.876 122.527 C 27.245 125.157 22.641 137.653 22.641 157.254 C 22.641 166.546 24.156 176.917 26.85 184.618 C 29.839 193.162 34.158 198.561 36.856 198.561 C 41.986 198.561 53.036 186.327 55.536 182.643 C 58.035 178.96 59.614 173.303 62.377 169.62 C 65.139 165.936 75.268 160.806 77.505 159.227 C 79.741 157.649 88.818 148.245 89.994 147.125 C 91.171 146.004 97.649 139.595 102.762 132.787 C 107.242 126.824 110.278 120.185 110.524 117.789 C 111.05 112.658 104.867 106.609 102.762 105.951 C 100.658 105.293 97.098 104.899 97.098 103.189 C 97.098 101.478 102.236 94.636 101.184 93.189 C 100.132 91.742 88.16 101.345 84.609 105.292 C 81.057 109.238 77.505 124.63 77.505 130.944 C 77.505 137.258 83.548 142.389 83.548 147.125 C 83.548 151.86 77.497 156.202 73.288 156.071 C 69.078 155.939 61.719 143.441 61.719 126.208 C 61.719 108.975 74.085 91.084 81.188 83.586 C 88.292 76.088 100.518 69.379 114.068 69.379 C 127.618 69.379 145.779 77.929 145.516 82.139 C 145.253 86.349 120.101 99.504 120.522 117.789 C 120.785 129.234 130.512 141.206 138.01 141.469 C 145.509 141.732 154.06 126.998 154.717 115.685 C 155.375 104.372 142.096 98.451 141.964 93.847 C 141.833 89.243 171.958 61.617 175.378 65.3 C 178.799 68.984 160.776 84.375 160.776 91.084 C 160.776 97.793 170.511 102.792 169.985 120.288 C 169.458 137.785 151.173 154.36 146.963 157.254 C 142.754 160.148 132.098 185.801 130.256 186.59 C 128.415 187.379 125.784 186.59 125.521 184.222 C 125.388 183.024 128.442 176.196 130.907 170.411 C 133.316 164.756 133.414 159.227 131.572 159.227 C 129.73 159.227 129.244 164.357 127.355 169.62 C 125.466 174.881 123.547 179.354 121.837 178.96 C 120.428 178.635 119.561 175.227 119.988 171.332 C 120.597 165.775 123.803 160.148 121.837 159.227 C 119.872 158.307 116.117 165.963 114.858 172.12 C 113.959 176.513 114.078 180.935 112.49 180.935 C 110.671 180.935 108.095 176.713 107.885 171.332 C 107.655 165.424 112.358 159.227 109.069 158.703 C 106.864 158.351 104.294 166.265 102.36 172.384 C 101.41 175.39 101.432 178.96 100.132 178.96 C 98.519 178.96 96.886 177.422 96.177 173.699 C 95.151 168.308 95.606 160.725 94.599 160.413 C 93.592 160.101 90.022 165.733 89.994 172.12 C 89.97 178 91.923 184.599 92.238 187.248 C 92.896 192.773 95.001 203.297 96.974 204.086 C 98.947 204.875 99.342 192.904 102.762 194.088 C 106.183 195.272 103.42 212.242 106.314 211.847 C 109.208 211.453 110.787 188.432 113.944 188.826 C 117.102 189.221 114.602 210.927 116.312 210.664 C 118.022 210.4 120.522 198.561 123.547 198.561 C 126.573 198.561 121.296 212.903 122.487 213.822 C 123.679 214.742 127.092 210.402 128.012 208.166 C 128.933 205.929 128.941 197.64 131.572 190.931 C 134.203 184.222 142.491 178.565 143.543 180.275 C 144.596 181.986 135.255 193.957 134.598 196.719 C 133.94 199.482 131.572 215.399 128.678 219.346 C 125.784 223.292 120.522 225.266 113.023 225.266 C 105.525 225.266 97.369 222.371 93.817 220.004 C 90.265 217.636 84.601 165.28 80.128 165.28 C 75.656 165.28 63.56 190.931 56.588 196.982 C 49.616 203.034 36.856 211.847 33.699 214.873 C 30.541 217.899 22.122 232.896 24.088 234.343 Z M 186.947 49.91 C 184.842 50.831 183.658 52.014 183.658 54.909 C 183.658 57.803 187.613 57.54 190.499 56.751 C 193.385 55.963 195.235 52.278 193.525 50.699 C 191.814 49.12 189.052 48.989 186.947 49.91 Z M 154.717 167.648 C 152.752 165.544 147.095 171.856 148.14 173.699 C 149.184 175.541 156.683 169.753 154.717 167.648 Z" fill="black"/>
  <path d="M 110.524 87.138 C 109.208 86.348 110.903 82.271 112.226 81.482 C 113.55 80.693 116.838 82.007 116.699 83.192 C 116.56 84.377 111.839 87.928 110.524 87.138 Z" fill="black"/>
  <path d="M 226.683 130.944 C 225.104 129.628 226.164 124.366 228.262 122.788 C 230.359 121.21 234.963 121.303 235.884 122.394 C 236.805 123.485 234.567 128.839 232.997 129.892 C 231.427 130.944 228.262 132.26 226.683 130.944 Z" fill="black"/>
</svg>
