<?xml version="1.0" encoding="utf-8"?>
<svg width="256" height="256" viewBox="0 0 256 256" fill="none" xmlns="http://www.w3.org/2000/svg">
  <path fill-rule="evenodd" clip-rule="evenodd" d="M 164.107 142.093 C 163.415 146.662 169.368 153.722 169.368 160.367 C 169.368 167.012 164.782 167.704 164.799 170.196 C 164.817 172.688 165.215 176.149 169.922 176.149 C 174.628 176.149 184.181 167.012 191.241 167.012 C 198.301 167.012 206.193 170.611 204.538 172.965 C 202.883 175.318 193.186 171.857 187.787 174.626 C 182.388 177.395 174.628 186.116 168.26 186.116 C 161.892 186.116 156.362 179.61 155.254 176.149 C 154.146 172.688 157.462 161.751 152.063 161.198 C 146.664 160.644 135.866 174.903 135.866 180.579 C 135.866 186.255 144.449 198.438 146.948 200.791 C 149.446 203.144 153.856 209.512 168.26 209.512 C 182.665 209.512 182.526 193.869 188.618 189.577 C 194.709 185.286 205.784 186.67 213.121 184.732 C 220.458 182.794 223.359 170.75 225.996 170.75 C 228.633 170.75 228.765 189.993 224.473 194.284 C 220.182 198.576 199.97 193.869 195.816 198.437 C 191.663 203.006 198.031 239.277 168.26 239.277 C 138.489 239.277 129.504 206.605 125.213 209.512 C 120.921 212.42 139.887 237.616 137.672 239.831 C 135.458 242.046 100.156 222.11 100.571 204.529 C 100.986 186.947 121.192 178.641 121.192 172.965 C 121.192 167.289 115.35 162.028 110.954 162.028 C 106.557 162.028 101.962 166.596 98.494 166.596 C 95.027 166.596 85.475 162.859 82.706 165.627 C 79.937 168.396 91.843 181.133 91.843 187.086 C 91.843 193.038 88.942 204.529 85.481 202.729 C 82.02 200.929 87.413 186.947 82.706 181.271 C 77.999 175.595 68.592 174.211 72.33 162.72 C 76.067 151.23 92.673 154.691 94.48 150.538 C 96.286 146.385 86.042 136.971 76.344 136.971 C 66.647 136.971 48.788 154.414 48.788 168.535 C 48.788 182.655 64.162 185.563 68.868 189.439 C 71.163 191.329 72.762 196.124 73.16 202.175 C 73.579 208.538 72.771 216.173 74.261 218.373 C 77.168 222.664 85.481 225.156 85.481 227.786 C 85.481 230.417 82.297 232.078 74.261 232.078 C 71.716 232.078 64.181 229.336 62.362 221.834 C 60.656 214.797 64.728 203.158 60.701 197.884 C 55.462 191.023 44.226 194.284 38.135 194.284 C 28.167 194.284 16.257 188.747 16.675 170.334 C 17.092 151.922 53.772 130.603 48.788 125.619 C 43.804 120.635 22.07 142.37 18.747 139.047 C 15.425 135.725 42.697 100.977 55.433 100.977 C 68.17 100.977 78.552 122.435 84.644 122.435 C 90.735 122.435 95.58 115.928 95.58 111.637 C 95.58 107.345 89.766 102.361 89.766 96.824 C 89.766 91.286 96.965 86.164 91.843 82.426 C 86.72 78.688 76.753 91.286 68.723 91.286 C 60.694 91.286 52.111 86.995 52.941 83.672 C 53.772 80.35 60.556 85.334 66.232 85.195 C 71.908 85.057 82.429 71.213 89.351 71.628 C 96.273 72.043 100.01 76.197 102.641 79.104 C 105.271 82.011 101.672 93.086 105.825 93.917 C 109.978 94.747 119.115 85.887 119.115 76.889 C 119.115 67.89 107.763 48.509 87.551 48.647 C 67.339 48.786 75.507 65.537 64.986 70.659 C 54.464 75.781 46.435 70.52 38.544 73.981 C 30.653 77.442 33.151 85.61 29.552 84.918 C 25.953 84.226 25.676 80.211 25.676 75.089 C 25.676 69.967 27.192 64.291 33.283 61.522 C 39.374 58.753 53.91 64.568 58.341 60.138 C 62.771 55.708 61.802 52.8 61.802 45.325 C 61.802 37.849 63.054 16.253 83.952 16.253 C 112.199 16.253 126.597 51.278 130.335 46.571 C 134.073 41.864 112.608 19.437 116.346 16.253 C 120.084 13.069 155.392 40.757 155.392 54.185 C 155.392 67.614 135.451 79.104 135.451 85.057 C 135.451 91.01 140.922 96.409 146.387 96.409 C 151.853 96.409 154.693 91.702 160.231 91.702 C 165.769 91.702 173.521 95.716 174.767 91.702 C 176.013 87.687 167.015 76.197 167.015 69.136 C 167.015 62.076 172.967 52.939 174.767 53.493 C 176.567 54.047 171.728 68.582 173.389 71.628 C 175.051 74.674 185.842 79.935 185.842 94.747 C 185.842 109.56 164.523 104.3 162.861 107.484 C 161.2 110.668 170.891 121.743 180.72 121.743 C 190.549 121.743 208.269 107.899 208.269 89.764 C 208.269 71.628 191.248 73.705 186.818 67.89 C 182.388 62.076 185.987 42.833 181.419 38.957 C 176.85 35.08 170.759 31.342 171.451 28.989 C 172.143 26.636 185.018 26.359 189.725 30.235 C 191.84 31.977 195.187 38.02 195.263 44.079 C 195.355 51.503 193.803 59.574 199.139 61.937 C 204.176 64.168 214.406 61.408 223.089 63.46 C 231.111 65.356 237.792 71.629 238.317 83.395 C 239.41 107.899 206.608 130.652 208.269 132.578 C 209.93 134.504 238.033 116.067 239.279 117.036 C 240.525 118.005 220.867 155.245 201.901 155.799 C 182.935 156.352 178.083 136.888 172.829 136.495 C 167.575 136.103 164.799 137.525 164.107 142.093 Z M 121.192 153.445 L 144.871 126.47 C 145.612 125.43 145.18 124.573 143.884 124.511 L 133.242 124.511 L 137.423 105.697 C 137.423 104.412 136.806 104.167 136.004 105.269 L 113.428 130.619 C 112.626 131.721 113.057 132.578 114.415 132.578 L 126.182 132.578 L 119.772 153.017 C 119.772 154.302 120.389 154.547 121.192 153.445 Z" fill="black"/>
</svg>
