<?xml version="1.0" encoding="utf-8"?>
<svg width="256" height="256" viewBox="0 0 256 256" fill="none" xmlns="http://www.w3.org/2000/svg">
  <path d="M 122.448 16.019 L 217.702 50.937 C 217.922 51.018 217.957 51.316 217.76 51.445 L 191.238 68.802 C 191.075 68.908 191.064 69.143 191.216 69.264 L 235.537 104.749 C 235.788 104.95 235.584 105.353 235.28 105.248 C 225.161 101.722 168.209 81.853 138.575 70.958 C 138.34 70.871 138.337 70.551 138.562 70.439 L 171.179 54.2 C 171.369 54.105 171.394 53.844 171.225 53.715 L 122.177 16.516 C 121.915 16.317 122.14 15.906 122.448 16.019 Z" fill="black"/>
  <path d="M 42.795 155.361 L 42.795 100.704 L 18.042 100.704 L 18.042 155.361 L 42.795 155.361 Z" fill="black"/>
  <path d="M 237.957 128.033 C 237.957 128.033 227.011 100.704 171.186 100.704 L 59.106 100.704 L 59.106 155.361 L 171.186 155.361 C 227.011 155.361 237.957 128.033 237.957 128.033 Z" fill="black"/>
  <path d="M 217.82 205.063 L 122.567 239.981 C 122.258 240.094 122.034 239.682 122.295 239.484 L 171.343 202.285 C 171.512 202.156 171.488 201.895 171.298 201.8 L 138.68 185.561 C 138.456 185.449 138.458 185.129 138.694 185.042 C 168.327 174.146 225.279 154.278 235.399 150.752 C 235.702 150.647 235.906 151.05 235.655 151.251 L 191.335 186.735 C 191.183 186.857 191.194 187.092 191.357 187.198 L 217.878 204.555 C 218.075 204.684 218.041 204.982 217.82 205.063 Z" fill="black"/>
</svg>
