<?xml version="1.0" encoding="utf-8"?>
<svg width="256" height="256" viewBox="0 0 256 256" fill="none" xmlns="http://www.w3.org/2000/svg">
  <path d="M 122.025 45.132 L 122.025 26.082 C 122.025 26.082 123.29 22.293 124.91 20.365 C 125.187 20.035 125.421 19.685 125.647 19.349 C 126.278 18.408 126.838 17.573 128.069 17.573 C 129.3 17.573 129.859 18.408 130.49 19.349 L 130.491 19.35 C 130.716 19.686 130.95 20.035 131.228 20.365 C 132.847 22.293 134.112 26.082 134.112 26.082 L 134.112 45.132 C 137.609 46.191 140.155 49.44 140.155 53.283 L 140.155 63.584 L 136.996 63.447 C 136.996 63.447 133.305 53.981 132.835 53.52 C 131.518 52.23 130.351 51.086 127.782 51.086 C 125.214 51.086 124.046 52.23 122.729 53.52 C 122.259 53.981 118.866 63.721 118.866 63.721 L 115.982 63.721 L 115.982 53.283 C 115.982 49.44 118.528 46.191 122.025 45.132 Z" fill="black"/>
  <path d="M 121.888 122.596 L 121.888 103.546 C 121.888 103.546 123.153 99.756 124.772 97.829 C 125.05 97.499 125.284 97.149 125.509 96.813 C 126.14 95.871 126.7 95.037 127.931 95.037 C 129.162 95.037 129.722 95.872 130.353 96.813 C 130.578 97.149 130.813 97.499 131.09 97.829 C 132.71 99.756 133.975 103.546 133.975 103.546 L 133.975 122.596 C 137.472 123.655 140.018 126.904 140.018 130.747 L 140.018 175.659 C 130.953 182.801 125.322 183.351 115.845 175.659 L 115.845 130.747 C 115.845 126.904 118.391 123.655 121.888 122.596 Z" fill="black"/>
  <path d="M 127.656 186.372 C 119.964 186.372 113.785 180.878 113.785 180.878 L 113.785 190.355 C 113.785 190.355 121.063 195.437 127.656 195.437 C 134.248 195.437 142.353 190.355 142.353 190.355 L 142.353 180.878 C 142.353 180.878 135.347 186.372 127.656 186.372 Z" fill="black"/>
  <path d="M 121.613 64.814 L 121.613 83.864 C 118.116 84.923 115.57 88.172 115.57 92.015 L 115.57 102.453 L 118.454 102.453 C 118.454 102.453 121.847 92.713 122.317 92.252 C 123.634 90.962 124.801 89.817 127.37 89.817 C 129.938 89.817 131.106 90.962 132.423 92.252 C 132.893 92.713 136.584 102.179 136.584 102.179 L 139.743 102.316 L 139.743 92.015 C 139.743 88.172 137.197 84.923 133.7 83.864 L 133.7 64.814 C 133.7 64.814 132.435 61.024 130.815 59.097 C 130.539 58.767 130.304 58.418 130.079 58.082 L 130.078 58.081 C 129.447 57.14 128.888 56.305 127.657 56.305 C 126.426 56.305 125.866 57.14 125.235 58.081 C 125.009 58.417 124.775 58.767 124.497 59.097 C 122.878 61.024 121.613 64.814 121.613 64.814 Z" fill="black"/>
  <path d="M 26.526 54.984 L 35.781 71.013 C 39.196 70.23 42.887 71.744 44.754 74.978 L 64.202 107.398 L 64.202 127.725 C 64.202 127.725 59.268 121.55 58.934 120.902 C 57.298 117.734 55.498 114.42 53.804 111.67 C 52.957 110.296 52.115 109.026 51.315 107.972 C 50.55 106.964 49.69 105.97 48.786 105.313 C 46.458 103.62 44.796 102.71 43.374 101.932 C 41.992 101.176 40.635 100.419 38.37 98.737 C 37.539 98.119 35.954 96.314 33.871 93.553 C 31.874 90.907 29.636 87.685 27.527 84.543 C 26.325 82.752 25.17 80.996 24.134 79.4 C 24.502 78.448 25.047 77.564 25.756 76.802 L 16.501 60.772 C 16.501 60.772 15.709 56.978 16.116 54.58 C 16.186 54.17 16.211 53.763 16.234 53.373 C 16.3 52.278 16.359 51.308 17.38 50.718 C 18.401 50.129 19.271 50.563 20.252 51.053 C 20.602 51.228 20.966 51.41 21.357 51.555 C 23.636 52.401 26.526 54.984 26.526 54.984 Z" fill="black"/>
  <path d="M 26.526 92.342 L 35.781 108.372 C 39.196 107.588 42.887 109.103 44.754 112.336 C 44.754 112.336 65.097 147.168 66.572 150.128 C 68.048 153.088 70.591 169.2 70.658 171.951 L 64.889 171.951 C 64.432 171.112 63.464 169.307 62.294 167.126 L 62.29 167.117 L 62.289 167.116 L 62.288 167.114 C 59.502 161.922 55.576 154.602 54.672 153.088 C 53.402 150.958 52.148 149.007 51.174 148.033 C 49.541 146.4 47.711 145.227 45.782 144.112 C 45.118 143.728 44.455 143.358 43.773 142.977 C 42.4 142.21 40.954 141.402 39.282 140.363 C 39 140.188 38.397 139.664 37.464 138.629 C 36.582 137.649 35.55 136.376 34.417 134.891 C 32.155 131.923 29.585 128.228 27.151 124.599 C 25.905 122.74 24.7 120.907 23.597 119.208 C 23.716 117.342 24.465 115.548 25.756 114.16 L 16.501 98.13 C 16.501 98.13 15.709 94.336 16.116 91.939 C 16.186 91.528 16.211 91.121 16.234 90.731 C 16.3 89.636 16.359 88.666 17.38 88.076 C 18.401 87.487 19.271 87.921 20.252 88.411 C 20.602 88.586 20.966 88.768 21.357 88.913 C 23.636 89.759 26.526 92.342 26.526 92.342 Z" fill="black"/>
  <path d="M 28.724 132.448 L 37.979 148.477 C 41.395 147.694 45.084 149.208 46.952 152.442 L 68.77 190.233 C 64.646 201.244 59.709 203.478 48.72 201.809 L 26.901 164.018 C 25.034 160.784 25.568 156.831 27.954 154.265 L 18.699 138.236 C 18.699 138.236 17.907 134.442 18.314 132.044 C 18.384 131.634 18.409 131.227 18.432 130.836 C 18.498 129.742 18.557 128.771 19.578 128.182 C 20.599 127.592 21.469 128.027 22.45 128.517 C 22.8 128.692 23.164 128.874 23.555 129.018 C 25.834 129.865 28.724 132.448 28.724 132.448 Z" fill="black"/>
  <path d="M 64.178 204.904 C 70.558 201.221 73.015 193.638 73.015 193.638 L 77.619 201.613 C 77.619 201.613 74.05 209.374 68.582 212.531 C 63.114 215.689 53.923 215.293 53.923 215.293 L 49.319 207.319 C 49.319 207.319 57.799 208.587 64.178 204.904 Z" fill="black"/>
  <path d="M 229.473 55.043 L 220.219 71.073 C 216.803 70.289 213.113 71.803 211.246 75.037 L 191.798 107.457 L 191.798 127.784 C 191.798 127.784 196.732 121.609 197.066 120.961 C 198.702 117.793 200.502 114.479 202.196 111.728 C 203.043 110.355 203.884 109.085 204.685 108.03 C 205.449 107.023 206.31 106.03 207.214 105.372 C 209.542 103.679 211.204 102.769 212.626 101.991 C 214.008 101.235 215.365 100.478 217.63 98.796 C 218.461 98.178 220.045 96.373 222.129 93.612 C 224.126 90.966 226.364 87.744 228.473 84.602 C 229.675 82.811 230.83 81.055 231.866 79.459 C 231.498 78.507 230.953 77.623 230.244 76.861 L 239.5 60.831 C 239.5 60.831 240.29 57.037 239.884 54.639 C 239.813 54.229 239.789 53.822 239.765 53.431 C 239.701 52.337 239.641 51.366 238.621 50.777 C 237.598 50.188 236.729 50.622 235.748 51.112 C 235.398 51.287 235.034 51.469 234.643 51.614 C 232.363 52.46 229.473 55.043 229.473 55.043 Z" fill="black"/>
  <path d="M 229.473 92.401 L 220.219 108.431 C 216.803 107.647 213.113 109.162 211.246 112.395 C 211.246 112.395 190.903 147.227 189.427 150.187 C 187.952 153.147 185.409 169.259 185.342 172.01 L 191.111 172.01 C 191.568 171.17 192.538 169.362 193.71 167.177 L 193.711 167.175 L 193.713 167.172 C 196.498 161.979 200.424 154.661 201.327 153.147 C 202.598 151.017 203.852 149.066 204.826 148.092 C 206.459 146.459 208.289 145.286 210.218 144.171 C 210.881 143.787 211.544 143.417 212.225 143.037 L 212.227 143.036 C 213.599 142.269 215.046 141.461 216.718 140.422 C 217 140.247 217.603 139.723 218.536 138.688 C 219.418 137.708 220.45 136.435 221.582 134.95 C 223.845 131.982 226.414 128.288 228.849 124.657 C 230.095 122.799 231.3 120.966 232.403 119.267 C 232.283 117.401 231.535 115.607 230.244 114.219 L 239.5 98.189 C 239.5 98.189 240.29 94.395 239.884 91.998 C 239.813 91.587 239.789 91.18 239.765 90.79 C 239.701 89.695 239.641 88.725 238.621 88.135 C 237.598 87.546 236.729 87.98 235.748 88.47 C 235.398 88.645 235.033 88.827 234.643 88.972 C 232.363 89.818 229.473 92.401 229.473 92.401 Z" fill="black"/>
  <path d="M 227.276 132.507 L 218.021 148.536 C 214.605 147.753 210.915 149.267 209.048 152.501 L 187.229 190.292 C 191.354 201.303 196.291 203.537 207.28 201.868 L 229.099 164.077 C 230.966 160.843 230.432 156.891 228.046 154.324 L 237.3 138.295 C 237.3 138.295 238.093 134.5 237.686 132.103 C 237.616 131.693 237.591 131.286 237.567 130.895 C 237.501 129.801 237.443 128.83 236.422 128.241 C 235.401 127.651 234.531 128.086 233.55 128.576 C 233.2 128.751 232.836 128.933 232.445 129.077 C 230.165 129.924 227.276 132.507 227.276 132.507 Z" fill="black"/>
  <path d="M 191.822 204.963 C 185.442 201.28 182.985 193.697 182.985 193.697 L 178.381 201.672 C 178.381 201.672 181.95 209.433 187.418 212.59 C 192.886 215.747 202.077 215.352 202.077 215.352 L 206.681 207.378 C 206.681 207.378 198.201 208.646 191.822 204.963 Z" fill="black"/>
  <path d="M 78.915 113.91 L 83.689 131.258 C 87.185 131.334 90.35 133.645 91.313 137.145 L 102.569 178.045 C 95.746 187.458 90.408 188.389 80.247 184.189 L 68.991 143.289 C 68.028 139.789 69.565 136.183 72.528 134.33 L 67.754 116.982 C 67.754 116.982 67.972 113.209 68.985 111.042 C 69.158 110.671 69.287 110.293 69.411 109.93 C 69.758 108.912 70.065 108.01 71.202 107.697 C 72.339 107.384 73.065 108.002 73.883 108.699 C 74.176 108.948 74.48 109.207 74.819 109.437 C 76.798 110.78 78.915 113.91 78.915 113.91 Z" fill="black"/>
  <path d="M 94.348 190.803 C 101.45 188.848 105.78 182.275 105.78 182.275 L 108.155 190.905 C 108.155 190.905 102.708 197.383 96.62 199.058 C 90.532 200.734 81.774 198.165 81.774 198.165 L 79.399 189.535 C 79.399 189.535 87.245 192.758 94.348 190.803 Z" fill="black"/>
  <path d="M 83.14 91.428 L 78.366 74.079 C 78.366 74.079 76.248 70.95 74.269 69.606 C 73.931 69.376 73.626 69.117 73.334 68.868 C 72.515 68.171 71.789 67.554 70.652 67.866 C 69.516 68.179 69.208 69.082 68.861 70.099 C 68.737 70.463 68.609 70.841 68.435 71.212 C 67.423 73.379 67.205 77.151 67.205 77.151 L 71.979 94.499 C 69.947 95.77 68.585 97.865 68.241 100.185 C 69.314 100.053 70.462 99.935 71.475 99.882 C 72.011 99.854 72.549 99.841 73.041 99.861 C 73.474 99.879 74.098 99.926 74.686 100.122 C 75.431 100.371 75.95 100.874 76.137 101.056 C 76.415 101.327 76.686 101.644 76.938 101.959 C 77.446 102.597 78.034 103.433 78.663 104.383 C 79.93 106.295 81.492 108.861 83.141 111.675 C 86.443 117.311 90.171 124.077 92.727 128.914 C 92.896 129.232 93.097 129.6 93.324 130.016 L 93.325 130.017 C 95.863 134.666 101.653 145.266 101.149 158.628 C 101.598 158.174 102.616 157.466 103.753 156.676 C 105.464 155.488 107.444 154.113 108.153 153.134 L 90.764 97.315 C 89.8 93.815 86.635 91.504 83.14 91.428 Z" fill="black"/>
  <path d="M 78.366 36.446 L 83.14 53.795 C 86.635 53.871 89.8 56.182 90.764 59.682 L 108.84 116.325 C 108.254 117.134 106.581 118.055 105.059 118.892 C 103.892 119.534 102.814 120.128 102.385 120.583 C 101.943 119.157 100.754 114.164 99.525 109.008 L 99.525 109.006 L 99.525 109.005 C 98.136 103.178 96.699 97.143 96.236 95.815 C 95.59 93.961 94.97 92.305 94.411 91.003 C 94.133 90.353 93.853 89.754 93.578 89.246 C 93.333 88.795 92.981 88.204 92.515 87.738 C 90.816 86.038 89.216 85.226 88.026 84.64 C 86.863 84.068 86.486 83.859 86.196 83.519 C 86.177 83.476 86.13 83.37 86.064 83.172 C 85.941 82.802 85.807 82.299 85.648 81.633 C 85.552 81.232 85.447 80.769 85.333 80.263 L 85.333 80.262 C 85.09 79.192 84.805 77.931 84.474 76.672 C 83.49 72.931 81.874 68.194 78.552 64.71 C 75.695 61.714 72.325 60.136 69.485 59.304 C 70.121 58.336 70.967 57.499 71.979 56.866 L 67.205 39.518 C 67.205 39.518 67.423 35.746 68.435 33.579 C 68.609 33.208 68.737 32.83 68.861 32.466 C 69.208 31.449 69.516 30.546 70.652 30.233 C 71.789 29.92 72.515 30.539 73.334 31.235 C 73.626 31.484 73.931 31.743 74.269 31.973 C 76.248 33.317 78.366 36.446 78.366 36.446 Z" fill="black"/>
  <path d="M 177.085 113.969 L 172.31 131.317 C 168.815 131.393 165.65 133.704 164.687 137.204 L 153.43 178.104 C 160.254 187.517 165.592 188.448 175.753 184.248 L 187.009 143.348 C 187.972 139.848 186.435 136.242 183.471 134.389 L 188.246 117.041 C 188.246 117.041 188.028 113.268 187.015 111.101 C 186.842 110.73 186.713 110.352 186.589 109.989 C 186.242 108.971 185.935 108.069 184.798 107.756 C 183.661 107.443 182.935 108.061 182.116 108.758 C 181.824 109.007 181.52 109.266 181.181 109.496 C 179.203 110.839 177.085 113.969 177.085 113.969 Z" fill="black"/>
  <path d="M 161.652 190.862 C 154.55 188.907 150.22 182.334 150.22 182.334 L 147.845 190.964 C 147.845 190.964 153.292 197.442 159.38 199.117 C 165.468 200.793 174.225 198.225 174.225 198.225 L 176.601 189.594 C 176.601 189.594 168.755 192.817 161.652 190.862 Z" fill="black"/>
  <path d="M 172.86 91.487 L 177.634 74.139 C 177.634 74.139 179.752 71.009 181.73 69.665 C 182.069 69.435 182.373 69.176 182.666 68.927 C 183.484 68.231 184.211 67.612 185.347 67.925 C 186.484 68.238 186.792 69.141 187.138 70.158 C 187.262 70.522 187.391 70.9 187.565 71.271 C 188.577 73.438 188.795 77.21 188.795 77.21 L 184.021 94.558 C 186.053 95.829 187.415 97.924 187.759 100.244 C 186.686 100.112 185.538 99.994 184.524 99.941 C 183.989 99.913 183.451 99.9 182.959 99.92 C 182.525 99.938 181.902 99.985 181.314 100.181 C 180.569 100.43 180.05 100.932 179.863 101.115 C 179.585 101.386 179.313 101.703 179.062 102.018 C 178.553 102.656 177.966 103.492 177.337 104.442 C 176.07 106.355 174.508 108.92 172.859 111.734 C 169.557 117.37 165.829 124.136 163.272 128.973 C 163.104 129.291 162.903 129.66 162.675 130.076 C 160.136 134.725 154.347 145.325 154.851 158.687 C 154.402 158.233 153.384 157.525 152.246 156.735 C 150.535 155.547 148.556 154.172 147.847 153.193 L 165.236 97.374 C 166.199 93.874 169.365 91.563 172.86 91.487 Z" fill="black"/>
  <path d="M 177.634 36.505 L 172.86 53.854 C 169.365 53.93 166.199 56.241 165.236 59.741 L 147.16 116.385 C 147.746 117.193 149.419 118.114 150.941 118.951 C 152.108 119.593 153.186 120.187 153.615 120.642 C 154.057 119.215 155.247 114.221 156.475 109.064 L 156.475 109.063 L 156.476 109.061 C 157.864 103.235 159.301 97.202 159.764 95.874 C 160.41 94.021 161.03 92.364 161.589 91.062 C 161.867 90.412 162.147 89.813 162.422 89.305 C 162.667 88.854 163.018 88.263 163.485 87.797 C 165.184 86.097 166.784 85.285 167.974 84.7 C 169.137 84.127 169.513 83.918 169.804 83.578 C 169.823 83.535 169.869 83.428 169.936 83.231 C 170.059 82.861 170.193 82.358 170.352 81.692 C 170.447 81.291 170.553 80.828 170.667 80.322 L 170.667 80.321 L 170.668 80.319 C 170.91 79.25 171.195 77.99 171.526 76.731 C 172.51 72.99 174.126 68.253 177.448 64.769 C 180.305 61.773 183.675 60.195 186.515 59.363 C 185.878 58.395 185.033 57.558 184.021 56.925 L 188.795 39.577 C 188.795 39.577 188.577 35.805 187.565 33.638 C 187.391 33.267 187.262 32.889 187.138 32.525 C 186.792 31.508 186.484 30.605 185.347 30.292 C 184.211 29.98 183.484 30.598 182.666 31.294 C 182.373 31.543 182.069 31.802 181.73 32.032 C 179.752 33.376 177.634 36.505 177.634 36.505 Z" fill="black"/>
  <path d="M 39.617 202.442 C 35.909 202.442 36.734 238.427 36.734 238.427 L 221.053 238.427 C 221.053 238.427 222.564 200.519 218.992 200.519 C 217.595 200.519 215.463 204.302 212.866 208.908 C 208.825 216.077 203.659 225.242 198.391 225.242 C 195.675 225.242 191.795 222.995 186.471 219.913 C 174.834 213.175 156.297 202.442 127.932 202.442 C 99.976 202.442 82.132 212.868 70.576 219.619 C 65.044 222.851 60.954 225.242 57.885 225.242 C 52.055 225.242 47.888 216.613 44.681 209.972 C 42.675 205.818 41.044 202.442 39.617 202.442 Z" fill="black"/>
</svg>
