<?xml version="1.0" encoding="utf-8"?>
<svg width="256" height="256" viewBox="0 0 256 256" fill="none" xmlns="http://www.w3.org/2000/svg">
  <path d="M 240 163.104 C 240 163.104 236.657 150.706 219.606 150.706 C 199.212 150.706 183.164 150.706 183.164 150.706 L 183.164 175.502 C 183.164 175.502 199.212 175.502 219.606 175.502 C 236.657 175.502 240 163.104 240 163.104 Z" fill="black"/>
  <path d="M 218.826 116.577 C 218.826 116.577 215.483 104.179 198.432 104.179 C 178.038 104.179 161.99 104.179 161.99 104.179 L 161.99 128.975 C 161.99 128.975 178.038 128.975 198.432 128.975 C 215.483 128.975 218.826 116.577 218.826 116.577 Z" fill="black"/>
  <path d="M 218.826 208.517 C 218.826 208.517 215.483 196.119 198.432 196.119 C 178.038 196.119 161.99 196.119 161.99 196.119 L 161.99 220.915 C 161.99 220.915 178.038 220.915 198.432 220.915 C 215.483 220.915 218.826 208.517 218.826 208.517 Z" fill="black"/>
  <path d="M 55.562 22.547 C 54.485 22.547 53.612 23.42 53.612 24.497 L 53.612 32.298 C 53.612 33.375 54.485 34.248 55.562 34.248 L 57.513 34.248 L 57.513 41.492 C 57.513 42.569 58.386 43.443 59.463 43.443 L 92.617 43.443 C 93.694 43.443 94.567 42.569 94.567 41.492 L 94.567 34.248 L 96.517 34.248 C 97.595 34.248 98.468 33.375 98.468 32.298 L 98.468 24.497 C 98.468 23.42 97.595 22.547 96.517 22.547 L 55.562 22.547 Z" fill="black"/>
  <path d="M 49.153 136.975 C 48.174 137.954 48.174 139.541 49.153 140.521 L 66.198 157.566 L 50.091 173.674 C 49.112 174.653 49.112 176.24 50.091 177.22 L 56.891 184.019 C 57.87 184.999 59.458 184.999 60.437 184.019 L 76.544 167.912 L 91.446 182.813 C 92.425 183.793 94.013 183.793 94.992 182.813 L 101.792 176.014 C 102.771 175.035 102.771 173.447 101.792 172.468 L 86.89 157.566 L 102.73 141.726 C 103.709 140.747 103.709 139.16 102.73 138.181 L 95.93 131.381 C 94.951 130.401 93.363 130.401 92.384 131.381 L 76.544 147.22 L 59.499 130.175 C 58.52 129.196 56.932 129.196 55.953 130.175 L 49.153 136.975 Z" fill="black"/>
  <path d="M 97.214 52.915 L 57.373 52.915 C 51.449 52.915 46.647 57.718 46.647 63.641 C 46.647 67.466 48.649 70.823 51.662 72.723 C 52.63 73.344 55.702 75.565 55.702 78.547 C 55.702 82.169 49.795 83.283 49.572 83.283 L 35.781 83.283 C 24.856 83.283 16 92.14 16 103.064 L 16 213.671 C 16 224.596 24.856 233.452 35.781 233.452 L 118.806 233.452 C 129.731 233.452 138.587 224.596 138.587 213.671 L 138.587 212.278 L 153.632 212.278 L 153.632 205.87 L 104.876 205.87 L 104.876 199.741 L 138.587 199.741 L 138.587 166.308 L 175.085 166.308 L 175.085 159.9 L 107.383 159.9 L 107.383 166.308 L 123.267 166.308 C 119.093 188.359 99.723 205.035 76.458 205.035 C 50.146 205.035 28.816 183.704 28.816 157.393 C 28.816 131.081 50.146 109.751 76.458 109.751 C 101.551 109.751 122.113 129.151 123.964 153.771 L 138.587 153.771 L 138.587 120.338 L 153.632 120.338 L 153.632 113.93 L 104.876 113.93 L 104.876 107.801 L 138.587 107.801 L 138.587 103.064 C 138.587 92.14 129.731 83.283 118.806 83.283 L 101.532 83.283 C 101.532 83.283 98.468 81.333 98.468 78.547 C 98.468 75.761 102.925 72.723 102.925 72.723 C 105.938 70.823 107.94 67.466 107.94 63.641 C 107.94 57.718 103.138 52.915 97.214 52.915 Z" fill="black"/>
</svg>
