<?xml version="1.0" encoding="utf-8"?>
<svg width="256" height="256" viewBox="0 0 256 256" fill="none" xmlns="http://www.w3.org/2000/svg">
  <path fill-rule="evenodd" clip-rule="evenodd" d="M 91.931 66.382 C 91.931 53.001 97.539 24.836 132.075 24.836 C 158.099 24.836 164.586 45.965 167.784 56.381 C 168.83 59.788 169.524 62.049 170.435 62.049 C 172.495 62.049 176.259 59.118 179.363 56.701 C 181.827 54.782 183.875 53.187 184.326 53.638 C 185.346 54.657 181.481 60.932 169.67 69.186 C 164.38 72.883 157.819 76.028 151.765 78.931 C 142.178 83.528 133.859 87.517 133.859 92.125 C 133.859 94.164 137.938 95.311 144.437 95.311 C 153.903 95.311 159.921 86.076 163.928 79.926 C 166.179 76.472 167.796 73.991 169.033 74.666 C 170.553 75.494 168.737 79.567 166.731 84.066 C 164.195 89.755 161.356 96.126 164.573 97.478 C 167.911 98.881 170.376 91.168 172.529 84.434 C 174.091 79.547 175.488 75.175 176.935 75.175 C 180.375 75.175 181.905 78.616 181.905 87.028 C 181.905 92.092 175.945 96.787 170.701 100.917 C 167.236 103.647 164.084 106.13 163.171 108.31 C 163.041 108.621 162.892 108.99 162.722 109.411 L 162.721 109.413 C 159.892 116.418 151.328 137.622 130.291 137.622 C 109.541 137.622 100.242 114.897 97.94 109.269 L 97.939 109.269 L 97.939 109.267 C 97.767 108.847 97.634 108.523 97.539 108.31 C 96.02 104.935 92.59 102.234 89.158 99.533 C 84.556 95.909 79.952 92.284 79.952 87.028 C 79.952 77.852 82.755 74.666 84.412 74.666 C 85.039 74.666 86.323 78.041 87.877 82.128 C 90.429 88.84 93.712 97.471 96.009 96.203 C 97.934 95.141 96.748 90.727 95.169 84.851 C 93.717 79.443 91.931 72.795 91.931 66.382 Z M 125.958 93.145 C 127.36 89.576 120.241 85.43 114.998 82.694 C 109.987 80.08 103.401 77.087 100.852 79.636 C 98.303 82.185 100.342 86.645 105.44 90.723 C 110.537 94.801 124.556 96.713 125.958 93.145 Z M 124.429 41.658 C 124.429 44.403 122.203 46.629 119.458 46.629 C 116.713 46.629 114.488 44.403 114.488 41.658 C 114.488 38.913 116.713 36.688 119.458 36.688 C 122.203 36.688 124.429 38.913 124.429 41.658 Z M 125.448 54.912 C 125.448 57.657 123.223 59.882 120.478 59.882 C 117.733 59.882 115.508 57.657 115.508 54.912 C 115.508 52.167 117.733 49.942 120.478 49.942 C 123.223 49.942 125.448 52.167 125.448 54.912 Z M 121.752 72.117 C 124.497 72.117 126.723 69.892 126.723 67.147 C 126.723 64.402 124.497 62.176 121.752 62.176 C 119.007 62.176 116.782 64.402 116.782 67.147 C 116.782 69.892 119.007 72.117 121.752 72.117 Z M 141.633 72.117 C 138.888 72.117 136.663 69.892 136.663 67.147 C 136.663 64.402 138.888 62.176 141.633 62.176 C 144.378 62.176 146.604 64.402 146.604 67.147 C 146.604 69.892 144.378 72.117 141.633 72.117 Z M 142.908 59.882 C 140.163 59.882 137.938 57.657 137.938 54.912 C 137.938 52.167 140.163 49.942 142.908 49.942 C 145.653 49.942 147.878 52.167 147.878 54.912 C 147.878 57.657 145.653 59.882 142.908 59.882 Z M 144.437 46.629 C 141.692 46.629 139.467 44.403 139.467 41.658 C 139.467 38.913 141.692 36.688 144.437 36.688 C 147.182 36.688 149.407 38.913 149.407 41.658 C 149.407 44.403 147.182 46.629 144.437 46.629 Z" fill="black"/>
  <path d="M 130.674 226.066 C 129.527 227.341 134.113 232.566 135.898 230.782 C 137.684 228.998 131.821 224.792 130.674 226.066 Z" fill="black"/>
  <path d="M 218.354 113.663 C 217.844 113.218 217.907 110.739 217.971 108.225 C 218.035 105.705 218.1 103.15 217.589 102.575 C 216.569 101.428 204.717 104.869 204.723 106.144 C 204.724 106.34 205.564 107.355 206.922 108.998 L 206.923 108.999 C 209.832 112.516 215.118 118.908 219.633 126.28 C 223.717 132.945 227.268 140.318 229.701 145.364 C 231.494 149.085 232.676 151.541 233.012 151.513 C 234.545 151.386 240.911 138.514 239.889 136.475 C 239.258 135.21 236.47 135.514 234.351 135.746 C 233.054 135.887 232.01 136.001 231.863 135.711 C 231.704 135.393 231.853 133.618 232.026 131.553 C 232.272 128.656 232.563 125.187 232.117 124.369 C 231.68 123.565 230.153 124.018 228.762 124.431 C 227.724 124.738 226.765 125.023 226.383 124.751 C 225.944 124.438 226.152 122.09 226.371 119.618 C 226.598 117.063 226.835 114.376 226.383 113.663 C 225.896 112.897 223.843 113.236 221.917 113.555 C 220.323 113.818 218.816 114.067 218.354 113.663 Z" fill="black"/>
  <path d="M 169.416 134.308 C 173.487 133.544 197.962 165.149 196.561 166.806 C 196.333 167.075 195.227 166.787 193.63 166.37 C 190.51 165.555 185.514 164.25 181.522 165.659 C 177.598 167.044 175.517 168.435 174.326 169.232 C 173.544 169.755 173.144 170.022 172.856 169.865 C 172.047 169.421 169.715 164.544 168.778 156.331 C 168.413 153.127 166.959 150.125 165.697 147.52 C 164.619 145.293 163.681 143.356 163.681 141.827 C 163.681 141.827 165.344 135.073 169.416 134.308 Z" fill="black"/>
  <path d="M 191.335 107.163 C 189.997 104.869 174.641 111.496 174.641 124.751 C 174.641 127.054 177.576 130.083 181.537 134.168 C 182.616 135.281 183.771 136.472 184.963 137.749 C 188 141.001 190.893 144.695 193.039 147.438 C 194.921 149.841 196.229 151.513 196.561 151.513 C 197.962 151.513 192.992 118.251 191.335 117.741 C 190.628 117.523 189.478 118.515 188.274 119.553 C 186.66 120.946 184.947 122.423 184.071 121.182 C 183.301 120.09 185.491 117.121 187.683 114.151 C 189.841 111.227 191.999 108.301 191.335 107.163 Z" fill="black"/>
  <path d="M 225.23 156.331 C 228.003 152.517 201.907 109.05 197.192 110.579 C 195.047 111.275 199.303 130.046 202.256 143.072 L 202.292 143.23 C 202.468 144.009 202.64 144.767 202.805 145.498 C 204.145 151.43 204.651 156.023 205.005 159.232 C 205.407 162.883 205.611 164.742 206.622 164.742 C 208.471 164.742 210.196 163.632 212.309 162.271 L 212.31 162.271 C 213.11 161.755 213.966 161.204 214.906 160.664 C 216.725 159.618 218.967 158.897 220.91 158.272 C 222.975 157.608 224.704 157.053 225.23 156.331 Z" fill="black"/>
  <path d="M 139.212 158.012 C 139.212 155.361 153.23 147.307 155.524 147.307 C 157.818 147.307 162.788 165.914 161.387 167.316 C 159.985 168.718 139.212 160.664 139.212 158.012 Z" fill="black"/>
  <path d="M 117.547 158.012 C 117.674 155.361 104.42 148.964 100.47 149.346 C 96.519 149.729 96.137 179.933 97.666 182.354 C 99.195 184.775 156.671 231.165 171.582 231.165 L 225.23 231.165 C 225.23 231.165 206.495 196.755 201.403 196.755 C 199.308 196.755 197.059 199.474 194.765 202.249 C 191.486 206.216 188.113 210.295 184.963 206.695 C 182.052 203.368 193.771 194.987 204.41 187.379 L 204.411 187.379 C 213.33 181.001 221.49 175.165 219.633 173.305 C 217.585 171.254 212.47 174.361 206.577 177.941 C 200.754 181.478 194.172 185.476 189.041 185.412 C 184.278 185.354 173.899 181.143 162.76 176.626 C 149.759 171.352 135.724 165.659 128.379 165.659 C 121.047 165.659 115.078 169.123 110.413 171.83 C 106.402 174.157 103.355 175.925 101.234 174.452 C 98.422 172.5 105.138 167.76 110.788 163.773 C 114.355 161.256 117.497 159.039 117.547 158.012 Z" fill="black"/>
  <path d="M 126.468 221.733 C 128.762 219.439 99.068 185.412 75.364 185.412 C 51.659 185.412 30.249 231.165 30.249 231.165 L 72.177 231.165 C 77.805 231.165 84.015 227.36 90.342 223.484 C 96.91 219.461 103.604 215.361 109.9 215.361 C 116.111 215.361 119.948 218.346 122.522 220.349 C 124.334 221.758 125.52 222.681 126.468 221.733 Z" fill="black"/>
  <path d="M 38.029 108.735 C 38.093 111.249 38.156 113.728 37.646 114.173 C 37.184 114.577 35.676 114.328 34.083 114.064 C 32.157 113.746 30.105 113.406 29.617 114.173 C 29.165 114.886 29.403 117.573 29.63 120.128 C 29.849 122.6 30.057 124.947 29.617 125.261 C 29.236 125.533 28.275 125.248 27.239 124.94 C 25.847 124.527 24.32 124.075 23.883 124.878 C 23.437 125.697 23.729 129.166 23.973 132.063 C 24.147 134.128 24.296 135.903 24.137 136.221 C 23.991 136.511 22.945 136.397 21.648 136.255 C 19.53 136.024 16.742 135.72 16.11 136.985 C 15.09 139.024 21.455 151.896 22.987 152.023 C 23.323 152.05 24.506 149.595 26.3 145.873 C 28.731 140.828 32.283 133.455 36.366 126.789 C 40.882 119.418 46.168 113.026 49.077 109.508 C 50.436 107.865 51.276 106.85 51.277 106.654 C 51.283 105.379 39.431 101.938 38.411 103.085 C 37.9 103.659 37.965 106.214 38.029 108.735 Z" fill="black"/>
  <path d="M 59.561 167.953 C 58.159 166.296 82.761 133.799 86.833 134.563 C 90.905 135.328 91.421 143.229 91.421 143.229 C 91.421 144.91 90.908 147.026 90.314 149.478 C 89.735 151.865 89.079 154.571 88.745 157.503 C 88.32 161.225 88.133 165.12 87.979 168.309 C 87.794 172.156 87.658 174.974 87.216 175.217 C 86.875 175.403 85.398 174.659 83.255 173.579 C 80.827 172.356 77.542 170.701 74.089 169.482 C 70.331 168.156 65.879 168.197 62.893 168.224 C 61.085 168.241 59.815 168.253 59.561 167.953 Z" fill="black"/>
  <path d="M 81.742 124.878 C 81.4 111.879 64.792 104.614 63.9 106.144 C 63.503 106.825 65.404 109.527 67.5 112.508 C 70.112 116.22 73.026 120.362 72.177 121.564 C 71.303 122.804 69.721 121.415 68.217 120.096 C 67.092 119.109 66.011 118.16 65.302 118.378 C 63.645 118.888 62.619 144.886 64.021 144.886 C 65.423 144.886 81.844 128.752 81.742 124.878 Z" fill="black"/>
  <path d="M 57.904 109.967 C 53.189 108.438 27.093 151.905 29.867 155.719 C 30.392 156.441 32.12 156.996 34.185 157.66 C 36.129 158.285 38.371 159.006 40.19 160.052 C 41.13 160.592 41.986 161.143 42.786 161.659 C 44.9 163.019 46.625 164.13 48.474 164.13 C 53.011 164.13 56.375 155.081 55.865 140.935 C 55.636 134.569 56.689 127.109 57.538 121.103 C 58.405 114.962 59.058 110.341 57.904 109.967 Z" fill="black"/>
  <path d="M 188.277 51.854 C 187.385 50.579 192.611 46.247 193.756 47.394 C 194.901 48.541 189.17 53.128 188.277 51.854 Z" fill="black"/>
</svg>
