<?xml version="1.0" encoding="utf-8"?>
<svg width="256" height="256" viewBox="0 0 256 256" fill="none" xmlns="http://www.w3.org/2000/svg">
  <path fill-rule="evenodd" clip-rule="evenodd" d="M 117.776 128.91 C 117.776 128.91 237.792 128.477 238.918 70.332 C 239.093 61.32 223.849 25.099 142.213 25.099 C 70.117 25.099 29.909 69.205 29.909 69.205 C 39.701 44.942 67.604 31.771 115.957 16 C 115.957 16 16.245 27.273 17.085 71.545 C 17.778 108.113 86.755 117.038 109.458 117.038 C 185.799 117.038 227.047 73.711 227.047 73.711 C 197.736 116.972 161.106 122.439 122.797 128.157 L 122.796 128.157 C 121.126 128.407 119.452 128.657 117.776 128.91 Z M 55.992 72.758 C 55.992 72.758 66.737 35.757 143.252 35.757 C 219.768 35.757 206.51 70.765 206.51 70.765 C 206.51 70.765 178.347 51.791 128.695 51.791 C 79.042 51.791 55.992 72.758 55.992 72.758 Z M 75.056 94.947 C 70.897 94.947 58.245 85.504 58.245 82.729 C 58.245 81.315 86.581 58.991 128.695 58.991 C 163.434 58.991 199.8 75.434 200.097 76.837 C 200.704 79.698 192.039 86.282 188.746 86.282 C 188.421 86.282 187.24 85.925 185.337 85.349 C 177.454 82.966 157.183 76.837 134.067 76.837 C 103.036 76.837 84.84 88.779 77.999 93.268 C 76.416 94.307 75.441 94.947 75.056 94.947 Z M 85.021 97.891 C 119.856 81.949 149.058 83.595 177.827 90.353 C 144.206 106.558 109.718 103.872 85.021 97.891 Z" fill="black"/>
  <path d="M 111.104 170.417 C 166.649 170.417 212.056 122.844 212.056 122.844 C 212.056 122.844 185.193 138.182 135.54 138.182 C 85.888 138.182 47.76 118.338 47.76 118.338 C 67.691 137.315 94.207 148.494 141.433 148.494 C 141.433 148.494 133.201 156.032 102.872 156.032 C 72.544 156.032 55.559 144.421 55.559 144.421 C 55.559 144.421 71.59 170.417 111.104 170.417 Z" fill="black"/>
  <path d="M 66.304 171.457 C 66.304 171.457 73.063 192.947 102.872 192.947 C 132.681 192.947 159.717 166.951 159.717 166.951 C 159.717 166.951 132.507 180.469 104.172 180.469 C 75.836 180.469 66.304 171.457 66.304 171.457 Z" fill="black"/>
  <path d="M 132.074 195.98 C 132.074 195.98 123.322 213.484 109.891 213.484 C 96.46 213.484 77.396 195.98 77.396 195.98 C 77.396 195.98 89.441 202.826 105.558 202.826 C 121.675 202.826 132.074 195.98 132.074 195.98 Z" fill="black"/>
  <path d="M 118.903 220.33 C 114.166 227.311 111.652 231.31 109.458 240 L 90.827 240 C 82.1 228.308 78.893 219.873 74.016 207.041 L 74.005 207.013 C 73.754 206.351 73.498 205.678 73.236 204.992 C 89.198 218.658 98.299 223.521 118.903 220.33 Z" fill="black"/>
</svg>
