<?xml version="1.0" encoding="utf-8"?>
<svg width="256" height="256" viewBox="0 0 256 256" fill="none" xmlns="http://www.w3.org/2000/svg">
  <path fill-rule="evenodd" clip-rule="evenodd" d="M 147.981 28.969 C 147.965 28.68 147.718 28.459 147.429 28.473 L 42.205 33.655 C 42.065 33.662 41.934 33.724 41.84 33.828 C 41.746 33.931 41.697 34.068 41.704 34.208 L 50.224 204.341 C 50.231 204.482 50.295 204.614 50.4 204.708 C 50.505 204.802 50.644 204.85 50.785 204.841 L 157.151 197.902 C 157.44 197.883 157.66 197.635 157.643 197.346 L 147.981 28.969 Z M 95.019 92.327 L 95.019 104.111 C 91.067 105.603 88.785 109.368 88.785 113.884 C 88.785 119.695 93.446 124.405 99.194 124.405 C 104.943 124.405 109.603 119.695 109.603 113.884 C 109.603 109.368 106.524 105.516 102.572 104.024 L 102.572 91.774 C 122.659 92.226 138.847 105.854 138.847 113.884 C 138.847 117.735 131.641 123.638 123.477 127.9 L 126.463 131.94 C 127.796 133.669 126.96 136.886 126.185 137.484 C 125.409 138.081 122.086 138.288 120.754 136.559 L 116.011 131.589 C 112.529 132.936 108.5 133.656 105.207 134.239 L 105.207 140.46 C 105.207 142.643 102.66 145.379 101.43 145.379 C 100.201 145.379 97.566 142.643 97.566 140.46 L 97.566 134.65 C 93.69 134.357 89.48 133.139 85.533 131.852 C 85.533 131.852 81.492 136.068 79.823 137.649 C 78.155 139.23 75.266 139.732 74.729 139.318 C 74.192 138.904 73.748 135.338 75.08 133.609 L 77.364 129.217 C 67.901 124.911 61.202 119.22 61.203 116.689 C 61.203 112.334 76.646 95.225 95.019 92.327 Z" fill="black"/>
  <path fill-rule="evenodd" clip-rule="evenodd" d="M 148.874 16.012 C 154.238 15.749 158.88 19.853 159.193 25.296 L 169.221 199.528 C 169.535 204.976 165.387 209.589 160.024 209.938 L 49.62 217.118 C 47.004 217.288 44.422 216.407 42.451 214.661 L 42.449 214.659 L 42.442 214.653 C 41.668 213.966 41.142 213.136 40.807 212.532 C 40.448 211.883 40.163 211.218 39.949 210.663 C 39.731 210.099 39.563 209.585 39.45 209.214 L 39.161 208.166 L 30.298 31.721 C 30.166 29.094 31.088 26.529 32.848 24.591 C 34.607 22.654 37.057 21.502 39.655 21.374 L 148.874 16.012 Z M 46.78 206.935 L 46.782 206.941 C 46.857 207.187 46.965 207.518 47.099 207.864 C 47.236 208.221 47.377 208.534 47.507 208.768 C 47.549 208.844 47.582 208.896 47.603 208.929 C 48.027 209.267 48.569 209.441 49.126 209.404 L 159.529 202.224 C 160.761 202.144 161.628 201.105 161.563 199.975 L 151.535 25.744 C 151.469 24.61 150.483 23.671 149.247 23.732 L 40.029 29.095 C 39.438 29.124 38.892 29.385 38.507 29.809 C 38.124 30.23 37.931 30.778 37.959 31.33 L 46.78 206.935 Z" fill="black"/>
  <path d="M 172.476 90.246 C 172.308 90.19 172.124 90.223 171.986 90.333 C 171.847 90.442 171.772 90.614 171.787 90.79 C 171.787 90.79 171.855 91.624 171.888 92.028 C 171.953 92.837 172.048 94.024 172.167 95.539 C 172.404 98.568 172.737 102.907 173.116 108.144 C 173.875 118.617 174.822 132.681 175.574 147.042 C 176.325 161.405 176.882 176.06 176.862 187.718 C 176.851 193.548 176.697 198.618 176.352 202.524 C 176.179 204.477 175.96 206.129 175.69 207.434 C 175.416 208.755 175.102 209.664 174.769 210.176 C 173.23 212.538 170.446 214.233 167.041 215.428 C 163.645 216.619 159.702 217.288 155.937 217.648 C 152.176 218.008 148.614 218.056 145.991 218.015 C 144.68 217.994 143.605 217.951 142.859 217.913 C 142.486 217.894 141.699 217.843 141.699 217.843 C 141.436 217.822 141.198 218 141.143 218.259 C 141.088 218.517 141.233 218.777 141.482 218.865 L 142.528 219.236 C 143.201 219.474 144.173 219.818 145.373 220.243 C 147.773 221.092 151.08 222.261 154.713 223.542 C 161.977 226.104 170.543 229.113 175.742 230.9 C 175.876 230.946 176.022 230.936 176.149 230.873 C 176.275 230.81 176.371 230.698 176.415 230.564 L 216.993 105.401 C 217.083 105.125 216.932 104.829 216.657 104.738 L 172.476 90.246 Z" fill="black"/>
  <path fill-rule="evenodd" clip-rule="evenodd" d="M 175.148 86.15 C 173.521 85.712 172.061 85.324 170.819 84.997 L 170.819 80.456 C 172.274 80.838 174.137 81.33 176.289 81.909 C 181.611 83.341 188.713 85.305 195.821 87.426 C 202.916 89.544 210.065 91.834 215.459 93.921 C 218.144 94.959 220.474 95.977 222.162 96.928 C 222.997 97.399 223.772 97.905 224.366 98.45 C 224.86 98.902 225.715 99.812 225.715 101.111 C 225.715 102.022 225.515 103.333 225.219 104.843 C 224.912 106.405 224.466 108.345 223.905 110.594 C 222.782 115.094 221.179 120.907 219.249 127.557 C 215.387 140.86 210.198 157.577 204.879 173.965 C 199.56 190.352 194.106 206.433 189.713 218.462 C 187.518 224.472 185.577 229.5 184.044 233.059 C 183.281 234.83 182.597 236.289 182.016 237.337 C 181.73 237.852 181.43 238.339 181.123 238.729 C 180.97 238.922 180.77 239.151 180.521 239.357 C 180.305 239.535 179.847 239.869 179.188 239.957 C 178.465 240.052 177.622 239.978 176.822 239.859 C 175.975 239.733 174.987 239.527 173.896 239.262 C 171.712 238.732 168.996 237.935 165.966 236.968 C 159.899 235.034 152.446 232.38 145.222 229.71 C 137.994 227.037 130.971 224.339 125.757 222.309 C 123.749 221.527 122.009 220.845 120.627 220.3 L 132.736 220.3 C 136.968 221.928 141.81 223.766 146.745 225.59 C 153.948 228.254 161.328 230.88 167.3 232.784 C 170.289 233.738 172.894 234.5 174.933 234.995 C 175.953 235.243 176.801 235.416 177.466 235.515 C 177.657 235.543 177.821 235.563 177.961 235.578 C 178.024 235.473 178.096 235.35 178.175 235.207 C 178.649 234.352 179.265 233.051 180.011 231.321 C 181.494 227.878 183.401 222.941 185.587 216.956 C 189.955 204.995 195.392 188.97 200.702 172.61 C 206.011 156.251 211.186 139.58 215.031 126.333 C 216.955 119.707 218.541 113.953 219.644 109.531 C 220.196 107.318 220.623 105.457 220.909 103.997 C 221.124 102.907 221.244 102.117 221.294 101.597 C 221.041 101.387 220.626 101.104 220.007 100.755 C 218.597 99.96 216.501 99.032 213.875 98.017 C 208.647 95.995 201.632 93.744 194.565 91.635 C 187.509 89.528 180.448 87.576 175.148 86.15 Z M 221.531 101.827 C 221.529 101.826 221.517 101.813 221.5 101.787 C 221.524 101.814 221.533 101.827 221.531 101.827 Z" fill="black"/>
</svg>
