<?xml version="1.0" encoding="utf-8"?>
<svg width="256" height="256" viewBox="0 0 256 256" fill="none" xmlns="http://www.w3.org/2000/svg">
  <path d="M 218.516 185.648 C 222.651 183.869 225.533 179.853 225.533 175.186 C 225.533 168.867 220.25 163.744 213.734 163.744 C 207.217 163.744 201.935 168.867 201.935 175.186 C 201.935 175.75 201.977 176.304 202.058 176.848 C 196.751 176.452 191.99 178.268 189.546 182.159 C 185.52 188.571 189.304 198.196 197.999 203.654 C 206.693 209.114 217.005 208.342 221.031 201.929 C 223.965 197.256 222.756 190.877 218.516 185.648 Z" fill="black"/>
  <path d="M 180.004 190.922 C 183.262 187.914 183.961 183.372 181.565 180.778 C 179.169 178.183 174.586 178.518 171.328 181.528 C 169.212 183.482 168.176 186.083 168.365 188.376 C 168.083 188.488 166.891 188.951 166.607 189.077 C 161.419 191.373 157.907 194.804 158.764 196.741 C 159.621 198.678 164.521 198.387 169.71 196.091 C 171.506 195.297 173.101 194.366 174.384 193.41 C 176.288 193.316 178.322 192.475 180.004 190.922 Z" fill="black"/>
  <path d="M 232.501 54.206 C 229.377 54.943 225.917 51.622 224.776 46.787 C 223.634 41.952 225.243 37.435 228.37 36.697 C 231.494 35.959 234.953 39.281 236.094 44.116 C 237.236 48.95 235.627 53.468 232.501 54.206 Z" fill="black"/>
  <path d="M 102.595 50.718 C 105.64 52.397 109.049 52.053 110.209 49.95 C 111.368 47.846 109.84 44.78 106.795 43.101 C 103.749 41.422 100.341 41.766 99.181 43.869 C 98.021 45.973 99.55 49.039 102.595 50.718 Z" fill="black"/>
  <path fill-rule="evenodd" clip-rule="evenodd" d="M 103.116 59.254 L 117.213 65.866 L 106.988 87.667 C 111.34 90.935 114.303 94.823 116.179 99.042 C 118.868 105.091 119.243 111.629 118.566 117.654 C 117.284 129.054 112.161 139.177 110.787 141.892 L 110.737 141.991 C 110.716 142.032 110.697 142.07 110.679 142.106 C 110.663 142.137 110.648 142.166 110.635 142.194 C 110.624 142.215 110.613 142.236 110.603 142.257 C 108.563 146.338 80.601 205.836 79.275 208.84 C 78.522 210.546 75.007 217.531 67.718 222.362 C 60.248 227.313 49.157 229.769 33.903 222.796 C 26.184 219.269 21.408 214.4 18.75 208.917 C 16.111 203.475 15.658 197.635 16.203 192.29 C 17.21 182.426 21.684 173.739 22.945 171.291 L 22.945 171.29 L 22.947 171.287 L 22.947 171.286 L 22.948 171.284 C 23.043 171.1 23.12 170.951 23.175 170.841 C 24.809 167.563 47.86 119.051 50.135 114.063 C 50.262 113.784 50.435 113.375 50.655 112.855 L 50.655 112.854 C 52.262 109.049 56.372 99.316 63.346 91.55 C 67.339 87.104 72.392 83.15 78.618 81.319 C 82.927 80.052 87.687 79.835 92.888 81.062 L 103.116 59.254 Z M 54.971 114.588 C 56.649 110.642 60.422 101.763 66.804 94.656 C 70.438 90.609 74.796 87.288 79.93 85.779 C 85.007 84.285 91.077 84.493 98.329 87.899 C 105.572 91.3 109.706 95.925 111.931 100.93 C 114.18 105.988 114.566 111.629 113.947 117.135 C 113.434 121.698 112.246 126.061 110.954 129.76 C 109.256 132.114 105.954 133.846 102.822 135.01 C 101.748 135.408 100.725 135.73 99.841 135.98 L 54.849 114.877 L 54.971 114.588 Z M 20.828 192.762 C 21.292 188.212 22.578 183.916 23.896 180.468 L 24.264 179.654 C 24.949 178.497 25.692 177.709 26.505 177.191 C 27.326 176.67 28.286 176.38 29.466 176.324 C 31.488 176.229 34.07 176.821 37.474 178.045 L 79.34 197.681 C 76.961 202.765 75.326 206.276 75.023 206.963 C 74.435 208.295 71.38 214.359 65.15 218.488 C 59.1 222.498 49.72 224.915 35.835 218.569 C 28.982 215.437 25.066 211.289 22.932 206.889 C 20.779 202.449 20.34 197.539 20.828 192.762 Z" fill="black"/>
  <path d="M 142.627 49.288 C 144.011 49.611 145.396 49.696 146.723 49.565 C 147.031 49.754 150.286 49.732 150.611 49.939 C 152.312 52.742 152.131 52.844 156.064 55.749 C 157.769 57.911 157.448 60.043 157.597 62.198 C 157.708 63.796 157.578 65.649 157.397 68.237 L 157.397 68.238 L 157.397 68.239 L 157.397 68.242 C 157.336 69.113 157.269 70.068 157.203 71.124 L 124.063 71.124 C 123.488 71.124 123 71.544 122.914 72.112 C 122.828 72.68 123.171 73.226 123.72 73.396 C 137.995 77.808 156.954 79.157 181.577 79.018 C 180.506 79.969 179.62 80.916 178.748 81.871 C 178.681 81.945 178.615 82.018 178.548 82.091 C 178.492 82.153 178.436 82.214 178.38 82.275 L 178.355 82.303 C 176.97 83.828 175.564 85.375 173.394 87.11 C 173.107 87.34 172.946 87.693 172.959 88.06 C 172.972 88.428 173.159 88.768 173.463 88.976 C 177.541 91.775 181.747 93.916 185.765 95.961 L 185.765 95.962 L 185.766 95.962 L 185.767 95.962 L 185.77 95.964 C 187.02 96.6 188.252 97.227 189.456 97.862 C 193.756 100.129 197.762 102.519 201.261 105.836 C 194.324 105.595 188.932 104.692 183.617 103.589 C 182.161 103.287 180.706 102.969 179.223 102.645 L 179.222 102.645 C 174.584 101.63 169.674 100.557 163.639 99.738 C 163.269 99.688 162.898 99.819 162.641 100.089 C 162.384 100.36 162.272 100.738 162.341 101.105 L 163.646 108.044 C 161.178 107.039 158.076 105.753 155.36 104.622 C 153.608 103.892 151.776 103.126 150.626 102.644 C 150.308 102.511 150.03 102.394 149.797 102.296 L 149.006 101.964 C 148.484 101.745 147.88 101.933 147.576 102.409 C 147.272 102.886 147.354 103.513 147.772 103.894 L 147.779 103.9 L 147.781 103.902 C 148.724 104.768 151.514 107.331 153.106 108.809 C 156.298 111.773 160.539 115.745 164.733 119.783 C 168.931 123.825 178.443 133.783 178.443 133.783 C 176.907 132.796 174.928 131.423 172.629 129.766 C 167.242 125.883 160.183 120.496 153.157 115.034 C 146.134 109.574 139.154 104.047 133.93 99.883 C 131.318 97.802 129.145 96.062 127.625 94.842 C 126.865 94.232 125.24 92.924 125.24 92.924 C 124.906 92.655 124.452 92.591 124.057 92.758 C 123.663 92.925 123.392 93.295 123.353 93.721 C 123.297 94.329 123.439 94.942 123.656 95.51 C 123.877 96.087 124.204 96.692 124.599 97.311 C 125.388 98.549 126.52 99.953 127.843 101.454 C 129.765 103.633 132.173 106.105 134.672 108.67 L 134.672 108.671 L 134.673 108.672 C 135.613 109.636 136.565 110.614 137.509 111.594 C 140.992 115.211 144.38 118.878 146.777 122.188 C 147.975 123.842 148.895 125.368 149.458 126.72 C 150.027 128.087 150.181 129.16 150.01 129.97 C 149.924 130.379 149.663 131.046 149.2 131.957 C 148.749 132.845 148.144 133.893 147.43 135.043 C 146.002 137.341 144.167 139.995 142.32 142.504 C 141.797 143.214 141.274 143.912 140.761 144.585 C 133.243 146.889 127.906 152.711 127.906 159.529 C 127.906 164.547 130.797 169.026 135.321 171.959 C 139.221 176.196 143.537 178.859 150.879 179.73 C 152.046 181.299 155.113 182.59 156.958 182.59 C 158.837 182.59 162.671 181.35 163.841 179.73 C 172.762 178.495 178.491 174.334 181.643 168.456 C 189.01 169.486 197.072 168.707 202.009 162.389 C 204.949 158.626 206.507 151.971 206.657 147.55 C 208.837 147.969 210.68 148.673 213.004 149.07 C 227.662 151.573 240 139.512 240 128.601 C 240 123.895 238.555 119.389 234.814 115.996 C 235.082 112.68 234.251 110.065 233.835 107.596 C 233.087 103.157 231.115 99.861 227.662 96.563 C 225.23 94.241 223.78 90.939 223.537 87.783 C 223.412 86.149 223.021 85.417 223.537 84.085 C 226.465 82.425 229.093 77.839 229.093 73.448 C 229.093 72.19 228.927 70.979 228.619 69.857 C 228.929 68.512 229.093 67.112 229.093 65.671 C 229.093 55.452 220.809 47.168 210.591 47.168 C 205.748 47.168 201.34 49.028 198.042 52.073 C 195.86 51.425 193.547 51.631 191.616 52.844 C 187.73 55.289 186.858 60.895 189.669 65.367 C 189.669 65.367 190.299 67.012 189.556 68.049 C 188.536 69.853 187.249 70.614 186.066 70.727 C 184.866 70.841 183.506 70.313 182.309 69 C 182.103 68.774 181.92 68.447 181.739 67.965 C 181.574 67.522 181.386 66.84 181.224 66.251 C 180.867 64.961 180.403 63.345 179.323 61.885 C 177.167 58.972 172.95 57.118 164.008 57.791 L 163.851 57.457 L 163.851 57.456 C 160.297 49.877 157.197 43.266 155.151 36.084 C 153.993 33.343 151.51 31.246 148.33 29.912 C 142.412 27.43 135.86 29.601 133.695 34.76 C 132.906 36.641 132.809 38.661 133.292 40.588 C 132.234 42.778 132.406 45.466 133.969 47.531 C 136.017 50.238 139.742 50.939 142.627 49.288 Z" fill="black"/>
</svg>
